G04 (created by PCBNEW-RS274X (2012-01-19 BZR 3256)-stable) date 01/09/2012 10:31:30*
G01*
G70*
G90*
%MOIN*%
G04 Gerber Fmt 3.4, Leading zero omitted, Abs format*
%FSLAX34Y34*%
G04 APERTURE LIST*
%ADD10C,0.006000*%
%ADD11R,0.060000X0.060000*%
%ADD12C,0.060000*%
%ADD13R,0.078700X0.007800*%
%ADD14R,0.045000X0.055000*%
%ADD15R,0.080000X0.144000*%
%ADD16R,0.080000X0.040000*%
%ADD17R,0.070000X0.110000*%
%ADD18R,0.055000X0.045000*%
%ADD19R,0.086600X0.055100*%
%ADD20R,0.055100X0.078700*%
%ADD21R,0.055100X0.055100*%
%ADD22R,0.078700X0.027600*%
%ADD23R,0.075000X0.020000*%
%ADD24C,0.025000*%
%ADD25C,0.008000*%
%ADD26C,0.015000*%
%ADD27C,0.020000*%
%ADD28C,0.010000*%
G04 APERTURE END LIST*
G54D10*
G54D11*
X12000Y-36000D03*
G54D12*
X12000Y-35000D03*
X17000Y-36000D03*
X13000Y-35000D03*
X18000Y-36000D03*
X14000Y-35000D03*
X19000Y-36000D03*
X15000Y-35000D03*
X20000Y-36000D03*
X16000Y-35000D03*
X21000Y-36000D03*
X17000Y-35000D03*
X22000Y-36000D03*
X18000Y-35000D03*
X23000Y-36000D03*
X19000Y-35000D03*
X24000Y-36000D03*
X20000Y-35000D03*
X25000Y-36000D03*
X21000Y-35000D03*
X26000Y-36000D03*
X22000Y-35000D03*
X27000Y-36000D03*
X23000Y-35000D03*
X24000Y-35000D03*
X28000Y-36000D03*
X25000Y-35000D03*
X27000Y-35000D03*
X28000Y-35000D03*
X29000Y-35000D03*
X30000Y-35000D03*
X29000Y-36000D03*
X30000Y-36000D03*
X13000Y-36000D03*
X14000Y-36000D03*
X15000Y-36000D03*
X16000Y-36000D03*
X31000Y-36000D03*
X31000Y-35000D03*
X26000Y-35000D03*
X32000Y-36000D03*
X32000Y-35000D03*
X33000Y-36000D03*
X33000Y-35000D03*
X34000Y-36000D03*
X34000Y-35000D03*
X35000Y-36000D03*
X35000Y-35000D03*
X36000Y-36000D03*
X36000Y-35000D03*
X37000Y-36000D03*
X37000Y-35000D03*
X38000Y-36000D03*
X38000Y-35000D03*
X39000Y-36000D03*
X39000Y-35000D03*
X40000Y-36000D03*
X40000Y-35000D03*
X41000Y-36000D03*
X41000Y-35000D03*
G54D11*
X41000Y-12000D03*
G54D12*
X41000Y-13000D03*
X36000Y-12000D03*
X40000Y-13000D03*
X35000Y-12000D03*
X39000Y-13000D03*
X34000Y-12000D03*
X38000Y-13000D03*
X33000Y-12000D03*
X37000Y-13000D03*
X32000Y-12000D03*
X36000Y-13000D03*
X31000Y-12000D03*
X35000Y-13000D03*
X30000Y-12000D03*
X34000Y-13000D03*
X29000Y-12000D03*
X33000Y-13000D03*
X28000Y-12000D03*
X32000Y-13000D03*
X27000Y-12000D03*
X31000Y-13000D03*
X26000Y-12000D03*
X30000Y-13000D03*
X29000Y-13000D03*
X25000Y-12000D03*
X28000Y-13000D03*
X26000Y-13000D03*
X25000Y-13000D03*
X24000Y-13000D03*
X23000Y-13000D03*
X24000Y-12000D03*
X23000Y-12000D03*
X40000Y-12000D03*
X39000Y-12000D03*
X38000Y-12000D03*
X37000Y-12000D03*
X22000Y-12000D03*
X22000Y-13000D03*
X27000Y-13000D03*
X21000Y-12000D03*
X21000Y-13000D03*
X20000Y-12000D03*
X20000Y-13000D03*
X19000Y-12000D03*
X19000Y-13000D03*
X18000Y-12000D03*
X18000Y-13000D03*
X17000Y-12000D03*
X17000Y-13000D03*
X16000Y-12000D03*
X16000Y-13000D03*
X15000Y-12000D03*
X15000Y-13000D03*
X14000Y-12000D03*
X14000Y-13000D03*
X13000Y-12000D03*
X13000Y-13000D03*
X12000Y-12000D03*
X12000Y-13000D03*
G54D11*
X12000Y-32500D03*
G54D12*
X12000Y-31500D03*
X17000Y-32500D03*
X13000Y-31500D03*
X18000Y-32500D03*
X14000Y-31500D03*
X19000Y-32500D03*
X15000Y-31500D03*
X20000Y-32500D03*
X16000Y-31500D03*
X21000Y-32500D03*
X17000Y-31500D03*
X22000Y-32500D03*
X18000Y-31500D03*
X23000Y-32500D03*
X19000Y-31500D03*
X24000Y-32500D03*
X20000Y-31500D03*
X25000Y-32500D03*
X21000Y-31500D03*
X26000Y-32500D03*
X22000Y-31500D03*
X27000Y-32500D03*
X23000Y-31500D03*
X24000Y-31500D03*
X28000Y-32500D03*
X25000Y-31500D03*
X27000Y-31500D03*
X28000Y-31500D03*
X29000Y-31500D03*
X30000Y-31500D03*
X29000Y-32500D03*
X30000Y-32500D03*
X13000Y-32500D03*
X14000Y-32500D03*
X15000Y-32500D03*
X16000Y-32500D03*
X31000Y-32500D03*
X31000Y-31500D03*
X26000Y-31500D03*
X32000Y-32500D03*
X32000Y-31500D03*
X33000Y-32500D03*
X33000Y-31500D03*
X34000Y-32500D03*
X34000Y-31500D03*
X35000Y-32500D03*
X35000Y-31500D03*
X36000Y-32500D03*
X36000Y-31500D03*
X37000Y-32500D03*
X37000Y-31500D03*
X38000Y-32500D03*
X38000Y-31500D03*
X39000Y-32500D03*
X39000Y-31500D03*
X40000Y-32500D03*
X40000Y-31500D03*
X41000Y-32500D03*
X41000Y-31500D03*
G54D11*
X41000Y-08500D03*
G54D12*
X41000Y-09500D03*
X36000Y-08500D03*
X40000Y-09500D03*
X35000Y-08500D03*
X39000Y-09500D03*
X34000Y-08500D03*
X38000Y-09500D03*
X33000Y-08500D03*
X37000Y-09500D03*
X32000Y-08500D03*
X36000Y-09500D03*
X31000Y-08500D03*
X35000Y-09500D03*
X30000Y-08500D03*
X34000Y-09500D03*
X29000Y-08500D03*
X33000Y-09500D03*
X28000Y-08500D03*
X32000Y-09500D03*
X27000Y-08500D03*
X31000Y-09500D03*
X26000Y-08500D03*
X30000Y-09500D03*
X29000Y-09500D03*
X25000Y-08500D03*
X28000Y-09500D03*
X26000Y-09500D03*
X25000Y-09500D03*
X24000Y-09500D03*
X23000Y-09500D03*
X24000Y-08500D03*
X23000Y-08500D03*
X40000Y-08500D03*
X39000Y-08500D03*
X38000Y-08500D03*
X37000Y-08500D03*
X22000Y-08500D03*
X22000Y-09500D03*
X27000Y-09500D03*
X21000Y-08500D03*
X21000Y-09500D03*
X20000Y-08500D03*
X20000Y-09500D03*
X19000Y-08500D03*
X19000Y-09500D03*
X18000Y-08500D03*
X18000Y-09500D03*
X17000Y-08500D03*
X17000Y-09500D03*
X16000Y-08500D03*
X16000Y-09500D03*
X15000Y-08500D03*
X15000Y-09500D03*
X14000Y-08500D03*
X14000Y-09500D03*
X13000Y-08500D03*
X13000Y-09500D03*
X12000Y-08500D03*
X12000Y-09500D03*
G54D13*
X24037Y-26870D03*
X24037Y-26673D03*
X24037Y-26476D03*
X24037Y-26280D03*
X24037Y-26083D03*
X24037Y-25886D03*
X24037Y-25689D03*
X24037Y-25492D03*
X24037Y-25295D03*
X24037Y-25098D03*
X24037Y-24902D03*
X24037Y-24705D03*
X24037Y-24508D03*
X24037Y-24311D03*
X24037Y-24114D03*
X24037Y-23917D03*
X24037Y-23720D03*
X24037Y-23524D03*
X24037Y-23327D03*
X24037Y-23130D03*
X24037Y-22933D03*
X24037Y-22736D03*
X24037Y-22539D03*
X24037Y-22343D03*
X16163Y-22343D03*
X16163Y-22539D03*
X16163Y-22736D03*
X16163Y-22933D03*
X16163Y-23130D03*
X16163Y-23327D03*
X16163Y-23524D03*
X16163Y-23720D03*
X16163Y-23917D03*
X16163Y-24114D03*
X16163Y-24311D03*
X16163Y-24508D03*
X16163Y-24705D03*
X16163Y-24902D03*
X16163Y-25098D03*
X16163Y-25295D03*
X16163Y-25492D03*
X16163Y-25689D03*
X16163Y-25886D03*
X16163Y-26083D03*
X16163Y-26280D03*
X16163Y-26476D03*
X16163Y-26673D03*
X16163Y-26870D03*
X16163Y-27067D03*
X16163Y-27264D03*
X16163Y-27461D03*
X16163Y-27657D03*
X24037Y-27067D03*
X24037Y-27264D03*
X24037Y-27461D03*
X24037Y-27657D03*
X27063Y-15630D03*
X27063Y-15827D03*
X27063Y-16024D03*
X27063Y-16220D03*
X27063Y-16417D03*
X27063Y-16614D03*
X27063Y-16811D03*
X27063Y-17008D03*
X27063Y-17205D03*
X27063Y-17402D03*
X27063Y-17598D03*
X27063Y-17795D03*
X27063Y-17992D03*
X27063Y-18189D03*
X27063Y-18386D03*
X27063Y-18583D03*
X27063Y-18780D03*
X27063Y-18976D03*
X27063Y-19173D03*
X27063Y-19370D03*
X27063Y-19567D03*
X27063Y-19764D03*
X34937Y-19764D03*
X34937Y-19567D03*
X34937Y-19370D03*
X34937Y-19173D03*
X34937Y-18976D03*
X34937Y-18780D03*
X34937Y-18583D03*
X34937Y-18386D03*
X34937Y-18189D03*
X34937Y-17992D03*
X34937Y-17795D03*
X34937Y-17598D03*
X34937Y-17402D03*
X34937Y-17205D03*
X34937Y-17008D03*
X34937Y-16811D03*
X34937Y-16614D03*
X34937Y-16417D03*
X34937Y-16220D03*
X34937Y-16024D03*
X34937Y-15827D03*
X34937Y-15630D03*
X34937Y-15433D03*
X34937Y-15236D03*
X27063Y-15433D03*
X27063Y-15236D03*
G54D14*
X39175Y-24750D03*
X38325Y-24750D03*
X39175Y-27750D03*
X38325Y-27750D03*
X39175Y-27000D03*
X38325Y-27000D03*
X39175Y-26250D03*
X38325Y-26250D03*
X39175Y-25500D03*
X38325Y-25500D03*
X39175Y-24000D03*
X38325Y-24000D03*
X39175Y-28500D03*
X38325Y-28500D03*
G54D11*
X43500Y-16500D03*
G54D12*
X44500Y-16500D03*
X43500Y-17500D03*
X44500Y-17500D03*
X43500Y-18500D03*
X44500Y-18500D03*
X43500Y-19500D03*
X44500Y-19500D03*
X43500Y-20500D03*
X44500Y-20500D03*
X43500Y-21500D03*
X44500Y-21500D03*
G54D11*
X43500Y-12000D03*
G54D12*
X44500Y-12000D03*
X43500Y-13000D03*
X44500Y-13000D03*
X43500Y-14000D03*
X44500Y-14000D03*
X43500Y-15000D03*
X44500Y-15000D03*
G54D11*
X43500Y-07500D03*
G54D12*
X44500Y-07500D03*
X43500Y-08500D03*
X44500Y-08500D03*
X43500Y-09500D03*
X44500Y-09500D03*
X43500Y-10500D03*
X44500Y-10500D03*
G54D15*
X37700Y-19000D03*
G54D16*
X40300Y-19000D03*
X40300Y-18100D03*
X40300Y-19900D03*
G54D17*
X39700Y-16500D03*
X38300Y-16500D03*
X39700Y-21500D03*
X38300Y-21500D03*
G54D18*
X25100Y-18125D03*
X25100Y-17275D03*
X36000Y-18025D03*
X36000Y-17175D03*
X26100Y-18125D03*
X26100Y-17275D03*
G54D14*
X35075Y-24500D03*
X35925Y-24500D03*
G54D18*
X25900Y-28225D03*
X25900Y-27375D03*
X15100Y-17275D03*
X15100Y-18125D03*
X25000Y-28225D03*
X25000Y-27375D03*
G54D14*
X14475Y-24600D03*
X15325Y-24600D03*
G54D18*
X25500Y-21875D03*
X25500Y-22725D03*
X36000Y-15325D03*
X36000Y-16175D03*
X25500Y-24425D03*
X25500Y-23575D03*
G54D10*
G36*
X23644Y-19331D02*
X24430Y-19331D01*
X24430Y-19409D01*
X23644Y-19409D01*
X23644Y-19331D01*
X23644Y-19331D01*
G37*
G36*
X23644Y-19134D02*
X24430Y-19134D01*
X24430Y-19212D01*
X23644Y-19212D01*
X23644Y-19134D01*
X23644Y-19134D01*
G37*
G36*
X23644Y-18937D02*
X24430Y-18937D01*
X24430Y-19015D01*
X23644Y-19015D01*
X23644Y-18937D01*
X23644Y-18937D01*
G37*
G36*
X23644Y-18741D02*
X24430Y-18741D01*
X24430Y-18819D01*
X23644Y-18819D01*
X23644Y-18741D01*
X23644Y-18741D01*
G37*
G36*
X23644Y-18544D02*
X24430Y-18544D01*
X24430Y-18622D01*
X23644Y-18622D01*
X23644Y-18544D01*
X23644Y-18544D01*
G37*
G36*
X23644Y-18347D02*
X24430Y-18347D01*
X24430Y-18425D01*
X23644Y-18425D01*
X23644Y-18347D01*
X23644Y-18347D01*
G37*
G36*
X23644Y-18150D02*
X24430Y-18150D01*
X24430Y-18228D01*
X23644Y-18228D01*
X23644Y-18150D01*
X23644Y-18150D01*
G37*
G36*
X23644Y-17953D02*
X24430Y-17953D01*
X24430Y-18031D01*
X23644Y-18031D01*
X23644Y-17953D01*
X23644Y-17953D01*
G37*
G36*
X23644Y-17756D02*
X24430Y-17756D01*
X24430Y-17834D01*
X23644Y-17834D01*
X23644Y-17756D01*
X23644Y-17756D01*
G37*
G36*
X23644Y-17559D02*
X24430Y-17559D01*
X24430Y-17637D01*
X23644Y-17637D01*
X23644Y-17559D01*
X23644Y-17559D01*
G37*
G36*
X23644Y-17363D02*
X24430Y-17363D01*
X24430Y-17441D01*
X23644Y-17441D01*
X23644Y-17363D01*
X23644Y-17363D01*
G37*
G36*
X23644Y-17166D02*
X24430Y-17166D01*
X24430Y-17244D01*
X23644Y-17244D01*
X23644Y-17166D01*
X23644Y-17166D01*
G37*
G36*
X23644Y-16969D02*
X24430Y-16969D01*
X24430Y-17047D01*
X23644Y-17047D01*
X23644Y-16969D01*
X23644Y-16969D01*
G37*
G36*
X23644Y-16772D02*
X24430Y-16772D01*
X24430Y-16850D01*
X23644Y-16850D01*
X23644Y-16772D01*
X23644Y-16772D01*
G37*
G36*
X23644Y-16575D02*
X24430Y-16575D01*
X24430Y-16653D01*
X23644Y-16653D01*
X23644Y-16575D01*
X23644Y-16575D01*
G37*
G36*
X23644Y-16378D02*
X24430Y-16378D01*
X24430Y-16456D01*
X23644Y-16456D01*
X23644Y-16378D01*
X23644Y-16378D01*
G37*
G36*
X23644Y-16181D02*
X24430Y-16181D01*
X24430Y-16259D01*
X23644Y-16259D01*
X23644Y-16181D01*
X23644Y-16181D01*
G37*
G36*
X23644Y-15985D02*
X24430Y-15985D01*
X24430Y-16063D01*
X23644Y-16063D01*
X23644Y-15985D01*
X23644Y-15985D01*
G37*
G36*
X23644Y-15788D02*
X24430Y-15788D01*
X24430Y-15866D01*
X23644Y-15866D01*
X23644Y-15788D01*
X23644Y-15788D01*
G37*
G36*
X23644Y-15591D02*
X24430Y-15591D01*
X24430Y-15669D01*
X23644Y-15669D01*
X23644Y-15591D01*
X23644Y-15591D01*
G37*
G36*
X23644Y-15394D02*
X24430Y-15394D01*
X24430Y-15472D01*
X23644Y-15472D01*
X23644Y-15394D01*
X23644Y-15394D01*
G37*
G36*
X23644Y-15197D02*
X24430Y-15197D01*
X24430Y-15275D01*
X23644Y-15275D01*
X23644Y-15197D01*
X23644Y-15197D01*
G37*
G54D13*
X16163Y-15236D03*
X16163Y-15433D03*
X16163Y-15630D03*
X16163Y-15827D03*
X16163Y-16024D03*
X16163Y-16220D03*
X16163Y-16417D03*
X16163Y-16614D03*
X16163Y-16811D03*
X16163Y-17008D03*
X16163Y-17205D03*
X16163Y-17402D03*
X16163Y-17598D03*
X16163Y-17795D03*
X16163Y-17992D03*
X16163Y-18189D03*
X16163Y-18386D03*
X16163Y-18583D03*
X16163Y-18780D03*
X16163Y-18976D03*
X16163Y-19173D03*
X16163Y-19370D03*
G54D10*
G36*
X15770Y-19528D02*
X16556Y-19528D01*
X16556Y-19606D01*
X15770Y-19606D01*
X15770Y-19528D01*
X15770Y-19528D01*
G37*
G36*
X15770Y-19725D02*
X16556Y-19725D01*
X16556Y-19803D01*
X15770Y-19803D01*
X15770Y-19725D01*
X15770Y-19725D01*
G37*
G36*
X23644Y-19528D02*
X24430Y-19528D01*
X24430Y-19606D01*
X23644Y-19606D01*
X23644Y-19528D01*
X23644Y-19528D01*
G37*
G36*
X23644Y-19725D02*
X24430Y-19725D01*
X24430Y-19803D01*
X23644Y-19803D01*
X23644Y-19725D01*
X23644Y-19725D01*
G37*
G54D14*
X39425Y-23000D03*
X38575Y-23000D03*
X14475Y-25400D03*
X15325Y-25400D03*
G54D18*
X15100Y-15675D03*
X15100Y-16525D03*
X36000Y-19725D03*
X36000Y-18875D03*
G54D11*
X11000Y-25500D03*
G54D12*
X12000Y-25500D03*
X11000Y-26500D03*
X12000Y-26500D03*
X11000Y-27500D03*
X12000Y-27500D03*
X11000Y-28500D03*
X12000Y-28500D03*
G54D11*
X11000Y-20750D03*
G54D12*
X12000Y-20750D03*
X11000Y-21750D03*
X12000Y-21750D03*
X11000Y-22750D03*
X12000Y-22750D03*
X11000Y-23750D03*
X12000Y-23750D03*
G54D11*
X11000Y-16000D03*
G54D12*
X12000Y-16000D03*
X11000Y-17000D03*
X12000Y-17000D03*
X11000Y-18000D03*
X12000Y-18000D03*
X11000Y-19000D03*
X12000Y-19000D03*
G54D11*
X43500Y-34000D03*
G54D12*
X44500Y-34000D03*
X43500Y-35000D03*
X44500Y-35000D03*
X43500Y-36000D03*
X44500Y-36000D03*
X43500Y-37000D03*
X44500Y-37000D03*
G54D11*
X43500Y-29500D03*
G54D12*
X44500Y-29500D03*
X43500Y-30500D03*
X44500Y-30500D03*
X43500Y-31500D03*
X44500Y-31500D03*
X43500Y-32500D03*
X44500Y-32500D03*
G54D11*
X36500Y-22000D03*
G54D12*
X35500Y-22000D03*
G54D19*
X44488Y-28610D03*
X44488Y-22390D03*
G54D20*
X40709Y-22705D03*
G54D21*
X40709Y-28610D03*
G54D22*
X40433Y-28079D03*
X40433Y-27646D03*
X40433Y-27213D03*
X40433Y-26780D03*
X40433Y-26346D03*
X40433Y-25913D03*
X40433Y-25480D03*
X40433Y-25047D03*
X40433Y-24614D03*
G54D23*
X36900Y-26500D03*
X36900Y-27000D03*
X36900Y-27500D03*
X36900Y-28000D03*
X34100Y-28000D03*
X34100Y-27500D03*
X34100Y-27000D03*
X34100Y-26500D03*
G54D14*
X35925Y-25500D03*
X35075Y-25500D03*
G54D24*
X36200Y-27800D03*
X36600Y-28600D03*
X20900Y-29400D03*
X16800Y-20000D03*
X21000Y-30100D03*
X17100Y-19800D03*
X17400Y-20000D03*
X17900Y-26300D03*
X17800Y-20000D03*
X17900Y-25900D03*
X18200Y-20000D03*
X17900Y-25500D03*
X17500Y-25000D03*
X17500Y-25400D03*
X28700Y-16100D03*
X21500Y-25900D03*
X19000Y-17700D03*
X19200Y-18000D03*
X21500Y-25500D03*
X28400Y-16300D03*
X25500Y-25500D03*
X23000Y-17900D03*
X23300Y-17700D03*
X25500Y-25100D03*
X25000Y-24500D03*
X23300Y-17300D03*
X24800Y-24100D03*
X23000Y-17100D03*
X24800Y-23700D03*
X23000Y-16700D03*
X23300Y-16500D03*
X25000Y-23400D03*
X28100Y-16500D03*
X21500Y-25100D03*
X19400Y-18300D03*
X27800Y-16700D03*
X19600Y-18600D03*
X21500Y-24700D03*
X21500Y-24300D03*
X19800Y-18900D03*
X28700Y-18500D03*
X28400Y-18700D03*
X21500Y-23900D03*
X20000Y-19200D03*
X28100Y-18900D03*
X21500Y-23500D03*
X20200Y-19500D03*
X20400Y-19800D03*
X27800Y-19100D03*
X21900Y-23500D03*
X22400Y-18300D03*
X25500Y-26300D03*
X22700Y-18100D03*
X25500Y-25900D03*
X26100Y-14300D03*
X27900Y-15300D03*
X24700Y-16600D03*
X28150Y-30700D03*
X22400Y-17900D03*
X25500Y-26700D03*
X20900Y-29000D03*
X25100Y-16600D03*
X23300Y-30400D03*
X17100Y-25400D03*
X18600Y-20000D03*
X23700Y-30700D03*
X16900Y-24800D03*
X26100Y-14700D03*
X14500Y-16600D03*
X39200Y-13800D03*
X42750Y-35000D03*
X42500Y-34000D03*
X42000Y-31500D03*
X41750Y-30500D03*
X42250Y-32500D03*
X41500Y-29500D03*
X39725Y-25875D03*
X38300Y-22400D03*
X38325Y-25875D03*
X21100Y-18800D03*
X40300Y-20600D03*
X25600Y-17200D03*
X18200Y-15900D03*
X15100Y-18700D03*
X39800Y-26800D03*
X14000Y-29500D03*
X34200Y-17300D03*
X32400Y-15500D03*
X26100Y-23400D03*
X40100Y-28600D03*
X25500Y-21000D03*
X14400Y-17300D03*
X14400Y-25000D03*
X25600Y-18200D03*
X37400Y-26500D03*
X34200Y-17700D03*
X36000Y-14800D03*
X36000Y-20300D03*
G54D25*
X22000Y-08500D02*
X22500Y-09000D01*
G54D26*
X35800Y-14000D02*
X31600Y-14000D01*
X22500Y-13300D02*
X22800Y-13600D01*
X31600Y-14000D02*
X31200Y-13600D01*
X22500Y-12500D02*
X22500Y-13300D01*
G54D25*
X22500Y-11500D02*
X22000Y-12000D01*
G54D26*
X40300Y-18100D02*
X39900Y-18100D01*
X39900Y-18100D02*
X38300Y-16500D01*
G54D25*
X22500Y-09000D02*
X22500Y-11500D01*
G54D26*
X22800Y-13600D02*
X31200Y-13600D01*
X38300Y-16500D02*
X35800Y-14000D01*
X22500Y-12500D02*
X22000Y-12000D01*
G54D25*
X12500Y-09000D02*
X12500Y-11500D01*
X12000Y-08500D02*
X12500Y-09000D01*
X12500Y-11500D02*
X12000Y-12000D01*
X14500Y-09000D02*
X14500Y-11500D01*
X14500Y-11500D02*
X14000Y-12000D01*
X14000Y-08500D02*
X14500Y-09000D01*
X13500Y-11500D02*
X13000Y-12000D01*
X13000Y-08500D02*
X13500Y-09000D01*
X13500Y-09000D02*
X13500Y-11500D01*
X27000Y-08500D02*
X27500Y-09000D01*
X27500Y-11500D02*
X27000Y-12000D01*
X27500Y-09000D02*
X27500Y-11500D01*
X15500Y-11500D02*
X15000Y-12000D01*
X15500Y-09000D02*
X15500Y-11500D01*
X15000Y-08500D02*
X15500Y-09000D01*
X44500Y-31500D02*
X45000Y-32000D01*
X45000Y-35500D02*
X44500Y-36000D01*
X36800Y-28300D02*
X36300Y-28300D01*
X44000Y-31000D02*
X43300Y-31000D01*
X38500Y-30000D02*
X36800Y-28300D01*
X45000Y-32000D02*
X45000Y-35500D01*
X38500Y-30000D02*
X42300Y-30000D01*
X42300Y-30000D02*
X43300Y-31000D01*
X35000Y-27000D02*
X34100Y-27000D01*
X36300Y-28300D02*
X35000Y-27000D01*
X44500Y-31500D02*
X44000Y-31000D01*
X38600Y-29800D02*
X36900Y-28100D01*
X38600Y-29800D02*
X42800Y-29800D01*
X44000Y-30000D02*
X43000Y-30000D01*
X36900Y-28000D02*
X36900Y-28100D01*
X44000Y-30000D02*
X44500Y-30500D01*
X42800Y-29800D02*
X43000Y-30000D01*
X43300Y-32000D02*
X43000Y-31700D01*
X44500Y-32500D02*
X44000Y-32000D01*
X43000Y-31000D02*
X43000Y-31700D01*
X38400Y-30200D02*
X36800Y-28600D01*
X44000Y-32000D02*
X43300Y-32000D01*
X42200Y-30200D02*
X38400Y-30200D01*
X44000Y-36500D02*
X44500Y-37000D01*
X44500Y-32500D02*
X44000Y-33000D01*
X44000Y-33000D02*
X44000Y-36500D01*
X34800Y-26500D02*
X36100Y-27800D01*
X36100Y-27800D02*
X36200Y-27800D01*
X36600Y-28600D02*
X36800Y-28600D01*
X34100Y-26500D02*
X34800Y-26500D01*
X43000Y-31000D02*
X42200Y-30200D01*
X41000Y-29600D02*
X41600Y-29000D01*
X37500Y-28400D02*
X37500Y-27700D01*
X37500Y-27700D02*
X37300Y-27500D01*
X37300Y-27500D02*
X36900Y-27500D01*
X44500Y-29500D02*
X44300Y-29500D01*
X37500Y-28400D02*
X38700Y-29600D01*
X44300Y-29500D02*
X43800Y-29000D01*
X38700Y-29600D02*
X41000Y-29600D01*
X43800Y-29000D02*
X41600Y-29000D01*
X11500Y-32000D02*
X12000Y-32500D01*
X21400Y-29400D02*
X20900Y-29400D01*
X12700Y-30100D02*
X11500Y-31300D01*
X24037Y-27264D02*
X23536Y-27264D01*
X11500Y-35500D02*
X12000Y-36000D01*
X17300Y-14800D02*
X16900Y-14400D01*
X12000Y-32500D02*
X11500Y-33000D01*
X23536Y-27264D02*
X21400Y-29400D01*
X12700Y-16000D02*
X12700Y-30100D01*
X17300Y-15700D02*
X17300Y-14800D01*
X16900Y-14400D02*
X14300Y-14400D01*
X11500Y-31300D02*
X11500Y-32000D01*
X16163Y-16024D02*
X16976Y-16024D01*
X14300Y-14400D02*
X12700Y-16000D01*
X16976Y-16024D02*
X17300Y-15700D01*
X11500Y-33000D02*
X11500Y-35500D01*
X17100Y-14900D02*
X16800Y-14600D01*
X14600Y-30000D02*
X13500Y-30000D01*
X16800Y-14600D02*
X14400Y-14600D01*
X16664Y-27264D02*
X16800Y-27400D01*
X16873Y-15827D02*
X17100Y-15600D01*
X12900Y-26400D02*
X13764Y-27264D01*
X13764Y-27264D02*
X16163Y-27264D01*
X16800Y-27400D02*
X16800Y-27800D01*
X16163Y-27264D02*
X16664Y-27264D01*
X16800Y-27800D02*
X14600Y-30000D01*
X16163Y-15827D02*
X16873Y-15827D01*
X13500Y-30000D02*
X12000Y-31500D01*
X17100Y-15600D02*
X17100Y-14900D01*
X12900Y-16100D02*
X12900Y-26400D01*
X14400Y-14600D02*
X12900Y-16100D01*
X18600Y-24800D02*
X18600Y-29200D01*
X16500Y-33000D02*
X16500Y-35500D01*
X16163Y-23720D02*
X17520Y-23720D01*
X20900Y-21300D02*
X23224Y-18976D01*
X16163Y-23720D02*
X15220Y-23720D01*
X14800Y-21800D02*
X15300Y-21300D01*
X14800Y-23300D02*
X14800Y-21800D01*
X23224Y-18976D02*
X24037Y-18976D01*
X16500Y-35500D02*
X17000Y-36000D01*
X15220Y-23720D02*
X14800Y-23300D01*
X17520Y-23720D02*
X18600Y-24800D01*
X16500Y-32000D02*
X17000Y-32500D01*
X18600Y-29200D02*
X16500Y-31300D01*
X16500Y-32000D02*
X16500Y-31300D01*
X17000Y-32500D02*
X16500Y-33000D01*
X15300Y-21300D02*
X20900Y-21300D01*
X17000Y-31500D02*
X18800Y-29700D01*
X23327Y-19173D02*
X21000Y-21500D01*
X17624Y-23524D02*
X18800Y-24700D01*
X15324Y-23524D02*
X16163Y-23524D01*
X16163Y-23524D02*
X17624Y-23524D01*
X21000Y-21500D02*
X15400Y-21500D01*
X15000Y-23200D02*
X15324Y-23524D01*
X24037Y-19173D02*
X23327Y-19173D01*
X18800Y-24700D02*
X18800Y-29700D01*
X15400Y-21500D02*
X15000Y-21900D01*
X15000Y-21900D02*
X15000Y-23200D01*
X17500Y-32000D02*
X18000Y-32500D01*
X23430Y-19370D02*
X24037Y-19370D01*
X15500Y-21700D02*
X21100Y-21700D01*
X15200Y-23100D02*
X15200Y-22000D01*
X15427Y-23327D02*
X15200Y-23100D01*
X17500Y-31300D02*
X17500Y-32000D01*
X19000Y-24600D02*
X19000Y-29800D01*
X17727Y-23327D02*
X19000Y-24600D01*
X18000Y-32500D02*
X17500Y-33000D01*
X19000Y-29800D02*
X17500Y-31300D01*
X16163Y-23327D02*
X15427Y-23327D01*
X15200Y-22000D02*
X15500Y-21700D01*
X17500Y-33000D02*
X17500Y-35500D01*
X16163Y-23327D02*
X17727Y-23327D01*
X17500Y-35500D02*
X18000Y-36000D01*
X21100Y-21700D02*
X23430Y-19370D01*
X17830Y-23130D02*
X16163Y-23130D01*
X15400Y-22100D02*
X15400Y-23000D01*
X15530Y-23130D02*
X16163Y-23130D01*
X24037Y-19567D02*
X23533Y-19567D01*
X17830Y-23130D02*
X19200Y-24500D01*
X21200Y-21900D02*
X15600Y-21900D01*
X23533Y-19567D02*
X21200Y-21900D01*
X15600Y-21900D02*
X15400Y-22100D01*
X19200Y-30300D02*
X19200Y-24500D01*
X18000Y-31500D02*
X19200Y-30300D01*
X15400Y-23000D02*
X15530Y-23130D01*
X18500Y-32000D02*
X19000Y-32500D01*
X19000Y-32500D02*
X18500Y-33000D01*
X19400Y-24400D02*
X19400Y-30400D01*
X17933Y-22933D02*
X19400Y-24400D01*
X21300Y-22100D02*
X23636Y-19764D01*
X16163Y-22933D02*
X15633Y-22933D01*
X18500Y-33000D02*
X18500Y-35500D01*
X15600Y-22200D02*
X15700Y-22100D01*
X23636Y-19764D02*
X24037Y-19764D01*
X15700Y-22100D02*
X21300Y-22100D01*
X15633Y-22933D02*
X15600Y-22900D01*
X18500Y-35500D02*
X19000Y-36000D01*
X15600Y-22900D02*
X15600Y-22200D01*
X16163Y-22933D02*
X17933Y-22933D01*
X19400Y-30400D02*
X18500Y-31300D01*
X18500Y-31300D02*
X18500Y-32000D01*
X19600Y-24300D02*
X18036Y-22736D01*
X16564Y-19764D02*
X16800Y-20000D01*
X19600Y-30900D02*
X19600Y-24300D01*
X19000Y-31500D02*
X19600Y-30900D01*
X18036Y-22736D02*
X16163Y-22736D01*
X16163Y-19764D02*
X16564Y-19764D01*
X16163Y-19567D02*
X16867Y-19567D01*
X20964Y-22736D02*
X24037Y-22736D01*
X20964Y-22736D02*
X20600Y-23100D01*
X16867Y-19567D02*
X17100Y-19800D01*
X20600Y-23100D02*
X20600Y-29700D01*
X21000Y-30100D02*
X20600Y-29700D01*
X17170Y-19370D02*
X17400Y-19600D01*
X17400Y-19600D02*
X17400Y-20000D01*
X17486Y-25886D02*
X17900Y-26300D01*
X16163Y-25886D02*
X17486Y-25886D01*
X20000Y-31500D02*
X19500Y-32000D01*
X16163Y-19370D02*
X17170Y-19370D01*
X19500Y-32000D02*
X19500Y-34500D01*
X19500Y-34500D02*
X20000Y-35000D01*
X16163Y-19173D02*
X17273Y-19173D01*
X17689Y-25689D02*
X17900Y-25900D01*
X17800Y-20000D02*
X17800Y-19700D01*
X17273Y-19173D02*
X17800Y-19700D01*
X16163Y-25689D02*
X17689Y-25689D01*
X17211Y-24311D02*
X17900Y-25000D01*
X16163Y-18976D02*
X17376Y-18976D01*
X18200Y-20000D02*
X18200Y-19800D01*
X20500Y-34500D02*
X21000Y-35000D01*
X17900Y-25000D02*
X17900Y-25500D01*
X16163Y-24311D02*
X17211Y-24311D01*
X17376Y-18976D02*
X18200Y-19800D01*
X21000Y-31500D02*
X20500Y-32000D01*
X20500Y-32000D02*
X20500Y-34500D01*
X16900Y-15500D02*
X16770Y-15630D01*
X12500Y-35500D02*
X13000Y-36000D01*
X16900Y-15000D02*
X16900Y-15500D01*
X12500Y-31300D02*
X13600Y-30200D01*
X16163Y-27067D02*
X16767Y-27067D01*
X13100Y-16200D02*
X14500Y-14800D01*
X14500Y-14800D02*
X16700Y-14800D01*
X16700Y-14800D02*
X16900Y-15000D01*
X13000Y-32500D02*
X12500Y-32000D01*
X17000Y-27300D02*
X17000Y-27900D01*
X16767Y-27067D02*
X17000Y-27300D01*
X13867Y-27067D02*
X13100Y-26300D01*
X12500Y-32000D02*
X12500Y-31300D01*
X14700Y-30200D02*
X17000Y-27900D01*
X13000Y-32500D02*
X12500Y-33000D01*
X12500Y-33000D02*
X12500Y-35500D01*
X16163Y-27067D02*
X13867Y-27067D01*
X13600Y-30200D02*
X14700Y-30200D01*
X13100Y-26300D02*
X13100Y-16200D01*
X16770Y-15630D02*
X16163Y-15630D01*
X17500Y-24900D02*
X17500Y-25000D01*
X16163Y-24508D02*
X17108Y-24508D01*
X17108Y-24508D02*
X17500Y-24900D01*
X21500Y-32000D02*
X21500Y-34500D01*
X16163Y-25098D02*
X17198Y-25098D01*
X21500Y-34500D02*
X22000Y-35000D01*
X17198Y-25098D02*
X17500Y-25400D01*
X22000Y-31500D02*
X21500Y-32000D01*
X18139Y-22539D02*
X19800Y-24200D01*
X23000Y-32500D02*
X22500Y-33000D01*
X22200Y-31000D02*
X22500Y-31300D01*
X20600Y-31000D02*
X22200Y-31000D01*
X22500Y-35500D02*
X23000Y-36000D01*
X23000Y-32500D02*
X22500Y-32000D01*
X19800Y-24200D02*
X19800Y-30200D01*
X19800Y-30200D02*
X20600Y-31000D01*
X22500Y-31300D02*
X22500Y-32000D01*
X22500Y-33000D02*
X22500Y-35500D01*
X18139Y-22539D02*
X16163Y-22539D01*
X20700Y-30800D02*
X22300Y-30800D01*
X22300Y-30800D02*
X23000Y-31500D01*
X18243Y-22343D02*
X20000Y-24100D01*
X16163Y-22343D02*
X18243Y-22343D01*
X20000Y-30100D02*
X20700Y-30800D01*
X20000Y-24100D02*
X20000Y-30100D01*
X23500Y-32000D02*
X24000Y-32500D01*
X23500Y-31300D02*
X23500Y-32000D01*
X24037Y-22343D02*
X20757Y-22343D01*
X20200Y-22900D02*
X20200Y-30000D01*
X20800Y-30600D02*
X22800Y-30600D01*
X20200Y-30000D02*
X20800Y-30600D01*
X20757Y-22343D02*
X20200Y-22900D01*
X24000Y-32500D02*
X23500Y-33000D01*
X23500Y-33000D02*
X23500Y-35500D01*
X22800Y-30600D02*
X23500Y-31300D01*
X23500Y-35500D02*
X24000Y-36000D01*
X20400Y-23000D02*
X20400Y-29900D01*
X20400Y-29900D02*
X20900Y-30400D01*
X24037Y-22539D02*
X20861Y-22539D01*
X22900Y-30400D02*
X24000Y-31500D01*
X20900Y-30400D02*
X22900Y-30400D01*
X20861Y-22539D02*
X20400Y-23000D01*
X17200Y-27200D02*
X17200Y-28000D01*
X13300Y-16300D02*
X13300Y-26200D01*
X14800Y-30400D02*
X17200Y-28000D01*
X13000Y-31500D02*
X14100Y-30400D01*
X13970Y-26870D02*
X16163Y-26870D01*
X13300Y-26200D02*
X13970Y-26870D01*
X14100Y-30400D02*
X14800Y-30400D01*
X14600Y-15000D02*
X13300Y-16300D01*
X16700Y-15100D02*
X16600Y-15000D01*
X16667Y-15433D02*
X16700Y-15400D01*
X16600Y-15000D02*
X14600Y-15000D01*
X16870Y-26870D02*
X17200Y-27200D01*
X16163Y-15433D02*
X16667Y-15433D01*
X16700Y-15400D02*
X16700Y-15100D01*
X16163Y-26870D02*
X16870Y-26870D01*
X14900Y-30600D02*
X17400Y-28100D01*
X16163Y-26673D02*
X16973Y-26673D01*
X14664Y-15236D02*
X16163Y-15236D01*
X13500Y-33000D02*
X13500Y-35500D01*
X14073Y-26673D02*
X13500Y-26100D01*
X16973Y-26673D02*
X17400Y-27100D01*
X14664Y-15236D02*
X13500Y-16400D01*
X14200Y-30600D02*
X14900Y-30600D01*
X13500Y-16400D02*
X13500Y-26100D01*
X16163Y-26673D02*
X14073Y-26673D01*
X13500Y-35500D02*
X14000Y-36000D01*
X14000Y-32500D02*
X13500Y-33000D01*
X17400Y-27100D02*
X17400Y-28100D01*
X14000Y-32500D02*
X13500Y-32000D01*
X13500Y-32000D02*
X13500Y-31300D01*
X13500Y-31300D02*
X14200Y-30600D01*
X15000Y-30800D02*
X17600Y-28200D01*
X21500Y-19200D02*
X20400Y-20300D01*
X17600Y-27000D02*
X17600Y-28200D01*
X17076Y-26476D02*
X17600Y-27000D01*
X24037Y-15236D02*
X22764Y-15236D01*
X21500Y-16500D02*
X21500Y-19200D01*
X20400Y-20300D02*
X14800Y-20300D01*
X16163Y-26476D02*
X17076Y-26476D01*
X14700Y-30800D02*
X15000Y-30800D01*
X13700Y-21400D02*
X14800Y-20300D01*
X14000Y-31500D02*
X14700Y-30800D01*
X14176Y-26476D02*
X16163Y-26476D01*
X13700Y-26000D02*
X14176Y-26476D01*
X22764Y-15236D02*
X21500Y-16500D01*
X13700Y-26000D02*
X13700Y-21400D01*
X15100Y-31000D02*
X17800Y-28300D01*
X14280Y-26280D02*
X13900Y-25900D01*
X14500Y-33000D02*
X14500Y-35500D01*
X14500Y-31300D02*
X14500Y-32000D01*
X14500Y-35500D02*
X15000Y-36000D01*
X22867Y-15433D02*
X24037Y-15433D01*
X16163Y-26280D02*
X17180Y-26280D01*
X17800Y-26900D02*
X17800Y-28300D01*
X16163Y-26280D02*
X14280Y-26280D01*
X13900Y-21500D02*
X14900Y-20500D01*
X15000Y-32500D02*
X14500Y-33000D01*
X21700Y-19300D02*
X21700Y-16600D01*
X15000Y-32500D02*
X14500Y-32000D01*
X13900Y-25900D02*
X13900Y-21500D01*
X14900Y-20500D02*
X20500Y-20500D01*
X14500Y-31300D02*
X14800Y-31000D01*
X21700Y-16600D02*
X22867Y-15433D01*
X20500Y-20500D02*
X21700Y-19300D01*
X17180Y-26280D02*
X17800Y-26900D01*
X14800Y-31000D02*
X15100Y-31000D01*
X20600Y-20700D02*
X15000Y-20700D01*
X16163Y-26083D02*
X17283Y-26083D01*
X21900Y-19400D02*
X20600Y-20700D01*
X22970Y-15630D02*
X21900Y-16700D01*
X14100Y-25800D02*
X14383Y-26083D01*
X18000Y-26800D02*
X18000Y-28500D01*
X14100Y-25800D02*
X14100Y-21600D01*
X17283Y-26083D02*
X18000Y-26800D01*
X14383Y-26083D02*
X16163Y-26083D01*
X24037Y-15630D02*
X22970Y-15630D01*
X21900Y-16700D02*
X21900Y-19400D01*
X14100Y-21600D02*
X15000Y-20700D01*
X15000Y-31500D02*
X18000Y-28500D01*
X18200Y-28600D02*
X18200Y-25000D01*
X15500Y-35500D02*
X16000Y-36000D01*
X18200Y-25000D02*
X17314Y-24114D01*
X17314Y-24114D02*
X16163Y-24114D01*
X15014Y-24114D02*
X14400Y-23500D01*
X22100Y-19500D02*
X22100Y-16800D01*
X18200Y-28600D02*
X15500Y-31300D01*
X23073Y-15827D02*
X24037Y-15827D01*
X15500Y-32000D02*
X15500Y-31300D01*
X20700Y-20900D02*
X22100Y-19500D01*
X16163Y-24114D02*
X15014Y-24114D01*
X14400Y-23500D02*
X14400Y-21600D01*
X16000Y-32500D02*
X15500Y-33000D01*
X15500Y-33000D02*
X15500Y-35500D01*
X15500Y-32000D02*
X16000Y-32500D01*
X15100Y-20900D02*
X20700Y-20900D01*
X14400Y-21600D02*
X15100Y-20900D01*
X22100Y-16800D02*
X23073Y-15827D01*
X16000Y-31500D02*
X18400Y-29100D01*
X17417Y-23917D02*
X18400Y-24900D01*
X15200Y-21100D02*
X20800Y-21100D01*
X20800Y-21100D02*
X23120Y-18780D01*
X15117Y-23917D02*
X14600Y-23400D01*
X16163Y-23917D02*
X15117Y-23917D01*
X14600Y-21700D02*
X15200Y-21100D01*
X23120Y-18780D02*
X24037Y-18780D01*
X16163Y-23917D02*
X17417Y-23917D01*
X18400Y-24900D02*
X18400Y-29100D01*
X14600Y-23400D02*
X14600Y-21700D01*
X36800Y-21700D02*
X36500Y-22000D01*
X36614Y-16614D02*
X36800Y-16800D01*
X34937Y-16614D02*
X36614Y-16614D01*
X36800Y-16800D02*
X36800Y-21700D01*
X35500Y-22000D02*
X36600Y-20900D01*
X36600Y-16900D02*
X36600Y-20900D01*
X36511Y-16811D02*
X36600Y-16900D01*
X34937Y-16811D02*
X36511Y-16811D01*
X28624Y-16024D02*
X28700Y-16100D01*
X17714Y-16614D02*
X16163Y-16614D01*
X24037Y-26476D02*
X22076Y-26476D01*
X22076Y-26476D02*
X21500Y-25900D01*
X28624Y-16024D02*
X27063Y-16024D01*
X18800Y-17700D02*
X17714Y-16614D01*
X19000Y-17700D02*
X18800Y-17700D01*
X18800Y-18000D02*
X19200Y-18000D01*
X22083Y-26083D02*
X21500Y-25500D01*
X28320Y-16220D02*
X28400Y-16300D01*
X25000Y-31500D02*
X24500Y-32000D01*
X24037Y-26083D02*
X22083Y-26083D01*
X16163Y-16811D02*
X17611Y-16811D01*
X28320Y-16220D02*
X27063Y-16220D01*
X17611Y-16811D02*
X18800Y-18000D01*
X24500Y-32000D02*
X24500Y-34500D01*
X24500Y-34500D02*
X25000Y-35000D01*
X24037Y-25492D02*
X25492Y-25492D01*
X23092Y-17992D02*
X23000Y-17900D01*
X25492Y-25492D02*
X25500Y-25500D01*
X24037Y-17992D02*
X23092Y-17992D01*
X29500Y-32000D02*
X29500Y-34500D01*
X24037Y-25098D02*
X25498Y-25098D01*
X23395Y-17795D02*
X24037Y-17795D01*
X23395Y-17795D02*
X23300Y-17700D01*
X29500Y-34500D02*
X30000Y-35000D01*
X25498Y-25098D02*
X25500Y-25100D01*
X30000Y-31500D02*
X29500Y-32000D01*
X23395Y-17205D02*
X23300Y-17300D01*
X24037Y-24508D02*
X24992Y-24508D01*
X24037Y-17205D02*
X23395Y-17205D01*
X24992Y-24508D02*
X25000Y-24500D01*
X24786Y-24114D02*
X24800Y-24100D01*
X30500Y-34500D02*
X31000Y-35000D01*
X30500Y-32000D02*
X30500Y-34500D01*
X24037Y-17008D02*
X23092Y-17008D01*
X23092Y-17008D02*
X23000Y-17100D01*
X24037Y-24114D02*
X24786Y-24114D01*
X31000Y-31500D02*
X30500Y-32000D01*
X23111Y-16811D02*
X23000Y-16700D01*
X24037Y-16811D02*
X23111Y-16811D01*
X24780Y-23720D02*
X24800Y-23700D01*
X24037Y-23720D02*
X24780Y-23720D01*
X31500Y-34500D02*
X32000Y-35000D01*
X23414Y-16614D02*
X23300Y-16500D01*
X31500Y-32000D02*
X31500Y-34500D01*
X24037Y-23327D02*
X24927Y-23327D01*
X24927Y-23327D02*
X25000Y-23400D01*
X32000Y-31500D02*
X31500Y-32000D01*
X24037Y-16614D02*
X23414Y-16614D01*
X28017Y-16417D02*
X28100Y-16500D01*
X22089Y-25689D02*
X21500Y-25100D01*
X16163Y-17008D02*
X17508Y-17008D01*
X28017Y-16417D02*
X27063Y-16417D01*
X24037Y-25689D02*
X22089Y-25689D01*
X18800Y-18300D02*
X19400Y-18300D01*
X17508Y-17008D02*
X18800Y-18300D01*
X25500Y-34500D02*
X26000Y-35000D01*
X16163Y-17205D02*
X17405Y-17205D01*
X17405Y-17205D02*
X18800Y-18600D01*
X25500Y-32000D02*
X25500Y-34500D01*
X18800Y-18600D02*
X19600Y-18600D01*
X22095Y-25295D02*
X21500Y-24700D01*
X26000Y-31500D02*
X25500Y-32000D01*
X27714Y-16614D02*
X27800Y-16700D01*
X27714Y-16614D02*
X27063Y-16614D01*
X24037Y-25295D02*
X22095Y-25295D01*
X17695Y-17795D02*
X16163Y-17795D01*
X28700Y-18500D02*
X28586Y-18386D01*
X28586Y-18386D02*
X27063Y-18386D01*
X18800Y-18900D02*
X19800Y-18900D01*
X21905Y-24705D02*
X21500Y-24300D01*
X17695Y-17795D02*
X18800Y-18900D01*
X24037Y-24705D02*
X21905Y-24705D01*
X17592Y-17992D02*
X18800Y-19200D01*
X24037Y-24311D02*
X21911Y-24311D01*
X21911Y-24311D02*
X21500Y-23900D01*
X27000Y-31500D02*
X26500Y-32000D01*
X18800Y-19200D02*
X20000Y-19200D01*
X17592Y-17992D02*
X16163Y-17992D01*
X28283Y-18583D02*
X27063Y-18583D01*
X26500Y-32000D02*
X26500Y-34500D01*
X26500Y-34500D02*
X27000Y-35000D01*
X28283Y-18583D02*
X28400Y-18700D01*
X21917Y-23917D02*
X21500Y-23500D01*
X17489Y-18189D02*
X16163Y-18189D01*
X27980Y-18780D02*
X28100Y-18900D01*
X27980Y-18780D02*
X27063Y-18780D01*
X24037Y-23917D02*
X21917Y-23917D01*
X18800Y-19500D02*
X20200Y-19500D01*
X17489Y-18189D02*
X18800Y-19500D01*
X21924Y-23524D02*
X21900Y-23500D01*
X27500Y-32000D02*
X27500Y-34500D01*
X27676Y-18976D02*
X27063Y-18976D01*
X20400Y-19800D02*
X18800Y-19800D01*
X27676Y-18976D02*
X27800Y-19100D01*
X17386Y-18386D02*
X18800Y-19800D01*
X27500Y-34500D02*
X28000Y-35000D01*
X17386Y-18386D02*
X16163Y-18386D01*
X24037Y-23524D02*
X21924Y-23524D01*
X28000Y-31500D02*
X27500Y-32000D01*
X22486Y-18386D02*
X22400Y-18300D01*
X25480Y-26280D02*
X25500Y-26300D01*
X24037Y-18386D02*
X22486Y-18386D01*
X24037Y-18386D02*
X23214Y-18386D01*
X24037Y-26280D02*
X25480Y-26280D01*
X24037Y-25886D02*
X25486Y-25886D01*
X24037Y-18189D02*
X22789Y-18189D01*
X24037Y-18189D02*
X23111Y-18189D01*
X28500Y-34500D02*
X29000Y-35000D01*
X29000Y-31500D02*
X28500Y-32000D01*
X25486Y-25886D02*
X25500Y-25900D01*
X28500Y-32000D02*
X28500Y-34500D01*
X22789Y-18189D02*
X22700Y-18100D01*
X11000Y-18000D02*
X11000Y-19000D01*
X35389Y-18189D02*
X36000Y-18800D01*
X36000Y-18800D02*
X36000Y-18875D01*
X11800Y-15500D02*
X11500Y-15800D01*
X11500Y-15800D02*
X11500Y-17500D01*
X11500Y-17500D02*
X11000Y-18000D01*
X12900Y-15500D02*
X14200Y-14200D01*
X34937Y-18189D02*
X35389Y-18189D01*
X28400Y-14800D02*
X31789Y-18189D01*
X12900Y-15500D02*
X11800Y-15500D01*
X34937Y-18189D02*
X31789Y-18189D01*
X26200Y-15000D02*
X17800Y-15000D01*
X17000Y-14200D02*
X14200Y-14200D01*
X17800Y-15000D02*
X17000Y-14200D01*
X26400Y-14800D02*
X26200Y-15000D01*
X26400Y-14800D02*
X28400Y-14800D01*
X25600Y-14800D02*
X26100Y-14300D01*
X14100Y-14000D02*
X17100Y-14000D01*
X17100Y-14000D02*
X17900Y-14800D01*
X17900Y-14800D02*
X25600Y-14800D01*
X12800Y-15300D02*
X14100Y-14000D01*
X11700Y-15300D02*
X12800Y-15300D01*
X11000Y-17000D02*
X11000Y-16000D01*
X11000Y-16000D02*
X11700Y-15300D01*
X28300Y-15300D02*
X27900Y-15300D01*
X31583Y-18583D02*
X34937Y-18583D01*
X31583Y-18583D02*
X28300Y-15300D01*
X12500Y-23250D02*
X12500Y-19500D01*
X12500Y-24250D02*
X12000Y-23750D01*
X12000Y-23750D02*
X12500Y-23250D01*
X12500Y-28000D02*
X12500Y-24250D01*
X12500Y-19500D02*
X12000Y-19000D01*
X12000Y-28500D02*
X12500Y-28000D01*
X36500Y-32000D02*
X36500Y-34500D01*
X11500Y-22250D02*
X12000Y-22750D01*
X37000Y-31500D02*
X36500Y-32000D01*
X11500Y-18500D02*
X11500Y-22250D01*
X12000Y-18000D02*
X11500Y-18500D01*
X36500Y-34500D02*
X37000Y-35000D01*
X11500Y-23250D02*
X11500Y-27000D01*
X11500Y-27000D02*
X12000Y-27500D01*
X12000Y-22750D02*
X11500Y-23250D01*
X37500Y-32000D02*
X37500Y-34500D01*
X37500Y-34500D02*
X38000Y-35000D01*
X38000Y-31500D02*
X37500Y-32000D01*
X24517Y-16417D02*
X24700Y-16600D01*
X24037Y-16417D02*
X24517Y-16417D01*
X31686Y-18386D02*
X28300Y-15000D01*
X33500Y-31300D02*
X33500Y-32000D01*
X34937Y-18386D02*
X31686Y-18386D01*
X33500Y-33000D02*
X33500Y-35500D01*
X23276Y-16024D02*
X22400Y-16900D01*
X28300Y-15000D02*
X26500Y-15000D01*
X28150Y-30700D02*
X28250Y-30800D01*
X33000Y-30800D02*
X33500Y-31300D01*
X25473Y-26673D02*
X25500Y-26700D01*
X24037Y-16024D02*
X25476Y-16024D01*
X24037Y-26673D02*
X25473Y-26673D01*
X33500Y-32000D02*
X34000Y-32500D01*
X28250Y-30800D02*
X33000Y-30800D01*
X22400Y-16900D02*
X22400Y-17900D01*
X33500Y-35500D02*
X34000Y-36000D01*
X24037Y-16024D02*
X23276Y-16024D01*
X25476Y-16024D02*
X26500Y-15000D01*
X34000Y-32500D02*
X33500Y-33000D01*
X24037Y-27067D02*
X23433Y-27067D01*
X11000Y-27500D02*
X11000Y-28500D01*
X24692Y-27067D02*
X25000Y-27375D01*
X20900Y-29000D02*
X21500Y-29000D01*
X11000Y-25500D02*
X11000Y-26500D01*
X24037Y-27067D02*
X24692Y-27067D01*
X23433Y-27067D02*
X21500Y-29000D01*
X11000Y-26500D02*
X11000Y-27500D01*
X24037Y-16220D02*
X24720Y-16220D01*
X24720Y-16220D02*
X25100Y-16600D01*
X23300Y-30400D02*
X33600Y-30400D01*
X35000Y-32500D02*
X34500Y-33000D01*
X16163Y-25492D02*
X17008Y-25492D01*
X34500Y-31300D02*
X34500Y-32000D01*
X34500Y-35500D02*
X35000Y-36000D01*
X34500Y-32000D02*
X35000Y-32500D01*
X34500Y-33000D02*
X34500Y-35500D01*
X17008Y-25492D02*
X17100Y-25400D01*
X33600Y-30400D02*
X34500Y-31300D01*
X38500Y-34500D02*
X39000Y-35000D01*
X38500Y-32000D02*
X38500Y-34500D01*
X39000Y-31500D02*
X38500Y-32000D01*
X39500Y-32000D02*
X39500Y-34500D01*
X40000Y-31500D02*
X39500Y-32000D01*
X39500Y-34500D02*
X40000Y-35000D01*
X32500Y-32000D02*
X32500Y-34500D01*
X30317Y-16417D02*
X28500Y-14600D01*
X23700Y-30700D02*
X24000Y-31000D01*
X26200Y-14600D02*
X28500Y-14600D01*
X24000Y-31000D02*
X32500Y-31000D01*
X16163Y-24705D02*
X16805Y-24705D01*
X16805Y-24705D02*
X16900Y-24800D01*
X34937Y-16417D02*
X30317Y-16417D01*
X33000Y-31500D02*
X32500Y-32000D01*
X16163Y-18583D02*
X17283Y-18583D01*
X32500Y-34500D02*
X33000Y-35000D01*
X32500Y-31000D02*
X33000Y-31500D01*
X26100Y-14700D02*
X26200Y-14600D01*
X17283Y-18583D02*
X18600Y-19900D01*
X18600Y-19900D02*
X18600Y-20000D01*
X15100Y-16525D02*
X15025Y-16600D01*
X15208Y-16417D02*
X15100Y-16525D01*
X16163Y-16417D02*
X15208Y-16417D01*
X15025Y-16600D02*
X14500Y-16600D01*
X11000Y-22750D02*
X11000Y-23750D01*
X11000Y-20750D02*
X11000Y-21750D01*
X11000Y-21750D02*
X11000Y-22750D01*
X26500Y-11500D02*
X26000Y-12000D01*
X26500Y-09000D02*
X26500Y-11500D01*
X26000Y-08500D02*
X26500Y-09000D01*
X25000Y-08500D02*
X25500Y-09000D01*
X25500Y-09000D02*
X25500Y-11500D01*
X25500Y-11500D02*
X25000Y-12000D01*
X24500Y-09000D02*
X24500Y-11500D01*
X24500Y-11500D02*
X24000Y-12000D01*
X24000Y-08500D02*
X24500Y-09000D01*
X23500Y-11500D02*
X23000Y-12000D01*
X23500Y-09000D02*
X23500Y-11500D01*
X23000Y-08500D02*
X23500Y-09000D01*
X37500Y-12500D02*
X37000Y-13000D01*
X37000Y-09500D02*
X37500Y-10000D01*
X37500Y-10000D02*
X37500Y-12500D01*
X30500Y-09000D02*
X30500Y-11500D01*
X30000Y-08500D02*
X30500Y-09000D01*
X30500Y-11500D02*
X30000Y-12000D01*
X28500Y-09000D02*
X28500Y-11500D01*
X28000Y-08500D02*
X28500Y-09000D01*
X28500Y-11500D02*
X28000Y-12000D01*
X29500Y-09000D02*
X29500Y-11500D01*
X29000Y-08500D02*
X29500Y-09000D01*
X29500Y-11500D02*
X29000Y-12000D01*
X21000Y-08500D02*
X21500Y-09000D01*
X21500Y-11500D02*
X21000Y-12000D01*
X21500Y-09000D02*
X21500Y-11500D01*
X20500Y-09000D02*
X20500Y-11500D01*
X20500Y-11500D02*
X20000Y-12000D01*
X20000Y-08500D02*
X20500Y-09000D01*
X19500Y-09000D02*
X19500Y-11500D01*
X19500Y-11500D02*
X19000Y-12000D01*
X19000Y-08500D02*
X19500Y-09000D01*
X18000Y-08500D02*
X18500Y-09000D01*
X18500Y-11500D02*
X18000Y-12000D01*
X18500Y-09000D02*
X18500Y-11500D01*
X17500Y-11500D02*
X17000Y-12000D01*
X17000Y-08500D02*
X17500Y-09000D01*
X17500Y-09000D02*
X17500Y-11500D01*
X33500Y-12500D02*
X33000Y-13000D01*
X33000Y-09500D02*
X33500Y-10000D01*
X33500Y-10000D02*
X33500Y-12500D01*
X32500Y-10000D02*
X32500Y-12500D01*
X32000Y-09500D02*
X32500Y-10000D01*
X32500Y-12500D02*
X32000Y-13000D01*
X31500Y-12500D02*
X31000Y-12000D01*
X40200Y-13500D02*
X31800Y-13500D01*
X31500Y-09000D02*
X31500Y-11500D01*
X31500Y-13200D02*
X31500Y-12500D01*
X31500Y-11500D02*
X31000Y-12000D01*
X31800Y-13500D02*
X31500Y-13200D01*
X31000Y-08500D02*
X31500Y-09000D01*
X43500Y-16500D02*
X43200Y-16500D01*
X43200Y-16500D02*
X40200Y-13500D01*
X39100Y-13700D02*
X39200Y-13800D01*
X31000Y-13000D02*
X31700Y-13700D01*
X31700Y-13700D02*
X39100Y-13700D01*
X40500Y-11500D02*
X40000Y-12000D01*
X41300Y-14000D02*
X43500Y-14000D01*
X40000Y-08500D02*
X40500Y-09000D01*
X40500Y-12500D02*
X40500Y-13200D01*
X40500Y-09000D02*
X40500Y-11500D01*
X40500Y-13200D02*
X41300Y-14000D01*
X40000Y-12000D02*
X40500Y-12500D01*
X43500Y-13000D02*
X41000Y-13000D01*
X43500Y-15000D02*
X42000Y-15000D01*
X42000Y-15000D02*
X40000Y-13000D01*
X41500Y-11500D02*
X41000Y-12000D01*
X43500Y-12000D02*
X41000Y-12000D01*
X41000Y-08500D02*
X41500Y-09000D01*
X41500Y-09000D02*
X41500Y-11500D01*
X41800Y-07800D02*
X38700Y-07800D01*
X43500Y-09500D02*
X41800Y-07800D01*
X38700Y-07800D02*
X38000Y-08500D01*
X38000Y-09500D02*
X38500Y-09000D01*
X38500Y-10000D02*
X38500Y-12500D01*
X41400Y-08000D02*
X43000Y-09600D01*
X38500Y-12500D02*
X38000Y-13000D01*
X43000Y-10000D02*
X43500Y-10500D01*
X38500Y-09000D02*
X38500Y-08300D01*
X43000Y-09600D02*
X43000Y-10000D01*
X38800Y-08000D02*
X41400Y-08000D01*
X38000Y-09500D02*
X38500Y-10000D01*
X38500Y-08300D02*
X38800Y-08000D01*
X39500Y-09000D02*
X39500Y-11500D01*
X39500Y-11500D02*
X39000Y-12000D01*
X39000Y-08500D02*
X39500Y-09000D01*
X40433Y-28079D02*
X39596Y-28079D01*
X39596Y-28079D02*
X39175Y-28500D01*
X42800Y-20500D02*
X43300Y-20000D01*
X40433Y-26346D02*
X39271Y-26346D01*
X40433Y-26346D02*
X40954Y-26346D01*
X39271Y-26346D02*
X39175Y-26250D01*
X44000Y-20000D02*
X44500Y-19500D01*
X40954Y-26346D02*
X42800Y-24500D01*
X43300Y-20000D02*
X44000Y-20000D01*
X42800Y-24500D02*
X42800Y-20500D01*
X40920Y-25480D02*
X42600Y-23800D01*
X42600Y-23800D02*
X42600Y-19700D01*
X40433Y-25480D02*
X39195Y-25480D01*
X43300Y-19000D02*
X44000Y-19000D01*
X44000Y-19000D02*
X44500Y-18500D01*
X39195Y-25480D02*
X39175Y-25500D01*
X42600Y-19700D02*
X43300Y-19000D01*
X40433Y-25480D02*
X40920Y-25480D01*
X44500Y-14000D02*
X45000Y-13500D01*
X40887Y-27213D02*
X43000Y-25100D01*
X43300Y-21000D02*
X44000Y-21000D01*
X39388Y-27213D02*
X39175Y-27000D01*
X44000Y-21000D02*
X44500Y-20500D01*
X45200Y-14700D02*
X45200Y-19800D01*
X45000Y-10000D02*
X44500Y-09500D01*
X43000Y-21300D02*
X43300Y-21000D01*
X40433Y-27213D02*
X40887Y-27213D01*
X40433Y-27213D02*
X39388Y-27213D01*
X44500Y-14000D02*
X45200Y-14700D01*
X45200Y-19800D02*
X44500Y-20500D01*
X43000Y-25100D02*
X43000Y-21300D01*
X45000Y-13500D02*
X45000Y-10000D01*
X43200Y-25400D02*
X43200Y-22500D01*
X40433Y-27646D02*
X39279Y-27646D01*
X43200Y-22500D02*
X44200Y-21500D01*
X39175Y-27750D02*
X39279Y-27646D01*
X39279Y-27646D02*
X39175Y-27750D01*
X40433Y-27646D02*
X40954Y-27646D01*
X39279Y-27646D02*
X39175Y-27750D01*
X40954Y-27646D02*
X43200Y-25400D01*
X44200Y-21500D02*
X44500Y-21500D01*
X39789Y-24614D02*
X39175Y-24000D01*
X42200Y-18100D02*
X43300Y-17000D01*
X44000Y-17000D02*
X44500Y-16500D01*
X40433Y-24614D02*
X39789Y-24614D01*
X42200Y-23400D02*
X42200Y-18100D01*
X40433Y-24614D02*
X40986Y-24614D01*
X43300Y-17000D02*
X44000Y-17000D01*
X40986Y-24614D02*
X42200Y-23400D01*
X44000Y-18000D02*
X44500Y-17500D01*
X44000Y-14500D02*
X44000Y-11000D01*
X45000Y-17000D02*
X44500Y-17500D01*
X40953Y-25047D02*
X42400Y-23600D01*
X43300Y-18000D02*
X44000Y-18000D01*
X42400Y-23600D02*
X42400Y-18900D01*
X45000Y-15500D02*
X45000Y-17000D01*
X44500Y-15000D02*
X45000Y-15500D01*
X44000Y-11000D02*
X44500Y-10500D01*
X42400Y-18900D02*
X43300Y-18000D01*
X39472Y-25047D02*
X39175Y-24750D01*
X40433Y-25047D02*
X40953Y-25047D01*
X40433Y-25047D02*
X39472Y-25047D01*
X44500Y-15000D02*
X44000Y-14500D01*
G54D27*
X38325Y-27750D02*
X38325Y-28500D01*
G54D26*
X38300Y-22400D02*
X38300Y-22725D01*
G54D27*
X38325Y-24750D02*
X38325Y-25500D01*
X38325Y-26250D02*
X38325Y-27000D01*
X38325Y-27000D02*
X38325Y-27750D01*
G54D26*
X40300Y-19000D02*
X37700Y-19000D01*
G54D27*
X38325Y-23250D02*
X38575Y-23000D01*
X38325Y-25500D02*
X38325Y-25875D01*
G54D26*
X38300Y-22725D02*
X38575Y-23000D01*
G54D27*
X38325Y-25875D02*
X38325Y-26250D01*
X40433Y-25913D02*
X39763Y-25913D01*
X38325Y-24000D02*
X38325Y-23250D01*
X39763Y-25913D02*
X39725Y-25875D01*
G54D26*
X38300Y-21500D02*
X38300Y-19600D01*
X38300Y-19600D02*
X37700Y-19000D01*
X38300Y-22400D02*
X38300Y-21500D01*
G54D27*
X38325Y-24000D02*
X38325Y-24750D01*
G54D25*
X35000Y-09500D02*
X35500Y-10000D01*
X35500Y-10000D02*
X35500Y-12500D01*
X35500Y-12500D02*
X35000Y-13000D01*
X36500Y-12500D02*
X36000Y-13000D01*
X36500Y-10000D02*
X36500Y-12500D01*
X36000Y-09500D02*
X36500Y-10000D01*
G54D27*
X44488Y-28610D02*
X40709Y-28610D01*
G54D25*
X21200Y-23400D02*
X21470Y-23130D01*
G54D26*
X41000Y-19750D02*
X40850Y-19900D01*
G54D25*
X34937Y-17402D02*
X35773Y-17402D01*
X21470Y-23130D02*
X24037Y-23130D01*
X26227Y-17402D02*
X26100Y-17275D01*
X24037Y-26870D02*
X22070Y-26870D01*
G54D27*
X25925Y-23575D02*
X26100Y-23400D01*
X44100Y-28222D02*
X44488Y-28610D01*
X40300Y-20900D02*
X39700Y-21500D01*
X40300Y-20600D02*
X40300Y-19900D01*
G54D25*
X16163Y-17598D02*
X15627Y-17598D01*
X41000Y-31500D02*
X40500Y-32000D01*
G54D27*
X39425Y-23000D02*
X40512Y-23000D01*
G54D26*
X41000Y-17800D02*
X41000Y-19750D01*
G54D25*
X35773Y-17402D02*
X36000Y-17175D01*
G54D27*
X44100Y-22778D02*
X44100Y-28222D01*
G54D25*
X24037Y-26870D02*
X25270Y-26870D01*
G54D27*
X16000Y-09500D02*
X16000Y-12000D01*
G54D25*
X27063Y-17402D02*
X26227Y-17402D01*
X39820Y-26780D02*
X40512Y-26780D01*
G54D27*
X15100Y-18700D02*
X15100Y-18125D01*
X39700Y-21500D02*
X39425Y-21775D01*
G54D25*
X40500Y-34500D02*
X41000Y-35000D01*
X25230Y-23130D02*
X25500Y-23400D01*
G54D27*
X34100Y-28000D02*
X33700Y-28000D01*
X40699Y-28600D02*
X40100Y-28600D01*
X40300Y-20600D02*
X40300Y-20900D01*
G54D25*
X39820Y-26780D02*
X39800Y-26800D01*
G54D27*
X40709Y-28610D02*
X40699Y-28600D01*
G54D25*
X24037Y-17402D02*
X24973Y-17402D01*
X40500Y-32000D02*
X40500Y-34500D01*
G54D26*
X39700Y-16500D02*
X41000Y-17800D01*
G54D25*
X21200Y-26000D02*
X21200Y-23400D01*
G54D27*
X35000Y-24500D02*
X35075Y-24500D01*
G54D25*
X25270Y-26870D02*
X25775Y-27375D01*
G54D27*
X25500Y-23575D02*
X25925Y-23575D01*
G54D26*
X40850Y-19900D02*
X40300Y-19900D01*
G54D25*
X25775Y-27375D02*
X25900Y-27375D01*
X34937Y-17402D02*
X34302Y-17402D01*
X24037Y-23130D02*
X25230Y-23130D01*
G54D27*
X33700Y-28000D02*
X33200Y-27500D01*
X33200Y-27500D02*
X33200Y-26300D01*
X33200Y-26300D02*
X35000Y-24500D01*
X16000Y-08500D02*
X16000Y-09500D01*
G54D25*
X24973Y-17402D02*
X25100Y-17275D01*
G54D27*
X16000Y-12000D02*
X16000Y-13000D01*
X39425Y-21775D02*
X39425Y-23000D01*
X26100Y-17275D02*
X25675Y-17275D01*
X40512Y-23000D02*
X40709Y-22803D01*
G54D25*
X22070Y-26870D02*
X21200Y-26000D01*
G54D27*
X44488Y-22390D02*
X44100Y-22778D01*
G54D25*
X34302Y-17402D02*
X34200Y-17300D01*
G54D27*
X25525Y-17275D02*
X25100Y-17275D01*
X25525Y-17275D02*
X25600Y-17200D01*
X25675Y-17275D02*
X25600Y-17200D01*
G54D25*
X15627Y-17598D02*
X15100Y-18125D01*
X25500Y-23400D02*
X25500Y-23575D01*
X16163Y-24902D02*
X15627Y-24902D01*
X15627Y-24902D02*
X15325Y-24600D01*
X25292Y-22933D02*
X25500Y-22725D01*
X24037Y-22933D02*
X25292Y-22933D01*
X16163Y-25295D02*
X15430Y-25295D01*
X15430Y-25295D02*
X15325Y-25400D01*
X35955Y-16220D02*
X36000Y-16175D01*
X34937Y-16220D02*
X35955Y-16220D01*
X36000Y-31500D02*
X35500Y-32000D01*
X35500Y-34500D02*
X36000Y-35000D01*
X35500Y-32000D02*
X35500Y-34500D01*
X34500Y-10000D02*
X34500Y-12500D01*
X34500Y-12500D02*
X34000Y-13000D01*
X34000Y-09500D02*
X34500Y-10000D01*
X34100Y-27500D02*
X33600Y-27500D01*
X34400Y-25500D02*
X35075Y-25500D01*
X33500Y-26400D02*
X34400Y-25500D01*
X33500Y-27400D02*
X33500Y-26400D01*
X33600Y-27500D02*
X33500Y-27400D01*
X25023Y-24902D02*
X25500Y-24425D01*
G54D27*
X26400Y-25325D02*
X26400Y-27900D01*
X25100Y-18125D02*
X25525Y-18125D01*
X26075Y-28225D02*
X25900Y-28225D01*
X14100Y-17000D02*
X14400Y-17300D01*
X26400Y-27900D02*
X26075Y-28225D01*
G54D25*
X24037Y-27657D02*
X24432Y-27657D01*
X15227Y-17402D02*
X15100Y-17275D01*
G54D27*
X14475Y-25075D02*
X14475Y-25400D01*
G54D25*
X24432Y-27657D02*
X25000Y-28225D01*
G54D27*
X36000Y-14800D02*
X36000Y-15325D01*
X14475Y-24600D02*
X14475Y-24925D01*
G54D25*
X24573Y-17598D02*
X25100Y-18125D01*
X34937Y-17598D02*
X35573Y-17598D01*
G54D27*
X25525Y-18125D02*
X25600Y-18200D01*
X14925Y-15675D02*
X14100Y-16500D01*
X14475Y-24925D02*
X14400Y-25000D01*
G54D25*
X24037Y-17598D02*
X24573Y-17598D01*
G54D27*
X25675Y-21875D02*
X26500Y-22700D01*
X25675Y-18125D02*
X25600Y-18200D01*
X14400Y-17300D02*
X14425Y-17275D01*
X15100Y-15675D02*
X14925Y-15675D01*
X25500Y-24425D02*
X26400Y-25325D01*
X14425Y-17275D02*
X15100Y-17275D01*
G54D25*
X16163Y-17402D02*
X15227Y-17402D01*
X36900Y-26500D02*
X36900Y-27000D01*
G54D27*
X14475Y-25075D02*
X14400Y-25000D01*
X36000Y-20300D02*
X36000Y-19725D01*
G54D25*
X34200Y-17700D02*
X34302Y-17598D01*
G54D27*
X26500Y-22700D02*
X26500Y-23600D01*
G54D25*
X34937Y-17598D02*
X34302Y-17598D01*
X24037Y-24902D02*
X25023Y-24902D01*
G54D27*
X25500Y-24425D02*
X25675Y-24425D01*
X14100Y-16500D02*
X14100Y-17000D01*
G54D25*
X27063Y-17598D02*
X26627Y-17598D01*
G54D27*
X26100Y-18125D02*
X25675Y-18125D01*
X35925Y-25525D02*
X35925Y-25500D01*
X35925Y-24500D02*
X35925Y-25500D01*
G54D25*
X26627Y-17598D02*
X26100Y-18125D01*
G54D27*
X25500Y-21875D02*
X25500Y-21000D01*
X25900Y-28225D02*
X25000Y-28225D01*
X36900Y-26500D02*
X37400Y-26500D01*
X25675Y-24425D02*
X26500Y-23600D01*
G54D25*
X35573Y-17598D02*
X36000Y-18025D01*
G54D27*
X25500Y-21875D02*
X25675Y-21875D01*
X36900Y-26500D02*
X35925Y-25525D01*
G54D10*
G36*
X15625Y-20010D02*
X15050Y-20010D01*
X15050Y-18538D01*
X15050Y-18175D01*
X14637Y-18175D01*
X14575Y-18237D01*
X14576Y-18399D01*
X14614Y-18491D01*
X14684Y-18561D01*
X14775Y-18599D01*
X14874Y-18599D01*
X14988Y-18600D01*
X15050Y-18538D01*
X15050Y-20010D01*
X14800Y-20010D01*
X14689Y-20032D01*
X14594Y-20095D01*
X13790Y-20899D01*
X13790Y-17153D01*
X13853Y-17247D01*
X14057Y-17451D01*
X14082Y-17512D01*
X14187Y-17617D01*
X14325Y-17675D01*
X14474Y-17675D01*
X14595Y-17625D01*
X14607Y-17625D01*
X14614Y-17641D01*
X14673Y-17700D01*
X14614Y-17759D01*
X14576Y-17851D01*
X14575Y-18013D01*
X14637Y-18075D01*
X15000Y-18075D01*
X15050Y-18075D01*
X15150Y-18075D01*
X15150Y-18175D01*
X15150Y-18225D01*
X15150Y-18538D01*
X15212Y-18600D01*
X15326Y-18599D01*
X15425Y-18599D01*
X15516Y-18561D01*
X15521Y-18556D01*
X15521Y-18593D01*
X15521Y-18671D01*
X15525Y-18681D01*
X15521Y-18691D01*
X15521Y-18790D01*
X15521Y-18868D01*
X15524Y-18877D01*
X15521Y-18887D01*
X15521Y-18986D01*
X15521Y-19064D01*
X15525Y-19074D01*
X15521Y-19084D01*
X15521Y-19183D01*
X15521Y-19261D01*
X15525Y-19271D01*
X15521Y-19281D01*
X15521Y-19380D01*
X15521Y-19458D01*
X15525Y-19468D01*
X15521Y-19478D01*
X15521Y-19577D01*
X15521Y-19655D01*
X15525Y-19665D01*
X15521Y-19675D01*
X15521Y-19774D01*
X15521Y-19852D01*
X15559Y-19944D01*
X15625Y-20010D01*
X15625Y-20010D01*
G37*
G54D28*
X15625Y-20010D02*
X15050Y-20010D01*
X15050Y-18538D01*
X15050Y-18175D01*
X14637Y-18175D01*
X14575Y-18237D01*
X14576Y-18399D01*
X14614Y-18491D01*
X14684Y-18561D01*
X14775Y-18599D01*
X14874Y-18599D01*
X14988Y-18600D01*
X15050Y-18538D01*
X15050Y-20010D01*
X14800Y-20010D01*
X14689Y-20032D01*
X14594Y-20095D01*
X13790Y-20899D01*
X13790Y-17153D01*
X13853Y-17247D01*
X14057Y-17451D01*
X14082Y-17512D01*
X14187Y-17617D01*
X14325Y-17675D01*
X14474Y-17675D01*
X14595Y-17625D01*
X14607Y-17625D01*
X14614Y-17641D01*
X14673Y-17700D01*
X14614Y-17759D01*
X14576Y-17851D01*
X14575Y-18013D01*
X14637Y-18075D01*
X15000Y-18075D01*
X15050Y-18075D01*
X15150Y-18075D01*
X15150Y-18175D01*
X15150Y-18225D01*
X15150Y-18538D01*
X15212Y-18600D01*
X15326Y-18599D01*
X15425Y-18599D01*
X15516Y-18561D01*
X15521Y-18556D01*
X15521Y-18593D01*
X15521Y-18671D01*
X15525Y-18681D01*
X15521Y-18691D01*
X15521Y-18790D01*
X15521Y-18868D01*
X15524Y-18877D01*
X15521Y-18887D01*
X15521Y-18986D01*
X15521Y-19064D01*
X15525Y-19074D01*
X15521Y-19084D01*
X15521Y-19183D01*
X15521Y-19261D01*
X15525Y-19271D01*
X15521Y-19281D01*
X15521Y-19380D01*
X15521Y-19458D01*
X15525Y-19468D01*
X15521Y-19478D01*
X15521Y-19577D01*
X15521Y-19655D01*
X15525Y-19665D01*
X15521Y-19675D01*
X15521Y-19774D01*
X15521Y-19852D01*
X15559Y-19944D01*
X15625Y-20010D01*
G54D10*
G36*
X16245Y-27945D02*
X14480Y-29710D01*
X13500Y-29710D01*
X13389Y-29732D01*
X13295Y-29795D01*
X12990Y-30100D01*
X12990Y-26900D01*
X13558Y-27468D01*
X13559Y-27469D01*
X13652Y-27531D01*
X13653Y-27532D01*
X13763Y-27553D01*
X13764Y-27554D01*
X15523Y-27554D01*
X15524Y-27558D01*
X15521Y-27568D01*
X15521Y-27667D01*
X15521Y-27745D01*
X15559Y-27837D01*
X15629Y-27907D01*
X15720Y-27945D01*
X15819Y-27945D01*
X16245Y-27945D01*
X16245Y-27945D01*
G37*
G54D28*
X16245Y-27945D02*
X14480Y-29710D01*
X13500Y-29710D01*
X13389Y-29732D01*
X13295Y-29795D01*
X12990Y-30100D01*
X12990Y-26900D01*
X13558Y-27468D01*
X13559Y-27469D01*
X13652Y-27531D01*
X13653Y-27532D01*
X13763Y-27553D01*
X13764Y-27554D01*
X15523Y-27554D01*
X15524Y-27558D01*
X15521Y-27568D01*
X15521Y-27667D01*
X15521Y-27745D01*
X15559Y-27837D01*
X15629Y-27907D01*
X15720Y-27945D01*
X15819Y-27945D01*
X16245Y-27945D01*
G54D10*
G36*
X22300Y-15290D02*
X21295Y-16295D01*
X21232Y-16389D01*
X21210Y-16500D01*
X21210Y-19079D01*
X20709Y-19579D01*
X20613Y-19483D01*
X20575Y-19467D01*
X20575Y-19426D01*
X20518Y-19288D01*
X20413Y-19183D01*
X20375Y-19167D01*
X20375Y-19126D01*
X20318Y-18988D01*
X20213Y-18883D01*
X20175Y-18867D01*
X20175Y-18826D01*
X20118Y-18688D01*
X20013Y-18583D01*
X19975Y-18567D01*
X19975Y-18526D01*
X19918Y-18388D01*
X19813Y-18283D01*
X19775Y-18267D01*
X19775Y-18226D01*
X19718Y-18088D01*
X19613Y-17983D01*
X19575Y-17967D01*
X19575Y-17926D01*
X19518Y-17788D01*
X19413Y-17683D01*
X19375Y-17667D01*
X19375Y-17626D01*
X19318Y-17488D01*
X19213Y-17383D01*
X19075Y-17325D01*
X18926Y-17325D01*
X18861Y-17351D01*
X17919Y-16409D01*
X17825Y-16346D01*
X17714Y-16324D01*
X16802Y-16324D01*
X16800Y-16318D01*
X16802Y-16314D01*
X16976Y-16314D01*
X17087Y-16292D01*
X17181Y-16229D01*
X17505Y-15905D01*
X17568Y-15811D01*
X17590Y-15700D01*
X17590Y-15200D01*
X17595Y-15205D01*
X17689Y-15268D01*
X17800Y-15290D01*
X22300Y-15290D01*
X22300Y-15290D01*
G37*
G54D28*
X22300Y-15290D02*
X21295Y-16295D01*
X21232Y-16389D01*
X21210Y-16500D01*
X21210Y-19079D01*
X20709Y-19579D01*
X20613Y-19483D01*
X20575Y-19467D01*
X20575Y-19426D01*
X20518Y-19288D01*
X20413Y-19183D01*
X20375Y-19167D01*
X20375Y-19126D01*
X20318Y-18988D01*
X20213Y-18883D01*
X20175Y-18867D01*
X20175Y-18826D01*
X20118Y-18688D01*
X20013Y-18583D01*
X19975Y-18567D01*
X19975Y-18526D01*
X19918Y-18388D01*
X19813Y-18283D01*
X19775Y-18267D01*
X19775Y-18226D01*
X19718Y-18088D01*
X19613Y-17983D01*
X19575Y-17967D01*
X19575Y-17926D01*
X19518Y-17788D01*
X19413Y-17683D01*
X19375Y-17667D01*
X19375Y-17626D01*
X19318Y-17488D01*
X19213Y-17383D01*
X19075Y-17325D01*
X18926Y-17325D01*
X18861Y-17351D01*
X17919Y-16409D01*
X17825Y-16346D01*
X17714Y-16324D01*
X16802Y-16324D01*
X16800Y-16318D01*
X16802Y-16314D01*
X16976Y-16314D01*
X17087Y-16292D01*
X17181Y-16229D01*
X17505Y-15905D01*
X17568Y-15811D01*
X17590Y-15700D01*
X17590Y-15200D01*
X17595Y-15205D01*
X17689Y-15268D01*
X17800Y-15290D01*
X22300Y-15290D01*
G54D10*
G36*
X23450Y-23130D02*
X23433Y-23147D01*
X23415Y-23189D01*
X23394Y-23211D01*
X23395Y-23218D01*
X23399Y-23228D01*
X23396Y-23234D01*
X22164Y-23234D01*
X22113Y-23183D01*
X21975Y-23125D01*
X21826Y-23125D01*
X21699Y-23177D01*
X21575Y-23125D01*
X21426Y-23125D01*
X21288Y-23182D01*
X21183Y-23287D01*
X21125Y-23425D01*
X21125Y-23574D01*
X21177Y-23700D01*
X21125Y-23825D01*
X21125Y-23974D01*
X21177Y-24100D01*
X21125Y-24225D01*
X21125Y-24374D01*
X21177Y-24500D01*
X21125Y-24625D01*
X21125Y-24774D01*
X21177Y-24900D01*
X21125Y-25025D01*
X21125Y-25174D01*
X21177Y-25300D01*
X21125Y-25425D01*
X21125Y-25574D01*
X21177Y-25700D01*
X21125Y-25825D01*
X21125Y-25974D01*
X21182Y-26112D01*
X21287Y-26217D01*
X21425Y-26275D01*
X21465Y-26275D01*
X21871Y-26681D01*
X21965Y-26744D01*
X22076Y-26766D01*
X23397Y-26766D01*
X23398Y-26770D01*
X23394Y-26770D01*
X23394Y-26784D01*
X23322Y-26799D01*
X23227Y-26862D01*
X21379Y-28710D01*
X21140Y-28710D01*
X21113Y-28683D01*
X20975Y-28625D01*
X20890Y-28625D01*
X20890Y-23220D01*
X21084Y-23026D01*
X23397Y-23026D01*
X23399Y-23031D01*
X23395Y-23042D01*
X23394Y-23049D01*
X23415Y-23070D01*
X23433Y-23113D01*
X23450Y-23130D01*
X23450Y-23130D01*
G37*
G54D28*
X23450Y-23130D02*
X23433Y-23147D01*
X23415Y-23189D01*
X23394Y-23211D01*
X23395Y-23218D01*
X23399Y-23228D01*
X23396Y-23234D01*
X22164Y-23234D01*
X22113Y-23183D01*
X21975Y-23125D01*
X21826Y-23125D01*
X21699Y-23177D01*
X21575Y-23125D01*
X21426Y-23125D01*
X21288Y-23182D01*
X21183Y-23287D01*
X21125Y-23425D01*
X21125Y-23574D01*
X21177Y-23700D01*
X21125Y-23825D01*
X21125Y-23974D01*
X21177Y-24100D01*
X21125Y-24225D01*
X21125Y-24374D01*
X21177Y-24500D01*
X21125Y-24625D01*
X21125Y-24774D01*
X21177Y-24900D01*
X21125Y-25025D01*
X21125Y-25174D01*
X21177Y-25300D01*
X21125Y-25425D01*
X21125Y-25574D01*
X21177Y-25700D01*
X21125Y-25825D01*
X21125Y-25974D01*
X21182Y-26112D01*
X21287Y-26217D01*
X21425Y-26275D01*
X21465Y-26275D01*
X21871Y-26681D01*
X21965Y-26744D01*
X22076Y-26766D01*
X23397Y-26766D01*
X23398Y-26770D01*
X23394Y-26770D01*
X23394Y-26784D01*
X23322Y-26799D01*
X23227Y-26862D01*
X21379Y-28710D01*
X21140Y-28710D01*
X21113Y-28683D01*
X20975Y-28625D01*
X20890Y-28625D01*
X20890Y-23220D01*
X21084Y-23026D01*
X23397Y-23026D01*
X23399Y-23031D01*
X23395Y-23042D01*
X23394Y-23049D01*
X23415Y-23070D01*
X23433Y-23113D01*
X23450Y-23130D01*
G54D10*
G36*
X26050Y-26900D02*
X26012Y-26900D01*
X25950Y-26962D01*
X25950Y-27275D01*
X25950Y-27325D01*
X25950Y-27425D01*
X25850Y-27425D01*
X25850Y-27325D01*
X25850Y-27275D01*
X25850Y-26962D01*
X25809Y-26921D01*
X25817Y-26913D01*
X25875Y-26775D01*
X25875Y-26626D01*
X25822Y-26499D01*
X25875Y-26375D01*
X25875Y-26226D01*
X25822Y-26099D01*
X25875Y-25975D01*
X25875Y-25826D01*
X25822Y-25699D01*
X25875Y-25575D01*
X25875Y-25426D01*
X25822Y-25299D01*
X25839Y-25259D01*
X26050Y-25469D01*
X26050Y-26900D01*
X26050Y-26900D01*
G37*
G54D28*
X26050Y-26900D02*
X26012Y-26900D01*
X25950Y-26962D01*
X25950Y-27275D01*
X25950Y-27325D01*
X25950Y-27425D01*
X25850Y-27425D01*
X25850Y-27325D01*
X25850Y-27275D01*
X25850Y-26962D01*
X25809Y-26921D01*
X25817Y-26913D01*
X25875Y-26775D01*
X25875Y-26626D01*
X25822Y-26499D01*
X25875Y-26375D01*
X25875Y-26226D01*
X25822Y-26099D01*
X25875Y-25975D01*
X25875Y-25826D01*
X25822Y-25699D01*
X25875Y-25575D01*
X25875Y-25426D01*
X25822Y-25299D01*
X25839Y-25259D01*
X26050Y-25469D01*
X26050Y-26900D01*
G54D10*
G36*
X26150Y-23455D02*
X25971Y-23633D01*
X25963Y-23625D01*
X25600Y-23625D01*
X25550Y-23625D01*
X25450Y-23625D01*
X25450Y-23525D01*
X25550Y-23525D01*
X25600Y-23525D01*
X25963Y-23525D01*
X26025Y-23463D01*
X26024Y-23301D01*
X25986Y-23209D01*
X25927Y-23150D01*
X25986Y-23091D01*
X26024Y-23000D01*
X26024Y-22901D01*
X26024Y-22718D01*
X26150Y-22844D01*
X26150Y-23455D01*
X26150Y-23455D01*
G37*
G54D28*
X26150Y-23455D02*
X25971Y-23633D01*
X25963Y-23625D01*
X25600Y-23625D01*
X25550Y-23625D01*
X25450Y-23625D01*
X25450Y-23525D01*
X25550Y-23525D01*
X25600Y-23525D01*
X25963Y-23525D01*
X26025Y-23463D01*
X26024Y-23301D01*
X25986Y-23209D01*
X25927Y-23150D01*
X25986Y-23091D01*
X26024Y-23000D01*
X26024Y-22901D01*
X26024Y-22718D01*
X26150Y-22844D01*
X26150Y-23455D01*
G54D10*
G36*
X26425Y-16712D02*
X26421Y-16722D01*
X26421Y-16801D01*
X26326Y-16801D01*
X26212Y-16800D01*
X26150Y-16862D01*
X26150Y-17175D01*
X26150Y-17225D01*
X26150Y-17325D01*
X26050Y-17325D01*
X26000Y-17325D01*
X25637Y-17325D01*
X25600Y-17362D01*
X25563Y-17325D01*
X25200Y-17325D01*
X25150Y-17325D01*
X25050Y-17325D01*
X25050Y-17225D01*
X25150Y-17225D01*
X25200Y-17225D01*
X25563Y-17225D01*
X25600Y-17188D01*
X25637Y-17225D01*
X26050Y-17225D01*
X26050Y-16862D01*
X25988Y-16800D01*
X25874Y-16801D01*
X25775Y-16801D01*
X25684Y-16839D01*
X25614Y-16909D01*
X25600Y-16942D01*
X25586Y-16909D01*
X25516Y-16839D01*
X25425Y-16801D01*
X25422Y-16801D01*
X25475Y-16675D01*
X25475Y-16526D01*
X25418Y-16388D01*
X25344Y-16314D01*
X25476Y-16314D01*
X25587Y-16292D01*
X25681Y-16229D01*
X26421Y-15489D01*
X26421Y-15521D01*
X26425Y-15531D01*
X26421Y-15541D01*
X26421Y-15640D01*
X26421Y-15718D01*
X26425Y-15728D01*
X26421Y-15738D01*
X26421Y-15837D01*
X26421Y-15915D01*
X26425Y-15925D01*
X26421Y-15935D01*
X26421Y-16034D01*
X26421Y-16112D01*
X26424Y-16121D01*
X26421Y-16131D01*
X26421Y-16230D01*
X26421Y-16308D01*
X26425Y-16318D01*
X26421Y-16328D01*
X26421Y-16427D01*
X26421Y-16505D01*
X26425Y-16515D01*
X26421Y-16525D01*
X26421Y-16624D01*
X26421Y-16702D01*
X26425Y-16712D01*
X26425Y-16712D01*
G37*
G54D28*
X26425Y-16712D02*
X26421Y-16722D01*
X26421Y-16801D01*
X26326Y-16801D01*
X26212Y-16800D01*
X26150Y-16862D01*
X26150Y-17175D01*
X26150Y-17225D01*
X26150Y-17325D01*
X26050Y-17325D01*
X26000Y-17325D01*
X25637Y-17325D01*
X25600Y-17362D01*
X25563Y-17325D01*
X25200Y-17325D01*
X25150Y-17325D01*
X25050Y-17325D01*
X25050Y-17225D01*
X25150Y-17225D01*
X25200Y-17225D01*
X25563Y-17225D01*
X25600Y-17188D01*
X25637Y-17225D01*
X26050Y-17225D01*
X26050Y-16862D01*
X25988Y-16800D01*
X25874Y-16801D01*
X25775Y-16801D01*
X25684Y-16839D01*
X25614Y-16909D01*
X25600Y-16942D01*
X25586Y-16909D01*
X25516Y-16839D01*
X25425Y-16801D01*
X25422Y-16801D01*
X25475Y-16675D01*
X25475Y-16526D01*
X25418Y-16388D01*
X25344Y-16314D01*
X25476Y-16314D01*
X25587Y-16292D01*
X25681Y-16229D01*
X26421Y-15489D01*
X26421Y-15521D01*
X26425Y-15531D01*
X26421Y-15541D01*
X26421Y-15640D01*
X26421Y-15718D01*
X26425Y-15728D01*
X26421Y-15738D01*
X26421Y-15837D01*
X26421Y-15915D01*
X26425Y-15925D01*
X26421Y-15935D01*
X26421Y-16034D01*
X26421Y-16112D01*
X26424Y-16121D01*
X26421Y-16131D01*
X26421Y-16230D01*
X26421Y-16308D01*
X26425Y-16318D01*
X26421Y-16328D01*
X26421Y-16427D01*
X26421Y-16505D01*
X26425Y-16515D01*
X26421Y-16525D01*
X26421Y-16624D01*
X26421Y-16702D01*
X26425Y-16712D01*
G54D10*
G36*
X34299Y-17106D02*
X34295Y-17116D01*
X34295Y-17215D01*
X34295Y-17293D01*
X34298Y-17302D01*
X34294Y-17302D01*
X34294Y-17308D01*
X34216Y-17325D01*
X34126Y-17325D01*
X33988Y-17382D01*
X33883Y-17487D01*
X33825Y-17625D01*
X33825Y-17774D01*
X33876Y-17899D01*
X31909Y-17899D01*
X30717Y-16707D01*
X34297Y-16707D01*
X34299Y-16712D01*
X34295Y-16722D01*
X34295Y-16821D01*
X34295Y-16899D01*
X34299Y-16909D01*
X34295Y-16919D01*
X34295Y-17018D01*
X34295Y-17096D01*
X34299Y-17106D01*
X34299Y-17106D01*
G37*
G54D28*
X34299Y-17106D02*
X34295Y-17116D01*
X34295Y-17215D01*
X34295Y-17293D01*
X34298Y-17302D01*
X34294Y-17302D01*
X34294Y-17308D01*
X34216Y-17325D01*
X34126Y-17325D01*
X33988Y-17382D01*
X33883Y-17487D01*
X33825Y-17625D01*
X33825Y-17774D01*
X33876Y-17899D01*
X31909Y-17899D01*
X30717Y-16707D01*
X34297Y-16707D01*
X34299Y-16712D01*
X34295Y-16722D01*
X34295Y-16821D01*
X34295Y-16899D01*
X34299Y-16909D01*
X34295Y-16919D01*
X34295Y-17018D01*
X34295Y-17096D01*
X34299Y-17106D01*
G54D10*
G36*
X35812Y-14472D02*
X35788Y-14482D01*
X35683Y-14587D01*
X35625Y-14725D01*
X35625Y-14872D01*
X35584Y-14889D01*
X35514Y-14959D01*
X35493Y-15008D01*
X35471Y-14986D01*
X35380Y-14948D01*
X35281Y-14948D01*
X34495Y-14948D01*
X34403Y-14986D01*
X34333Y-15056D01*
X34295Y-15147D01*
X34295Y-15246D01*
X34295Y-15324D01*
X34299Y-15334D01*
X34295Y-15344D01*
X34295Y-15443D01*
X34295Y-15521D01*
X34299Y-15531D01*
X34295Y-15541D01*
X34295Y-15640D01*
X34295Y-15718D01*
X34299Y-15728D01*
X34295Y-15738D01*
X34295Y-15837D01*
X34295Y-15915D01*
X34299Y-15925D01*
X34295Y-15935D01*
X34295Y-16034D01*
X34295Y-16112D01*
X34298Y-16121D01*
X34296Y-16127D01*
X30437Y-16127D01*
X28705Y-14395D01*
X28611Y-14332D01*
X28500Y-14310D01*
X26475Y-14310D01*
X26475Y-14226D01*
X26418Y-14088D01*
X26313Y-13983D01*
X26175Y-13925D01*
X31065Y-13925D01*
X31368Y-14227D01*
X31370Y-14230D01*
X31475Y-14299D01*
X31476Y-14300D01*
X31600Y-14325D01*
X35665Y-14325D01*
X35812Y-14472D01*
X35812Y-14472D01*
G37*
G54D28*
X35812Y-14472D02*
X35788Y-14482D01*
X35683Y-14587D01*
X35625Y-14725D01*
X35625Y-14872D01*
X35584Y-14889D01*
X35514Y-14959D01*
X35493Y-15008D01*
X35471Y-14986D01*
X35380Y-14948D01*
X35281Y-14948D01*
X34495Y-14948D01*
X34403Y-14986D01*
X34333Y-15056D01*
X34295Y-15147D01*
X34295Y-15246D01*
X34295Y-15324D01*
X34299Y-15334D01*
X34295Y-15344D01*
X34295Y-15443D01*
X34295Y-15521D01*
X34299Y-15531D01*
X34295Y-15541D01*
X34295Y-15640D01*
X34295Y-15718D01*
X34299Y-15728D01*
X34295Y-15738D01*
X34295Y-15837D01*
X34295Y-15915D01*
X34299Y-15925D01*
X34295Y-15935D01*
X34295Y-16034D01*
X34295Y-16112D01*
X34298Y-16121D01*
X34296Y-16127D01*
X30437Y-16127D01*
X28705Y-14395D01*
X28611Y-14332D01*
X28500Y-14310D01*
X26475Y-14310D01*
X26475Y-14226D01*
X26418Y-14088D01*
X26313Y-13983D01*
X26175Y-13925D01*
X31065Y-13925D01*
X31368Y-14227D01*
X31370Y-14230D01*
X31475Y-14299D01*
X31476Y-14300D01*
X31600Y-14325D01*
X35665Y-14325D01*
X35812Y-14472D01*
G54D10*
G36*
X36050Y-17225D02*
X35950Y-17225D01*
X35950Y-17125D01*
X36050Y-17125D01*
X36050Y-17225D01*
X36050Y-17225D01*
G37*
G54D28*
X36050Y-17225D02*
X35950Y-17225D01*
X35950Y-17125D01*
X36050Y-17125D01*
X36050Y-17225D01*
G54D10*
G36*
X40483Y-26826D02*
X39991Y-26826D01*
X39981Y-26830D01*
X39852Y-26830D01*
X39790Y-26892D01*
X39790Y-26923D01*
X39649Y-26923D01*
X39649Y-26676D01*
X39632Y-26636D01*
X39790Y-26636D01*
X39790Y-26668D01*
X39852Y-26730D01*
X39982Y-26730D01*
X39990Y-26733D01*
X40089Y-26733D01*
X40483Y-26733D01*
X40483Y-26826D01*
X40483Y-26826D01*
G37*
G54D28*
X40483Y-26826D02*
X39991Y-26826D01*
X39981Y-26830D01*
X39852Y-26830D01*
X39790Y-26892D01*
X39790Y-26923D01*
X39649Y-26923D01*
X39649Y-26676D01*
X39632Y-26636D01*
X39790Y-26636D01*
X39790Y-26668D01*
X39852Y-26730D01*
X39982Y-26730D01*
X39990Y-26733D01*
X40089Y-26733D01*
X40483Y-26733D01*
X40483Y-26826D01*
G54D10*
G36*
X42977Y-16912D02*
X41995Y-17895D01*
X41932Y-17989D01*
X41910Y-18100D01*
X41910Y-23280D01*
X41234Y-23955D01*
X41234Y-22817D01*
X41234Y-22593D01*
X41233Y-22263D01*
X41195Y-22171D01*
X41125Y-22101D01*
X41034Y-22063D01*
X40950Y-22063D01*
X40950Y-20012D01*
X40950Y-19788D01*
X40949Y-19651D01*
X40911Y-19559D01*
X40841Y-19489D01*
X40750Y-19451D01*
X40651Y-19451D01*
X40412Y-19450D01*
X40350Y-19512D01*
X40350Y-19850D01*
X40888Y-19850D01*
X40950Y-19788D01*
X40950Y-20012D01*
X40888Y-19950D01*
X40350Y-19950D01*
X40350Y-20288D01*
X40412Y-20350D01*
X40651Y-20349D01*
X40750Y-20349D01*
X40841Y-20311D01*
X40911Y-20241D01*
X40949Y-20149D01*
X40950Y-20012D01*
X40950Y-22063D01*
X40935Y-22063D01*
X40821Y-22062D01*
X40759Y-22124D01*
X40759Y-22655D01*
X41172Y-22655D01*
X41234Y-22593D01*
X41234Y-22817D01*
X41172Y-22755D01*
X40759Y-22755D01*
X40759Y-23286D01*
X40821Y-23348D01*
X40935Y-23347D01*
X41034Y-23347D01*
X41125Y-23309D01*
X41195Y-23239D01*
X41233Y-23147D01*
X41234Y-22817D01*
X41234Y-23955D01*
X40937Y-24252D01*
X40876Y-24227D01*
X40777Y-24227D01*
X40659Y-24227D01*
X40659Y-23286D01*
X40659Y-22755D01*
X40659Y-22655D01*
X40659Y-22124D01*
X40597Y-22062D01*
X40483Y-22063D01*
X40384Y-22063D01*
X40299Y-22098D01*
X40299Y-22001D01*
X40300Y-21612D01*
X40300Y-21388D01*
X40299Y-20999D01*
X40299Y-20900D01*
X40261Y-20809D01*
X40250Y-20798D01*
X40250Y-20288D01*
X40250Y-19950D01*
X40250Y-19850D01*
X40250Y-19512D01*
X40188Y-19450D01*
X39949Y-19451D01*
X39850Y-19451D01*
X39759Y-19489D01*
X39689Y-19559D01*
X39651Y-19651D01*
X39650Y-19788D01*
X39712Y-19850D01*
X40250Y-19850D01*
X40250Y-19950D01*
X39712Y-19950D01*
X39650Y-20012D01*
X39651Y-20149D01*
X39689Y-20241D01*
X39759Y-20311D01*
X39850Y-20349D01*
X39949Y-20349D01*
X40188Y-20350D01*
X40250Y-20288D01*
X40250Y-20798D01*
X40191Y-20739D01*
X40099Y-20701D01*
X39812Y-20700D01*
X39750Y-20762D01*
X39750Y-21450D01*
X40238Y-21450D01*
X40300Y-21388D01*
X40300Y-21612D01*
X40238Y-21550D01*
X39750Y-21550D01*
X39750Y-22238D01*
X39812Y-22300D01*
X40099Y-22299D01*
X40184Y-22263D01*
X40184Y-22593D01*
X40246Y-22655D01*
X40659Y-22655D01*
X40659Y-22755D01*
X40246Y-22755D01*
X40184Y-22817D01*
X40185Y-23147D01*
X40223Y-23239D01*
X40293Y-23309D01*
X40384Y-23347D01*
X40483Y-23347D01*
X40597Y-23348D01*
X40659Y-23286D01*
X40659Y-24227D01*
X39991Y-24227D01*
X39899Y-24265D01*
X39874Y-24289D01*
X39649Y-24064D01*
X39649Y-23676D01*
X39611Y-23584D01*
X39551Y-23524D01*
X39699Y-23524D01*
X39791Y-23486D01*
X39861Y-23416D01*
X39899Y-23325D01*
X39899Y-23226D01*
X39900Y-23112D01*
X39900Y-22888D01*
X39899Y-22774D01*
X39899Y-22675D01*
X39861Y-22584D01*
X39791Y-22514D01*
X39699Y-22476D01*
X39650Y-22475D01*
X39650Y-22238D01*
X39650Y-21550D01*
X39650Y-21450D01*
X39650Y-20762D01*
X39588Y-20700D01*
X39301Y-20701D01*
X39209Y-20739D01*
X39139Y-20809D01*
X39101Y-20900D01*
X39101Y-20999D01*
X39100Y-21388D01*
X39162Y-21450D01*
X39650Y-21450D01*
X39650Y-21550D01*
X39162Y-21550D01*
X39100Y-21612D01*
X39101Y-22001D01*
X39101Y-22100D01*
X39139Y-22191D01*
X39209Y-22261D01*
X39301Y-22299D01*
X39588Y-22300D01*
X39650Y-22238D01*
X39650Y-22475D01*
X39537Y-22475D01*
X39475Y-22537D01*
X39475Y-22950D01*
X39838Y-22950D01*
X39900Y-22888D01*
X39900Y-23112D01*
X39838Y-23050D01*
X39525Y-23050D01*
X39475Y-23050D01*
X39375Y-23050D01*
X39375Y-22950D01*
X39375Y-22900D01*
X39375Y-22537D01*
X39313Y-22475D01*
X39151Y-22476D01*
X39059Y-22514D01*
X39000Y-22573D01*
X38941Y-22514D01*
X38850Y-22476D01*
X38751Y-22476D01*
X38674Y-22476D01*
X38675Y-22475D01*
X38675Y-22326D01*
X38663Y-22299D01*
X38699Y-22299D01*
X38791Y-22261D01*
X38861Y-22191D01*
X38899Y-22100D01*
X38899Y-22001D01*
X38899Y-20901D01*
X38861Y-20809D01*
X38791Y-20739D01*
X38700Y-20701D01*
X38625Y-20701D01*
X38625Y-19600D01*
X38600Y-19476D01*
X38599Y-19475D01*
X38530Y-19370D01*
X38527Y-19368D01*
X38484Y-19325D01*
X39682Y-19325D01*
X39689Y-19341D01*
X39759Y-19411D01*
X39850Y-19449D01*
X39949Y-19449D01*
X40749Y-19449D01*
X40841Y-19411D01*
X40911Y-19341D01*
X40949Y-19250D01*
X40949Y-19151D01*
X40949Y-18751D01*
X40911Y-18659D01*
X40841Y-18589D01*
X40750Y-18551D01*
X40651Y-18551D01*
X39851Y-18551D01*
X39759Y-18589D01*
X39689Y-18659D01*
X39682Y-18675D01*
X38349Y-18675D01*
X38349Y-18231D01*
X38311Y-18139D01*
X38241Y-18069D01*
X38150Y-18031D01*
X38051Y-18031D01*
X37251Y-18031D01*
X37159Y-18069D01*
X37090Y-18138D01*
X37090Y-16800D01*
X37068Y-16689D01*
X37005Y-16595D01*
X36819Y-16409D01*
X36725Y-16346D01*
X36614Y-16324D01*
X36524Y-16324D01*
X36524Y-15901D01*
X36486Y-15809D01*
X36427Y-15750D01*
X36486Y-15691D01*
X36524Y-15600D01*
X36524Y-15501D01*
X36524Y-15183D01*
X37701Y-16360D01*
X37701Y-17099D01*
X37739Y-17191D01*
X37809Y-17261D01*
X37900Y-17299D01*
X37999Y-17299D01*
X38639Y-17299D01*
X39651Y-18310D01*
X39651Y-18349D01*
X39689Y-18441D01*
X39759Y-18511D01*
X39850Y-18549D01*
X39949Y-18549D01*
X40749Y-18549D01*
X40841Y-18511D01*
X40911Y-18441D01*
X40949Y-18350D01*
X40949Y-18251D01*
X40949Y-17851D01*
X40911Y-17759D01*
X40841Y-17689D01*
X40750Y-17651D01*
X40651Y-17651D01*
X40300Y-17651D01*
X40300Y-16612D01*
X40300Y-16388D01*
X40299Y-15999D01*
X40299Y-15900D01*
X40261Y-15809D01*
X40191Y-15739D01*
X40099Y-15701D01*
X39812Y-15700D01*
X39750Y-15762D01*
X39750Y-16450D01*
X40238Y-16450D01*
X40300Y-16388D01*
X40300Y-16612D01*
X40238Y-16550D01*
X39750Y-16550D01*
X39750Y-17238D01*
X39812Y-17300D01*
X40099Y-17299D01*
X40191Y-17261D01*
X40261Y-17191D01*
X40299Y-17100D01*
X40299Y-17001D01*
X40300Y-16612D01*
X40300Y-17651D01*
X39910Y-17651D01*
X39559Y-17299D01*
X39588Y-17300D01*
X39650Y-17238D01*
X39650Y-16550D01*
X39650Y-16450D01*
X39650Y-15762D01*
X39588Y-15700D01*
X39301Y-15701D01*
X39209Y-15739D01*
X39139Y-15809D01*
X39101Y-15900D01*
X39101Y-15999D01*
X39100Y-16388D01*
X39162Y-16450D01*
X39650Y-16450D01*
X39650Y-16550D01*
X39162Y-16550D01*
X39100Y-16612D01*
X39100Y-16840D01*
X38899Y-16639D01*
X38899Y-15901D01*
X38861Y-15809D01*
X38791Y-15739D01*
X38700Y-15701D01*
X38601Y-15701D01*
X37960Y-15701D01*
X36249Y-13990D01*
X38872Y-13990D01*
X38882Y-14012D01*
X38987Y-14117D01*
X39125Y-14175D01*
X39274Y-14175D01*
X39412Y-14118D01*
X39517Y-14013D01*
X39575Y-13875D01*
X39575Y-13790D01*
X40079Y-13790D01*
X42951Y-16661D01*
X42951Y-16849D01*
X42977Y-16912D01*
X42977Y-16912D01*
G37*
G54D28*
X42977Y-16912D02*
X41995Y-17895D01*
X41932Y-17989D01*
X41910Y-18100D01*
X41910Y-23280D01*
X41234Y-23955D01*
X41234Y-22817D01*
X41234Y-22593D01*
X41233Y-22263D01*
X41195Y-22171D01*
X41125Y-22101D01*
X41034Y-22063D01*
X40950Y-22063D01*
X40950Y-20012D01*
X40950Y-19788D01*
X40949Y-19651D01*
X40911Y-19559D01*
X40841Y-19489D01*
X40750Y-19451D01*
X40651Y-19451D01*
X40412Y-19450D01*
X40350Y-19512D01*
X40350Y-19850D01*
X40888Y-19850D01*
X40950Y-19788D01*
X40950Y-20012D01*
X40888Y-19950D01*
X40350Y-19950D01*
X40350Y-20288D01*
X40412Y-20350D01*
X40651Y-20349D01*
X40750Y-20349D01*
X40841Y-20311D01*
X40911Y-20241D01*
X40949Y-20149D01*
X40950Y-20012D01*
X40950Y-22063D01*
X40935Y-22063D01*
X40821Y-22062D01*
X40759Y-22124D01*
X40759Y-22655D01*
X41172Y-22655D01*
X41234Y-22593D01*
X41234Y-22817D01*
X41172Y-22755D01*
X40759Y-22755D01*
X40759Y-23286D01*
X40821Y-23348D01*
X40935Y-23347D01*
X41034Y-23347D01*
X41125Y-23309D01*
X41195Y-23239D01*
X41233Y-23147D01*
X41234Y-22817D01*
X41234Y-23955D01*
X40937Y-24252D01*
X40876Y-24227D01*
X40777Y-24227D01*
X40659Y-24227D01*
X40659Y-23286D01*
X40659Y-22755D01*
X40659Y-22655D01*
X40659Y-22124D01*
X40597Y-22062D01*
X40483Y-22063D01*
X40384Y-22063D01*
X40299Y-22098D01*
X40299Y-22001D01*
X40300Y-21612D01*
X40300Y-21388D01*
X40299Y-20999D01*
X40299Y-20900D01*
X40261Y-20809D01*
X40250Y-20798D01*
X40250Y-20288D01*
X40250Y-19950D01*
X40250Y-19850D01*
X40250Y-19512D01*
X40188Y-19450D01*
X39949Y-19451D01*
X39850Y-19451D01*
X39759Y-19489D01*
X39689Y-19559D01*
X39651Y-19651D01*
X39650Y-19788D01*
X39712Y-19850D01*
X40250Y-19850D01*
X40250Y-19950D01*
X39712Y-19950D01*
X39650Y-20012D01*
X39651Y-20149D01*
X39689Y-20241D01*
X39759Y-20311D01*
X39850Y-20349D01*
X39949Y-20349D01*
X40188Y-20350D01*
X40250Y-20288D01*
X40250Y-20798D01*
X40191Y-20739D01*
X40099Y-20701D01*
X39812Y-20700D01*
X39750Y-20762D01*
X39750Y-21450D01*
X40238Y-21450D01*
X40300Y-21388D01*
X40300Y-21612D01*
X40238Y-21550D01*
X39750Y-21550D01*
X39750Y-22238D01*
X39812Y-22300D01*
X40099Y-22299D01*
X40184Y-22263D01*
X40184Y-22593D01*
X40246Y-22655D01*
X40659Y-22655D01*
X40659Y-22755D01*
X40246Y-22755D01*
X40184Y-22817D01*
X40185Y-23147D01*
X40223Y-23239D01*
X40293Y-23309D01*
X40384Y-23347D01*
X40483Y-23347D01*
X40597Y-23348D01*
X40659Y-23286D01*
X40659Y-24227D01*
X39991Y-24227D01*
X39899Y-24265D01*
X39874Y-24289D01*
X39649Y-24064D01*
X39649Y-23676D01*
X39611Y-23584D01*
X39551Y-23524D01*
X39699Y-23524D01*
X39791Y-23486D01*
X39861Y-23416D01*
X39899Y-23325D01*
X39899Y-23226D01*
X39900Y-23112D01*
X39900Y-22888D01*
X39899Y-22774D01*
X39899Y-22675D01*
X39861Y-22584D01*
X39791Y-22514D01*
X39699Y-22476D01*
X39650Y-22475D01*
X39650Y-22238D01*
X39650Y-21550D01*
X39650Y-21450D01*
X39650Y-20762D01*
X39588Y-20700D01*
X39301Y-20701D01*
X39209Y-20739D01*
X39139Y-20809D01*
X39101Y-20900D01*
X39101Y-20999D01*
X39100Y-21388D01*
X39162Y-21450D01*
X39650Y-21450D01*
X39650Y-21550D01*
X39162Y-21550D01*
X39100Y-21612D01*
X39101Y-22001D01*
X39101Y-22100D01*
X39139Y-22191D01*
X39209Y-22261D01*
X39301Y-22299D01*
X39588Y-22300D01*
X39650Y-22238D01*
X39650Y-22475D01*
X39537Y-22475D01*
X39475Y-22537D01*
X39475Y-22950D01*
X39838Y-22950D01*
X39900Y-22888D01*
X39900Y-23112D01*
X39838Y-23050D01*
X39525Y-23050D01*
X39475Y-23050D01*
X39375Y-23050D01*
X39375Y-22950D01*
X39375Y-22900D01*
X39375Y-22537D01*
X39313Y-22475D01*
X39151Y-22476D01*
X39059Y-22514D01*
X39000Y-22573D01*
X38941Y-22514D01*
X38850Y-22476D01*
X38751Y-22476D01*
X38674Y-22476D01*
X38675Y-22475D01*
X38675Y-22326D01*
X38663Y-22299D01*
X38699Y-22299D01*
X38791Y-22261D01*
X38861Y-22191D01*
X38899Y-22100D01*
X38899Y-22001D01*
X38899Y-20901D01*
X38861Y-20809D01*
X38791Y-20739D01*
X38700Y-20701D01*
X38625Y-20701D01*
X38625Y-19600D01*
X38600Y-19476D01*
X38599Y-19475D01*
X38530Y-19370D01*
X38527Y-19368D01*
X38484Y-19325D01*
X39682Y-19325D01*
X39689Y-19341D01*
X39759Y-19411D01*
X39850Y-19449D01*
X39949Y-19449D01*
X40749Y-19449D01*
X40841Y-19411D01*
X40911Y-19341D01*
X40949Y-19250D01*
X40949Y-19151D01*
X40949Y-18751D01*
X40911Y-18659D01*
X40841Y-18589D01*
X40750Y-18551D01*
X40651Y-18551D01*
X39851Y-18551D01*
X39759Y-18589D01*
X39689Y-18659D01*
X39682Y-18675D01*
X38349Y-18675D01*
X38349Y-18231D01*
X38311Y-18139D01*
X38241Y-18069D01*
X38150Y-18031D01*
X38051Y-18031D01*
X37251Y-18031D01*
X37159Y-18069D01*
X37090Y-18138D01*
X37090Y-16800D01*
X37068Y-16689D01*
X37005Y-16595D01*
X36819Y-16409D01*
X36725Y-16346D01*
X36614Y-16324D01*
X36524Y-16324D01*
X36524Y-15901D01*
X36486Y-15809D01*
X36427Y-15750D01*
X36486Y-15691D01*
X36524Y-15600D01*
X36524Y-15501D01*
X36524Y-15183D01*
X37701Y-16360D01*
X37701Y-17099D01*
X37739Y-17191D01*
X37809Y-17261D01*
X37900Y-17299D01*
X37999Y-17299D01*
X38639Y-17299D01*
X39651Y-18310D01*
X39651Y-18349D01*
X39689Y-18441D01*
X39759Y-18511D01*
X39850Y-18549D01*
X39949Y-18549D01*
X40749Y-18549D01*
X40841Y-18511D01*
X40911Y-18441D01*
X40949Y-18350D01*
X40949Y-18251D01*
X40949Y-17851D01*
X40911Y-17759D01*
X40841Y-17689D01*
X40750Y-17651D01*
X40651Y-17651D01*
X40300Y-17651D01*
X40300Y-16612D01*
X40300Y-16388D01*
X40299Y-15999D01*
X40299Y-15900D01*
X40261Y-15809D01*
X40191Y-15739D01*
X40099Y-15701D01*
X39812Y-15700D01*
X39750Y-15762D01*
X39750Y-16450D01*
X40238Y-16450D01*
X40300Y-16388D01*
X40300Y-16612D01*
X40238Y-16550D01*
X39750Y-16550D01*
X39750Y-17238D01*
X39812Y-17300D01*
X40099Y-17299D01*
X40191Y-17261D01*
X40261Y-17191D01*
X40299Y-17100D01*
X40299Y-17001D01*
X40300Y-16612D01*
X40300Y-17651D01*
X39910Y-17651D01*
X39559Y-17299D01*
X39588Y-17300D01*
X39650Y-17238D01*
X39650Y-16550D01*
X39650Y-16450D01*
X39650Y-15762D01*
X39588Y-15700D01*
X39301Y-15701D01*
X39209Y-15739D01*
X39139Y-15809D01*
X39101Y-15900D01*
X39101Y-15999D01*
X39100Y-16388D01*
X39162Y-16450D01*
X39650Y-16450D01*
X39650Y-16550D01*
X39162Y-16550D01*
X39100Y-16612D01*
X39100Y-16840D01*
X38899Y-16639D01*
X38899Y-15901D01*
X38861Y-15809D01*
X38791Y-15739D01*
X38700Y-15701D01*
X38601Y-15701D01*
X37960Y-15701D01*
X36249Y-13990D01*
X38872Y-13990D01*
X38882Y-14012D01*
X38987Y-14117D01*
X39125Y-14175D01*
X39274Y-14175D01*
X39412Y-14118D01*
X39517Y-14013D01*
X39575Y-13875D01*
X39575Y-13790D01*
X40079Y-13790D01*
X42951Y-16661D01*
X42951Y-16849D01*
X42977Y-16912D01*
G54D10*
G36*
X45175Y-31765D02*
X45040Y-31630D01*
X45049Y-31609D01*
X45049Y-31391D01*
X44999Y-31270D01*
X44965Y-31189D01*
X44811Y-31035D01*
X44726Y-31000D01*
X44811Y-30965D01*
X44965Y-30811D01*
X44999Y-30729D01*
X45049Y-30609D01*
X45049Y-30391D01*
X44999Y-30270D01*
X44965Y-30189D01*
X44811Y-30035D01*
X44726Y-30000D01*
X44811Y-29965D01*
X44965Y-29811D01*
X44999Y-29729D01*
X45049Y-29609D01*
X45049Y-29391D01*
X44999Y-29270D01*
X44965Y-29189D01*
X44910Y-29134D01*
X44971Y-29134D01*
X44999Y-29122D01*
X45062Y-29096D01*
X45132Y-29026D01*
X45170Y-28934D01*
X45171Y-28722D01*
X45171Y-28498D01*
X45171Y-22502D01*
X45109Y-22440D01*
X44538Y-22440D01*
X44538Y-22853D01*
X44600Y-22915D01*
X44872Y-22914D01*
X44971Y-22914D01*
X45062Y-22876D01*
X45132Y-22806D01*
X45170Y-22714D01*
X45171Y-22502D01*
X45171Y-28498D01*
X45170Y-28286D01*
X45132Y-28194D01*
X45062Y-28124D01*
X44999Y-28097D01*
X44999Y-27802D01*
X44999Y-27096D01*
X44999Y-24652D01*
X44999Y-23946D01*
X44438Y-23946D01*
X44438Y-22853D01*
X44438Y-22440D01*
X43867Y-22440D01*
X43805Y-22502D01*
X43806Y-22714D01*
X43844Y-22806D01*
X43914Y-22876D01*
X44005Y-22914D01*
X44104Y-22914D01*
X44376Y-22915D01*
X44438Y-22853D01*
X44438Y-23946D01*
X44293Y-23946D01*
X44293Y-24652D01*
X44999Y-24652D01*
X44999Y-27096D01*
X44293Y-27096D01*
X44293Y-27802D01*
X44999Y-27802D01*
X44999Y-28097D01*
X44971Y-28086D01*
X44872Y-28086D01*
X44600Y-28085D01*
X44538Y-28147D01*
X44538Y-28560D01*
X44999Y-28560D01*
X45109Y-28560D01*
X45171Y-28498D01*
X45171Y-28722D01*
X45109Y-28660D01*
X44999Y-28660D01*
X44588Y-28660D01*
X44538Y-28660D01*
X44438Y-28660D01*
X44438Y-28560D01*
X44438Y-28147D01*
X44376Y-28085D01*
X44104Y-28086D01*
X44005Y-28086D01*
X43914Y-28124D01*
X43844Y-28194D01*
X43806Y-28286D01*
X43805Y-28498D01*
X43867Y-28560D01*
X44438Y-28560D01*
X44438Y-28660D01*
X44388Y-28660D01*
X43867Y-28660D01*
X43814Y-28712D01*
X43800Y-28710D01*
X41600Y-28710D01*
X41489Y-28732D01*
X41395Y-28795D01*
X41216Y-28973D01*
X41233Y-28934D01*
X41234Y-28722D01*
X41172Y-28660D01*
X40759Y-28660D01*
X40759Y-29073D01*
X40821Y-29135D01*
X40935Y-29134D01*
X41034Y-29134D01*
X41071Y-29118D01*
X40880Y-29310D01*
X40659Y-29310D01*
X40659Y-29073D01*
X40659Y-28660D01*
X40246Y-28660D01*
X40184Y-28722D01*
X40185Y-28934D01*
X40223Y-29026D01*
X40293Y-29096D01*
X40384Y-29134D01*
X40483Y-29134D01*
X40597Y-29135D01*
X40659Y-29073D01*
X40659Y-29310D01*
X38820Y-29310D01*
X38534Y-29024D01*
X38599Y-29024D01*
X38691Y-28986D01*
X38750Y-28927D01*
X38809Y-28986D01*
X38900Y-29024D01*
X38999Y-29024D01*
X39449Y-29024D01*
X39541Y-28986D01*
X39611Y-28916D01*
X39649Y-28825D01*
X39649Y-28726D01*
X39649Y-28436D01*
X39716Y-28369D01*
X39840Y-28369D01*
X39899Y-28428D01*
X39990Y-28466D01*
X40089Y-28466D01*
X40184Y-28466D01*
X40184Y-28498D01*
X40246Y-28560D01*
X40609Y-28560D01*
X40659Y-28560D01*
X40759Y-28560D01*
X40809Y-28560D01*
X41172Y-28560D01*
X41234Y-28498D01*
X41233Y-28286D01*
X41195Y-28194D01*
X41125Y-28124D01*
X41075Y-28103D01*
X41075Y-27907D01*
X41159Y-27851D01*
X43405Y-25605D01*
X43468Y-25511D01*
X43490Y-25400D01*
X43490Y-22620D01*
X43818Y-22291D01*
X43867Y-22340D01*
X44388Y-22340D01*
X44438Y-22340D01*
X44538Y-22340D01*
X44588Y-22340D01*
X45109Y-22340D01*
X45171Y-22278D01*
X45170Y-22066D01*
X45132Y-21974D01*
X45062Y-21904D01*
X44971Y-21866D01*
X44910Y-21866D01*
X44965Y-21811D01*
X45049Y-21609D01*
X45049Y-21391D01*
X44965Y-21189D01*
X44811Y-21035D01*
X44726Y-21000D01*
X44811Y-20965D01*
X44965Y-20811D01*
X45049Y-20609D01*
X45049Y-20391D01*
X45040Y-20369D01*
X45175Y-20235D01*
X45175Y-31765D01*
X45175Y-31765D01*
G37*
G54D28*
X45175Y-31765D02*
X45040Y-31630D01*
X45049Y-31609D01*
X45049Y-31391D01*
X44999Y-31270D01*
X44965Y-31189D01*
X44811Y-31035D01*
X44726Y-31000D01*
X44811Y-30965D01*
X44965Y-30811D01*
X44999Y-30729D01*
X45049Y-30609D01*
X45049Y-30391D01*
X44999Y-30270D01*
X44965Y-30189D01*
X44811Y-30035D01*
X44726Y-30000D01*
X44811Y-29965D01*
X44965Y-29811D01*
X44999Y-29729D01*
X45049Y-29609D01*
X45049Y-29391D01*
X44999Y-29270D01*
X44965Y-29189D01*
X44910Y-29134D01*
X44971Y-29134D01*
X44999Y-29122D01*
X45062Y-29096D01*
X45132Y-29026D01*
X45170Y-28934D01*
X45171Y-28722D01*
X45171Y-28498D01*
X45171Y-22502D01*
X45109Y-22440D01*
X44538Y-22440D01*
X44538Y-22853D01*
X44600Y-22915D01*
X44872Y-22914D01*
X44971Y-22914D01*
X45062Y-22876D01*
X45132Y-22806D01*
X45170Y-22714D01*
X45171Y-22502D01*
X45171Y-28498D01*
X45170Y-28286D01*
X45132Y-28194D01*
X45062Y-28124D01*
X44999Y-28097D01*
X44999Y-27802D01*
X44999Y-27096D01*
X44999Y-24652D01*
X44999Y-23946D01*
X44438Y-23946D01*
X44438Y-22853D01*
X44438Y-22440D01*
X43867Y-22440D01*
X43805Y-22502D01*
X43806Y-22714D01*
X43844Y-22806D01*
X43914Y-22876D01*
X44005Y-22914D01*
X44104Y-22914D01*
X44376Y-22915D01*
X44438Y-22853D01*
X44438Y-23946D01*
X44293Y-23946D01*
X44293Y-24652D01*
X44999Y-24652D01*
X44999Y-27096D01*
X44293Y-27096D01*
X44293Y-27802D01*
X44999Y-27802D01*
X44999Y-28097D01*
X44971Y-28086D01*
X44872Y-28086D01*
X44600Y-28085D01*
X44538Y-28147D01*
X44538Y-28560D01*
X44999Y-28560D01*
X45109Y-28560D01*
X45171Y-28498D01*
X45171Y-28722D01*
X45109Y-28660D01*
X44999Y-28660D01*
X44588Y-28660D01*
X44538Y-28660D01*
X44438Y-28660D01*
X44438Y-28560D01*
X44438Y-28147D01*
X44376Y-28085D01*
X44104Y-28086D01*
X44005Y-28086D01*
X43914Y-28124D01*
X43844Y-28194D01*
X43806Y-28286D01*
X43805Y-28498D01*
X43867Y-28560D01*
X44438Y-28560D01*
X44438Y-28660D01*
X44388Y-28660D01*
X43867Y-28660D01*
X43814Y-28712D01*
X43800Y-28710D01*
X41600Y-28710D01*
X41489Y-28732D01*
X41395Y-28795D01*
X41216Y-28973D01*
X41233Y-28934D01*
X41234Y-28722D01*
X41172Y-28660D01*
X40759Y-28660D01*
X40759Y-29073D01*
X40821Y-29135D01*
X40935Y-29134D01*
X41034Y-29134D01*
X41071Y-29118D01*
X40880Y-29310D01*
X40659Y-29310D01*
X40659Y-29073D01*
X40659Y-28660D01*
X40246Y-28660D01*
X40184Y-28722D01*
X40185Y-28934D01*
X40223Y-29026D01*
X40293Y-29096D01*
X40384Y-29134D01*
X40483Y-29134D01*
X40597Y-29135D01*
X40659Y-29073D01*
X40659Y-29310D01*
X38820Y-29310D01*
X38534Y-29024D01*
X38599Y-29024D01*
X38691Y-28986D01*
X38750Y-28927D01*
X38809Y-28986D01*
X38900Y-29024D01*
X38999Y-29024D01*
X39449Y-29024D01*
X39541Y-28986D01*
X39611Y-28916D01*
X39649Y-28825D01*
X39649Y-28726D01*
X39649Y-28436D01*
X39716Y-28369D01*
X39840Y-28369D01*
X39899Y-28428D01*
X39990Y-28466D01*
X40089Y-28466D01*
X40184Y-28466D01*
X40184Y-28498D01*
X40246Y-28560D01*
X40609Y-28560D01*
X40659Y-28560D01*
X40759Y-28560D01*
X40809Y-28560D01*
X41172Y-28560D01*
X41234Y-28498D01*
X41233Y-28286D01*
X41195Y-28194D01*
X41125Y-28124D01*
X41075Y-28103D01*
X41075Y-27907D01*
X41159Y-27851D01*
X43405Y-25605D01*
X43468Y-25511D01*
X43490Y-25400D01*
X43490Y-22620D01*
X43818Y-22291D01*
X43867Y-22340D01*
X44388Y-22340D01*
X44438Y-22340D01*
X44538Y-22340D01*
X44588Y-22340D01*
X45109Y-22340D01*
X45171Y-22278D01*
X45170Y-22066D01*
X45132Y-21974D01*
X45062Y-21904D01*
X44971Y-21866D01*
X44910Y-21866D01*
X44965Y-21811D01*
X45049Y-21609D01*
X45049Y-21391D01*
X44965Y-21189D01*
X44811Y-21035D01*
X44726Y-21000D01*
X44811Y-20965D01*
X44965Y-20811D01*
X45049Y-20609D01*
X45049Y-20391D01*
X45040Y-20369D01*
X45175Y-20235D01*
X45175Y-31765D01*
G54D10*
G36*
X45175Y-37675D02*
X44999Y-37675D01*
X10325Y-37675D01*
X10325Y-06825D01*
X45175Y-06825D01*
X45175Y-09765D01*
X45040Y-09630D01*
X45049Y-09609D01*
X45049Y-09391D01*
X44965Y-09189D01*
X44811Y-09035D01*
X44726Y-09000D01*
X44811Y-08965D01*
X44965Y-08811D01*
X45049Y-08609D01*
X45049Y-08391D01*
X44965Y-08189D01*
X44811Y-08035D01*
X44726Y-08000D01*
X44811Y-07965D01*
X44965Y-07811D01*
X45049Y-07609D01*
X45049Y-07391D01*
X44965Y-07189D01*
X44811Y-07035D01*
X44609Y-06951D01*
X44391Y-06951D01*
X44189Y-07035D01*
X44049Y-07175D01*
X44049Y-07151D01*
X44011Y-07059D01*
X43941Y-06989D01*
X43850Y-06951D01*
X43751Y-06951D01*
X43151Y-06951D01*
X43059Y-06989D01*
X42989Y-07059D01*
X42951Y-07150D01*
X42951Y-07249D01*
X42951Y-07849D01*
X42989Y-07941D01*
X43059Y-08011D01*
X43150Y-08049D01*
X43175Y-08049D01*
X43035Y-08189D01*
X42951Y-08391D01*
X42951Y-08541D01*
X42005Y-07595D01*
X41911Y-07532D01*
X41800Y-07510D01*
X38700Y-07510D01*
X38589Y-07532D01*
X38495Y-07595D01*
X38494Y-07595D01*
X38494Y-07596D01*
X38130Y-07959D01*
X38109Y-07951D01*
X37891Y-07951D01*
X37689Y-08035D01*
X37535Y-08189D01*
X37500Y-08273D01*
X37465Y-08189D01*
X37311Y-08035D01*
X37109Y-07951D01*
X36891Y-07951D01*
X36689Y-08035D01*
X36535Y-08189D01*
X36500Y-08273D01*
X36465Y-08189D01*
X36311Y-08035D01*
X36109Y-07951D01*
X35891Y-07951D01*
X35689Y-08035D01*
X35535Y-08189D01*
X35500Y-08273D01*
X35465Y-08189D01*
X35311Y-08035D01*
X35109Y-07951D01*
X34891Y-07951D01*
X34689Y-08035D01*
X34535Y-08189D01*
X34500Y-08273D01*
X34465Y-08189D01*
X34311Y-08035D01*
X34109Y-07951D01*
X33891Y-07951D01*
X33689Y-08035D01*
X33535Y-08189D01*
X33500Y-08273D01*
X33465Y-08189D01*
X33311Y-08035D01*
X33109Y-07951D01*
X32891Y-07951D01*
X32689Y-08035D01*
X32535Y-08189D01*
X32500Y-08273D01*
X32465Y-08189D01*
X32311Y-08035D01*
X32109Y-07951D01*
X31891Y-07951D01*
X31689Y-08035D01*
X31535Y-08189D01*
X31500Y-08273D01*
X31465Y-08189D01*
X31311Y-08035D01*
X31109Y-07951D01*
X30891Y-07951D01*
X30689Y-08035D01*
X30535Y-08189D01*
X30500Y-08273D01*
X30465Y-08189D01*
X30311Y-08035D01*
X30109Y-07951D01*
X29891Y-07951D01*
X29689Y-08035D01*
X29535Y-08189D01*
X29500Y-08273D01*
X29465Y-08189D01*
X29311Y-08035D01*
X29109Y-07951D01*
X28891Y-07951D01*
X28689Y-08035D01*
X28535Y-08189D01*
X28500Y-08273D01*
X28465Y-08189D01*
X28311Y-08035D01*
X28109Y-07951D01*
X27891Y-07951D01*
X27689Y-08035D01*
X27535Y-08189D01*
X27500Y-08273D01*
X27465Y-08189D01*
X27311Y-08035D01*
X27109Y-07951D01*
X26891Y-07951D01*
X26689Y-08035D01*
X26535Y-08189D01*
X26500Y-08273D01*
X26465Y-08189D01*
X26311Y-08035D01*
X26109Y-07951D01*
X25891Y-07951D01*
X25689Y-08035D01*
X25535Y-08189D01*
X25500Y-08273D01*
X25465Y-08189D01*
X25311Y-08035D01*
X25109Y-07951D01*
X24891Y-07951D01*
X24689Y-08035D01*
X24535Y-08189D01*
X24500Y-08273D01*
X24465Y-08189D01*
X24311Y-08035D01*
X24109Y-07951D01*
X23891Y-07951D01*
X23689Y-08035D01*
X23535Y-08189D01*
X23500Y-08273D01*
X23465Y-08189D01*
X23311Y-08035D01*
X23109Y-07951D01*
X22891Y-07951D01*
X22689Y-08035D01*
X22535Y-08189D01*
X22500Y-08273D01*
X22465Y-08189D01*
X22311Y-08035D01*
X22109Y-07951D01*
X21891Y-07951D01*
X21689Y-08035D01*
X21535Y-08189D01*
X21500Y-08273D01*
X21465Y-08189D01*
X21311Y-08035D01*
X21109Y-07951D01*
X20891Y-07951D01*
X20689Y-08035D01*
X20535Y-08189D01*
X20500Y-08273D01*
X20465Y-08189D01*
X20311Y-08035D01*
X20109Y-07951D01*
X19891Y-07951D01*
X19689Y-08035D01*
X19535Y-08189D01*
X19500Y-08273D01*
X19465Y-08189D01*
X19311Y-08035D01*
X19109Y-07951D01*
X18891Y-07951D01*
X18689Y-08035D01*
X18535Y-08189D01*
X18500Y-08273D01*
X18465Y-08189D01*
X18311Y-08035D01*
X18109Y-07951D01*
X17891Y-07951D01*
X17689Y-08035D01*
X17535Y-08189D01*
X17500Y-08273D01*
X17465Y-08189D01*
X17311Y-08035D01*
X17109Y-07951D01*
X16891Y-07951D01*
X16689Y-08035D01*
X16535Y-08189D01*
X16497Y-08280D01*
X16472Y-08219D01*
X16378Y-08192D01*
X16308Y-08262D01*
X16308Y-08122D01*
X16281Y-08028D01*
X16079Y-07957D01*
X15866Y-07968D01*
X15719Y-08028D01*
X15692Y-08122D01*
X16000Y-08429D01*
X16308Y-08122D01*
X16308Y-08262D01*
X16071Y-08500D01*
X16378Y-08808D01*
X16472Y-08781D01*
X16495Y-08715D01*
X16535Y-08811D01*
X16689Y-08965D01*
X16773Y-09000D01*
X16689Y-09035D01*
X16535Y-09189D01*
X16497Y-09280D01*
X16472Y-09219D01*
X16378Y-09192D01*
X16071Y-09500D01*
X16378Y-09808D01*
X16472Y-09781D01*
X16495Y-09715D01*
X16535Y-09811D01*
X16689Y-09965D01*
X16891Y-10049D01*
X17109Y-10049D01*
X17210Y-10007D01*
X17210Y-11380D01*
X17130Y-11459D01*
X17109Y-11451D01*
X16891Y-11451D01*
X16689Y-11535D01*
X16535Y-11689D01*
X16497Y-11780D01*
X16472Y-11719D01*
X16378Y-11692D01*
X16308Y-11762D01*
X16308Y-11622D01*
X16281Y-11528D01*
X16079Y-11457D01*
X15866Y-11468D01*
X15790Y-11499D01*
X15790Y-09996D01*
X15921Y-10043D01*
X16134Y-10032D01*
X16281Y-09972D01*
X16308Y-09878D01*
X16035Y-09606D01*
X16000Y-09571D01*
X15929Y-09500D01*
X16000Y-09429D01*
X16035Y-09394D01*
X16308Y-09122D01*
X16281Y-09028D01*
X16207Y-09002D01*
X16281Y-08972D01*
X16308Y-08878D01*
X16035Y-08606D01*
X16000Y-08571D01*
X15929Y-08500D01*
X15894Y-08465D01*
X15622Y-08192D01*
X15528Y-08219D01*
X15504Y-08284D01*
X15465Y-08189D01*
X15311Y-08035D01*
X15109Y-07951D01*
X14891Y-07951D01*
X14689Y-08035D01*
X14535Y-08189D01*
X14500Y-08273D01*
X14465Y-08189D01*
X14311Y-08035D01*
X14109Y-07951D01*
X13891Y-07951D01*
X13689Y-08035D01*
X13535Y-08189D01*
X13500Y-08273D01*
X13465Y-08189D01*
X13311Y-08035D01*
X13109Y-07951D01*
X12891Y-07951D01*
X12689Y-08035D01*
X12535Y-08189D01*
X12500Y-08273D01*
X12465Y-08189D01*
X12311Y-08035D01*
X12109Y-07951D01*
X11891Y-07951D01*
X11689Y-08035D01*
X11535Y-08189D01*
X11451Y-08391D01*
X11451Y-08609D01*
X11535Y-08811D01*
X11689Y-08965D01*
X11773Y-09000D01*
X11689Y-09035D01*
X11535Y-09189D01*
X11451Y-09391D01*
X11451Y-09609D01*
X11535Y-09811D01*
X11689Y-09965D01*
X11891Y-10049D01*
X12109Y-10049D01*
X12210Y-10007D01*
X12210Y-11380D01*
X12130Y-11459D01*
X12109Y-11451D01*
X11891Y-11451D01*
X11689Y-11535D01*
X11535Y-11689D01*
X11451Y-11891D01*
X11451Y-12109D01*
X11535Y-12311D01*
X11689Y-12465D01*
X11773Y-12500D01*
X11689Y-12535D01*
X11535Y-12689D01*
X11451Y-12891D01*
X11451Y-13109D01*
X11535Y-13311D01*
X11689Y-13465D01*
X11891Y-13549D01*
X12109Y-13549D01*
X12311Y-13465D01*
X12465Y-13311D01*
X12500Y-13226D01*
X12535Y-13311D01*
X12689Y-13465D01*
X12891Y-13549D01*
X13109Y-13549D01*
X13311Y-13465D01*
X13465Y-13311D01*
X13500Y-13226D01*
X13535Y-13311D01*
X13689Y-13465D01*
X13891Y-13549D01*
X14109Y-13549D01*
X14311Y-13465D01*
X14465Y-13311D01*
X14500Y-13226D01*
X14535Y-13311D01*
X14689Y-13465D01*
X14891Y-13549D01*
X15109Y-13549D01*
X15311Y-13465D01*
X15465Y-13311D01*
X15502Y-13219D01*
X15528Y-13281D01*
X15622Y-13308D01*
X15929Y-13000D01*
X15622Y-12692D01*
X15528Y-12719D01*
X15504Y-12784D01*
X15465Y-12689D01*
X15311Y-12535D01*
X15226Y-12500D01*
X15311Y-12465D01*
X15465Y-12311D01*
X15502Y-12219D01*
X15528Y-12281D01*
X15622Y-12308D01*
X15894Y-12035D01*
X15929Y-12000D01*
X16000Y-11929D01*
X16035Y-11894D01*
X16308Y-11622D01*
X16308Y-11762D01*
X16071Y-12000D01*
X16378Y-12308D01*
X16472Y-12281D01*
X16495Y-12215D01*
X16535Y-12311D01*
X16689Y-12465D01*
X16773Y-12500D01*
X16689Y-12535D01*
X16535Y-12689D01*
X16497Y-12780D01*
X16472Y-12719D01*
X16378Y-12692D01*
X16308Y-12762D01*
X16308Y-12622D01*
X16281Y-12528D01*
X16207Y-12502D01*
X16281Y-12472D01*
X16308Y-12378D01*
X16000Y-12071D01*
X15692Y-12378D01*
X15719Y-12472D01*
X15792Y-12497D01*
X15719Y-12528D01*
X15692Y-12622D01*
X16000Y-12929D01*
X16308Y-12622D01*
X16308Y-12762D01*
X16071Y-13000D01*
X16378Y-13308D01*
X16472Y-13281D01*
X16495Y-13215D01*
X16535Y-13311D01*
X16689Y-13465D01*
X16891Y-13549D01*
X17109Y-13549D01*
X17311Y-13465D01*
X17465Y-13311D01*
X17500Y-13226D01*
X17535Y-13311D01*
X17689Y-13465D01*
X17891Y-13549D01*
X18109Y-13549D01*
X18311Y-13465D01*
X18465Y-13311D01*
X18500Y-13226D01*
X18535Y-13311D01*
X18689Y-13465D01*
X18891Y-13549D01*
X19109Y-13549D01*
X19311Y-13465D01*
X19465Y-13311D01*
X19500Y-13226D01*
X19535Y-13311D01*
X19689Y-13465D01*
X19891Y-13549D01*
X20109Y-13549D01*
X20311Y-13465D01*
X20465Y-13311D01*
X20500Y-13226D01*
X20535Y-13311D01*
X20689Y-13465D01*
X20891Y-13549D01*
X21109Y-13549D01*
X21311Y-13465D01*
X21465Y-13311D01*
X21500Y-13226D01*
X21535Y-13311D01*
X21689Y-13465D01*
X21891Y-13549D01*
X22109Y-13549D01*
X22245Y-13492D01*
X22270Y-13530D01*
X22570Y-13830D01*
X22675Y-13900D01*
X22676Y-13900D01*
X22800Y-13925D01*
X26026Y-13925D01*
X25888Y-13982D01*
X25783Y-14087D01*
X25725Y-14225D01*
X25725Y-14265D01*
X25480Y-14510D01*
X18020Y-14510D01*
X17305Y-13795D01*
X17211Y-13732D01*
X17100Y-13710D01*
X16308Y-13710D01*
X16308Y-13378D01*
X16000Y-13071D01*
X15692Y-13378D01*
X15719Y-13472D01*
X15921Y-13543D01*
X16134Y-13532D01*
X16281Y-13472D01*
X16308Y-13378D01*
X16308Y-13710D01*
X14100Y-13710D01*
X13989Y-13732D01*
X13895Y-13795D01*
X12680Y-15010D01*
X11700Y-15010D01*
X11589Y-15032D01*
X11495Y-15095D01*
X11494Y-15095D01*
X11494Y-15096D01*
X11139Y-15451D01*
X10651Y-15451D01*
X10559Y-15489D01*
X10489Y-15559D01*
X10451Y-15650D01*
X10451Y-15749D01*
X10451Y-16349D01*
X10489Y-16441D01*
X10559Y-16511D01*
X10650Y-16549D01*
X10675Y-16549D01*
X10535Y-16689D01*
X10451Y-16891D01*
X10451Y-17109D01*
X10535Y-17311D01*
X10689Y-17465D01*
X10773Y-17500D01*
X10689Y-17535D01*
X10535Y-17689D01*
X10451Y-17891D01*
X10451Y-18109D01*
X10535Y-18311D01*
X10689Y-18465D01*
X10710Y-18473D01*
X10710Y-18526D01*
X10689Y-18535D01*
X10535Y-18689D01*
X10451Y-18891D01*
X10451Y-19109D01*
X10535Y-19311D01*
X10689Y-19465D01*
X10891Y-19549D01*
X11109Y-19549D01*
X11210Y-19507D01*
X11210Y-20201D01*
X10651Y-20201D01*
X10559Y-20239D01*
X10489Y-20309D01*
X10451Y-20400D01*
X10451Y-20499D01*
X10451Y-21099D01*
X10489Y-21191D01*
X10559Y-21261D01*
X10650Y-21299D01*
X10675Y-21299D01*
X10535Y-21439D01*
X10451Y-21641D01*
X10451Y-21859D01*
X10535Y-22061D01*
X10689Y-22215D01*
X10710Y-22223D01*
X10710Y-22276D01*
X10689Y-22285D01*
X10535Y-22439D01*
X10451Y-22641D01*
X10451Y-22859D01*
X10535Y-23061D01*
X10689Y-23215D01*
X10710Y-23223D01*
X10710Y-23276D01*
X10689Y-23285D01*
X10535Y-23439D01*
X10451Y-23641D01*
X10451Y-23859D01*
X10535Y-24061D01*
X10689Y-24215D01*
X10891Y-24299D01*
X11109Y-24299D01*
X11210Y-24257D01*
X11210Y-24951D01*
X10651Y-24951D01*
X10559Y-24989D01*
X10489Y-25059D01*
X10451Y-25150D01*
X10451Y-25249D01*
X10451Y-25849D01*
X10489Y-25941D01*
X10559Y-26011D01*
X10650Y-26049D01*
X10675Y-26049D01*
X10535Y-26189D01*
X10451Y-26391D01*
X10451Y-26609D01*
X10535Y-26811D01*
X10689Y-26965D01*
X10710Y-26973D01*
X10710Y-27026D01*
X10689Y-27035D01*
X10535Y-27189D01*
X10451Y-27391D01*
X10451Y-27609D01*
X10535Y-27811D01*
X10689Y-27965D01*
X10710Y-27973D01*
X10710Y-28026D01*
X10689Y-28035D01*
X10535Y-28189D01*
X10451Y-28391D01*
X10451Y-28609D01*
X10535Y-28811D01*
X10689Y-28965D01*
X10891Y-29049D01*
X11109Y-29049D01*
X11311Y-28965D01*
X11465Y-28811D01*
X11500Y-28726D01*
X11535Y-28811D01*
X11689Y-28965D01*
X11891Y-29049D01*
X12109Y-29049D01*
X12311Y-28965D01*
X12410Y-28866D01*
X12410Y-29980D01*
X11295Y-31095D01*
X11232Y-31189D01*
X11210Y-31300D01*
X11210Y-32000D01*
X11232Y-32111D01*
X11295Y-32205D01*
X11451Y-32361D01*
X11451Y-32639D01*
X11295Y-32795D01*
X11232Y-32889D01*
X11210Y-33000D01*
X11210Y-35500D01*
X11232Y-35611D01*
X11295Y-35705D01*
X11451Y-35861D01*
X11451Y-36349D01*
X11489Y-36441D01*
X11559Y-36511D01*
X11650Y-36549D01*
X11749Y-36549D01*
X12349Y-36549D01*
X12441Y-36511D01*
X12511Y-36441D01*
X12549Y-36350D01*
X12549Y-36325D01*
X12689Y-36465D01*
X12891Y-36549D01*
X13109Y-36549D01*
X13311Y-36465D01*
X13465Y-36311D01*
X13500Y-36226D01*
X13535Y-36311D01*
X13689Y-36465D01*
X13891Y-36549D01*
X14109Y-36549D01*
X14311Y-36465D01*
X14465Y-36311D01*
X14500Y-36226D01*
X14535Y-36311D01*
X14689Y-36465D01*
X14891Y-36549D01*
X15109Y-36549D01*
X15311Y-36465D01*
X15465Y-36311D01*
X15500Y-36226D01*
X15535Y-36311D01*
X15689Y-36465D01*
X15891Y-36549D01*
X16109Y-36549D01*
X16311Y-36465D01*
X16465Y-36311D01*
X16500Y-36226D01*
X16535Y-36311D01*
X16689Y-36465D01*
X16891Y-36549D01*
X17109Y-36549D01*
X17311Y-36465D01*
X17465Y-36311D01*
X17500Y-36226D01*
X17535Y-36311D01*
X17689Y-36465D01*
X17891Y-36549D01*
X18109Y-36549D01*
X18311Y-36465D01*
X18465Y-36311D01*
X18500Y-36226D01*
X18535Y-36311D01*
X18689Y-36465D01*
X18891Y-36549D01*
X19109Y-36549D01*
X19311Y-36465D01*
X19465Y-36311D01*
X19500Y-36226D01*
X19535Y-36311D01*
X19689Y-36465D01*
X19891Y-36549D01*
X20109Y-36549D01*
X20311Y-36465D01*
X20465Y-36311D01*
X20500Y-36226D01*
X20535Y-36311D01*
X20689Y-36465D01*
X20891Y-36549D01*
X21109Y-36549D01*
X21311Y-36465D01*
X21465Y-36311D01*
X21500Y-36226D01*
X21535Y-36311D01*
X21689Y-36465D01*
X21891Y-36549D01*
X22109Y-36549D01*
X22311Y-36465D01*
X22465Y-36311D01*
X22500Y-36226D01*
X22535Y-36311D01*
X22689Y-36465D01*
X22891Y-36549D01*
X23109Y-36549D01*
X23311Y-36465D01*
X23465Y-36311D01*
X23500Y-36226D01*
X23535Y-36311D01*
X23689Y-36465D01*
X23891Y-36549D01*
X24109Y-36549D01*
X24311Y-36465D01*
X24465Y-36311D01*
X24500Y-36226D01*
X24535Y-36311D01*
X24689Y-36465D01*
X24891Y-36549D01*
X25109Y-36549D01*
X25311Y-36465D01*
X25465Y-36311D01*
X25500Y-36226D01*
X25535Y-36311D01*
X25689Y-36465D01*
X25891Y-36549D01*
X26109Y-36549D01*
X26311Y-36465D01*
X26465Y-36311D01*
X26500Y-36226D01*
X26535Y-36311D01*
X26689Y-36465D01*
X26891Y-36549D01*
X27109Y-36549D01*
X27311Y-36465D01*
X27465Y-36311D01*
X27500Y-36226D01*
X27535Y-36311D01*
X27689Y-36465D01*
X27891Y-36549D01*
X28109Y-36549D01*
X28311Y-36465D01*
X28465Y-36311D01*
X28500Y-36226D01*
X28535Y-36311D01*
X28689Y-36465D01*
X28891Y-36549D01*
X29109Y-36549D01*
X29311Y-36465D01*
X29465Y-36311D01*
X29500Y-36226D01*
X29535Y-36311D01*
X29689Y-36465D01*
X29891Y-36549D01*
X30109Y-36549D01*
X30311Y-36465D01*
X30465Y-36311D01*
X30500Y-36226D01*
X30535Y-36311D01*
X30689Y-36465D01*
X30891Y-36549D01*
X31109Y-36549D01*
X31311Y-36465D01*
X31465Y-36311D01*
X31500Y-36226D01*
X31535Y-36311D01*
X31689Y-36465D01*
X31891Y-36549D01*
X32109Y-36549D01*
X32311Y-36465D01*
X32465Y-36311D01*
X32500Y-36226D01*
X32535Y-36311D01*
X32689Y-36465D01*
X32891Y-36549D01*
X33109Y-36549D01*
X33311Y-36465D01*
X33465Y-36311D01*
X33500Y-36226D01*
X33535Y-36311D01*
X33689Y-36465D01*
X33891Y-36549D01*
X34109Y-36549D01*
X34311Y-36465D01*
X34465Y-36311D01*
X34500Y-36226D01*
X34535Y-36311D01*
X34689Y-36465D01*
X34891Y-36549D01*
X35109Y-36549D01*
X35311Y-36465D01*
X35465Y-36311D01*
X35500Y-36226D01*
X35535Y-36311D01*
X35689Y-36465D01*
X35891Y-36549D01*
X36109Y-36549D01*
X36311Y-36465D01*
X36465Y-36311D01*
X36500Y-36226D01*
X36535Y-36311D01*
X36689Y-36465D01*
X36891Y-36549D01*
X37109Y-36549D01*
X37311Y-36465D01*
X37465Y-36311D01*
X37500Y-36226D01*
X37535Y-36311D01*
X37689Y-36465D01*
X37891Y-36549D01*
X38109Y-36549D01*
X38311Y-36465D01*
X38465Y-36311D01*
X38500Y-36226D01*
X38535Y-36311D01*
X38689Y-36465D01*
X38891Y-36549D01*
X39109Y-36549D01*
X39311Y-36465D01*
X39465Y-36311D01*
X39500Y-36226D01*
X39535Y-36311D01*
X39689Y-36465D01*
X39891Y-36549D01*
X40109Y-36549D01*
X40311Y-36465D01*
X40465Y-36311D01*
X40500Y-36226D01*
X40535Y-36311D01*
X40689Y-36465D01*
X40891Y-36549D01*
X41109Y-36549D01*
X41311Y-36465D01*
X41465Y-36311D01*
X41549Y-36109D01*
X41549Y-35891D01*
X41543Y-35876D01*
X41543Y-35079D01*
X41532Y-34866D01*
X41472Y-34719D01*
X41378Y-34692D01*
X41308Y-34762D01*
X41308Y-34622D01*
X41281Y-34528D01*
X41079Y-34457D01*
X40866Y-34468D01*
X40719Y-34528D01*
X40692Y-34622D01*
X41000Y-34929D01*
X41308Y-34622D01*
X41308Y-34762D01*
X41071Y-35000D01*
X41378Y-35308D01*
X41472Y-35281D01*
X41543Y-35079D01*
X41543Y-35876D01*
X41465Y-35689D01*
X41311Y-35535D01*
X41219Y-35497D01*
X41281Y-35472D01*
X41308Y-35378D01*
X41000Y-35071D01*
X40692Y-35378D01*
X40719Y-35472D01*
X40784Y-35495D01*
X40689Y-35535D01*
X40535Y-35689D01*
X40500Y-35773D01*
X40465Y-35689D01*
X40311Y-35535D01*
X40226Y-35500D01*
X40311Y-35465D01*
X40465Y-35311D01*
X40502Y-35219D01*
X40528Y-35281D01*
X40622Y-35308D01*
X40929Y-35000D01*
X40622Y-34692D01*
X40528Y-34719D01*
X40504Y-34784D01*
X40465Y-34689D01*
X40311Y-34535D01*
X40109Y-34451D01*
X39891Y-34451D01*
X39869Y-34459D01*
X39790Y-34380D01*
X39790Y-33007D01*
X39891Y-33049D01*
X40109Y-33049D01*
X40311Y-32965D01*
X40465Y-32811D01*
X40500Y-32726D01*
X40535Y-32811D01*
X40689Y-32965D01*
X40891Y-33049D01*
X41109Y-33049D01*
X41311Y-32965D01*
X41465Y-32811D01*
X41549Y-32609D01*
X41549Y-32391D01*
X41543Y-32376D01*
X41543Y-31579D01*
X41532Y-31366D01*
X41472Y-31219D01*
X41378Y-31192D01*
X41308Y-31262D01*
X41308Y-31122D01*
X41281Y-31028D01*
X41079Y-30957D01*
X40866Y-30968D01*
X40719Y-31028D01*
X40692Y-31122D01*
X41000Y-31429D01*
X41308Y-31122D01*
X41308Y-31262D01*
X41071Y-31500D01*
X41378Y-31808D01*
X41472Y-31781D01*
X41543Y-31579D01*
X41543Y-32376D01*
X41465Y-32189D01*
X41311Y-32035D01*
X41219Y-31997D01*
X41281Y-31972D01*
X41308Y-31878D01*
X41000Y-31571D01*
X40692Y-31878D01*
X40719Y-31972D01*
X40784Y-31995D01*
X40689Y-32035D01*
X40535Y-32189D01*
X40500Y-32273D01*
X40465Y-32189D01*
X40311Y-32035D01*
X40226Y-32000D01*
X40311Y-31965D01*
X40465Y-31811D01*
X40502Y-31719D01*
X40528Y-31781D01*
X40622Y-31808D01*
X40929Y-31500D01*
X40622Y-31192D01*
X40528Y-31219D01*
X40504Y-31284D01*
X40465Y-31189D01*
X40311Y-31035D01*
X40109Y-30951D01*
X39891Y-30951D01*
X39689Y-31035D01*
X39535Y-31189D01*
X39500Y-31273D01*
X39465Y-31189D01*
X39311Y-31035D01*
X39109Y-30951D01*
X38891Y-30951D01*
X38689Y-31035D01*
X38535Y-31189D01*
X38500Y-31273D01*
X38465Y-31189D01*
X38311Y-31035D01*
X38109Y-30951D01*
X37891Y-30951D01*
X37689Y-31035D01*
X37535Y-31189D01*
X37500Y-31273D01*
X37465Y-31189D01*
X37311Y-31035D01*
X37109Y-30951D01*
X36891Y-30951D01*
X36689Y-31035D01*
X36535Y-31189D01*
X36500Y-31273D01*
X36465Y-31189D01*
X36311Y-31035D01*
X36109Y-30951D01*
X35891Y-30951D01*
X35689Y-31035D01*
X35535Y-31189D01*
X35500Y-31273D01*
X35465Y-31189D01*
X35311Y-31035D01*
X35109Y-30951D01*
X34891Y-30951D01*
X34725Y-31020D01*
X34725Y-28112D01*
X34663Y-28050D01*
X34150Y-28050D01*
X34150Y-28288D01*
X34212Y-28350D01*
X34426Y-28349D01*
X34525Y-28349D01*
X34616Y-28311D01*
X34686Y-28241D01*
X34724Y-28149D01*
X34725Y-28112D01*
X34725Y-31020D01*
X34689Y-31035D01*
X34667Y-31056D01*
X34050Y-30439D01*
X34050Y-28288D01*
X34050Y-28050D01*
X33537Y-28050D01*
X33475Y-28112D01*
X33476Y-28149D01*
X33514Y-28241D01*
X33584Y-28311D01*
X33675Y-28349D01*
X33774Y-28349D01*
X33988Y-28350D01*
X34050Y-28288D01*
X34050Y-30439D01*
X33805Y-30195D01*
X33711Y-30132D01*
X33600Y-30110D01*
X23540Y-30110D01*
X23513Y-30083D01*
X23375Y-30025D01*
X23226Y-30025D01*
X23088Y-30082D01*
X23027Y-30142D01*
X23011Y-30132D01*
X22900Y-30110D01*
X21375Y-30110D01*
X21375Y-30026D01*
X21318Y-29888D01*
X21213Y-29783D01*
X21084Y-29729D01*
X21112Y-29718D01*
X21140Y-29690D01*
X21400Y-29690D01*
X21511Y-29668D01*
X21605Y-29605D01*
X23415Y-27795D01*
X23433Y-27837D01*
X23503Y-27907D01*
X23594Y-27945D01*
X23693Y-27945D01*
X24026Y-27945D01*
X24037Y-27947D01*
X24312Y-27947D01*
X24476Y-28111D01*
X24476Y-28499D01*
X24514Y-28591D01*
X24584Y-28661D01*
X24675Y-28699D01*
X24774Y-28699D01*
X25324Y-28699D01*
X25416Y-28661D01*
X25450Y-28627D01*
X25484Y-28661D01*
X25575Y-28699D01*
X25674Y-28699D01*
X26224Y-28699D01*
X26316Y-28661D01*
X26386Y-28591D01*
X26424Y-28500D01*
X26424Y-28401D01*
X26424Y-28370D01*
X26647Y-28148D01*
X26647Y-28147D01*
X26723Y-28034D01*
X26749Y-27900D01*
X26750Y-27900D01*
X26750Y-25325D01*
X26749Y-25324D01*
X26723Y-25191D01*
X26647Y-25078D01*
X26647Y-25077D01*
X26081Y-24512D01*
X26747Y-23848D01*
X26747Y-23847D01*
X26823Y-23734D01*
X26849Y-23601D01*
X26850Y-23600D01*
X26850Y-22700D01*
X26849Y-22699D01*
X26823Y-22566D01*
X26747Y-22453D01*
X26747Y-22452D01*
X26024Y-21729D01*
X26024Y-21601D01*
X25986Y-21509D01*
X25916Y-21439D01*
X25850Y-21411D01*
X25850Y-21134D01*
X25875Y-21075D01*
X25875Y-20926D01*
X25818Y-20788D01*
X25713Y-20683D01*
X25575Y-20625D01*
X25426Y-20625D01*
X25288Y-20682D01*
X25183Y-20787D01*
X25125Y-20925D01*
X25125Y-21074D01*
X25150Y-21134D01*
X25150Y-21411D01*
X25084Y-21439D01*
X25014Y-21509D01*
X24976Y-21600D01*
X24976Y-21699D01*
X24976Y-22149D01*
X25014Y-22241D01*
X25073Y-22300D01*
X25014Y-22359D01*
X24976Y-22450D01*
X24976Y-22549D01*
X24976Y-22643D01*
X24676Y-22643D01*
X24674Y-22637D01*
X24679Y-22628D01*
X24679Y-22529D01*
X24679Y-22451D01*
X24675Y-22441D01*
X24679Y-22432D01*
X24679Y-22333D01*
X24679Y-22255D01*
X24641Y-22163D01*
X24571Y-22093D01*
X24480Y-22055D01*
X24381Y-22055D01*
X24047Y-22055D01*
X24037Y-22053D01*
X21757Y-22053D01*
X23756Y-20054D01*
X24037Y-20054D01*
X24047Y-20052D01*
X24479Y-20052D01*
X24571Y-20014D01*
X24641Y-19944D01*
X24679Y-19853D01*
X24679Y-19754D01*
X24679Y-19676D01*
X24674Y-19665D01*
X24679Y-19656D01*
X24679Y-19557D01*
X24679Y-19479D01*
X24674Y-19468D01*
X24679Y-19459D01*
X24679Y-19360D01*
X24679Y-19282D01*
X24674Y-19271D01*
X24679Y-19262D01*
X24679Y-19163D01*
X24679Y-19085D01*
X24674Y-19074D01*
X24679Y-19065D01*
X24679Y-18966D01*
X24679Y-18888D01*
X24675Y-18878D01*
X24679Y-18869D01*
X24679Y-18770D01*
X24679Y-18692D01*
X24674Y-18681D01*
X24679Y-18672D01*
X24679Y-18573D01*
X24679Y-18556D01*
X24684Y-18561D01*
X24775Y-18599D01*
X24874Y-18599D01*
X25424Y-18599D01*
X25503Y-18566D01*
X25525Y-18575D01*
X25674Y-18575D01*
X25695Y-18565D01*
X25775Y-18599D01*
X25874Y-18599D01*
X26421Y-18599D01*
X26421Y-18671D01*
X26425Y-18681D01*
X26421Y-18691D01*
X26421Y-18790D01*
X26421Y-18868D01*
X26424Y-18877D01*
X26421Y-18887D01*
X26421Y-18986D01*
X26421Y-19064D01*
X26425Y-19074D01*
X26421Y-19084D01*
X26421Y-19183D01*
X26421Y-19261D01*
X26425Y-19271D01*
X26421Y-19281D01*
X26421Y-19380D01*
X26421Y-19458D01*
X26425Y-19468D01*
X26421Y-19478D01*
X26421Y-19577D01*
X26421Y-19655D01*
X26425Y-19665D01*
X26421Y-19675D01*
X26421Y-19774D01*
X26421Y-19852D01*
X26459Y-19944D01*
X26529Y-20014D01*
X26620Y-20052D01*
X26719Y-20052D01*
X27505Y-20052D01*
X27597Y-20014D01*
X27667Y-19944D01*
X27705Y-19853D01*
X27705Y-19754D01*
X27705Y-19676D01*
X27700Y-19665D01*
X27705Y-19656D01*
X27705Y-19557D01*
X27705Y-19479D01*
X27700Y-19468D01*
X27702Y-19465D01*
X27725Y-19475D01*
X27874Y-19475D01*
X28012Y-19418D01*
X28117Y-19313D01*
X28132Y-19275D01*
X28174Y-19275D01*
X28312Y-19218D01*
X28417Y-19113D01*
X28432Y-19075D01*
X28474Y-19075D01*
X28612Y-19018D01*
X28717Y-18913D01*
X28732Y-18875D01*
X28774Y-18875D01*
X28912Y-18818D01*
X29017Y-18713D01*
X29075Y-18575D01*
X29075Y-18426D01*
X29018Y-18288D01*
X28913Y-18183D01*
X28775Y-18125D01*
X28707Y-18125D01*
X28697Y-18118D01*
X28586Y-18096D01*
X27702Y-18096D01*
X27700Y-18090D01*
X27705Y-18081D01*
X27705Y-17982D01*
X27705Y-17904D01*
X27700Y-17893D01*
X27705Y-17884D01*
X27705Y-17785D01*
X27705Y-17707D01*
X27700Y-17696D01*
X27705Y-17687D01*
X27705Y-17588D01*
X27705Y-17510D01*
X27700Y-17500D01*
X27705Y-17490D01*
X27706Y-17483D01*
X27685Y-17462D01*
X27667Y-17418D01*
X27650Y-17401D01*
X27667Y-17385D01*
X27684Y-17342D01*
X27706Y-17321D01*
X27705Y-17314D01*
X27700Y-17303D01*
X27705Y-17294D01*
X27705Y-17195D01*
X27705Y-17117D01*
X27700Y-17106D01*
X27705Y-17097D01*
X27705Y-17066D01*
X27725Y-17075D01*
X27874Y-17075D01*
X28012Y-17018D01*
X28117Y-16913D01*
X28132Y-16875D01*
X28174Y-16875D01*
X28312Y-16818D01*
X28417Y-16713D01*
X28432Y-16675D01*
X28474Y-16675D01*
X28612Y-16618D01*
X28717Y-16513D01*
X28732Y-16475D01*
X28774Y-16475D01*
X28912Y-16418D01*
X28960Y-16370D01*
X31377Y-18787D01*
X31378Y-18788D01*
X31471Y-18850D01*
X31472Y-18851D01*
X31582Y-18872D01*
X31583Y-18873D01*
X34297Y-18873D01*
X34298Y-18877D01*
X34295Y-18887D01*
X34295Y-18986D01*
X34295Y-19064D01*
X34299Y-19074D01*
X34295Y-19084D01*
X34295Y-19183D01*
X34295Y-19261D01*
X34299Y-19271D01*
X34295Y-19281D01*
X34295Y-19380D01*
X34295Y-19458D01*
X34299Y-19468D01*
X34295Y-19478D01*
X34295Y-19577D01*
X34295Y-19655D01*
X34299Y-19665D01*
X34295Y-19675D01*
X34295Y-19774D01*
X34295Y-19852D01*
X34333Y-19944D01*
X34403Y-20014D01*
X34494Y-20052D01*
X34593Y-20052D01*
X35379Y-20052D01*
X35471Y-20014D01*
X35478Y-20006D01*
X35514Y-20091D01*
X35584Y-20161D01*
X35641Y-20185D01*
X35625Y-20225D01*
X35625Y-20374D01*
X35682Y-20512D01*
X35787Y-20617D01*
X35925Y-20675D01*
X36074Y-20675D01*
X36212Y-20618D01*
X36310Y-20520D01*
X36310Y-20779D01*
X35629Y-21459D01*
X35609Y-21451D01*
X35391Y-21451D01*
X35189Y-21535D01*
X35035Y-21689D01*
X34951Y-21891D01*
X34951Y-22109D01*
X35035Y-22311D01*
X35189Y-22465D01*
X35391Y-22549D01*
X35609Y-22549D01*
X35811Y-22465D01*
X35951Y-22325D01*
X35951Y-22349D01*
X35989Y-22441D01*
X36059Y-22511D01*
X36150Y-22549D01*
X36249Y-22549D01*
X36849Y-22549D01*
X36941Y-22511D01*
X37011Y-22441D01*
X37049Y-22350D01*
X37049Y-22251D01*
X37049Y-21839D01*
X37068Y-21811D01*
X37090Y-21700D01*
X37090Y-19862D01*
X37159Y-19931D01*
X37250Y-19969D01*
X37349Y-19969D01*
X37975Y-19969D01*
X37975Y-20701D01*
X37901Y-20701D01*
X37809Y-20739D01*
X37739Y-20809D01*
X37701Y-20900D01*
X37701Y-20999D01*
X37701Y-22099D01*
X37739Y-22191D01*
X37809Y-22261D01*
X37900Y-22299D01*
X37935Y-22299D01*
X37925Y-22325D01*
X37925Y-22474D01*
X37975Y-22595D01*
X37975Y-22725D01*
X38000Y-22849D01*
X38070Y-22955D01*
X38098Y-22982D01*
X38078Y-23003D01*
X38002Y-23116D01*
X37975Y-23250D01*
X37975Y-23507D01*
X37959Y-23514D01*
X37889Y-23584D01*
X37851Y-23675D01*
X37851Y-23774D01*
X37851Y-24324D01*
X37871Y-24374D01*
X37851Y-24425D01*
X37851Y-24524D01*
X37851Y-25074D01*
X37871Y-25124D01*
X37851Y-25175D01*
X37851Y-25274D01*
X37851Y-25824D01*
X37871Y-25874D01*
X37851Y-25925D01*
X37851Y-26024D01*
X37851Y-26574D01*
X37871Y-26624D01*
X37851Y-26675D01*
X37851Y-26774D01*
X37851Y-27324D01*
X37871Y-27374D01*
X37851Y-27425D01*
X37851Y-27524D01*
X37851Y-28074D01*
X37871Y-28124D01*
X37851Y-28175D01*
X37851Y-28274D01*
X37851Y-28341D01*
X37790Y-28280D01*
X37790Y-27700D01*
X37789Y-27699D01*
X37768Y-27589D01*
X37767Y-27588D01*
X37705Y-27495D01*
X37704Y-27494D01*
X37505Y-27295D01*
X37499Y-27291D01*
X37486Y-27259D01*
X37477Y-27250D01*
X37486Y-27241D01*
X37524Y-27150D01*
X37524Y-27051D01*
X37524Y-26854D01*
X37612Y-26818D01*
X37717Y-26713D01*
X37775Y-26575D01*
X37775Y-26426D01*
X37718Y-26288D01*
X37613Y-26183D01*
X37475Y-26125D01*
X37326Y-26125D01*
X37265Y-26150D01*
X37044Y-26150D01*
X36399Y-25504D01*
X36399Y-25176D01*
X36361Y-25084D01*
X36291Y-25014D01*
X36275Y-25007D01*
X36275Y-24992D01*
X36291Y-24986D01*
X36361Y-24916D01*
X36399Y-24825D01*
X36399Y-24726D01*
X36399Y-24176D01*
X36361Y-24084D01*
X36291Y-24014D01*
X36200Y-23976D01*
X36101Y-23976D01*
X35651Y-23976D01*
X35559Y-24014D01*
X35500Y-24073D01*
X35441Y-24014D01*
X35349Y-23976D01*
X35187Y-23975D01*
X35125Y-24037D01*
X35125Y-24400D01*
X35125Y-24450D01*
X35125Y-24550D01*
X35025Y-24550D01*
X35025Y-24450D01*
X35025Y-24037D01*
X34963Y-23975D01*
X34801Y-23976D01*
X34709Y-24014D01*
X34639Y-24084D01*
X34601Y-24175D01*
X34601Y-24274D01*
X34600Y-24388D01*
X34662Y-24450D01*
X35025Y-24450D01*
X35025Y-24550D01*
X34975Y-24550D01*
X34662Y-24550D01*
X34600Y-24612D01*
X34601Y-24726D01*
X34601Y-24825D01*
X34639Y-24916D01*
X34709Y-24986D01*
X34742Y-25000D01*
X34709Y-25014D01*
X34639Y-25084D01*
X34601Y-25175D01*
X34601Y-25210D01*
X34400Y-25210D01*
X34289Y-25232D01*
X34257Y-25253D01*
X34194Y-25295D01*
X33295Y-26195D01*
X33232Y-26289D01*
X33210Y-26400D01*
X33210Y-27400D01*
X33232Y-27511D01*
X33295Y-27605D01*
X33395Y-27705D01*
X33489Y-27768D01*
X33508Y-27771D01*
X33476Y-27851D01*
X33475Y-27888D01*
X33537Y-27950D01*
X34000Y-27950D01*
X34050Y-27950D01*
X34150Y-27950D01*
X34200Y-27950D01*
X34663Y-27950D01*
X34725Y-27888D01*
X34724Y-27851D01*
X34686Y-27759D01*
X34677Y-27750D01*
X34686Y-27741D01*
X34724Y-27650D01*
X34724Y-27551D01*
X34724Y-27351D01*
X34698Y-27290D01*
X34880Y-27290D01*
X36095Y-28505D01*
X36189Y-28568D01*
X36225Y-28575D01*
X36225Y-28674D01*
X36282Y-28812D01*
X36387Y-28917D01*
X36525Y-28975D01*
X36674Y-28975D01*
X36738Y-28948D01*
X38194Y-30405D01*
X38195Y-30405D01*
X38257Y-30446D01*
X38288Y-30467D01*
X38289Y-30468D01*
X38399Y-30489D01*
X38400Y-30490D01*
X41375Y-30490D01*
X41375Y-30574D01*
X41432Y-30712D01*
X41537Y-30817D01*
X41675Y-30875D01*
X41824Y-30875D01*
X41962Y-30818D01*
X42067Y-30713D01*
X42125Y-30575D01*
X42125Y-30535D01*
X42710Y-31120D01*
X42710Y-31700D01*
X42732Y-31811D01*
X42795Y-31905D01*
X43057Y-32167D01*
X43035Y-32189D01*
X42951Y-32391D01*
X42951Y-32609D01*
X43035Y-32811D01*
X43189Y-32965D01*
X43391Y-33049D01*
X43609Y-33049D01*
X43710Y-33007D01*
X43710Y-33451D01*
X43151Y-33451D01*
X43059Y-33489D01*
X42989Y-33559D01*
X42951Y-33650D01*
X42951Y-33749D01*
X42951Y-34349D01*
X42989Y-34441D01*
X43059Y-34511D01*
X43150Y-34549D01*
X43175Y-34549D01*
X43035Y-34689D01*
X43015Y-34735D01*
X42963Y-34683D01*
X42875Y-34646D01*
X42875Y-34075D01*
X42875Y-33926D01*
X42818Y-33788D01*
X42713Y-33683D01*
X42625Y-33646D01*
X42625Y-32575D01*
X42625Y-32426D01*
X42568Y-32288D01*
X42463Y-32183D01*
X42375Y-32146D01*
X42375Y-31575D01*
X42375Y-31426D01*
X42318Y-31288D01*
X42213Y-31183D01*
X42075Y-31125D01*
X41926Y-31125D01*
X41788Y-31182D01*
X41683Y-31287D01*
X41625Y-31425D01*
X41625Y-31574D01*
X41682Y-31712D01*
X41787Y-31817D01*
X41925Y-31875D01*
X42074Y-31875D01*
X42212Y-31818D01*
X42317Y-31713D01*
X42375Y-31575D01*
X42375Y-32146D01*
X42325Y-32125D01*
X42176Y-32125D01*
X42038Y-32182D01*
X41933Y-32287D01*
X41875Y-32425D01*
X41875Y-32574D01*
X41932Y-32712D01*
X42037Y-32817D01*
X42175Y-32875D01*
X42324Y-32875D01*
X42462Y-32818D01*
X42567Y-32713D01*
X42625Y-32575D01*
X42625Y-33646D01*
X42575Y-33625D01*
X42426Y-33625D01*
X42288Y-33682D01*
X42183Y-33787D01*
X42125Y-33925D01*
X42125Y-34074D01*
X42182Y-34212D01*
X42287Y-34317D01*
X42425Y-34375D01*
X42574Y-34375D01*
X42712Y-34318D01*
X42817Y-34213D01*
X42875Y-34075D01*
X42875Y-34646D01*
X42825Y-34625D01*
X42676Y-34625D01*
X42538Y-34682D01*
X42433Y-34787D01*
X42375Y-34925D01*
X42375Y-35074D01*
X42432Y-35212D01*
X42537Y-35317D01*
X42675Y-35375D01*
X42824Y-35375D01*
X42962Y-35318D01*
X43015Y-35264D01*
X43035Y-35311D01*
X43189Y-35465D01*
X43273Y-35500D01*
X43189Y-35535D01*
X43035Y-35689D01*
X42951Y-35891D01*
X42951Y-36109D01*
X43035Y-36311D01*
X43189Y-36465D01*
X43273Y-36500D01*
X43189Y-36535D01*
X43035Y-36689D01*
X42951Y-36891D01*
X42951Y-37109D01*
X43035Y-37311D01*
X43189Y-37465D01*
X43391Y-37549D01*
X43609Y-37549D01*
X43811Y-37465D01*
X43965Y-37311D01*
X44000Y-37226D01*
X44035Y-37311D01*
X44189Y-37465D01*
X44391Y-37549D01*
X44609Y-37549D01*
X44811Y-37465D01*
X44965Y-37311D01*
X44999Y-37229D01*
X45049Y-37109D01*
X45049Y-36891D01*
X44999Y-36770D01*
X44965Y-36689D01*
X44811Y-36535D01*
X44726Y-36500D01*
X44811Y-36465D01*
X44965Y-36311D01*
X44999Y-36229D01*
X45049Y-36109D01*
X45049Y-35891D01*
X45040Y-35869D01*
X45175Y-35735D01*
X45175Y-37675D01*
X45175Y-37675D01*
G37*
G54D28*
X45175Y-37675D02*
X44999Y-37675D01*
X10325Y-37675D01*
X10325Y-06825D01*
X45175Y-06825D01*
X45175Y-09765D01*
X45040Y-09630D01*
X45049Y-09609D01*
X45049Y-09391D01*
X44965Y-09189D01*
X44811Y-09035D01*
X44726Y-09000D01*
X44811Y-08965D01*
X44965Y-08811D01*
X45049Y-08609D01*
X45049Y-08391D01*
X44965Y-08189D01*
X44811Y-08035D01*
X44726Y-08000D01*
X44811Y-07965D01*
X44965Y-07811D01*
X45049Y-07609D01*
X45049Y-07391D01*
X44965Y-07189D01*
X44811Y-07035D01*
X44609Y-06951D01*
X44391Y-06951D01*
X44189Y-07035D01*
X44049Y-07175D01*
X44049Y-07151D01*
X44011Y-07059D01*
X43941Y-06989D01*
X43850Y-06951D01*
X43751Y-06951D01*
X43151Y-06951D01*
X43059Y-06989D01*
X42989Y-07059D01*
X42951Y-07150D01*
X42951Y-07249D01*
X42951Y-07849D01*
X42989Y-07941D01*
X43059Y-08011D01*
X43150Y-08049D01*
X43175Y-08049D01*
X43035Y-08189D01*
X42951Y-08391D01*
X42951Y-08541D01*
X42005Y-07595D01*
X41911Y-07532D01*
X41800Y-07510D01*
X38700Y-07510D01*
X38589Y-07532D01*
X38495Y-07595D01*
X38494Y-07595D01*
X38494Y-07596D01*
X38130Y-07959D01*
X38109Y-07951D01*
X37891Y-07951D01*
X37689Y-08035D01*
X37535Y-08189D01*
X37500Y-08273D01*
X37465Y-08189D01*
X37311Y-08035D01*
X37109Y-07951D01*
X36891Y-07951D01*
X36689Y-08035D01*
X36535Y-08189D01*
X36500Y-08273D01*
X36465Y-08189D01*
X36311Y-08035D01*
X36109Y-07951D01*
X35891Y-07951D01*
X35689Y-08035D01*
X35535Y-08189D01*
X35500Y-08273D01*
X35465Y-08189D01*
X35311Y-08035D01*
X35109Y-07951D01*
X34891Y-07951D01*
X34689Y-08035D01*
X34535Y-08189D01*
X34500Y-08273D01*
X34465Y-08189D01*
X34311Y-08035D01*
X34109Y-07951D01*
X33891Y-07951D01*
X33689Y-08035D01*
X33535Y-08189D01*
X33500Y-08273D01*
X33465Y-08189D01*
X33311Y-08035D01*
X33109Y-07951D01*
X32891Y-07951D01*
X32689Y-08035D01*
X32535Y-08189D01*
X32500Y-08273D01*
X32465Y-08189D01*
X32311Y-08035D01*
X32109Y-07951D01*
X31891Y-07951D01*
X31689Y-08035D01*
X31535Y-08189D01*
X31500Y-08273D01*
X31465Y-08189D01*
X31311Y-08035D01*
X31109Y-07951D01*
X30891Y-07951D01*
X30689Y-08035D01*
X30535Y-08189D01*
X30500Y-08273D01*
X30465Y-08189D01*
X30311Y-08035D01*
X30109Y-07951D01*
X29891Y-07951D01*
X29689Y-08035D01*
X29535Y-08189D01*
X29500Y-08273D01*
X29465Y-08189D01*
X29311Y-08035D01*
X29109Y-07951D01*
X28891Y-07951D01*
X28689Y-08035D01*
X28535Y-08189D01*
X28500Y-08273D01*
X28465Y-08189D01*
X28311Y-08035D01*
X28109Y-07951D01*
X27891Y-07951D01*
X27689Y-08035D01*
X27535Y-08189D01*
X27500Y-08273D01*
X27465Y-08189D01*
X27311Y-08035D01*
X27109Y-07951D01*
X26891Y-07951D01*
X26689Y-08035D01*
X26535Y-08189D01*
X26500Y-08273D01*
X26465Y-08189D01*
X26311Y-08035D01*
X26109Y-07951D01*
X25891Y-07951D01*
X25689Y-08035D01*
X25535Y-08189D01*
X25500Y-08273D01*
X25465Y-08189D01*
X25311Y-08035D01*
X25109Y-07951D01*
X24891Y-07951D01*
X24689Y-08035D01*
X24535Y-08189D01*
X24500Y-08273D01*
X24465Y-08189D01*
X24311Y-08035D01*
X24109Y-07951D01*
X23891Y-07951D01*
X23689Y-08035D01*
X23535Y-08189D01*
X23500Y-08273D01*
X23465Y-08189D01*
X23311Y-08035D01*
X23109Y-07951D01*
X22891Y-07951D01*
X22689Y-08035D01*
X22535Y-08189D01*
X22500Y-08273D01*
X22465Y-08189D01*
X22311Y-08035D01*
X22109Y-07951D01*
X21891Y-07951D01*
X21689Y-08035D01*
X21535Y-08189D01*
X21500Y-08273D01*
X21465Y-08189D01*
X21311Y-08035D01*
X21109Y-07951D01*
X20891Y-07951D01*
X20689Y-08035D01*
X20535Y-08189D01*
X20500Y-08273D01*
X20465Y-08189D01*
X20311Y-08035D01*
X20109Y-07951D01*
X19891Y-07951D01*
X19689Y-08035D01*
X19535Y-08189D01*
X19500Y-08273D01*
X19465Y-08189D01*
X19311Y-08035D01*
X19109Y-07951D01*
X18891Y-07951D01*
X18689Y-08035D01*
X18535Y-08189D01*
X18500Y-08273D01*
X18465Y-08189D01*
X18311Y-08035D01*
X18109Y-07951D01*
X17891Y-07951D01*
X17689Y-08035D01*
X17535Y-08189D01*
X17500Y-08273D01*
X17465Y-08189D01*
X17311Y-08035D01*
X17109Y-07951D01*
X16891Y-07951D01*
X16689Y-08035D01*
X16535Y-08189D01*
X16497Y-08280D01*
X16472Y-08219D01*
X16378Y-08192D01*
X16308Y-08262D01*
X16308Y-08122D01*
X16281Y-08028D01*
X16079Y-07957D01*
X15866Y-07968D01*
X15719Y-08028D01*
X15692Y-08122D01*
X16000Y-08429D01*
X16308Y-08122D01*
X16308Y-08262D01*
X16071Y-08500D01*
X16378Y-08808D01*
X16472Y-08781D01*
X16495Y-08715D01*
X16535Y-08811D01*
X16689Y-08965D01*
X16773Y-09000D01*
X16689Y-09035D01*
X16535Y-09189D01*
X16497Y-09280D01*
X16472Y-09219D01*
X16378Y-09192D01*
X16071Y-09500D01*
X16378Y-09808D01*
X16472Y-09781D01*
X16495Y-09715D01*
X16535Y-09811D01*
X16689Y-09965D01*
X16891Y-10049D01*
X17109Y-10049D01*
X17210Y-10007D01*
X17210Y-11380D01*
X17130Y-11459D01*
X17109Y-11451D01*
X16891Y-11451D01*
X16689Y-11535D01*
X16535Y-11689D01*
X16497Y-11780D01*
X16472Y-11719D01*
X16378Y-11692D01*
X16308Y-11762D01*
X16308Y-11622D01*
X16281Y-11528D01*
X16079Y-11457D01*
X15866Y-11468D01*
X15790Y-11499D01*
X15790Y-09996D01*
X15921Y-10043D01*
X16134Y-10032D01*
X16281Y-09972D01*
X16308Y-09878D01*
X16035Y-09606D01*
X16000Y-09571D01*
X15929Y-09500D01*
X16000Y-09429D01*
X16035Y-09394D01*
X16308Y-09122D01*
X16281Y-09028D01*
X16207Y-09002D01*
X16281Y-08972D01*
X16308Y-08878D01*
X16035Y-08606D01*
X16000Y-08571D01*
X15929Y-08500D01*
X15894Y-08465D01*
X15622Y-08192D01*
X15528Y-08219D01*
X15504Y-08284D01*
X15465Y-08189D01*
X15311Y-08035D01*
X15109Y-07951D01*
X14891Y-07951D01*
X14689Y-08035D01*
X14535Y-08189D01*
X14500Y-08273D01*
X14465Y-08189D01*
X14311Y-08035D01*
X14109Y-07951D01*
X13891Y-07951D01*
X13689Y-08035D01*
X13535Y-08189D01*
X13500Y-08273D01*
X13465Y-08189D01*
X13311Y-08035D01*
X13109Y-07951D01*
X12891Y-07951D01*
X12689Y-08035D01*
X12535Y-08189D01*
X12500Y-08273D01*
X12465Y-08189D01*
X12311Y-08035D01*
X12109Y-07951D01*
X11891Y-07951D01*
X11689Y-08035D01*
X11535Y-08189D01*
X11451Y-08391D01*
X11451Y-08609D01*
X11535Y-08811D01*
X11689Y-08965D01*
X11773Y-09000D01*
X11689Y-09035D01*
X11535Y-09189D01*
X11451Y-09391D01*
X11451Y-09609D01*
X11535Y-09811D01*
X11689Y-09965D01*
X11891Y-10049D01*
X12109Y-10049D01*
X12210Y-10007D01*
X12210Y-11380D01*
X12130Y-11459D01*
X12109Y-11451D01*
X11891Y-11451D01*
X11689Y-11535D01*
X11535Y-11689D01*
X11451Y-11891D01*
X11451Y-12109D01*
X11535Y-12311D01*
X11689Y-12465D01*
X11773Y-12500D01*
X11689Y-12535D01*
X11535Y-12689D01*
X11451Y-12891D01*
X11451Y-13109D01*
X11535Y-13311D01*
X11689Y-13465D01*
X11891Y-13549D01*
X12109Y-13549D01*
X12311Y-13465D01*
X12465Y-13311D01*
X12500Y-13226D01*
X12535Y-13311D01*
X12689Y-13465D01*
X12891Y-13549D01*
X13109Y-13549D01*
X13311Y-13465D01*
X13465Y-13311D01*
X13500Y-13226D01*
X13535Y-13311D01*
X13689Y-13465D01*
X13891Y-13549D01*
X14109Y-13549D01*
X14311Y-13465D01*
X14465Y-13311D01*
X14500Y-13226D01*
X14535Y-13311D01*
X14689Y-13465D01*
X14891Y-13549D01*
X15109Y-13549D01*
X15311Y-13465D01*
X15465Y-13311D01*
X15502Y-13219D01*
X15528Y-13281D01*
X15622Y-13308D01*
X15929Y-13000D01*
X15622Y-12692D01*
X15528Y-12719D01*
X15504Y-12784D01*
X15465Y-12689D01*
X15311Y-12535D01*
X15226Y-12500D01*
X15311Y-12465D01*
X15465Y-12311D01*
X15502Y-12219D01*
X15528Y-12281D01*
X15622Y-12308D01*
X15894Y-12035D01*
X15929Y-12000D01*
X16000Y-11929D01*
X16035Y-11894D01*
X16308Y-11622D01*
X16308Y-11762D01*
X16071Y-12000D01*
X16378Y-12308D01*
X16472Y-12281D01*
X16495Y-12215D01*
X16535Y-12311D01*
X16689Y-12465D01*
X16773Y-12500D01*
X16689Y-12535D01*
X16535Y-12689D01*
X16497Y-12780D01*
X16472Y-12719D01*
X16378Y-12692D01*
X16308Y-12762D01*
X16308Y-12622D01*
X16281Y-12528D01*
X16207Y-12502D01*
X16281Y-12472D01*
X16308Y-12378D01*
X16000Y-12071D01*
X15692Y-12378D01*
X15719Y-12472D01*
X15792Y-12497D01*
X15719Y-12528D01*
X15692Y-12622D01*
X16000Y-12929D01*
X16308Y-12622D01*
X16308Y-12762D01*
X16071Y-13000D01*
X16378Y-13308D01*
X16472Y-13281D01*
X16495Y-13215D01*
X16535Y-13311D01*
X16689Y-13465D01*
X16891Y-13549D01*
X17109Y-13549D01*
X17311Y-13465D01*
X17465Y-13311D01*
X17500Y-13226D01*
X17535Y-13311D01*
X17689Y-13465D01*
X17891Y-13549D01*
X18109Y-13549D01*
X18311Y-13465D01*
X18465Y-13311D01*
X18500Y-13226D01*
X18535Y-13311D01*
X18689Y-13465D01*
X18891Y-13549D01*
X19109Y-13549D01*
X19311Y-13465D01*
X19465Y-13311D01*
X19500Y-13226D01*
X19535Y-13311D01*
X19689Y-13465D01*
X19891Y-13549D01*
X20109Y-13549D01*
X20311Y-13465D01*
X20465Y-13311D01*
X20500Y-13226D01*
X20535Y-13311D01*
X20689Y-13465D01*
X20891Y-13549D01*
X21109Y-13549D01*
X21311Y-13465D01*
X21465Y-13311D01*
X21500Y-13226D01*
X21535Y-13311D01*
X21689Y-13465D01*
X21891Y-13549D01*
X22109Y-13549D01*
X22245Y-13492D01*
X22270Y-13530D01*
X22570Y-13830D01*
X22675Y-13900D01*
X22676Y-13900D01*
X22800Y-13925D01*
X26026Y-13925D01*
X25888Y-13982D01*
X25783Y-14087D01*
X25725Y-14225D01*
X25725Y-14265D01*
X25480Y-14510D01*
X18020Y-14510D01*
X17305Y-13795D01*
X17211Y-13732D01*
X17100Y-13710D01*
X16308Y-13710D01*
X16308Y-13378D01*
X16000Y-13071D01*
X15692Y-13378D01*
X15719Y-13472D01*
X15921Y-13543D01*
X16134Y-13532D01*
X16281Y-13472D01*
X16308Y-13378D01*
X16308Y-13710D01*
X14100Y-13710D01*
X13989Y-13732D01*
X13895Y-13795D01*
X12680Y-15010D01*
X11700Y-15010D01*
X11589Y-15032D01*
X11495Y-15095D01*
X11494Y-15095D01*
X11494Y-15096D01*
X11139Y-15451D01*
X10651Y-15451D01*
X10559Y-15489D01*
X10489Y-15559D01*
X10451Y-15650D01*
X10451Y-15749D01*
X10451Y-16349D01*
X10489Y-16441D01*
X10559Y-16511D01*
X10650Y-16549D01*
X10675Y-16549D01*
X10535Y-16689D01*
X10451Y-16891D01*
X10451Y-17109D01*
X10535Y-17311D01*
X10689Y-17465D01*
X10773Y-17500D01*
X10689Y-17535D01*
X10535Y-17689D01*
X10451Y-17891D01*
X10451Y-18109D01*
X10535Y-18311D01*
X10689Y-18465D01*
X10710Y-18473D01*
X10710Y-18526D01*
X10689Y-18535D01*
X10535Y-18689D01*
X10451Y-18891D01*
X10451Y-19109D01*
X10535Y-19311D01*
X10689Y-19465D01*
X10891Y-19549D01*
X11109Y-19549D01*
X11210Y-19507D01*
X11210Y-20201D01*
X10651Y-20201D01*
X10559Y-20239D01*
X10489Y-20309D01*
X10451Y-20400D01*
X10451Y-20499D01*
X10451Y-21099D01*
X10489Y-21191D01*
X10559Y-21261D01*
X10650Y-21299D01*
X10675Y-21299D01*
X10535Y-21439D01*
X10451Y-21641D01*
X10451Y-21859D01*
X10535Y-22061D01*
X10689Y-22215D01*
X10710Y-22223D01*
X10710Y-22276D01*
X10689Y-22285D01*
X10535Y-22439D01*
X10451Y-22641D01*
X10451Y-22859D01*
X10535Y-23061D01*
X10689Y-23215D01*
X10710Y-23223D01*
X10710Y-23276D01*
X10689Y-23285D01*
X10535Y-23439D01*
X10451Y-23641D01*
X10451Y-23859D01*
X10535Y-24061D01*
X10689Y-24215D01*
X10891Y-24299D01*
X11109Y-24299D01*
X11210Y-24257D01*
X11210Y-24951D01*
X10651Y-24951D01*
X10559Y-24989D01*
X10489Y-25059D01*
X10451Y-25150D01*
X10451Y-25249D01*
X10451Y-25849D01*
X10489Y-25941D01*
X10559Y-26011D01*
X10650Y-26049D01*
X10675Y-26049D01*
X10535Y-26189D01*
X10451Y-26391D01*
X10451Y-26609D01*
X10535Y-26811D01*
X10689Y-26965D01*
X10710Y-26973D01*
X10710Y-27026D01*
X10689Y-27035D01*
X10535Y-27189D01*
X10451Y-27391D01*
X10451Y-27609D01*
X10535Y-27811D01*
X10689Y-27965D01*
X10710Y-27973D01*
X10710Y-28026D01*
X10689Y-28035D01*
X10535Y-28189D01*
X10451Y-28391D01*
X10451Y-28609D01*
X10535Y-28811D01*
X10689Y-28965D01*
X10891Y-29049D01*
X11109Y-29049D01*
X11311Y-28965D01*
X11465Y-28811D01*
X11500Y-28726D01*
X11535Y-28811D01*
X11689Y-28965D01*
X11891Y-29049D01*
X12109Y-29049D01*
X12311Y-28965D01*
X12410Y-28866D01*
X12410Y-29980D01*
X11295Y-31095D01*
X11232Y-31189D01*
X11210Y-31300D01*
X11210Y-32000D01*
X11232Y-32111D01*
X11295Y-32205D01*
X11451Y-32361D01*
X11451Y-32639D01*
X11295Y-32795D01*
X11232Y-32889D01*
X11210Y-33000D01*
X11210Y-35500D01*
X11232Y-35611D01*
X11295Y-35705D01*
X11451Y-35861D01*
X11451Y-36349D01*
X11489Y-36441D01*
X11559Y-36511D01*
X11650Y-36549D01*
X11749Y-36549D01*
X12349Y-36549D01*
X12441Y-36511D01*
X12511Y-36441D01*
X12549Y-36350D01*
X12549Y-36325D01*
X12689Y-36465D01*
X12891Y-36549D01*
X13109Y-36549D01*
X13311Y-36465D01*
X13465Y-36311D01*
X13500Y-36226D01*
X13535Y-36311D01*
X13689Y-36465D01*
X13891Y-36549D01*
X14109Y-36549D01*
X14311Y-36465D01*
X14465Y-36311D01*
X14500Y-36226D01*
X14535Y-36311D01*
X14689Y-36465D01*
X14891Y-36549D01*
X15109Y-36549D01*
X15311Y-36465D01*
X15465Y-36311D01*
X15500Y-36226D01*
X15535Y-36311D01*
X15689Y-36465D01*
X15891Y-36549D01*
X16109Y-36549D01*
X16311Y-36465D01*
X16465Y-36311D01*
X16500Y-36226D01*
X16535Y-36311D01*
X16689Y-36465D01*
X16891Y-36549D01*
X17109Y-36549D01*
X17311Y-36465D01*
X17465Y-36311D01*
X17500Y-36226D01*
X17535Y-36311D01*
X17689Y-36465D01*
X17891Y-36549D01*
X18109Y-36549D01*
X18311Y-36465D01*
X18465Y-36311D01*
X18500Y-36226D01*
X18535Y-36311D01*
X18689Y-36465D01*
X18891Y-36549D01*
X19109Y-36549D01*
X19311Y-36465D01*
X19465Y-36311D01*
X19500Y-36226D01*
X19535Y-36311D01*
X19689Y-36465D01*
X19891Y-36549D01*
X20109Y-36549D01*
X20311Y-36465D01*
X20465Y-36311D01*
X20500Y-36226D01*
X20535Y-36311D01*
X20689Y-36465D01*
X20891Y-36549D01*
X21109Y-36549D01*
X21311Y-36465D01*
X21465Y-36311D01*
X21500Y-36226D01*
X21535Y-36311D01*
X21689Y-36465D01*
X21891Y-36549D01*
X22109Y-36549D01*
X22311Y-36465D01*
X22465Y-36311D01*
X22500Y-36226D01*
X22535Y-36311D01*
X22689Y-36465D01*
X22891Y-36549D01*
X23109Y-36549D01*
X23311Y-36465D01*
X23465Y-36311D01*
X23500Y-36226D01*
X23535Y-36311D01*
X23689Y-36465D01*
X23891Y-36549D01*
X24109Y-36549D01*
X24311Y-36465D01*
X24465Y-36311D01*
X24500Y-36226D01*
X24535Y-36311D01*
X24689Y-36465D01*
X24891Y-36549D01*
X25109Y-36549D01*
X25311Y-36465D01*
X25465Y-36311D01*
X25500Y-36226D01*
X25535Y-36311D01*
X25689Y-36465D01*
X25891Y-36549D01*
X26109Y-36549D01*
X26311Y-36465D01*
X26465Y-36311D01*
X26500Y-36226D01*
X26535Y-36311D01*
X26689Y-36465D01*
X26891Y-36549D01*
X27109Y-36549D01*
X27311Y-36465D01*
X27465Y-36311D01*
X27500Y-36226D01*
X27535Y-36311D01*
X27689Y-36465D01*
X27891Y-36549D01*
X28109Y-36549D01*
X28311Y-36465D01*
X28465Y-36311D01*
X28500Y-36226D01*
X28535Y-36311D01*
X28689Y-36465D01*
X28891Y-36549D01*
X29109Y-36549D01*
X29311Y-36465D01*
X29465Y-36311D01*
X29500Y-36226D01*
X29535Y-36311D01*
X29689Y-36465D01*
X29891Y-36549D01*
X30109Y-36549D01*
X30311Y-36465D01*
X30465Y-36311D01*
X30500Y-36226D01*
X30535Y-36311D01*
X30689Y-36465D01*
X30891Y-36549D01*
X31109Y-36549D01*
X31311Y-36465D01*
X31465Y-36311D01*
X31500Y-36226D01*
X31535Y-36311D01*
X31689Y-36465D01*
X31891Y-36549D01*
X32109Y-36549D01*
X32311Y-36465D01*
X32465Y-36311D01*
X32500Y-36226D01*
X32535Y-36311D01*
X32689Y-36465D01*
X32891Y-36549D01*
X33109Y-36549D01*
X33311Y-36465D01*
X33465Y-36311D01*
X33500Y-36226D01*
X33535Y-36311D01*
X33689Y-36465D01*
X33891Y-36549D01*
X34109Y-36549D01*
X34311Y-36465D01*
X34465Y-36311D01*
X34500Y-36226D01*
X34535Y-36311D01*
X34689Y-36465D01*
X34891Y-36549D01*
X35109Y-36549D01*
X35311Y-36465D01*
X35465Y-36311D01*
X35500Y-36226D01*
X35535Y-36311D01*
X35689Y-36465D01*
X35891Y-36549D01*
X36109Y-36549D01*
X36311Y-36465D01*
X36465Y-36311D01*
X36500Y-36226D01*
X36535Y-36311D01*
X36689Y-36465D01*
X36891Y-36549D01*
X37109Y-36549D01*
X37311Y-36465D01*
X37465Y-36311D01*
X37500Y-36226D01*
X37535Y-36311D01*
X37689Y-36465D01*
X37891Y-36549D01*
X38109Y-36549D01*
X38311Y-36465D01*
X38465Y-36311D01*
X38500Y-36226D01*
X38535Y-36311D01*
X38689Y-36465D01*
X38891Y-36549D01*
X39109Y-36549D01*
X39311Y-36465D01*
X39465Y-36311D01*
X39500Y-36226D01*
X39535Y-36311D01*
X39689Y-36465D01*
X39891Y-36549D01*
X40109Y-36549D01*
X40311Y-36465D01*
X40465Y-36311D01*
X40500Y-36226D01*
X40535Y-36311D01*
X40689Y-36465D01*
X40891Y-36549D01*
X41109Y-36549D01*
X41311Y-36465D01*
X41465Y-36311D01*
X41549Y-36109D01*
X41549Y-35891D01*
X41543Y-35876D01*
X41543Y-35079D01*
X41532Y-34866D01*
X41472Y-34719D01*
X41378Y-34692D01*
X41308Y-34762D01*
X41308Y-34622D01*
X41281Y-34528D01*
X41079Y-34457D01*
X40866Y-34468D01*
X40719Y-34528D01*
X40692Y-34622D01*
X41000Y-34929D01*
X41308Y-34622D01*
X41308Y-34762D01*
X41071Y-35000D01*
X41378Y-35308D01*
X41472Y-35281D01*
X41543Y-35079D01*
X41543Y-35876D01*
X41465Y-35689D01*
X41311Y-35535D01*
X41219Y-35497D01*
X41281Y-35472D01*
X41308Y-35378D01*
X41000Y-35071D01*
X40692Y-35378D01*
X40719Y-35472D01*
X40784Y-35495D01*
X40689Y-35535D01*
X40535Y-35689D01*
X40500Y-35773D01*
X40465Y-35689D01*
X40311Y-35535D01*
X40226Y-35500D01*
X40311Y-35465D01*
X40465Y-35311D01*
X40502Y-35219D01*
X40528Y-35281D01*
X40622Y-35308D01*
X40929Y-35000D01*
X40622Y-34692D01*
X40528Y-34719D01*
X40504Y-34784D01*
X40465Y-34689D01*
X40311Y-34535D01*
X40109Y-34451D01*
X39891Y-34451D01*
X39869Y-34459D01*
X39790Y-34380D01*
X39790Y-33007D01*
X39891Y-33049D01*
X40109Y-33049D01*
X40311Y-32965D01*
X40465Y-32811D01*
X40500Y-32726D01*
X40535Y-32811D01*
X40689Y-32965D01*
X40891Y-33049D01*
X41109Y-33049D01*
X41311Y-32965D01*
X41465Y-32811D01*
X41549Y-32609D01*
X41549Y-32391D01*
X41543Y-32376D01*
X41543Y-31579D01*
X41532Y-31366D01*
X41472Y-31219D01*
X41378Y-31192D01*
X41308Y-31262D01*
X41308Y-31122D01*
X41281Y-31028D01*
X41079Y-30957D01*
X40866Y-30968D01*
X40719Y-31028D01*
X40692Y-31122D01*
X41000Y-31429D01*
X41308Y-31122D01*
X41308Y-31262D01*
X41071Y-31500D01*
X41378Y-31808D01*
X41472Y-31781D01*
X41543Y-31579D01*
X41543Y-32376D01*
X41465Y-32189D01*
X41311Y-32035D01*
X41219Y-31997D01*
X41281Y-31972D01*
X41308Y-31878D01*
X41000Y-31571D01*
X40692Y-31878D01*
X40719Y-31972D01*
X40784Y-31995D01*
X40689Y-32035D01*
X40535Y-32189D01*
X40500Y-32273D01*
X40465Y-32189D01*
X40311Y-32035D01*
X40226Y-32000D01*
X40311Y-31965D01*
X40465Y-31811D01*
X40502Y-31719D01*
X40528Y-31781D01*
X40622Y-31808D01*
X40929Y-31500D01*
X40622Y-31192D01*
X40528Y-31219D01*
X40504Y-31284D01*
X40465Y-31189D01*
X40311Y-31035D01*
X40109Y-30951D01*
X39891Y-30951D01*
X39689Y-31035D01*
X39535Y-31189D01*
X39500Y-31273D01*
X39465Y-31189D01*
X39311Y-31035D01*
X39109Y-30951D01*
X38891Y-30951D01*
X38689Y-31035D01*
X38535Y-31189D01*
X38500Y-31273D01*
X38465Y-31189D01*
X38311Y-31035D01*
X38109Y-30951D01*
X37891Y-30951D01*
X37689Y-31035D01*
X37535Y-31189D01*
X37500Y-31273D01*
X37465Y-31189D01*
X37311Y-31035D01*
X37109Y-30951D01*
X36891Y-30951D01*
X36689Y-31035D01*
X36535Y-31189D01*
X36500Y-31273D01*
X36465Y-31189D01*
X36311Y-31035D01*
X36109Y-30951D01*
X35891Y-30951D01*
X35689Y-31035D01*
X35535Y-31189D01*
X35500Y-31273D01*
X35465Y-31189D01*
X35311Y-31035D01*
X35109Y-30951D01*
X34891Y-30951D01*
X34725Y-31020D01*
X34725Y-28112D01*
X34663Y-28050D01*
X34150Y-28050D01*
X34150Y-28288D01*
X34212Y-28350D01*
X34426Y-28349D01*
X34525Y-28349D01*
X34616Y-28311D01*
X34686Y-28241D01*
X34724Y-28149D01*
X34725Y-28112D01*
X34725Y-31020D01*
X34689Y-31035D01*
X34667Y-31056D01*
X34050Y-30439D01*
X34050Y-28288D01*
X34050Y-28050D01*
X33537Y-28050D01*
X33475Y-28112D01*
X33476Y-28149D01*
X33514Y-28241D01*
X33584Y-28311D01*
X33675Y-28349D01*
X33774Y-28349D01*
X33988Y-28350D01*
X34050Y-28288D01*
X34050Y-30439D01*
X33805Y-30195D01*
X33711Y-30132D01*
X33600Y-30110D01*
X23540Y-30110D01*
X23513Y-30083D01*
X23375Y-30025D01*
X23226Y-30025D01*
X23088Y-30082D01*
X23027Y-30142D01*
X23011Y-30132D01*
X22900Y-30110D01*
X21375Y-30110D01*
X21375Y-30026D01*
X21318Y-29888D01*
X21213Y-29783D01*
X21084Y-29729D01*
X21112Y-29718D01*
X21140Y-29690D01*
X21400Y-29690D01*
X21511Y-29668D01*
X21605Y-29605D01*
X23415Y-27795D01*
X23433Y-27837D01*
X23503Y-27907D01*
X23594Y-27945D01*
X23693Y-27945D01*
X24026Y-27945D01*
X24037Y-27947D01*
X24312Y-27947D01*
X24476Y-28111D01*
X24476Y-28499D01*
X24514Y-28591D01*
X24584Y-28661D01*
X24675Y-28699D01*
X24774Y-28699D01*
X25324Y-28699D01*
X25416Y-28661D01*
X25450Y-28627D01*
X25484Y-28661D01*
X25575Y-28699D01*
X25674Y-28699D01*
X26224Y-28699D01*
X26316Y-28661D01*
X26386Y-28591D01*
X26424Y-28500D01*
X26424Y-28401D01*
X26424Y-28370D01*
X26647Y-28148D01*
X26647Y-28147D01*
X26723Y-28034D01*
X26749Y-27900D01*
X26750Y-27900D01*
X26750Y-25325D01*
X26749Y-25324D01*
X26723Y-25191D01*
X26647Y-25078D01*
X26647Y-25077D01*
X26081Y-24512D01*
X26747Y-23848D01*
X26747Y-23847D01*
X26823Y-23734D01*
X26849Y-23601D01*
X26850Y-23600D01*
X26850Y-22700D01*
X26849Y-22699D01*
X26823Y-22566D01*
X26747Y-22453D01*
X26747Y-22452D01*
X26024Y-21729D01*
X26024Y-21601D01*
X25986Y-21509D01*
X25916Y-21439D01*
X25850Y-21411D01*
X25850Y-21134D01*
X25875Y-21075D01*
X25875Y-20926D01*
X25818Y-20788D01*
X25713Y-20683D01*
X25575Y-20625D01*
X25426Y-20625D01*
X25288Y-20682D01*
X25183Y-20787D01*
X25125Y-20925D01*
X25125Y-21074D01*
X25150Y-21134D01*
X25150Y-21411D01*
X25084Y-21439D01*
X25014Y-21509D01*
X24976Y-21600D01*
X24976Y-21699D01*
X24976Y-22149D01*
X25014Y-22241D01*
X25073Y-22300D01*
X25014Y-22359D01*
X24976Y-22450D01*
X24976Y-22549D01*
X24976Y-22643D01*
X24676Y-22643D01*
X24674Y-22637D01*
X24679Y-22628D01*
X24679Y-22529D01*
X24679Y-22451D01*
X24675Y-22441D01*
X24679Y-22432D01*
X24679Y-22333D01*
X24679Y-22255D01*
X24641Y-22163D01*
X24571Y-22093D01*
X24480Y-22055D01*
X24381Y-22055D01*
X24047Y-22055D01*
X24037Y-22053D01*
X21757Y-22053D01*
X23756Y-20054D01*
X24037Y-20054D01*
X24047Y-20052D01*
X24479Y-20052D01*
X24571Y-20014D01*
X24641Y-19944D01*
X24679Y-19853D01*
X24679Y-19754D01*
X24679Y-19676D01*
X24674Y-19665D01*
X24679Y-19656D01*
X24679Y-19557D01*
X24679Y-19479D01*
X24674Y-19468D01*
X24679Y-19459D01*
X24679Y-19360D01*
X24679Y-19282D01*
X24674Y-19271D01*
X24679Y-19262D01*
X24679Y-19163D01*
X24679Y-19085D01*
X24674Y-19074D01*
X24679Y-19065D01*
X24679Y-18966D01*
X24679Y-18888D01*
X24675Y-18878D01*
X24679Y-18869D01*
X24679Y-18770D01*
X24679Y-18692D01*
X24674Y-18681D01*
X24679Y-18672D01*
X24679Y-18573D01*
X24679Y-18556D01*
X24684Y-18561D01*
X24775Y-18599D01*
X24874Y-18599D01*
X25424Y-18599D01*
X25503Y-18566D01*
X25525Y-18575D01*
X25674Y-18575D01*
X25695Y-18565D01*
X25775Y-18599D01*
X25874Y-18599D01*
X26421Y-18599D01*
X26421Y-18671D01*
X26425Y-18681D01*
X26421Y-18691D01*
X26421Y-18790D01*
X26421Y-18868D01*
X26424Y-18877D01*
X26421Y-18887D01*
X26421Y-18986D01*
X26421Y-19064D01*
X26425Y-19074D01*
X26421Y-19084D01*
X26421Y-19183D01*
X26421Y-19261D01*
X26425Y-19271D01*
X26421Y-19281D01*
X26421Y-19380D01*
X26421Y-19458D01*
X26425Y-19468D01*
X26421Y-19478D01*
X26421Y-19577D01*
X26421Y-19655D01*
X26425Y-19665D01*
X26421Y-19675D01*
X26421Y-19774D01*
X26421Y-19852D01*
X26459Y-19944D01*
X26529Y-20014D01*
X26620Y-20052D01*
X26719Y-20052D01*
X27505Y-20052D01*
X27597Y-20014D01*
X27667Y-19944D01*
X27705Y-19853D01*
X27705Y-19754D01*
X27705Y-19676D01*
X27700Y-19665D01*
X27705Y-19656D01*
X27705Y-19557D01*
X27705Y-19479D01*
X27700Y-19468D01*
X27702Y-19465D01*
X27725Y-19475D01*
X27874Y-19475D01*
X28012Y-19418D01*
X28117Y-19313D01*
X28132Y-19275D01*
X28174Y-19275D01*
X28312Y-19218D01*
X28417Y-19113D01*
X28432Y-19075D01*
X28474Y-19075D01*
X28612Y-19018D01*
X28717Y-18913D01*
X28732Y-18875D01*
X28774Y-18875D01*
X28912Y-18818D01*
X29017Y-18713D01*
X29075Y-18575D01*
X29075Y-18426D01*
X29018Y-18288D01*
X28913Y-18183D01*
X28775Y-18125D01*
X28707Y-18125D01*
X28697Y-18118D01*
X28586Y-18096D01*
X27702Y-18096D01*
X27700Y-18090D01*
X27705Y-18081D01*
X27705Y-17982D01*
X27705Y-17904D01*
X27700Y-17893D01*
X27705Y-17884D01*
X27705Y-17785D01*
X27705Y-17707D01*
X27700Y-17696D01*
X27705Y-17687D01*
X27705Y-17588D01*
X27705Y-17510D01*
X27700Y-17500D01*
X27705Y-17490D01*
X27706Y-17483D01*
X27685Y-17462D01*
X27667Y-17418D01*
X27650Y-17401D01*
X27667Y-17385D01*
X27684Y-17342D01*
X27706Y-17321D01*
X27705Y-17314D01*
X27700Y-17303D01*
X27705Y-17294D01*
X27705Y-17195D01*
X27705Y-17117D01*
X27700Y-17106D01*
X27705Y-17097D01*
X27705Y-17066D01*
X27725Y-17075D01*
X27874Y-17075D01*
X28012Y-17018D01*
X28117Y-16913D01*
X28132Y-16875D01*
X28174Y-16875D01*
X28312Y-16818D01*
X28417Y-16713D01*
X28432Y-16675D01*
X28474Y-16675D01*
X28612Y-16618D01*
X28717Y-16513D01*
X28732Y-16475D01*
X28774Y-16475D01*
X28912Y-16418D01*
X28960Y-16370D01*
X31377Y-18787D01*
X31378Y-18788D01*
X31471Y-18850D01*
X31472Y-18851D01*
X31582Y-18872D01*
X31583Y-18873D01*
X34297Y-18873D01*
X34298Y-18877D01*
X34295Y-18887D01*
X34295Y-18986D01*
X34295Y-19064D01*
X34299Y-19074D01*
X34295Y-19084D01*
X34295Y-19183D01*
X34295Y-19261D01*
X34299Y-19271D01*
X34295Y-19281D01*
X34295Y-19380D01*
X34295Y-19458D01*
X34299Y-19468D01*
X34295Y-19478D01*
X34295Y-19577D01*
X34295Y-19655D01*
X34299Y-19665D01*
X34295Y-19675D01*
X34295Y-19774D01*
X34295Y-19852D01*
X34333Y-19944D01*
X34403Y-20014D01*
X34494Y-20052D01*
X34593Y-20052D01*
X35379Y-20052D01*
X35471Y-20014D01*
X35478Y-20006D01*
X35514Y-20091D01*
X35584Y-20161D01*
X35641Y-20185D01*
X35625Y-20225D01*
X35625Y-20374D01*
X35682Y-20512D01*
X35787Y-20617D01*
X35925Y-20675D01*
X36074Y-20675D01*
X36212Y-20618D01*
X36310Y-20520D01*
X36310Y-20779D01*
X35629Y-21459D01*
X35609Y-21451D01*
X35391Y-21451D01*
X35189Y-21535D01*
X35035Y-21689D01*
X34951Y-21891D01*
X34951Y-22109D01*
X35035Y-22311D01*
X35189Y-22465D01*
X35391Y-22549D01*
X35609Y-22549D01*
X35811Y-22465D01*
X35951Y-22325D01*
X35951Y-22349D01*
X35989Y-22441D01*
X36059Y-22511D01*
X36150Y-22549D01*
X36249Y-22549D01*
X36849Y-22549D01*
X36941Y-22511D01*
X37011Y-22441D01*
X37049Y-22350D01*
X37049Y-22251D01*
X37049Y-21839D01*
X37068Y-21811D01*
X37090Y-21700D01*
X37090Y-19862D01*
X37159Y-19931D01*
X37250Y-19969D01*
X37349Y-19969D01*
X37975Y-19969D01*
X37975Y-20701D01*
X37901Y-20701D01*
X37809Y-20739D01*
X37739Y-20809D01*
X37701Y-20900D01*
X37701Y-20999D01*
X37701Y-22099D01*
X37739Y-22191D01*
X37809Y-22261D01*
X37900Y-22299D01*
X37935Y-22299D01*
X37925Y-22325D01*
X37925Y-22474D01*
X37975Y-22595D01*
X37975Y-22725D01*
X38000Y-22849D01*
X38070Y-22955D01*
X38098Y-22982D01*
X38078Y-23003D01*
X38002Y-23116D01*
X37975Y-23250D01*
X37975Y-23507D01*
X37959Y-23514D01*
X37889Y-23584D01*
X37851Y-23675D01*
X37851Y-23774D01*
X37851Y-24324D01*
X37871Y-24374D01*
X37851Y-24425D01*
X37851Y-24524D01*
X37851Y-25074D01*
X37871Y-25124D01*
X37851Y-25175D01*
X37851Y-25274D01*
X37851Y-25824D01*
X37871Y-25874D01*
X37851Y-25925D01*
X37851Y-26024D01*
X37851Y-26574D01*
X37871Y-26624D01*
X37851Y-26675D01*
X37851Y-26774D01*
X37851Y-27324D01*
X37871Y-27374D01*
X37851Y-27425D01*
X37851Y-27524D01*
X37851Y-28074D01*
X37871Y-28124D01*
X37851Y-28175D01*
X37851Y-28274D01*
X37851Y-28341D01*
X37790Y-28280D01*
X37790Y-27700D01*
X37789Y-27699D01*
X37768Y-27589D01*
X37767Y-27588D01*
X37705Y-27495D01*
X37704Y-27494D01*
X37505Y-27295D01*
X37499Y-27291D01*
X37486Y-27259D01*
X37477Y-27250D01*
X37486Y-27241D01*
X37524Y-27150D01*
X37524Y-27051D01*
X37524Y-26854D01*
X37612Y-26818D01*
X37717Y-26713D01*
X37775Y-26575D01*
X37775Y-26426D01*
X37718Y-26288D01*
X37613Y-26183D01*
X37475Y-26125D01*
X37326Y-26125D01*
X37265Y-26150D01*
X37044Y-26150D01*
X36399Y-25504D01*
X36399Y-25176D01*
X36361Y-25084D01*
X36291Y-25014D01*
X36275Y-25007D01*
X36275Y-24992D01*
X36291Y-24986D01*
X36361Y-24916D01*
X36399Y-24825D01*
X36399Y-24726D01*
X36399Y-24176D01*
X36361Y-24084D01*
X36291Y-24014D01*
X36200Y-23976D01*
X36101Y-23976D01*
X35651Y-23976D01*
X35559Y-24014D01*
X35500Y-24073D01*
X35441Y-24014D01*
X35349Y-23976D01*
X35187Y-23975D01*
X35125Y-24037D01*
X35125Y-24400D01*
X35125Y-24450D01*
X35125Y-24550D01*
X35025Y-24550D01*
X35025Y-24450D01*
X35025Y-24037D01*
X34963Y-23975D01*
X34801Y-23976D01*
X34709Y-24014D01*
X34639Y-24084D01*
X34601Y-24175D01*
X34601Y-24274D01*
X34600Y-24388D01*
X34662Y-24450D01*
X35025Y-24450D01*
X35025Y-24550D01*
X34975Y-24550D01*
X34662Y-24550D01*
X34600Y-24612D01*
X34601Y-24726D01*
X34601Y-24825D01*
X34639Y-24916D01*
X34709Y-24986D01*
X34742Y-25000D01*
X34709Y-25014D01*
X34639Y-25084D01*
X34601Y-25175D01*
X34601Y-25210D01*
X34400Y-25210D01*
X34289Y-25232D01*
X34257Y-25253D01*
X34194Y-25295D01*
X33295Y-26195D01*
X33232Y-26289D01*
X33210Y-26400D01*
X33210Y-27400D01*
X33232Y-27511D01*
X33295Y-27605D01*
X33395Y-27705D01*
X33489Y-27768D01*
X33508Y-27771D01*
X33476Y-27851D01*
X33475Y-27888D01*
X33537Y-27950D01*
X34000Y-27950D01*
X34050Y-27950D01*
X34150Y-27950D01*
X34200Y-27950D01*
X34663Y-27950D01*
X34725Y-27888D01*
X34724Y-27851D01*
X34686Y-27759D01*
X34677Y-27750D01*
X34686Y-27741D01*
X34724Y-27650D01*
X34724Y-27551D01*
X34724Y-27351D01*
X34698Y-27290D01*
X34880Y-27290D01*
X36095Y-28505D01*
X36189Y-28568D01*
X36225Y-28575D01*
X36225Y-28674D01*
X36282Y-28812D01*
X36387Y-28917D01*
X36525Y-28975D01*
X36674Y-28975D01*
X36738Y-28948D01*
X38194Y-30405D01*
X38195Y-30405D01*
X38257Y-30446D01*
X38288Y-30467D01*
X38289Y-30468D01*
X38399Y-30489D01*
X38400Y-30490D01*
X41375Y-30490D01*
X41375Y-30574D01*
X41432Y-30712D01*
X41537Y-30817D01*
X41675Y-30875D01*
X41824Y-30875D01*
X41962Y-30818D01*
X42067Y-30713D01*
X42125Y-30575D01*
X42125Y-30535D01*
X42710Y-31120D01*
X42710Y-31700D01*
X42732Y-31811D01*
X42795Y-31905D01*
X43057Y-32167D01*
X43035Y-32189D01*
X42951Y-32391D01*
X42951Y-32609D01*
X43035Y-32811D01*
X43189Y-32965D01*
X43391Y-33049D01*
X43609Y-33049D01*
X43710Y-33007D01*
X43710Y-33451D01*
X43151Y-33451D01*
X43059Y-33489D01*
X42989Y-33559D01*
X42951Y-33650D01*
X42951Y-33749D01*
X42951Y-34349D01*
X42989Y-34441D01*
X43059Y-34511D01*
X43150Y-34549D01*
X43175Y-34549D01*
X43035Y-34689D01*
X43015Y-34735D01*
X42963Y-34683D01*
X42875Y-34646D01*
X42875Y-34075D01*
X42875Y-33926D01*
X42818Y-33788D01*
X42713Y-33683D01*
X42625Y-33646D01*
X42625Y-32575D01*
X42625Y-32426D01*
X42568Y-32288D01*
X42463Y-32183D01*
X42375Y-32146D01*
X42375Y-31575D01*
X42375Y-31426D01*
X42318Y-31288D01*
X42213Y-31183D01*
X42075Y-31125D01*
X41926Y-31125D01*
X41788Y-31182D01*
X41683Y-31287D01*
X41625Y-31425D01*
X41625Y-31574D01*
X41682Y-31712D01*
X41787Y-31817D01*
X41925Y-31875D01*
X42074Y-31875D01*
X42212Y-31818D01*
X42317Y-31713D01*
X42375Y-31575D01*
X42375Y-32146D01*
X42325Y-32125D01*
X42176Y-32125D01*
X42038Y-32182D01*
X41933Y-32287D01*
X41875Y-32425D01*
X41875Y-32574D01*
X41932Y-32712D01*
X42037Y-32817D01*
X42175Y-32875D01*
X42324Y-32875D01*
X42462Y-32818D01*
X42567Y-32713D01*
X42625Y-32575D01*
X42625Y-33646D01*
X42575Y-33625D01*
X42426Y-33625D01*
X42288Y-33682D01*
X42183Y-33787D01*
X42125Y-33925D01*
X42125Y-34074D01*
X42182Y-34212D01*
X42287Y-34317D01*
X42425Y-34375D01*
X42574Y-34375D01*
X42712Y-34318D01*
X42817Y-34213D01*
X42875Y-34075D01*
X42875Y-34646D01*
X42825Y-34625D01*
X42676Y-34625D01*
X42538Y-34682D01*
X42433Y-34787D01*
X42375Y-34925D01*
X42375Y-35074D01*
X42432Y-35212D01*
X42537Y-35317D01*
X42675Y-35375D01*
X42824Y-35375D01*
X42962Y-35318D01*
X43015Y-35264D01*
X43035Y-35311D01*
X43189Y-35465D01*
X43273Y-35500D01*
X43189Y-35535D01*
X43035Y-35689D01*
X42951Y-35891D01*
X42951Y-36109D01*
X43035Y-36311D01*
X43189Y-36465D01*
X43273Y-36500D01*
X43189Y-36535D01*
X43035Y-36689D01*
X42951Y-36891D01*
X42951Y-37109D01*
X43035Y-37311D01*
X43189Y-37465D01*
X43391Y-37549D01*
X43609Y-37549D01*
X43811Y-37465D01*
X43965Y-37311D01*
X44000Y-37226D01*
X44035Y-37311D01*
X44189Y-37465D01*
X44391Y-37549D01*
X44609Y-37549D01*
X44811Y-37465D01*
X44965Y-37311D01*
X44999Y-37229D01*
X45049Y-37109D01*
X45049Y-36891D01*
X44999Y-36770D01*
X44965Y-36689D01*
X44811Y-36535D01*
X44726Y-36500D01*
X44811Y-36465D01*
X44965Y-36311D01*
X44999Y-36229D01*
X45049Y-36109D01*
X45049Y-35891D01*
X45040Y-35869D01*
X45175Y-35735D01*
X45175Y-37675D01*
M02*
