G04 (created by PCBNEW-RS274X (2012-01-19 BZR 3256)-stable) date 31/08/2012 15:11:10*
G01*
G70*
G90*
%MOIN*%
G04 Gerber Fmt 3.4, Leading zero omitted, Abs format*
%FSLAX34Y34*%
G04 APERTURE LIST*
%ADD10C,0.006000*%
%ADD11C,0.012000*%
%ADD12C,0.015000*%
%ADD13C,0.005000*%
G04 APERTURE END LIST*
G54D10*
G54D11*
X09437Y-20309D02*
X09437Y-20680D01*
X09132Y-20480D01*
X09132Y-20566D01*
X09094Y-20623D01*
X09056Y-20652D01*
X08980Y-20680D01*
X08790Y-20680D01*
X08713Y-20652D01*
X08675Y-20623D01*
X08637Y-20566D01*
X08637Y-20394D01*
X08675Y-20337D01*
X08713Y-20309D01*
X08713Y-20937D02*
X08675Y-20965D01*
X08637Y-20937D01*
X08675Y-20908D01*
X08713Y-20937D01*
X08637Y-20937D01*
X08637Y-21537D02*
X08637Y-21194D01*
X08637Y-21366D02*
X09437Y-21366D01*
X09323Y-21309D01*
X09247Y-21251D01*
X09209Y-21194D01*
X09437Y-22080D02*
X09437Y-21794D01*
X09056Y-21765D01*
X09094Y-21794D01*
X09132Y-21851D01*
X09132Y-21994D01*
X09094Y-22051D01*
X09056Y-22080D01*
X08980Y-22108D01*
X08790Y-22108D01*
X08713Y-22080D01*
X08675Y-22051D01*
X08637Y-21994D01*
X08637Y-21851D01*
X08675Y-21794D01*
X08713Y-21765D01*
X09437Y-22479D02*
X09437Y-22536D01*
X09399Y-22593D01*
X09361Y-22622D01*
X09285Y-22651D01*
X09132Y-22679D01*
X08942Y-22679D01*
X08790Y-22651D01*
X08713Y-22622D01*
X08675Y-22593D01*
X08637Y-22536D01*
X08637Y-22479D01*
X08675Y-22422D01*
X08713Y-22393D01*
X08790Y-22365D01*
X08942Y-22336D01*
X09132Y-22336D01*
X09285Y-22365D01*
X09361Y-22393D01*
X09399Y-22422D01*
X09437Y-22479D01*
X09437Y-23050D02*
X09437Y-23107D01*
X09399Y-23164D01*
X09361Y-23193D01*
X09285Y-23222D01*
X09132Y-23250D01*
X08942Y-23250D01*
X08790Y-23222D01*
X08713Y-23193D01*
X08675Y-23164D01*
X08637Y-23107D01*
X08637Y-23050D01*
X08675Y-22993D01*
X08713Y-22964D01*
X08790Y-22936D01*
X08942Y-22907D01*
X09132Y-22907D01*
X09285Y-22936D01*
X09361Y-22964D01*
X09399Y-22993D01*
X09437Y-23050D01*
X09437Y-23935D02*
X09285Y-23935D01*
X09437Y-24164D02*
X09285Y-24164D01*
X09601Y-06500D02*
X09601Y-38000D01*
X10100Y-06500D02*
X08321Y-06500D01*
X10100Y-38000D02*
X08321Y-38000D01*
X09601Y-38000D02*
X09371Y-37557D01*
X09601Y-38000D02*
X09831Y-37557D01*
X09601Y-06500D02*
X09371Y-06943D01*
X09601Y-06500D02*
X09831Y-06943D01*
X25809Y-04885D02*
X26180Y-04885D01*
X25980Y-05190D01*
X26066Y-05190D01*
X26123Y-05228D01*
X26152Y-05266D01*
X26180Y-05342D01*
X26180Y-05532D01*
X26152Y-05609D01*
X26123Y-05647D01*
X26066Y-05685D01*
X25894Y-05685D01*
X25837Y-05647D01*
X25809Y-05609D01*
X26437Y-05609D02*
X26465Y-05647D01*
X26437Y-05685D01*
X26408Y-05647D01*
X26437Y-05609D01*
X26437Y-05685D01*
X27009Y-04885D02*
X26723Y-04885D01*
X26694Y-05266D01*
X26723Y-05228D01*
X26780Y-05190D01*
X26923Y-05190D01*
X26980Y-05228D01*
X27009Y-05266D01*
X27037Y-05342D01*
X27037Y-05532D01*
X27009Y-05609D01*
X26980Y-05647D01*
X26923Y-05685D01*
X26780Y-05685D01*
X26723Y-05647D01*
X26694Y-05609D01*
X27580Y-04885D02*
X27294Y-04885D01*
X27265Y-05266D01*
X27294Y-05228D01*
X27351Y-05190D01*
X27494Y-05190D01*
X27551Y-05228D01*
X27580Y-05266D01*
X27608Y-05342D01*
X27608Y-05532D01*
X27580Y-05609D01*
X27551Y-05647D01*
X27494Y-05685D01*
X27351Y-05685D01*
X27294Y-05647D01*
X27265Y-05609D01*
X27979Y-04885D02*
X28036Y-04885D01*
X28093Y-04923D01*
X28122Y-04961D01*
X28151Y-05037D01*
X28179Y-05190D01*
X28179Y-05380D01*
X28151Y-05532D01*
X28122Y-05609D01*
X28093Y-05647D01*
X28036Y-05685D01*
X27979Y-05685D01*
X27922Y-05647D01*
X27893Y-05609D01*
X27865Y-05532D01*
X27836Y-05380D01*
X27836Y-05190D01*
X27865Y-05037D01*
X27893Y-04961D01*
X27922Y-04923D01*
X27979Y-04885D01*
X28550Y-04885D02*
X28607Y-04885D01*
X28664Y-04923D01*
X28693Y-04961D01*
X28722Y-05037D01*
X28750Y-05190D01*
X28750Y-05380D01*
X28722Y-05532D01*
X28693Y-05609D01*
X28664Y-05647D01*
X28607Y-05685D01*
X28550Y-05685D01*
X28493Y-05647D01*
X28464Y-05609D01*
X28436Y-05532D01*
X28407Y-05380D01*
X28407Y-05190D01*
X28436Y-05037D01*
X28464Y-04961D01*
X28493Y-04923D01*
X28550Y-04885D01*
X29435Y-04885D02*
X29435Y-05037D01*
X29664Y-04885D02*
X29664Y-05037D01*
X10000Y-06001D02*
X45500Y-06001D01*
X10000Y-06500D02*
X10000Y-04721D01*
X45500Y-06500D02*
X45500Y-04721D01*
X45500Y-06001D02*
X45057Y-06231D01*
X45500Y-06001D02*
X45057Y-05771D01*
X10000Y-06001D02*
X10443Y-06231D01*
X10000Y-06001D02*
X10443Y-05771D01*
G54D12*
X10000Y-06500D02*
X45500Y-06500D01*
X45500Y-38000D02*
X10000Y-38000D01*
X45500Y-06500D02*
X45500Y-38000D01*
X10000Y-06500D02*
X10000Y-38000D01*
G54D13*
X44843Y-24299D02*
X44839Y-24337D01*
X44828Y-24374D01*
X44810Y-24408D01*
X44785Y-24437D01*
X44756Y-24462D01*
X44722Y-24480D01*
X44685Y-24491D01*
X44647Y-24495D01*
X44610Y-24492D01*
X44573Y-24481D01*
X44539Y-24463D01*
X44509Y-24439D01*
X44484Y-24410D01*
X44465Y-24376D01*
X44454Y-24339D01*
X44450Y-24301D01*
X44453Y-24264D01*
X44463Y-24227D01*
X44481Y-24193D01*
X44505Y-24163D01*
X44534Y-24138D01*
X44568Y-24119D01*
X44604Y-24107D01*
X44642Y-24103D01*
X44680Y-24105D01*
X44717Y-24116D01*
X44751Y-24133D01*
X44781Y-24157D01*
X44806Y-24186D01*
X44825Y-24219D01*
X44838Y-24256D01*
X44842Y-24294D01*
X44843Y-24299D01*
X44843Y-27449D02*
X44839Y-27487D01*
X44828Y-27524D01*
X44810Y-27558D01*
X44785Y-27587D01*
X44756Y-27612D01*
X44722Y-27630D01*
X44685Y-27641D01*
X44647Y-27645D01*
X44610Y-27642D01*
X44573Y-27631D01*
X44539Y-27613D01*
X44509Y-27589D01*
X44484Y-27560D01*
X44465Y-27526D01*
X44454Y-27489D01*
X44450Y-27451D01*
X44453Y-27414D01*
X44463Y-27377D01*
X44481Y-27343D01*
X44505Y-27313D01*
X44534Y-27288D01*
X44568Y-27269D01*
X44604Y-27257D01*
X44642Y-27253D01*
X44680Y-27255D01*
X44717Y-27266D01*
X44751Y-27283D01*
X44781Y-27307D01*
X44806Y-27336D01*
X44825Y-27369D01*
X44838Y-27406D01*
X44842Y-27444D01*
X44843Y-27449D01*
M02*
