G04 (created by PCBNEW-RS274X (2012-01-19 BZR 3256)-stable) date 31/08/2012 15:11:10*
G01*
G70*
G90*
%MOIN*%
G04 Gerber Fmt 3.4, Leading zero omitted, Abs format*
%FSLAX34Y34*%
G04 APERTURE LIST*
%ADD10C,0.006000*%
%ADD11R,0.060000X0.060000*%
%ADD12C,0.060000*%
%ADD13C,0.025000*%
%ADD14C,0.008000*%
%ADD15C,0.020000*%
%ADD16C,0.010000*%
G04 APERTURE END LIST*
G54D10*
G54D11*
X12000Y-36000D03*
G54D12*
X12000Y-35000D03*
X17000Y-36000D03*
X13000Y-35000D03*
X18000Y-36000D03*
X14000Y-35000D03*
X19000Y-36000D03*
X15000Y-35000D03*
X20000Y-36000D03*
X16000Y-35000D03*
X21000Y-36000D03*
X17000Y-35000D03*
X22000Y-36000D03*
X18000Y-35000D03*
X23000Y-36000D03*
X19000Y-35000D03*
X24000Y-36000D03*
X20000Y-35000D03*
X25000Y-36000D03*
X21000Y-35000D03*
X26000Y-36000D03*
X22000Y-35000D03*
X27000Y-36000D03*
X23000Y-35000D03*
X24000Y-35000D03*
X28000Y-36000D03*
X25000Y-35000D03*
X27000Y-35000D03*
X28000Y-35000D03*
X29000Y-35000D03*
X30000Y-35000D03*
X29000Y-36000D03*
X30000Y-36000D03*
X13000Y-36000D03*
X14000Y-36000D03*
X15000Y-36000D03*
X16000Y-36000D03*
X31000Y-36000D03*
X31000Y-35000D03*
X26000Y-35000D03*
X32000Y-36000D03*
X32000Y-35000D03*
X33000Y-36000D03*
X33000Y-35000D03*
X34000Y-36000D03*
X34000Y-35000D03*
X35000Y-36000D03*
X35000Y-35000D03*
X36000Y-36000D03*
X36000Y-35000D03*
X37000Y-36000D03*
X37000Y-35000D03*
X38000Y-36000D03*
X38000Y-35000D03*
X39000Y-36000D03*
X39000Y-35000D03*
X40000Y-36000D03*
X40000Y-35000D03*
X41000Y-36000D03*
X41000Y-35000D03*
G54D11*
X41000Y-12000D03*
G54D12*
X41000Y-13000D03*
X36000Y-12000D03*
X40000Y-13000D03*
X35000Y-12000D03*
X39000Y-13000D03*
X34000Y-12000D03*
X38000Y-13000D03*
X33000Y-12000D03*
X37000Y-13000D03*
X32000Y-12000D03*
X36000Y-13000D03*
X31000Y-12000D03*
X35000Y-13000D03*
X30000Y-12000D03*
X34000Y-13000D03*
X29000Y-12000D03*
X33000Y-13000D03*
X28000Y-12000D03*
X32000Y-13000D03*
X27000Y-12000D03*
X31000Y-13000D03*
X26000Y-12000D03*
X30000Y-13000D03*
X29000Y-13000D03*
X25000Y-12000D03*
X28000Y-13000D03*
X26000Y-13000D03*
X25000Y-13000D03*
X24000Y-13000D03*
X23000Y-13000D03*
X24000Y-12000D03*
X23000Y-12000D03*
X40000Y-12000D03*
X39000Y-12000D03*
X38000Y-12000D03*
X37000Y-12000D03*
X22000Y-12000D03*
X22000Y-13000D03*
X27000Y-13000D03*
X21000Y-12000D03*
X21000Y-13000D03*
X20000Y-12000D03*
X20000Y-13000D03*
X19000Y-12000D03*
X19000Y-13000D03*
X18000Y-12000D03*
X18000Y-13000D03*
X17000Y-12000D03*
X17000Y-13000D03*
X16000Y-12000D03*
X16000Y-13000D03*
X15000Y-12000D03*
X15000Y-13000D03*
X14000Y-12000D03*
X14000Y-13000D03*
X13000Y-12000D03*
X13000Y-13000D03*
X12000Y-12000D03*
X12000Y-13000D03*
G54D11*
X12000Y-32500D03*
G54D12*
X12000Y-31500D03*
X17000Y-32500D03*
X13000Y-31500D03*
X18000Y-32500D03*
X14000Y-31500D03*
X19000Y-32500D03*
X15000Y-31500D03*
X20000Y-32500D03*
X16000Y-31500D03*
X21000Y-32500D03*
X17000Y-31500D03*
X22000Y-32500D03*
X18000Y-31500D03*
X23000Y-32500D03*
X19000Y-31500D03*
X24000Y-32500D03*
X20000Y-31500D03*
X25000Y-32500D03*
X21000Y-31500D03*
X26000Y-32500D03*
X22000Y-31500D03*
X27000Y-32500D03*
X23000Y-31500D03*
X24000Y-31500D03*
X28000Y-32500D03*
X25000Y-31500D03*
X27000Y-31500D03*
X28000Y-31500D03*
X29000Y-31500D03*
X30000Y-31500D03*
X29000Y-32500D03*
X30000Y-32500D03*
X13000Y-32500D03*
X14000Y-32500D03*
X15000Y-32500D03*
X16000Y-32500D03*
X31000Y-32500D03*
X31000Y-31500D03*
X26000Y-31500D03*
X32000Y-32500D03*
X32000Y-31500D03*
X33000Y-32500D03*
X33000Y-31500D03*
X34000Y-32500D03*
X34000Y-31500D03*
X35000Y-32500D03*
X35000Y-31500D03*
X36000Y-32500D03*
X36000Y-31500D03*
X37000Y-32500D03*
X37000Y-31500D03*
X38000Y-32500D03*
X38000Y-31500D03*
X39000Y-32500D03*
X39000Y-31500D03*
X40000Y-32500D03*
X40000Y-31500D03*
X41000Y-32500D03*
X41000Y-31500D03*
G54D11*
X41000Y-08500D03*
G54D12*
X41000Y-09500D03*
X36000Y-08500D03*
X40000Y-09500D03*
X35000Y-08500D03*
X39000Y-09500D03*
X34000Y-08500D03*
X38000Y-09500D03*
X33000Y-08500D03*
X37000Y-09500D03*
X32000Y-08500D03*
X36000Y-09500D03*
X31000Y-08500D03*
X35000Y-09500D03*
X30000Y-08500D03*
X34000Y-09500D03*
X29000Y-08500D03*
X33000Y-09500D03*
X28000Y-08500D03*
X32000Y-09500D03*
X27000Y-08500D03*
X31000Y-09500D03*
X26000Y-08500D03*
X30000Y-09500D03*
X29000Y-09500D03*
X25000Y-08500D03*
X28000Y-09500D03*
X26000Y-09500D03*
X25000Y-09500D03*
X24000Y-09500D03*
X23000Y-09500D03*
X24000Y-08500D03*
X23000Y-08500D03*
X40000Y-08500D03*
X39000Y-08500D03*
X38000Y-08500D03*
X37000Y-08500D03*
X22000Y-08500D03*
X22000Y-09500D03*
X27000Y-09500D03*
X21000Y-08500D03*
X21000Y-09500D03*
X20000Y-08500D03*
X20000Y-09500D03*
X19000Y-08500D03*
X19000Y-09500D03*
X18000Y-08500D03*
X18000Y-09500D03*
X17000Y-08500D03*
X17000Y-09500D03*
X16000Y-08500D03*
X16000Y-09500D03*
X15000Y-08500D03*
X15000Y-09500D03*
X14000Y-08500D03*
X14000Y-09500D03*
X13000Y-08500D03*
X13000Y-09500D03*
X12000Y-08500D03*
X12000Y-09500D03*
G54D11*
X43500Y-16500D03*
G54D12*
X44500Y-16500D03*
X43500Y-17500D03*
X44500Y-17500D03*
X43500Y-18500D03*
X44500Y-18500D03*
X43500Y-19500D03*
X44500Y-19500D03*
X43500Y-20500D03*
X44500Y-20500D03*
X43500Y-21500D03*
X44500Y-21500D03*
G54D11*
X43500Y-12000D03*
G54D12*
X44500Y-12000D03*
X43500Y-13000D03*
X44500Y-13000D03*
X43500Y-14000D03*
X44500Y-14000D03*
X43500Y-15000D03*
X44500Y-15000D03*
G54D11*
X43500Y-07500D03*
G54D12*
X44500Y-07500D03*
X43500Y-08500D03*
X44500Y-08500D03*
X43500Y-09500D03*
X44500Y-09500D03*
X43500Y-10500D03*
X44500Y-10500D03*
G54D11*
X11000Y-25500D03*
G54D12*
X12000Y-25500D03*
X11000Y-26500D03*
X12000Y-26500D03*
X11000Y-27500D03*
X12000Y-27500D03*
X11000Y-28500D03*
X12000Y-28500D03*
G54D11*
X11000Y-20750D03*
G54D12*
X12000Y-20750D03*
X11000Y-21750D03*
X12000Y-21750D03*
X11000Y-22750D03*
X12000Y-22750D03*
X11000Y-23750D03*
X12000Y-23750D03*
G54D11*
X11000Y-16000D03*
G54D12*
X12000Y-16000D03*
X11000Y-17000D03*
X12000Y-17000D03*
X11000Y-18000D03*
X12000Y-18000D03*
X11000Y-19000D03*
X12000Y-19000D03*
G54D11*
X43500Y-34000D03*
G54D12*
X44500Y-34000D03*
X43500Y-35000D03*
X44500Y-35000D03*
X43500Y-36000D03*
X44500Y-36000D03*
X43500Y-37000D03*
X44500Y-37000D03*
G54D11*
X43500Y-29500D03*
G54D12*
X44500Y-29500D03*
X43500Y-30500D03*
X44500Y-30500D03*
X43500Y-31500D03*
X44500Y-31500D03*
X43500Y-32500D03*
X44500Y-32500D03*
G54D11*
X36500Y-22000D03*
G54D12*
X35500Y-22000D03*
G54D13*
X36200Y-27800D03*
X36600Y-28600D03*
X20900Y-29400D03*
X16800Y-20000D03*
X21000Y-30100D03*
X17100Y-19800D03*
X17900Y-26300D03*
X17400Y-20000D03*
X17900Y-25900D03*
X17800Y-20000D03*
X17900Y-25500D03*
X18200Y-20000D03*
X17500Y-25000D03*
X17500Y-25400D03*
X19000Y-17700D03*
X28700Y-16100D03*
X21500Y-25900D03*
X19200Y-18000D03*
X28400Y-16300D03*
X21500Y-25500D03*
X25500Y-25500D03*
X23000Y-17900D03*
X25500Y-25100D03*
X23300Y-17700D03*
X23300Y-17300D03*
X25000Y-24500D03*
X23000Y-17100D03*
X24800Y-24100D03*
X23000Y-16700D03*
X24800Y-23700D03*
X25000Y-23400D03*
X23300Y-16500D03*
X21500Y-25100D03*
X19400Y-18300D03*
X28100Y-16500D03*
X21500Y-24700D03*
X19600Y-18600D03*
X27800Y-16700D03*
X19800Y-18900D03*
X21500Y-24300D03*
X28700Y-18500D03*
X21500Y-23900D03*
X20000Y-19200D03*
X28400Y-18700D03*
X21500Y-23500D03*
X20200Y-19500D03*
X28100Y-18900D03*
X21900Y-23500D03*
X20400Y-19800D03*
X27800Y-19100D03*
X22400Y-18300D03*
X25500Y-26300D03*
X25500Y-25900D03*
X22700Y-18100D03*
X27900Y-15300D03*
X26100Y-14300D03*
X24700Y-16600D03*
X25500Y-26700D03*
X28150Y-30700D03*
X22400Y-17900D03*
X20900Y-29000D03*
X25100Y-16600D03*
X17100Y-25400D03*
X23300Y-30400D03*
X26100Y-14700D03*
X16900Y-24800D03*
X18600Y-20000D03*
X23700Y-30700D03*
X14500Y-16600D03*
X39200Y-13800D03*
X42750Y-35000D03*
X42500Y-34000D03*
X42000Y-31500D03*
X41750Y-30500D03*
X42250Y-32500D03*
X41500Y-29500D03*
X38300Y-22400D03*
X38325Y-25875D03*
X39725Y-25875D03*
X34200Y-17300D03*
X32400Y-15500D03*
X14000Y-29500D03*
X39800Y-26800D03*
X15100Y-18700D03*
X40100Y-28600D03*
X26100Y-23400D03*
X25600Y-17200D03*
X40300Y-20600D03*
X21100Y-18800D03*
X18200Y-15900D03*
X34200Y-17700D03*
X37400Y-26500D03*
X36000Y-20300D03*
X36000Y-14800D03*
X25500Y-21000D03*
X14400Y-25000D03*
X14400Y-17300D03*
X25600Y-18200D03*
G54D14*
X12500Y-10000D02*
X12500Y-12500D01*
X12000Y-09500D02*
X12500Y-10000D01*
X12500Y-12500D02*
X12000Y-13000D01*
X14000Y-09500D02*
X14500Y-10000D01*
X14500Y-10000D02*
X14500Y-12500D01*
X14500Y-12500D02*
X14000Y-13000D01*
X13000Y-09500D02*
X13500Y-10000D01*
X13500Y-12500D02*
X13000Y-13000D01*
X13500Y-10000D02*
X13500Y-12500D01*
X27500Y-12500D02*
X27000Y-13000D01*
X27000Y-09500D02*
X27500Y-10000D01*
X27500Y-10000D02*
X27500Y-12500D01*
X15500Y-12500D02*
X15000Y-13000D01*
X15000Y-09500D02*
X15500Y-10000D01*
X15500Y-10000D02*
X15500Y-12500D01*
X44000Y-34500D02*
X44500Y-35000D01*
X44500Y-30500D02*
X44000Y-31000D01*
X44000Y-31000D02*
X44000Y-34500D01*
X36200Y-27800D02*
X36600Y-28200D01*
X36600Y-28200D02*
X36600Y-28600D01*
X44500Y-29500D02*
X45000Y-30000D01*
X45000Y-33500D02*
X44500Y-34000D01*
X45000Y-30000D02*
X45000Y-33500D01*
X19200Y-31000D02*
X12800Y-31000D01*
X12800Y-31000D02*
X12500Y-31300D01*
X19600Y-30600D02*
X19200Y-31000D01*
X20900Y-29400D02*
X19700Y-30600D01*
X12000Y-32200D02*
X12000Y-32500D01*
X12500Y-31300D02*
X12500Y-31700D01*
X12500Y-31700D02*
X12000Y-32200D01*
X19700Y-30600D02*
X19600Y-30600D01*
X12000Y-31500D02*
X11500Y-32000D01*
X11500Y-34500D02*
X12000Y-35000D01*
X11500Y-32000D02*
X11500Y-34500D01*
X16500Y-32000D02*
X16500Y-34500D01*
X16500Y-34500D02*
X17000Y-35000D01*
X17000Y-31500D02*
X16500Y-32000D01*
X18000Y-31500D02*
X17500Y-32000D01*
X17500Y-32000D02*
X17500Y-34500D01*
X17500Y-34500D02*
X18000Y-35000D01*
X16800Y-23300D02*
X15800Y-24300D01*
X19700Y-30800D02*
X19000Y-31500D01*
X16800Y-20000D02*
X16800Y-20000D01*
X21200Y-29500D02*
X19900Y-30800D01*
X19000Y-31500D02*
X18500Y-32000D01*
X19900Y-30800D02*
X19700Y-30800D01*
X16900Y-26800D02*
X19600Y-26800D01*
X21200Y-29500D02*
X21200Y-28400D01*
X18500Y-32000D02*
X18500Y-34500D01*
X18500Y-34500D02*
X19000Y-35000D01*
X16800Y-20000D02*
X16800Y-23300D01*
X15800Y-24300D02*
X15800Y-25700D01*
X16900Y-26800D02*
X15800Y-25700D01*
X19600Y-26800D02*
X21200Y-28400D01*
X19500Y-35500D02*
X20000Y-36000D01*
X21400Y-28300D02*
X21400Y-29700D01*
X19500Y-32000D02*
X19500Y-31300D01*
X19800Y-31000D02*
X19500Y-31300D01*
X16000Y-24400D02*
X16000Y-25600D01*
X21000Y-30100D02*
X20100Y-31000D01*
X20100Y-31000D02*
X19800Y-31000D01*
X21400Y-29700D02*
X21000Y-30100D01*
X19500Y-33000D02*
X19500Y-35500D01*
X17100Y-23300D02*
X16000Y-24400D01*
X19700Y-26600D02*
X17000Y-26600D01*
X20000Y-32500D02*
X19500Y-33000D01*
X16000Y-25600D02*
X17000Y-26600D01*
X17100Y-19800D02*
X17100Y-23300D01*
X19700Y-26600D02*
X21400Y-28300D01*
X20000Y-32500D02*
X19500Y-32000D01*
X21600Y-29900D02*
X20000Y-31500D01*
X17000Y-26300D02*
X16200Y-25500D01*
X17900Y-26300D02*
X17000Y-26300D01*
X19700Y-26300D02*
X21600Y-28200D01*
X21600Y-28200D02*
X21600Y-29900D01*
X16200Y-25500D02*
X16200Y-24500D01*
X17400Y-23300D02*
X16200Y-24500D01*
X17900Y-26300D02*
X19700Y-26300D01*
X17400Y-20000D02*
X17400Y-23300D01*
X19600Y-25900D02*
X21800Y-28100D01*
X17900Y-25900D02*
X19600Y-25900D01*
X21800Y-28100D02*
X21800Y-30000D01*
X21800Y-30000D02*
X20500Y-31300D01*
X20500Y-35500D02*
X21000Y-36000D01*
X20500Y-33000D02*
X20500Y-35500D01*
X21000Y-32500D02*
X20500Y-32000D01*
X17800Y-20000D02*
X17800Y-23200D01*
X17800Y-23200D02*
X16400Y-24600D01*
X20500Y-32000D02*
X20500Y-31300D01*
X21000Y-32500D02*
X20500Y-33000D01*
X16400Y-25400D02*
X16900Y-25900D01*
X16900Y-25900D02*
X17900Y-25900D01*
X16400Y-24600D02*
X16400Y-25400D01*
X17900Y-25500D02*
X17700Y-25700D01*
X22000Y-28000D02*
X22000Y-30500D01*
X18200Y-23100D02*
X16600Y-24700D01*
X19500Y-25500D02*
X22000Y-28000D01*
X17900Y-25500D02*
X19500Y-25500D01*
X17700Y-25700D02*
X17000Y-25700D01*
X22000Y-30500D02*
X21000Y-31500D01*
X18200Y-20000D02*
X18200Y-23100D01*
X16600Y-24700D02*
X16600Y-25300D01*
X16600Y-25300D02*
X17000Y-25700D01*
X22000Y-32500D02*
X21500Y-33000D01*
X19600Y-25000D02*
X22500Y-27900D01*
X22500Y-27900D02*
X22500Y-32000D01*
X17500Y-25000D02*
X19600Y-25000D01*
X22000Y-32500D02*
X22500Y-32000D01*
X21500Y-35500D02*
X22000Y-36000D01*
X21500Y-33000D02*
X21500Y-35500D01*
X17700Y-25200D02*
X19500Y-25200D01*
X22200Y-31300D02*
X22200Y-27900D01*
X22000Y-31500D02*
X22200Y-31300D01*
X17500Y-25400D02*
X17700Y-25200D01*
X22200Y-27900D02*
X19500Y-25200D01*
X22500Y-32300D02*
X22500Y-34500D01*
X23000Y-31500D02*
X22700Y-31800D01*
X22700Y-31800D02*
X22700Y-32100D01*
X22500Y-34500D02*
X23000Y-35000D01*
X22700Y-32100D02*
X22500Y-32300D01*
X23500Y-32000D02*
X23500Y-34500D01*
X23500Y-34500D02*
X24000Y-35000D01*
X24000Y-31500D02*
X23500Y-32000D01*
X12500Y-32000D02*
X12500Y-34500D01*
X12500Y-34500D02*
X13000Y-35000D01*
X13000Y-31500D02*
X12500Y-32000D01*
X13500Y-32000D02*
X13500Y-34500D01*
X14000Y-31500D02*
X13500Y-32000D01*
X13500Y-34500D02*
X14000Y-35000D01*
X14500Y-32000D02*
X14500Y-34500D01*
X15000Y-31500D02*
X14500Y-32000D01*
X14500Y-34500D02*
X15000Y-35000D01*
X16000Y-31500D02*
X15500Y-32000D01*
X15500Y-32000D02*
X15500Y-34500D01*
X15500Y-34500D02*
X16000Y-35000D01*
X33000Y-32500D02*
X32500Y-33000D01*
X32500Y-35500D02*
X33000Y-36000D01*
X32500Y-33000D02*
X32500Y-35500D01*
X19000Y-17700D02*
X18900Y-17800D01*
X18900Y-23300D02*
X21500Y-25900D01*
X28600Y-16000D02*
X28700Y-16100D01*
X22400Y-14800D02*
X25800Y-14800D01*
X24500Y-35500D02*
X25000Y-36000D01*
X21500Y-25900D02*
X24500Y-28900D01*
X24500Y-32000D02*
X25000Y-32500D01*
X24500Y-33000D02*
X24500Y-35500D01*
X18900Y-17800D02*
X19000Y-17700D01*
X25800Y-14800D02*
X27000Y-16000D01*
X24500Y-28900D02*
X24500Y-32000D01*
X19500Y-17700D02*
X22400Y-14800D01*
X19000Y-17700D02*
X19500Y-17700D01*
X27000Y-16000D02*
X28600Y-16000D01*
X25000Y-32500D02*
X24500Y-33000D01*
X18900Y-17800D02*
X18900Y-23300D01*
X25000Y-29000D02*
X25000Y-31500D01*
X19100Y-23100D02*
X21500Y-25500D01*
X25700Y-15000D02*
X26900Y-16200D01*
X22500Y-15000D02*
X25700Y-15000D01*
X19500Y-18000D02*
X22500Y-15000D01*
X28300Y-16200D02*
X28400Y-16300D01*
X19100Y-18100D02*
X19100Y-23100D01*
X21500Y-25500D02*
X25000Y-29000D01*
X19200Y-18000D02*
X19100Y-18100D01*
X19200Y-18000D02*
X19500Y-18000D01*
X26900Y-16200D02*
X28300Y-16200D01*
X29500Y-33000D02*
X29500Y-35500D01*
X30000Y-32500D02*
X29500Y-33000D01*
X25500Y-25500D02*
X29500Y-29500D01*
X23000Y-23300D02*
X25200Y-25500D01*
X29500Y-29500D02*
X29500Y-32000D01*
X25200Y-25500D02*
X25500Y-25500D01*
X29500Y-35500D02*
X30000Y-36000D01*
X23000Y-17900D02*
X23000Y-23300D01*
X29500Y-32000D02*
X30000Y-32500D01*
X25500Y-25100D02*
X30000Y-29600D01*
X30000Y-29600D02*
X30000Y-31500D01*
X25100Y-25100D02*
X23300Y-23300D01*
X25500Y-25100D02*
X25100Y-25100D01*
X23300Y-23300D02*
X23300Y-17700D01*
X23600Y-23300D02*
X24800Y-24500D01*
X25000Y-24500D02*
X25300Y-24500D01*
X30500Y-32000D02*
X31000Y-32500D01*
X30500Y-35500D02*
X31000Y-36000D01*
X31000Y-32500D02*
X30500Y-33000D01*
X30500Y-33000D02*
X30500Y-35500D01*
X30500Y-29700D02*
X30500Y-32000D01*
X25300Y-24500D02*
X30500Y-29700D01*
X24800Y-24500D02*
X25000Y-24500D01*
X23600Y-17600D02*
X23600Y-23300D01*
X23300Y-17300D02*
X23600Y-17600D01*
X31000Y-29900D02*
X31000Y-31500D01*
X23100Y-17000D02*
X23400Y-17000D01*
X24700Y-24100D02*
X23800Y-23200D01*
X23000Y-17100D02*
X23100Y-17000D01*
X23400Y-17000D02*
X23800Y-17400D01*
X24800Y-24100D02*
X24700Y-24100D01*
X23800Y-17400D02*
X23800Y-23200D01*
X24800Y-24100D02*
X25200Y-24100D01*
X25200Y-24100D02*
X31000Y-29900D01*
X23000Y-16700D02*
X23100Y-16800D01*
X32000Y-32500D02*
X31500Y-33000D01*
X24000Y-17300D02*
X24000Y-22900D01*
X31500Y-33000D02*
X31500Y-35500D01*
X31500Y-35500D02*
X32000Y-36000D01*
X31500Y-30100D02*
X31500Y-32000D01*
X24800Y-23700D02*
X24000Y-22900D01*
X31500Y-32000D02*
X32000Y-32500D01*
X23100Y-16800D02*
X23500Y-16800D01*
X23500Y-16800D02*
X24000Y-17300D01*
X25100Y-23700D02*
X31500Y-30100D01*
X24800Y-23700D02*
X25100Y-23700D01*
X25000Y-23400D02*
X24200Y-22600D01*
X32000Y-30300D02*
X32000Y-31500D01*
X25000Y-23400D02*
X25100Y-23400D01*
X23500Y-16500D02*
X24200Y-17200D01*
X24200Y-17200D02*
X24200Y-22600D01*
X23300Y-16500D02*
X23500Y-16500D01*
X25100Y-23400D02*
X32000Y-30300D01*
X25600Y-15200D02*
X26800Y-16400D01*
X22600Y-15200D02*
X25600Y-15200D01*
X19500Y-18300D02*
X22600Y-15200D01*
X19300Y-22900D02*
X21500Y-25100D01*
X26800Y-16400D02*
X28000Y-16400D01*
X28000Y-16400D02*
X28100Y-16500D01*
X19300Y-18400D02*
X19300Y-22900D01*
X19400Y-18300D02*
X19300Y-18400D01*
X21500Y-25100D02*
X25500Y-29100D01*
X25500Y-32000D02*
X26000Y-32500D01*
X25500Y-33000D02*
X25500Y-35500D01*
X25500Y-35500D02*
X26000Y-36000D01*
X25500Y-29100D02*
X25500Y-32000D01*
X19400Y-18300D02*
X19500Y-18300D01*
X26000Y-32500D02*
X25500Y-33000D01*
X19600Y-18600D02*
X19700Y-18500D01*
X22700Y-15400D02*
X25500Y-15400D01*
X19600Y-18600D02*
X19500Y-18700D01*
X19700Y-18400D02*
X22700Y-15400D01*
X26800Y-16700D02*
X27800Y-16700D01*
X19500Y-18700D02*
X19500Y-22700D01*
X26000Y-29200D02*
X26000Y-31500D01*
X25500Y-15400D02*
X26800Y-16700D01*
X19700Y-18500D02*
X19700Y-18400D01*
X19500Y-22700D02*
X21500Y-24700D01*
X21500Y-24700D02*
X26000Y-29200D01*
X19700Y-22500D02*
X21500Y-24300D01*
X26500Y-35500D02*
X27000Y-36000D01*
X27000Y-32500D02*
X26500Y-33000D01*
X25400Y-15600D02*
X28200Y-18400D01*
X26500Y-33000D02*
X26500Y-35500D01*
X19900Y-18500D02*
X22800Y-15600D01*
X19900Y-18800D02*
X19900Y-18500D01*
X19800Y-18900D02*
X19900Y-18800D01*
X28200Y-18400D02*
X28600Y-18400D01*
X19800Y-18900D02*
X19700Y-19000D01*
X26500Y-29300D02*
X26500Y-32000D01*
X28600Y-18400D02*
X28700Y-18500D01*
X26500Y-32000D02*
X27000Y-32500D01*
X22800Y-15600D02*
X25400Y-15600D01*
X21500Y-24300D02*
X26500Y-29300D01*
X19700Y-19000D02*
X19700Y-22500D01*
X25300Y-15800D02*
X28100Y-18600D01*
X20100Y-19100D02*
X20100Y-18600D01*
X28300Y-18600D02*
X28400Y-18700D01*
X20100Y-18600D02*
X22900Y-15800D01*
X19900Y-19300D02*
X19900Y-22300D01*
X22900Y-15800D02*
X25300Y-15800D01*
X21500Y-23900D02*
X27000Y-29400D01*
X19900Y-22300D02*
X21500Y-23900D01*
X20000Y-19200D02*
X19900Y-19300D01*
X28100Y-18600D02*
X28300Y-18600D01*
X27000Y-29400D02*
X27000Y-31500D01*
X20000Y-19200D02*
X20100Y-19100D01*
X21500Y-23500D02*
X27500Y-29500D01*
X20300Y-19400D02*
X20300Y-18700D01*
X20300Y-18700D02*
X23000Y-16000D01*
X27500Y-35500D02*
X28000Y-36000D01*
X20100Y-19600D02*
X20200Y-19500D01*
X20200Y-19500D02*
X20100Y-19600D01*
X28000Y-32500D02*
X27500Y-33000D01*
X21500Y-23500D02*
X20100Y-22100D01*
X27500Y-32000D02*
X28000Y-32500D01*
X27500Y-29500D02*
X27500Y-32000D01*
X27500Y-33000D02*
X27500Y-35500D01*
X25200Y-16000D02*
X28100Y-18900D01*
X20100Y-22100D02*
X20100Y-19600D01*
X20200Y-19500D02*
X20300Y-19400D01*
X25200Y-16000D02*
X23000Y-16000D01*
X21900Y-23500D02*
X27800Y-29400D01*
X20400Y-22000D02*
X20400Y-19800D01*
X27800Y-29400D02*
X27800Y-31300D01*
X28000Y-31500D02*
X27800Y-31300D01*
X27800Y-18900D02*
X27800Y-19100D01*
X20500Y-18800D02*
X23100Y-16200D01*
X21900Y-23500D02*
X20400Y-22000D01*
X20500Y-19700D02*
X20500Y-18800D01*
X20400Y-19800D02*
X20500Y-19700D01*
X25100Y-16200D02*
X27800Y-18900D01*
X23100Y-16200D02*
X25100Y-16200D01*
X27800Y-31300D02*
X28000Y-31500D01*
X28500Y-33000D02*
X28500Y-35500D01*
X28500Y-35500D02*
X29000Y-36000D01*
X29000Y-32500D02*
X28500Y-33000D01*
X25500Y-26300D02*
X28500Y-29300D01*
X28500Y-29300D02*
X28500Y-32000D01*
X28500Y-32000D02*
X29000Y-32500D01*
X22400Y-23300D02*
X25400Y-26300D01*
X25400Y-26300D02*
X25500Y-26300D01*
X22400Y-18300D02*
X22400Y-23300D01*
X25400Y-26300D02*
X25500Y-26300D01*
X25400Y-26300D02*
X25500Y-26300D01*
X25500Y-25900D02*
X29000Y-29400D01*
X22700Y-18100D02*
X22700Y-23300D01*
X29000Y-29400D02*
X29000Y-31500D01*
X25500Y-25900D02*
X25300Y-25900D01*
X25300Y-25900D02*
X25500Y-25900D01*
X22700Y-23300D02*
X25300Y-25900D01*
X33500Y-32000D02*
X33500Y-34500D01*
X33500Y-34500D02*
X34000Y-35000D01*
X34000Y-31500D02*
X33500Y-32000D01*
X26100Y-14300D02*
X27100Y-15300D01*
X27100Y-15300D02*
X27900Y-15300D01*
X37000Y-32500D02*
X36500Y-33000D01*
X36500Y-33000D02*
X36500Y-35500D01*
X36500Y-35500D02*
X37000Y-36000D01*
X12500Y-22250D02*
X12500Y-26000D01*
X37500Y-35500D02*
X38000Y-36000D01*
X38000Y-32500D02*
X37500Y-33000D01*
X37500Y-33000D02*
X37500Y-35500D01*
X12500Y-26000D02*
X12000Y-26500D01*
X12000Y-21750D02*
X12500Y-22250D01*
X12000Y-20750D02*
X11500Y-21250D01*
X11500Y-21250D02*
X11500Y-25000D01*
X11500Y-25000D02*
X12000Y-25500D01*
X34500Y-32000D02*
X34500Y-34500D01*
X33000Y-31000D02*
X34500Y-31000D01*
X24400Y-22400D02*
X33000Y-31000D01*
X24400Y-16900D02*
X24400Y-22400D01*
X35000Y-31500D02*
X34500Y-32000D01*
X34500Y-31000D02*
X35000Y-31500D01*
X24700Y-16600D02*
X24400Y-16900D01*
X34500Y-34500D02*
X35000Y-35000D01*
X28150Y-29350D02*
X28150Y-30700D01*
X22100Y-23300D02*
X25500Y-26700D01*
X22100Y-18200D02*
X22100Y-23300D01*
X25500Y-26700D02*
X28150Y-29350D01*
X22400Y-17900D02*
X22100Y-18200D01*
X20900Y-29000D02*
X11500Y-29000D01*
X11500Y-29000D02*
X11000Y-28500D01*
X35500Y-35500D02*
X36000Y-36000D01*
X25100Y-16600D02*
X24600Y-17100D01*
X36000Y-32500D02*
X35500Y-33000D01*
X33100Y-30800D02*
X35000Y-30800D01*
X35500Y-32000D02*
X36000Y-32500D01*
X35500Y-33000D02*
X35500Y-35500D01*
X24600Y-17100D02*
X24600Y-22300D01*
X35500Y-31300D02*
X35500Y-32000D01*
X24600Y-22300D02*
X33100Y-30800D01*
X35000Y-30800D02*
X35500Y-31300D01*
X17400Y-24700D02*
X19600Y-24700D01*
X19600Y-24700D02*
X23300Y-28400D01*
X17100Y-25000D02*
X17400Y-24700D01*
X23300Y-28400D02*
X23300Y-30400D01*
X17100Y-25400D02*
X17100Y-25000D01*
X39000Y-32500D02*
X38500Y-33000D01*
X38500Y-35500D02*
X39000Y-36000D01*
X38500Y-33000D02*
X38500Y-35500D01*
X40000Y-32500D02*
X39500Y-33000D01*
X39500Y-35500D02*
X40000Y-36000D01*
X39500Y-33000D02*
X39500Y-35500D01*
X17200Y-24500D02*
X16900Y-24800D01*
X18600Y-20000D02*
X18600Y-17700D01*
X18600Y-23100D02*
X18600Y-20000D01*
X19500Y-17400D02*
X22300Y-14600D01*
X26000Y-14600D02*
X22300Y-14600D01*
X16900Y-24800D02*
X18600Y-23100D01*
X18600Y-20000D02*
X18600Y-20000D01*
X19700Y-24500D02*
X17200Y-24500D01*
X23700Y-28500D02*
X23700Y-30700D01*
X18600Y-17700D02*
X18900Y-17400D01*
X26100Y-14700D02*
X26000Y-14600D01*
X18900Y-17400D02*
X19500Y-17400D01*
X19700Y-24500D02*
X23700Y-28500D01*
X10500Y-15600D02*
X10500Y-20250D01*
X14500Y-16600D02*
X13400Y-15500D01*
X10600Y-15500D02*
X10500Y-15600D01*
X10500Y-20250D02*
X11000Y-20750D01*
X13400Y-15500D02*
X10600Y-15500D01*
X26500Y-10000D02*
X26500Y-12500D01*
X26500Y-12500D02*
X26000Y-13000D01*
X26000Y-09500D02*
X26500Y-10000D01*
X25500Y-12500D02*
X25000Y-13000D01*
X25000Y-09500D02*
X25500Y-10000D01*
X25500Y-10000D02*
X25500Y-12500D01*
X24500Y-12500D02*
X24000Y-13000D01*
X24500Y-10000D02*
X24500Y-12500D01*
X24000Y-09500D02*
X24500Y-10000D01*
X23500Y-10000D02*
X23500Y-12500D01*
X23500Y-12500D02*
X23000Y-13000D01*
X23000Y-09500D02*
X23500Y-10000D01*
X37500Y-11500D02*
X37000Y-12000D01*
X37000Y-08500D02*
X37500Y-09000D01*
X37500Y-09000D02*
X37500Y-11500D01*
X30000Y-09500D02*
X30500Y-10000D01*
X30500Y-10000D02*
X30500Y-12500D01*
X30500Y-12500D02*
X30000Y-13000D01*
X29500Y-12500D02*
X29000Y-13000D01*
X29500Y-10000D02*
X29500Y-12500D01*
X29000Y-09500D02*
X29500Y-10000D01*
X21500Y-10000D02*
X21500Y-12500D01*
X21500Y-12500D02*
X21000Y-13000D01*
X21000Y-09500D02*
X21500Y-10000D01*
X20500Y-10000D02*
X20500Y-12500D01*
X20500Y-12500D02*
X20000Y-13000D01*
X20000Y-09500D02*
X20500Y-10000D01*
X19500Y-12500D02*
X19000Y-13000D01*
X19000Y-09500D02*
X19500Y-10000D01*
X19500Y-10000D02*
X19500Y-12500D01*
X17500Y-10000D02*
X17500Y-12500D01*
X17500Y-12500D02*
X17000Y-13000D01*
X17000Y-09500D02*
X17500Y-10000D01*
X18500Y-12500D02*
X18000Y-13000D01*
X18000Y-09500D02*
X18500Y-10000D01*
X18500Y-10000D02*
X18500Y-12500D01*
X43700Y-17000D02*
X42800Y-17000D01*
X33500Y-12500D02*
X33500Y-13200D01*
X44000Y-19000D02*
X43500Y-19500D01*
X44000Y-17300D02*
X43700Y-17000D01*
X39300Y-13500D02*
X33800Y-13500D01*
X33500Y-13200D02*
X33800Y-13500D01*
X44000Y-19000D02*
X44000Y-17300D01*
X33000Y-08500D02*
X33500Y-09000D01*
X33500Y-11500D02*
X33000Y-12000D01*
X42800Y-17000D02*
X39300Y-13500D01*
X33000Y-12000D02*
X33500Y-12500D01*
X33500Y-09000D02*
X33500Y-11500D01*
X38700Y-13700D02*
X43500Y-18500D01*
X33700Y-13700D02*
X38700Y-13700D01*
X33000Y-13000D02*
X33700Y-13700D01*
X33200Y-13900D02*
X38600Y-13900D01*
X43000Y-20000D02*
X43500Y-20500D01*
X38600Y-13900D02*
X43000Y-18300D01*
X43000Y-18300D02*
X43000Y-20000D01*
X32500Y-12500D02*
X32500Y-13200D01*
X32500Y-11500D02*
X32000Y-12000D01*
X32000Y-08500D02*
X32500Y-09000D01*
X32500Y-09000D02*
X32500Y-11500D01*
X32000Y-12000D02*
X32500Y-12500D01*
X32500Y-13200D02*
X33200Y-13900D01*
X33100Y-14100D02*
X32000Y-13000D01*
X42800Y-18400D02*
X42800Y-20800D01*
X38500Y-14100D02*
X42800Y-18400D01*
X38500Y-14100D02*
X33100Y-14100D01*
X43500Y-21500D02*
X42800Y-20800D01*
X31500Y-12500D02*
X31000Y-13000D01*
X31000Y-09500D02*
X31500Y-10000D01*
X39200Y-13800D02*
X42900Y-17500D01*
X42900Y-17500D02*
X43500Y-17500D01*
X31500Y-10000D02*
X31500Y-12500D01*
X41000Y-09500D02*
X41500Y-10000D01*
X41500Y-10000D02*
X41500Y-12500D01*
X42750Y-35000D02*
X43500Y-35000D01*
X41500Y-12500D02*
X41000Y-13000D01*
X40500Y-12500D02*
X40000Y-13000D01*
X40500Y-10000D02*
X40500Y-12500D01*
X40000Y-09500D02*
X40500Y-10000D01*
X42500Y-34000D02*
X43500Y-34000D01*
X38500Y-09000D02*
X38500Y-11500D01*
X38500Y-11500D02*
X38000Y-12000D01*
X38000Y-08500D02*
X38500Y-09000D01*
X42000Y-31500D02*
X43500Y-31500D01*
X39000Y-09500D02*
X39500Y-10000D01*
X39500Y-10000D02*
X39500Y-12500D01*
X39500Y-09000D02*
X39000Y-09500D01*
X42700Y-07700D02*
X40100Y-07700D01*
X39500Y-12500D02*
X39000Y-13000D01*
X39500Y-08300D02*
X39500Y-09000D01*
X41750Y-30500D02*
X43500Y-30500D01*
X43500Y-08500D02*
X42700Y-07700D01*
X40100Y-07700D02*
X39500Y-08300D01*
X42250Y-32500D02*
X43500Y-32500D01*
X40000Y-07500D02*
X39000Y-08500D01*
X41500Y-29500D02*
X43500Y-29500D01*
X43500Y-07500D02*
X40000Y-07500D01*
X45200Y-12700D02*
X44500Y-12000D01*
X44500Y-19500D02*
X45200Y-18800D01*
X45000Y-11500D02*
X45000Y-08000D01*
X45200Y-18800D02*
X45200Y-12700D01*
X44500Y-12000D02*
X45000Y-11500D01*
X45000Y-08000D02*
X44500Y-07500D01*
X44000Y-12500D02*
X44000Y-09000D01*
X45000Y-18000D02*
X45000Y-13500D01*
X44500Y-18500D02*
X45000Y-18000D01*
X45000Y-13500D02*
X44500Y-13000D01*
X44500Y-13000D02*
X44000Y-12500D01*
X44000Y-09000D02*
X44500Y-08500D01*
G54D15*
X39725Y-25875D02*
X38325Y-25875D01*
G54D14*
X35000Y-08500D02*
X35500Y-09000D01*
X35500Y-11500D02*
X35000Y-12000D01*
X35500Y-09000D02*
X35500Y-11500D01*
X34500Y-09000D02*
X34500Y-11500D01*
X34500Y-11500D02*
X34000Y-12000D01*
X34000Y-08500D02*
X34500Y-09000D01*
X36500Y-09000D02*
X36500Y-11500D01*
X36500Y-11500D02*
X36000Y-12000D01*
X36000Y-08500D02*
X36500Y-09000D01*
X41000Y-32500D02*
X40500Y-33000D01*
X40500Y-33000D02*
X40500Y-35500D01*
X40500Y-35500D02*
X41000Y-36000D01*
X28000Y-09500D02*
X28500Y-10000D01*
X28500Y-10000D02*
X28500Y-12500D01*
X28500Y-12500D02*
X28000Y-13000D01*
X22500Y-12500D02*
X22000Y-13000D01*
X22500Y-10000D02*
X22500Y-12500D01*
X22000Y-09500D02*
X22500Y-10000D01*
G54D10*
G36*
X22977Y-17500D02*
X22967Y-17525D01*
X22926Y-17525D01*
X22788Y-17582D01*
X22700Y-17670D01*
X22613Y-17583D01*
X22475Y-17525D01*
X22326Y-17525D01*
X22188Y-17582D01*
X22083Y-17687D01*
X22025Y-17825D01*
X22025Y-17865D01*
X21895Y-17995D01*
X21832Y-18089D01*
X21810Y-18200D01*
X21810Y-23000D01*
X20690Y-21880D01*
X20690Y-20040D01*
X20717Y-20013D01*
X20775Y-19875D01*
X20775Y-19775D01*
X20790Y-19700D01*
X20790Y-18920D01*
X22625Y-17085D01*
X22625Y-17174D01*
X22682Y-17312D01*
X22787Y-17417D01*
X22925Y-17475D01*
X22966Y-17475D01*
X22977Y-17500D01*
X22977Y-17500D01*
G37*
G54D16*
X22977Y-17500D02*
X22967Y-17525D01*
X22926Y-17525D01*
X22788Y-17582D01*
X22700Y-17670D01*
X22613Y-17583D01*
X22475Y-17525D01*
X22326Y-17525D01*
X22188Y-17582D01*
X22083Y-17687D01*
X22025Y-17825D01*
X22025Y-17865D01*
X21895Y-17995D01*
X21832Y-18089D01*
X21810Y-18200D01*
X21810Y-23000D01*
X20690Y-21880D01*
X20690Y-20040D01*
X20717Y-20013D01*
X20775Y-19875D01*
X20775Y-19775D01*
X20790Y-19700D01*
X20790Y-18920D01*
X22625Y-17085D01*
X22625Y-17174D01*
X22682Y-17312D01*
X22787Y-17417D01*
X22925Y-17475D01*
X22966Y-17475D01*
X22977Y-17500D01*
G54D10*
G36*
X45175Y-37675D02*
X44999Y-37675D01*
X10325Y-37675D01*
X10325Y-20485D01*
X10451Y-20611D01*
X10451Y-21099D01*
X10489Y-21191D01*
X10559Y-21261D01*
X10650Y-21299D01*
X10675Y-21299D01*
X10535Y-21439D01*
X10451Y-21641D01*
X10451Y-21859D01*
X10535Y-22061D01*
X10689Y-22215D01*
X10773Y-22250D01*
X10689Y-22285D01*
X10535Y-22439D01*
X10451Y-22641D01*
X10451Y-22859D01*
X10535Y-23061D01*
X10689Y-23215D01*
X10773Y-23250D01*
X10689Y-23285D01*
X10535Y-23439D01*
X10451Y-23641D01*
X10451Y-23859D01*
X10535Y-24061D01*
X10689Y-24215D01*
X10891Y-24299D01*
X11109Y-24299D01*
X11210Y-24257D01*
X11210Y-24951D01*
X10651Y-24951D01*
X10559Y-24989D01*
X10489Y-25059D01*
X10451Y-25150D01*
X10451Y-25249D01*
X10451Y-25849D01*
X10489Y-25941D01*
X10559Y-26011D01*
X10650Y-26049D01*
X10675Y-26049D01*
X10535Y-26189D01*
X10451Y-26391D01*
X10451Y-26609D01*
X10535Y-26811D01*
X10689Y-26965D01*
X10773Y-27000D01*
X10689Y-27035D01*
X10535Y-27189D01*
X10451Y-27391D01*
X10451Y-27609D01*
X10535Y-27811D01*
X10689Y-27965D01*
X10773Y-28000D01*
X10689Y-28035D01*
X10535Y-28189D01*
X10451Y-28391D01*
X10451Y-28609D01*
X10535Y-28811D01*
X10689Y-28965D01*
X10891Y-29049D01*
X11109Y-29049D01*
X11130Y-29040D01*
X11295Y-29205D01*
X11389Y-29268D01*
X11500Y-29290D01*
X20539Y-29290D01*
X20525Y-29325D01*
X20525Y-29365D01*
X19575Y-30314D01*
X19574Y-30315D01*
X19506Y-30328D01*
X19488Y-30332D01*
X19394Y-30395D01*
X19079Y-30710D01*
X12800Y-30710D01*
X12689Y-30732D01*
X12595Y-30795D01*
X12333Y-31057D01*
X12311Y-31035D01*
X12109Y-30951D01*
X11891Y-30951D01*
X11689Y-31035D01*
X11535Y-31189D01*
X11451Y-31391D01*
X11451Y-31609D01*
X11459Y-31630D01*
X11295Y-31795D01*
X11232Y-31889D01*
X11210Y-32000D01*
X11210Y-34500D01*
X11232Y-34611D01*
X11295Y-34705D01*
X11459Y-34869D01*
X11451Y-34891D01*
X11451Y-35109D01*
X11535Y-35311D01*
X11675Y-35451D01*
X11651Y-35451D01*
X11559Y-35489D01*
X11489Y-35559D01*
X11451Y-35650D01*
X11451Y-35749D01*
X11451Y-36349D01*
X11489Y-36441D01*
X11559Y-36511D01*
X11650Y-36549D01*
X11749Y-36549D01*
X12349Y-36549D01*
X12441Y-36511D01*
X12511Y-36441D01*
X12549Y-36350D01*
X12549Y-36325D01*
X12689Y-36465D01*
X12891Y-36549D01*
X13109Y-36549D01*
X13311Y-36465D01*
X13465Y-36311D01*
X13500Y-36226D01*
X13535Y-36311D01*
X13689Y-36465D01*
X13891Y-36549D01*
X14109Y-36549D01*
X14311Y-36465D01*
X14465Y-36311D01*
X14500Y-36226D01*
X14535Y-36311D01*
X14689Y-36465D01*
X14891Y-36549D01*
X15109Y-36549D01*
X15311Y-36465D01*
X15465Y-36311D01*
X15500Y-36226D01*
X15535Y-36311D01*
X15689Y-36465D01*
X15891Y-36549D01*
X16109Y-36549D01*
X16311Y-36465D01*
X16465Y-36311D01*
X16500Y-36226D01*
X16535Y-36311D01*
X16689Y-36465D01*
X16891Y-36549D01*
X17109Y-36549D01*
X17311Y-36465D01*
X17465Y-36311D01*
X17500Y-36226D01*
X17535Y-36311D01*
X17689Y-36465D01*
X17891Y-36549D01*
X18109Y-36549D01*
X18311Y-36465D01*
X18465Y-36311D01*
X18500Y-36226D01*
X18535Y-36311D01*
X18689Y-36465D01*
X18891Y-36549D01*
X19109Y-36549D01*
X19311Y-36465D01*
X19465Y-36311D01*
X19500Y-36226D01*
X19535Y-36311D01*
X19689Y-36465D01*
X19891Y-36549D01*
X20109Y-36549D01*
X20311Y-36465D01*
X20465Y-36311D01*
X20500Y-36226D01*
X20535Y-36311D01*
X20689Y-36465D01*
X20891Y-36549D01*
X21109Y-36549D01*
X21311Y-36465D01*
X21465Y-36311D01*
X21500Y-36226D01*
X21535Y-36311D01*
X21689Y-36465D01*
X21891Y-36549D01*
X22109Y-36549D01*
X22311Y-36465D01*
X22465Y-36311D01*
X22500Y-36226D01*
X22535Y-36311D01*
X22689Y-36465D01*
X22891Y-36549D01*
X23109Y-36549D01*
X23311Y-36465D01*
X23465Y-36311D01*
X23500Y-36226D01*
X23535Y-36311D01*
X23689Y-36465D01*
X23891Y-36549D01*
X24109Y-36549D01*
X24311Y-36465D01*
X24465Y-36311D01*
X24500Y-36226D01*
X24535Y-36311D01*
X24689Y-36465D01*
X24891Y-36549D01*
X25109Y-36549D01*
X25311Y-36465D01*
X25465Y-36311D01*
X25500Y-36226D01*
X25535Y-36311D01*
X25689Y-36465D01*
X25891Y-36549D01*
X26109Y-36549D01*
X26311Y-36465D01*
X26465Y-36311D01*
X26500Y-36226D01*
X26535Y-36311D01*
X26689Y-36465D01*
X26891Y-36549D01*
X27109Y-36549D01*
X27311Y-36465D01*
X27465Y-36311D01*
X27500Y-36226D01*
X27535Y-36311D01*
X27689Y-36465D01*
X27891Y-36549D01*
X28109Y-36549D01*
X28311Y-36465D01*
X28465Y-36311D01*
X28500Y-36226D01*
X28535Y-36311D01*
X28689Y-36465D01*
X28891Y-36549D01*
X29109Y-36549D01*
X29311Y-36465D01*
X29465Y-36311D01*
X29500Y-36226D01*
X29535Y-36311D01*
X29689Y-36465D01*
X29891Y-36549D01*
X30109Y-36549D01*
X30311Y-36465D01*
X30465Y-36311D01*
X30500Y-36226D01*
X30535Y-36311D01*
X30689Y-36465D01*
X30891Y-36549D01*
X31109Y-36549D01*
X31311Y-36465D01*
X31465Y-36311D01*
X31500Y-36226D01*
X31535Y-36311D01*
X31689Y-36465D01*
X31891Y-36549D01*
X32109Y-36549D01*
X32311Y-36465D01*
X32465Y-36311D01*
X32500Y-36226D01*
X32535Y-36311D01*
X32689Y-36465D01*
X32891Y-36549D01*
X33109Y-36549D01*
X33311Y-36465D01*
X33465Y-36311D01*
X33500Y-36226D01*
X33535Y-36311D01*
X33689Y-36465D01*
X33891Y-36549D01*
X34109Y-36549D01*
X34311Y-36465D01*
X34465Y-36311D01*
X34500Y-36226D01*
X34535Y-36311D01*
X34689Y-36465D01*
X34891Y-36549D01*
X35109Y-36549D01*
X35311Y-36465D01*
X35465Y-36311D01*
X35500Y-36226D01*
X35535Y-36311D01*
X35689Y-36465D01*
X35891Y-36549D01*
X36109Y-36549D01*
X36311Y-36465D01*
X36465Y-36311D01*
X36500Y-36226D01*
X36535Y-36311D01*
X36689Y-36465D01*
X36891Y-36549D01*
X37109Y-36549D01*
X37311Y-36465D01*
X37465Y-36311D01*
X37500Y-36226D01*
X37535Y-36311D01*
X37689Y-36465D01*
X37891Y-36549D01*
X38109Y-36549D01*
X38311Y-36465D01*
X38465Y-36311D01*
X38500Y-36226D01*
X38535Y-36311D01*
X38689Y-36465D01*
X38891Y-36549D01*
X39109Y-36549D01*
X39311Y-36465D01*
X39465Y-36311D01*
X39500Y-36226D01*
X39535Y-36311D01*
X39689Y-36465D01*
X39891Y-36549D01*
X40109Y-36549D01*
X40311Y-36465D01*
X40465Y-36311D01*
X40500Y-36226D01*
X40535Y-36311D01*
X40689Y-36465D01*
X40891Y-36549D01*
X41109Y-36549D01*
X41311Y-36465D01*
X41465Y-36311D01*
X41549Y-36109D01*
X41549Y-35891D01*
X41543Y-35876D01*
X41543Y-35079D01*
X41532Y-34866D01*
X41472Y-34719D01*
X41378Y-34692D01*
X41071Y-35000D01*
X41378Y-35308D01*
X41472Y-35281D01*
X41543Y-35079D01*
X41543Y-35876D01*
X41465Y-35689D01*
X41311Y-35535D01*
X41219Y-35497D01*
X41281Y-35472D01*
X41308Y-35378D01*
X41035Y-35106D01*
X41000Y-35071D01*
X40929Y-35000D01*
X41000Y-34929D01*
X41035Y-34894D01*
X41308Y-34622D01*
X41281Y-34528D01*
X41079Y-34457D01*
X40866Y-34468D01*
X40790Y-34499D01*
X40790Y-33120D01*
X40869Y-33040D01*
X40891Y-33049D01*
X41109Y-33049D01*
X41311Y-32965D01*
X41465Y-32811D01*
X41549Y-32609D01*
X41549Y-32391D01*
X41543Y-32376D01*
X41543Y-31579D01*
X41532Y-31366D01*
X41472Y-31219D01*
X41378Y-31192D01*
X41308Y-31262D01*
X41308Y-31122D01*
X41281Y-31028D01*
X41079Y-30957D01*
X40866Y-30968D01*
X40719Y-31028D01*
X40692Y-31122D01*
X41000Y-31429D01*
X41308Y-31122D01*
X41308Y-31262D01*
X41071Y-31500D01*
X41378Y-31808D01*
X41472Y-31781D01*
X41543Y-31579D01*
X41543Y-32376D01*
X41465Y-32189D01*
X41311Y-32035D01*
X41219Y-31997D01*
X41281Y-31972D01*
X41308Y-31878D01*
X41000Y-31571D01*
X40692Y-31878D01*
X40719Y-31972D01*
X40784Y-31995D01*
X40689Y-32035D01*
X40535Y-32189D01*
X40500Y-32273D01*
X40465Y-32189D01*
X40311Y-32035D01*
X40226Y-32000D01*
X40311Y-31965D01*
X40465Y-31811D01*
X40502Y-31719D01*
X40528Y-31781D01*
X40622Y-31808D01*
X40929Y-31500D01*
X40622Y-31192D01*
X40528Y-31219D01*
X40504Y-31284D01*
X40465Y-31189D01*
X40311Y-31035D01*
X40109Y-30951D01*
X40100Y-30951D01*
X40100Y-25950D01*
X40100Y-25801D01*
X40043Y-25663D01*
X39938Y-25558D01*
X39800Y-25500D01*
X39651Y-25500D01*
X39590Y-25525D01*
X38675Y-25525D01*
X38675Y-22475D01*
X38675Y-22326D01*
X38618Y-22188D01*
X38513Y-22083D01*
X38375Y-22025D01*
X38226Y-22025D01*
X38088Y-22082D01*
X37983Y-22187D01*
X37925Y-22325D01*
X37925Y-22474D01*
X37982Y-22612D01*
X38087Y-22717D01*
X38225Y-22775D01*
X38374Y-22775D01*
X38512Y-22718D01*
X38617Y-22613D01*
X38675Y-22475D01*
X38675Y-25525D01*
X38459Y-25525D01*
X38400Y-25500D01*
X38251Y-25500D01*
X38113Y-25557D01*
X38008Y-25662D01*
X37950Y-25800D01*
X37950Y-25949D01*
X38007Y-26087D01*
X38112Y-26192D01*
X38250Y-26250D01*
X38399Y-26250D01*
X38459Y-26225D01*
X39590Y-26225D01*
X39650Y-26250D01*
X39799Y-26250D01*
X39937Y-26193D01*
X40042Y-26088D01*
X40100Y-25950D01*
X40100Y-30951D01*
X39891Y-30951D01*
X39689Y-31035D01*
X39535Y-31189D01*
X39500Y-31273D01*
X39465Y-31189D01*
X39311Y-31035D01*
X39109Y-30951D01*
X38891Y-30951D01*
X38689Y-31035D01*
X38535Y-31189D01*
X38500Y-31273D01*
X38465Y-31189D01*
X38311Y-31035D01*
X38109Y-30951D01*
X37891Y-30951D01*
X37775Y-30999D01*
X37775Y-26575D01*
X37775Y-26426D01*
X37718Y-26288D01*
X37613Y-26183D01*
X37475Y-26125D01*
X37326Y-26125D01*
X37188Y-26182D01*
X37083Y-26287D01*
X37049Y-26367D01*
X37049Y-22350D01*
X37049Y-22251D01*
X37049Y-21651D01*
X37011Y-21559D01*
X36941Y-21489D01*
X36850Y-21451D01*
X36751Y-21451D01*
X36375Y-21451D01*
X36375Y-20375D01*
X36375Y-20226D01*
X36375Y-14875D01*
X36375Y-14726D01*
X36318Y-14588D01*
X36213Y-14483D01*
X36075Y-14425D01*
X35926Y-14425D01*
X35788Y-14482D01*
X35683Y-14587D01*
X35625Y-14725D01*
X35625Y-14874D01*
X35682Y-15012D01*
X35787Y-15117D01*
X35925Y-15175D01*
X36074Y-15175D01*
X36212Y-15118D01*
X36317Y-15013D01*
X36375Y-14875D01*
X36375Y-20226D01*
X36318Y-20088D01*
X36213Y-19983D01*
X36075Y-19925D01*
X35926Y-19925D01*
X35788Y-19982D01*
X35683Y-20087D01*
X35625Y-20225D01*
X35625Y-20374D01*
X35682Y-20512D01*
X35787Y-20617D01*
X35925Y-20675D01*
X36074Y-20675D01*
X36212Y-20618D01*
X36317Y-20513D01*
X36375Y-20375D01*
X36375Y-21451D01*
X36151Y-21451D01*
X36059Y-21489D01*
X35989Y-21559D01*
X35951Y-21650D01*
X35951Y-21675D01*
X35811Y-21535D01*
X35609Y-21451D01*
X35391Y-21451D01*
X35189Y-21535D01*
X35035Y-21689D01*
X34951Y-21891D01*
X34951Y-22109D01*
X35035Y-22311D01*
X35189Y-22465D01*
X35391Y-22549D01*
X35609Y-22549D01*
X35811Y-22465D01*
X35951Y-22325D01*
X35951Y-22349D01*
X35989Y-22441D01*
X36059Y-22511D01*
X36150Y-22549D01*
X36249Y-22549D01*
X36849Y-22549D01*
X36941Y-22511D01*
X37011Y-22441D01*
X37049Y-22350D01*
X37049Y-26367D01*
X37025Y-26425D01*
X37025Y-26574D01*
X37082Y-26712D01*
X37187Y-26817D01*
X37325Y-26875D01*
X37474Y-26875D01*
X37612Y-26818D01*
X37717Y-26713D01*
X37775Y-26575D01*
X37775Y-30999D01*
X37689Y-31035D01*
X37535Y-31189D01*
X37500Y-31273D01*
X37465Y-31189D01*
X37311Y-31035D01*
X37109Y-30951D01*
X36975Y-30951D01*
X36975Y-28675D01*
X36975Y-28526D01*
X36918Y-28388D01*
X36890Y-28360D01*
X36890Y-28200D01*
X36871Y-28106D01*
X36868Y-28089D01*
X36868Y-28088D01*
X36805Y-27995D01*
X36805Y-27994D01*
X36575Y-27764D01*
X36575Y-27726D01*
X36518Y-27588D01*
X36413Y-27483D01*
X36275Y-27425D01*
X36126Y-27425D01*
X35988Y-27482D01*
X35883Y-27587D01*
X35825Y-27725D01*
X35825Y-27874D01*
X35882Y-28012D01*
X35987Y-28117D01*
X36125Y-28175D01*
X36164Y-28175D01*
X36310Y-28320D01*
X36310Y-28360D01*
X36283Y-28387D01*
X36225Y-28525D01*
X36225Y-28674D01*
X36282Y-28812D01*
X36387Y-28917D01*
X36525Y-28975D01*
X36674Y-28975D01*
X36812Y-28918D01*
X36917Y-28813D01*
X36975Y-28675D01*
X36975Y-30951D01*
X36891Y-30951D01*
X36689Y-31035D01*
X36535Y-31189D01*
X36500Y-31273D01*
X36465Y-31189D01*
X36311Y-31035D01*
X36109Y-30951D01*
X35891Y-30951D01*
X35689Y-31035D01*
X35667Y-31057D01*
X35205Y-30595D01*
X35111Y-30532D01*
X35000Y-30510D01*
X34575Y-30510D01*
X34575Y-17775D01*
X34575Y-17626D01*
X34518Y-17488D01*
X34413Y-17383D01*
X34275Y-17325D01*
X34126Y-17325D01*
X33988Y-17382D01*
X33883Y-17487D01*
X33825Y-17625D01*
X33825Y-17774D01*
X33882Y-17912D01*
X33987Y-18017D01*
X34125Y-18075D01*
X34274Y-18075D01*
X34412Y-18018D01*
X34517Y-17913D01*
X34575Y-17775D01*
X34575Y-30510D01*
X33220Y-30510D01*
X25975Y-23265D01*
X25975Y-18275D01*
X25975Y-18126D01*
X25918Y-17988D01*
X25813Y-17883D01*
X25675Y-17825D01*
X25526Y-17825D01*
X25388Y-17882D01*
X25283Y-17987D01*
X25225Y-18125D01*
X25225Y-18274D01*
X25282Y-18412D01*
X25387Y-18517D01*
X25525Y-18575D01*
X25674Y-18575D01*
X25812Y-18518D01*
X25917Y-18413D01*
X25975Y-18275D01*
X25975Y-23265D01*
X25875Y-23165D01*
X25875Y-21075D01*
X25875Y-20926D01*
X25818Y-20788D01*
X25713Y-20683D01*
X25575Y-20625D01*
X25426Y-20625D01*
X25288Y-20682D01*
X25183Y-20787D01*
X25125Y-20925D01*
X25125Y-21074D01*
X25182Y-21212D01*
X25287Y-21317D01*
X25425Y-21375D01*
X25574Y-21375D01*
X25712Y-21318D01*
X25817Y-21213D01*
X25875Y-21075D01*
X25875Y-23165D01*
X24890Y-22180D01*
X24890Y-17220D01*
X25135Y-16975D01*
X25174Y-16975D01*
X25312Y-16918D01*
X25360Y-16870D01*
X27451Y-18961D01*
X27425Y-19025D01*
X27425Y-19174D01*
X27482Y-19312D01*
X27587Y-19417D01*
X27725Y-19475D01*
X27874Y-19475D01*
X28012Y-19418D01*
X28117Y-19313D01*
X28132Y-19275D01*
X28174Y-19275D01*
X28312Y-19218D01*
X28417Y-19113D01*
X28432Y-19075D01*
X28474Y-19075D01*
X28612Y-19018D01*
X28717Y-18913D01*
X28732Y-18875D01*
X28774Y-18875D01*
X28912Y-18818D01*
X29017Y-18713D01*
X29075Y-18575D01*
X29075Y-18426D01*
X29018Y-18288D01*
X28913Y-18183D01*
X28775Y-18125D01*
X28675Y-18125D01*
X28600Y-18110D01*
X28320Y-18110D01*
X27200Y-16990D01*
X27560Y-16990D01*
X27587Y-17017D01*
X27725Y-17075D01*
X27874Y-17075D01*
X28012Y-17018D01*
X28117Y-16913D01*
X28132Y-16875D01*
X28174Y-16875D01*
X28312Y-16818D01*
X28417Y-16713D01*
X28432Y-16675D01*
X28474Y-16675D01*
X28612Y-16618D01*
X28717Y-16513D01*
X28732Y-16475D01*
X28774Y-16475D01*
X28912Y-16418D01*
X29017Y-16313D01*
X29075Y-16175D01*
X29075Y-16026D01*
X29018Y-15888D01*
X28913Y-15783D01*
X28775Y-15725D01*
X28675Y-15725D01*
X28600Y-15710D01*
X27120Y-15710D01*
X26955Y-15545D01*
X26989Y-15568D01*
X27100Y-15590D01*
X27660Y-15590D01*
X27687Y-15617D01*
X27825Y-15675D01*
X27974Y-15675D01*
X28112Y-15618D01*
X28217Y-15513D01*
X28275Y-15375D01*
X28275Y-15226D01*
X28218Y-15088D01*
X28113Y-14983D01*
X27975Y-14925D01*
X27826Y-14925D01*
X27688Y-14982D01*
X27660Y-15010D01*
X27220Y-15010D01*
X26475Y-14265D01*
X26475Y-14226D01*
X26418Y-14088D01*
X26313Y-13983D01*
X26175Y-13925D01*
X26026Y-13925D01*
X25888Y-13982D01*
X25783Y-14087D01*
X25725Y-14225D01*
X25725Y-14310D01*
X22300Y-14310D01*
X22189Y-14332D01*
X22095Y-14395D01*
X22094Y-14395D01*
X22094Y-14396D01*
X19380Y-17110D01*
X18900Y-17110D01*
X18789Y-17132D01*
X18695Y-17195D01*
X18395Y-17495D01*
X18332Y-17589D01*
X18310Y-17700D01*
X18310Y-19639D01*
X18275Y-19625D01*
X18126Y-19625D01*
X17999Y-19677D01*
X17875Y-19625D01*
X17726Y-19625D01*
X17599Y-19677D01*
X17475Y-19625D01*
X17433Y-19625D01*
X17418Y-19588D01*
X17313Y-19483D01*
X17175Y-19425D01*
X17026Y-19425D01*
X16888Y-19482D01*
X16783Y-19587D01*
X16767Y-19625D01*
X16726Y-19625D01*
X16588Y-19682D01*
X16483Y-19787D01*
X16425Y-19925D01*
X16425Y-20074D01*
X16482Y-20212D01*
X16510Y-20240D01*
X16510Y-23180D01*
X16308Y-23382D01*
X16308Y-13378D01*
X16000Y-13071D01*
X15692Y-13378D01*
X15719Y-13472D01*
X15921Y-13543D01*
X16134Y-13532D01*
X16281Y-13472D01*
X16308Y-13378D01*
X16308Y-23382D01*
X15595Y-24095D01*
X15532Y-24189D01*
X15510Y-24300D01*
X15510Y-25700D01*
X15532Y-25811D01*
X15595Y-25905D01*
X16694Y-27005D01*
X16695Y-27005D01*
X16789Y-27068D01*
X16900Y-27090D01*
X19479Y-27090D01*
X20910Y-28520D01*
X20910Y-28625D01*
X20826Y-28625D01*
X20688Y-28682D01*
X20660Y-28710D01*
X14775Y-28710D01*
X14775Y-25075D01*
X14775Y-24926D01*
X14718Y-24788D01*
X14613Y-24683D01*
X14475Y-24625D01*
X14326Y-24625D01*
X14188Y-24682D01*
X14083Y-24787D01*
X14025Y-24925D01*
X14025Y-25074D01*
X14082Y-25212D01*
X14187Y-25317D01*
X14325Y-25375D01*
X14474Y-25375D01*
X14612Y-25318D01*
X14717Y-25213D01*
X14775Y-25075D01*
X14775Y-28710D01*
X12507Y-28710D01*
X12549Y-28609D01*
X12549Y-28391D01*
X12465Y-28189D01*
X12311Y-28035D01*
X12226Y-28000D01*
X12311Y-27965D01*
X12465Y-27811D01*
X12549Y-27609D01*
X12549Y-27391D01*
X12465Y-27189D01*
X12311Y-27035D01*
X12226Y-27000D01*
X12311Y-26965D01*
X12465Y-26811D01*
X12549Y-26609D01*
X12549Y-26391D01*
X12540Y-26369D01*
X12705Y-26205D01*
X12768Y-26111D01*
X12790Y-26000D01*
X12790Y-22250D01*
X12768Y-22139D01*
X12705Y-22045D01*
X12540Y-21880D01*
X12549Y-21859D01*
X12549Y-21641D01*
X12465Y-21439D01*
X12311Y-21285D01*
X12226Y-21250D01*
X12311Y-21215D01*
X12465Y-21061D01*
X12549Y-20859D01*
X12549Y-20641D01*
X12465Y-20439D01*
X12311Y-20285D01*
X12109Y-20201D01*
X11891Y-20201D01*
X11689Y-20285D01*
X11549Y-20425D01*
X11549Y-20401D01*
X11511Y-20309D01*
X11441Y-20239D01*
X11350Y-20201D01*
X11251Y-20201D01*
X10861Y-20201D01*
X10790Y-20130D01*
X10790Y-19507D01*
X10891Y-19549D01*
X11109Y-19549D01*
X11311Y-19465D01*
X11465Y-19311D01*
X11500Y-19226D01*
X11535Y-19311D01*
X11689Y-19465D01*
X11891Y-19549D01*
X12109Y-19549D01*
X12311Y-19465D01*
X12465Y-19311D01*
X12549Y-19109D01*
X12549Y-18891D01*
X12465Y-18689D01*
X12311Y-18535D01*
X12226Y-18500D01*
X12311Y-18465D01*
X12465Y-18311D01*
X12549Y-18109D01*
X12549Y-17891D01*
X12465Y-17689D01*
X12311Y-17535D01*
X12226Y-17500D01*
X12311Y-17465D01*
X12465Y-17311D01*
X12549Y-17109D01*
X12549Y-16891D01*
X12465Y-16689D01*
X12311Y-16535D01*
X12226Y-16500D01*
X12311Y-16465D01*
X12465Y-16311D01*
X12549Y-16109D01*
X12549Y-15891D01*
X12507Y-15790D01*
X13279Y-15790D01*
X14125Y-16635D01*
X14125Y-16674D01*
X14182Y-16812D01*
X14287Y-16917D01*
X14315Y-16929D01*
X14188Y-16982D01*
X14083Y-17087D01*
X14025Y-17225D01*
X14025Y-17374D01*
X14082Y-17512D01*
X14187Y-17617D01*
X14325Y-17675D01*
X14474Y-17675D01*
X14612Y-17618D01*
X14717Y-17513D01*
X14775Y-17375D01*
X14775Y-17226D01*
X14718Y-17088D01*
X14613Y-16983D01*
X14584Y-16970D01*
X14712Y-16918D01*
X14817Y-16813D01*
X14875Y-16675D01*
X14875Y-16526D01*
X14818Y-16388D01*
X14713Y-16283D01*
X14575Y-16225D01*
X14535Y-16225D01*
X13605Y-15295D01*
X13511Y-15232D01*
X13400Y-15210D01*
X10600Y-15210D01*
X10489Y-15232D01*
X10395Y-15295D01*
X10325Y-15365D01*
X10325Y-06825D01*
X45175Y-06825D01*
X45175Y-07765D01*
X45040Y-07630D01*
X45049Y-07609D01*
X45049Y-07391D01*
X44965Y-07189D01*
X44811Y-07035D01*
X44609Y-06951D01*
X44391Y-06951D01*
X44189Y-07035D01*
X44049Y-07175D01*
X44049Y-07151D01*
X44011Y-07059D01*
X43941Y-06989D01*
X43850Y-06951D01*
X43751Y-06951D01*
X43151Y-06951D01*
X43059Y-06989D01*
X42989Y-07059D01*
X42951Y-07150D01*
X42951Y-07210D01*
X40000Y-07210D01*
X39889Y-07232D01*
X39795Y-07295D01*
X39130Y-07959D01*
X39109Y-07951D01*
X38891Y-07951D01*
X38689Y-08035D01*
X38535Y-08189D01*
X38500Y-08273D01*
X38465Y-08189D01*
X38311Y-08035D01*
X38109Y-07951D01*
X37891Y-07951D01*
X37689Y-08035D01*
X37535Y-08189D01*
X37500Y-08273D01*
X37465Y-08189D01*
X37311Y-08035D01*
X37109Y-07951D01*
X36891Y-07951D01*
X36689Y-08035D01*
X36535Y-08189D01*
X36500Y-08273D01*
X36465Y-08189D01*
X36311Y-08035D01*
X36109Y-07951D01*
X35891Y-07951D01*
X35689Y-08035D01*
X35535Y-08189D01*
X35500Y-08273D01*
X35465Y-08189D01*
X35311Y-08035D01*
X35109Y-07951D01*
X34891Y-07951D01*
X34689Y-08035D01*
X34535Y-08189D01*
X34500Y-08273D01*
X34465Y-08189D01*
X34311Y-08035D01*
X34109Y-07951D01*
X33891Y-07951D01*
X33689Y-08035D01*
X33535Y-08189D01*
X33500Y-08273D01*
X33465Y-08189D01*
X33311Y-08035D01*
X33109Y-07951D01*
X32891Y-07951D01*
X32689Y-08035D01*
X32535Y-08189D01*
X32500Y-08273D01*
X32465Y-08189D01*
X32311Y-08035D01*
X32109Y-07951D01*
X31891Y-07951D01*
X31689Y-08035D01*
X31535Y-08189D01*
X31500Y-08273D01*
X31465Y-08189D01*
X31311Y-08035D01*
X31109Y-07951D01*
X30891Y-07951D01*
X30689Y-08035D01*
X30535Y-08189D01*
X30500Y-08273D01*
X30465Y-08189D01*
X30311Y-08035D01*
X30109Y-07951D01*
X29891Y-07951D01*
X29689Y-08035D01*
X29535Y-08189D01*
X29500Y-08273D01*
X29465Y-08189D01*
X29311Y-08035D01*
X29109Y-07951D01*
X28891Y-07951D01*
X28689Y-08035D01*
X28535Y-08189D01*
X28500Y-08273D01*
X28465Y-08189D01*
X28311Y-08035D01*
X28109Y-07951D01*
X27891Y-07951D01*
X27689Y-08035D01*
X27535Y-08189D01*
X27500Y-08273D01*
X27465Y-08189D01*
X27311Y-08035D01*
X27109Y-07951D01*
X26891Y-07951D01*
X26689Y-08035D01*
X26535Y-08189D01*
X26500Y-08273D01*
X26465Y-08189D01*
X26311Y-08035D01*
X26109Y-07951D01*
X25891Y-07951D01*
X25689Y-08035D01*
X25535Y-08189D01*
X25500Y-08273D01*
X25465Y-08189D01*
X25311Y-08035D01*
X25109Y-07951D01*
X24891Y-07951D01*
X24689Y-08035D01*
X24535Y-08189D01*
X24500Y-08273D01*
X24465Y-08189D01*
X24311Y-08035D01*
X24109Y-07951D01*
X23891Y-07951D01*
X23689Y-08035D01*
X23535Y-08189D01*
X23500Y-08273D01*
X23465Y-08189D01*
X23311Y-08035D01*
X23109Y-07951D01*
X22891Y-07951D01*
X22689Y-08035D01*
X22535Y-08189D01*
X22500Y-08273D01*
X22465Y-08189D01*
X22311Y-08035D01*
X22109Y-07951D01*
X21891Y-07951D01*
X21689Y-08035D01*
X21535Y-08189D01*
X21500Y-08273D01*
X21465Y-08189D01*
X21311Y-08035D01*
X21109Y-07951D01*
X20891Y-07951D01*
X20689Y-08035D01*
X20535Y-08189D01*
X20500Y-08273D01*
X20465Y-08189D01*
X20311Y-08035D01*
X20109Y-07951D01*
X19891Y-07951D01*
X19689Y-08035D01*
X19535Y-08189D01*
X19500Y-08273D01*
X19465Y-08189D01*
X19311Y-08035D01*
X19109Y-07951D01*
X18891Y-07951D01*
X18689Y-08035D01*
X18535Y-08189D01*
X18500Y-08273D01*
X18465Y-08189D01*
X18311Y-08035D01*
X18109Y-07951D01*
X17891Y-07951D01*
X17689Y-08035D01*
X17535Y-08189D01*
X17500Y-08273D01*
X17465Y-08189D01*
X17311Y-08035D01*
X17109Y-07951D01*
X16891Y-07951D01*
X16689Y-08035D01*
X16535Y-08189D01*
X16497Y-08280D01*
X16472Y-08219D01*
X16378Y-08192D01*
X16308Y-08262D01*
X16308Y-08122D01*
X16281Y-08028D01*
X16079Y-07957D01*
X15866Y-07968D01*
X15719Y-08028D01*
X15692Y-08122D01*
X16000Y-08429D01*
X16308Y-08122D01*
X16308Y-08262D01*
X16071Y-08500D01*
X16378Y-08808D01*
X16472Y-08781D01*
X16495Y-08715D01*
X16535Y-08811D01*
X16689Y-08965D01*
X16773Y-09000D01*
X16689Y-09035D01*
X16535Y-09189D01*
X16497Y-09280D01*
X16472Y-09219D01*
X16378Y-09192D01*
X16308Y-09262D01*
X16308Y-09122D01*
X16281Y-09028D01*
X16207Y-09002D01*
X16281Y-08972D01*
X16308Y-08878D01*
X16000Y-08571D01*
X15692Y-08878D01*
X15719Y-08972D01*
X15792Y-08997D01*
X15719Y-09028D01*
X15692Y-09122D01*
X16000Y-09429D01*
X16308Y-09122D01*
X16308Y-09262D01*
X16071Y-09500D01*
X16378Y-09808D01*
X16472Y-09781D01*
X16495Y-09715D01*
X16535Y-09811D01*
X16689Y-09965D01*
X16891Y-10049D01*
X17109Y-10049D01*
X17130Y-10040D01*
X17210Y-10120D01*
X17210Y-11493D01*
X17109Y-11451D01*
X16891Y-11451D01*
X16689Y-11535D01*
X16535Y-11689D01*
X16497Y-11780D01*
X16472Y-11719D01*
X16378Y-11692D01*
X16071Y-12000D01*
X16378Y-12308D01*
X16472Y-12281D01*
X16495Y-12215D01*
X16535Y-12311D01*
X16689Y-12465D01*
X16773Y-12500D01*
X16689Y-12535D01*
X16535Y-12689D01*
X16497Y-12780D01*
X16472Y-12719D01*
X16378Y-12692D01*
X16308Y-12762D01*
X16308Y-12622D01*
X16281Y-12528D01*
X16207Y-12502D01*
X16281Y-12472D01*
X16308Y-12378D01*
X16035Y-12106D01*
X16000Y-12071D01*
X15929Y-12000D01*
X16000Y-11929D01*
X16035Y-11894D01*
X16308Y-11622D01*
X16281Y-11528D01*
X16079Y-11457D01*
X15866Y-11468D01*
X15790Y-11499D01*
X15790Y-10000D01*
X15789Y-09996D01*
X15921Y-10043D01*
X16134Y-10032D01*
X16281Y-09972D01*
X16308Y-09878D01*
X16035Y-09606D01*
X16000Y-09571D01*
X15929Y-09500D01*
X15894Y-09465D01*
X15622Y-09192D01*
X15528Y-09219D01*
X15504Y-09284D01*
X15465Y-09189D01*
X15311Y-09035D01*
X15226Y-09000D01*
X15311Y-08965D01*
X15465Y-08811D01*
X15502Y-08719D01*
X15528Y-08781D01*
X15622Y-08808D01*
X15929Y-08500D01*
X15622Y-08192D01*
X15528Y-08219D01*
X15504Y-08284D01*
X15465Y-08189D01*
X15311Y-08035D01*
X15109Y-07951D01*
X14891Y-07951D01*
X14689Y-08035D01*
X14535Y-08189D01*
X14500Y-08273D01*
X14465Y-08189D01*
X14311Y-08035D01*
X14109Y-07951D01*
X13891Y-07951D01*
X13689Y-08035D01*
X13535Y-08189D01*
X13500Y-08273D01*
X13465Y-08189D01*
X13311Y-08035D01*
X13109Y-07951D01*
X12891Y-07951D01*
X12689Y-08035D01*
X12535Y-08189D01*
X12500Y-08273D01*
X12465Y-08189D01*
X12311Y-08035D01*
X12109Y-07951D01*
X11891Y-07951D01*
X11689Y-08035D01*
X11535Y-08189D01*
X11451Y-08391D01*
X11451Y-08609D01*
X11535Y-08811D01*
X11689Y-08965D01*
X11773Y-09000D01*
X11689Y-09035D01*
X11535Y-09189D01*
X11451Y-09391D01*
X11451Y-09609D01*
X11535Y-09811D01*
X11689Y-09965D01*
X11891Y-10049D01*
X12109Y-10049D01*
X12130Y-10040D01*
X12210Y-10120D01*
X12210Y-11493D01*
X12109Y-11451D01*
X11891Y-11451D01*
X11689Y-11535D01*
X11535Y-11689D01*
X11451Y-11891D01*
X11451Y-12109D01*
X11535Y-12311D01*
X11689Y-12465D01*
X11773Y-12500D01*
X11689Y-12535D01*
X11535Y-12689D01*
X11451Y-12891D01*
X11451Y-13109D01*
X11535Y-13311D01*
X11689Y-13465D01*
X11891Y-13549D01*
X12109Y-13549D01*
X12311Y-13465D01*
X12465Y-13311D01*
X12500Y-13226D01*
X12535Y-13311D01*
X12689Y-13465D01*
X12891Y-13549D01*
X13109Y-13549D01*
X13311Y-13465D01*
X13465Y-13311D01*
X13500Y-13226D01*
X13535Y-13311D01*
X13689Y-13465D01*
X13891Y-13549D01*
X14109Y-13549D01*
X14311Y-13465D01*
X14465Y-13311D01*
X14500Y-13226D01*
X14535Y-13311D01*
X14689Y-13465D01*
X14891Y-13549D01*
X15109Y-13549D01*
X15311Y-13465D01*
X15465Y-13311D01*
X15502Y-13219D01*
X15528Y-13281D01*
X15622Y-13308D01*
X15894Y-13035D01*
X15929Y-13000D01*
X16000Y-12929D01*
X16035Y-12894D01*
X16308Y-12622D01*
X16308Y-12762D01*
X16071Y-13000D01*
X16378Y-13308D01*
X16472Y-13281D01*
X16495Y-13215D01*
X16535Y-13311D01*
X16689Y-13465D01*
X16891Y-13549D01*
X17109Y-13549D01*
X17311Y-13465D01*
X17465Y-13311D01*
X17500Y-13226D01*
X17535Y-13311D01*
X17689Y-13465D01*
X17891Y-13549D01*
X18109Y-13549D01*
X18311Y-13465D01*
X18465Y-13311D01*
X18500Y-13226D01*
X18535Y-13311D01*
X18689Y-13465D01*
X18891Y-13549D01*
X19109Y-13549D01*
X19311Y-13465D01*
X19465Y-13311D01*
X19500Y-13226D01*
X19535Y-13311D01*
X19689Y-13465D01*
X19891Y-13549D01*
X20109Y-13549D01*
X20311Y-13465D01*
X20465Y-13311D01*
X20500Y-13226D01*
X20535Y-13311D01*
X20689Y-13465D01*
X20891Y-13549D01*
X21109Y-13549D01*
X21311Y-13465D01*
X21465Y-13311D01*
X21500Y-13226D01*
X21535Y-13311D01*
X21689Y-13465D01*
X21891Y-13549D01*
X22109Y-13549D01*
X22311Y-13465D01*
X22465Y-13311D01*
X22500Y-13226D01*
X22535Y-13311D01*
X22689Y-13465D01*
X22891Y-13549D01*
X23109Y-13549D01*
X23311Y-13465D01*
X23465Y-13311D01*
X23500Y-13226D01*
X23535Y-13311D01*
X23689Y-13465D01*
X23891Y-13549D01*
X24109Y-13549D01*
X24311Y-13465D01*
X24465Y-13311D01*
X24500Y-13226D01*
X24535Y-13311D01*
X24689Y-13465D01*
X24891Y-13549D01*
X25109Y-13549D01*
X25311Y-13465D01*
X25465Y-13311D01*
X25500Y-13226D01*
X25535Y-13311D01*
X25689Y-13465D01*
X25891Y-13549D01*
X26109Y-13549D01*
X26311Y-13465D01*
X26465Y-13311D01*
X26500Y-13226D01*
X26535Y-13311D01*
X26689Y-13465D01*
X26891Y-13549D01*
X27109Y-13549D01*
X27311Y-13465D01*
X27465Y-13311D01*
X27500Y-13226D01*
X27535Y-13311D01*
X27689Y-13465D01*
X27891Y-13549D01*
X28109Y-13549D01*
X28311Y-13465D01*
X28465Y-13311D01*
X28500Y-13226D01*
X28535Y-13311D01*
X28689Y-13465D01*
X28891Y-13549D01*
X29109Y-13549D01*
X29311Y-13465D01*
X29465Y-13311D01*
X29500Y-13226D01*
X29535Y-13311D01*
X29689Y-13465D01*
X29891Y-13549D01*
X30109Y-13549D01*
X30311Y-13465D01*
X30465Y-13311D01*
X30500Y-13226D01*
X30535Y-13311D01*
X30689Y-13465D01*
X30891Y-13549D01*
X31109Y-13549D01*
X31311Y-13465D01*
X31465Y-13311D01*
X31500Y-13226D01*
X31535Y-13311D01*
X31689Y-13465D01*
X31891Y-13549D01*
X32109Y-13549D01*
X32129Y-13540D01*
X32894Y-14305D01*
X32895Y-14305D01*
X32989Y-14368D01*
X33100Y-14390D01*
X38380Y-14390D01*
X42510Y-18520D01*
X42510Y-20800D01*
X42532Y-20911D01*
X42595Y-21005D01*
X42959Y-21369D01*
X42951Y-21391D01*
X42951Y-21609D01*
X43035Y-21811D01*
X43189Y-21965D01*
X43391Y-22049D01*
X43609Y-22049D01*
X43811Y-21965D01*
X43965Y-21811D01*
X44000Y-21726D01*
X44035Y-21811D01*
X44189Y-21965D01*
X44391Y-22049D01*
X44609Y-22049D01*
X44811Y-21965D01*
X44965Y-21811D01*
X45049Y-21609D01*
X45049Y-21391D01*
X44965Y-21189D01*
X44811Y-21035D01*
X44726Y-21000D01*
X44811Y-20965D01*
X44965Y-20811D01*
X45049Y-20609D01*
X45049Y-20391D01*
X44965Y-20189D01*
X44811Y-20035D01*
X44726Y-20000D01*
X44811Y-19965D01*
X44965Y-19811D01*
X45049Y-19609D01*
X45049Y-19391D01*
X45040Y-19369D01*
X45175Y-19235D01*
X45175Y-29765D01*
X45040Y-29630D01*
X45049Y-29609D01*
X45049Y-29391D01*
X44999Y-29270D01*
X44999Y-27802D01*
X44999Y-27096D01*
X44999Y-24652D01*
X44999Y-23946D01*
X44293Y-23946D01*
X44293Y-24652D01*
X44999Y-24652D01*
X44999Y-27096D01*
X44293Y-27096D01*
X44293Y-27802D01*
X44999Y-27802D01*
X44999Y-29270D01*
X44965Y-29189D01*
X44811Y-29035D01*
X44609Y-28951D01*
X44391Y-28951D01*
X44189Y-29035D01*
X44049Y-29175D01*
X44049Y-29151D01*
X44011Y-29059D01*
X43941Y-28989D01*
X43850Y-28951D01*
X43751Y-28951D01*
X43151Y-28951D01*
X43059Y-28989D01*
X42989Y-29059D01*
X42951Y-29150D01*
X42951Y-29210D01*
X41740Y-29210D01*
X41713Y-29183D01*
X41575Y-29125D01*
X41426Y-29125D01*
X41288Y-29182D01*
X41183Y-29287D01*
X41125Y-29425D01*
X41125Y-29574D01*
X41182Y-29712D01*
X41287Y-29817D01*
X41425Y-29875D01*
X41574Y-29875D01*
X41712Y-29818D01*
X41740Y-29790D01*
X42951Y-29790D01*
X42951Y-29849D01*
X42989Y-29941D01*
X43059Y-30011D01*
X43150Y-30049D01*
X43175Y-30049D01*
X43035Y-30189D01*
X43026Y-30210D01*
X41990Y-30210D01*
X41963Y-30183D01*
X41825Y-30125D01*
X41676Y-30125D01*
X41538Y-30182D01*
X41433Y-30287D01*
X41375Y-30425D01*
X41375Y-30574D01*
X41432Y-30712D01*
X41537Y-30817D01*
X41675Y-30875D01*
X41824Y-30875D01*
X41962Y-30818D01*
X41990Y-30790D01*
X43026Y-30790D01*
X43035Y-30811D01*
X43189Y-30965D01*
X43273Y-31000D01*
X43189Y-31035D01*
X43035Y-31189D01*
X43026Y-31210D01*
X42240Y-31210D01*
X42213Y-31183D01*
X42075Y-31125D01*
X41926Y-31125D01*
X41788Y-31182D01*
X41683Y-31287D01*
X41625Y-31425D01*
X41625Y-31574D01*
X41682Y-31712D01*
X41787Y-31817D01*
X41925Y-31875D01*
X42074Y-31875D01*
X42212Y-31818D01*
X42240Y-31790D01*
X43026Y-31790D01*
X43035Y-31811D01*
X43189Y-31965D01*
X43273Y-32000D01*
X43189Y-32035D01*
X43035Y-32189D01*
X43026Y-32210D01*
X42490Y-32210D01*
X42463Y-32183D01*
X42325Y-32125D01*
X42176Y-32125D01*
X42038Y-32182D01*
X41933Y-32287D01*
X41875Y-32425D01*
X41875Y-32574D01*
X41932Y-32712D01*
X42037Y-32817D01*
X42175Y-32875D01*
X42324Y-32875D01*
X42462Y-32818D01*
X42490Y-32790D01*
X43026Y-32790D01*
X43035Y-32811D01*
X43189Y-32965D01*
X43391Y-33049D01*
X43609Y-33049D01*
X43710Y-33007D01*
X43710Y-33451D01*
X43151Y-33451D01*
X43059Y-33489D01*
X42989Y-33559D01*
X42951Y-33650D01*
X42951Y-33710D01*
X42740Y-33710D01*
X42713Y-33683D01*
X42575Y-33625D01*
X42426Y-33625D01*
X42288Y-33682D01*
X42183Y-33787D01*
X42125Y-33925D01*
X42125Y-34074D01*
X42182Y-34212D01*
X42287Y-34317D01*
X42425Y-34375D01*
X42574Y-34375D01*
X42712Y-34318D01*
X42740Y-34290D01*
X42951Y-34290D01*
X42951Y-34349D01*
X42989Y-34441D01*
X43059Y-34511D01*
X43150Y-34549D01*
X43175Y-34549D01*
X43035Y-34689D01*
X43026Y-34710D01*
X42990Y-34710D01*
X42963Y-34683D01*
X42825Y-34625D01*
X42676Y-34625D01*
X42538Y-34682D01*
X42433Y-34787D01*
X42375Y-34925D01*
X42375Y-35074D01*
X42432Y-35212D01*
X42537Y-35317D01*
X42675Y-35375D01*
X42824Y-35375D01*
X42962Y-35318D01*
X42990Y-35290D01*
X43026Y-35290D01*
X43035Y-35311D01*
X43189Y-35465D01*
X43273Y-35500D01*
X43189Y-35535D01*
X43035Y-35689D01*
X42951Y-35891D01*
X42951Y-36109D01*
X43035Y-36311D01*
X43189Y-36465D01*
X43273Y-36500D01*
X43189Y-36535D01*
X43035Y-36689D01*
X42951Y-36891D01*
X42951Y-37109D01*
X43035Y-37311D01*
X43189Y-37465D01*
X43391Y-37549D01*
X43609Y-37549D01*
X43811Y-37465D01*
X43965Y-37311D01*
X44000Y-37226D01*
X44035Y-37311D01*
X44189Y-37465D01*
X44391Y-37549D01*
X44609Y-37549D01*
X44811Y-37465D01*
X44965Y-37311D01*
X44999Y-37229D01*
X45049Y-37109D01*
X45049Y-36891D01*
X44999Y-36770D01*
X44965Y-36689D01*
X44811Y-36535D01*
X44726Y-36500D01*
X44811Y-36465D01*
X44965Y-36311D01*
X44999Y-36229D01*
X45049Y-36109D01*
X45049Y-35891D01*
X44999Y-35770D01*
X44965Y-35689D01*
X44811Y-35535D01*
X44726Y-35500D01*
X44811Y-35465D01*
X44965Y-35311D01*
X44999Y-35229D01*
X45049Y-35109D01*
X45049Y-34891D01*
X44999Y-34770D01*
X44965Y-34689D01*
X44811Y-34535D01*
X44726Y-34500D01*
X44811Y-34465D01*
X44965Y-34311D01*
X44999Y-34229D01*
X45049Y-34109D01*
X45049Y-33891D01*
X45040Y-33869D01*
X45175Y-33735D01*
X45175Y-37675D01*
X45175Y-37675D01*
G37*
G54D16*
X45175Y-37675D02*
X44999Y-37675D01*
X10325Y-37675D01*
X10325Y-20485D01*
X10451Y-20611D01*
X10451Y-21099D01*
X10489Y-21191D01*
X10559Y-21261D01*
X10650Y-21299D01*
X10675Y-21299D01*
X10535Y-21439D01*
X10451Y-21641D01*
X10451Y-21859D01*
X10535Y-22061D01*
X10689Y-22215D01*
X10773Y-22250D01*
X10689Y-22285D01*
X10535Y-22439D01*
X10451Y-22641D01*
X10451Y-22859D01*
X10535Y-23061D01*
X10689Y-23215D01*
X10773Y-23250D01*
X10689Y-23285D01*
X10535Y-23439D01*
X10451Y-23641D01*
X10451Y-23859D01*
X10535Y-24061D01*
X10689Y-24215D01*
X10891Y-24299D01*
X11109Y-24299D01*
X11210Y-24257D01*
X11210Y-24951D01*
X10651Y-24951D01*
X10559Y-24989D01*
X10489Y-25059D01*
X10451Y-25150D01*
X10451Y-25249D01*
X10451Y-25849D01*
X10489Y-25941D01*
X10559Y-26011D01*
X10650Y-26049D01*
X10675Y-26049D01*
X10535Y-26189D01*
X10451Y-26391D01*
X10451Y-26609D01*
X10535Y-26811D01*
X10689Y-26965D01*
X10773Y-27000D01*
X10689Y-27035D01*
X10535Y-27189D01*
X10451Y-27391D01*
X10451Y-27609D01*
X10535Y-27811D01*
X10689Y-27965D01*
X10773Y-28000D01*
X10689Y-28035D01*
X10535Y-28189D01*
X10451Y-28391D01*
X10451Y-28609D01*
X10535Y-28811D01*
X10689Y-28965D01*
X10891Y-29049D01*
X11109Y-29049D01*
X11130Y-29040D01*
X11295Y-29205D01*
X11389Y-29268D01*
X11500Y-29290D01*
X20539Y-29290D01*
X20525Y-29325D01*
X20525Y-29365D01*
X19575Y-30314D01*
X19574Y-30315D01*
X19506Y-30328D01*
X19488Y-30332D01*
X19394Y-30395D01*
X19079Y-30710D01*
X12800Y-30710D01*
X12689Y-30732D01*
X12595Y-30795D01*
X12333Y-31057D01*
X12311Y-31035D01*
X12109Y-30951D01*
X11891Y-30951D01*
X11689Y-31035D01*
X11535Y-31189D01*
X11451Y-31391D01*
X11451Y-31609D01*
X11459Y-31630D01*
X11295Y-31795D01*
X11232Y-31889D01*
X11210Y-32000D01*
X11210Y-34500D01*
X11232Y-34611D01*
X11295Y-34705D01*
X11459Y-34869D01*
X11451Y-34891D01*
X11451Y-35109D01*
X11535Y-35311D01*
X11675Y-35451D01*
X11651Y-35451D01*
X11559Y-35489D01*
X11489Y-35559D01*
X11451Y-35650D01*
X11451Y-35749D01*
X11451Y-36349D01*
X11489Y-36441D01*
X11559Y-36511D01*
X11650Y-36549D01*
X11749Y-36549D01*
X12349Y-36549D01*
X12441Y-36511D01*
X12511Y-36441D01*
X12549Y-36350D01*
X12549Y-36325D01*
X12689Y-36465D01*
X12891Y-36549D01*
X13109Y-36549D01*
X13311Y-36465D01*
X13465Y-36311D01*
X13500Y-36226D01*
X13535Y-36311D01*
X13689Y-36465D01*
X13891Y-36549D01*
X14109Y-36549D01*
X14311Y-36465D01*
X14465Y-36311D01*
X14500Y-36226D01*
X14535Y-36311D01*
X14689Y-36465D01*
X14891Y-36549D01*
X15109Y-36549D01*
X15311Y-36465D01*
X15465Y-36311D01*
X15500Y-36226D01*
X15535Y-36311D01*
X15689Y-36465D01*
X15891Y-36549D01*
X16109Y-36549D01*
X16311Y-36465D01*
X16465Y-36311D01*
X16500Y-36226D01*
X16535Y-36311D01*
X16689Y-36465D01*
X16891Y-36549D01*
X17109Y-36549D01*
X17311Y-36465D01*
X17465Y-36311D01*
X17500Y-36226D01*
X17535Y-36311D01*
X17689Y-36465D01*
X17891Y-36549D01*
X18109Y-36549D01*
X18311Y-36465D01*
X18465Y-36311D01*
X18500Y-36226D01*
X18535Y-36311D01*
X18689Y-36465D01*
X18891Y-36549D01*
X19109Y-36549D01*
X19311Y-36465D01*
X19465Y-36311D01*
X19500Y-36226D01*
X19535Y-36311D01*
X19689Y-36465D01*
X19891Y-36549D01*
X20109Y-36549D01*
X20311Y-36465D01*
X20465Y-36311D01*
X20500Y-36226D01*
X20535Y-36311D01*
X20689Y-36465D01*
X20891Y-36549D01*
X21109Y-36549D01*
X21311Y-36465D01*
X21465Y-36311D01*
X21500Y-36226D01*
X21535Y-36311D01*
X21689Y-36465D01*
X21891Y-36549D01*
X22109Y-36549D01*
X22311Y-36465D01*
X22465Y-36311D01*
X22500Y-36226D01*
X22535Y-36311D01*
X22689Y-36465D01*
X22891Y-36549D01*
X23109Y-36549D01*
X23311Y-36465D01*
X23465Y-36311D01*
X23500Y-36226D01*
X23535Y-36311D01*
X23689Y-36465D01*
X23891Y-36549D01*
X24109Y-36549D01*
X24311Y-36465D01*
X24465Y-36311D01*
X24500Y-36226D01*
X24535Y-36311D01*
X24689Y-36465D01*
X24891Y-36549D01*
X25109Y-36549D01*
X25311Y-36465D01*
X25465Y-36311D01*
X25500Y-36226D01*
X25535Y-36311D01*
X25689Y-36465D01*
X25891Y-36549D01*
X26109Y-36549D01*
X26311Y-36465D01*
X26465Y-36311D01*
X26500Y-36226D01*
X26535Y-36311D01*
X26689Y-36465D01*
X26891Y-36549D01*
X27109Y-36549D01*
X27311Y-36465D01*
X27465Y-36311D01*
X27500Y-36226D01*
X27535Y-36311D01*
X27689Y-36465D01*
X27891Y-36549D01*
X28109Y-36549D01*
X28311Y-36465D01*
X28465Y-36311D01*
X28500Y-36226D01*
X28535Y-36311D01*
X28689Y-36465D01*
X28891Y-36549D01*
X29109Y-36549D01*
X29311Y-36465D01*
X29465Y-36311D01*
X29500Y-36226D01*
X29535Y-36311D01*
X29689Y-36465D01*
X29891Y-36549D01*
X30109Y-36549D01*
X30311Y-36465D01*
X30465Y-36311D01*
X30500Y-36226D01*
X30535Y-36311D01*
X30689Y-36465D01*
X30891Y-36549D01*
X31109Y-36549D01*
X31311Y-36465D01*
X31465Y-36311D01*
X31500Y-36226D01*
X31535Y-36311D01*
X31689Y-36465D01*
X31891Y-36549D01*
X32109Y-36549D01*
X32311Y-36465D01*
X32465Y-36311D01*
X32500Y-36226D01*
X32535Y-36311D01*
X32689Y-36465D01*
X32891Y-36549D01*
X33109Y-36549D01*
X33311Y-36465D01*
X33465Y-36311D01*
X33500Y-36226D01*
X33535Y-36311D01*
X33689Y-36465D01*
X33891Y-36549D01*
X34109Y-36549D01*
X34311Y-36465D01*
X34465Y-36311D01*
X34500Y-36226D01*
X34535Y-36311D01*
X34689Y-36465D01*
X34891Y-36549D01*
X35109Y-36549D01*
X35311Y-36465D01*
X35465Y-36311D01*
X35500Y-36226D01*
X35535Y-36311D01*
X35689Y-36465D01*
X35891Y-36549D01*
X36109Y-36549D01*
X36311Y-36465D01*
X36465Y-36311D01*
X36500Y-36226D01*
X36535Y-36311D01*
X36689Y-36465D01*
X36891Y-36549D01*
X37109Y-36549D01*
X37311Y-36465D01*
X37465Y-36311D01*
X37500Y-36226D01*
X37535Y-36311D01*
X37689Y-36465D01*
X37891Y-36549D01*
X38109Y-36549D01*
X38311Y-36465D01*
X38465Y-36311D01*
X38500Y-36226D01*
X38535Y-36311D01*
X38689Y-36465D01*
X38891Y-36549D01*
X39109Y-36549D01*
X39311Y-36465D01*
X39465Y-36311D01*
X39500Y-36226D01*
X39535Y-36311D01*
X39689Y-36465D01*
X39891Y-36549D01*
X40109Y-36549D01*
X40311Y-36465D01*
X40465Y-36311D01*
X40500Y-36226D01*
X40535Y-36311D01*
X40689Y-36465D01*
X40891Y-36549D01*
X41109Y-36549D01*
X41311Y-36465D01*
X41465Y-36311D01*
X41549Y-36109D01*
X41549Y-35891D01*
X41543Y-35876D01*
X41543Y-35079D01*
X41532Y-34866D01*
X41472Y-34719D01*
X41378Y-34692D01*
X41071Y-35000D01*
X41378Y-35308D01*
X41472Y-35281D01*
X41543Y-35079D01*
X41543Y-35876D01*
X41465Y-35689D01*
X41311Y-35535D01*
X41219Y-35497D01*
X41281Y-35472D01*
X41308Y-35378D01*
X41035Y-35106D01*
X41000Y-35071D01*
X40929Y-35000D01*
X41000Y-34929D01*
X41035Y-34894D01*
X41308Y-34622D01*
X41281Y-34528D01*
X41079Y-34457D01*
X40866Y-34468D01*
X40790Y-34499D01*
X40790Y-33120D01*
X40869Y-33040D01*
X40891Y-33049D01*
X41109Y-33049D01*
X41311Y-32965D01*
X41465Y-32811D01*
X41549Y-32609D01*
X41549Y-32391D01*
X41543Y-32376D01*
X41543Y-31579D01*
X41532Y-31366D01*
X41472Y-31219D01*
X41378Y-31192D01*
X41308Y-31262D01*
X41308Y-31122D01*
X41281Y-31028D01*
X41079Y-30957D01*
X40866Y-30968D01*
X40719Y-31028D01*
X40692Y-31122D01*
X41000Y-31429D01*
X41308Y-31122D01*
X41308Y-31262D01*
X41071Y-31500D01*
X41378Y-31808D01*
X41472Y-31781D01*
X41543Y-31579D01*
X41543Y-32376D01*
X41465Y-32189D01*
X41311Y-32035D01*
X41219Y-31997D01*
X41281Y-31972D01*
X41308Y-31878D01*
X41000Y-31571D01*
X40692Y-31878D01*
X40719Y-31972D01*
X40784Y-31995D01*
X40689Y-32035D01*
X40535Y-32189D01*
X40500Y-32273D01*
X40465Y-32189D01*
X40311Y-32035D01*
X40226Y-32000D01*
X40311Y-31965D01*
X40465Y-31811D01*
X40502Y-31719D01*
X40528Y-31781D01*
X40622Y-31808D01*
X40929Y-31500D01*
X40622Y-31192D01*
X40528Y-31219D01*
X40504Y-31284D01*
X40465Y-31189D01*
X40311Y-31035D01*
X40109Y-30951D01*
X40100Y-30951D01*
X40100Y-25950D01*
X40100Y-25801D01*
X40043Y-25663D01*
X39938Y-25558D01*
X39800Y-25500D01*
X39651Y-25500D01*
X39590Y-25525D01*
X38675Y-25525D01*
X38675Y-22475D01*
X38675Y-22326D01*
X38618Y-22188D01*
X38513Y-22083D01*
X38375Y-22025D01*
X38226Y-22025D01*
X38088Y-22082D01*
X37983Y-22187D01*
X37925Y-22325D01*
X37925Y-22474D01*
X37982Y-22612D01*
X38087Y-22717D01*
X38225Y-22775D01*
X38374Y-22775D01*
X38512Y-22718D01*
X38617Y-22613D01*
X38675Y-22475D01*
X38675Y-25525D01*
X38459Y-25525D01*
X38400Y-25500D01*
X38251Y-25500D01*
X38113Y-25557D01*
X38008Y-25662D01*
X37950Y-25800D01*
X37950Y-25949D01*
X38007Y-26087D01*
X38112Y-26192D01*
X38250Y-26250D01*
X38399Y-26250D01*
X38459Y-26225D01*
X39590Y-26225D01*
X39650Y-26250D01*
X39799Y-26250D01*
X39937Y-26193D01*
X40042Y-26088D01*
X40100Y-25950D01*
X40100Y-30951D01*
X39891Y-30951D01*
X39689Y-31035D01*
X39535Y-31189D01*
X39500Y-31273D01*
X39465Y-31189D01*
X39311Y-31035D01*
X39109Y-30951D01*
X38891Y-30951D01*
X38689Y-31035D01*
X38535Y-31189D01*
X38500Y-31273D01*
X38465Y-31189D01*
X38311Y-31035D01*
X38109Y-30951D01*
X37891Y-30951D01*
X37775Y-30999D01*
X37775Y-26575D01*
X37775Y-26426D01*
X37718Y-26288D01*
X37613Y-26183D01*
X37475Y-26125D01*
X37326Y-26125D01*
X37188Y-26182D01*
X37083Y-26287D01*
X37049Y-26367D01*
X37049Y-22350D01*
X37049Y-22251D01*
X37049Y-21651D01*
X37011Y-21559D01*
X36941Y-21489D01*
X36850Y-21451D01*
X36751Y-21451D01*
X36375Y-21451D01*
X36375Y-20375D01*
X36375Y-20226D01*
X36375Y-14875D01*
X36375Y-14726D01*
X36318Y-14588D01*
X36213Y-14483D01*
X36075Y-14425D01*
X35926Y-14425D01*
X35788Y-14482D01*
X35683Y-14587D01*
X35625Y-14725D01*
X35625Y-14874D01*
X35682Y-15012D01*
X35787Y-15117D01*
X35925Y-15175D01*
X36074Y-15175D01*
X36212Y-15118D01*
X36317Y-15013D01*
X36375Y-14875D01*
X36375Y-20226D01*
X36318Y-20088D01*
X36213Y-19983D01*
X36075Y-19925D01*
X35926Y-19925D01*
X35788Y-19982D01*
X35683Y-20087D01*
X35625Y-20225D01*
X35625Y-20374D01*
X35682Y-20512D01*
X35787Y-20617D01*
X35925Y-20675D01*
X36074Y-20675D01*
X36212Y-20618D01*
X36317Y-20513D01*
X36375Y-20375D01*
X36375Y-21451D01*
X36151Y-21451D01*
X36059Y-21489D01*
X35989Y-21559D01*
X35951Y-21650D01*
X35951Y-21675D01*
X35811Y-21535D01*
X35609Y-21451D01*
X35391Y-21451D01*
X35189Y-21535D01*
X35035Y-21689D01*
X34951Y-21891D01*
X34951Y-22109D01*
X35035Y-22311D01*
X35189Y-22465D01*
X35391Y-22549D01*
X35609Y-22549D01*
X35811Y-22465D01*
X35951Y-22325D01*
X35951Y-22349D01*
X35989Y-22441D01*
X36059Y-22511D01*
X36150Y-22549D01*
X36249Y-22549D01*
X36849Y-22549D01*
X36941Y-22511D01*
X37011Y-22441D01*
X37049Y-22350D01*
X37049Y-26367D01*
X37025Y-26425D01*
X37025Y-26574D01*
X37082Y-26712D01*
X37187Y-26817D01*
X37325Y-26875D01*
X37474Y-26875D01*
X37612Y-26818D01*
X37717Y-26713D01*
X37775Y-26575D01*
X37775Y-30999D01*
X37689Y-31035D01*
X37535Y-31189D01*
X37500Y-31273D01*
X37465Y-31189D01*
X37311Y-31035D01*
X37109Y-30951D01*
X36975Y-30951D01*
X36975Y-28675D01*
X36975Y-28526D01*
X36918Y-28388D01*
X36890Y-28360D01*
X36890Y-28200D01*
X36871Y-28106D01*
X36868Y-28089D01*
X36868Y-28088D01*
X36805Y-27995D01*
X36805Y-27994D01*
X36575Y-27764D01*
X36575Y-27726D01*
X36518Y-27588D01*
X36413Y-27483D01*
X36275Y-27425D01*
X36126Y-27425D01*
X35988Y-27482D01*
X35883Y-27587D01*
X35825Y-27725D01*
X35825Y-27874D01*
X35882Y-28012D01*
X35987Y-28117D01*
X36125Y-28175D01*
X36164Y-28175D01*
X36310Y-28320D01*
X36310Y-28360D01*
X36283Y-28387D01*
X36225Y-28525D01*
X36225Y-28674D01*
X36282Y-28812D01*
X36387Y-28917D01*
X36525Y-28975D01*
X36674Y-28975D01*
X36812Y-28918D01*
X36917Y-28813D01*
X36975Y-28675D01*
X36975Y-30951D01*
X36891Y-30951D01*
X36689Y-31035D01*
X36535Y-31189D01*
X36500Y-31273D01*
X36465Y-31189D01*
X36311Y-31035D01*
X36109Y-30951D01*
X35891Y-30951D01*
X35689Y-31035D01*
X35667Y-31057D01*
X35205Y-30595D01*
X35111Y-30532D01*
X35000Y-30510D01*
X34575Y-30510D01*
X34575Y-17775D01*
X34575Y-17626D01*
X34518Y-17488D01*
X34413Y-17383D01*
X34275Y-17325D01*
X34126Y-17325D01*
X33988Y-17382D01*
X33883Y-17487D01*
X33825Y-17625D01*
X33825Y-17774D01*
X33882Y-17912D01*
X33987Y-18017D01*
X34125Y-18075D01*
X34274Y-18075D01*
X34412Y-18018D01*
X34517Y-17913D01*
X34575Y-17775D01*
X34575Y-30510D01*
X33220Y-30510D01*
X25975Y-23265D01*
X25975Y-18275D01*
X25975Y-18126D01*
X25918Y-17988D01*
X25813Y-17883D01*
X25675Y-17825D01*
X25526Y-17825D01*
X25388Y-17882D01*
X25283Y-17987D01*
X25225Y-18125D01*
X25225Y-18274D01*
X25282Y-18412D01*
X25387Y-18517D01*
X25525Y-18575D01*
X25674Y-18575D01*
X25812Y-18518D01*
X25917Y-18413D01*
X25975Y-18275D01*
X25975Y-23265D01*
X25875Y-23165D01*
X25875Y-21075D01*
X25875Y-20926D01*
X25818Y-20788D01*
X25713Y-20683D01*
X25575Y-20625D01*
X25426Y-20625D01*
X25288Y-20682D01*
X25183Y-20787D01*
X25125Y-20925D01*
X25125Y-21074D01*
X25182Y-21212D01*
X25287Y-21317D01*
X25425Y-21375D01*
X25574Y-21375D01*
X25712Y-21318D01*
X25817Y-21213D01*
X25875Y-21075D01*
X25875Y-23165D01*
X24890Y-22180D01*
X24890Y-17220D01*
X25135Y-16975D01*
X25174Y-16975D01*
X25312Y-16918D01*
X25360Y-16870D01*
X27451Y-18961D01*
X27425Y-19025D01*
X27425Y-19174D01*
X27482Y-19312D01*
X27587Y-19417D01*
X27725Y-19475D01*
X27874Y-19475D01*
X28012Y-19418D01*
X28117Y-19313D01*
X28132Y-19275D01*
X28174Y-19275D01*
X28312Y-19218D01*
X28417Y-19113D01*
X28432Y-19075D01*
X28474Y-19075D01*
X28612Y-19018D01*
X28717Y-18913D01*
X28732Y-18875D01*
X28774Y-18875D01*
X28912Y-18818D01*
X29017Y-18713D01*
X29075Y-18575D01*
X29075Y-18426D01*
X29018Y-18288D01*
X28913Y-18183D01*
X28775Y-18125D01*
X28675Y-18125D01*
X28600Y-18110D01*
X28320Y-18110D01*
X27200Y-16990D01*
X27560Y-16990D01*
X27587Y-17017D01*
X27725Y-17075D01*
X27874Y-17075D01*
X28012Y-17018D01*
X28117Y-16913D01*
X28132Y-16875D01*
X28174Y-16875D01*
X28312Y-16818D01*
X28417Y-16713D01*
X28432Y-16675D01*
X28474Y-16675D01*
X28612Y-16618D01*
X28717Y-16513D01*
X28732Y-16475D01*
X28774Y-16475D01*
X28912Y-16418D01*
X29017Y-16313D01*
X29075Y-16175D01*
X29075Y-16026D01*
X29018Y-15888D01*
X28913Y-15783D01*
X28775Y-15725D01*
X28675Y-15725D01*
X28600Y-15710D01*
X27120Y-15710D01*
X26955Y-15545D01*
X26989Y-15568D01*
X27100Y-15590D01*
X27660Y-15590D01*
X27687Y-15617D01*
X27825Y-15675D01*
X27974Y-15675D01*
X28112Y-15618D01*
X28217Y-15513D01*
X28275Y-15375D01*
X28275Y-15226D01*
X28218Y-15088D01*
X28113Y-14983D01*
X27975Y-14925D01*
X27826Y-14925D01*
X27688Y-14982D01*
X27660Y-15010D01*
X27220Y-15010D01*
X26475Y-14265D01*
X26475Y-14226D01*
X26418Y-14088D01*
X26313Y-13983D01*
X26175Y-13925D01*
X26026Y-13925D01*
X25888Y-13982D01*
X25783Y-14087D01*
X25725Y-14225D01*
X25725Y-14310D01*
X22300Y-14310D01*
X22189Y-14332D01*
X22095Y-14395D01*
X22094Y-14395D01*
X22094Y-14396D01*
X19380Y-17110D01*
X18900Y-17110D01*
X18789Y-17132D01*
X18695Y-17195D01*
X18395Y-17495D01*
X18332Y-17589D01*
X18310Y-17700D01*
X18310Y-19639D01*
X18275Y-19625D01*
X18126Y-19625D01*
X17999Y-19677D01*
X17875Y-19625D01*
X17726Y-19625D01*
X17599Y-19677D01*
X17475Y-19625D01*
X17433Y-19625D01*
X17418Y-19588D01*
X17313Y-19483D01*
X17175Y-19425D01*
X17026Y-19425D01*
X16888Y-19482D01*
X16783Y-19587D01*
X16767Y-19625D01*
X16726Y-19625D01*
X16588Y-19682D01*
X16483Y-19787D01*
X16425Y-19925D01*
X16425Y-20074D01*
X16482Y-20212D01*
X16510Y-20240D01*
X16510Y-23180D01*
X16308Y-23382D01*
X16308Y-13378D01*
X16000Y-13071D01*
X15692Y-13378D01*
X15719Y-13472D01*
X15921Y-13543D01*
X16134Y-13532D01*
X16281Y-13472D01*
X16308Y-13378D01*
X16308Y-23382D01*
X15595Y-24095D01*
X15532Y-24189D01*
X15510Y-24300D01*
X15510Y-25700D01*
X15532Y-25811D01*
X15595Y-25905D01*
X16694Y-27005D01*
X16695Y-27005D01*
X16789Y-27068D01*
X16900Y-27090D01*
X19479Y-27090D01*
X20910Y-28520D01*
X20910Y-28625D01*
X20826Y-28625D01*
X20688Y-28682D01*
X20660Y-28710D01*
X14775Y-28710D01*
X14775Y-25075D01*
X14775Y-24926D01*
X14718Y-24788D01*
X14613Y-24683D01*
X14475Y-24625D01*
X14326Y-24625D01*
X14188Y-24682D01*
X14083Y-24787D01*
X14025Y-24925D01*
X14025Y-25074D01*
X14082Y-25212D01*
X14187Y-25317D01*
X14325Y-25375D01*
X14474Y-25375D01*
X14612Y-25318D01*
X14717Y-25213D01*
X14775Y-25075D01*
X14775Y-28710D01*
X12507Y-28710D01*
X12549Y-28609D01*
X12549Y-28391D01*
X12465Y-28189D01*
X12311Y-28035D01*
X12226Y-28000D01*
X12311Y-27965D01*
X12465Y-27811D01*
X12549Y-27609D01*
X12549Y-27391D01*
X12465Y-27189D01*
X12311Y-27035D01*
X12226Y-27000D01*
X12311Y-26965D01*
X12465Y-26811D01*
X12549Y-26609D01*
X12549Y-26391D01*
X12540Y-26369D01*
X12705Y-26205D01*
X12768Y-26111D01*
X12790Y-26000D01*
X12790Y-22250D01*
X12768Y-22139D01*
X12705Y-22045D01*
X12540Y-21880D01*
X12549Y-21859D01*
X12549Y-21641D01*
X12465Y-21439D01*
X12311Y-21285D01*
X12226Y-21250D01*
X12311Y-21215D01*
X12465Y-21061D01*
X12549Y-20859D01*
X12549Y-20641D01*
X12465Y-20439D01*
X12311Y-20285D01*
X12109Y-20201D01*
X11891Y-20201D01*
X11689Y-20285D01*
X11549Y-20425D01*
X11549Y-20401D01*
X11511Y-20309D01*
X11441Y-20239D01*
X11350Y-20201D01*
X11251Y-20201D01*
X10861Y-20201D01*
X10790Y-20130D01*
X10790Y-19507D01*
X10891Y-19549D01*
X11109Y-19549D01*
X11311Y-19465D01*
X11465Y-19311D01*
X11500Y-19226D01*
X11535Y-19311D01*
X11689Y-19465D01*
X11891Y-19549D01*
X12109Y-19549D01*
X12311Y-19465D01*
X12465Y-19311D01*
X12549Y-19109D01*
X12549Y-18891D01*
X12465Y-18689D01*
X12311Y-18535D01*
X12226Y-18500D01*
X12311Y-18465D01*
X12465Y-18311D01*
X12549Y-18109D01*
X12549Y-17891D01*
X12465Y-17689D01*
X12311Y-17535D01*
X12226Y-17500D01*
X12311Y-17465D01*
X12465Y-17311D01*
X12549Y-17109D01*
X12549Y-16891D01*
X12465Y-16689D01*
X12311Y-16535D01*
X12226Y-16500D01*
X12311Y-16465D01*
X12465Y-16311D01*
X12549Y-16109D01*
X12549Y-15891D01*
X12507Y-15790D01*
X13279Y-15790D01*
X14125Y-16635D01*
X14125Y-16674D01*
X14182Y-16812D01*
X14287Y-16917D01*
X14315Y-16929D01*
X14188Y-16982D01*
X14083Y-17087D01*
X14025Y-17225D01*
X14025Y-17374D01*
X14082Y-17512D01*
X14187Y-17617D01*
X14325Y-17675D01*
X14474Y-17675D01*
X14612Y-17618D01*
X14717Y-17513D01*
X14775Y-17375D01*
X14775Y-17226D01*
X14718Y-17088D01*
X14613Y-16983D01*
X14584Y-16970D01*
X14712Y-16918D01*
X14817Y-16813D01*
X14875Y-16675D01*
X14875Y-16526D01*
X14818Y-16388D01*
X14713Y-16283D01*
X14575Y-16225D01*
X14535Y-16225D01*
X13605Y-15295D01*
X13511Y-15232D01*
X13400Y-15210D01*
X10600Y-15210D01*
X10489Y-15232D01*
X10395Y-15295D01*
X10325Y-15365D01*
X10325Y-06825D01*
X45175Y-06825D01*
X45175Y-07765D01*
X45040Y-07630D01*
X45049Y-07609D01*
X45049Y-07391D01*
X44965Y-07189D01*
X44811Y-07035D01*
X44609Y-06951D01*
X44391Y-06951D01*
X44189Y-07035D01*
X44049Y-07175D01*
X44049Y-07151D01*
X44011Y-07059D01*
X43941Y-06989D01*
X43850Y-06951D01*
X43751Y-06951D01*
X43151Y-06951D01*
X43059Y-06989D01*
X42989Y-07059D01*
X42951Y-07150D01*
X42951Y-07210D01*
X40000Y-07210D01*
X39889Y-07232D01*
X39795Y-07295D01*
X39130Y-07959D01*
X39109Y-07951D01*
X38891Y-07951D01*
X38689Y-08035D01*
X38535Y-08189D01*
X38500Y-08273D01*
X38465Y-08189D01*
X38311Y-08035D01*
X38109Y-07951D01*
X37891Y-07951D01*
X37689Y-08035D01*
X37535Y-08189D01*
X37500Y-08273D01*
X37465Y-08189D01*
X37311Y-08035D01*
X37109Y-07951D01*
X36891Y-07951D01*
X36689Y-08035D01*
X36535Y-08189D01*
X36500Y-08273D01*
X36465Y-08189D01*
X36311Y-08035D01*
X36109Y-07951D01*
X35891Y-07951D01*
X35689Y-08035D01*
X35535Y-08189D01*
X35500Y-08273D01*
X35465Y-08189D01*
X35311Y-08035D01*
X35109Y-07951D01*
X34891Y-07951D01*
X34689Y-08035D01*
X34535Y-08189D01*
X34500Y-08273D01*
X34465Y-08189D01*
X34311Y-08035D01*
X34109Y-07951D01*
X33891Y-07951D01*
X33689Y-08035D01*
X33535Y-08189D01*
X33500Y-08273D01*
X33465Y-08189D01*
X33311Y-08035D01*
X33109Y-07951D01*
X32891Y-07951D01*
X32689Y-08035D01*
X32535Y-08189D01*
X32500Y-08273D01*
X32465Y-08189D01*
X32311Y-08035D01*
X32109Y-07951D01*
X31891Y-07951D01*
X31689Y-08035D01*
X31535Y-08189D01*
X31500Y-08273D01*
X31465Y-08189D01*
X31311Y-08035D01*
X31109Y-07951D01*
X30891Y-07951D01*
X30689Y-08035D01*
X30535Y-08189D01*
X30500Y-08273D01*
X30465Y-08189D01*
X30311Y-08035D01*
X30109Y-07951D01*
X29891Y-07951D01*
X29689Y-08035D01*
X29535Y-08189D01*
X29500Y-08273D01*
X29465Y-08189D01*
X29311Y-08035D01*
X29109Y-07951D01*
X28891Y-07951D01*
X28689Y-08035D01*
X28535Y-08189D01*
X28500Y-08273D01*
X28465Y-08189D01*
X28311Y-08035D01*
X28109Y-07951D01*
X27891Y-07951D01*
X27689Y-08035D01*
X27535Y-08189D01*
X27500Y-08273D01*
X27465Y-08189D01*
X27311Y-08035D01*
X27109Y-07951D01*
X26891Y-07951D01*
X26689Y-08035D01*
X26535Y-08189D01*
X26500Y-08273D01*
X26465Y-08189D01*
X26311Y-08035D01*
X26109Y-07951D01*
X25891Y-07951D01*
X25689Y-08035D01*
X25535Y-08189D01*
X25500Y-08273D01*
X25465Y-08189D01*
X25311Y-08035D01*
X25109Y-07951D01*
X24891Y-07951D01*
X24689Y-08035D01*
X24535Y-08189D01*
X24500Y-08273D01*
X24465Y-08189D01*
X24311Y-08035D01*
X24109Y-07951D01*
X23891Y-07951D01*
X23689Y-08035D01*
X23535Y-08189D01*
X23500Y-08273D01*
X23465Y-08189D01*
X23311Y-08035D01*
X23109Y-07951D01*
X22891Y-07951D01*
X22689Y-08035D01*
X22535Y-08189D01*
X22500Y-08273D01*
X22465Y-08189D01*
X22311Y-08035D01*
X22109Y-07951D01*
X21891Y-07951D01*
X21689Y-08035D01*
X21535Y-08189D01*
X21500Y-08273D01*
X21465Y-08189D01*
X21311Y-08035D01*
X21109Y-07951D01*
X20891Y-07951D01*
X20689Y-08035D01*
X20535Y-08189D01*
X20500Y-08273D01*
X20465Y-08189D01*
X20311Y-08035D01*
X20109Y-07951D01*
X19891Y-07951D01*
X19689Y-08035D01*
X19535Y-08189D01*
X19500Y-08273D01*
X19465Y-08189D01*
X19311Y-08035D01*
X19109Y-07951D01*
X18891Y-07951D01*
X18689Y-08035D01*
X18535Y-08189D01*
X18500Y-08273D01*
X18465Y-08189D01*
X18311Y-08035D01*
X18109Y-07951D01*
X17891Y-07951D01*
X17689Y-08035D01*
X17535Y-08189D01*
X17500Y-08273D01*
X17465Y-08189D01*
X17311Y-08035D01*
X17109Y-07951D01*
X16891Y-07951D01*
X16689Y-08035D01*
X16535Y-08189D01*
X16497Y-08280D01*
X16472Y-08219D01*
X16378Y-08192D01*
X16308Y-08262D01*
X16308Y-08122D01*
X16281Y-08028D01*
X16079Y-07957D01*
X15866Y-07968D01*
X15719Y-08028D01*
X15692Y-08122D01*
X16000Y-08429D01*
X16308Y-08122D01*
X16308Y-08262D01*
X16071Y-08500D01*
X16378Y-08808D01*
X16472Y-08781D01*
X16495Y-08715D01*
X16535Y-08811D01*
X16689Y-08965D01*
X16773Y-09000D01*
X16689Y-09035D01*
X16535Y-09189D01*
X16497Y-09280D01*
X16472Y-09219D01*
X16378Y-09192D01*
X16308Y-09262D01*
X16308Y-09122D01*
X16281Y-09028D01*
X16207Y-09002D01*
X16281Y-08972D01*
X16308Y-08878D01*
X16000Y-08571D01*
X15692Y-08878D01*
X15719Y-08972D01*
X15792Y-08997D01*
X15719Y-09028D01*
X15692Y-09122D01*
X16000Y-09429D01*
X16308Y-09122D01*
X16308Y-09262D01*
X16071Y-09500D01*
X16378Y-09808D01*
X16472Y-09781D01*
X16495Y-09715D01*
X16535Y-09811D01*
X16689Y-09965D01*
X16891Y-10049D01*
X17109Y-10049D01*
X17130Y-10040D01*
X17210Y-10120D01*
X17210Y-11493D01*
X17109Y-11451D01*
X16891Y-11451D01*
X16689Y-11535D01*
X16535Y-11689D01*
X16497Y-11780D01*
X16472Y-11719D01*
X16378Y-11692D01*
X16071Y-12000D01*
X16378Y-12308D01*
X16472Y-12281D01*
X16495Y-12215D01*
X16535Y-12311D01*
X16689Y-12465D01*
X16773Y-12500D01*
X16689Y-12535D01*
X16535Y-12689D01*
X16497Y-12780D01*
X16472Y-12719D01*
X16378Y-12692D01*
X16308Y-12762D01*
X16308Y-12622D01*
X16281Y-12528D01*
X16207Y-12502D01*
X16281Y-12472D01*
X16308Y-12378D01*
X16035Y-12106D01*
X16000Y-12071D01*
X15929Y-12000D01*
X16000Y-11929D01*
X16035Y-11894D01*
X16308Y-11622D01*
X16281Y-11528D01*
X16079Y-11457D01*
X15866Y-11468D01*
X15790Y-11499D01*
X15790Y-10000D01*
X15789Y-09996D01*
X15921Y-10043D01*
X16134Y-10032D01*
X16281Y-09972D01*
X16308Y-09878D01*
X16035Y-09606D01*
X16000Y-09571D01*
X15929Y-09500D01*
X15894Y-09465D01*
X15622Y-09192D01*
X15528Y-09219D01*
X15504Y-09284D01*
X15465Y-09189D01*
X15311Y-09035D01*
X15226Y-09000D01*
X15311Y-08965D01*
X15465Y-08811D01*
X15502Y-08719D01*
X15528Y-08781D01*
X15622Y-08808D01*
X15929Y-08500D01*
X15622Y-08192D01*
X15528Y-08219D01*
X15504Y-08284D01*
X15465Y-08189D01*
X15311Y-08035D01*
X15109Y-07951D01*
X14891Y-07951D01*
X14689Y-08035D01*
X14535Y-08189D01*
X14500Y-08273D01*
X14465Y-08189D01*
X14311Y-08035D01*
X14109Y-07951D01*
X13891Y-07951D01*
X13689Y-08035D01*
X13535Y-08189D01*
X13500Y-08273D01*
X13465Y-08189D01*
X13311Y-08035D01*
X13109Y-07951D01*
X12891Y-07951D01*
X12689Y-08035D01*
X12535Y-08189D01*
X12500Y-08273D01*
X12465Y-08189D01*
X12311Y-08035D01*
X12109Y-07951D01*
X11891Y-07951D01*
X11689Y-08035D01*
X11535Y-08189D01*
X11451Y-08391D01*
X11451Y-08609D01*
X11535Y-08811D01*
X11689Y-08965D01*
X11773Y-09000D01*
X11689Y-09035D01*
X11535Y-09189D01*
X11451Y-09391D01*
X11451Y-09609D01*
X11535Y-09811D01*
X11689Y-09965D01*
X11891Y-10049D01*
X12109Y-10049D01*
X12130Y-10040D01*
X12210Y-10120D01*
X12210Y-11493D01*
X12109Y-11451D01*
X11891Y-11451D01*
X11689Y-11535D01*
X11535Y-11689D01*
X11451Y-11891D01*
X11451Y-12109D01*
X11535Y-12311D01*
X11689Y-12465D01*
X11773Y-12500D01*
X11689Y-12535D01*
X11535Y-12689D01*
X11451Y-12891D01*
X11451Y-13109D01*
X11535Y-13311D01*
X11689Y-13465D01*
X11891Y-13549D01*
X12109Y-13549D01*
X12311Y-13465D01*
X12465Y-13311D01*
X12500Y-13226D01*
X12535Y-13311D01*
X12689Y-13465D01*
X12891Y-13549D01*
X13109Y-13549D01*
X13311Y-13465D01*
X13465Y-13311D01*
X13500Y-13226D01*
X13535Y-13311D01*
X13689Y-13465D01*
X13891Y-13549D01*
X14109Y-13549D01*
X14311Y-13465D01*
X14465Y-13311D01*
X14500Y-13226D01*
X14535Y-13311D01*
X14689Y-13465D01*
X14891Y-13549D01*
X15109Y-13549D01*
X15311Y-13465D01*
X15465Y-13311D01*
X15502Y-13219D01*
X15528Y-13281D01*
X15622Y-13308D01*
X15894Y-13035D01*
X15929Y-13000D01*
X16000Y-12929D01*
X16035Y-12894D01*
X16308Y-12622D01*
X16308Y-12762D01*
X16071Y-13000D01*
X16378Y-13308D01*
X16472Y-13281D01*
X16495Y-13215D01*
X16535Y-13311D01*
X16689Y-13465D01*
X16891Y-13549D01*
X17109Y-13549D01*
X17311Y-13465D01*
X17465Y-13311D01*
X17500Y-13226D01*
X17535Y-13311D01*
X17689Y-13465D01*
X17891Y-13549D01*
X18109Y-13549D01*
X18311Y-13465D01*
X18465Y-13311D01*
X18500Y-13226D01*
X18535Y-13311D01*
X18689Y-13465D01*
X18891Y-13549D01*
X19109Y-13549D01*
X19311Y-13465D01*
X19465Y-13311D01*
X19500Y-13226D01*
X19535Y-13311D01*
X19689Y-13465D01*
X19891Y-13549D01*
X20109Y-13549D01*
X20311Y-13465D01*
X20465Y-13311D01*
X20500Y-13226D01*
X20535Y-13311D01*
X20689Y-13465D01*
X20891Y-13549D01*
X21109Y-13549D01*
X21311Y-13465D01*
X21465Y-13311D01*
X21500Y-13226D01*
X21535Y-13311D01*
X21689Y-13465D01*
X21891Y-13549D01*
X22109Y-13549D01*
X22311Y-13465D01*
X22465Y-13311D01*
X22500Y-13226D01*
X22535Y-13311D01*
X22689Y-13465D01*
X22891Y-13549D01*
X23109Y-13549D01*
X23311Y-13465D01*
X23465Y-13311D01*
X23500Y-13226D01*
X23535Y-13311D01*
X23689Y-13465D01*
X23891Y-13549D01*
X24109Y-13549D01*
X24311Y-13465D01*
X24465Y-13311D01*
X24500Y-13226D01*
X24535Y-13311D01*
X24689Y-13465D01*
X24891Y-13549D01*
X25109Y-13549D01*
X25311Y-13465D01*
X25465Y-13311D01*
X25500Y-13226D01*
X25535Y-13311D01*
X25689Y-13465D01*
X25891Y-13549D01*
X26109Y-13549D01*
X26311Y-13465D01*
X26465Y-13311D01*
X26500Y-13226D01*
X26535Y-13311D01*
X26689Y-13465D01*
X26891Y-13549D01*
X27109Y-13549D01*
X27311Y-13465D01*
X27465Y-13311D01*
X27500Y-13226D01*
X27535Y-13311D01*
X27689Y-13465D01*
X27891Y-13549D01*
X28109Y-13549D01*
X28311Y-13465D01*
X28465Y-13311D01*
X28500Y-13226D01*
X28535Y-13311D01*
X28689Y-13465D01*
X28891Y-13549D01*
X29109Y-13549D01*
X29311Y-13465D01*
X29465Y-13311D01*
X29500Y-13226D01*
X29535Y-13311D01*
X29689Y-13465D01*
X29891Y-13549D01*
X30109Y-13549D01*
X30311Y-13465D01*
X30465Y-13311D01*
X30500Y-13226D01*
X30535Y-13311D01*
X30689Y-13465D01*
X30891Y-13549D01*
X31109Y-13549D01*
X31311Y-13465D01*
X31465Y-13311D01*
X31500Y-13226D01*
X31535Y-13311D01*
X31689Y-13465D01*
X31891Y-13549D01*
X32109Y-13549D01*
X32129Y-13540D01*
X32894Y-14305D01*
X32895Y-14305D01*
X32989Y-14368D01*
X33100Y-14390D01*
X38380Y-14390D01*
X42510Y-18520D01*
X42510Y-20800D01*
X42532Y-20911D01*
X42595Y-21005D01*
X42959Y-21369D01*
X42951Y-21391D01*
X42951Y-21609D01*
X43035Y-21811D01*
X43189Y-21965D01*
X43391Y-22049D01*
X43609Y-22049D01*
X43811Y-21965D01*
X43965Y-21811D01*
X44000Y-21726D01*
X44035Y-21811D01*
X44189Y-21965D01*
X44391Y-22049D01*
X44609Y-22049D01*
X44811Y-21965D01*
X44965Y-21811D01*
X45049Y-21609D01*
X45049Y-21391D01*
X44965Y-21189D01*
X44811Y-21035D01*
X44726Y-21000D01*
X44811Y-20965D01*
X44965Y-20811D01*
X45049Y-20609D01*
X45049Y-20391D01*
X44965Y-20189D01*
X44811Y-20035D01*
X44726Y-20000D01*
X44811Y-19965D01*
X44965Y-19811D01*
X45049Y-19609D01*
X45049Y-19391D01*
X45040Y-19369D01*
X45175Y-19235D01*
X45175Y-29765D01*
X45040Y-29630D01*
X45049Y-29609D01*
X45049Y-29391D01*
X44999Y-29270D01*
X44999Y-27802D01*
X44999Y-27096D01*
X44999Y-24652D01*
X44999Y-23946D01*
X44293Y-23946D01*
X44293Y-24652D01*
X44999Y-24652D01*
X44999Y-27096D01*
X44293Y-27096D01*
X44293Y-27802D01*
X44999Y-27802D01*
X44999Y-29270D01*
X44965Y-29189D01*
X44811Y-29035D01*
X44609Y-28951D01*
X44391Y-28951D01*
X44189Y-29035D01*
X44049Y-29175D01*
X44049Y-29151D01*
X44011Y-29059D01*
X43941Y-28989D01*
X43850Y-28951D01*
X43751Y-28951D01*
X43151Y-28951D01*
X43059Y-28989D01*
X42989Y-29059D01*
X42951Y-29150D01*
X42951Y-29210D01*
X41740Y-29210D01*
X41713Y-29183D01*
X41575Y-29125D01*
X41426Y-29125D01*
X41288Y-29182D01*
X41183Y-29287D01*
X41125Y-29425D01*
X41125Y-29574D01*
X41182Y-29712D01*
X41287Y-29817D01*
X41425Y-29875D01*
X41574Y-29875D01*
X41712Y-29818D01*
X41740Y-29790D01*
X42951Y-29790D01*
X42951Y-29849D01*
X42989Y-29941D01*
X43059Y-30011D01*
X43150Y-30049D01*
X43175Y-30049D01*
X43035Y-30189D01*
X43026Y-30210D01*
X41990Y-30210D01*
X41963Y-30183D01*
X41825Y-30125D01*
X41676Y-30125D01*
X41538Y-30182D01*
X41433Y-30287D01*
X41375Y-30425D01*
X41375Y-30574D01*
X41432Y-30712D01*
X41537Y-30817D01*
X41675Y-30875D01*
X41824Y-30875D01*
X41962Y-30818D01*
X41990Y-30790D01*
X43026Y-30790D01*
X43035Y-30811D01*
X43189Y-30965D01*
X43273Y-31000D01*
X43189Y-31035D01*
X43035Y-31189D01*
X43026Y-31210D01*
X42240Y-31210D01*
X42213Y-31183D01*
X42075Y-31125D01*
X41926Y-31125D01*
X41788Y-31182D01*
X41683Y-31287D01*
X41625Y-31425D01*
X41625Y-31574D01*
X41682Y-31712D01*
X41787Y-31817D01*
X41925Y-31875D01*
X42074Y-31875D01*
X42212Y-31818D01*
X42240Y-31790D01*
X43026Y-31790D01*
X43035Y-31811D01*
X43189Y-31965D01*
X43273Y-32000D01*
X43189Y-32035D01*
X43035Y-32189D01*
X43026Y-32210D01*
X42490Y-32210D01*
X42463Y-32183D01*
X42325Y-32125D01*
X42176Y-32125D01*
X42038Y-32182D01*
X41933Y-32287D01*
X41875Y-32425D01*
X41875Y-32574D01*
X41932Y-32712D01*
X42037Y-32817D01*
X42175Y-32875D01*
X42324Y-32875D01*
X42462Y-32818D01*
X42490Y-32790D01*
X43026Y-32790D01*
X43035Y-32811D01*
X43189Y-32965D01*
X43391Y-33049D01*
X43609Y-33049D01*
X43710Y-33007D01*
X43710Y-33451D01*
X43151Y-33451D01*
X43059Y-33489D01*
X42989Y-33559D01*
X42951Y-33650D01*
X42951Y-33710D01*
X42740Y-33710D01*
X42713Y-33683D01*
X42575Y-33625D01*
X42426Y-33625D01*
X42288Y-33682D01*
X42183Y-33787D01*
X42125Y-33925D01*
X42125Y-34074D01*
X42182Y-34212D01*
X42287Y-34317D01*
X42425Y-34375D01*
X42574Y-34375D01*
X42712Y-34318D01*
X42740Y-34290D01*
X42951Y-34290D01*
X42951Y-34349D01*
X42989Y-34441D01*
X43059Y-34511D01*
X43150Y-34549D01*
X43175Y-34549D01*
X43035Y-34689D01*
X43026Y-34710D01*
X42990Y-34710D01*
X42963Y-34683D01*
X42825Y-34625D01*
X42676Y-34625D01*
X42538Y-34682D01*
X42433Y-34787D01*
X42375Y-34925D01*
X42375Y-35074D01*
X42432Y-35212D01*
X42537Y-35317D01*
X42675Y-35375D01*
X42824Y-35375D01*
X42962Y-35318D01*
X42990Y-35290D01*
X43026Y-35290D01*
X43035Y-35311D01*
X43189Y-35465D01*
X43273Y-35500D01*
X43189Y-35535D01*
X43035Y-35689D01*
X42951Y-35891D01*
X42951Y-36109D01*
X43035Y-36311D01*
X43189Y-36465D01*
X43273Y-36500D01*
X43189Y-36535D01*
X43035Y-36689D01*
X42951Y-36891D01*
X42951Y-37109D01*
X43035Y-37311D01*
X43189Y-37465D01*
X43391Y-37549D01*
X43609Y-37549D01*
X43811Y-37465D01*
X43965Y-37311D01*
X44000Y-37226D01*
X44035Y-37311D01*
X44189Y-37465D01*
X44391Y-37549D01*
X44609Y-37549D01*
X44811Y-37465D01*
X44965Y-37311D01*
X44999Y-37229D01*
X45049Y-37109D01*
X45049Y-36891D01*
X44999Y-36770D01*
X44965Y-36689D01*
X44811Y-36535D01*
X44726Y-36500D01*
X44811Y-36465D01*
X44965Y-36311D01*
X44999Y-36229D01*
X45049Y-36109D01*
X45049Y-35891D01*
X44999Y-35770D01*
X44965Y-35689D01*
X44811Y-35535D01*
X44726Y-35500D01*
X44811Y-35465D01*
X44965Y-35311D01*
X44999Y-35229D01*
X45049Y-35109D01*
X45049Y-34891D01*
X44999Y-34770D01*
X44965Y-34689D01*
X44811Y-34535D01*
X44726Y-34500D01*
X44811Y-34465D01*
X44965Y-34311D01*
X44999Y-34229D01*
X45049Y-34109D01*
X45049Y-33891D01*
X45040Y-33869D01*
X45175Y-33735D01*
X45175Y-37675D01*
M02*
