M48
;DRILL file {Pcbnew (2012-01-19 BZR 3256)-stable} date 01/09/2012 10:31:35
;FORMAT={-:-/ absolute / inch / decimal}
FMAT,2
INCH,TZ
T1C0.015
T2C0.032
T3C0.040
%
G90
G05
M72
T1
X1.400Y2.950
X1.440Y1.730
X1.440Y2.500
X1.450Y1.660
X1.510Y1.870
X1.680Y2.000
X1.690Y2.480
X1.710Y1.980
X1.710Y2.540
X1.740Y2.000
X1.750Y2.500
X1.750Y2.540
X1.780Y2.000
X1.790Y2.550
X1.790Y2.590
X1.790Y2.630
X1.820Y1.590
X1.820Y2.000
X1.860Y2.000
X1.900Y1.770
X1.920Y1.800
X1.940Y1.830
X1.960Y1.860
X1.980Y1.890
X2.000Y1.920
X2.020Y1.950
X2.040Y1.980
X2.090Y2.900
X2.090Y2.940
X2.100Y3.010
X2.110Y1.880
X2.150Y2.350
X2.150Y2.390
X2.150Y2.430
X2.150Y2.470
X2.150Y2.510
X2.150Y2.550
X2.150Y2.590
X2.190Y2.350
X2.240Y1.790
X2.240Y1.830
X2.270Y1.810
X2.300Y1.670
X2.300Y1.710
X2.300Y1.790
X2.330Y1.650
X2.330Y1.730
X2.330Y1.770
X2.330Y3.040
X2.370Y3.070
X2.470Y1.660
X2.480Y2.370
X2.480Y2.410
X2.500Y2.340
X2.500Y2.450
X2.510Y1.660
X2.550Y2.100
X2.550Y2.510
X2.550Y2.550
X2.550Y2.590
X2.550Y2.630
X2.550Y2.670
X2.560Y1.720
X2.560Y1.820
X2.610Y1.430
X2.610Y1.470
X2.610Y2.340
X2.780Y1.670
X2.780Y1.910
X2.790Y1.530
X2.810Y1.650
X2.810Y1.890
X2.815Y3.070
X2.840Y1.630
X2.840Y1.870
X2.870Y1.610
X2.870Y1.850
X3.240Y1.550
X3.420Y1.730
X3.420Y1.770
X3.600Y1.480
X3.600Y2.030
X3.620Y2.780
X3.660Y2.860
X3.740Y2.650
X3.830Y2.240
X3.833Y2.587
X3.920Y1.380
X3.973Y2.587
X3.980Y2.680
X4.010Y2.860
X4.030Y2.060
X4.150Y2.950
X4.175Y3.050
X4.200Y3.150
X4.225Y3.250
X4.250Y3.400
X4.275Y3.500
T2
X1.200Y3.250
X1.200Y3.600
X4.100Y0.850
X4.100Y1.200
T3
X1.100Y1.600
X1.100Y1.700
X1.100Y1.800
X1.100Y1.900
X1.100Y2.075
X1.100Y2.175
X1.100Y2.275
X1.100Y2.375
X1.100Y2.550
X1.100Y2.650
X1.100Y2.750
X1.100Y2.850
X1.200Y0.850
X1.200Y0.950
X1.200Y1.200
X1.200Y1.300
X1.200Y1.600
X1.200Y1.700
X1.200Y1.800
X1.200Y1.900
X1.200Y2.075
X1.200Y2.175
X1.200Y2.275
X1.200Y2.375
X1.200Y2.550
X1.200Y2.650
X1.200Y2.750
X1.200Y2.850
X1.200Y3.150
X1.200Y3.500
X1.300Y0.850
X1.300Y0.950
X1.300Y1.200
X1.300Y1.300
X1.300Y3.150
X1.300Y3.250
X1.300Y3.500
X1.300Y3.600
X1.400Y0.850
X1.400Y0.950
X1.400Y1.200
X1.400Y1.300
X1.400Y3.150
X1.400Y3.250
X1.400Y3.500
X1.400Y3.600
X1.500Y0.850
X1.500Y0.950
X1.500Y1.200
X1.500Y1.300
X1.500Y3.150
X1.500Y3.250
X1.500Y3.500
X1.500Y3.600
X1.600Y0.850
X1.600Y0.950
X1.600Y1.200
X1.600Y1.300
X1.600Y3.150
X1.600Y3.250
X1.600Y3.500
X1.600Y3.600
X1.700Y0.850
X1.700Y0.950
X1.700Y1.200
X1.700Y1.300
X1.700Y3.150
X1.700Y3.250
X1.700Y3.500
X1.700Y3.600
X1.800Y0.850
X1.800Y0.950
X1.800Y1.200
X1.800Y1.300
X1.800Y3.150
X1.800Y3.250
X1.800Y3.500
X1.800Y3.600
X1.900Y0.850
X1.900Y0.950
X1.900Y1.200
X1.900Y1.300
X1.900Y3.150
X1.900Y3.250
X1.900Y3.500
X1.900Y3.600
X2.000Y0.850
X2.000Y0.950
X2.000Y1.200
X2.000Y1.300
X2.000Y3.150
X2.000Y3.250
X2.000Y3.500
X2.000Y3.600
X2.100Y0.850
X2.100Y0.950
X2.100Y1.200
X2.100Y1.300
X2.100Y3.150
X2.100Y3.250
X2.100Y3.500
X2.100Y3.600
X2.200Y0.850
X2.200Y0.950
X2.200Y1.200
X2.200Y1.300
X2.200Y3.150
X2.200Y3.250
X2.200Y3.500
X2.200Y3.600
X2.300Y0.850
X2.300Y0.950
X2.300Y1.200
X2.300Y1.300
X2.300Y3.150
X2.300Y3.250
X2.300Y3.500
X2.300Y3.600
X2.400Y0.850
X2.400Y0.950
X2.400Y1.200
X2.400Y1.300
X2.400Y3.150
X2.400Y3.250
X2.400Y3.500
X2.400Y3.600
X2.500Y0.850
X2.500Y0.950
X2.500Y1.200
X2.500Y1.300
X2.500Y3.150
X2.500Y3.250
X2.500Y3.500
X2.500Y3.600
X2.600Y0.850
X2.600Y0.950
X2.600Y1.200
X2.600Y1.300
X2.600Y3.150
X2.600Y3.250
X2.600Y3.500
X2.600Y3.600
X2.700Y0.850
X2.700Y0.950
X2.700Y1.200
X2.700Y1.300
X2.700Y3.150
X2.700Y3.250
X2.700Y3.500
X2.700Y3.600
X2.800Y0.850
X2.800Y0.950
X2.800Y1.200
X2.800Y1.300
X2.800Y3.150
X2.800Y3.250
X2.800Y3.500
X2.800Y3.600
X2.900Y0.850
X2.900Y0.950
X2.900Y1.200
X2.900Y1.300
X2.900Y3.150
X2.900Y3.250
X2.900Y3.500
X2.900Y3.600
X3.000Y0.850
X3.000Y0.950
X3.000Y1.200
X3.000Y1.300
X3.000Y3.150
X3.000Y3.250
X3.000Y3.500
X3.000Y3.600
X3.100Y0.850
X3.100Y0.950
X3.100Y1.200
X3.100Y1.300
X3.100Y3.150
X3.100Y3.250
X3.100Y3.500
X3.100Y3.600
X3.200Y0.850
X3.200Y0.950
X3.200Y1.200
X3.200Y1.300
X3.200Y3.150
X3.200Y3.250
X3.200Y3.500
X3.200Y3.600
X3.300Y0.850
X3.300Y0.950
X3.300Y1.200
X3.300Y1.300
X3.300Y3.150
X3.300Y3.250
X3.300Y3.500
X3.300Y3.600
X3.400Y0.850
X3.400Y0.950
X3.400Y1.200
X3.400Y1.300
X3.400Y3.150
X3.400Y3.250
X3.400Y3.500
X3.400Y3.600
X3.500Y0.850
X3.500Y0.950
X3.500Y1.200
X3.500Y1.300
X3.500Y3.150
X3.500Y3.250
X3.500Y3.500
X3.500Y3.600
X3.550Y2.200
X3.600Y0.850
X3.600Y0.950
X3.600Y1.200
X3.600Y1.300
X3.600Y3.150
X3.600Y3.250
X3.600Y3.500
X3.600Y3.600
X3.650Y2.200
X3.700Y0.850
X3.700Y0.950
X3.700Y1.200
X3.700Y1.300
X3.700Y3.150
X3.700Y3.250
X3.700Y3.500
X3.700Y3.600
X3.800Y0.850
X3.800Y0.950
X3.800Y1.200
X3.800Y1.300
X3.800Y3.150
X3.800Y3.250
X3.800Y3.500
X3.800Y3.600
X3.900Y0.850
X3.900Y0.950
X3.900Y1.200
X3.900Y1.300
X3.900Y3.150
X3.900Y3.250
X3.900Y3.500
X3.900Y3.600
X4.000Y0.850
X4.000Y0.950
X4.000Y1.200
X4.000Y1.300
X4.000Y3.150
X4.000Y3.250
X4.000Y3.500
X4.000Y3.600
X4.100Y0.950
X4.100Y1.300
X4.100Y3.150
X4.100Y3.250
X4.100Y3.500
X4.100Y3.600
X4.350Y0.750
X4.350Y0.850
X4.350Y0.950
X4.350Y1.050
X4.350Y1.200
X4.350Y1.300
X4.350Y1.400
X4.350Y1.500
X4.350Y1.650
X4.350Y1.750
X4.350Y1.850
X4.350Y1.950
X4.350Y2.050
X4.350Y2.150
X4.350Y2.950
X4.350Y3.050
X4.350Y3.150
X4.350Y3.250
X4.350Y3.400
X4.350Y3.500
X4.350Y3.600
X4.350Y3.700
X4.450Y0.750
X4.450Y0.850
X4.450Y0.950
X4.450Y1.050
X4.450Y1.200
X4.450Y1.300
X4.450Y1.400
X4.450Y1.500
X4.450Y1.650
X4.450Y1.750
X4.450Y1.850
X4.450Y1.950
X4.450Y2.050
X4.450Y2.150
X4.450Y2.950
X4.450Y3.050
X4.450Y3.150
X4.450Y3.250
X4.450Y3.400
X4.450Y3.500
X4.450Y3.600
X4.450Y3.700
T0
M30
