G04 (created by PCBNEW-RS274X (2012-01-19 BZR 3256)-stable) date 31/08/2012 15:11:10*
G01*
G70*
G90*
%MOIN*%
G04 Gerber Fmt 3.4, Leading zero omitted, Abs format*
%FSLAX34Y34*%
G04 APERTURE LIST*
%ADD10C,0.006000*%
%ADD11C,0.010000*%
%ADD12C,0.015000*%
%ADD13C,0.012000*%
%ADD14C,0.005000*%
%ADD15C,0.008000*%
%ADD16C,0.000100*%
G04 APERTURE END LIST*
G54D10*
G54D11*
X41283Y-29845D02*
X40583Y-29845D01*
X40583Y-29726D01*
X40617Y-29654D01*
X40683Y-29607D01*
X40750Y-29583D01*
X40883Y-29559D01*
X40983Y-29559D01*
X41117Y-29583D01*
X41183Y-29607D01*
X41250Y-29654D01*
X41283Y-29726D01*
X41283Y-29845D01*
X40917Y-29178D02*
X40917Y-29345D01*
X41283Y-29345D02*
X40583Y-29345D01*
X40583Y-29107D01*
G54D12*
X41900Y-29000D02*
X41900Y-37500D01*
X41900Y-07000D02*
X41900Y-22000D01*
G54D11*
X40883Y-16257D02*
X40883Y-15972D01*
X41583Y-16115D02*
X40883Y-16115D01*
X41217Y-15638D02*
X41217Y-15805D01*
X41583Y-15805D02*
X40883Y-15805D01*
X40883Y-15567D01*
X28298Y-24333D02*
X28464Y-25033D01*
X28631Y-24333D01*
X28774Y-25000D02*
X28846Y-25033D01*
X28965Y-25033D01*
X29012Y-25000D01*
X29036Y-24967D01*
X29060Y-24900D01*
X29060Y-24833D01*
X29036Y-24767D01*
X29012Y-24733D01*
X28965Y-24700D01*
X28869Y-24667D01*
X28822Y-24633D01*
X28798Y-24600D01*
X28774Y-24533D01*
X28774Y-24467D01*
X28798Y-24400D01*
X28822Y-24367D01*
X28869Y-24333D01*
X28989Y-24333D01*
X29060Y-24367D01*
X29441Y-24667D02*
X29274Y-24667D01*
X29274Y-25033D02*
X29274Y-24333D01*
X29512Y-24333D01*
X30084Y-24667D02*
X30251Y-24667D01*
X30322Y-25033D02*
X30084Y-25033D01*
X30084Y-24333D01*
X30322Y-24333D01*
X30536Y-25033D02*
X30536Y-24567D01*
X30536Y-24633D02*
X30560Y-24600D01*
X30607Y-24567D01*
X30679Y-24567D01*
X30727Y-24600D01*
X30750Y-24667D01*
X30750Y-25033D01*
X30750Y-24667D02*
X30774Y-24600D01*
X30822Y-24567D01*
X30893Y-24567D01*
X30941Y-24600D01*
X30965Y-24667D01*
X30965Y-25033D01*
X31203Y-25033D02*
X31203Y-24333D01*
X31203Y-24600D02*
X31251Y-24567D01*
X31346Y-24567D01*
X31394Y-24600D01*
X31417Y-24633D01*
X31441Y-24700D01*
X31441Y-24900D01*
X31417Y-24967D01*
X31394Y-25000D01*
X31346Y-25033D01*
X31251Y-25033D01*
X31203Y-25000D01*
X31846Y-25000D02*
X31798Y-25033D01*
X31703Y-25033D01*
X31655Y-25000D01*
X31631Y-24933D01*
X31631Y-24667D01*
X31655Y-24600D01*
X31703Y-24567D01*
X31798Y-24567D01*
X31846Y-24600D01*
X31869Y-24667D01*
X31869Y-24733D01*
X31631Y-24800D01*
X32298Y-25033D02*
X32298Y-24333D01*
X32298Y-25000D02*
X32251Y-25033D01*
X32155Y-25033D01*
X32108Y-25000D01*
X32084Y-24967D01*
X32060Y-24900D01*
X32060Y-24700D01*
X32084Y-24633D01*
X32108Y-24600D01*
X32155Y-24567D01*
X32251Y-24567D01*
X32298Y-24600D01*
X32750Y-25033D02*
X32750Y-24333D01*
X32750Y-25000D02*
X32703Y-25033D01*
X32607Y-25033D01*
X32560Y-25000D01*
X32536Y-24967D01*
X32512Y-24900D01*
X32512Y-24700D01*
X32536Y-24633D01*
X32560Y-24600D01*
X32607Y-24567D01*
X32703Y-24567D01*
X32750Y-24600D01*
X33179Y-25000D02*
X33131Y-25033D01*
X33036Y-25033D01*
X32988Y-25000D01*
X32964Y-24933D01*
X32964Y-24667D01*
X32988Y-24600D01*
X33036Y-24567D01*
X33131Y-24567D01*
X33179Y-24600D01*
X33202Y-24667D01*
X33202Y-24733D01*
X32964Y-24800D01*
X33631Y-25033D02*
X33631Y-24333D01*
X33631Y-25000D02*
X33584Y-25033D01*
X33488Y-25033D01*
X33441Y-25000D01*
X33417Y-24967D01*
X33393Y-24900D01*
X33393Y-24700D01*
X33417Y-24633D01*
X33441Y-24600D01*
X33488Y-24567D01*
X33584Y-24567D01*
X33631Y-24600D01*
X27452Y-25647D02*
X27548Y-26113D01*
X27643Y-25780D01*
X27738Y-26113D01*
X27833Y-25647D01*
X27976Y-25647D02*
X28072Y-26113D01*
X28167Y-25780D01*
X28262Y-26113D01*
X28357Y-25647D01*
X28500Y-25647D02*
X28596Y-26113D01*
X28691Y-25780D01*
X28786Y-26113D01*
X28881Y-25647D01*
X29072Y-26047D02*
X29096Y-26080D01*
X29072Y-26113D01*
X29048Y-26080D01*
X29072Y-26047D01*
X29072Y-26113D01*
X29239Y-25413D02*
X29405Y-26113D01*
X29572Y-25413D01*
X29930Y-26080D02*
X29882Y-26113D01*
X29787Y-26113D01*
X29739Y-26080D01*
X29715Y-26013D01*
X29715Y-25747D01*
X29739Y-25680D01*
X29787Y-25647D01*
X29882Y-25647D01*
X29930Y-25680D01*
X29953Y-25747D01*
X29953Y-25813D01*
X29715Y-25880D01*
X30168Y-26113D02*
X30168Y-25647D01*
X30168Y-25780D02*
X30192Y-25713D01*
X30216Y-25680D01*
X30263Y-25647D01*
X30311Y-25647D01*
X30454Y-26080D02*
X30502Y-26113D01*
X30597Y-26113D01*
X30645Y-26080D01*
X30669Y-26013D01*
X30669Y-25980D01*
X30645Y-25913D01*
X30597Y-25880D01*
X30526Y-25880D01*
X30478Y-25847D01*
X30454Y-25780D01*
X30454Y-25747D01*
X30478Y-25680D01*
X30526Y-25647D01*
X30597Y-25647D01*
X30645Y-25680D01*
X31097Y-26113D02*
X31097Y-25747D01*
X31074Y-25680D01*
X31026Y-25647D01*
X30931Y-25647D01*
X30883Y-25680D01*
X31097Y-26080D02*
X31050Y-26113D01*
X30931Y-26113D01*
X30883Y-26080D01*
X30859Y-26013D01*
X30859Y-25947D01*
X30883Y-25880D01*
X30931Y-25847D01*
X31050Y-25847D01*
X31097Y-25813D01*
X31406Y-26113D02*
X31359Y-26080D01*
X31335Y-26013D01*
X31335Y-25413D01*
X31668Y-26113D02*
X31621Y-26080D01*
X31597Y-26047D01*
X31573Y-25980D01*
X31573Y-25780D01*
X31597Y-25713D01*
X31621Y-25680D01*
X31668Y-25647D01*
X31740Y-25647D01*
X31788Y-25680D01*
X31811Y-25713D01*
X31835Y-25780D01*
X31835Y-25980D01*
X31811Y-26047D01*
X31788Y-26080D01*
X31740Y-26113D01*
X31668Y-26113D01*
X32120Y-26113D02*
X32073Y-26080D01*
X32049Y-26047D01*
X32025Y-25980D01*
X32025Y-25780D01*
X32049Y-25713D01*
X32073Y-25680D01*
X32120Y-25647D01*
X32192Y-25647D01*
X32240Y-25680D01*
X32263Y-25713D01*
X32287Y-25780D01*
X32287Y-25980D01*
X32263Y-26047D01*
X32240Y-26080D01*
X32192Y-26113D01*
X32120Y-26113D01*
X32501Y-25647D02*
X32501Y-26113D01*
X32501Y-25713D02*
X32525Y-25680D01*
X32572Y-25647D01*
X32644Y-25647D01*
X32692Y-25680D01*
X32715Y-25747D01*
X32715Y-26113D01*
X32953Y-26047D02*
X32977Y-26080D01*
X32953Y-26113D01*
X32929Y-26080D01*
X32953Y-26047D01*
X32953Y-26113D01*
X33405Y-26080D02*
X33358Y-26113D01*
X33262Y-26113D01*
X33215Y-26080D01*
X33191Y-26047D01*
X33167Y-25980D01*
X33167Y-25780D01*
X33191Y-25713D01*
X33215Y-25680D01*
X33262Y-25647D01*
X33358Y-25647D01*
X33405Y-25680D01*
X33691Y-26113D02*
X33644Y-26080D01*
X33620Y-26047D01*
X33596Y-25980D01*
X33596Y-25780D01*
X33620Y-25713D01*
X33644Y-25680D01*
X33691Y-25647D01*
X33763Y-25647D01*
X33811Y-25680D01*
X33834Y-25713D01*
X33858Y-25780D01*
X33858Y-25980D01*
X33834Y-26047D01*
X33811Y-26080D01*
X33763Y-26113D01*
X33691Y-26113D01*
X34072Y-26113D02*
X34072Y-25647D01*
X34072Y-25713D02*
X34096Y-25680D01*
X34143Y-25647D01*
X34215Y-25647D01*
X34263Y-25680D01*
X34286Y-25747D01*
X34286Y-26113D01*
X34286Y-25747D02*
X34310Y-25680D01*
X34358Y-25647D01*
X34429Y-25647D01*
X34477Y-25680D01*
X34501Y-25747D01*
X34501Y-26113D01*
X28953Y-27640D02*
X28977Y-27607D01*
X29025Y-27573D01*
X29144Y-27573D01*
X29191Y-27607D01*
X29215Y-27640D01*
X29239Y-27707D01*
X29239Y-27773D01*
X29215Y-27873D01*
X28929Y-28273D01*
X29239Y-28273D01*
X29548Y-27573D02*
X29596Y-27573D01*
X29644Y-27607D01*
X29667Y-27640D01*
X29691Y-27707D01*
X29715Y-27840D01*
X29715Y-28007D01*
X29691Y-28140D01*
X29667Y-28207D01*
X29644Y-28240D01*
X29596Y-28273D01*
X29548Y-28273D01*
X29501Y-28240D01*
X29477Y-28207D01*
X29453Y-28140D01*
X29429Y-28007D01*
X29429Y-27840D01*
X29453Y-27707D01*
X29477Y-27640D01*
X29501Y-27607D01*
X29548Y-27573D01*
X30191Y-28273D02*
X29905Y-28273D01*
X30048Y-28273D02*
X30048Y-27573D01*
X30000Y-27673D01*
X29953Y-27740D01*
X29905Y-27773D01*
X30381Y-27640D02*
X30405Y-27607D01*
X30453Y-27573D01*
X30572Y-27573D01*
X30619Y-27607D01*
X30643Y-27640D01*
X30667Y-27707D01*
X30667Y-27773D01*
X30643Y-27873D01*
X30357Y-28273D01*
X30667Y-28273D01*
X30881Y-28207D02*
X30905Y-28240D01*
X30881Y-28273D01*
X30857Y-28240D01*
X30881Y-28207D01*
X30881Y-28273D01*
X31214Y-27573D02*
X31262Y-27573D01*
X31310Y-27607D01*
X31333Y-27640D01*
X31357Y-27707D01*
X31381Y-27840D01*
X31381Y-28007D01*
X31357Y-28140D01*
X31333Y-28207D01*
X31310Y-28240D01*
X31262Y-28273D01*
X31214Y-28273D01*
X31167Y-28240D01*
X31143Y-28207D01*
X31119Y-28140D01*
X31095Y-28007D01*
X31095Y-27840D01*
X31119Y-27707D01*
X31143Y-27640D01*
X31167Y-27607D01*
X31214Y-27573D01*
X31666Y-27873D02*
X31619Y-27840D01*
X31595Y-27807D01*
X31571Y-27740D01*
X31571Y-27707D01*
X31595Y-27640D01*
X31619Y-27607D01*
X31666Y-27573D01*
X31762Y-27573D01*
X31809Y-27607D01*
X31833Y-27640D01*
X31857Y-27707D01*
X31857Y-27740D01*
X31833Y-27807D01*
X31809Y-27840D01*
X31762Y-27873D01*
X31666Y-27873D01*
X31619Y-27907D01*
X31595Y-27940D01*
X31571Y-28007D01*
X31571Y-28140D01*
X31595Y-28207D01*
X31619Y-28240D01*
X31666Y-28273D01*
X31762Y-28273D01*
X31809Y-28240D01*
X31833Y-28207D01*
X31857Y-28140D01*
X31857Y-28007D01*
X31833Y-27940D01*
X31809Y-27907D01*
X31762Y-27873D01*
X32071Y-28207D02*
X32095Y-28240D01*
X32071Y-28273D01*
X32047Y-28240D01*
X32071Y-28207D01*
X32071Y-28273D01*
X32261Y-27573D02*
X32571Y-27573D01*
X32404Y-27840D01*
X32476Y-27840D01*
X32523Y-27873D01*
X32547Y-27907D01*
X32571Y-27973D01*
X32571Y-28140D01*
X32547Y-28207D01*
X32523Y-28240D01*
X32476Y-28273D01*
X32333Y-28273D01*
X32285Y-28240D01*
X32261Y-28207D01*
X33047Y-28273D02*
X32761Y-28273D01*
X32904Y-28273D02*
X32904Y-27573D01*
X32856Y-27673D01*
X32809Y-27740D01*
X32761Y-27773D01*
X28680Y-28987D02*
X28751Y-29020D01*
X28775Y-29053D01*
X28799Y-29120D01*
X28799Y-29220D01*
X28775Y-29287D01*
X28751Y-29320D01*
X28704Y-29353D01*
X28513Y-29353D01*
X28513Y-28653D01*
X28680Y-28653D01*
X28727Y-28687D01*
X28751Y-28720D01*
X28775Y-28787D01*
X28775Y-28853D01*
X28751Y-28920D01*
X28727Y-28953D01*
X28680Y-28987D01*
X28513Y-28987D01*
X28965Y-28887D02*
X29084Y-29353D01*
X29204Y-28887D02*
X29084Y-29353D01*
X29037Y-29520D01*
X29013Y-29553D01*
X28965Y-29587D01*
X29751Y-29320D02*
X29823Y-29353D01*
X29942Y-29353D01*
X29989Y-29320D01*
X30013Y-29287D01*
X30037Y-29220D01*
X30037Y-29153D01*
X30013Y-29087D01*
X29989Y-29053D01*
X29942Y-29020D01*
X29846Y-28987D01*
X29799Y-28953D01*
X29775Y-28920D01*
X29751Y-28853D01*
X29751Y-28787D01*
X29775Y-28720D01*
X29799Y-28687D01*
X29846Y-28653D01*
X29966Y-28653D01*
X30037Y-28687D01*
X30251Y-29353D02*
X30251Y-28887D01*
X30251Y-28653D02*
X30227Y-28687D01*
X30251Y-28720D01*
X30275Y-28687D01*
X30251Y-28653D01*
X30251Y-28720D01*
X30489Y-29353D02*
X30489Y-28887D01*
X30489Y-28953D02*
X30513Y-28920D01*
X30560Y-28887D01*
X30632Y-28887D01*
X30680Y-28920D01*
X30703Y-28987D01*
X30703Y-29353D01*
X30703Y-28987D02*
X30727Y-28920D01*
X30775Y-28887D01*
X30846Y-28887D01*
X30894Y-28920D01*
X30918Y-28987D01*
X30918Y-29353D01*
X31227Y-29353D02*
X31180Y-29320D01*
X31156Y-29287D01*
X31132Y-29220D01*
X31132Y-29020D01*
X31156Y-28953D01*
X31180Y-28920D01*
X31227Y-28887D01*
X31299Y-28887D01*
X31347Y-28920D01*
X31370Y-28953D01*
X31394Y-29020D01*
X31394Y-29220D01*
X31370Y-29287D01*
X31347Y-29320D01*
X31299Y-29353D01*
X31227Y-29353D01*
X31608Y-28887D02*
X31608Y-29353D01*
X31608Y-28953D02*
X31632Y-28920D01*
X31679Y-28887D01*
X31751Y-28887D01*
X31799Y-28920D01*
X31822Y-28987D01*
X31822Y-29353D01*
X32393Y-29420D02*
X32346Y-29387D01*
X32298Y-29320D01*
X32227Y-29220D01*
X32179Y-29187D01*
X32131Y-29187D01*
X32155Y-29353D02*
X32108Y-29320D01*
X32060Y-29253D01*
X32036Y-29120D01*
X32036Y-28887D01*
X32060Y-28753D01*
X32108Y-28687D01*
X32155Y-28653D01*
X32251Y-28653D01*
X32298Y-28687D01*
X32346Y-28753D01*
X32370Y-28887D01*
X32370Y-29120D01*
X32346Y-29253D01*
X32298Y-29320D01*
X32251Y-29353D01*
X32155Y-29353D01*
X32584Y-29353D02*
X32584Y-28887D01*
X32584Y-28653D02*
X32560Y-28687D01*
X32584Y-28720D01*
X32608Y-28687D01*
X32584Y-28653D01*
X32584Y-28720D01*
X33036Y-29353D02*
X33036Y-28987D01*
X33013Y-28920D01*
X32965Y-28887D01*
X32870Y-28887D01*
X32822Y-28920D01*
X33036Y-29320D02*
X32989Y-29353D01*
X32870Y-29353D01*
X32822Y-29320D01*
X32798Y-29253D01*
X32798Y-29187D01*
X32822Y-29120D01*
X32870Y-29087D01*
X32989Y-29087D01*
X33036Y-29053D01*
X33274Y-28887D02*
X33274Y-29353D01*
X33274Y-28953D02*
X33298Y-28920D01*
X33345Y-28887D01*
X33417Y-28887D01*
X33465Y-28920D01*
X33488Y-28987D01*
X33488Y-29353D01*
X42750Y-37250D02*
X42783Y-37178D01*
X42783Y-37059D01*
X42750Y-37012D01*
X42717Y-36988D01*
X42650Y-36964D01*
X42583Y-36964D01*
X42517Y-36988D01*
X42483Y-37012D01*
X42450Y-37059D01*
X42417Y-37155D01*
X42383Y-37202D01*
X42350Y-37226D01*
X42283Y-37250D01*
X42217Y-37250D01*
X42150Y-37226D01*
X42117Y-37202D01*
X42083Y-37155D01*
X42083Y-37035D01*
X42117Y-36964D01*
X42783Y-36750D02*
X42083Y-36750D01*
X42083Y-36559D01*
X42117Y-36512D01*
X42150Y-36488D01*
X42217Y-36464D01*
X42317Y-36464D01*
X42383Y-36488D01*
X42417Y-36512D01*
X42450Y-36559D01*
X42450Y-36750D01*
X42783Y-36250D02*
X42083Y-36250D01*
X42083Y-35917D02*
X42083Y-35869D01*
X42117Y-35821D01*
X42150Y-35798D01*
X42217Y-35774D01*
X42350Y-35750D01*
X42517Y-35750D01*
X42650Y-35774D01*
X42717Y-35798D01*
X42750Y-35821D01*
X42783Y-35869D01*
X42783Y-35917D01*
X42750Y-35964D01*
X42717Y-35988D01*
X42650Y-36012D01*
X42517Y-36036D01*
X42350Y-36036D01*
X42217Y-36012D01*
X42150Y-35988D01*
X42117Y-35964D01*
X42083Y-35917D01*
X42750Y-30500D02*
X42783Y-30428D01*
X42783Y-30309D01*
X42750Y-30262D01*
X42717Y-30238D01*
X42650Y-30214D01*
X42583Y-30214D01*
X42517Y-30238D01*
X42483Y-30262D01*
X42450Y-30309D01*
X42417Y-30405D01*
X42383Y-30452D01*
X42350Y-30476D01*
X42283Y-30500D01*
X42217Y-30500D01*
X42150Y-30476D01*
X42117Y-30452D01*
X42083Y-30405D01*
X42083Y-30285D01*
X42117Y-30214D01*
X42783Y-30000D02*
X42083Y-30000D01*
X42083Y-29809D01*
X42117Y-29762D01*
X42150Y-29738D01*
X42217Y-29714D01*
X42317Y-29714D01*
X42383Y-29738D01*
X42417Y-29762D01*
X42450Y-29809D01*
X42450Y-30000D01*
X42783Y-29500D02*
X42083Y-29500D01*
X42783Y-29000D02*
X42783Y-29286D01*
X42783Y-29143D02*
X42083Y-29143D01*
X42183Y-29191D01*
X42250Y-29238D01*
X42283Y-29286D01*
X13533Y-19369D02*
X12833Y-19369D01*
X13533Y-19083D01*
X12833Y-19083D01*
X13333Y-18869D02*
X13333Y-18631D01*
X13533Y-18916D02*
X12833Y-18750D01*
X13533Y-18583D01*
X13533Y-18416D02*
X12833Y-18416D01*
X13533Y-18130D01*
X12833Y-18130D01*
X13533Y-17892D02*
X12833Y-17892D01*
X12833Y-17773D01*
X12867Y-17701D01*
X12933Y-17654D01*
X13000Y-17630D01*
X13133Y-17606D01*
X13233Y-17606D01*
X13367Y-17630D01*
X13433Y-17654D01*
X13500Y-17701D01*
X13533Y-17773D01*
X13533Y-17892D01*
X13500Y-24143D02*
X13533Y-24071D01*
X13533Y-23952D01*
X13500Y-23905D01*
X13467Y-23881D01*
X13400Y-23857D01*
X13333Y-23857D01*
X13267Y-23881D01*
X13233Y-23905D01*
X13200Y-23952D01*
X13167Y-24048D01*
X13133Y-24095D01*
X13100Y-24119D01*
X13033Y-24143D01*
X12967Y-24143D01*
X12900Y-24119D01*
X12867Y-24095D01*
X12833Y-24048D01*
X12833Y-23928D01*
X12867Y-23857D01*
X13533Y-23357D02*
X13200Y-23524D01*
X13533Y-23643D02*
X12833Y-23643D01*
X12833Y-23452D01*
X12867Y-23405D01*
X12900Y-23381D01*
X12967Y-23357D01*
X13067Y-23357D01*
X13133Y-23381D01*
X13167Y-23405D01*
X13200Y-23452D01*
X13200Y-23643D01*
X13333Y-23167D02*
X13333Y-22929D01*
X13533Y-23214D02*
X12833Y-23048D01*
X13533Y-22881D01*
X13533Y-22714D02*
X12833Y-22714D01*
X13333Y-22547D01*
X12833Y-22381D01*
X13533Y-22381D01*
X13533Y-28905D02*
X12833Y-28905D01*
X13533Y-28619D01*
X12833Y-28619D01*
X12833Y-28286D02*
X12833Y-28190D01*
X12867Y-28143D01*
X12933Y-28095D01*
X13067Y-28071D01*
X13300Y-28071D01*
X13433Y-28095D01*
X13500Y-28143D01*
X13533Y-28190D01*
X13533Y-28286D01*
X13500Y-28333D01*
X13433Y-28381D01*
X13300Y-28405D01*
X13067Y-28405D01*
X12933Y-28381D01*
X12867Y-28333D01*
X12833Y-28286D01*
X13533Y-27571D02*
X13200Y-27738D01*
X13533Y-27857D02*
X12833Y-27857D01*
X12833Y-27666D01*
X12867Y-27619D01*
X12900Y-27595D01*
X12967Y-27571D01*
X13067Y-27571D01*
X13133Y-27595D01*
X13167Y-27619D01*
X13200Y-27666D01*
X13200Y-27857D01*
X34927Y-23317D02*
X34903Y-23350D01*
X34832Y-23383D01*
X34784Y-23383D01*
X34712Y-23350D01*
X34665Y-23283D01*
X34641Y-23217D01*
X34617Y-23083D01*
X34617Y-22983D01*
X34641Y-22850D01*
X34665Y-22783D01*
X34712Y-22717D01*
X34784Y-22683D01*
X34832Y-22683D01*
X34903Y-22717D01*
X34927Y-22750D01*
X35379Y-23383D02*
X35141Y-23383D01*
X35141Y-22683D01*
X35546Y-23017D02*
X35713Y-23017D01*
X35784Y-23383D02*
X35546Y-23383D01*
X35546Y-22683D01*
X35784Y-22683D01*
X36252Y-23183D02*
X36490Y-23183D01*
X36205Y-23383D02*
X36371Y-22683D01*
X36538Y-23383D01*
X36943Y-23383D02*
X36705Y-23383D01*
X36705Y-22683D01*
X37110Y-23017D02*
X37277Y-23017D01*
X37348Y-23383D02*
X37110Y-23383D01*
X37110Y-22683D01*
X37348Y-22683D01*
X42750Y-22024D02*
X42783Y-21952D01*
X42783Y-21833D01*
X42750Y-21786D01*
X42717Y-21762D01*
X42650Y-21738D01*
X42583Y-21738D01*
X42517Y-21762D01*
X42483Y-21786D01*
X42450Y-21833D01*
X42417Y-21929D01*
X42383Y-21976D01*
X42350Y-22000D01*
X42283Y-22024D01*
X42217Y-22024D01*
X42150Y-22000D01*
X42117Y-21976D01*
X42083Y-21929D01*
X42083Y-21809D01*
X42117Y-21738D01*
X42783Y-21524D02*
X42083Y-21524D01*
X42083Y-21405D01*
X42117Y-21333D01*
X42183Y-21286D01*
X42250Y-21262D01*
X42383Y-21238D01*
X42483Y-21238D01*
X42617Y-21262D01*
X42683Y-21286D01*
X42750Y-21333D01*
X42783Y-21405D01*
X42783Y-21524D01*
X42783Y-21024D02*
X42083Y-21024D01*
X42083Y-20691D02*
X42083Y-20595D01*
X42117Y-20548D01*
X42183Y-20500D01*
X42317Y-20476D01*
X42550Y-20476D01*
X42683Y-20500D01*
X42750Y-20548D01*
X42783Y-20595D01*
X42783Y-20691D01*
X42750Y-20738D01*
X42683Y-20786D01*
X42550Y-20810D01*
X42317Y-20810D01*
X42183Y-20786D01*
X42117Y-20738D01*
X42083Y-20691D01*
X42750Y-15500D02*
X42783Y-15428D01*
X42783Y-15309D01*
X42750Y-15262D01*
X42717Y-15238D01*
X42650Y-15214D01*
X42583Y-15214D01*
X42517Y-15238D01*
X42483Y-15262D01*
X42450Y-15309D01*
X42417Y-15405D01*
X42383Y-15452D01*
X42350Y-15476D01*
X42283Y-15500D01*
X42217Y-15500D01*
X42150Y-15476D01*
X42117Y-15452D01*
X42083Y-15405D01*
X42083Y-15285D01*
X42117Y-15214D01*
X42783Y-15000D02*
X42083Y-15000D01*
X42083Y-14809D01*
X42117Y-14762D01*
X42150Y-14738D01*
X42217Y-14714D01*
X42317Y-14714D01*
X42383Y-14738D01*
X42417Y-14762D01*
X42450Y-14809D01*
X42450Y-15000D01*
X42783Y-14500D02*
X42083Y-14500D01*
X42083Y-14167D02*
X42083Y-14119D01*
X42117Y-14071D01*
X42150Y-14048D01*
X42217Y-14024D01*
X42350Y-14000D01*
X42517Y-14000D01*
X42650Y-14024D01*
X42717Y-14048D01*
X42750Y-14071D01*
X42783Y-14119D01*
X42783Y-14167D01*
X42750Y-14214D01*
X42717Y-14238D01*
X42650Y-14262D01*
X42517Y-14286D01*
X42350Y-14286D01*
X42217Y-14262D01*
X42150Y-14238D01*
X42117Y-14214D01*
X42083Y-14167D01*
X42750Y-11000D02*
X42783Y-10928D01*
X42783Y-10809D01*
X42750Y-10762D01*
X42717Y-10738D01*
X42650Y-10714D01*
X42583Y-10714D01*
X42517Y-10738D01*
X42483Y-10762D01*
X42450Y-10809D01*
X42417Y-10905D01*
X42383Y-10952D01*
X42350Y-10976D01*
X42283Y-11000D01*
X42217Y-11000D01*
X42150Y-10976D01*
X42117Y-10952D01*
X42083Y-10905D01*
X42083Y-10785D01*
X42117Y-10714D01*
X42783Y-10500D02*
X42083Y-10500D01*
X42083Y-10309D01*
X42117Y-10262D01*
X42150Y-10238D01*
X42217Y-10214D01*
X42317Y-10214D01*
X42383Y-10238D01*
X42417Y-10262D01*
X42450Y-10309D01*
X42450Y-10500D01*
X42783Y-10000D02*
X42083Y-10000D01*
X42783Y-09500D02*
X42783Y-09786D01*
X42783Y-09643D02*
X42083Y-09643D01*
X42183Y-09691D01*
X42250Y-09738D01*
X42283Y-09786D01*
G54D13*
X31500Y-36500D02*
X41500Y-36500D01*
X31500Y-34500D02*
X41500Y-34500D01*
X31500Y-36500D02*
X11500Y-36500D01*
X31500Y-34500D02*
X11500Y-34500D01*
X41500Y-34500D02*
X41500Y-36500D01*
X11500Y-34500D02*
X11500Y-36500D01*
X21500Y-11500D02*
X11500Y-11500D01*
X21500Y-13500D02*
X11500Y-13500D01*
X21500Y-11500D02*
X41500Y-11500D01*
X21500Y-13500D02*
X41500Y-13500D01*
X11500Y-13500D02*
X11500Y-11500D01*
X41500Y-13500D02*
X41500Y-11500D01*
X31500Y-33000D02*
X41500Y-33000D01*
X31500Y-31000D02*
X41500Y-31000D01*
X31500Y-33000D02*
X11500Y-33000D01*
X31500Y-31000D02*
X11500Y-31000D01*
X41500Y-31000D02*
X41500Y-33000D01*
X11500Y-31000D02*
X11500Y-33000D01*
X21500Y-08000D02*
X11500Y-08000D01*
X21500Y-10000D02*
X11500Y-10000D01*
X21500Y-08000D02*
X41500Y-08000D01*
X21500Y-10000D02*
X41500Y-10000D01*
X11500Y-10000D02*
X11500Y-08000D01*
X41500Y-10000D02*
X41500Y-08000D01*
G54D11*
X16600Y-27800D02*
X16600Y-22200D01*
X23600Y-22200D02*
X23600Y-27800D01*
X16600Y-22200D02*
X23600Y-22200D01*
X23600Y-27800D02*
X16600Y-27800D01*
X17100Y-22600D02*
X17098Y-22619D01*
X17092Y-22638D01*
X17083Y-22655D01*
X17070Y-22670D01*
X17055Y-22682D01*
X17038Y-22692D01*
X17020Y-22697D01*
X17000Y-22699D01*
X16982Y-22698D01*
X16963Y-22692D01*
X16946Y-22683D01*
X16931Y-22671D01*
X16918Y-22656D01*
X16909Y-22639D01*
X16903Y-22620D01*
X16901Y-22601D01*
X16902Y-22582D01*
X16908Y-22564D01*
X16916Y-22546D01*
X16929Y-22531D01*
X16943Y-22518D01*
X16960Y-22509D01*
X16979Y-22503D01*
X16998Y-22501D01*
X17017Y-22502D01*
X17036Y-22507D01*
X17053Y-22516D01*
X17068Y-22528D01*
X17081Y-22543D01*
X17091Y-22560D01*
X17097Y-22578D01*
X17099Y-22598D01*
X17100Y-22600D01*
X27500Y-15100D02*
X27500Y-19900D01*
X34500Y-19900D02*
X34500Y-15100D01*
X34500Y-15100D02*
X27500Y-15100D01*
X34500Y-19900D02*
X27500Y-19900D01*
X34200Y-19500D02*
X34198Y-19519D01*
X34192Y-19538D01*
X34183Y-19555D01*
X34170Y-19570D01*
X34155Y-19582D01*
X34138Y-19592D01*
X34120Y-19597D01*
X34100Y-19599D01*
X34082Y-19598D01*
X34063Y-19592D01*
X34046Y-19583D01*
X34031Y-19571D01*
X34018Y-19556D01*
X34009Y-19539D01*
X34003Y-19520D01*
X34001Y-19501D01*
X34002Y-19482D01*
X34008Y-19464D01*
X34016Y-19446D01*
X34029Y-19431D01*
X34043Y-19418D01*
X34060Y-19409D01*
X34079Y-19403D01*
X34098Y-19401D01*
X34117Y-19402D01*
X34136Y-19407D01*
X34153Y-19416D01*
X34168Y-19428D01*
X34181Y-19443D01*
X34191Y-19460D01*
X34197Y-19478D01*
X34199Y-19498D01*
X34200Y-19500D01*
G54D14*
X38950Y-25100D02*
X39450Y-25100D01*
X39450Y-25100D02*
X39450Y-24400D01*
X39450Y-24400D02*
X38950Y-24400D01*
X38550Y-25100D02*
X38050Y-25100D01*
X38050Y-25100D02*
X38050Y-24400D01*
X38050Y-24400D02*
X38550Y-24400D01*
X38950Y-28100D02*
X39450Y-28100D01*
X39450Y-28100D02*
X39450Y-27400D01*
X39450Y-27400D02*
X38950Y-27400D01*
X38550Y-28100D02*
X38050Y-28100D01*
X38050Y-28100D02*
X38050Y-27400D01*
X38050Y-27400D02*
X38550Y-27400D01*
X38950Y-27350D02*
X39450Y-27350D01*
X39450Y-27350D02*
X39450Y-26650D01*
X39450Y-26650D02*
X38950Y-26650D01*
X38550Y-27350D02*
X38050Y-27350D01*
X38050Y-27350D02*
X38050Y-26650D01*
X38050Y-26650D02*
X38550Y-26650D01*
X38950Y-26600D02*
X39450Y-26600D01*
X39450Y-26600D02*
X39450Y-25900D01*
X39450Y-25900D02*
X38950Y-25900D01*
X38550Y-26600D02*
X38050Y-26600D01*
X38050Y-26600D02*
X38050Y-25900D01*
X38050Y-25900D02*
X38550Y-25900D01*
X38950Y-25850D02*
X39450Y-25850D01*
X39450Y-25850D02*
X39450Y-25150D01*
X39450Y-25150D02*
X38950Y-25150D01*
X38550Y-25850D02*
X38050Y-25850D01*
X38050Y-25850D02*
X38050Y-25150D01*
X38050Y-25150D02*
X38550Y-25150D01*
X38950Y-24350D02*
X39450Y-24350D01*
X39450Y-24350D02*
X39450Y-23650D01*
X39450Y-23650D02*
X38950Y-23650D01*
X38550Y-24350D02*
X38050Y-24350D01*
X38050Y-24350D02*
X38050Y-23650D01*
X38050Y-23650D02*
X38550Y-23650D01*
X38950Y-28850D02*
X39450Y-28850D01*
X39450Y-28850D02*
X39450Y-28150D01*
X39450Y-28150D02*
X38950Y-28150D01*
X38550Y-28850D02*
X38050Y-28850D01*
X38050Y-28850D02*
X38050Y-28150D01*
X38050Y-28150D02*
X38550Y-28150D01*
G54D13*
X45000Y-16000D02*
X45000Y-22000D01*
X45000Y-22000D02*
X43000Y-22000D01*
X43000Y-22000D02*
X43000Y-16000D01*
X43000Y-16000D02*
X45000Y-16000D01*
X45000Y-11500D02*
X45000Y-15500D01*
X45000Y-15500D02*
X43000Y-15500D01*
X43000Y-15500D02*
X43000Y-11500D01*
X43000Y-11500D02*
X45000Y-11500D01*
X45000Y-07000D02*
X45000Y-11000D01*
X45000Y-11000D02*
X43000Y-11000D01*
X43000Y-11000D02*
X43000Y-07000D01*
X43000Y-07000D02*
X45000Y-07000D01*
G54D15*
X39600Y-20400D02*
X40800Y-20400D01*
X40800Y-20400D02*
X40800Y-17600D01*
X40800Y-17600D02*
X39600Y-17600D01*
X38400Y-20400D02*
X38100Y-20400D01*
X38100Y-20400D02*
X37200Y-19800D01*
X37200Y-19800D02*
X37200Y-18200D01*
X37200Y-18200D02*
X38100Y-17600D01*
X38100Y-17600D02*
X38400Y-17600D01*
G54D14*
X40220Y-15850D02*
X40218Y-15863D01*
X40214Y-15876D01*
X40208Y-15888D01*
X40199Y-15899D01*
X40189Y-15908D01*
X40177Y-15914D01*
X40164Y-15918D01*
X40150Y-15919D01*
X40137Y-15918D01*
X40124Y-15914D01*
X40112Y-15908D01*
X40102Y-15900D01*
X40093Y-15889D01*
X40086Y-15877D01*
X40082Y-15864D01*
X40081Y-15850D01*
X40082Y-15838D01*
X40085Y-15825D01*
X40092Y-15813D01*
X40100Y-15802D01*
X40111Y-15793D01*
X40122Y-15786D01*
X40135Y-15782D01*
X40149Y-15781D01*
X40162Y-15782D01*
X40175Y-15785D01*
X40187Y-15791D01*
X40198Y-15800D01*
X40207Y-15810D01*
X40213Y-15822D01*
X40218Y-15835D01*
X40219Y-15849D01*
X40220Y-15850D01*
X38650Y-15900D02*
X37900Y-15900D01*
X37900Y-15900D02*
X37900Y-17100D01*
X37900Y-17100D02*
X38650Y-17100D01*
X39300Y-17100D02*
X40100Y-17100D01*
X40100Y-17100D02*
X40100Y-15900D01*
X40100Y-15900D02*
X39300Y-15900D01*
X40220Y-20850D02*
X40218Y-20863D01*
X40214Y-20876D01*
X40208Y-20888D01*
X40199Y-20899D01*
X40189Y-20908D01*
X40177Y-20914D01*
X40164Y-20918D01*
X40150Y-20919D01*
X40137Y-20918D01*
X40124Y-20914D01*
X40112Y-20908D01*
X40102Y-20900D01*
X40093Y-20889D01*
X40086Y-20877D01*
X40082Y-20864D01*
X40081Y-20850D01*
X40082Y-20838D01*
X40085Y-20825D01*
X40092Y-20813D01*
X40100Y-20802D01*
X40111Y-20793D01*
X40122Y-20786D01*
X40135Y-20782D01*
X40149Y-20781D01*
X40162Y-20782D01*
X40175Y-20785D01*
X40187Y-20791D01*
X40198Y-20800D01*
X40207Y-20810D01*
X40213Y-20822D01*
X40218Y-20835D01*
X40219Y-20849D01*
X40220Y-20850D01*
X38650Y-20900D02*
X37900Y-20900D01*
X37900Y-20900D02*
X37900Y-22100D01*
X37900Y-22100D02*
X38650Y-22100D01*
X39300Y-22100D02*
X40100Y-22100D01*
X40100Y-22100D02*
X40100Y-20900D01*
X40100Y-20900D02*
X39300Y-20900D01*
X24750Y-17900D02*
X24750Y-18400D01*
X24750Y-18400D02*
X25450Y-18400D01*
X25450Y-18400D02*
X25450Y-17900D01*
X24750Y-17500D02*
X24750Y-17000D01*
X24750Y-17000D02*
X25450Y-17000D01*
X25450Y-17000D02*
X25450Y-17500D01*
X35650Y-17800D02*
X35650Y-18300D01*
X35650Y-18300D02*
X36350Y-18300D01*
X36350Y-18300D02*
X36350Y-17800D01*
X35650Y-17400D02*
X35650Y-16900D01*
X35650Y-16900D02*
X36350Y-16900D01*
X36350Y-16900D02*
X36350Y-17400D01*
X25750Y-17900D02*
X25750Y-18400D01*
X25750Y-18400D02*
X26450Y-18400D01*
X26450Y-18400D02*
X26450Y-17900D01*
X25750Y-17500D02*
X25750Y-17000D01*
X25750Y-17000D02*
X26450Y-17000D01*
X26450Y-17000D02*
X26450Y-17500D01*
X35300Y-24150D02*
X34800Y-24150D01*
X34800Y-24150D02*
X34800Y-24850D01*
X34800Y-24850D02*
X35300Y-24850D01*
X35700Y-24150D02*
X36200Y-24150D01*
X36200Y-24150D02*
X36200Y-24850D01*
X36200Y-24850D02*
X35700Y-24850D01*
X25550Y-28000D02*
X25550Y-28500D01*
X25550Y-28500D02*
X26250Y-28500D01*
X26250Y-28500D02*
X26250Y-28000D01*
X25550Y-27600D02*
X25550Y-27100D01*
X25550Y-27100D02*
X26250Y-27100D01*
X26250Y-27100D02*
X26250Y-27600D01*
X15450Y-17500D02*
X15450Y-17000D01*
X15450Y-17000D02*
X14750Y-17000D01*
X14750Y-17000D02*
X14750Y-17500D01*
X15450Y-17900D02*
X15450Y-18400D01*
X15450Y-18400D02*
X14750Y-18400D01*
X14750Y-18400D02*
X14750Y-17900D01*
X24650Y-28000D02*
X24650Y-28500D01*
X24650Y-28500D02*
X25350Y-28500D01*
X25350Y-28500D02*
X25350Y-28000D01*
X24650Y-27600D02*
X24650Y-27100D01*
X24650Y-27100D02*
X25350Y-27100D01*
X25350Y-27100D02*
X25350Y-27600D01*
X14700Y-24250D02*
X14200Y-24250D01*
X14200Y-24250D02*
X14200Y-24950D01*
X14200Y-24950D02*
X14700Y-24950D01*
X15100Y-24250D02*
X15600Y-24250D01*
X15600Y-24250D02*
X15600Y-24950D01*
X15600Y-24950D02*
X15100Y-24950D01*
X25850Y-22100D02*
X25850Y-21600D01*
X25850Y-21600D02*
X25150Y-21600D01*
X25150Y-21600D02*
X25150Y-22100D01*
X25850Y-22500D02*
X25850Y-23000D01*
X25850Y-23000D02*
X25150Y-23000D01*
X25150Y-23000D02*
X25150Y-22500D01*
X36350Y-15550D02*
X36350Y-15050D01*
X36350Y-15050D02*
X35650Y-15050D01*
X35650Y-15050D02*
X35650Y-15550D01*
X36350Y-15950D02*
X36350Y-16450D01*
X36350Y-16450D02*
X35650Y-16450D01*
X35650Y-16450D02*
X35650Y-15950D01*
X25150Y-24200D02*
X25150Y-24700D01*
X25150Y-24700D02*
X25850Y-24700D01*
X25850Y-24700D02*
X25850Y-24200D01*
X25150Y-23800D02*
X25150Y-23300D01*
X25150Y-23300D02*
X25850Y-23300D01*
X25850Y-23300D02*
X25850Y-23800D01*
G54D11*
X23600Y-19900D02*
X23600Y-15100D01*
X16600Y-15100D02*
X16600Y-19900D01*
X16600Y-19900D02*
X23600Y-19900D01*
X16600Y-15100D02*
X23600Y-15100D01*
X17100Y-15500D02*
X17098Y-15519D01*
X17092Y-15538D01*
X17083Y-15555D01*
X17070Y-15570D01*
X17055Y-15582D01*
X17038Y-15592D01*
X17020Y-15597D01*
X17000Y-15599D01*
X16982Y-15598D01*
X16963Y-15592D01*
X16946Y-15583D01*
X16931Y-15571D01*
X16918Y-15556D01*
X16909Y-15539D01*
X16903Y-15520D01*
X16901Y-15501D01*
X16902Y-15482D01*
X16908Y-15464D01*
X16916Y-15446D01*
X16929Y-15431D01*
X16943Y-15418D01*
X16960Y-15409D01*
X16979Y-15403D01*
X16998Y-15401D01*
X17017Y-15402D01*
X17036Y-15407D01*
X17053Y-15416D01*
X17068Y-15428D01*
X17081Y-15443D01*
X17091Y-15460D01*
X17097Y-15478D01*
X17099Y-15498D01*
X17100Y-15500D01*
G54D14*
X39200Y-23350D02*
X39700Y-23350D01*
X39700Y-23350D02*
X39700Y-22650D01*
X39700Y-22650D02*
X39200Y-22650D01*
X38800Y-23350D02*
X38300Y-23350D01*
X38300Y-23350D02*
X38300Y-22650D01*
X38300Y-22650D02*
X38800Y-22650D01*
X14700Y-25050D02*
X14200Y-25050D01*
X14200Y-25050D02*
X14200Y-25750D01*
X14200Y-25750D02*
X14700Y-25750D01*
X15100Y-25050D02*
X15600Y-25050D01*
X15600Y-25050D02*
X15600Y-25750D01*
X15600Y-25750D02*
X15100Y-25750D01*
X15450Y-15900D02*
X15450Y-15400D01*
X15450Y-15400D02*
X14750Y-15400D01*
X14750Y-15400D02*
X14750Y-15900D01*
X15450Y-16300D02*
X15450Y-16800D01*
X15450Y-16800D02*
X14750Y-16800D01*
X14750Y-16800D02*
X14750Y-16300D01*
X35650Y-19500D02*
X35650Y-20000D01*
X35650Y-20000D02*
X36350Y-20000D01*
X36350Y-20000D02*
X36350Y-19500D01*
X35650Y-19100D02*
X35650Y-18600D01*
X35650Y-18600D02*
X36350Y-18600D01*
X36350Y-18600D02*
X36350Y-19100D01*
G54D13*
X12500Y-25000D02*
X12500Y-29000D01*
X12500Y-29000D02*
X10500Y-29000D01*
X10500Y-29000D02*
X10500Y-25000D01*
X10500Y-25000D02*
X12500Y-25000D01*
X12500Y-20250D02*
X12500Y-24250D01*
X12500Y-24250D02*
X10500Y-24250D01*
X10500Y-24250D02*
X10500Y-20250D01*
X10500Y-20250D02*
X12500Y-20250D01*
X12500Y-15500D02*
X12500Y-19500D01*
X12500Y-19500D02*
X10500Y-19500D01*
X10500Y-19500D02*
X10500Y-15500D01*
X10500Y-15500D02*
X12500Y-15500D01*
G54D16*
G36*
X32066Y-23566D02*
X32066Y-21434D01*
X29934Y-21434D01*
X29934Y-23566D01*
X30365Y-23566D01*
X30365Y-23466D01*
X30361Y-23466D01*
X30160Y-23462D01*
X30058Y-23446D01*
X30021Y-23413D01*
X30019Y-23403D01*
X30011Y-23288D01*
X30006Y-23073D01*
X30002Y-22784D01*
X30000Y-22448D01*
X30001Y-22286D01*
X30002Y-21963D01*
X30007Y-21746D01*
X30016Y-21615D01*
X30029Y-21551D01*
X30049Y-21534D01*
X30085Y-21540D01*
X30125Y-21580D01*
X30150Y-21676D01*
X30161Y-21847D01*
X30161Y-22111D01*
X30152Y-22490D01*
X30143Y-22843D01*
X30142Y-23104D01*
X30149Y-23252D01*
X30164Y-23300D01*
X30178Y-23264D01*
X30191Y-23119D01*
X30198Y-22855D01*
X30200Y-22467D01*
X30200Y-22412D01*
X30202Y-22077D01*
X30206Y-21853D01*
X30215Y-21717D01*
X30229Y-21651D01*
X30249Y-21634D01*
X30268Y-21635D01*
X30312Y-21665D01*
X30341Y-21748D01*
X30357Y-21905D01*
X30362Y-22154D01*
X30360Y-22516D01*
X30358Y-22786D01*
X30358Y-23035D01*
X30361Y-23203D01*
X30367Y-23264D01*
X30372Y-23259D01*
X30435Y-23180D01*
X30556Y-23017D01*
X30722Y-22791D01*
X30917Y-22522D01*
X30998Y-22412D01*
X31197Y-22139D01*
X31342Y-21950D01*
X31447Y-21828D01*
X31527Y-21754D01*
X31598Y-21709D01*
X31669Y-21680D01*
X31817Y-21642D01*
X31945Y-21631D01*
X32000Y-21654D01*
X31993Y-21665D01*
X31930Y-21760D01*
X31811Y-21931D01*
X31652Y-22157D01*
X31469Y-22414D01*
X31277Y-22680D01*
X31095Y-22933D01*
X30937Y-23151D01*
X30818Y-23311D01*
X30756Y-23391D01*
X30735Y-23413D01*
X30673Y-23448D01*
X30564Y-23463D01*
X30365Y-23466D01*
X30365Y-23566D01*
X32066Y-23566D01*
X32066Y-23566D01*
G37*
G54D13*
X45000Y-33500D02*
X45000Y-37500D01*
X45000Y-37500D02*
X43000Y-37500D01*
X43000Y-37500D02*
X43000Y-33500D01*
X43000Y-33500D02*
X45000Y-33500D01*
X45000Y-29000D02*
X45000Y-33000D01*
X45000Y-33000D02*
X43000Y-33000D01*
X43000Y-33000D02*
X43000Y-29000D01*
X43000Y-29000D02*
X45000Y-29000D01*
G54D10*
X37000Y-21500D02*
X37000Y-22500D01*
X37000Y-22500D02*
X35000Y-22500D01*
X35000Y-22500D02*
X35000Y-21500D01*
X35000Y-21500D02*
X37000Y-21500D01*
G54D14*
X45768Y-28370D02*
X45768Y-25500D01*
X45768Y-25500D02*
X46220Y-25106D01*
X46220Y-22685D02*
X46220Y-25106D01*
X41047Y-22685D02*
X46220Y-22685D01*
X41047Y-23146D02*
X41047Y-22685D01*
X40787Y-23146D02*
X41047Y-23146D01*
X40787Y-28232D02*
X40787Y-23146D01*
X41047Y-28232D02*
X40787Y-28232D01*
X41047Y-28370D02*
X41047Y-28232D01*
X45768Y-28370D02*
X41047Y-28370D01*
X36400Y-26250D02*
X36400Y-28250D01*
X36400Y-28250D02*
X34600Y-28250D01*
X34600Y-28250D02*
X34600Y-26250D01*
X34600Y-26250D02*
X36400Y-26250D01*
X35800Y-26250D02*
X35800Y-26450D01*
X35800Y-26450D02*
X35300Y-26450D01*
X35300Y-26450D02*
X35300Y-26250D01*
X35700Y-25850D02*
X36200Y-25850D01*
X36200Y-25850D02*
X36200Y-25150D01*
X36200Y-25150D02*
X35700Y-25150D01*
X35300Y-25850D02*
X34800Y-25850D01*
X34800Y-25850D02*
X34800Y-25150D01*
X34800Y-25150D02*
X35300Y-25150D01*
G54D11*
X11162Y-35986D02*
X10762Y-35986D01*
X10762Y-35833D01*
X10781Y-35795D01*
X10800Y-35776D01*
X10838Y-35757D01*
X10895Y-35757D01*
X10933Y-35776D01*
X10952Y-35795D01*
X10971Y-35833D01*
X10971Y-35986D01*
X10762Y-35624D02*
X10762Y-35376D01*
X10914Y-35510D01*
X10914Y-35452D01*
X10933Y-35414D01*
X10952Y-35395D01*
X10990Y-35376D01*
X11086Y-35376D01*
X11124Y-35395D01*
X11143Y-35414D01*
X11162Y-35452D01*
X11162Y-35567D01*
X11143Y-35605D01*
X11124Y-35624D01*
X10762Y-35129D02*
X10762Y-35090D01*
X10781Y-35052D01*
X10800Y-35033D01*
X10838Y-35014D01*
X10914Y-34995D01*
X11010Y-34995D01*
X11086Y-35014D01*
X11124Y-35033D01*
X11143Y-35052D01*
X11162Y-35090D01*
X11162Y-35129D01*
X11143Y-35167D01*
X11124Y-35186D01*
X11086Y-35205D01*
X11010Y-35224D01*
X10914Y-35224D01*
X10838Y-35205D01*
X10800Y-35186D01*
X10781Y-35167D01*
X10762Y-35129D01*
X40514Y-14162D02*
X40514Y-13762D01*
X40667Y-13762D01*
X40705Y-13781D01*
X40724Y-13800D01*
X40743Y-13838D01*
X40743Y-13895D01*
X40724Y-13933D01*
X40705Y-13952D01*
X40667Y-13971D01*
X40514Y-13971D01*
X40895Y-13800D02*
X40914Y-13781D01*
X40952Y-13762D01*
X41048Y-13762D01*
X41086Y-13781D01*
X41105Y-13800D01*
X41124Y-13838D01*
X41124Y-13876D01*
X41105Y-13933D01*
X40876Y-14162D01*
X41124Y-14162D01*
X41371Y-13762D02*
X41410Y-13762D01*
X41448Y-13781D01*
X41467Y-13800D01*
X41486Y-13838D01*
X41505Y-13914D01*
X41505Y-14010D01*
X41486Y-14086D01*
X41467Y-14124D01*
X41448Y-14143D01*
X41410Y-14162D01*
X41371Y-14162D01*
X41333Y-14143D01*
X41314Y-14124D01*
X41295Y-14086D01*
X41276Y-14010D01*
X41276Y-13914D01*
X41295Y-13838D01*
X41314Y-13800D01*
X41333Y-13781D01*
X41371Y-13762D01*
X11162Y-32295D02*
X10762Y-32295D01*
X10762Y-32142D01*
X10781Y-32104D01*
X10800Y-32085D01*
X10838Y-32066D01*
X10895Y-32066D01*
X10933Y-32085D01*
X10952Y-32104D01*
X10971Y-32142D01*
X10971Y-32295D01*
X10800Y-31914D02*
X10781Y-31895D01*
X10762Y-31857D01*
X10762Y-31761D01*
X10781Y-31723D01*
X10800Y-31704D01*
X10838Y-31685D01*
X10876Y-31685D01*
X10933Y-31704D01*
X11162Y-31933D01*
X11162Y-31685D01*
X40955Y-10662D02*
X40955Y-10262D01*
X41108Y-10262D01*
X41146Y-10281D01*
X41165Y-10300D01*
X41184Y-10338D01*
X41184Y-10395D01*
X41165Y-10433D01*
X41146Y-10452D01*
X41108Y-10471D01*
X40955Y-10471D01*
X41565Y-10662D02*
X41336Y-10662D01*
X41450Y-10662D02*
X41450Y-10262D01*
X41412Y-10319D01*
X41374Y-10357D01*
X41336Y-10376D01*
G54D13*
X16543Y-21393D02*
X16543Y-21879D01*
X16571Y-21936D01*
X16600Y-21964D01*
X16657Y-21993D01*
X16771Y-21993D01*
X16829Y-21964D01*
X16857Y-21936D01*
X16886Y-21879D01*
X16886Y-21393D01*
X17286Y-21393D02*
X17343Y-21393D01*
X17400Y-21421D01*
X17429Y-21450D01*
X17458Y-21507D01*
X17486Y-21621D01*
X17486Y-21764D01*
X17458Y-21879D01*
X17429Y-21936D01*
X17400Y-21964D01*
X17343Y-21993D01*
X17286Y-21993D01*
X17229Y-21964D01*
X17200Y-21936D01*
X17172Y-21879D01*
X17143Y-21764D01*
X17143Y-21621D01*
X17172Y-21507D01*
X17200Y-21450D01*
X17229Y-21421D01*
X17286Y-21393D01*
X33443Y-20143D02*
X33443Y-20629D01*
X33471Y-20686D01*
X33500Y-20714D01*
X33557Y-20743D01*
X33671Y-20743D01*
X33729Y-20714D01*
X33757Y-20686D01*
X33786Y-20629D01*
X33786Y-20143D01*
X34043Y-20200D02*
X34072Y-20171D01*
X34129Y-20143D01*
X34272Y-20143D01*
X34329Y-20171D01*
X34358Y-20200D01*
X34386Y-20257D01*
X34386Y-20314D01*
X34358Y-20400D01*
X34015Y-20743D01*
X34386Y-20743D01*
G54D14*
X37901Y-24911D02*
X37782Y-24994D01*
X37901Y-25053D02*
X37651Y-25053D01*
X37651Y-24958D01*
X37663Y-24934D01*
X37675Y-24923D01*
X37699Y-24911D01*
X37735Y-24911D01*
X37758Y-24923D01*
X37770Y-24934D01*
X37782Y-24958D01*
X37782Y-25053D01*
X37901Y-24673D02*
X37901Y-24815D01*
X37901Y-24744D02*
X37651Y-24744D01*
X37687Y-24768D01*
X37711Y-24792D01*
X37723Y-24815D01*
X37675Y-24577D02*
X37663Y-24565D01*
X37651Y-24542D01*
X37651Y-24482D01*
X37663Y-24458D01*
X37675Y-24446D01*
X37699Y-24435D01*
X37723Y-24435D01*
X37758Y-24446D01*
X37901Y-24589D01*
X37901Y-24435D01*
X37901Y-27911D02*
X37782Y-27994D01*
X37901Y-28053D02*
X37651Y-28053D01*
X37651Y-27958D01*
X37663Y-27934D01*
X37675Y-27923D01*
X37699Y-27911D01*
X37735Y-27911D01*
X37758Y-27923D01*
X37770Y-27934D01*
X37782Y-27958D01*
X37782Y-28053D01*
X37901Y-27673D02*
X37901Y-27815D01*
X37901Y-27744D02*
X37651Y-27744D01*
X37687Y-27768D01*
X37711Y-27792D01*
X37723Y-27815D01*
X37651Y-27458D02*
X37651Y-27506D01*
X37663Y-27530D01*
X37675Y-27542D01*
X37711Y-27565D01*
X37758Y-27577D01*
X37854Y-27577D01*
X37877Y-27565D01*
X37889Y-27554D01*
X37901Y-27530D01*
X37901Y-27482D01*
X37889Y-27458D01*
X37877Y-27446D01*
X37854Y-27435D01*
X37794Y-27435D01*
X37770Y-27446D01*
X37758Y-27458D01*
X37746Y-27482D01*
X37746Y-27530D01*
X37758Y-27554D01*
X37770Y-27565D01*
X37794Y-27577D01*
X37901Y-27161D02*
X37782Y-27244D01*
X37901Y-27303D02*
X37651Y-27303D01*
X37651Y-27208D01*
X37663Y-27184D01*
X37675Y-27173D01*
X37699Y-27161D01*
X37735Y-27161D01*
X37758Y-27173D01*
X37770Y-27184D01*
X37782Y-27208D01*
X37782Y-27303D01*
X37901Y-26923D02*
X37901Y-27065D01*
X37901Y-26994D02*
X37651Y-26994D01*
X37687Y-27018D01*
X37711Y-27042D01*
X37723Y-27065D01*
X37651Y-26696D02*
X37651Y-26815D01*
X37770Y-26827D01*
X37758Y-26815D01*
X37746Y-26792D01*
X37746Y-26732D01*
X37758Y-26708D01*
X37770Y-26696D01*
X37794Y-26685D01*
X37854Y-26685D01*
X37877Y-26696D01*
X37889Y-26708D01*
X37901Y-26732D01*
X37901Y-26792D01*
X37889Y-26815D01*
X37877Y-26827D01*
X37901Y-26411D02*
X37782Y-26494D01*
X37901Y-26553D02*
X37651Y-26553D01*
X37651Y-26458D01*
X37663Y-26434D01*
X37675Y-26423D01*
X37699Y-26411D01*
X37735Y-26411D01*
X37758Y-26423D01*
X37770Y-26434D01*
X37782Y-26458D01*
X37782Y-26553D01*
X37901Y-26173D02*
X37901Y-26315D01*
X37901Y-26244D02*
X37651Y-26244D01*
X37687Y-26268D01*
X37711Y-26292D01*
X37723Y-26315D01*
X37735Y-25958D02*
X37901Y-25958D01*
X37639Y-26018D02*
X37818Y-26077D01*
X37818Y-25923D01*
X37901Y-25661D02*
X37782Y-25744D01*
X37901Y-25803D02*
X37651Y-25803D01*
X37651Y-25708D01*
X37663Y-25684D01*
X37675Y-25673D01*
X37699Y-25661D01*
X37735Y-25661D01*
X37758Y-25673D01*
X37770Y-25684D01*
X37782Y-25708D01*
X37782Y-25803D01*
X37901Y-25423D02*
X37901Y-25565D01*
X37901Y-25494D02*
X37651Y-25494D01*
X37687Y-25518D01*
X37711Y-25542D01*
X37723Y-25565D01*
X37651Y-25339D02*
X37651Y-25185D01*
X37746Y-25268D01*
X37746Y-25232D01*
X37758Y-25208D01*
X37770Y-25196D01*
X37794Y-25185D01*
X37854Y-25185D01*
X37877Y-25196D01*
X37889Y-25208D01*
X37901Y-25232D01*
X37901Y-25304D01*
X37889Y-25327D01*
X37877Y-25339D01*
X37901Y-24161D02*
X37782Y-24244D01*
X37901Y-24303D02*
X37651Y-24303D01*
X37651Y-24208D01*
X37663Y-24184D01*
X37675Y-24173D01*
X37699Y-24161D01*
X37735Y-24161D01*
X37758Y-24173D01*
X37770Y-24184D01*
X37782Y-24208D01*
X37782Y-24303D01*
X37901Y-23923D02*
X37901Y-24065D01*
X37901Y-23994D02*
X37651Y-23994D01*
X37687Y-24018D01*
X37711Y-24042D01*
X37723Y-24065D01*
X37901Y-23685D02*
X37901Y-23827D01*
X37901Y-23756D02*
X37651Y-23756D01*
X37687Y-23780D01*
X37711Y-23804D01*
X37723Y-23827D01*
X37901Y-28661D02*
X37782Y-28744D01*
X37901Y-28803D02*
X37651Y-28803D01*
X37651Y-28708D01*
X37663Y-28684D01*
X37675Y-28673D01*
X37699Y-28661D01*
X37735Y-28661D01*
X37758Y-28673D01*
X37770Y-28684D01*
X37782Y-28708D01*
X37782Y-28803D01*
X37901Y-28423D02*
X37901Y-28565D01*
X37901Y-28494D02*
X37651Y-28494D01*
X37687Y-28518D01*
X37711Y-28542D01*
X37723Y-28565D01*
X37651Y-28268D02*
X37651Y-28244D01*
X37663Y-28220D01*
X37675Y-28208D01*
X37699Y-28196D01*
X37746Y-28185D01*
X37806Y-28185D01*
X37854Y-28196D01*
X37877Y-28208D01*
X37889Y-28220D01*
X37901Y-28244D01*
X37901Y-28268D01*
X37889Y-28292D01*
X37877Y-28304D01*
X37854Y-28315D01*
X37806Y-28327D01*
X37746Y-28327D01*
X37699Y-28315D01*
X37675Y-28304D01*
X37663Y-28292D01*
X37651Y-28268D01*
G54D11*
X42762Y-19486D02*
X42362Y-19486D01*
X42362Y-19333D01*
X42381Y-19295D01*
X42400Y-19276D01*
X42438Y-19257D01*
X42495Y-19257D01*
X42533Y-19276D01*
X42552Y-19295D01*
X42571Y-19333D01*
X42571Y-19486D01*
X42762Y-18876D02*
X42762Y-19105D01*
X42762Y-18991D02*
X42362Y-18991D01*
X42419Y-19029D01*
X42457Y-19067D01*
X42476Y-19105D01*
X42362Y-18743D02*
X42362Y-18495D01*
X42514Y-18629D01*
X42514Y-18571D01*
X42533Y-18533D01*
X42552Y-18514D01*
X42590Y-18495D01*
X42686Y-18495D01*
X42724Y-18514D01*
X42743Y-18533D01*
X42762Y-18571D01*
X42762Y-18686D01*
X42743Y-18724D01*
X42724Y-18743D01*
G54D15*
X42662Y-12486D02*
X42262Y-12486D01*
X42262Y-12333D01*
X42281Y-12295D01*
X42300Y-12276D01*
X42338Y-12257D01*
X42395Y-12257D01*
X42433Y-12276D01*
X42452Y-12295D01*
X42471Y-12333D01*
X42471Y-12486D01*
X42662Y-11876D02*
X42662Y-12105D01*
X42662Y-11991D02*
X42262Y-11991D01*
X42319Y-12029D01*
X42357Y-12067D01*
X42376Y-12105D01*
X42662Y-11495D02*
X42662Y-11724D01*
X42662Y-11610D02*
X42262Y-11610D01*
X42319Y-11648D01*
X42357Y-11686D01*
X42376Y-11724D01*
X42662Y-07986D02*
X42262Y-07986D01*
X42262Y-07833D01*
X42281Y-07795D01*
X42300Y-07776D01*
X42338Y-07757D01*
X42395Y-07757D01*
X42433Y-07776D01*
X42452Y-07795D01*
X42471Y-07833D01*
X42471Y-07986D01*
X42662Y-07376D02*
X42662Y-07605D01*
X42662Y-07491D02*
X42262Y-07491D01*
X42319Y-07529D01*
X42357Y-07567D01*
X42376Y-07605D01*
X42300Y-07224D02*
X42281Y-07205D01*
X42262Y-07167D01*
X42262Y-07071D01*
X42281Y-07033D01*
X42300Y-07014D01*
X42338Y-06995D01*
X42376Y-06995D01*
X42433Y-07014D01*
X42662Y-07243D01*
X42662Y-06995D01*
X41012Y-19305D02*
X41336Y-19305D01*
X41374Y-19286D01*
X41393Y-19267D01*
X41412Y-19229D01*
X41412Y-19152D01*
X41393Y-19114D01*
X41374Y-19095D01*
X41336Y-19076D01*
X41012Y-19076D01*
X41145Y-18714D02*
X41412Y-18714D01*
X40993Y-18810D02*
X41279Y-18905D01*
X41279Y-18657D01*
G54D14*
X40593Y-16550D02*
X40607Y-16564D01*
X40621Y-16607D01*
X40621Y-16636D01*
X40607Y-16679D01*
X40579Y-16707D01*
X40550Y-16722D01*
X40493Y-16736D01*
X40450Y-16736D01*
X40393Y-16722D01*
X40364Y-16707D01*
X40336Y-16679D01*
X40321Y-16636D01*
X40321Y-16607D01*
X40336Y-16564D01*
X40350Y-16550D01*
X40450Y-16379D02*
X40436Y-16407D01*
X40421Y-16422D01*
X40393Y-16436D01*
X40379Y-16436D01*
X40350Y-16422D01*
X40336Y-16407D01*
X40321Y-16379D01*
X40321Y-16322D01*
X40336Y-16293D01*
X40350Y-16279D01*
X40379Y-16264D01*
X40393Y-16264D01*
X40421Y-16279D01*
X40436Y-16293D01*
X40450Y-16322D01*
X40450Y-16379D01*
X40464Y-16407D01*
X40479Y-16422D01*
X40507Y-16436D01*
X40564Y-16436D01*
X40593Y-16422D01*
X40607Y-16407D01*
X40621Y-16379D01*
X40621Y-16322D01*
X40607Y-16293D01*
X40593Y-16279D01*
X40564Y-16264D01*
X40507Y-16264D01*
X40479Y-16279D01*
X40464Y-16293D01*
X40450Y-16322D01*
X40593Y-21550D02*
X40607Y-21564D01*
X40621Y-21607D01*
X40621Y-21636D01*
X40607Y-21679D01*
X40579Y-21707D01*
X40550Y-21722D01*
X40493Y-21736D01*
X40450Y-21736D01*
X40393Y-21722D01*
X40364Y-21707D01*
X40336Y-21679D01*
X40321Y-21636D01*
X40321Y-21607D01*
X40336Y-21564D01*
X40350Y-21550D01*
X40621Y-21407D02*
X40621Y-21350D01*
X40607Y-21322D01*
X40593Y-21307D01*
X40550Y-21279D01*
X40493Y-21264D01*
X40379Y-21264D01*
X40350Y-21279D01*
X40336Y-21293D01*
X40321Y-21322D01*
X40321Y-21379D01*
X40336Y-21407D01*
X40350Y-21422D01*
X40379Y-21436D01*
X40450Y-21436D01*
X40479Y-21422D01*
X40493Y-21407D01*
X40507Y-21379D01*
X40507Y-21322D01*
X40493Y-21293D01*
X40479Y-21279D01*
X40450Y-21264D01*
X25058Y-18777D02*
X25046Y-18789D01*
X25011Y-18801D01*
X24987Y-18801D01*
X24951Y-18789D01*
X24927Y-18765D01*
X24916Y-18742D01*
X24904Y-18694D01*
X24904Y-18658D01*
X24916Y-18611D01*
X24927Y-18587D01*
X24951Y-18563D01*
X24987Y-18551D01*
X25011Y-18551D01*
X25046Y-18563D01*
X25058Y-18575D01*
X25142Y-18551D02*
X25296Y-18551D01*
X25213Y-18646D01*
X25249Y-18646D01*
X25273Y-18658D01*
X25285Y-18670D01*
X25296Y-18694D01*
X25296Y-18754D01*
X25285Y-18777D01*
X25273Y-18789D01*
X25249Y-18801D01*
X25177Y-18801D01*
X25154Y-18789D01*
X25142Y-18777D01*
X36677Y-17642D02*
X36689Y-17654D01*
X36701Y-17689D01*
X36701Y-17713D01*
X36689Y-17749D01*
X36665Y-17773D01*
X36642Y-17784D01*
X36594Y-17796D01*
X36558Y-17796D01*
X36511Y-17784D01*
X36487Y-17773D01*
X36463Y-17749D01*
X36451Y-17713D01*
X36451Y-17689D01*
X36463Y-17654D01*
X36475Y-17642D01*
X36535Y-17427D02*
X36701Y-17427D01*
X36439Y-17487D02*
X36618Y-17546D01*
X36618Y-17392D01*
X26058Y-18777D02*
X26046Y-18789D01*
X26011Y-18801D01*
X25987Y-18801D01*
X25951Y-18789D01*
X25927Y-18765D01*
X25916Y-18742D01*
X25904Y-18694D01*
X25904Y-18658D01*
X25916Y-18611D01*
X25927Y-18587D01*
X25951Y-18563D01*
X25987Y-18551D01*
X26011Y-18551D01*
X26046Y-18563D01*
X26058Y-18575D01*
X26285Y-18551D02*
X26166Y-18551D01*
X26154Y-18670D01*
X26166Y-18658D01*
X26189Y-18646D01*
X26249Y-18646D01*
X26273Y-18658D01*
X26285Y-18670D01*
X26296Y-18694D01*
X26296Y-18754D01*
X26285Y-18777D01*
X26273Y-18789D01*
X26249Y-18801D01*
X26189Y-18801D01*
X26166Y-18789D01*
X26154Y-18777D01*
X36577Y-24542D02*
X36589Y-24554D01*
X36601Y-24589D01*
X36601Y-24613D01*
X36589Y-24649D01*
X36565Y-24673D01*
X36542Y-24684D01*
X36494Y-24696D01*
X36458Y-24696D01*
X36411Y-24684D01*
X36387Y-24673D01*
X36363Y-24649D01*
X36351Y-24613D01*
X36351Y-24589D01*
X36363Y-24554D01*
X36375Y-24542D01*
X36351Y-24327D02*
X36351Y-24375D01*
X36363Y-24399D01*
X36375Y-24411D01*
X36411Y-24434D01*
X36458Y-24446D01*
X36554Y-24446D01*
X36577Y-24434D01*
X36589Y-24423D01*
X36601Y-24399D01*
X36601Y-24351D01*
X36589Y-24327D01*
X36577Y-24315D01*
X36554Y-24304D01*
X36494Y-24304D01*
X36470Y-24315D01*
X36458Y-24327D01*
X36446Y-24351D01*
X36446Y-24399D01*
X36458Y-24423D01*
X36470Y-24434D01*
X36494Y-24446D01*
X25858Y-28877D02*
X25846Y-28889D01*
X25811Y-28901D01*
X25787Y-28901D01*
X25751Y-28889D01*
X25727Y-28865D01*
X25716Y-28842D01*
X25704Y-28794D01*
X25704Y-28758D01*
X25716Y-28711D01*
X25727Y-28687D01*
X25751Y-28663D01*
X25787Y-28651D01*
X25811Y-28651D01*
X25846Y-28663D01*
X25858Y-28675D01*
X26013Y-28651D02*
X26037Y-28651D01*
X26061Y-28663D01*
X26073Y-28675D01*
X26085Y-28699D01*
X26096Y-28746D01*
X26096Y-28806D01*
X26085Y-28854D01*
X26073Y-28877D01*
X26061Y-28889D01*
X26037Y-28901D01*
X26013Y-28901D01*
X25989Y-28889D01*
X25977Y-28877D01*
X25966Y-28854D01*
X25954Y-28806D01*
X25954Y-28746D01*
X25966Y-28699D01*
X25977Y-28675D01*
X25989Y-28663D01*
X26013Y-28651D01*
X14577Y-17742D02*
X14589Y-17754D01*
X14601Y-17789D01*
X14601Y-17813D01*
X14589Y-17849D01*
X14565Y-17873D01*
X14542Y-17884D01*
X14494Y-17896D01*
X14458Y-17896D01*
X14411Y-17884D01*
X14387Y-17873D01*
X14363Y-17849D01*
X14351Y-17813D01*
X14351Y-17789D01*
X14363Y-17754D01*
X14375Y-17742D01*
X14375Y-17646D02*
X14363Y-17634D01*
X14351Y-17611D01*
X14351Y-17551D01*
X14363Y-17527D01*
X14375Y-17515D01*
X14399Y-17504D01*
X14423Y-17504D01*
X14458Y-17515D01*
X14601Y-17658D01*
X14601Y-17504D01*
X24958Y-28901D02*
X24875Y-28782D01*
X24816Y-28901D02*
X24816Y-28651D01*
X24911Y-28651D01*
X24935Y-28663D01*
X24946Y-28675D01*
X24958Y-28699D01*
X24958Y-28735D01*
X24946Y-28758D01*
X24935Y-28770D01*
X24911Y-28782D01*
X24816Y-28782D01*
X25113Y-28651D02*
X25137Y-28651D01*
X25161Y-28663D01*
X25173Y-28675D01*
X25185Y-28699D01*
X25196Y-28746D01*
X25196Y-28806D01*
X25185Y-28854D01*
X25173Y-28877D01*
X25161Y-28889D01*
X25137Y-28901D01*
X25113Y-28901D01*
X25089Y-28889D01*
X25077Y-28877D01*
X25066Y-28854D01*
X25054Y-28806D01*
X25054Y-28746D01*
X25066Y-28699D01*
X25077Y-28675D01*
X25089Y-28663D01*
X25113Y-28651D01*
X14001Y-24642D02*
X13882Y-24725D01*
X14001Y-24784D02*
X13751Y-24784D01*
X13751Y-24689D01*
X13763Y-24665D01*
X13775Y-24654D01*
X13799Y-24642D01*
X13835Y-24642D01*
X13858Y-24654D01*
X13870Y-24665D01*
X13882Y-24689D01*
X13882Y-24784D01*
X14001Y-24404D02*
X14001Y-24546D01*
X14001Y-24475D02*
X13751Y-24475D01*
X13787Y-24499D01*
X13811Y-24523D01*
X13823Y-24546D01*
X26201Y-22342D02*
X26082Y-22425D01*
X26201Y-22484D02*
X25951Y-22484D01*
X25951Y-22389D01*
X25963Y-22365D01*
X25975Y-22354D01*
X25999Y-22342D01*
X26035Y-22342D01*
X26058Y-22354D01*
X26070Y-22365D01*
X26082Y-22389D01*
X26082Y-22484D01*
X25975Y-22246D02*
X25963Y-22234D01*
X25951Y-22211D01*
X25951Y-22151D01*
X25963Y-22127D01*
X25975Y-22115D01*
X25999Y-22104D01*
X26023Y-22104D01*
X26058Y-22115D01*
X26201Y-22258D01*
X26201Y-22104D01*
X36701Y-15792D02*
X36582Y-15875D01*
X36701Y-15934D02*
X36451Y-15934D01*
X36451Y-15839D01*
X36463Y-15815D01*
X36475Y-15804D01*
X36499Y-15792D01*
X36535Y-15792D01*
X36558Y-15804D01*
X36570Y-15815D01*
X36582Y-15839D01*
X36582Y-15934D01*
X36451Y-15577D02*
X36451Y-15625D01*
X36463Y-15649D01*
X36475Y-15661D01*
X36511Y-15684D01*
X36558Y-15696D01*
X36654Y-15696D01*
X36677Y-15684D01*
X36689Y-15673D01*
X36701Y-15649D01*
X36701Y-15601D01*
X36689Y-15577D01*
X36677Y-15565D01*
X36654Y-15554D01*
X36594Y-15554D01*
X36570Y-15565D01*
X36558Y-15577D01*
X36546Y-15601D01*
X36546Y-15649D01*
X36558Y-15673D01*
X36570Y-15684D01*
X36594Y-15696D01*
X26177Y-24042D02*
X26189Y-24054D01*
X26201Y-24089D01*
X26201Y-24113D01*
X26189Y-24149D01*
X26165Y-24173D01*
X26142Y-24184D01*
X26094Y-24196D01*
X26058Y-24196D01*
X26011Y-24184D01*
X25987Y-24173D01*
X25963Y-24149D01*
X25951Y-24113D01*
X25951Y-24089D01*
X25963Y-24054D01*
X25975Y-24042D01*
X26201Y-23804D02*
X26201Y-23946D01*
X26201Y-23875D02*
X25951Y-23875D01*
X25987Y-23899D01*
X26011Y-23923D01*
X26023Y-23946D01*
G54D13*
X14543Y-14643D02*
X14543Y-15129D01*
X14571Y-15186D01*
X14600Y-15214D01*
X14657Y-15243D01*
X14771Y-15243D01*
X14829Y-15214D01*
X14857Y-15186D01*
X14886Y-15129D01*
X14886Y-14643D01*
X15486Y-15243D02*
X15143Y-15243D01*
X15315Y-15243D02*
X15315Y-14643D01*
X15258Y-14729D01*
X15200Y-14786D01*
X15143Y-14814D01*
G54D14*
X40077Y-23161D02*
X40089Y-23173D01*
X40101Y-23208D01*
X40101Y-23232D01*
X40089Y-23268D01*
X40065Y-23292D01*
X40042Y-23303D01*
X39994Y-23315D01*
X39958Y-23315D01*
X39911Y-23303D01*
X39887Y-23292D01*
X39863Y-23268D01*
X39851Y-23232D01*
X39851Y-23208D01*
X39863Y-23173D01*
X39875Y-23161D01*
X40101Y-22923D02*
X40101Y-23065D01*
X40101Y-22994D02*
X39851Y-22994D01*
X39887Y-23018D01*
X39911Y-23042D01*
X39923Y-23065D01*
X39851Y-22768D02*
X39851Y-22744D01*
X39863Y-22720D01*
X39875Y-22708D01*
X39899Y-22696D01*
X39946Y-22685D01*
X40006Y-22685D01*
X40054Y-22696D01*
X40077Y-22708D01*
X40089Y-22720D01*
X40101Y-22744D01*
X40101Y-22768D01*
X40089Y-22792D01*
X40077Y-22804D01*
X40054Y-22815D01*
X40006Y-22827D01*
X39946Y-22827D01*
X39899Y-22815D01*
X39875Y-22804D01*
X39863Y-22792D01*
X39851Y-22768D01*
X14001Y-25442D02*
X13882Y-25525D01*
X14001Y-25584D02*
X13751Y-25584D01*
X13751Y-25489D01*
X13763Y-25465D01*
X13775Y-25454D01*
X13799Y-25442D01*
X13835Y-25442D01*
X13858Y-25454D01*
X13870Y-25465D01*
X13882Y-25489D01*
X13882Y-25584D01*
X13751Y-25358D02*
X13751Y-25204D01*
X13846Y-25287D01*
X13846Y-25251D01*
X13858Y-25227D01*
X13870Y-25215D01*
X13894Y-25204D01*
X13954Y-25204D01*
X13977Y-25215D01*
X13989Y-25227D01*
X14001Y-25251D01*
X14001Y-25323D01*
X13989Y-25346D01*
X13977Y-25358D01*
X14601Y-16142D02*
X14482Y-16225D01*
X14601Y-16284D02*
X14351Y-16284D01*
X14351Y-16189D01*
X14363Y-16165D01*
X14375Y-16154D01*
X14399Y-16142D01*
X14435Y-16142D01*
X14458Y-16154D01*
X14470Y-16165D01*
X14482Y-16189D01*
X14482Y-16284D01*
X14435Y-15927D02*
X14601Y-15927D01*
X14339Y-15987D02*
X14518Y-16046D01*
X14518Y-15892D01*
X36701Y-19342D02*
X36582Y-19425D01*
X36701Y-19484D02*
X36451Y-19484D01*
X36451Y-19389D01*
X36463Y-19365D01*
X36475Y-19354D01*
X36499Y-19342D01*
X36535Y-19342D01*
X36558Y-19354D01*
X36570Y-19365D01*
X36582Y-19389D01*
X36582Y-19484D01*
X36451Y-19115D02*
X36451Y-19234D01*
X36570Y-19246D01*
X36558Y-19234D01*
X36546Y-19211D01*
X36546Y-19151D01*
X36558Y-19127D01*
X36570Y-19115D01*
X36594Y-19104D01*
X36654Y-19104D01*
X36677Y-19115D01*
X36689Y-19127D01*
X36701Y-19151D01*
X36701Y-19211D01*
X36689Y-19234D01*
X36677Y-19246D01*
G54D15*
X13162Y-25986D02*
X12762Y-25986D01*
X12762Y-25833D01*
X12781Y-25795D01*
X12800Y-25776D01*
X12838Y-25757D01*
X12895Y-25757D01*
X12933Y-25776D01*
X12952Y-25795D01*
X12971Y-25833D01*
X12971Y-25986D01*
X12762Y-25510D02*
X12762Y-25471D01*
X12781Y-25433D01*
X12800Y-25414D01*
X12838Y-25395D01*
X12914Y-25376D01*
X13010Y-25376D01*
X13086Y-25395D01*
X13124Y-25414D01*
X13143Y-25433D01*
X13162Y-25471D01*
X13162Y-25510D01*
X13143Y-25548D01*
X13124Y-25567D01*
X13086Y-25586D01*
X13010Y-25605D01*
X12914Y-25605D01*
X12838Y-25586D01*
X12800Y-25567D01*
X12781Y-25548D01*
X12762Y-25510D01*
X13162Y-24995D02*
X13162Y-25224D01*
X13162Y-25110D02*
X12762Y-25110D01*
X12819Y-25148D01*
X12857Y-25186D01*
X12876Y-25224D01*
X13162Y-21236D02*
X12762Y-21236D01*
X12762Y-21083D01*
X12781Y-21045D01*
X12800Y-21026D01*
X12838Y-21007D01*
X12895Y-21007D01*
X12933Y-21026D01*
X12952Y-21045D01*
X12971Y-21083D01*
X12971Y-21236D01*
X12762Y-20760D02*
X12762Y-20721D01*
X12781Y-20683D01*
X12800Y-20664D01*
X12838Y-20645D01*
X12914Y-20626D01*
X13010Y-20626D01*
X13086Y-20645D01*
X13124Y-20664D01*
X13143Y-20683D01*
X13162Y-20721D01*
X13162Y-20760D01*
X13143Y-20798D01*
X13124Y-20817D01*
X13086Y-20836D01*
X13010Y-20855D01*
X12914Y-20855D01*
X12838Y-20836D01*
X12800Y-20817D01*
X12781Y-20798D01*
X12762Y-20760D01*
X12800Y-20474D02*
X12781Y-20455D01*
X12762Y-20417D01*
X12762Y-20321D01*
X12781Y-20283D01*
X12800Y-20264D01*
X12838Y-20245D01*
X12876Y-20245D01*
X12933Y-20264D01*
X13162Y-20493D01*
X13162Y-20245D01*
X13162Y-16486D02*
X12762Y-16486D01*
X12762Y-16333D01*
X12781Y-16295D01*
X12800Y-16276D01*
X12838Y-16257D01*
X12895Y-16257D01*
X12933Y-16276D01*
X12952Y-16295D01*
X12971Y-16333D01*
X12971Y-16486D01*
X12762Y-16010D02*
X12762Y-15971D01*
X12781Y-15933D01*
X12800Y-15914D01*
X12838Y-15895D01*
X12914Y-15876D01*
X13010Y-15876D01*
X13086Y-15895D01*
X13124Y-15914D01*
X13143Y-15933D01*
X13162Y-15971D01*
X13162Y-16010D01*
X13143Y-16048D01*
X13124Y-16067D01*
X13086Y-16086D01*
X13010Y-16105D01*
X12914Y-16105D01*
X12838Y-16086D01*
X12800Y-16067D01*
X12781Y-16048D01*
X12762Y-16010D01*
X12762Y-15743D02*
X12762Y-15495D01*
X12914Y-15629D01*
X12914Y-15571D01*
X12933Y-15533D01*
X12952Y-15514D01*
X12990Y-15495D01*
X13086Y-15495D01*
X13124Y-15514D01*
X13143Y-15533D01*
X13162Y-15571D01*
X13162Y-15686D01*
X13143Y-15724D01*
X13124Y-15743D01*
X42412Y-35486D02*
X42012Y-35486D01*
X42012Y-35333D01*
X42031Y-35295D01*
X42050Y-35276D01*
X42088Y-35257D01*
X42145Y-35257D01*
X42183Y-35276D01*
X42202Y-35295D01*
X42221Y-35333D01*
X42221Y-35486D01*
X42050Y-35105D02*
X42031Y-35086D01*
X42012Y-35048D01*
X42012Y-34952D01*
X42031Y-34914D01*
X42050Y-34895D01*
X42088Y-34876D01*
X42126Y-34876D01*
X42183Y-34895D01*
X42412Y-35124D01*
X42412Y-34876D01*
X42412Y-34495D02*
X42412Y-34724D01*
X42412Y-34610D02*
X42012Y-34610D01*
X42069Y-34648D01*
X42107Y-34686D01*
X42126Y-34724D01*
X42662Y-32236D02*
X42262Y-32236D01*
X42262Y-32083D01*
X42281Y-32045D01*
X42300Y-32026D01*
X42338Y-32007D01*
X42395Y-32007D01*
X42433Y-32026D01*
X42452Y-32045D01*
X42471Y-32083D01*
X42471Y-32236D01*
X42300Y-31855D02*
X42281Y-31836D01*
X42262Y-31798D01*
X42262Y-31702D01*
X42281Y-31664D01*
X42300Y-31645D01*
X42338Y-31626D01*
X42376Y-31626D01*
X42433Y-31645D01*
X42662Y-31874D01*
X42662Y-31626D01*
X42300Y-31474D02*
X42281Y-31455D01*
X42262Y-31417D01*
X42262Y-31321D01*
X42281Y-31283D01*
X42300Y-31264D01*
X42338Y-31245D01*
X42376Y-31245D01*
X42433Y-31264D01*
X42662Y-31493D01*
X42662Y-31245D01*
G54D10*
X35635Y-21321D02*
X35635Y-21021D01*
X35750Y-21021D01*
X35778Y-21036D01*
X35793Y-21050D01*
X35807Y-21079D01*
X35807Y-21121D01*
X35793Y-21150D01*
X35778Y-21164D01*
X35750Y-21179D01*
X35635Y-21179D01*
X35993Y-21021D02*
X36021Y-21021D01*
X36050Y-21036D01*
X36064Y-21050D01*
X36078Y-21079D01*
X36093Y-21136D01*
X36093Y-21207D01*
X36078Y-21264D01*
X36064Y-21293D01*
X36050Y-21307D01*
X36021Y-21321D01*
X35993Y-21321D01*
X35964Y-21307D01*
X35950Y-21293D01*
X35935Y-21264D01*
X35921Y-21207D01*
X35921Y-21136D01*
X35935Y-21079D01*
X35950Y-21050D01*
X35964Y-21036D01*
X35993Y-21021D01*
X36350Y-21121D02*
X36350Y-21321D01*
X36279Y-21007D02*
X36207Y-21221D01*
X36393Y-21221D01*
G54D14*
X41743Y-25942D02*
X41143Y-25942D01*
X41143Y-25714D01*
X41171Y-25656D01*
X41200Y-25628D01*
X41257Y-25599D01*
X41343Y-25599D01*
X41400Y-25628D01*
X41429Y-25656D01*
X41457Y-25714D01*
X41457Y-25942D01*
X41143Y-25228D02*
X41143Y-25171D01*
X41171Y-25114D01*
X41200Y-25085D01*
X41257Y-25056D01*
X41371Y-25028D01*
X41514Y-25028D01*
X41629Y-25056D01*
X41686Y-25085D01*
X41714Y-25114D01*
X41743Y-25171D01*
X41743Y-25228D01*
X41714Y-25285D01*
X41686Y-25314D01*
X41629Y-25342D01*
X41514Y-25371D01*
X41371Y-25371D01*
X41257Y-25342D01*
X41200Y-25314D01*
X41171Y-25285D01*
X41143Y-25228D01*
X35195Y-28482D02*
X35195Y-28846D01*
X35214Y-28889D01*
X35233Y-28911D01*
X35271Y-28932D01*
X35348Y-28932D01*
X35386Y-28911D01*
X35405Y-28889D01*
X35424Y-28846D01*
X35424Y-28482D01*
X35576Y-28482D02*
X35824Y-28482D01*
X35690Y-28654D01*
X35748Y-28654D01*
X35786Y-28675D01*
X35805Y-28696D01*
X35824Y-28739D01*
X35824Y-28846D01*
X35805Y-28889D01*
X35786Y-28911D01*
X35748Y-28932D01*
X35633Y-28932D01*
X35595Y-28911D01*
X35576Y-28889D01*
X36601Y-25542D02*
X36482Y-25625D01*
X36601Y-25684D02*
X36351Y-25684D01*
X36351Y-25589D01*
X36363Y-25565D01*
X36375Y-25554D01*
X36399Y-25542D01*
X36435Y-25542D01*
X36458Y-25554D01*
X36470Y-25565D01*
X36482Y-25589D01*
X36482Y-25684D01*
X36351Y-25458D02*
X36351Y-25292D01*
X36601Y-25399D01*
M02*
