G04 (created by PCBNEW-RS274X (2012-01-19 BZR 3256)-stable) date 22/03/2013 00:28:45*
G01*
G70*
G90*
%MOIN*%
G04 Gerber Fmt 3.4, Leading zero omitted, Abs format*
%FSLAX34Y34*%
G04 APERTURE LIST*
%ADD10C,0.006000*%
%ADD11R,0.031800X0.077200*%
%ADD12R,0.077200X0.031800*%
%ADD13R,0.098700X0.027800*%
%ADD14R,0.080000X0.030000*%
%ADD15R,0.030000X0.080000*%
%ADD16R,0.090000X0.130000*%
%ADD17R,0.065000X0.075000*%
%ADD18R,0.055000X0.065000*%
%ADD19R,0.065000X0.055000*%
%ADD20R,0.055000X0.075000*%
%ADD21C,0.080000*%
%ADD22R,0.080000X0.080000*%
%ADD23R,0.075000X0.075000*%
%ADD24C,0.075000*%
%ADD25R,0.056000X0.056000*%
%ADD26R,0.098700X0.177500*%
%ADD27R,0.083000X0.075100*%
%ADD28R,0.112500X0.039700*%
%ADD29R,0.045600X0.055600*%
%ADD30R,0.039700X0.055600*%
%ADD31R,0.100000X0.060000*%
G04 APERTURE END LIST*
G54D10*
G54D11*
X83689Y-50377D03*
X83492Y-50377D03*
X83295Y-50377D03*
X83098Y-50377D03*
X82902Y-50377D03*
X82705Y-50377D03*
X83886Y-50377D03*
X84083Y-50377D03*
G54D12*
X84723Y-51017D03*
X84723Y-51214D03*
X84723Y-51411D03*
G54D11*
X82705Y-53823D03*
X82508Y-53823D03*
X82311Y-53823D03*
X82114Y-53823D03*
X81917Y-53823D03*
G54D12*
X81277Y-53183D03*
G54D11*
X82902Y-53823D03*
X83098Y-53823D03*
X83295Y-53823D03*
X83492Y-53823D03*
X83689Y-53823D03*
G54D12*
X81277Y-52002D03*
X84723Y-52592D03*
X81277Y-52198D03*
X84723Y-52789D03*
X84723Y-52986D03*
X81277Y-52395D03*
X81277Y-52592D03*
X84723Y-53183D03*
G54D11*
X84083Y-53823D03*
G54D12*
X81277Y-52789D03*
X81277Y-52986D03*
G54D11*
X83886Y-53823D03*
G54D12*
X84723Y-52395D03*
X81277Y-51805D03*
X81277Y-51608D03*
X84723Y-52198D03*
X84723Y-52002D03*
X81277Y-51411D03*
X81277Y-51214D03*
X84723Y-51805D03*
X84723Y-51608D03*
X81277Y-51017D03*
G54D11*
X82508Y-50377D03*
X82311Y-50377D03*
X82114Y-50377D03*
X81917Y-50377D03*
G54D13*
X97587Y-49620D03*
X97587Y-49423D03*
X97587Y-49226D03*
X97587Y-49030D03*
X97587Y-48833D03*
X97587Y-48636D03*
X97587Y-48439D03*
X97587Y-48242D03*
X97587Y-48045D03*
X97587Y-47848D03*
X97587Y-47652D03*
X97587Y-47455D03*
X97587Y-47258D03*
X97587Y-47061D03*
X97587Y-46864D03*
X97587Y-46667D03*
X97587Y-46470D03*
X97587Y-46274D03*
X97587Y-46077D03*
X97587Y-45880D03*
X97587Y-45683D03*
X97587Y-45486D03*
X97587Y-45289D03*
X97587Y-45093D03*
X89713Y-45093D03*
X89713Y-45289D03*
X89713Y-45486D03*
X89713Y-45683D03*
X89713Y-45880D03*
X89713Y-46077D03*
X89713Y-46274D03*
X89713Y-46470D03*
X89713Y-46667D03*
X89713Y-46864D03*
X89713Y-47061D03*
X89713Y-47258D03*
X89713Y-47455D03*
X89713Y-47652D03*
X89713Y-47848D03*
X89713Y-48045D03*
X89713Y-48242D03*
X89713Y-48439D03*
X89713Y-48636D03*
X89713Y-48833D03*
X89713Y-49030D03*
X89713Y-49226D03*
X89713Y-49423D03*
X89713Y-49620D03*
X89713Y-49817D03*
X89713Y-50014D03*
X89713Y-50211D03*
X89713Y-50407D03*
X97587Y-49817D03*
X97587Y-50014D03*
X97587Y-50211D03*
X97587Y-50407D03*
G54D14*
X78675Y-48655D03*
X78675Y-48855D03*
X78675Y-49050D03*
X78675Y-49245D03*
X78675Y-49445D03*
X78675Y-49640D03*
X78675Y-49835D03*
X78675Y-50035D03*
X78675Y-50230D03*
X78675Y-50425D03*
X78675Y-50625D03*
X78675Y-50820D03*
X78675Y-51015D03*
X78675Y-51215D03*
X78675Y-51410D03*
X78675Y-51605D03*
X78675Y-51805D03*
X78675Y-52000D03*
X78675Y-52200D03*
X78675Y-52395D03*
X78675Y-52595D03*
X78675Y-52790D03*
X78675Y-52985D03*
X78675Y-53185D03*
X78675Y-53380D03*
X78675Y-53575D03*
X78675Y-53775D03*
X78675Y-53970D03*
X78675Y-54165D03*
X78675Y-54365D03*
X78675Y-54560D03*
X78675Y-54755D03*
X78675Y-54955D03*
X78675Y-55150D03*
X78675Y-55345D03*
X78675Y-55545D03*
G54D15*
X85265Y-56425D03*
X85460Y-56425D03*
X85655Y-56425D03*
X85855Y-56425D03*
X86050Y-56425D03*
X86245Y-56425D03*
X86445Y-56425D03*
X85460Y-47775D03*
X85265Y-47775D03*
X85065Y-47775D03*
X84870Y-47775D03*
X84675Y-47775D03*
X84475Y-47775D03*
X84280Y-47775D03*
X84085Y-47775D03*
X83885Y-47775D03*
X83690Y-47775D03*
X83495Y-47775D03*
X83295Y-47775D03*
X83100Y-47775D03*
X82900Y-47775D03*
X82705Y-47775D03*
X82505Y-47775D03*
X82310Y-47775D03*
X82115Y-47775D03*
X81915Y-47775D03*
X81720Y-47775D03*
X81525Y-47775D03*
X81325Y-47775D03*
X81130Y-47775D03*
X80935Y-47775D03*
X80735Y-47775D03*
X80540Y-47775D03*
X80345Y-47775D03*
X80145Y-47775D03*
X79950Y-47775D03*
X79755Y-47775D03*
X79555Y-47775D03*
X79555Y-56425D03*
X79755Y-56425D03*
X79950Y-56425D03*
X80145Y-56425D03*
X80345Y-56425D03*
X80540Y-56425D03*
X80735Y-56425D03*
X80935Y-56425D03*
X81130Y-56425D03*
X81325Y-56425D03*
X81525Y-56425D03*
X81720Y-56425D03*
X81915Y-56425D03*
X82115Y-56425D03*
X82310Y-56425D03*
X82505Y-56425D03*
X82705Y-56425D03*
X82900Y-56425D03*
X83100Y-56425D03*
X83295Y-56425D03*
X83495Y-56425D03*
X83690Y-56425D03*
X83885Y-56425D03*
X84085Y-56425D03*
X84280Y-56425D03*
X84475Y-56425D03*
X84675Y-56425D03*
X84870Y-56425D03*
X85065Y-56425D03*
G54D14*
X87325Y-54560D03*
X87325Y-54365D03*
X87325Y-54165D03*
X87325Y-53970D03*
X87325Y-53775D03*
X87325Y-53575D03*
X87325Y-53380D03*
X87325Y-53185D03*
X87325Y-52985D03*
X87325Y-52790D03*
X87325Y-52595D03*
X87325Y-52395D03*
X87325Y-52200D03*
X87325Y-52000D03*
X87325Y-51805D03*
X87325Y-51605D03*
X87325Y-51410D03*
X87325Y-51215D03*
X87325Y-51015D03*
X87325Y-50820D03*
X87325Y-50625D03*
X87325Y-50425D03*
X87325Y-50230D03*
X87325Y-50035D03*
X87325Y-49835D03*
X87325Y-49640D03*
X87325Y-49445D03*
X87325Y-49245D03*
X87325Y-49050D03*
X87325Y-48855D03*
X87325Y-48655D03*
X87325Y-55545D03*
X87325Y-55345D03*
X87325Y-55150D03*
X87325Y-54955D03*
X87325Y-54755D03*
G54D15*
X86445Y-47775D03*
X86245Y-47775D03*
X86050Y-47775D03*
X85855Y-47775D03*
X85655Y-47775D03*
G54D16*
X74800Y-46000D03*
X76200Y-46000D03*
X76200Y-44450D03*
X74800Y-44450D03*
G54D17*
X75525Y-47200D03*
X74675Y-47200D03*
G54D18*
X100750Y-47450D03*
X100050Y-47450D03*
G54D19*
X88650Y-50950D03*
X88650Y-51650D03*
G54D18*
X76950Y-55200D03*
X77650Y-55200D03*
X77650Y-55900D03*
X76950Y-55900D03*
X77650Y-56600D03*
X76950Y-56600D03*
G54D19*
X78400Y-56450D03*
X78400Y-57150D03*
G54D18*
X79400Y-46950D03*
X80100Y-46950D03*
X97050Y-51000D03*
X97750Y-51000D03*
X100750Y-54450D03*
X100050Y-54450D03*
X76950Y-54500D03*
X77650Y-54500D03*
X100750Y-46450D03*
X100050Y-46450D03*
X100750Y-53450D03*
X100050Y-53450D03*
X100750Y-48450D03*
X100050Y-48450D03*
X100750Y-49450D03*
X100050Y-49450D03*
X100750Y-51450D03*
X100050Y-51450D03*
X100750Y-52450D03*
X100050Y-52450D03*
X100750Y-50450D03*
X100050Y-50450D03*
X87200Y-56450D03*
X87900Y-56450D03*
G54D19*
X79050Y-57150D03*
X79050Y-56450D03*
G54D18*
X77650Y-52900D03*
X76950Y-52900D03*
X77650Y-53700D03*
X76950Y-53700D03*
G54D20*
X99475Y-46450D03*
X98725Y-46450D03*
X99475Y-47450D03*
X98725Y-47450D03*
X99475Y-48450D03*
X98725Y-48450D03*
X99475Y-49450D03*
X98725Y-49450D03*
X99475Y-51450D03*
X98725Y-51450D03*
X99475Y-50450D03*
X98725Y-50450D03*
X99475Y-52450D03*
X98725Y-52450D03*
X99475Y-53450D03*
X98725Y-53450D03*
X99475Y-54450D03*
X98725Y-54450D03*
G54D19*
X78750Y-47600D03*
X78750Y-46900D03*
G54D18*
X100750Y-45500D03*
X100050Y-45500D03*
G54D21*
X102500Y-45450D03*
X101500Y-46450D03*
G54D22*
X101500Y-45450D03*
G54D21*
X102500Y-46450D03*
X101500Y-47450D03*
X102500Y-47450D03*
X101500Y-48450D03*
X102500Y-48450D03*
X101500Y-49450D03*
X102500Y-49450D03*
X101500Y-50450D03*
X102500Y-50450D03*
X101500Y-51450D03*
X102500Y-51450D03*
X101500Y-52450D03*
X102500Y-52450D03*
X101500Y-53450D03*
X102500Y-53450D03*
X101500Y-54450D03*
X102500Y-54450D03*
G54D19*
X89350Y-50950D03*
X89350Y-51650D03*
X95650Y-51850D03*
X95650Y-51150D03*
G54D18*
X98750Y-57500D03*
X99450Y-57500D03*
X99450Y-55400D03*
X98750Y-55400D03*
G54D19*
X101350Y-43500D03*
X101350Y-44200D03*
G54D21*
X100257Y-56100D03*
X102343Y-56100D03*
G54D23*
X74900Y-55000D03*
G54D24*
X75900Y-55000D03*
G54D23*
X74900Y-52700D03*
G54D24*
X75900Y-52700D03*
G54D23*
X78400Y-57700D03*
G54D24*
X77400Y-57700D03*
G54D25*
X99500Y-56100D03*
X99500Y-56800D03*
X98700Y-56450D03*
G54D26*
X93000Y-54650D03*
X97800Y-54650D03*
G54D27*
X74435Y-48060D03*
X76600Y-48060D03*
X74435Y-51840D03*
X76600Y-51840D03*
G54D28*
X77230Y-49320D03*
X77230Y-49635D03*
X77230Y-49950D03*
X77230Y-50265D03*
X77230Y-50580D03*
G54D22*
X77350Y-42500D03*
G54D21*
X77350Y-41500D03*
X78350Y-42500D03*
X78350Y-41500D03*
X79350Y-42500D03*
X79350Y-41500D03*
X80350Y-42500D03*
X80350Y-41500D03*
X81350Y-42500D03*
X81350Y-41500D03*
X82350Y-42500D03*
X82350Y-41500D03*
X83350Y-42500D03*
X83350Y-41500D03*
X84350Y-42500D03*
X84350Y-41500D03*
X85350Y-42500D03*
X85350Y-41500D03*
X86350Y-42500D03*
X86350Y-41500D03*
X87350Y-42500D03*
X87350Y-41500D03*
X88350Y-42500D03*
X88350Y-41500D03*
X89350Y-42500D03*
X89350Y-41500D03*
X90350Y-42500D03*
X90350Y-41500D03*
X91350Y-42500D03*
X91350Y-41500D03*
X92350Y-42500D03*
X92350Y-41500D03*
X93350Y-42500D03*
X93350Y-41500D03*
X94350Y-42500D03*
X94350Y-41500D03*
X95350Y-42500D03*
X95350Y-41500D03*
X96350Y-42500D03*
X96350Y-41500D03*
X97350Y-42500D03*
X97350Y-41500D03*
X98350Y-42500D03*
X98350Y-41500D03*
X99350Y-42500D03*
X99350Y-41500D03*
X100350Y-42500D03*
X100350Y-41500D03*
X101350Y-42500D03*
X101350Y-41500D03*
X102350Y-42500D03*
X102350Y-41500D03*
G54D19*
X102050Y-44200D03*
X102050Y-43500D03*
G54D29*
X96352Y-44149D03*
G54D30*
X96007Y-44149D03*
X95693Y-44149D03*
G54D29*
X95348Y-44149D03*
X95348Y-43451D03*
G54D30*
X95693Y-43451D03*
X96007Y-43451D03*
G54D29*
X96352Y-43451D03*
X94352Y-44149D03*
G54D30*
X94007Y-44149D03*
X93693Y-44149D03*
G54D29*
X93348Y-44149D03*
X93348Y-43451D03*
G54D30*
X93693Y-43451D03*
X94007Y-43451D03*
G54D29*
X94352Y-43451D03*
X92352Y-44149D03*
G54D30*
X92007Y-44149D03*
X91693Y-44149D03*
G54D29*
X91348Y-44149D03*
X91348Y-43451D03*
G54D30*
X91693Y-43451D03*
X92007Y-43451D03*
G54D29*
X92352Y-43451D03*
X90352Y-44149D03*
G54D30*
X90007Y-44149D03*
X89693Y-44149D03*
G54D29*
X89348Y-44149D03*
X89348Y-43451D03*
G54D30*
X89693Y-43451D03*
X90007Y-43451D03*
G54D29*
X90352Y-43451D03*
X88352Y-44149D03*
G54D30*
X88007Y-44149D03*
X87693Y-44149D03*
G54D29*
X87348Y-44149D03*
X87348Y-43451D03*
G54D30*
X87693Y-43451D03*
X88007Y-43451D03*
G54D29*
X88352Y-43451D03*
X86352Y-44149D03*
G54D30*
X86007Y-44149D03*
X85693Y-44149D03*
G54D29*
X85348Y-44149D03*
X85348Y-43451D03*
G54D30*
X85693Y-43451D03*
X86007Y-43451D03*
G54D29*
X86352Y-43451D03*
X84352Y-44149D03*
G54D30*
X84007Y-44149D03*
X83693Y-44149D03*
G54D29*
X83348Y-44149D03*
X83348Y-43451D03*
G54D30*
X83693Y-43451D03*
X84007Y-43451D03*
G54D29*
X84352Y-43451D03*
X82902Y-44149D03*
G54D30*
X82557Y-44149D03*
X82243Y-44149D03*
G54D29*
X81898Y-44149D03*
X81898Y-43451D03*
G54D30*
X82243Y-43451D03*
X82557Y-43451D03*
G54D29*
X82902Y-43451D03*
X81452Y-44149D03*
G54D30*
X81107Y-44149D03*
X80793Y-44149D03*
G54D29*
X80448Y-44149D03*
X80448Y-43451D03*
G54D30*
X80793Y-43451D03*
X81107Y-43451D03*
G54D29*
X81452Y-43451D03*
X79402Y-44149D03*
G54D30*
X79057Y-44149D03*
X78743Y-44149D03*
G54D29*
X78398Y-44149D03*
X78398Y-43451D03*
G54D30*
X78743Y-43451D03*
X79057Y-43451D03*
G54D29*
X79402Y-43451D03*
X98352Y-44149D03*
G54D30*
X98007Y-44149D03*
X97693Y-44149D03*
G54D29*
X97348Y-44149D03*
X97348Y-43451D03*
G54D30*
X97693Y-43451D03*
X98007Y-43451D03*
G54D29*
X98352Y-43451D03*
X100752Y-44149D03*
G54D30*
X100407Y-44149D03*
X100093Y-44149D03*
G54D29*
X99748Y-44149D03*
X99748Y-43451D03*
G54D30*
X100093Y-43451D03*
X100407Y-43451D03*
G54D29*
X100752Y-43451D03*
G54D16*
X90200Y-58050D03*
X88800Y-58050D03*
G54D21*
X100257Y-57800D03*
X102343Y-57800D03*
G54D31*
X74900Y-54300D03*
X76100Y-54300D03*
X76100Y-53700D03*
X74900Y-53700D03*
G54D19*
X81450Y-58450D03*
X81450Y-57750D03*
X84500Y-57700D03*
X84500Y-58400D03*
X80650Y-57750D03*
X80650Y-58450D03*
X79050Y-57750D03*
X79050Y-58450D03*
G54D25*
X87900Y-58450D03*
X87200Y-58450D03*
X87550Y-57650D03*
G54D19*
X85750Y-58400D03*
X85750Y-57700D03*
G54D22*
X77600Y-47700D03*
G54D21*
X77600Y-46700D03*
X77600Y-45700D03*
X77600Y-44700D03*
X77600Y-43700D03*
G54D18*
X97750Y-51750D03*
X97050Y-51750D03*
G54D19*
X97100Y-58250D03*
X97100Y-57550D03*
X96350Y-57550D03*
X96350Y-58250D03*
X95650Y-57550D03*
X95650Y-58250D03*
X94950Y-57550D03*
X94950Y-58250D03*
X94250Y-57550D03*
X94250Y-58250D03*
X93550Y-58250D03*
X93550Y-57550D03*
X92800Y-57550D03*
X92800Y-58250D03*
X92050Y-57550D03*
X92050Y-58250D03*
X91350Y-57550D03*
X91350Y-58250D03*
X97800Y-58250D03*
X97800Y-57550D03*
X82250Y-58450D03*
X82250Y-57750D03*
X92100Y-54300D03*
X92100Y-55000D03*
G54D18*
X100750Y-55400D03*
X100050Y-55400D03*
G54D19*
X86500Y-58400D03*
X86500Y-57700D03*
G54D18*
X99450Y-45500D03*
X98750Y-45500D03*
G54D19*
X94950Y-51850D03*
X94950Y-51150D03*
M02*
