G04 (created by PCBNEW (2013-03-31 BZR 4008)-stable) date 03/04/2013 13:08:04*
%MOIN*%
G04 Gerber Fmt 3.4, Leading zero omitted, Abs format*
%FSLAX34Y34*%
G01*
G70*
G90*
G04 APERTURE LIST*
%ADD10C,2.3622e-006*%
%ADD11C,0.01*%
%ADD12C,0.005*%
%ADD13C,0.012*%
%ADD14C,0.015*%
%ADD15C,0.0001*%
%ADD16C,0.0045*%
G04 APERTURE END LIST*
G54D10*
G54D11*
X106650Y-43450D02*
X103200Y-43450D01*
X106650Y-56450D02*
X106650Y-43450D01*
X103200Y-56450D02*
X106650Y-56450D01*
X103200Y-43450D02*
X103200Y-56450D01*
X74000Y-58900D02*
X74000Y-56300D01*
X76600Y-58900D02*
X74000Y-58900D01*
X76600Y-56300D02*
X76600Y-58900D01*
X74000Y-56300D02*
X76600Y-56300D01*
X105700Y-58900D02*
X105700Y-56300D01*
X103100Y-58900D02*
X105700Y-58900D01*
X103100Y-56300D02*
X103100Y-58900D01*
X105700Y-56300D02*
X103100Y-56300D01*
X103100Y-43600D02*
X103100Y-41000D01*
X105700Y-43600D02*
X103100Y-43600D01*
X105700Y-41000D02*
X105700Y-43600D01*
X103100Y-41000D02*
X105700Y-41000D01*
X74000Y-41000D02*
X76600Y-41000D01*
X74000Y-43600D02*
X74000Y-41000D01*
X76600Y-43600D02*
X74000Y-43600D01*
X76600Y-41000D02*
X76600Y-43600D01*
G54D12*
X85050Y-50050D02*
X85050Y-54150D01*
X85050Y-54150D02*
X80950Y-54150D01*
X80950Y-54150D02*
X80950Y-50350D01*
X80950Y-50350D02*
X81250Y-50050D01*
X81250Y-50050D02*
X85050Y-50050D01*
X81650Y-50500D02*
G75*
G03X81650Y-50500I-250J0D01*
G74*
G01*
G54D11*
X90150Y-50550D02*
X90150Y-44950D01*
X97150Y-44950D02*
X97150Y-50550D01*
X90150Y-44950D02*
X97150Y-44950D01*
X97150Y-50550D02*
X90150Y-50550D01*
X90650Y-45350D02*
G75*
G03X90650Y-45350I-100J0D01*
G74*
G01*
G54D13*
X80000Y-48850D02*
G75*
G03X80000Y-48850I-250J0D01*
G74*
G01*
X79300Y-48700D02*
X79300Y-48610D01*
X79300Y-48610D02*
X79000Y-48610D01*
X79000Y-48700D02*
X79300Y-48700D01*
X79000Y-55850D02*
X79250Y-56100D01*
X79250Y-56100D02*
X86750Y-56100D01*
X86750Y-56100D02*
X87000Y-55850D01*
X87000Y-55850D02*
X87000Y-48350D01*
X87000Y-48350D02*
X86750Y-48100D01*
X86750Y-48100D02*
X79250Y-48100D01*
X79250Y-48100D02*
X79000Y-48350D01*
X79000Y-48350D02*
X79000Y-55850D01*
G54D12*
X74420Y-46650D02*
G75*
G03X74420Y-46650I-70J0D01*
G74*
G01*
X75850Y-46600D02*
X76600Y-46600D01*
X76600Y-46600D02*
X76600Y-45400D01*
X76600Y-45400D02*
X75850Y-45400D01*
X75200Y-45400D02*
X74400Y-45400D01*
X74400Y-45400D02*
X74400Y-46600D01*
X74400Y-46600D02*
X75200Y-46600D01*
X76720Y-43800D02*
G75*
G03X76720Y-43800I-70J0D01*
G74*
G01*
X75150Y-43850D02*
X74400Y-43850D01*
X74400Y-43850D02*
X74400Y-45050D01*
X74400Y-45050D02*
X75150Y-45050D01*
X75800Y-45050D02*
X76600Y-45050D01*
X76600Y-45050D02*
X76600Y-43850D01*
X76600Y-43850D02*
X75800Y-43850D01*
X75300Y-47550D02*
X75800Y-47550D01*
X75800Y-47550D02*
X75800Y-46850D01*
X75800Y-46850D02*
X75300Y-46850D01*
X74900Y-47550D02*
X74400Y-47550D01*
X74400Y-47550D02*
X74400Y-46850D01*
X74400Y-46850D02*
X74900Y-46850D01*
X101000Y-47750D02*
X99800Y-47750D01*
X99800Y-47750D02*
X99800Y-47150D01*
X99800Y-47150D02*
X101000Y-47150D01*
X101000Y-47150D02*
X101000Y-47750D01*
X88950Y-50700D02*
X88950Y-51900D01*
X88950Y-51900D02*
X88350Y-51900D01*
X88350Y-51900D02*
X88350Y-50700D01*
X88350Y-50700D02*
X88950Y-50700D01*
X76700Y-54900D02*
X77900Y-54900D01*
X77900Y-54900D02*
X77900Y-55500D01*
X77900Y-55500D02*
X76700Y-55500D01*
X76700Y-55500D02*
X76700Y-54900D01*
X77900Y-56200D02*
X76700Y-56200D01*
X76700Y-56200D02*
X76700Y-55600D01*
X76700Y-55600D02*
X77900Y-55600D01*
X77900Y-55600D02*
X77900Y-56200D01*
X77900Y-56900D02*
X76700Y-56900D01*
X76700Y-56900D02*
X76700Y-56300D01*
X76700Y-56300D02*
X77900Y-56300D01*
X77900Y-56300D02*
X77900Y-56900D01*
X78700Y-56200D02*
X78700Y-57400D01*
X78700Y-57400D02*
X78100Y-57400D01*
X78100Y-57400D02*
X78100Y-56200D01*
X78100Y-56200D02*
X78700Y-56200D01*
X79150Y-46650D02*
X80350Y-46650D01*
X80350Y-46650D02*
X80350Y-47250D01*
X80350Y-47250D02*
X79150Y-47250D01*
X79150Y-47250D02*
X79150Y-46650D01*
X96800Y-50700D02*
X98000Y-50700D01*
X98000Y-50700D02*
X98000Y-51300D01*
X98000Y-51300D02*
X96800Y-51300D01*
X96800Y-51300D02*
X96800Y-50700D01*
X101000Y-54750D02*
X99800Y-54750D01*
X99800Y-54750D02*
X99800Y-54150D01*
X99800Y-54150D02*
X101000Y-54150D01*
X101000Y-54150D02*
X101000Y-54750D01*
X76700Y-54200D02*
X77900Y-54200D01*
X77900Y-54200D02*
X77900Y-54800D01*
X77900Y-54800D02*
X76700Y-54800D01*
X76700Y-54800D02*
X76700Y-54200D01*
X101000Y-46750D02*
X99800Y-46750D01*
X99800Y-46750D02*
X99800Y-46150D01*
X99800Y-46150D02*
X101000Y-46150D01*
X101000Y-46150D02*
X101000Y-46750D01*
X101000Y-53750D02*
X99800Y-53750D01*
X99800Y-53750D02*
X99800Y-53150D01*
X99800Y-53150D02*
X101000Y-53150D01*
X101000Y-53150D02*
X101000Y-53750D01*
X101000Y-48750D02*
X99800Y-48750D01*
X99800Y-48750D02*
X99800Y-48150D01*
X99800Y-48150D02*
X101000Y-48150D01*
X101000Y-48150D02*
X101000Y-48750D01*
X101000Y-49750D02*
X99800Y-49750D01*
X99800Y-49750D02*
X99800Y-49150D01*
X99800Y-49150D02*
X101000Y-49150D01*
X101000Y-49150D02*
X101000Y-49750D01*
X101000Y-51750D02*
X99800Y-51750D01*
X99800Y-51750D02*
X99800Y-51150D01*
X99800Y-51150D02*
X101000Y-51150D01*
X101000Y-51150D02*
X101000Y-51750D01*
X101000Y-52750D02*
X99800Y-52750D01*
X99800Y-52750D02*
X99800Y-52150D01*
X99800Y-52150D02*
X101000Y-52150D01*
X101000Y-52150D02*
X101000Y-52750D01*
X101000Y-50750D02*
X99800Y-50750D01*
X99800Y-50750D02*
X99800Y-50150D01*
X99800Y-50150D02*
X101000Y-50150D01*
X101000Y-50150D02*
X101000Y-50750D01*
X86950Y-56150D02*
X88150Y-56150D01*
X88150Y-56150D02*
X88150Y-56750D01*
X88150Y-56750D02*
X86950Y-56750D01*
X86950Y-56750D02*
X86950Y-56150D01*
X78750Y-57400D02*
X78750Y-56200D01*
X78750Y-56200D02*
X79350Y-56200D01*
X79350Y-56200D02*
X79350Y-57400D01*
X79350Y-57400D02*
X78750Y-57400D01*
X77900Y-53200D02*
X76700Y-53200D01*
X76700Y-53200D02*
X76700Y-52600D01*
X76700Y-52600D02*
X77900Y-52600D01*
X77900Y-52600D02*
X77900Y-53200D01*
X77900Y-54000D02*
X76700Y-54000D01*
X76700Y-54000D02*
X76700Y-53400D01*
X76700Y-53400D02*
X77900Y-53400D01*
X77900Y-53400D02*
X77900Y-54000D01*
X99700Y-46800D02*
X99800Y-46700D01*
X99800Y-46700D02*
X99800Y-46200D01*
X99800Y-46200D02*
X99700Y-46100D01*
X99300Y-46800D02*
X99700Y-46800D01*
X99700Y-46800D02*
X99700Y-46100D01*
X99700Y-46100D02*
X99300Y-46100D01*
X98900Y-46800D02*
X98500Y-46800D01*
X98500Y-46800D02*
X98500Y-46100D01*
X98500Y-46100D02*
X98900Y-46100D01*
X99700Y-47800D02*
X99800Y-47700D01*
X99800Y-47700D02*
X99800Y-47200D01*
X99800Y-47200D02*
X99700Y-47100D01*
X99300Y-47800D02*
X99700Y-47800D01*
X99700Y-47800D02*
X99700Y-47100D01*
X99700Y-47100D02*
X99300Y-47100D01*
X98900Y-47800D02*
X98500Y-47800D01*
X98500Y-47800D02*
X98500Y-47100D01*
X98500Y-47100D02*
X98900Y-47100D01*
X99700Y-48800D02*
X99800Y-48700D01*
X99800Y-48700D02*
X99800Y-48200D01*
X99800Y-48200D02*
X99700Y-48100D01*
X99300Y-48800D02*
X99700Y-48800D01*
X99700Y-48800D02*
X99700Y-48100D01*
X99700Y-48100D02*
X99300Y-48100D01*
X98900Y-48800D02*
X98500Y-48800D01*
X98500Y-48800D02*
X98500Y-48100D01*
X98500Y-48100D02*
X98900Y-48100D01*
X99700Y-49800D02*
X99800Y-49700D01*
X99800Y-49700D02*
X99800Y-49200D01*
X99800Y-49200D02*
X99700Y-49100D01*
X99300Y-49800D02*
X99700Y-49800D01*
X99700Y-49800D02*
X99700Y-49100D01*
X99700Y-49100D02*
X99300Y-49100D01*
X98900Y-49800D02*
X98500Y-49800D01*
X98500Y-49800D02*
X98500Y-49100D01*
X98500Y-49100D02*
X98900Y-49100D01*
X99700Y-51800D02*
X99800Y-51700D01*
X99800Y-51700D02*
X99800Y-51200D01*
X99800Y-51200D02*
X99700Y-51100D01*
X99300Y-51800D02*
X99700Y-51800D01*
X99700Y-51800D02*
X99700Y-51100D01*
X99700Y-51100D02*
X99300Y-51100D01*
X98900Y-51800D02*
X98500Y-51800D01*
X98500Y-51800D02*
X98500Y-51100D01*
X98500Y-51100D02*
X98900Y-51100D01*
X99700Y-50800D02*
X99800Y-50700D01*
X99800Y-50700D02*
X99800Y-50200D01*
X99800Y-50200D02*
X99700Y-50100D01*
X99300Y-50800D02*
X99700Y-50800D01*
X99700Y-50800D02*
X99700Y-50100D01*
X99700Y-50100D02*
X99300Y-50100D01*
X98900Y-50800D02*
X98500Y-50800D01*
X98500Y-50800D02*
X98500Y-50100D01*
X98500Y-50100D02*
X98900Y-50100D01*
X99700Y-52800D02*
X99800Y-52700D01*
X99800Y-52700D02*
X99800Y-52200D01*
X99800Y-52200D02*
X99700Y-52100D01*
X99300Y-52800D02*
X99700Y-52800D01*
X99700Y-52800D02*
X99700Y-52100D01*
X99700Y-52100D02*
X99300Y-52100D01*
X98900Y-52800D02*
X98500Y-52800D01*
X98500Y-52800D02*
X98500Y-52100D01*
X98500Y-52100D02*
X98900Y-52100D01*
X99700Y-53800D02*
X99800Y-53700D01*
X99800Y-53700D02*
X99800Y-53200D01*
X99800Y-53200D02*
X99700Y-53100D01*
X99300Y-53800D02*
X99700Y-53800D01*
X99700Y-53800D02*
X99700Y-53100D01*
X99700Y-53100D02*
X99300Y-53100D01*
X98900Y-53800D02*
X98500Y-53800D01*
X98500Y-53800D02*
X98500Y-53100D01*
X98500Y-53100D02*
X98900Y-53100D01*
X99700Y-54800D02*
X99800Y-54700D01*
X99800Y-54700D02*
X99800Y-54200D01*
X99800Y-54200D02*
X99700Y-54100D01*
X99300Y-54800D02*
X99700Y-54800D01*
X99700Y-54800D02*
X99700Y-54100D01*
X99700Y-54100D02*
X99300Y-54100D01*
X98900Y-54800D02*
X98500Y-54800D01*
X98500Y-54800D02*
X98500Y-54100D01*
X98500Y-54100D02*
X98900Y-54100D01*
X78450Y-47850D02*
X78450Y-46650D01*
X78450Y-46650D02*
X79050Y-46650D01*
X79050Y-46650D02*
X79050Y-47850D01*
X79050Y-47850D02*
X78450Y-47850D01*
X101000Y-45800D02*
X99800Y-45800D01*
X99800Y-45800D02*
X99800Y-45200D01*
X99800Y-45200D02*
X101000Y-45200D01*
X101000Y-45200D02*
X101000Y-45800D01*
G54D14*
X103000Y-44950D02*
X103000Y-54950D01*
X103000Y-54950D02*
X101000Y-54950D01*
X101000Y-54950D02*
X101000Y-44950D01*
X101000Y-44950D02*
X103000Y-44950D01*
G54D12*
X89650Y-50700D02*
X89650Y-51900D01*
X89650Y-51900D02*
X89050Y-51900D01*
X89050Y-51900D02*
X89050Y-50700D01*
X89050Y-50700D02*
X89650Y-50700D01*
X95350Y-52100D02*
X95350Y-50900D01*
X95350Y-50900D02*
X95950Y-50900D01*
X95950Y-50900D02*
X95950Y-52100D01*
X95950Y-52100D02*
X95350Y-52100D01*
X98500Y-57200D02*
X99700Y-57200D01*
X99700Y-57200D02*
X99700Y-57800D01*
X99700Y-57800D02*
X98500Y-57800D01*
X98500Y-57800D02*
X98500Y-57200D01*
X99700Y-55700D02*
X98500Y-55700D01*
X98500Y-55700D02*
X98500Y-55100D01*
X98500Y-55100D02*
X99700Y-55100D01*
X99700Y-55100D02*
X99700Y-55700D01*
X101650Y-43250D02*
X101650Y-44450D01*
X101650Y-44450D02*
X101050Y-44450D01*
X101050Y-44450D02*
X101050Y-43250D01*
X101050Y-43250D02*
X101650Y-43250D01*
X99250Y-55850D02*
X99250Y-57050D01*
X99250Y-57050D02*
X98950Y-57050D01*
X98950Y-57050D02*
X98950Y-55850D01*
X98950Y-55850D02*
X99250Y-55850D01*
X93800Y-52850D02*
G75*
G03X93800Y-52850I-200J0D01*
G74*
G01*
X93000Y-57050D02*
X93000Y-52250D01*
X93000Y-52250D02*
X97800Y-52250D01*
X97800Y-52250D02*
X97800Y-57050D01*
X97800Y-57050D02*
X93000Y-57050D01*
G54D14*
X73250Y-51550D02*
X73250Y-52250D01*
X77000Y-51550D02*
X73250Y-51550D01*
X73250Y-47650D02*
X73250Y-48350D01*
X73250Y-48350D02*
X77000Y-48350D01*
X77000Y-49050D02*
X76600Y-49050D01*
X77000Y-48350D02*
X77000Y-49050D01*
X76600Y-49050D02*
X76600Y-50850D01*
X76600Y-50850D02*
X77000Y-50850D01*
X77000Y-50850D02*
X77000Y-51550D01*
X102850Y-43000D02*
X76850Y-43000D01*
X76850Y-41000D02*
X102850Y-41000D01*
X102850Y-41000D02*
X102850Y-43000D01*
X76850Y-43000D02*
X76850Y-41000D01*
G54D12*
X101750Y-44450D02*
X101750Y-43250D01*
X101750Y-43250D02*
X102350Y-43250D01*
X102350Y-43250D02*
X102350Y-44450D01*
X102350Y-44450D02*
X101750Y-44450D01*
X96500Y-44400D02*
X95200Y-44400D01*
X95200Y-44400D02*
X95200Y-43200D01*
X96500Y-43200D02*
X95200Y-43200D01*
X96500Y-44400D02*
X96500Y-43200D01*
X94500Y-44400D02*
X93200Y-44400D01*
X93200Y-44400D02*
X93200Y-43200D01*
X94500Y-43200D02*
X93200Y-43200D01*
X94500Y-44400D02*
X94500Y-43200D01*
X92500Y-44400D02*
X91200Y-44400D01*
X91200Y-44400D02*
X91200Y-43200D01*
X92500Y-43200D02*
X91200Y-43200D01*
X92500Y-44400D02*
X92500Y-43200D01*
X90500Y-44400D02*
X89200Y-44400D01*
X89200Y-44400D02*
X89200Y-43200D01*
X90500Y-43200D02*
X89200Y-43200D01*
X90500Y-44400D02*
X90500Y-43200D01*
X88500Y-44400D02*
X87200Y-44400D01*
X87200Y-44400D02*
X87200Y-43200D01*
X88500Y-43200D02*
X87200Y-43200D01*
X88500Y-44400D02*
X88500Y-43200D01*
X86500Y-44400D02*
X85200Y-44400D01*
X85200Y-44400D02*
X85200Y-43200D01*
X86500Y-43200D02*
X85200Y-43200D01*
X86500Y-44400D02*
X86500Y-43200D01*
X84500Y-44400D02*
X83200Y-44400D01*
X83200Y-44400D02*
X83200Y-43200D01*
X84500Y-43200D02*
X83200Y-43200D01*
X84500Y-44400D02*
X84500Y-43200D01*
X83050Y-44400D02*
X81750Y-44400D01*
X81750Y-44400D02*
X81750Y-43200D01*
X83050Y-43200D02*
X81750Y-43200D01*
X83050Y-44400D02*
X83050Y-43200D01*
X81600Y-44400D02*
X80300Y-44400D01*
X80300Y-44400D02*
X80300Y-43200D01*
X81600Y-43200D02*
X80300Y-43200D01*
X81600Y-44400D02*
X81600Y-43200D01*
X79550Y-44400D02*
X78250Y-44400D01*
X78250Y-44400D02*
X78250Y-43200D01*
X79550Y-43200D02*
X78250Y-43200D01*
X79550Y-44400D02*
X79550Y-43200D01*
X98500Y-44400D02*
X97200Y-44400D01*
X97200Y-44400D02*
X97200Y-43200D01*
X98500Y-43200D02*
X97200Y-43200D01*
X98500Y-44400D02*
X98500Y-43200D01*
X100900Y-44400D02*
X99600Y-44400D01*
X99600Y-44400D02*
X99600Y-43200D01*
X100900Y-43200D02*
X99600Y-43200D01*
X100900Y-44400D02*
X100900Y-43200D01*
X90720Y-57400D02*
G75*
G03X90720Y-57400I-70J0D01*
G74*
G01*
X89150Y-57450D02*
X88400Y-57450D01*
X88400Y-57450D02*
X88400Y-58650D01*
X88400Y-58650D02*
X89150Y-58650D01*
X89800Y-58650D02*
X90600Y-58650D01*
X90600Y-58650D02*
X90600Y-57450D01*
X90600Y-57450D02*
X89800Y-57450D01*
X74400Y-54300D02*
G75*
G03X74400Y-54300I-100J0D01*
G74*
G01*
X74350Y-54300D02*
G75*
G03X74350Y-54300I-50J0D01*
G74*
G01*
X74400Y-53400D02*
X74400Y-54600D01*
X74400Y-54600D02*
X76600Y-54600D01*
X76600Y-53400D02*
X76600Y-54600D01*
X74400Y-53400D02*
X76600Y-53400D01*
X81150Y-58700D02*
X81150Y-57500D01*
X81150Y-57500D02*
X81750Y-57500D01*
X81750Y-57500D02*
X81750Y-58700D01*
X81750Y-58700D02*
X81150Y-58700D01*
X84800Y-57450D02*
X84800Y-58650D01*
X84800Y-58650D02*
X84200Y-58650D01*
X84200Y-58650D02*
X84200Y-57450D01*
X84200Y-57450D02*
X84800Y-57450D01*
X80950Y-57500D02*
X80950Y-58700D01*
X80950Y-58700D02*
X80350Y-58700D01*
X80350Y-58700D02*
X80350Y-57500D01*
X80350Y-57500D02*
X80950Y-57500D01*
X79350Y-57500D02*
X79350Y-58700D01*
X79350Y-58700D02*
X78750Y-58700D01*
X78750Y-58700D02*
X78750Y-57500D01*
X78750Y-57500D02*
X79350Y-57500D01*
X88150Y-58200D02*
X86950Y-58200D01*
X86950Y-58200D02*
X86950Y-57900D01*
X86950Y-57900D02*
X88150Y-57900D01*
X88150Y-57900D02*
X88150Y-58200D01*
X85450Y-58650D02*
X85450Y-57450D01*
X85450Y-57450D02*
X86050Y-57450D01*
X86050Y-57450D02*
X86050Y-58650D01*
X86050Y-58650D02*
X85450Y-58650D01*
G54D13*
X77100Y-48200D02*
X78100Y-48200D01*
X78100Y-43200D02*
X77100Y-43200D01*
X77100Y-48200D02*
X77100Y-43200D01*
X78100Y-43200D02*
X78100Y-48200D01*
G54D12*
X98000Y-52050D02*
X96800Y-52050D01*
X96800Y-52050D02*
X96800Y-51450D01*
X96800Y-51450D02*
X98000Y-51450D01*
X98000Y-51450D02*
X98000Y-52050D01*
X96800Y-58500D02*
X96800Y-57300D01*
X96800Y-57300D02*
X97400Y-57300D01*
X97400Y-57300D02*
X97400Y-58500D01*
X97400Y-58500D02*
X96800Y-58500D01*
X96650Y-57300D02*
X96650Y-58500D01*
X96650Y-58500D02*
X96050Y-58500D01*
X96050Y-58500D02*
X96050Y-57300D01*
X96050Y-57300D02*
X96650Y-57300D01*
X95950Y-57300D02*
X95950Y-58500D01*
X95950Y-58500D02*
X95350Y-58500D01*
X95350Y-58500D02*
X95350Y-57300D01*
X95350Y-57300D02*
X95950Y-57300D01*
X95250Y-57300D02*
X95250Y-58500D01*
X95250Y-58500D02*
X94650Y-58500D01*
X94650Y-58500D02*
X94650Y-57300D01*
X94650Y-57300D02*
X95250Y-57300D01*
X94550Y-57300D02*
X94550Y-58500D01*
X94550Y-58500D02*
X93950Y-58500D01*
X93950Y-58500D02*
X93950Y-57300D01*
X93950Y-57300D02*
X94550Y-57300D01*
X93250Y-58500D02*
X93250Y-57300D01*
X93250Y-57300D02*
X93850Y-57300D01*
X93850Y-57300D02*
X93850Y-58500D01*
X93850Y-58500D02*
X93250Y-58500D01*
X93100Y-57300D02*
X93100Y-58500D01*
X93100Y-58500D02*
X92500Y-58500D01*
X92500Y-58500D02*
X92500Y-57300D01*
X92500Y-57300D02*
X93100Y-57300D01*
X92350Y-57300D02*
X92350Y-58500D01*
X92350Y-58500D02*
X91750Y-58500D01*
X91750Y-58500D02*
X91750Y-57300D01*
X91750Y-57300D02*
X92350Y-57300D01*
X91650Y-57300D02*
X91650Y-58500D01*
X91650Y-58500D02*
X91050Y-58500D01*
X91050Y-58500D02*
X91050Y-57300D01*
X91050Y-57300D02*
X91650Y-57300D01*
X97500Y-58500D02*
X97500Y-57300D01*
X97500Y-57300D02*
X98100Y-57300D01*
X98100Y-57300D02*
X98100Y-58500D01*
X98100Y-58500D02*
X97500Y-58500D01*
X81950Y-58700D02*
X81950Y-57500D01*
X81950Y-57500D02*
X82550Y-57500D01*
X82550Y-57500D02*
X82550Y-58700D01*
X82550Y-58700D02*
X81950Y-58700D01*
X92400Y-54050D02*
X92400Y-55250D01*
X92400Y-55250D02*
X91800Y-55250D01*
X91800Y-55250D02*
X91800Y-54050D01*
X91800Y-54050D02*
X92400Y-54050D01*
X101000Y-55700D02*
X99800Y-55700D01*
X99800Y-55700D02*
X99800Y-55100D01*
X99800Y-55100D02*
X101000Y-55100D01*
X101000Y-55100D02*
X101000Y-55700D01*
X86200Y-58650D02*
X86200Y-57450D01*
X86200Y-57450D02*
X86800Y-57450D01*
X86800Y-57450D02*
X86800Y-58650D01*
X86800Y-58650D02*
X86200Y-58650D01*
X99700Y-45800D02*
X98500Y-45800D01*
X98500Y-45800D02*
X98500Y-45200D01*
X98500Y-45200D02*
X99700Y-45200D01*
X99700Y-45200D02*
X99700Y-45800D01*
X94650Y-52100D02*
X94650Y-50900D01*
X94650Y-50900D02*
X95250Y-50900D01*
X95250Y-50900D02*
X95250Y-52100D01*
X95250Y-52100D02*
X94650Y-52100D01*
G54D15*
G36*
X84566Y-46966D02*
X84566Y-44834D01*
X82434Y-44834D01*
X82434Y-46966D01*
X82865Y-46966D01*
X82865Y-46866D01*
X82861Y-46866D01*
X82660Y-46862D01*
X82558Y-46846D01*
X82521Y-46813D01*
X82519Y-46803D01*
X82511Y-46688D01*
X82506Y-46473D01*
X82502Y-46184D01*
X82500Y-45848D01*
X82501Y-45686D01*
X82502Y-45363D01*
X82507Y-45146D01*
X82516Y-45015D01*
X82529Y-44951D01*
X82549Y-44934D01*
X82585Y-44940D01*
X82625Y-44980D01*
X82650Y-45076D01*
X82661Y-45247D01*
X82661Y-45511D01*
X82652Y-45890D01*
X82643Y-46243D01*
X82642Y-46504D01*
X82649Y-46652D01*
X82664Y-46700D01*
X82678Y-46664D01*
X82691Y-46519D01*
X82698Y-46255D01*
X82700Y-45867D01*
X82700Y-45812D01*
X82702Y-45477D01*
X82706Y-45253D01*
X82715Y-45117D01*
X82729Y-45051D01*
X82749Y-45034D01*
X82768Y-45035D01*
X82812Y-45065D01*
X82841Y-45148D01*
X82857Y-45305D01*
X82862Y-45554D01*
X82860Y-45916D01*
X82858Y-46186D01*
X82858Y-46435D01*
X82861Y-46603D01*
X82867Y-46664D01*
X82872Y-46659D01*
X82935Y-46580D01*
X83056Y-46417D01*
X83222Y-46191D01*
X83417Y-45922D01*
X83498Y-45812D01*
X83697Y-45539D01*
X83842Y-45350D01*
X83947Y-45228D01*
X84027Y-45154D01*
X84098Y-45109D01*
X84169Y-45080D01*
X84317Y-45042D01*
X84445Y-45031D01*
X84500Y-45054D01*
X84493Y-45065D01*
X84430Y-45160D01*
X84311Y-45331D01*
X84152Y-45557D01*
X83969Y-45814D01*
X83777Y-46080D01*
X83595Y-46333D01*
X83437Y-46551D01*
X83318Y-46711D01*
X83256Y-46791D01*
X83235Y-46813D01*
X83173Y-46848D01*
X83064Y-46863D01*
X82865Y-46866D01*
X82865Y-46966D01*
X84566Y-46966D01*
X84566Y-46966D01*
G37*
G54D12*
X82750Y-58700D02*
X82750Y-57500D01*
X82750Y-57500D02*
X83350Y-57500D01*
X83350Y-57500D02*
X83350Y-58700D01*
X83350Y-58700D02*
X82750Y-58700D01*
G54D16*
X81227Y-49683D02*
X81227Y-49910D01*
X81235Y-49936D01*
X81244Y-49950D01*
X81261Y-49963D01*
X81295Y-49963D01*
X81312Y-49950D01*
X81321Y-49936D01*
X81330Y-49910D01*
X81330Y-49683D01*
X81510Y-49963D02*
X81407Y-49963D01*
X81458Y-49963D02*
X81458Y-49683D01*
X81441Y-49723D01*
X81424Y-49750D01*
X81407Y-49763D01*
X81621Y-49683D02*
X81638Y-49683D01*
X81655Y-49696D01*
X81664Y-49710D01*
X81672Y-49736D01*
X81681Y-49790D01*
X81681Y-49856D01*
X81672Y-49910D01*
X81664Y-49936D01*
X81655Y-49950D01*
X81638Y-49963D01*
X81621Y-49963D01*
X81604Y-49950D01*
X81595Y-49936D01*
X81587Y-49910D01*
X81578Y-49856D01*
X81578Y-49790D01*
X81587Y-49736D01*
X81595Y-49710D01*
X81604Y-49696D01*
X81621Y-49683D01*
X88727Y-45083D02*
X88727Y-45310D01*
X88735Y-45336D01*
X88744Y-45350D01*
X88761Y-45363D01*
X88795Y-45363D01*
X88812Y-45350D01*
X88821Y-45336D01*
X88830Y-45310D01*
X88830Y-45083D01*
X88907Y-45110D02*
X88915Y-45096D01*
X88932Y-45083D01*
X88975Y-45083D01*
X88992Y-45096D01*
X89001Y-45110D01*
X89010Y-45136D01*
X89010Y-45163D01*
X89001Y-45203D01*
X88898Y-45363D01*
X89010Y-45363D01*
X89121Y-45083D02*
X89138Y-45083D01*
X89155Y-45096D01*
X89164Y-45110D01*
X89172Y-45136D01*
X89181Y-45190D01*
X89181Y-45256D01*
X89172Y-45310D01*
X89164Y-45336D01*
X89155Y-45350D01*
X89138Y-45363D01*
X89121Y-45363D01*
X89104Y-45350D01*
X89095Y-45336D01*
X89087Y-45310D01*
X89078Y-45256D01*
X89078Y-45190D01*
X89087Y-45136D01*
X89095Y-45110D01*
X89104Y-45096D01*
X89121Y-45083D01*
X78377Y-48183D02*
X78377Y-48410D01*
X78385Y-48436D01*
X78394Y-48450D01*
X78411Y-48463D01*
X78445Y-48463D01*
X78462Y-48450D01*
X78471Y-48436D01*
X78480Y-48410D01*
X78480Y-48183D01*
X78660Y-48463D02*
X78557Y-48463D01*
X78608Y-48463D02*
X78608Y-48183D01*
X78591Y-48223D01*
X78574Y-48250D01*
X78557Y-48263D01*
X78831Y-48463D02*
X78728Y-48463D01*
X78780Y-48463D02*
X78780Y-48183D01*
X78762Y-48223D01*
X78745Y-48250D01*
X78728Y-48263D01*
X76936Y-46030D02*
X76950Y-46038D01*
X76963Y-46064D01*
X76963Y-46081D01*
X76950Y-46107D01*
X76923Y-46124D01*
X76896Y-46132D01*
X76843Y-46141D01*
X76803Y-46141D01*
X76750Y-46132D01*
X76723Y-46124D01*
X76696Y-46107D01*
X76683Y-46081D01*
X76683Y-46064D01*
X76696Y-46038D01*
X76710Y-46030D01*
X76683Y-45918D02*
X76683Y-45901D01*
X76696Y-45884D01*
X76710Y-45875D01*
X76736Y-45867D01*
X76790Y-45858D01*
X76856Y-45858D01*
X76910Y-45867D01*
X76936Y-45875D01*
X76950Y-45884D01*
X76963Y-45901D01*
X76963Y-45918D01*
X76950Y-45935D01*
X76936Y-45944D01*
X76910Y-45952D01*
X76856Y-45961D01*
X76790Y-45961D01*
X76736Y-45952D01*
X76710Y-45944D01*
X76696Y-45935D01*
X76683Y-45918D01*
X76936Y-44880D02*
X76950Y-44888D01*
X76963Y-44914D01*
X76963Y-44931D01*
X76950Y-44957D01*
X76923Y-44974D01*
X76896Y-44982D01*
X76843Y-44991D01*
X76803Y-44991D01*
X76750Y-44982D01*
X76723Y-44974D01*
X76696Y-44957D01*
X76683Y-44931D01*
X76683Y-44914D01*
X76696Y-44888D01*
X76710Y-44880D01*
X76963Y-44708D02*
X76963Y-44811D01*
X76963Y-44760D02*
X76683Y-44760D01*
X76723Y-44777D01*
X76750Y-44794D01*
X76763Y-44811D01*
X76016Y-47260D02*
X76016Y-47320D01*
X76163Y-47320D02*
X75883Y-47320D01*
X75883Y-47234D01*
X75883Y-47131D02*
X75883Y-47114D01*
X75896Y-47097D01*
X75910Y-47088D01*
X75936Y-47080D01*
X75990Y-47071D01*
X76056Y-47071D01*
X76110Y-47080D01*
X76136Y-47088D01*
X76150Y-47097D01*
X76163Y-47114D01*
X76163Y-47131D01*
X76150Y-47148D01*
X76136Y-47157D01*
X76110Y-47165D01*
X76056Y-47174D01*
X75990Y-47174D01*
X75936Y-47165D01*
X75910Y-47157D01*
X75896Y-47148D01*
X75883Y-47131D01*
X88534Y-52236D02*
X88525Y-52250D01*
X88500Y-52263D01*
X88482Y-52263D01*
X88457Y-52250D01*
X88440Y-52223D01*
X88431Y-52196D01*
X88422Y-52143D01*
X88422Y-52103D01*
X88431Y-52050D01*
X88440Y-52023D01*
X88457Y-51996D01*
X88482Y-51983D01*
X88500Y-51983D01*
X88525Y-51996D01*
X88534Y-52010D01*
X88705Y-52263D02*
X88602Y-52263D01*
X88654Y-52263D02*
X88654Y-51983D01*
X88637Y-52023D01*
X88620Y-52050D01*
X88602Y-52063D01*
X88765Y-51983D02*
X88877Y-51983D01*
X88817Y-52090D01*
X88842Y-52090D01*
X88860Y-52103D01*
X88868Y-52116D01*
X88877Y-52143D01*
X88877Y-52210D01*
X88868Y-52236D01*
X88860Y-52250D01*
X88842Y-52263D01*
X88791Y-52263D01*
X88774Y-52250D01*
X88765Y-52236D01*
X76313Y-55565D02*
X76180Y-55625D01*
X76313Y-55668D02*
X76033Y-55668D01*
X76033Y-55600D01*
X76046Y-55582D01*
X76060Y-55574D01*
X76086Y-55565D01*
X76126Y-55565D01*
X76153Y-55574D01*
X76166Y-55582D01*
X76180Y-55600D01*
X76180Y-55668D01*
X76313Y-55394D02*
X76313Y-55497D01*
X76313Y-55445D02*
X76033Y-55445D01*
X76073Y-55462D01*
X76100Y-55480D01*
X76113Y-55497D01*
X76033Y-55282D02*
X76033Y-55265D01*
X76046Y-55248D01*
X76060Y-55240D01*
X76086Y-55231D01*
X76140Y-55222D01*
X76206Y-55222D01*
X76260Y-55231D01*
X76286Y-55240D01*
X76300Y-55248D01*
X76313Y-55265D01*
X76313Y-55282D01*
X76300Y-55300D01*
X76286Y-55308D01*
X76260Y-55317D01*
X76206Y-55325D01*
X76140Y-55325D01*
X76086Y-55317D01*
X76060Y-55308D01*
X76046Y-55300D01*
X76033Y-55282D01*
X76613Y-56015D02*
X76480Y-56075D01*
X76613Y-56118D02*
X76333Y-56118D01*
X76333Y-56050D01*
X76346Y-56032D01*
X76360Y-56024D01*
X76386Y-56015D01*
X76426Y-56015D01*
X76453Y-56024D01*
X76466Y-56032D01*
X76480Y-56050D01*
X76480Y-56118D01*
X76613Y-55844D02*
X76613Y-55947D01*
X76613Y-55895D02*
X76333Y-55895D01*
X76373Y-55912D01*
X76400Y-55930D01*
X76413Y-55947D01*
X76613Y-55672D02*
X76613Y-55775D01*
X76613Y-55724D02*
X76333Y-55724D01*
X76373Y-55741D01*
X76400Y-55758D01*
X76413Y-55775D01*
X77184Y-57263D02*
X77124Y-57130D01*
X77081Y-57263D02*
X77081Y-56983D01*
X77150Y-56983D01*
X77167Y-56996D01*
X77175Y-57010D01*
X77184Y-57036D01*
X77184Y-57076D01*
X77175Y-57103D01*
X77167Y-57116D01*
X77150Y-57130D01*
X77081Y-57130D01*
X77355Y-57263D02*
X77252Y-57263D01*
X77304Y-57263D02*
X77304Y-56983D01*
X77287Y-57023D01*
X77270Y-57050D01*
X77252Y-57063D01*
X77424Y-57010D02*
X77432Y-56996D01*
X77450Y-56983D01*
X77492Y-56983D01*
X77510Y-56996D01*
X77518Y-57010D01*
X77527Y-57036D01*
X77527Y-57063D01*
X77518Y-57103D01*
X77415Y-57263D01*
X77527Y-57263D01*
X78013Y-57365D02*
X77880Y-57425D01*
X78013Y-57468D02*
X77733Y-57468D01*
X77733Y-57400D01*
X77746Y-57382D01*
X77760Y-57374D01*
X77786Y-57365D01*
X77826Y-57365D01*
X77853Y-57374D01*
X77866Y-57382D01*
X77880Y-57400D01*
X77880Y-57468D01*
X78013Y-57194D02*
X78013Y-57297D01*
X78013Y-57245D02*
X77733Y-57245D01*
X77773Y-57262D01*
X77800Y-57280D01*
X77813Y-57297D01*
X77733Y-57134D02*
X77733Y-57022D01*
X77840Y-57082D01*
X77840Y-57057D01*
X77853Y-57040D01*
X77866Y-57031D01*
X77893Y-57022D01*
X77960Y-57022D01*
X77986Y-57031D01*
X78000Y-57040D01*
X78013Y-57057D01*
X78013Y-57108D01*
X78000Y-57125D01*
X77986Y-57134D01*
X79634Y-46563D02*
X79574Y-46430D01*
X79531Y-46563D02*
X79531Y-46283D01*
X79600Y-46283D01*
X79617Y-46296D01*
X79625Y-46310D01*
X79634Y-46336D01*
X79634Y-46376D01*
X79625Y-46403D01*
X79617Y-46416D01*
X79600Y-46430D01*
X79531Y-46430D01*
X79805Y-46563D02*
X79702Y-46563D01*
X79754Y-46563D02*
X79754Y-46283D01*
X79737Y-46323D01*
X79720Y-46350D01*
X79702Y-46363D01*
X79960Y-46376D02*
X79960Y-46563D01*
X79917Y-46270D02*
X79874Y-46470D01*
X79985Y-46470D01*
X98363Y-51115D02*
X98230Y-51175D01*
X98363Y-51218D02*
X98083Y-51218D01*
X98083Y-51150D01*
X98096Y-51132D01*
X98110Y-51124D01*
X98136Y-51115D01*
X98176Y-51115D01*
X98203Y-51124D01*
X98216Y-51132D01*
X98230Y-51150D01*
X98230Y-51218D01*
X98110Y-51047D02*
X98096Y-51038D01*
X98083Y-51021D01*
X98083Y-50978D01*
X98096Y-50961D01*
X98110Y-50952D01*
X98136Y-50944D01*
X98163Y-50944D01*
X98203Y-50952D01*
X98363Y-51055D01*
X98363Y-50944D01*
X98083Y-50832D02*
X98083Y-50815D01*
X98096Y-50798D01*
X98110Y-50790D01*
X98136Y-50781D01*
X98190Y-50772D01*
X98256Y-50772D01*
X98310Y-50781D01*
X98336Y-50790D01*
X98350Y-50798D01*
X98363Y-50815D01*
X98363Y-50832D01*
X98350Y-50850D01*
X98336Y-50858D01*
X98310Y-50867D01*
X98256Y-50875D01*
X98190Y-50875D01*
X98136Y-50867D01*
X98110Y-50858D01*
X98096Y-50850D01*
X98083Y-50832D01*
X78236Y-54215D02*
X78250Y-54224D01*
X78263Y-54250D01*
X78263Y-54267D01*
X78250Y-54292D01*
X78223Y-54310D01*
X78196Y-54318D01*
X78143Y-54327D01*
X78103Y-54327D01*
X78050Y-54318D01*
X78023Y-54310D01*
X77996Y-54292D01*
X77983Y-54267D01*
X77983Y-54250D01*
X77996Y-54224D01*
X78010Y-54215D01*
X78263Y-54044D02*
X78263Y-54147D01*
X78263Y-54095D02*
X77983Y-54095D01*
X78023Y-54112D01*
X78050Y-54130D01*
X78063Y-54147D01*
X78076Y-53890D02*
X78263Y-53890D01*
X77970Y-53932D02*
X78170Y-53975D01*
X78170Y-53864D01*
X88334Y-56736D02*
X88325Y-56750D01*
X88300Y-56763D01*
X88282Y-56763D01*
X88257Y-56750D01*
X88240Y-56723D01*
X88231Y-56696D01*
X88222Y-56643D01*
X88222Y-56603D01*
X88231Y-56550D01*
X88240Y-56523D01*
X88257Y-56496D01*
X88282Y-56483D01*
X88300Y-56483D01*
X88325Y-56496D01*
X88334Y-56510D01*
X88505Y-56763D02*
X88402Y-56763D01*
X88454Y-56763D02*
X88454Y-56483D01*
X88437Y-56523D01*
X88420Y-56550D01*
X88402Y-56563D01*
X88574Y-56510D02*
X88582Y-56496D01*
X88600Y-56483D01*
X88642Y-56483D01*
X88660Y-56496D01*
X88668Y-56510D01*
X88677Y-56536D01*
X88677Y-56563D01*
X88668Y-56603D01*
X88565Y-56763D01*
X88677Y-56763D01*
X79686Y-57515D02*
X79700Y-57524D01*
X79713Y-57550D01*
X79713Y-57567D01*
X79700Y-57592D01*
X79673Y-57610D01*
X79646Y-57618D01*
X79593Y-57627D01*
X79553Y-57627D01*
X79500Y-57618D01*
X79473Y-57610D01*
X79446Y-57592D01*
X79433Y-57567D01*
X79433Y-57550D01*
X79446Y-57524D01*
X79460Y-57515D01*
X79713Y-57344D02*
X79713Y-57447D01*
X79713Y-57395D02*
X79433Y-57395D01*
X79473Y-57412D01*
X79500Y-57430D01*
X79513Y-57447D01*
X79713Y-57172D02*
X79713Y-57275D01*
X79713Y-57224D02*
X79433Y-57224D01*
X79473Y-57241D01*
X79500Y-57258D01*
X79513Y-57275D01*
X78236Y-53015D02*
X78250Y-53024D01*
X78263Y-53050D01*
X78263Y-53067D01*
X78250Y-53092D01*
X78223Y-53110D01*
X78196Y-53118D01*
X78143Y-53127D01*
X78103Y-53127D01*
X78050Y-53118D01*
X78023Y-53110D01*
X77996Y-53092D01*
X77983Y-53067D01*
X77983Y-53050D01*
X77996Y-53024D01*
X78010Y-53015D01*
X78263Y-52844D02*
X78263Y-52947D01*
X78263Y-52895D02*
X77983Y-52895D01*
X78023Y-52912D01*
X78050Y-52930D01*
X78063Y-52947D01*
X77983Y-52732D02*
X77983Y-52715D01*
X77996Y-52698D01*
X78010Y-52690D01*
X78036Y-52681D01*
X78090Y-52672D01*
X78156Y-52672D01*
X78210Y-52681D01*
X78236Y-52690D01*
X78250Y-52698D01*
X78263Y-52715D01*
X78263Y-52732D01*
X78250Y-52750D01*
X78236Y-52758D01*
X78210Y-52767D01*
X78156Y-52775D01*
X78090Y-52775D01*
X78036Y-52767D01*
X78010Y-52758D01*
X77996Y-52750D01*
X77983Y-52732D01*
X78236Y-53615D02*
X78250Y-53624D01*
X78263Y-53650D01*
X78263Y-53667D01*
X78250Y-53692D01*
X78223Y-53710D01*
X78196Y-53718D01*
X78143Y-53727D01*
X78103Y-53727D01*
X78050Y-53718D01*
X78023Y-53710D01*
X77996Y-53692D01*
X77983Y-53667D01*
X77983Y-53650D01*
X77996Y-53624D01*
X78010Y-53615D01*
X78263Y-53444D02*
X78263Y-53547D01*
X78263Y-53495D02*
X77983Y-53495D01*
X78023Y-53512D01*
X78050Y-53530D01*
X78063Y-53547D01*
X77983Y-53281D02*
X77983Y-53367D01*
X78116Y-53375D01*
X78103Y-53367D01*
X78090Y-53350D01*
X78090Y-53307D01*
X78103Y-53290D01*
X78116Y-53281D01*
X78143Y-53272D01*
X78210Y-53272D01*
X78236Y-53281D01*
X78250Y-53290D01*
X78263Y-53307D01*
X78263Y-53350D01*
X78250Y-53367D01*
X78236Y-53375D01*
X79034Y-46536D02*
X79025Y-46550D01*
X79000Y-46563D01*
X78982Y-46563D01*
X78957Y-46550D01*
X78940Y-46523D01*
X78931Y-46496D01*
X78922Y-46443D01*
X78922Y-46403D01*
X78931Y-46350D01*
X78940Y-46323D01*
X78957Y-46296D01*
X78982Y-46283D01*
X79000Y-46283D01*
X79025Y-46296D01*
X79034Y-46310D01*
X79205Y-46563D02*
X79102Y-46563D01*
X79154Y-46563D02*
X79154Y-46283D01*
X79137Y-46323D01*
X79120Y-46350D01*
X79102Y-46363D01*
X79265Y-46283D02*
X79385Y-46283D01*
X79308Y-46563D01*
X100184Y-45086D02*
X100175Y-45100D01*
X100150Y-45113D01*
X100132Y-45113D01*
X100107Y-45100D01*
X100090Y-45073D01*
X100081Y-45046D01*
X100072Y-44993D01*
X100072Y-44953D01*
X100081Y-44900D01*
X100090Y-44873D01*
X100107Y-44846D01*
X100132Y-44833D01*
X100150Y-44833D01*
X100175Y-44846D01*
X100184Y-44860D01*
X100252Y-44860D02*
X100261Y-44846D01*
X100278Y-44833D01*
X100321Y-44833D01*
X100338Y-44846D01*
X100347Y-44860D01*
X100355Y-44886D01*
X100355Y-44913D01*
X100347Y-44953D01*
X100244Y-45113D01*
X100355Y-45113D01*
X100527Y-45113D02*
X100424Y-45113D01*
X100475Y-45113D02*
X100475Y-44833D01*
X100458Y-44873D01*
X100441Y-44900D01*
X100424Y-44913D01*
X101781Y-55363D02*
X101781Y-55083D01*
X101850Y-55083D01*
X101867Y-55096D01*
X101875Y-55110D01*
X101884Y-55136D01*
X101884Y-55176D01*
X101875Y-55203D01*
X101867Y-55216D01*
X101850Y-55230D01*
X101781Y-55230D01*
X101970Y-55363D02*
X102004Y-55363D01*
X102021Y-55350D01*
X102030Y-55336D01*
X102047Y-55296D01*
X102055Y-55243D01*
X102055Y-55136D01*
X102047Y-55110D01*
X102038Y-55096D01*
X102021Y-55083D01*
X101987Y-55083D01*
X101970Y-55096D01*
X101961Y-55110D01*
X101952Y-55136D01*
X101952Y-55203D01*
X101961Y-55230D01*
X101970Y-55243D01*
X101987Y-55256D01*
X102021Y-55256D01*
X102038Y-55243D01*
X102047Y-55230D01*
X102055Y-55203D01*
X102167Y-55083D02*
X102184Y-55083D01*
X102201Y-55096D01*
X102210Y-55110D01*
X102218Y-55136D01*
X102227Y-55190D01*
X102227Y-55256D01*
X102218Y-55310D01*
X102210Y-55336D01*
X102201Y-55350D01*
X102184Y-55363D01*
X102167Y-55363D01*
X102150Y-55350D01*
X102141Y-55336D01*
X102132Y-55310D01*
X102124Y-55256D01*
X102124Y-55190D01*
X102132Y-55136D01*
X102141Y-55110D01*
X102150Y-55096D01*
X102167Y-55083D01*
X89234Y-52263D02*
X89174Y-52130D01*
X89131Y-52263D02*
X89131Y-51983D01*
X89200Y-51983D01*
X89217Y-51996D01*
X89225Y-52010D01*
X89234Y-52036D01*
X89234Y-52076D01*
X89225Y-52103D01*
X89217Y-52116D01*
X89200Y-52130D01*
X89131Y-52130D01*
X89302Y-52010D02*
X89311Y-51996D01*
X89328Y-51983D01*
X89371Y-51983D01*
X89388Y-51996D01*
X89397Y-52010D01*
X89405Y-52036D01*
X89405Y-52063D01*
X89397Y-52103D01*
X89294Y-52263D01*
X89405Y-52263D01*
X89577Y-52263D02*
X89474Y-52263D01*
X89525Y-52263D02*
X89525Y-51983D01*
X89508Y-52023D01*
X89491Y-52050D01*
X89474Y-52063D01*
X96313Y-51965D02*
X96180Y-52025D01*
X96313Y-52068D02*
X96033Y-52068D01*
X96033Y-52000D01*
X96046Y-51982D01*
X96060Y-51974D01*
X96086Y-51965D01*
X96126Y-51965D01*
X96153Y-51974D01*
X96166Y-51982D01*
X96180Y-52000D01*
X96180Y-52068D01*
X96060Y-51897D02*
X96046Y-51888D01*
X96033Y-51871D01*
X96033Y-51828D01*
X96046Y-51811D01*
X96060Y-51802D01*
X96086Y-51794D01*
X96113Y-51794D01*
X96153Y-51802D01*
X96313Y-51905D01*
X96313Y-51794D01*
X96060Y-51725D02*
X96046Y-51717D01*
X96033Y-51700D01*
X96033Y-51657D01*
X96046Y-51640D01*
X96060Y-51631D01*
X96086Y-51622D01*
X96113Y-51622D01*
X96153Y-51631D01*
X96313Y-51734D01*
X96313Y-51622D01*
X98984Y-58163D02*
X98924Y-58030D01*
X98881Y-58163D02*
X98881Y-57883D01*
X98950Y-57883D01*
X98967Y-57896D01*
X98975Y-57910D01*
X98984Y-57936D01*
X98984Y-57976D01*
X98975Y-58003D01*
X98967Y-58016D01*
X98950Y-58030D01*
X98881Y-58030D01*
X99052Y-57910D02*
X99061Y-57896D01*
X99078Y-57883D01*
X99121Y-57883D01*
X99138Y-57896D01*
X99147Y-57910D01*
X99155Y-57936D01*
X99155Y-57963D01*
X99147Y-58003D01*
X99044Y-58163D01*
X99155Y-58163D01*
X99318Y-57883D02*
X99232Y-57883D01*
X99224Y-58016D01*
X99232Y-58003D01*
X99250Y-57990D01*
X99292Y-57990D01*
X99310Y-58003D01*
X99318Y-58016D01*
X99327Y-58043D01*
X99327Y-58110D01*
X99318Y-58136D01*
X99310Y-58150D01*
X99292Y-58163D01*
X99250Y-58163D01*
X99232Y-58150D01*
X99224Y-58136D01*
X98084Y-55863D02*
X98024Y-55730D01*
X97981Y-55863D02*
X97981Y-55583D01*
X98050Y-55583D01*
X98067Y-55596D01*
X98075Y-55610D01*
X98084Y-55636D01*
X98084Y-55676D01*
X98075Y-55703D01*
X98067Y-55716D01*
X98050Y-55730D01*
X97981Y-55730D01*
X98152Y-55610D02*
X98161Y-55596D01*
X98178Y-55583D01*
X98221Y-55583D01*
X98238Y-55596D01*
X98247Y-55610D01*
X98255Y-55636D01*
X98255Y-55663D01*
X98247Y-55703D01*
X98144Y-55863D01*
X98255Y-55863D01*
X98410Y-55583D02*
X98375Y-55583D01*
X98358Y-55596D01*
X98350Y-55610D01*
X98332Y-55650D01*
X98324Y-55703D01*
X98324Y-55810D01*
X98332Y-55836D01*
X98341Y-55850D01*
X98358Y-55863D01*
X98392Y-55863D01*
X98410Y-55850D01*
X98418Y-55836D01*
X98427Y-55810D01*
X98427Y-55743D01*
X98418Y-55716D01*
X98410Y-55703D01*
X98392Y-55690D01*
X98358Y-55690D01*
X98341Y-55703D01*
X98332Y-55716D01*
X98324Y-55743D01*
X100684Y-44813D02*
X100624Y-44680D01*
X100581Y-44813D02*
X100581Y-44533D01*
X100650Y-44533D01*
X100667Y-44546D01*
X100675Y-44560D01*
X100684Y-44586D01*
X100684Y-44626D01*
X100675Y-44653D01*
X100667Y-44666D01*
X100650Y-44680D01*
X100581Y-44680D01*
X100752Y-44560D02*
X100761Y-44546D01*
X100778Y-44533D01*
X100821Y-44533D01*
X100838Y-44546D01*
X100847Y-44560D01*
X100855Y-44586D01*
X100855Y-44613D01*
X100847Y-44653D01*
X100744Y-44813D01*
X100855Y-44813D01*
X100915Y-44533D02*
X101035Y-44533D01*
X100958Y-44813D01*
X98390Y-56552D02*
X98376Y-56570D01*
X98350Y-56587D01*
X98310Y-56612D01*
X98296Y-56630D01*
X98296Y-56647D01*
X98363Y-56638D02*
X98350Y-56655D01*
X98323Y-56672D01*
X98270Y-56681D01*
X98176Y-56681D01*
X98123Y-56672D01*
X98096Y-56655D01*
X98083Y-56638D01*
X98083Y-56604D01*
X98096Y-56587D01*
X98123Y-56570D01*
X98176Y-56561D01*
X98270Y-56561D01*
X98323Y-56570D01*
X98350Y-56587D01*
X98363Y-56604D01*
X98363Y-56638D01*
X98110Y-56492D02*
X98096Y-56484D01*
X98083Y-56467D01*
X98083Y-56424D01*
X98096Y-56407D01*
X98110Y-56398D01*
X98136Y-56390D01*
X98163Y-56390D01*
X98203Y-56398D01*
X98363Y-56501D01*
X98363Y-56390D01*
X98083Y-56278D02*
X98083Y-56261D01*
X98096Y-56244D01*
X98110Y-56235D01*
X98136Y-56227D01*
X98190Y-56218D01*
X98256Y-56218D01*
X98310Y-56227D01*
X98336Y-56235D01*
X98350Y-56244D01*
X98363Y-56261D01*
X98363Y-56278D01*
X98350Y-56295D01*
X98336Y-56304D01*
X98310Y-56312D01*
X98256Y-56321D01*
X98190Y-56321D01*
X98136Y-56312D01*
X98110Y-56304D01*
X98096Y-56295D01*
X98083Y-56278D01*
X92900Y-52862D02*
X92913Y-52837D01*
X92913Y-52794D01*
X92900Y-52777D01*
X92886Y-52768D01*
X92860Y-52760D01*
X92833Y-52760D01*
X92806Y-52768D01*
X92793Y-52777D01*
X92780Y-52794D01*
X92766Y-52828D01*
X92753Y-52845D01*
X92740Y-52854D01*
X92713Y-52862D01*
X92686Y-52862D01*
X92660Y-52854D01*
X92646Y-52845D01*
X92633Y-52828D01*
X92633Y-52785D01*
X92646Y-52760D01*
X92913Y-52682D02*
X92633Y-52682D01*
X92633Y-52614D01*
X92646Y-52597D01*
X92660Y-52588D01*
X92686Y-52580D01*
X92726Y-52580D01*
X92753Y-52588D01*
X92766Y-52597D01*
X92780Y-52614D01*
X92780Y-52682D01*
X92660Y-52511D02*
X92646Y-52502D01*
X92633Y-52485D01*
X92633Y-52442D01*
X92646Y-52425D01*
X92660Y-52417D01*
X92686Y-52408D01*
X92713Y-52408D01*
X92753Y-52417D01*
X92913Y-52520D01*
X92913Y-52408D01*
X92633Y-52297D02*
X92633Y-52279D01*
X92646Y-52262D01*
X92660Y-52254D01*
X92686Y-52245D01*
X92740Y-52237D01*
X92806Y-52237D01*
X92860Y-52245D01*
X92886Y-52254D01*
X92900Y-52262D01*
X92913Y-52279D01*
X92913Y-52297D01*
X92900Y-52314D01*
X92886Y-52322D01*
X92860Y-52331D01*
X92806Y-52339D01*
X92740Y-52339D01*
X92686Y-52331D01*
X92660Y-52322D01*
X92646Y-52314D01*
X92633Y-52297D01*
X75817Y-48013D02*
X75817Y-47733D01*
X75885Y-47733D01*
X75902Y-47746D01*
X75911Y-47760D01*
X75920Y-47786D01*
X75920Y-47826D01*
X75911Y-47853D01*
X75902Y-47866D01*
X75885Y-47880D01*
X75817Y-47880D01*
X76031Y-47733D02*
X76048Y-47733D01*
X76065Y-47746D01*
X76074Y-47760D01*
X76082Y-47786D01*
X76091Y-47840D01*
X76091Y-47906D01*
X76082Y-47960D01*
X76074Y-47986D01*
X76065Y-48000D01*
X76048Y-48013D01*
X76031Y-48013D01*
X76014Y-48000D01*
X76005Y-47986D01*
X75997Y-47960D01*
X75988Y-47906D01*
X75988Y-47840D01*
X75997Y-47786D01*
X76005Y-47760D01*
X76014Y-47746D01*
X76031Y-47733D01*
X101434Y-44813D02*
X101374Y-44680D01*
X101331Y-44813D02*
X101331Y-44533D01*
X101400Y-44533D01*
X101417Y-44546D01*
X101425Y-44560D01*
X101434Y-44586D01*
X101434Y-44626D01*
X101425Y-44653D01*
X101417Y-44666D01*
X101400Y-44680D01*
X101331Y-44680D01*
X101502Y-44560D02*
X101511Y-44546D01*
X101528Y-44533D01*
X101571Y-44533D01*
X101588Y-44546D01*
X101597Y-44560D01*
X101605Y-44586D01*
X101605Y-44613D01*
X101597Y-44653D01*
X101494Y-44813D01*
X101605Y-44813D01*
X101691Y-44813D02*
X101725Y-44813D01*
X101742Y-44800D01*
X101751Y-44786D01*
X101768Y-44746D01*
X101777Y-44693D01*
X101777Y-44586D01*
X101768Y-44560D01*
X101760Y-44546D01*
X101742Y-44533D01*
X101708Y-44533D01*
X101691Y-44546D01*
X101682Y-44560D01*
X101674Y-44586D01*
X101674Y-44653D01*
X101682Y-44680D01*
X101691Y-44693D01*
X101708Y-44706D01*
X101742Y-44706D01*
X101760Y-44693D01*
X101768Y-44680D01*
X101777Y-44653D01*
X94644Y-44763D02*
X94584Y-44630D01*
X94541Y-44763D02*
X94541Y-44483D01*
X94610Y-44483D01*
X94627Y-44496D01*
X94635Y-44510D01*
X94644Y-44536D01*
X94644Y-44576D01*
X94635Y-44603D01*
X94627Y-44616D01*
X94610Y-44630D01*
X94541Y-44630D01*
X94721Y-44763D02*
X94721Y-44483D01*
X94790Y-44483D01*
X94807Y-44496D01*
X94815Y-44510D01*
X94824Y-44536D01*
X94824Y-44576D01*
X94815Y-44603D01*
X94807Y-44616D01*
X94790Y-44630D01*
X94721Y-44630D01*
X94892Y-44510D02*
X94901Y-44496D01*
X94918Y-44483D01*
X94961Y-44483D01*
X94978Y-44496D01*
X94987Y-44510D01*
X94995Y-44536D01*
X94995Y-44563D01*
X94987Y-44603D01*
X94884Y-44763D01*
X94995Y-44763D01*
X95081Y-44763D02*
X95115Y-44763D01*
X95132Y-44750D01*
X95141Y-44736D01*
X95158Y-44696D01*
X95167Y-44643D01*
X95167Y-44536D01*
X95158Y-44510D01*
X95150Y-44496D01*
X95132Y-44483D01*
X95098Y-44483D01*
X95081Y-44496D01*
X95072Y-44510D01*
X95064Y-44536D01*
X95064Y-44603D01*
X95072Y-44630D01*
X95081Y-44643D01*
X95098Y-44656D01*
X95132Y-44656D01*
X95150Y-44643D01*
X95158Y-44630D01*
X95167Y-44603D01*
X92644Y-44763D02*
X92584Y-44630D01*
X92541Y-44763D02*
X92541Y-44483D01*
X92610Y-44483D01*
X92627Y-44496D01*
X92635Y-44510D01*
X92644Y-44536D01*
X92644Y-44576D01*
X92635Y-44603D01*
X92627Y-44616D01*
X92610Y-44630D01*
X92541Y-44630D01*
X92721Y-44763D02*
X92721Y-44483D01*
X92790Y-44483D01*
X92807Y-44496D01*
X92815Y-44510D01*
X92824Y-44536D01*
X92824Y-44576D01*
X92815Y-44603D01*
X92807Y-44616D01*
X92790Y-44630D01*
X92721Y-44630D01*
X92892Y-44510D02*
X92901Y-44496D01*
X92918Y-44483D01*
X92961Y-44483D01*
X92978Y-44496D01*
X92987Y-44510D01*
X92995Y-44536D01*
X92995Y-44563D01*
X92987Y-44603D01*
X92884Y-44763D01*
X92995Y-44763D01*
X93098Y-44603D02*
X93081Y-44590D01*
X93072Y-44576D01*
X93064Y-44550D01*
X93064Y-44536D01*
X93072Y-44510D01*
X93081Y-44496D01*
X93098Y-44483D01*
X93132Y-44483D01*
X93150Y-44496D01*
X93158Y-44510D01*
X93167Y-44536D01*
X93167Y-44550D01*
X93158Y-44576D01*
X93150Y-44590D01*
X93132Y-44603D01*
X93098Y-44603D01*
X93081Y-44616D01*
X93072Y-44630D01*
X93064Y-44656D01*
X93064Y-44710D01*
X93072Y-44736D01*
X93081Y-44750D01*
X93098Y-44763D01*
X93132Y-44763D01*
X93150Y-44750D01*
X93158Y-44736D01*
X93167Y-44710D01*
X93167Y-44656D01*
X93158Y-44630D01*
X93150Y-44616D01*
X93132Y-44603D01*
X90644Y-44763D02*
X90584Y-44630D01*
X90541Y-44763D02*
X90541Y-44483D01*
X90610Y-44483D01*
X90627Y-44496D01*
X90635Y-44510D01*
X90644Y-44536D01*
X90644Y-44576D01*
X90635Y-44603D01*
X90627Y-44616D01*
X90610Y-44630D01*
X90541Y-44630D01*
X90721Y-44763D02*
X90721Y-44483D01*
X90790Y-44483D01*
X90807Y-44496D01*
X90815Y-44510D01*
X90824Y-44536D01*
X90824Y-44576D01*
X90815Y-44603D01*
X90807Y-44616D01*
X90790Y-44630D01*
X90721Y-44630D01*
X90892Y-44510D02*
X90901Y-44496D01*
X90918Y-44483D01*
X90961Y-44483D01*
X90978Y-44496D01*
X90987Y-44510D01*
X90995Y-44536D01*
X90995Y-44563D01*
X90987Y-44603D01*
X90884Y-44763D01*
X90995Y-44763D01*
X91055Y-44483D02*
X91175Y-44483D01*
X91098Y-44763D01*
X89494Y-44963D02*
X89434Y-44830D01*
X89391Y-44963D02*
X89391Y-44683D01*
X89460Y-44683D01*
X89477Y-44696D01*
X89485Y-44710D01*
X89494Y-44736D01*
X89494Y-44776D01*
X89485Y-44803D01*
X89477Y-44816D01*
X89460Y-44830D01*
X89391Y-44830D01*
X89571Y-44963D02*
X89571Y-44683D01*
X89640Y-44683D01*
X89657Y-44696D01*
X89665Y-44710D01*
X89674Y-44736D01*
X89674Y-44776D01*
X89665Y-44803D01*
X89657Y-44816D01*
X89640Y-44830D01*
X89571Y-44830D01*
X89742Y-44710D02*
X89751Y-44696D01*
X89768Y-44683D01*
X89811Y-44683D01*
X89828Y-44696D01*
X89837Y-44710D01*
X89845Y-44736D01*
X89845Y-44763D01*
X89837Y-44803D01*
X89734Y-44963D01*
X89845Y-44963D01*
X90000Y-44683D02*
X89965Y-44683D01*
X89948Y-44696D01*
X89940Y-44710D01*
X89922Y-44750D01*
X89914Y-44803D01*
X89914Y-44910D01*
X89922Y-44936D01*
X89931Y-44950D01*
X89948Y-44963D01*
X89982Y-44963D01*
X90000Y-44950D01*
X90008Y-44936D01*
X90017Y-44910D01*
X90017Y-44843D01*
X90008Y-44816D01*
X90000Y-44803D01*
X89982Y-44790D01*
X89948Y-44790D01*
X89931Y-44803D01*
X89922Y-44816D01*
X89914Y-44843D01*
X87644Y-44963D02*
X87584Y-44830D01*
X87541Y-44963D02*
X87541Y-44683D01*
X87610Y-44683D01*
X87627Y-44696D01*
X87635Y-44710D01*
X87644Y-44736D01*
X87644Y-44776D01*
X87635Y-44803D01*
X87627Y-44816D01*
X87610Y-44830D01*
X87541Y-44830D01*
X87721Y-44963D02*
X87721Y-44683D01*
X87790Y-44683D01*
X87807Y-44696D01*
X87815Y-44710D01*
X87824Y-44736D01*
X87824Y-44776D01*
X87815Y-44803D01*
X87807Y-44816D01*
X87790Y-44830D01*
X87721Y-44830D01*
X87892Y-44710D02*
X87901Y-44696D01*
X87918Y-44683D01*
X87961Y-44683D01*
X87978Y-44696D01*
X87987Y-44710D01*
X87995Y-44736D01*
X87995Y-44763D01*
X87987Y-44803D01*
X87884Y-44963D01*
X87995Y-44963D01*
X88158Y-44683D02*
X88072Y-44683D01*
X88064Y-44816D01*
X88072Y-44803D01*
X88090Y-44790D01*
X88132Y-44790D01*
X88150Y-44803D01*
X88158Y-44816D01*
X88167Y-44843D01*
X88167Y-44910D01*
X88158Y-44936D01*
X88150Y-44950D01*
X88132Y-44963D01*
X88090Y-44963D01*
X88072Y-44950D01*
X88064Y-44936D01*
X85644Y-44963D02*
X85584Y-44830D01*
X85541Y-44963D02*
X85541Y-44683D01*
X85610Y-44683D01*
X85627Y-44696D01*
X85635Y-44710D01*
X85644Y-44736D01*
X85644Y-44776D01*
X85635Y-44803D01*
X85627Y-44816D01*
X85610Y-44830D01*
X85541Y-44830D01*
X85721Y-44963D02*
X85721Y-44683D01*
X85790Y-44683D01*
X85807Y-44696D01*
X85815Y-44710D01*
X85824Y-44736D01*
X85824Y-44776D01*
X85815Y-44803D01*
X85807Y-44816D01*
X85790Y-44830D01*
X85721Y-44830D01*
X85892Y-44710D02*
X85901Y-44696D01*
X85918Y-44683D01*
X85961Y-44683D01*
X85978Y-44696D01*
X85987Y-44710D01*
X85995Y-44736D01*
X85995Y-44763D01*
X85987Y-44803D01*
X85884Y-44963D01*
X85995Y-44963D01*
X86150Y-44776D02*
X86150Y-44963D01*
X86107Y-44670D02*
X86064Y-44870D01*
X86175Y-44870D01*
X84644Y-44763D02*
X84584Y-44630D01*
X84541Y-44763D02*
X84541Y-44483D01*
X84610Y-44483D01*
X84627Y-44496D01*
X84635Y-44510D01*
X84644Y-44536D01*
X84644Y-44576D01*
X84635Y-44603D01*
X84627Y-44616D01*
X84610Y-44630D01*
X84541Y-44630D01*
X84721Y-44763D02*
X84721Y-44483D01*
X84790Y-44483D01*
X84807Y-44496D01*
X84815Y-44510D01*
X84824Y-44536D01*
X84824Y-44576D01*
X84815Y-44603D01*
X84807Y-44616D01*
X84790Y-44630D01*
X84721Y-44630D01*
X84892Y-44510D02*
X84901Y-44496D01*
X84918Y-44483D01*
X84961Y-44483D01*
X84978Y-44496D01*
X84987Y-44510D01*
X84995Y-44536D01*
X84995Y-44563D01*
X84987Y-44603D01*
X84884Y-44763D01*
X84995Y-44763D01*
X85055Y-44483D02*
X85167Y-44483D01*
X85107Y-44590D01*
X85132Y-44590D01*
X85150Y-44603D01*
X85158Y-44616D01*
X85167Y-44643D01*
X85167Y-44710D01*
X85158Y-44736D01*
X85150Y-44750D01*
X85132Y-44763D01*
X85081Y-44763D01*
X85064Y-44750D01*
X85055Y-44736D01*
X81844Y-44963D02*
X81784Y-44830D01*
X81741Y-44963D02*
X81741Y-44683D01*
X81810Y-44683D01*
X81827Y-44696D01*
X81835Y-44710D01*
X81844Y-44736D01*
X81844Y-44776D01*
X81835Y-44803D01*
X81827Y-44816D01*
X81810Y-44830D01*
X81741Y-44830D01*
X81921Y-44963D02*
X81921Y-44683D01*
X81990Y-44683D01*
X82007Y-44696D01*
X82015Y-44710D01*
X82024Y-44736D01*
X82024Y-44776D01*
X82015Y-44803D01*
X82007Y-44816D01*
X81990Y-44830D01*
X81921Y-44830D01*
X82092Y-44710D02*
X82101Y-44696D01*
X82118Y-44683D01*
X82161Y-44683D01*
X82178Y-44696D01*
X82187Y-44710D01*
X82195Y-44736D01*
X82195Y-44763D01*
X82187Y-44803D01*
X82084Y-44963D01*
X82195Y-44963D01*
X82264Y-44710D02*
X82272Y-44696D01*
X82290Y-44683D01*
X82332Y-44683D01*
X82350Y-44696D01*
X82358Y-44710D01*
X82367Y-44736D01*
X82367Y-44763D01*
X82358Y-44803D01*
X82255Y-44963D01*
X82367Y-44963D01*
X80744Y-44963D02*
X80684Y-44830D01*
X80641Y-44963D02*
X80641Y-44683D01*
X80710Y-44683D01*
X80727Y-44696D01*
X80735Y-44710D01*
X80744Y-44736D01*
X80744Y-44776D01*
X80735Y-44803D01*
X80727Y-44816D01*
X80710Y-44830D01*
X80641Y-44830D01*
X80821Y-44963D02*
X80821Y-44683D01*
X80890Y-44683D01*
X80907Y-44696D01*
X80915Y-44710D01*
X80924Y-44736D01*
X80924Y-44776D01*
X80915Y-44803D01*
X80907Y-44816D01*
X80890Y-44830D01*
X80821Y-44830D01*
X80992Y-44710D02*
X81001Y-44696D01*
X81018Y-44683D01*
X81061Y-44683D01*
X81078Y-44696D01*
X81087Y-44710D01*
X81095Y-44736D01*
X81095Y-44763D01*
X81087Y-44803D01*
X80984Y-44963D01*
X81095Y-44963D01*
X81267Y-44963D02*
X81164Y-44963D01*
X81215Y-44963D02*
X81215Y-44683D01*
X81198Y-44723D01*
X81181Y-44750D01*
X81164Y-44763D01*
X78694Y-44963D02*
X78634Y-44830D01*
X78591Y-44963D02*
X78591Y-44683D01*
X78660Y-44683D01*
X78677Y-44696D01*
X78685Y-44710D01*
X78694Y-44736D01*
X78694Y-44776D01*
X78685Y-44803D01*
X78677Y-44816D01*
X78660Y-44830D01*
X78591Y-44830D01*
X78771Y-44963D02*
X78771Y-44683D01*
X78840Y-44683D01*
X78857Y-44696D01*
X78865Y-44710D01*
X78874Y-44736D01*
X78874Y-44776D01*
X78865Y-44803D01*
X78857Y-44816D01*
X78840Y-44830D01*
X78771Y-44830D01*
X78942Y-44710D02*
X78951Y-44696D01*
X78968Y-44683D01*
X79011Y-44683D01*
X79028Y-44696D01*
X79037Y-44710D01*
X79045Y-44736D01*
X79045Y-44763D01*
X79037Y-44803D01*
X78934Y-44963D01*
X79045Y-44963D01*
X79157Y-44683D02*
X79174Y-44683D01*
X79191Y-44696D01*
X79200Y-44710D01*
X79208Y-44736D01*
X79217Y-44790D01*
X79217Y-44856D01*
X79208Y-44910D01*
X79200Y-44936D01*
X79191Y-44950D01*
X79174Y-44963D01*
X79157Y-44963D01*
X79140Y-44950D01*
X79131Y-44936D01*
X79122Y-44910D01*
X79114Y-44856D01*
X79114Y-44790D01*
X79122Y-44736D01*
X79131Y-44710D01*
X79140Y-44696D01*
X79157Y-44683D01*
X97644Y-44963D02*
X97584Y-44830D01*
X97541Y-44963D02*
X97541Y-44683D01*
X97610Y-44683D01*
X97627Y-44696D01*
X97635Y-44710D01*
X97644Y-44736D01*
X97644Y-44776D01*
X97635Y-44803D01*
X97627Y-44816D01*
X97610Y-44830D01*
X97541Y-44830D01*
X97721Y-44963D02*
X97721Y-44683D01*
X97790Y-44683D01*
X97807Y-44696D01*
X97815Y-44710D01*
X97824Y-44736D01*
X97824Y-44776D01*
X97815Y-44803D01*
X97807Y-44816D01*
X97790Y-44830D01*
X97721Y-44830D01*
X97884Y-44683D02*
X97995Y-44683D01*
X97935Y-44790D01*
X97961Y-44790D01*
X97978Y-44803D01*
X97987Y-44816D01*
X97995Y-44843D01*
X97995Y-44910D01*
X97987Y-44936D01*
X97978Y-44950D01*
X97961Y-44963D01*
X97910Y-44963D01*
X97892Y-44950D01*
X97884Y-44936D01*
X98107Y-44683D02*
X98124Y-44683D01*
X98141Y-44696D01*
X98150Y-44710D01*
X98158Y-44736D01*
X98167Y-44790D01*
X98167Y-44856D01*
X98158Y-44910D01*
X98150Y-44936D01*
X98141Y-44950D01*
X98124Y-44963D01*
X98107Y-44963D01*
X98090Y-44950D01*
X98081Y-44936D01*
X98072Y-44910D01*
X98064Y-44856D01*
X98064Y-44790D01*
X98072Y-44736D01*
X98081Y-44710D01*
X98090Y-44696D01*
X98107Y-44683D01*
X98994Y-44163D02*
X98934Y-44030D01*
X98891Y-44163D02*
X98891Y-43883D01*
X98960Y-43883D01*
X98977Y-43896D01*
X98985Y-43910D01*
X98994Y-43936D01*
X98994Y-43976D01*
X98985Y-44003D01*
X98977Y-44016D01*
X98960Y-44030D01*
X98891Y-44030D01*
X99071Y-44163D02*
X99071Y-43883D01*
X99140Y-43883D01*
X99157Y-43896D01*
X99165Y-43910D01*
X99174Y-43936D01*
X99174Y-43976D01*
X99165Y-44003D01*
X99157Y-44016D01*
X99140Y-44030D01*
X99071Y-44030D01*
X99234Y-43883D02*
X99345Y-43883D01*
X99285Y-43990D01*
X99311Y-43990D01*
X99328Y-44003D01*
X99337Y-44016D01*
X99345Y-44043D01*
X99345Y-44110D01*
X99337Y-44136D01*
X99328Y-44150D01*
X99311Y-44163D01*
X99260Y-44163D01*
X99242Y-44150D01*
X99234Y-44136D01*
X99517Y-44163D02*
X99414Y-44163D01*
X99465Y-44163D02*
X99465Y-43883D01*
X99448Y-43923D01*
X99431Y-43950D01*
X99414Y-43963D01*
X89384Y-57363D02*
X89324Y-57230D01*
X89281Y-57363D02*
X89281Y-57083D01*
X89350Y-57083D01*
X89367Y-57096D01*
X89375Y-57110D01*
X89384Y-57136D01*
X89384Y-57176D01*
X89375Y-57203D01*
X89367Y-57216D01*
X89350Y-57230D01*
X89281Y-57230D01*
X89444Y-57083D02*
X89555Y-57083D01*
X89495Y-57190D01*
X89521Y-57190D01*
X89538Y-57203D01*
X89547Y-57216D01*
X89555Y-57243D01*
X89555Y-57310D01*
X89547Y-57336D01*
X89538Y-57350D01*
X89521Y-57363D01*
X89470Y-57363D01*
X89452Y-57350D01*
X89444Y-57336D01*
X89727Y-57363D02*
X89624Y-57363D01*
X89675Y-57363D02*
X89675Y-57083D01*
X89658Y-57123D01*
X89641Y-57150D01*
X89624Y-57163D01*
X75354Y-53033D02*
X75474Y-53313D01*
X75474Y-53033D02*
X75354Y-53313D01*
X75577Y-53033D02*
X75594Y-53033D01*
X75611Y-53046D01*
X75620Y-53060D01*
X75628Y-53086D01*
X75637Y-53140D01*
X75637Y-53206D01*
X75628Y-53260D01*
X75620Y-53286D01*
X75611Y-53300D01*
X75594Y-53313D01*
X75577Y-53313D01*
X75560Y-53300D01*
X75551Y-53286D01*
X75542Y-53260D01*
X75534Y-53206D01*
X75534Y-53140D01*
X75542Y-53086D01*
X75551Y-53060D01*
X75560Y-53046D01*
X75577Y-53033D01*
X81334Y-57086D02*
X81325Y-57100D01*
X81300Y-57113D01*
X81282Y-57113D01*
X81257Y-57100D01*
X81240Y-57073D01*
X81231Y-57046D01*
X81222Y-56993D01*
X81222Y-56953D01*
X81231Y-56900D01*
X81240Y-56873D01*
X81257Y-56846D01*
X81282Y-56833D01*
X81300Y-56833D01*
X81325Y-56846D01*
X81334Y-56860D01*
X81505Y-57113D02*
X81402Y-57113D01*
X81454Y-57113D02*
X81454Y-56833D01*
X81437Y-56873D01*
X81420Y-56900D01*
X81402Y-56913D01*
X81608Y-56953D02*
X81591Y-56940D01*
X81582Y-56926D01*
X81574Y-56900D01*
X81574Y-56886D01*
X81582Y-56860D01*
X81591Y-56846D01*
X81608Y-56833D01*
X81642Y-56833D01*
X81660Y-56846D01*
X81668Y-56860D01*
X81677Y-56886D01*
X81677Y-56900D01*
X81668Y-56926D01*
X81660Y-56940D01*
X81642Y-56953D01*
X81608Y-56953D01*
X81591Y-56966D01*
X81582Y-56980D01*
X81574Y-57006D01*
X81574Y-57060D01*
X81582Y-57086D01*
X81591Y-57100D01*
X81608Y-57113D01*
X81642Y-57113D01*
X81660Y-57100D01*
X81668Y-57086D01*
X81677Y-57060D01*
X81677Y-57006D01*
X81668Y-56980D01*
X81660Y-56966D01*
X81642Y-56953D01*
X84384Y-57336D02*
X84375Y-57350D01*
X84350Y-57363D01*
X84332Y-57363D01*
X84307Y-57350D01*
X84290Y-57323D01*
X84281Y-57296D01*
X84272Y-57243D01*
X84272Y-57203D01*
X84281Y-57150D01*
X84290Y-57123D01*
X84307Y-57096D01*
X84332Y-57083D01*
X84350Y-57083D01*
X84375Y-57096D01*
X84384Y-57110D01*
X84555Y-57363D02*
X84452Y-57363D01*
X84504Y-57363D02*
X84504Y-57083D01*
X84487Y-57123D01*
X84470Y-57150D01*
X84452Y-57163D01*
X84641Y-57363D02*
X84675Y-57363D01*
X84692Y-57350D01*
X84701Y-57336D01*
X84718Y-57296D01*
X84727Y-57243D01*
X84727Y-57136D01*
X84718Y-57110D01*
X84710Y-57096D01*
X84692Y-57083D01*
X84658Y-57083D01*
X84641Y-57096D01*
X84632Y-57110D01*
X84624Y-57136D01*
X84624Y-57203D01*
X84632Y-57230D01*
X84641Y-57243D01*
X84658Y-57256D01*
X84692Y-57256D01*
X84710Y-57243D01*
X84718Y-57230D01*
X84727Y-57203D01*
X80534Y-57113D02*
X80474Y-56980D01*
X80431Y-57113D02*
X80431Y-56833D01*
X80500Y-56833D01*
X80517Y-56846D01*
X80525Y-56860D01*
X80534Y-56886D01*
X80534Y-56926D01*
X80525Y-56953D01*
X80517Y-56966D01*
X80500Y-56980D01*
X80431Y-56980D01*
X80594Y-56833D02*
X80705Y-56833D01*
X80645Y-56940D01*
X80671Y-56940D01*
X80688Y-56953D01*
X80697Y-56966D01*
X80705Y-56993D01*
X80705Y-57060D01*
X80697Y-57086D01*
X80688Y-57100D01*
X80671Y-57113D01*
X80620Y-57113D01*
X80602Y-57100D01*
X80594Y-57086D01*
X80765Y-56833D02*
X80877Y-56833D01*
X80817Y-56940D01*
X80842Y-56940D01*
X80860Y-56953D01*
X80868Y-56966D01*
X80877Y-56993D01*
X80877Y-57060D01*
X80868Y-57086D01*
X80860Y-57100D01*
X80842Y-57113D01*
X80791Y-57113D01*
X80774Y-57100D01*
X80765Y-57086D01*
X79713Y-58215D02*
X79580Y-58275D01*
X79713Y-58318D02*
X79433Y-58318D01*
X79433Y-58250D01*
X79446Y-58232D01*
X79460Y-58224D01*
X79486Y-58215D01*
X79526Y-58215D01*
X79553Y-58224D01*
X79566Y-58232D01*
X79580Y-58250D01*
X79580Y-58318D01*
X79713Y-58130D02*
X79713Y-58095D01*
X79700Y-58078D01*
X79686Y-58070D01*
X79646Y-58052D01*
X79593Y-58044D01*
X79486Y-58044D01*
X79460Y-58052D01*
X79446Y-58061D01*
X79433Y-58078D01*
X79433Y-58112D01*
X79446Y-58130D01*
X79460Y-58138D01*
X79486Y-58147D01*
X79553Y-58147D01*
X79580Y-58138D01*
X79593Y-58130D01*
X79606Y-58112D01*
X79606Y-58078D01*
X79593Y-58061D01*
X79580Y-58052D01*
X79553Y-58044D01*
X79460Y-57975D02*
X79446Y-57967D01*
X79433Y-57950D01*
X79433Y-57907D01*
X79446Y-57890D01*
X79460Y-57881D01*
X79486Y-57872D01*
X79513Y-57872D01*
X79553Y-57881D01*
X79713Y-57984D01*
X79713Y-57872D01*
X87447Y-57340D02*
X87430Y-57326D01*
X87412Y-57300D01*
X87387Y-57260D01*
X87370Y-57246D01*
X87352Y-57246D01*
X87361Y-57313D02*
X87344Y-57300D01*
X87327Y-57273D01*
X87318Y-57220D01*
X87318Y-57126D01*
X87327Y-57073D01*
X87344Y-57046D01*
X87361Y-57033D01*
X87395Y-57033D01*
X87412Y-57046D01*
X87430Y-57073D01*
X87438Y-57126D01*
X87438Y-57220D01*
X87430Y-57273D01*
X87412Y-57300D01*
X87395Y-57313D01*
X87361Y-57313D01*
X87507Y-57060D02*
X87515Y-57046D01*
X87532Y-57033D01*
X87575Y-57033D01*
X87592Y-57046D01*
X87601Y-57060D01*
X87610Y-57086D01*
X87610Y-57113D01*
X87601Y-57153D01*
X87498Y-57313D01*
X87610Y-57313D01*
X87781Y-57313D02*
X87678Y-57313D01*
X87730Y-57313D02*
X87730Y-57033D01*
X87712Y-57073D01*
X87695Y-57100D01*
X87678Y-57113D01*
X85634Y-57363D02*
X85574Y-57230D01*
X85531Y-57363D02*
X85531Y-57083D01*
X85600Y-57083D01*
X85617Y-57096D01*
X85625Y-57110D01*
X85634Y-57136D01*
X85634Y-57176D01*
X85625Y-57203D01*
X85617Y-57216D01*
X85600Y-57230D01*
X85531Y-57230D01*
X85694Y-57083D02*
X85805Y-57083D01*
X85745Y-57190D01*
X85771Y-57190D01*
X85788Y-57203D01*
X85797Y-57216D01*
X85805Y-57243D01*
X85805Y-57310D01*
X85797Y-57336D01*
X85788Y-57350D01*
X85771Y-57363D01*
X85720Y-57363D01*
X85702Y-57350D01*
X85694Y-57336D01*
X85960Y-57083D02*
X85925Y-57083D01*
X85908Y-57096D01*
X85900Y-57110D01*
X85882Y-57150D01*
X85874Y-57203D01*
X85874Y-57310D01*
X85882Y-57336D01*
X85891Y-57350D01*
X85908Y-57363D01*
X85942Y-57363D01*
X85960Y-57350D01*
X85968Y-57336D01*
X85977Y-57310D01*
X85977Y-57243D01*
X85968Y-57216D01*
X85960Y-57203D01*
X85942Y-57190D01*
X85908Y-57190D01*
X85891Y-57203D01*
X85882Y-57216D01*
X85874Y-57243D01*
X77381Y-48613D02*
X77381Y-48333D01*
X77450Y-48333D01*
X77467Y-48346D01*
X77475Y-48360D01*
X77484Y-48386D01*
X77484Y-48426D01*
X77475Y-48453D01*
X77467Y-48466D01*
X77450Y-48480D01*
X77381Y-48480D01*
X77655Y-48613D02*
X77552Y-48613D01*
X77604Y-48613D02*
X77604Y-48333D01*
X77587Y-48373D01*
X77570Y-48400D01*
X77552Y-48413D01*
X77767Y-48333D02*
X77784Y-48333D01*
X77801Y-48346D01*
X77810Y-48360D01*
X77818Y-48386D01*
X77827Y-48440D01*
X77827Y-48506D01*
X77818Y-48560D01*
X77810Y-48586D01*
X77801Y-48600D01*
X77784Y-48613D01*
X77767Y-48613D01*
X77750Y-48600D01*
X77741Y-48586D01*
X77732Y-48560D01*
X77724Y-48506D01*
X77724Y-48440D01*
X77732Y-48386D01*
X77741Y-48360D01*
X77750Y-48346D01*
X77767Y-48333D01*
X98336Y-51865D02*
X98350Y-51874D01*
X98363Y-51900D01*
X98363Y-51917D01*
X98350Y-51942D01*
X98323Y-51960D01*
X98296Y-51968D01*
X98243Y-51977D01*
X98203Y-51977D01*
X98150Y-51968D01*
X98123Y-51960D01*
X98096Y-51942D01*
X98083Y-51917D01*
X98083Y-51900D01*
X98096Y-51874D01*
X98110Y-51865D01*
X98110Y-51797D02*
X98096Y-51788D01*
X98083Y-51771D01*
X98083Y-51728D01*
X98096Y-51711D01*
X98110Y-51702D01*
X98136Y-51694D01*
X98163Y-51694D01*
X98203Y-51702D01*
X98363Y-51805D01*
X98363Y-51694D01*
X98110Y-51625D02*
X98096Y-51617D01*
X98083Y-51600D01*
X98083Y-51557D01*
X98096Y-51540D01*
X98110Y-51531D01*
X98136Y-51522D01*
X98163Y-51522D01*
X98203Y-51531D01*
X98363Y-51634D01*
X98363Y-51522D01*
X81834Y-57413D02*
X81774Y-57280D01*
X81731Y-57413D02*
X81731Y-57133D01*
X81800Y-57133D01*
X81817Y-57146D01*
X81825Y-57160D01*
X81834Y-57186D01*
X81834Y-57226D01*
X81825Y-57253D01*
X81817Y-57266D01*
X81800Y-57280D01*
X81731Y-57280D01*
X81894Y-57133D02*
X82005Y-57133D01*
X81945Y-57240D01*
X81971Y-57240D01*
X81988Y-57253D01*
X81997Y-57266D01*
X82005Y-57293D01*
X82005Y-57360D01*
X81997Y-57386D01*
X81988Y-57400D01*
X81971Y-57413D01*
X81920Y-57413D01*
X81902Y-57400D01*
X81894Y-57386D01*
X82074Y-57160D02*
X82082Y-57146D01*
X82100Y-57133D01*
X82142Y-57133D01*
X82160Y-57146D01*
X82168Y-57160D01*
X82177Y-57186D01*
X82177Y-57213D01*
X82168Y-57253D01*
X82065Y-57413D01*
X82177Y-57413D01*
X91984Y-55586D02*
X91975Y-55600D01*
X91950Y-55613D01*
X91932Y-55613D01*
X91907Y-55600D01*
X91890Y-55573D01*
X91881Y-55546D01*
X91872Y-55493D01*
X91872Y-55453D01*
X91881Y-55400D01*
X91890Y-55373D01*
X91907Y-55346D01*
X91932Y-55333D01*
X91950Y-55333D01*
X91975Y-55346D01*
X91984Y-55360D01*
X92052Y-55360D02*
X92061Y-55346D01*
X92078Y-55333D01*
X92121Y-55333D01*
X92138Y-55346D01*
X92147Y-55360D01*
X92155Y-55386D01*
X92155Y-55413D01*
X92147Y-55453D01*
X92044Y-55613D01*
X92155Y-55613D01*
X92267Y-55333D02*
X92284Y-55333D01*
X92301Y-55346D01*
X92310Y-55360D01*
X92318Y-55386D01*
X92327Y-55440D01*
X92327Y-55506D01*
X92318Y-55560D01*
X92310Y-55586D01*
X92301Y-55600D01*
X92284Y-55613D01*
X92267Y-55613D01*
X92250Y-55600D01*
X92241Y-55586D01*
X92232Y-55560D01*
X92224Y-55506D01*
X92224Y-55440D01*
X92232Y-55386D01*
X92241Y-55360D01*
X92250Y-55346D01*
X92267Y-55333D01*
X100784Y-56063D02*
X100724Y-55930D01*
X100681Y-56063D02*
X100681Y-55783D01*
X100750Y-55783D01*
X100767Y-55796D01*
X100775Y-55810D01*
X100784Y-55836D01*
X100784Y-55876D01*
X100775Y-55903D01*
X100767Y-55916D01*
X100750Y-55930D01*
X100681Y-55930D01*
X100844Y-55783D02*
X100955Y-55783D01*
X100895Y-55890D01*
X100921Y-55890D01*
X100938Y-55903D01*
X100947Y-55916D01*
X100955Y-55943D01*
X100955Y-56010D01*
X100947Y-56036D01*
X100938Y-56050D01*
X100921Y-56063D01*
X100870Y-56063D01*
X100852Y-56050D01*
X100844Y-56036D01*
X101015Y-55783D02*
X101135Y-55783D01*
X101058Y-56063D01*
X86384Y-57363D02*
X86324Y-57230D01*
X86281Y-57363D02*
X86281Y-57083D01*
X86350Y-57083D01*
X86367Y-57096D01*
X86375Y-57110D01*
X86384Y-57136D01*
X86384Y-57176D01*
X86375Y-57203D01*
X86367Y-57216D01*
X86350Y-57230D01*
X86281Y-57230D01*
X86444Y-57083D02*
X86555Y-57083D01*
X86495Y-57190D01*
X86521Y-57190D01*
X86538Y-57203D01*
X86547Y-57216D01*
X86555Y-57243D01*
X86555Y-57310D01*
X86547Y-57336D01*
X86538Y-57350D01*
X86521Y-57363D01*
X86470Y-57363D01*
X86452Y-57350D01*
X86444Y-57336D01*
X86658Y-57203D02*
X86641Y-57190D01*
X86632Y-57176D01*
X86624Y-57150D01*
X86624Y-57136D01*
X86632Y-57110D01*
X86641Y-57096D01*
X86658Y-57083D01*
X86692Y-57083D01*
X86710Y-57096D01*
X86718Y-57110D01*
X86727Y-57136D01*
X86727Y-57150D01*
X86718Y-57176D01*
X86710Y-57190D01*
X86692Y-57203D01*
X86658Y-57203D01*
X86641Y-57216D01*
X86632Y-57230D01*
X86624Y-57256D01*
X86624Y-57310D01*
X86632Y-57336D01*
X86641Y-57350D01*
X86658Y-57363D01*
X86692Y-57363D01*
X86710Y-57350D01*
X86718Y-57336D01*
X86727Y-57310D01*
X86727Y-57256D01*
X86718Y-57230D01*
X86710Y-57216D01*
X86692Y-57203D01*
X99084Y-45113D02*
X99024Y-44980D01*
X98981Y-45113D02*
X98981Y-44833D01*
X99050Y-44833D01*
X99067Y-44846D01*
X99075Y-44860D01*
X99084Y-44886D01*
X99084Y-44926D01*
X99075Y-44953D01*
X99067Y-44966D01*
X99050Y-44980D01*
X98981Y-44980D01*
X99144Y-44833D02*
X99255Y-44833D01*
X99195Y-44940D01*
X99221Y-44940D01*
X99238Y-44953D01*
X99247Y-44966D01*
X99255Y-44993D01*
X99255Y-45060D01*
X99247Y-45086D01*
X99238Y-45100D01*
X99221Y-45113D01*
X99170Y-45113D01*
X99152Y-45100D01*
X99144Y-45086D01*
X99341Y-45113D02*
X99375Y-45113D01*
X99392Y-45100D01*
X99401Y-45086D01*
X99418Y-45046D01*
X99427Y-44993D01*
X99427Y-44886D01*
X99418Y-44860D01*
X99410Y-44846D01*
X99392Y-44833D01*
X99358Y-44833D01*
X99341Y-44846D01*
X99332Y-44860D01*
X99324Y-44886D01*
X99324Y-44953D01*
X99332Y-44980D01*
X99341Y-44993D01*
X99358Y-45006D01*
X99392Y-45006D01*
X99410Y-44993D01*
X99418Y-44980D01*
X99427Y-44953D01*
X94563Y-51615D02*
X94430Y-51675D01*
X94563Y-51718D02*
X94283Y-51718D01*
X94283Y-51650D01*
X94296Y-51632D01*
X94310Y-51624D01*
X94336Y-51615D01*
X94376Y-51615D01*
X94403Y-51624D01*
X94416Y-51632D01*
X94430Y-51650D01*
X94430Y-51718D01*
X94376Y-51461D02*
X94563Y-51461D01*
X94270Y-51504D02*
X94470Y-51547D01*
X94470Y-51435D01*
X94283Y-51332D02*
X94283Y-51315D01*
X94296Y-51298D01*
X94310Y-51290D01*
X94336Y-51281D01*
X94390Y-51272D01*
X94456Y-51272D01*
X94510Y-51281D01*
X94536Y-51290D01*
X94550Y-51298D01*
X94563Y-51315D01*
X94563Y-51332D01*
X94550Y-51350D01*
X94536Y-51358D01*
X94510Y-51367D01*
X94456Y-51375D01*
X94390Y-51375D01*
X94336Y-51367D01*
X94310Y-51358D01*
X94296Y-51350D01*
X94283Y-51332D01*
X82984Y-57413D02*
X82924Y-57280D01*
X82881Y-57413D02*
X82881Y-57133D01*
X82950Y-57133D01*
X82967Y-57146D01*
X82975Y-57160D01*
X82984Y-57186D01*
X82984Y-57226D01*
X82975Y-57253D01*
X82967Y-57266D01*
X82950Y-57280D01*
X82881Y-57280D01*
X83138Y-57226D02*
X83138Y-57413D01*
X83095Y-57120D02*
X83052Y-57320D01*
X83164Y-57320D01*
X83327Y-57413D02*
X83224Y-57413D01*
X83275Y-57413D02*
X83275Y-57133D01*
X83258Y-57173D01*
X83241Y-57200D01*
X83224Y-57213D01*
G54D12*
M02*
