G04 (created by PCBNEW-RS274X (2012-01-19 BZR 3256)-stable) date 22/03/2013 00:28:45*
G01*
G70*
G90*
%MOIN*%
G04 Gerber Fmt 3.4, Leading zero omitted, Abs format*
%FSLAX34Y34*%
G04 APERTURE LIST*
%ADD10C,0.006000*%
%ADD11C,0.010000*%
%ADD12C,0.005000*%
%ADD13C,0.012000*%
%ADD14C,0.015000*%
%ADD15C,0.000100*%
%ADD16C,0.004500*%
G04 APERTURE END LIST*
G54D10*
G54D11*
X106650Y-43450D02*
X103200Y-43450D01*
X106650Y-56450D02*
X106650Y-43450D01*
X103200Y-56450D02*
X106650Y-56450D01*
X103200Y-43450D02*
X103200Y-56450D01*
X74000Y-58900D02*
X74000Y-56300D01*
X76600Y-58900D02*
X74000Y-58900D01*
X76600Y-56300D02*
X76600Y-58900D01*
X74000Y-56300D02*
X76600Y-56300D01*
X105700Y-58900D02*
X105700Y-56300D01*
X103100Y-58900D02*
X105700Y-58900D01*
X103100Y-56300D02*
X103100Y-58900D01*
X105700Y-56300D02*
X103100Y-56300D01*
X103100Y-43600D02*
X103100Y-41000D01*
X105700Y-43600D02*
X103100Y-43600D01*
X105700Y-41000D02*
X105700Y-43600D01*
X103100Y-41000D02*
X105700Y-41000D01*
X74000Y-41000D02*
X76600Y-41000D01*
X74000Y-43600D02*
X74000Y-41000D01*
X76600Y-43600D02*
X74000Y-43600D01*
X76600Y-41000D02*
X76600Y-43600D01*
G54D12*
X85050Y-50050D02*
X85050Y-54150D01*
X85050Y-54150D02*
X80950Y-54150D01*
X80950Y-54150D02*
X80950Y-50350D01*
X80950Y-50350D02*
X81250Y-50050D01*
X81250Y-50050D02*
X85050Y-50050D01*
X81650Y-50500D02*
X81645Y-50548D01*
X81631Y-50595D01*
X81608Y-50638D01*
X81577Y-50676D01*
X81539Y-50707D01*
X81496Y-50730D01*
X81450Y-50744D01*
X81401Y-50749D01*
X81354Y-50745D01*
X81307Y-50731D01*
X81264Y-50709D01*
X81226Y-50678D01*
X81194Y-50641D01*
X81171Y-50598D01*
X81156Y-50551D01*
X81151Y-50503D01*
X81155Y-50455D01*
X81168Y-50408D01*
X81190Y-50365D01*
X81221Y-50327D01*
X81258Y-50295D01*
X81300Y-50271D01*
X81347Y-50256D01*
X81395Y-50251D01*
X81443Y-50254D01*
X81490Y-50267D01*
X81533Y-50289D01*
X81572Y-50319D01*
X81604Y-50356D01*
X81628Y-50399D01*
X81643Y-50445D01*
X81649Y-50494D01*
X81650Y-50500D01*
G54D11*
X90150Y-50550D02*
X90150Y-44950D01*
X97150Y-44950D02*
X97150Y-50550D01*
X90150Y-44950D02*
X97150Y-44950D01*
X97150Y-50550D02*
X90150Y-50550D01*
X90650Y-45350D02*
X90648Y-45369D01*
X90642Y-45388D01*
X90633Y-45405D01*
X90620Y-45420D01*
X90605Y-45432D01*
X90588Y-45442D01*
X90570Y-45447D01*
X90550Y-45449D01*
X90532Y-45448D01*
X90513Y-45442D01*
X90496Y-45433D01*
X90481Y-45421D01*
X90468Y-45406D01*
X90459Y-45389D01*
X90453Y-45370D01*
X90451Y-45351D01*
X90452Y-45332D01*
X90458Y-45314D01*
X90466Y-45296D01*
X90479Y-45281D01*
X90493Y-45268D01*
X90510Y-45259D01*
X90529Y-45253D01*
X90548Y-45251D01*
X90567Y-45252D01*
X90586Y-45257D01*
X90603Y-45266D01*
X90618Y-45278D01*
X90631Y-45293D01*
X90641Y-45310D01*
X90647Y-45328D01*
X90649Y-45348D01*
X90650Y-45350D01*
G54D13*
X80000Y-48850D02*
X79995Y-48898D01*
X79981Y-48945D01*
X79958Y-48988D01*
X79927Y-49026D01*
X79889Y-49057D01*
X79846Y-49080D01*
X79800Y-49094D01*
X79751Y-49099D01*
X79704Y-49095D01*
X79657Y-49081D01*
X79614Y-49059D01*
X79576Y-49028D01*
X79544Y-48991D01*
X79521Y-48948D01*
X79506Y-48901D01*
X79501Y-48853D01*
X79505Y-48805D01*
X79518Y-48758D01*
X79540Y-48715D01*
X79571Y-48677D01*
X79608Y-48645D01*
X79650Y-48621D01*
X79697Y-48606D01*
X79745Y-48601D01*
X79793Y-48604D01*
X79840Y-48617D01*
X79883Y-48639D01*
X79922Y-48669D01*
X79954Y-48706D01*
X79978Y-48749D01*
X79993Y-48795D01*
X79999Y-48844D01*
X80000Y-48850D01*
X79300Y-48700D02*
X79300Y-48610D01*
X79300Y-48610D02*
X79000Y-48610D01*
X79000Y-48700D02*
X79300Y-48700D01*
X79000Y-55850D02*
X79250Y-56100D01*
X79250Y-56100D02*
X86750Y-56100D01*
X86750Y-56100D02*
X87000Y-55850D01*
X87000Y-55850D02*
X87000Y-48350D01*
X87000Y-48350D02*
X86750Y-48100D01*
X86750Y-48100D02*
X79250Y-48100D01*
X79250Y-48100D02*
X79000Y-48350D01*
X79000Y-48350D02*
X79000Y-55850D01*
G54D12*
X74420Y-46650D02*
X74418Y-46663D01*
X74414Y-46676D01*
X74408Y-46688D01*
X74399Y-46699D01*
X74389Y-46708D01*
X74377Y-46714D01*
X74364Y-46718D01*
X74350Y-46719D01*
X74337Y-46718D01*
X74324Y-46714D01*
X74312Y-46708D01*
X74302Y-46700D01*
X74293Y-46689D01*
X74286Y-46677D01*
X74282Y-46664D01*
X74281Y-46650D01*
X74282Y-46638D01*
X74285Y-46625D01*
X74292Y-46613D01*
X74300Y-46602D01*
X74311Y-46593D01*
X74322Y-46586D01*
X74335Y-46582D01*
X74349Y-46581D01*
X74362Y-46582D01*
X74375Y-46585D01*
X74387Y-46591D01*
X74398Y-46600D01*
X74407Y-46610D01*
X74413Y-46622D01*
X74418Y-46635D01*
X74419Y-46649D01*
X74420Y-46650D01*
X75850Y-46600D02*
X76600Y-46600D01*
X76600Y-46600D02*
X76600Y-45400D01*
X76600Y-45400D02*
X75850Y-45400D01*
X75200Y-45400D02*
X74400Y-45400D01*
X74400Y-45400D02*
X74400Y-46600D01*
X74400Y-46600D02*
X75200Y-46600D01*
X76720Y-43800D02*
X76718Y-43813D01*
X76714Y-43826D01*
X76708Y-43838D01*
X76699Y-43849D01*
X76689Y-43858D01*
X76677Y-43864D01*
X76664Y-43868D01*
X76650Y-43869D01*
X76637Y-43868D01*
X76624Y-43864D01*
X76612Y-43858D01*
X76602Y-43850D01*
X76593Y-43839D01*
X76586Y-43827D01*
X76582Y-43814D01*
X76581Y-43800D01*
X76582Y-43788D01*
X76585Y-43775D01*
X76592Y-43763D01*
X76600Y-43752D01*
X76611Y-43743D01*
X76622Y-43736D01*
X76635Y-43732D01*
X76649Y-43731D01*
X76662Y-43732D01*
X76675Y-43735D01*
X76687Y-43741D01*
X76698Y-43750D01*
X76707Y-43760D01*
X76713Y-43772D01*
X76718Y-43785D01*
X76719Y-43799D01*
X76720Y-43800D01*
X75150Y-43850D02*
X74400Y-43850D01*
X74400Y-43850D02*
X74400Y-45050D01*
X74400Y-45050D02*
X75150Y-45050D01*
X75800Y-45050D02*
X76600Y-45050D01*
X76600Y-45050D02*
X76600Y-43850D01*
X76600Y-43850D02*
X75800Y-43850D01*
X75300Y-47550D02*
X75800Y-47550D01*
X75800Y-47550D02*
X75800Y-46850D01*
X75800Y-46850D02*
X75300Y-46850D01*
X74900Y-47550D02*
X74400Y-47550D01*
X74400Y-47550D02*
X74400Y-46850D01*
X74400Y-46850D02*
X74900Y-46850D01*
X101000Y-47750D02*
X99800Y-47750D01*
X99800Y-47750D02*
X99800Y-47150D01*
X99800Y-47150D02*
X101000Y-47150D01*
X101000Y-47150D02*
X101000Y-47750D01*
X88950Y-50700D02*
X88950Y-51900D01*
X88950Y-51900D02*
X88350Y-51900D01*
X88350Y-51900D02*
X88350Y-50700D01*
X88350Y-50700D02*
X88950Y-50700D01*
X76700Y-54900D02*
X77900Y-54900D01*
X77900Y-54900D02*
X77900Y-55500D01*
X77900Y-55500D02*
X76700Y-55500D01*
X76700Y-55500D02*
X76700Y-54900D01*
X77900Y-56200D02*
X76700Y-56200D01*
X76700Y-56200D02*
X76700Y-55600D01*
X76700Y-55600D02*
X77900Y-55600D01*
X77900Y-55600D02*
X77900Y-56200D01*
X77900Y-56900D02*
X76700Y-56900D01*
X76700Y-56900D02*
X76700Y-56300D01*
X76700Y-56300D02*
X77900Y-56300D01*
X77900Y-56300D02*
X77900Y-56900D01*
X78700Y-56200D02*
X78700Y-57400D01*
X78700Y-57400D02*
X78100Y-57400D01*
X78100Y-57400D02*
X78100Y-56200D01*
X78100Y-56200D02*
X78700Y-56200D01*
X79150Y-46650D02*
X80350Y-46650D01*
X80350Y-46650D02*
X80350Y-47250D01*
X80350Y-47250D02*
X79150Y-47250D01*
X79150Y-47250D02*
X79150Y-46650D01*
X96800Y-50700D02*
X98000Y-50700D01*
X98000Y-50700D02*
X98000Y-51300D01*
X98000Y-51300D02*
X96800Y-51300D01*
X96800Y-51300D02*
X96800Y-50700D01*
X101000Y-54750D02*
X99800Y-54750D01*
X99800Y-54750D02*
X99800Y-54150D01*
X99800Y-54150D02*
X101000Y-54150D01*
X101000Y-54150D02*
X101000Y-54750D01*
X76700Y-54200D02*
X77900Y-54200D01*
X77900Y-54200D02*
X77900Y-54800D01*
X77900Y-54800D02*
X76700Y-54800D01*
X76700Y-54800D02*
X76700Y-54200D01*
X101000Y-46750D02*
X99800Y-46750D01*
X99800Y-46750D02*
X99800Y-46150D01*
X99800Y-46150D02*
X101000Y-46150D01*
X101000Y-46150D02*
X101000Y-46750D01*
X101000Y-53750D02*
X99800Y-53750D01*
X99800Y-53750D02*
X99800Y-53150D01*
X99800Y-53150D02*
X101000Y-53150D01*
X101000Y-53150D02*
X101000Y-53750D01*
X101000Y-48750D02*
X99800Y-48750D01*
X99800Y-48750D02*
X99800Y-48150D01*
X99800Y-48150D02*
X101000Y-48150D01*
X101000Y-48150D02*
X101000Y-48750D01*
X101000Y-49750D02*
X99800Y-49750D01*
X99800Y-49750D02*
X99800Y-49150D01*
X99800Y-49150D02*
X101000Y-49150D01*
X101000Y-49150D02*
X101000Y-49750D01*
X101000Y-51750D02*
X99800Y-51750D01*
X99800Y-51750D02*
X99800Y-51150D01*
X99800Y-51150D02*
X101000Y-51150D01*
X101000Y-51150D02*
X101000Y-51750D01*
X101000Y-52750D02*
X99800Y-52750D01*
X99800Y-52750D02*
X99800Y-52150D01*
X99800Y-52150D02*
X101000Y-52150D01*
X101000Y-52150D02*
X101000Y-52750D01*
X101000Y-50750D02*
X99800Y-50750D01*
X99800Y-50750D02*
X99800Y-50150D01*
X99800Y-50150D02*
X101000Y-50150D01*
X101000Y-50150D02*
X101000Y-50750D01*
X86950Y-56150D02*
X88150Y-56150D01*
X88150Y-56150D02*
X88150Y-56750D01*
X88150Y-56750D02*
X86950Y-56750D01*
X86950Y-56750D02*
X86950Y-56150D01*
X78750Y-57400D02*
X78750Y-56200D01*
X78750Y-56200D02*
X79350Y-56200D01*
X79350Y-56200D02*
X79350Y-57400D01*
X79350Y-57400D02*
X78750Y-57400D01*
X77900Y-53200D02*
X76700Y-53200D01*
X76700Y-53200D02*
X76700Y-52600D01*
X76700Y-52600D02*
X77900Y-52600D01*
X77900Y-52600D02*
X77900Y-53200D01*
X77900Y-54000D02*
X76700Y-54000D01*
X76700Y-54000D02*
X76700Y-53400D01*
X76700Y-53400D02*
X77900Y-53400D01*
X77900Y-53400D02*
X77900Y-54000D01*
X99700Y-46800D02*
X99800Y-46700D01*
X99800Y-46700D02*
X99800Y-46200D01*
X99800Y-46200D02*
X99700Y-46100D01*
X99300Y-46800D02*
X99700Y-46800D01*
X99700Y-46800D02*
X99700Y-46100D01*
X99700Y-46100D02*
X99300Y-46100D01*
X98900Y-46800D02*
X98500Y-46800D01*
X98500Y-46800D02*
X98500Y-46100D01*
X98500Y-46100D02*
X98900Y-46100D01*
X99700Y-47800D02*
X99800Y-47700D01*
X99800Y-47700D02*
X99800Y-47200D01*
X99800Y-47200D02*
X99700Y-47100D01*
X99300Y-47800D02*
X99700Y-47800D01*
X99700Y-47800D02*
X99700Y-47100D01*
X99700Y-47100D02*
X99300Y-47100D01*
X98900Y-47800D02*
X98500Y-47800D01*
X98500Y-47800D02*
X98500Y-47100D01*
X98500Y-47100D02*
X98900Y-47100D01*
X99700Y-48800D02*
X99800Y-48700D01*
X99800Y-48700D02*
X99800Y-48200D01*
X99800Y-48200D02*
X99700Y-48100D01*
X99300Y-48800D02*
X99700Y-48800D01*
X99700Y-48800D02*
X99700Y-48100D01*
X99700Y-48100D02*
X99300Y-48100D01*
X98900Y-48800D02*
X98500Y-48800D01*
X98500Y-48800D02*
X98500Y-48100D01*
X98500Y-48100D02*
X98900Y-48100D01*
X99700Y-49800D02*
X99800Y-49700D01*
X99800Y-49700D02*
X99800Y-49200D01*
X99800Y-49200D02*
X99700Y-49100D01*
X99300Y-49800D02*
X99700Y-49800D01*
X99700Y-49800D02*
X99700Y-49100D01*
X99700Y-49100D02*
X99300Y-49100D01*
X98900Y-49800D02*
X98500Y-49800D01*
X98500Y-49800D02*
X98500Y-49100D01*
X98500Y-49100D02*
X98900Y-49100D01*
X99700Y-51800D02*
X99800Y-51700D01*
X99800Y-51700D02*
X99800Y-51200D01*
X99800Y-51200D02*
X99700Y-51100D01*
X99300Y-51800D02*
X99700Y-51800D01*
X99700Y-51800D02*
X99700Y-51100D01*
X99700Y-51100D02*
X99300Y-51100D01*
X98900Y-51800D02*
X98500Y-51800D01*
X98500Y-51800D02*
X98500Y-51100D01*
X98500Y-51100D02*
X98900Y-51100D01*
X99700Y-50800D02*
X99800Y-50700D01*
X99800Y-50700D02*
X99800Y-50200D01*
X99800Y-50200D02*
X99700Y-50100D01*
X99300Y-50800D02*
X99700Y-50800D01*
X99700Y-50800D02*
X99700Y-50100D01*
X99700Y-50100D02*
X99300Y-50100D01*
X98900Y-50800D02*
X98500Y-50800D01*
X98500Y-50800D02*
X98500Y-50100D01*
X98500Y-50100D02*
X98900Y-50100D01*
X99700Y-52800D02*
X99800Y-52700D01*
X99800Y-52700D02*
X99800Y-52200D01*
X99800Y-52200D02*
X99700Y-52100D01*
X99300Y-52800D02*
X99700Y-52800D01*
X99700Y-52800D02*
X99700Y-52100D01*
X99700Y-52100D02*
X99300Y-52100D01*
X98900Y-52800D02*
X98500Y-52800D01*
X98500Y-52800D02*
X98500Y-52100D01*
X98500Y-52100D02*
X98900Y-52100D01*
X99700Y-53800D02*
X99800Y-53700D01*
X99800Y-53700D02*
X99800Y-53200D01*
X99800Y-53200D02*
X99700Y-53100D01*
X99300Y-53800D02*
X99700Y-53800D01*
X99700Y-53800D02*
X99700Y-53100D01*
X99700Y-53100D02*
X99300Y-53100D01*
X98900Y-53800D02*
X98500Y-53800D01*
X98500Y-53800D02*
X98500Y-53100D01*
X98500Y-53100D02*
X98900Y-53100D01*
X99700Y-54800D02*
X99800Y-54700D01*
X99800Y-54700D02*
X99800Y-54200D01*
X99800Y-54200D02*
X99700Y-54100D01*
X99300Y-54800D02*
X99700Y-54800D01*
X99700Y-54800D02*
X99700Y-54100D01*
X99700Y-54100D02*
X99300Y-54100D01*
X98900Y-54800D02*
X98500Y-54800D01*
X98500Y-54800D02*
X98500Y-54100D01*
X98500Y-54100D02*
X98900Y-54100D01*
X78450Y-47850D02*
X78450Y-46650D01*
X78450Y-46650D02*
X79050Y-46650D01*
X79050Y-46650D02*
X79050Y-47850D01*
X79050Y-47850D02*
X78450Y-47850D01*
X101000Y-45800D02*
X99800Y-45800D01*
X99800Y-45800D02*
X99800Y-45200D01*
X99800Y-45200D02*
X101000Y-45200D01*
X101000Y-45200D02*
X101000Y-45800D01*
G54D14*
X103000Y-44950D02*
X103000Y-54950D01*
X103000Y-54950D02*
X101000Y-54950D01*
X101000Y-54950D02*
X101000Y-44950D01*
X101000Y-44950D02*
X103000Y-44950D01*
G54D12*
X89650Y-50700D02*
X89650Y-51900D01*
X89650Y-51900D02*
X89050Y-51900D01*
X89050Y-51900D02*
X89050Y-50700D01*
X89050Y-50700D02*
X89650Y-50700D01*
X95350Y-52100D02*
X95350Y-50900D01*
X95350Y-50900D02*
X95950Y-50900D01*
X95950Y-50900D02*
X95950Y-52100D01*
X95950Y-52100D02*
X95350Y-52100D01*
X98500Y-57200D02*
X99700Y-57200D01*
X99700Y-57200D02*
X99700Y-57800D01*
X99700Y-57800D02*
X98500Y-57800D01*
X98500Y-57800D02*
X98500Y-57200D01*
X99700Y-55700D02*
X98500Y-55700D01*
X98500Y-55700D02*
X98500Y-55100D01*
X98500Y-55100D02*
X99700Y-55100D01*
X99700Y-55100D02*
X99700Y-55700D01*
X101650Y-43250D02*
X101650Y-44450D01*
X101650Y-44450D02*
X101050Y-44450D01*
X101050Y-44450D02*
X101050Y-43250D01*
X101050Y-43250D02*
X101650Y-43250D01*
X99250Y-55850D02*
X99250Y-57050D01*
X99250Y-57050D02*
X98950Y-57050D01*
X98950Y-57050D02*
X98950Y-55850D01*
X98950Y-55850D02*
X99250Y-55850D01*
X93800Y-52850D02*
X93796Y-52888D01*
X93784Y-52926D01*
X93766Y-52960D01*
X93741Y-52990D01*
X93711Y-53015D01*
X93677Y-53034D01*
X93640Y-53045D01*
X93601Y-53049D01*
X93563Y-53046D01*
X93526Y-53035D01*
X93491Y-53017D01*
X93461Y-52992D01*
X93435Y-52962D01*
X93417Y-52928D01*
X93405Y-52891D01*
X93401Y-52852D01*
X93404Y-52814D01*
X93415Y-52777D01*
X93432Y-52742D01*
X93457Y-52712D01*
X93486Y-52686D01*
X93520Y-52667D01*
X93558Y-52655D01*
X93596Y-52651D01*
X93634Y-52654D01*
X93672Y-52664D01*
X93707Y-52682D01*
X93737Y-52706D01*
X93763Y-52735D01*
X93782Y-52769D01*
X93795Y-52806D01*
X93799Y-52845D01*
X93800Y-52850D01*
X93000Y-57050D02*
X93000Y-52250D01*
X93000Y-52250D02*
X97800Y-52250D01*
X97800Y-52250D02*
X97800Y-57050D01*
X97800Y-57050D02*
X93000Y-57050D01*
G54D14*
X73250Y-51550D02*
X73250Y-52250D01*
X77000Y-51550D02*
X73250Y-51550D01*
X73250Y-47650D02*
X73250Y-48350D01*
X73250Y-48350D02*
X77000Y-48350D01*
X77000Y-49050D02*
X76600Y-49050D01*
X77000Y-48350D02*
X77000Y-49050D01*
X76600Y-49050D02*
X76600Y-50850D01*
X76600Y-50850D02*
X77000Y-50850D01*
X77000Y-50850D02*
X77000Y-51550D01*
X102850Y-43000D02*
X76850Y-43000D01*
X76850Y-41000D02*
X102850Y-41000D01*
X102850Y-41000D02*
X102850Y-43000D01*
X76850Y-43000D02*
X76850Y-41000D01*
G54D12*
X101750Y-44450D02*
X101750Y-43250D01*
X101750Y-43250D02*
X102350Y-43250D01*
X102350Y-43250D02*
X102350Y-44450D01*
X102350Y-44450D02*
X101750Y-44450D01*
X96500Y-44400D02*
X95200Y-44400D01*
X95200Y-44400D02*
X95200Y-43200D01*
X96500Y-43200D02*
X95200Y-43200D01*
X96500Y-44400D02*
X96500Y-43200D01*
X94500Y-44400D02*
X93200Y-44400D01*
X93200Y-44400D02*
X93200Y-43200D01*
X94500Y-43200D02*
X93200Y-43200D01*
X94500Y-44400D02*
X94500Y-43200D01*
X92500Y-44400D02*
X91200Y-44400D01*
X91200Y-44400D02*
X91200Y-43200D01*
X92500Y-43200D02*
X91200Y-43200D01*
X92500Y-44400D02*
X92500Y-43200D01*
X90500Y-44400D02*
X89200Y-44400D01*
X89200Y-44400D02*
X89200Y-43200D01*
X90500Y-43200D02*
X89200Y-43200D01*
X90500Y-44400D02*
X90500Y-43200D01*
X88500Y-44400D02*
X87200Y-44400D01*
X87200Y-44400D02*
X87200Y-43200D01*
X88500Y-43200D02*
X87200Y-43200D01*
X88500Y-44400D02*
X88500Y-43200D01*
X86500Y-44400D02*
X85200Y-44400D01*
X85200Y-44400D02*
X85200Y-43200D01*
X86500Y-43200D02*
X85200Y-43200D01*
X86500Y-44400D02*
X86500Y-43200D01*
X84500Y-44400D02*
X83200Y-44400D01*
X83200Y-44400D02*
X83200Y-43200D01*
X84500Y-43200D02*
X83200Y-43200D01*
X84500Y-44400D02*
X84500Y-43200D01*
X83050Y-44400D02*
X81750Y-44400D01*
X81750Y-44400D02*
X81750Y-43200D01*
X83050Y-43200D02*
X81750Y-43200D01*
X83050Y-44400D02*
X83050Y-43200D01*
X81600Y-44400D02*
X80300Y-44400D01*
X80300Y-44400D02*
X80300Y-43200D01*
X81600Y-43200D02*
X80300Y-43200D01*
X81600Y-44400D02*
X81600Y-43200D01*
X79550Y-44400D02*
X78250Y-44400D01*
X78250Y-44400D02*
X78250Y-43200D01*
X79550Y-43200D02*
X78250Y-43200D01*
X79550Y-44400D02*
X79550Y-43200D01*
X98500Y-44400D02*
X97200Y-44400D01*
X97200Y-44400D02*
X97200Y-43200D01*
X98500Y-43200D02*
X97200Y-43200D01*
X98500Y-44400D02*
X98500Y-43200D01*
X100900Y-44400D02*
X99600Y-44400D01*
X99600Y-44400D02*
X99600Y-43200D01*
X100900Y-43200D02*
X99600Y-43200D01*
X100900Y-44400D02*
X100900Y-43200D01*
X90720Y-57400D02*
X90718Y-57413D01*
X90714Y-57426D01*
X90708Y-57438D01*
X90699Y-57449D01*
X90689Y-57458D01*
X90677Y-57464D01*
X90664Y-57468D01*
X90650Y-57469D01*
X90637Y-57468D01*
X90624Y-57464D01*
X90612Y-57458D01*
X90602Y-57450D01*
X90593Y-57439D01*
X90586Y-57427D01*
X90582Y-57414D01*
X90581Y-57400D01*
X90582Y-57388D01*
X90585Y-57375D01*
X90592Y-57363D01*
X90600Y-57352D01*
X90611Y-57343D01*
X90622Y-57336D01*
X90635Y-57332D01*
X90649Y-57331D01*
X90662Y-57332D01*
X90675Y-57335D01*
X90687Y-57341D01*
X90698Y-57350D01*
X90707Y-57360D01*
X90713Y-57372D01*
X90718Y-57385D01*
X90719Y-57399D01*
X90720Y-57400D01*
X89150Y-57450D02*
X88400Y-57450D01*
X88400Y-57450D02*
X88400Y-58650D01*
X88400Y-58650D02*
X89150Y-58650D01*
X89800Y-58650D02*
X90600Y-58650D01*
X90600Y-58650D02*
X90600Y-57450D01*
X90600Y-57450D02*
X89800Y-57450D01*
X74400Y-54300D02*
X74398Y-54319D01*
X74392Y-54338D01*
X74383Y-54355D01*
X74370Y-54370D01*
X74355Y-54382D01*
X74338Y-54392D01*
X74320Y-54397D01*
X74300Y-54399D01*
X74282Y-54398D01*
X74263Y-54392D01*
X74246Y-54383D01*
X74231Y-54371D01*
X74218Y-54356D01*
X74209Y-54339D01*
X74203Y-54320D01*
X74201Y-54301D01*
X74202Y-54282D01*
X74208Y-54264D01*
X74216Y-54246D01*
X74229Y-54231D01*
X74243Y-54218D01*
X74260Y-54209D01*
X74279Y-54203D01*
X74298Y-54201D01*
X74317Y-54202D01*
X74336Y-54207D01*
X74353Y-54216D01*
X74368Y-54228D01*
X74381Y-54243D01*
X74391Y-54260D01*
X74397Y-54278D01*
X74399Y-54298D01*
X74400Y-54300D01*
X74350Y-54300D02*
X74349Y-54309D01*
X74346Y-54319D01*
X74341Y-54327D01*
X74335Y-54335D01*
X74327Y-54341D01*
X74319Y-54346D01*
X74310Y-54348D01*
X74300Y-54349D01*
X74291Y-54349D01*
X74282Y-54346D01*
X74273Y-54341D01*
X74266Y-54335D01*
X74259Y-54328D01*
X74255Y-54319D01*
X74252Y-54310D01*
X74251Y-54300D01*
X74251Y-54291D01*
X74254Y-54282D01*
X74258Y-54273D01*
X74265Y-54266D01*
X74272Y-54259D01*
X74280Y-54255D01*
X74290Y-54252D01*
X74299Y-54251D01*
X74308Y-54251D01*
X74318Y-54254D01*
X74326Y-54258D01*
X74334Y-54264D01*
X74340Y-54272D01*
X74345Y-54280D01*
X74348Y-54289D01*
X74349Y-54299D01*
X74350Y-54300D01*
X74400Y-53400D02*
X74400Y-54600D01*
X74400Y-54600D02*
X76600Y-54600D01*
X76600Y-53400D02*
X76600Y-54600D01*
X74400Y-53400D02*
X76600Y-53400D01*
X81150Y-58700D02*
X81150Y-57500D01*
X81150Y-57500D02*
X81750Y-57500D01*
X81750Y-57500D02*
X81750Y-58700D01*
X81750Y-58700D02*
X81150Y-58700D01*
X84800Y-57450D02*
X84800Y-58650D01*
X84800Y-58650D02*
X84200Y-58650D01*
X84200Y-58650D02*
X84200Y-57450D01*
X84200Y-57450D02*
X84800Y-57450D01*
X80950Y-57500D02*
X80950Y-58700D01*
X80950Y-58700D02*
X80350Y-58700D01*
X80350Y-58700D02*
X80350Y-57500D01*
X80350Y-57500D02*
X80950Y-57500D01*
X79350Y-57500D02*
X79350Y-58700D01*
X79350Y-58700D02*
X78750Y-58700D01*
X78750Y-58700D02*
X78750Y-57500D01*
X78750Y-57500D02*
X79350Y-57500D01*
X88150Y-58200D02*
X86950Y-58200D01*
X86950Y-58200D02*
X86950Y-57900D01*
X86950Y-57900D02*
X88150Y-57900D01*
X88150Y-57900D02*
X88150Y-58200D01*
X85450Y-58650D02*
X85450Y-57450D01*
X85450Y-57450D02*
X86050Y-57450D01*
X86050Y-57450D02*
X86050Y-58650D01*
X86050Y-58650D02*
X85450Y-58650D01*
G54D13*
X77100Y-48200D02*
X78100Y-48200D01*
X78100Y-43200D02*
X77100Y-43200D01*
X77100Y-48200D02*
X77100Y-43200D01*
X78100Y-43200D02*
X78100Y-48200D01*
G54D12*
X98000Y-52050D02*
X96800Y-52050D01*
X96800Y-52050D02*
X96800Y-51450D01*
X96800Y-51450D02*
X98000Y-51450D01*
X98000Y-51450D02*
X98000Y-52050D01*
X96800Y-58500D02*
X96800Y-57300D01*
X96800Y-57300D02*
X97400Y-57300D01*
X97400Y-57300D02*
X97400Y-58500D01*
X97400Y-58500D02*
X96800Y-58500D01*
X96650Y-57300D02*
X96650Y-58500D01*
X96650Y-58500D02*
X96050Y-58500D01*
X96050Y-58500D02*
X96050Y-57300D01*
X96050Y-57300D02*
X96650Y-57300D01*
X95950Y-57300D02*
X95950Y-58500D01*
X95950Y-58500D02*
X95350Y-58500D01*
X95350Y-58500D02*
X95350Y-57300D01*
X95350Y-57300D02*
X95950Y-57300D01*
X95250Y-57300D02*
X95250Y-58500D01*
X95250Y-58500D02*
X94650Y-58500D01*
X94650Y-58500D02*
X94650Y-57300D01*
X94650Y-57300D02*
X95250Y-57300D01*
X94550Y-57300D02*
X94550Y-58500D01*
X94550Y-58500D02*
X93950Y-58500D01*
X93950Y-58500D02*
X93950Y-57300D01*
X93950Y-57300D02*
X94550Y-57300D01*
X93250Y-58500D02*
X93250Y-57300D01*
X93250Y-57300D02*
X93850Y-57300D01*
X93850Y-57300D02*
X93850Y-58500D01*
X93850Y-58500D02*
X93250Y-58500D01*
X93100Y-57300D02*
X93100Y-58500D01*
X93100Y-58500D02*
X92500Y-58500D01*
X92500Y-58500D02*
X92500Y-57300D01*
X92500Y-57300D02*
X93100Y-57300D01*
X92350Y-57300D02*
X92350Y-58500D01*
X92350Y-58500D02*
X91750Y-58500D01*
X91750Y-58500D02*
X91750Y-57300D01*
X91750Y-57300D02*
X92350Y-57300D01*
X91650Y-57300D02*
X91650Y-58500D01*
X91650Y-58500D02*
X91050Y-58500D01*
X91050Y-58500D02*
X91050Y-57300D01*
X91050Y-57300D02*
X91650Y-57300D01*
X97500Y-58500D02*
X97500Y-57300D01*
X97500Y-57300D02*
X98100Y-57300D01*
X98100Y-57300D02*
X98100Y-58500D01*
X98100Y-58500D02*
X97500Y-58500D01*
X81950Y-58700D02*
X81950Y-57500D01*
X81950Y-57500D02*
X82550Y-57500D01*
X82550Y-57500D02*
X82550Y-58700D01*
X82550Y-58700D02*
X81950Y-58700D01*
X92400Y-54050D02*
X92400Y-55250D01*
X92400Y-55250D02*
X91800Y-55250D01*
X91800Y-55250D02*
X91800Y-54050D01*
X91800Y-54050D02*
X92400Y-54050D01*
X101000Y-55700D02*
X99800Y-55700D01*
X99800Y-55700D02*
X99800Y-55100D01*
X99800Y-55100D02*
X101000Y-55100D01*
X101000Y-55100D02*
X101000Y-55700D01*
X86200Y-58650D02*
X86200Y-57450D01*
X86200Y-57450D02*
X86800Y-57450D01*
X86800Y-57450D02*
X86800Y-58650D01*
X86800Y-58650D02*
X86200Y-58650D01*
X99700Y-45800D02*
X98500Y-45800D01*
X98500Y-45800D02*
X98500Y-45200D01*
X98500Y-45200D02*
X99700Y-45200D01*
X99700Y-45200D02*
X99700Y-45800D01*
X94650Y-52100D02*
X94650Y-50900D01*
X94650Y-50900D02*
X95250Y-50900D01*
X95250Y-50900D02*
X95250Y-52100D01*
X95250Y-52100D02*
X94650Y-52100D01*
G54D15*
G36*
X84566Y-46966D02*
X84566Y-44834D01*
X82434Y-44834D01*
X82434Y-46966D01*
X82865Y-46966D01*
X82865Y-46866D01*
X82861Y-46866D01*
X82660Y-46862D01*
X82558Y-46846D01*
X82521Y-46813D01*
X82519Y-46803D01*
X82511Y-46688D01*
X82506Y-46473D01*
X82502Y-46184D01*
X82500Y-45848D01*
X82501Y-45686D01*
X82502Y-45363D01*
X82507Y-45146D01*
X82516Y-45015D01*
X82529Y-44951D01*
X82549Y-44934D01*
X82585Y-44940D01*
X82625Y-44980D01*
X82650Y-45076D01*
X82661Y-45247D01*
X82661Y-45511D01*
X82652Y-45890D01*
X82643Y-46243D01*
X82642Y-46504D01*
X82649Y-46652D01*
X82664Y-46700D01*
X82678Y-46664D01*
X82691Y-46519D01*
X82698Y-46255D01*
X82700Y-45867D01*
X82700Y-45812D01*
X82702Y-45477D01*
X82706Y-45253D01*
X82715Y-45117D01*
X82729Y-45051D01*
X82749Y-45034D01*
X82768Y-45035D01*
X82812Y-45065D01*
X82841Y-45148D01*
X82857Y-45305D01*
X82862Y-45554D01*
X82860Y-45916D01*
X82858Y-46186D01*
X82858Y-46435D01*
X82861Y-46603D01*
X82867Y-46664D01*
X82872Y-46659D01*
X82935Y-46580D01*
X83056Y-46417D01*
X83222Y-46191D01*
X83417Y-45922D01*
X83498Y-45812D01*
X83697Y-45539D01*
X83842Y-45350D01*
X83947Y-45228D01*
X84027Y-45154D01*
X84098Y-45109D01*
X84169Y-45080D01*
X84317Y-45042D01*
X84445Y-45031D01*
X84500Y-45054D01*
X84493Y-45065D01*
X84430Y-45160D01*
X84311Y-45331D01*
X84152Y-45557D01*
X83969Y-45814D01*
X83777Y-46080D01*
X83595Y-46333D01*
X83437Y-46551D01*
X83318Y-46711D01*
X83256Y-46791D01*
X83235Y-46813D01*
X83173Y-46848D01*
X83064Y-46863D01*
X82865Y-46866D01*
X82865Y-46966D01*
X84566Y-46966D01*
X84566Y-46966D01*
G37*
G54D16*
X81228Y-49683D02*
X81228Y-49910D01*
X81236Y-49937D01*
X81245Y-49950D01*
X81262Y-49963D01*
X81296Y-49963D01*
X81314Y-49950D01*
X81322Y-49937D01*
X81331Y-49910D01*
X81331Y-49683D01*
X81511Y-49963D02*
X81408Y-49963D01*
X81460Y-49963D02*
X81460Y-49683D01*
X81443Y-49723D01*
X81425Y-49750D01*
X81408Y-49763D01*
X81622Y-49683D02*
X81639Y-49683D01*
X81656Y-49697D01*
X81665Y-49710D01*
X81674Y-49737D01*
X81682Y-49790D01*
X81682Y-49857D01*
X81674Y-49910D01*
X81665Y-49937D01*
X81656Y-49950D01*
X81639Y-49963D01*
X81622Y-49963D01*
X81605Y-49950D01*
X81596Y-49937D01*
X81588Y-49910D01*
X81579Y-49857D01*
X81579Y-49790D01*
X81588Y-49737D01*
X81596Y-49710D01*
X81605Y-49697D01*
X81622Y-49683D01*
X88728Y-45083D02*
X88728Y-45310D01*
X88736Y-45337D01*
X88745Y-45350D01*
X88762Y-45363D01*
X88796Y-45363D01*
X88814Y-45350D01*
X88822Y-45337D01*
X88831Y-45310D01*
X88831Y-45083D01*
X88908Y-45110D02*
X88917Y-45097D01*
X88934Y-45083D01*
X88977Y-45083D01*
X88994Y-45097D01*
X89003Y-45110D01*
X89011Y-45137D01*
X89011Y-45163D01*
X89003Y-45203D01*
X88900Y-45363D01*
X89011Y-45363D01*
X89122Y-45083D02*
X89139Y-45083D01*
X89156Y-45097D01*
X89165Y-45110D01*
X89174Y-45137D01*
X89182Y-45190D01*
X89182Y-45257D01*
X89174Y-45310D01*
X89165Y-45337D01*
X89156Y-45350D01*
X89139Y-45363D01*
X89122Y-45363D01*
X89105Y-45350D01*
X89096Y-45337D01*
X89088Y-45310D01*
X89079Y-45257D01*
X89079Y-45190D01*
X89088Y-45137D01*
X89096Y-45110D01*
X89105Y-45097D01*
X89122Y-45083D01*
X78378Y-48183D02*
X78378Y-48410D01*
X78386Y-48437D01*
X78395Y-48450D01*
X78412Y-48463D01*
X78446Y-48463D01*
X78464Y-48450D01*
X78472Y-48437D01*
X78481Y-48410D01*
X78481Y-48183D01*
X78661Y-48463D02*
X78558Y-48463D01*
X78610Y-48463D02*
X78610Y-48183D01*
X78593Y-48223D01*
X78575Y-48250D01*
X78558Y-48263D01*
X78832Y-48463D02*
X78729Y-48463D01*
X78781Y-48463D02*
X78781Y-48183D01*
X78764Y-48223D01*
X78746Y-48250D01*
X78729Y-48263D01*
X76937Y-46029D02*
X76950Y-46038D01*
X76963Y-46064D01*
X76963Y-46081D01*
X76950Y-46106D01*
X76923Y-46124D01*
X76897Y-46132D01*
X76843Y-46141D01*
X76803Y-46141D01*
X76750Y-46132D01*
X76723Y-46124D01*
X76697Y-46106D01*
X76683Y-46081D01*
X76683Y-46064D01*
X76697Y-46038D01*
X76710Y-46029D01*
X76683Y-45918D02*
X76683Y-45901D01*
X76697Y-45884D01*
X76710Y-45875D01*
X76737Y-45866D01*
X76790Y-45858D01*
X76857Y-45858D01*
X76910Y-45866D01*
X76937Y-45875D01*
X76950Y-45884D01*
X76963Y-45901D01*
X76963Y-45918D01*
X76950Y-45935D01*
X76937Y-45944D01*
X76910Y-45952D01*
X76857Y-45961D01*
X76790Y-45961D01*
X76737Y-45952D01*
X76710Y-45944D01*
X76697Y-45935D01*
X76683Y-45918D01*
X76937Y-44879D02*
X76950Y-44888D01*
X76963Y-44914D01*
X76963Y-44931D01*
X76950Y-44956D01*
X76923Y-44974D01*
X76897Y-44982D01*
X76843Y-44991D01*
X76803Y-44991D01*
X76750Y-44982D01*
X76723Y-44974D01*
X76697Y-44956D01*
X76683Y-44931D01*
X76683Y-44914D01*
X76697Y-44888D01*
X76710Y-44879D01*
X76963Y-44708D02*
X76963Y-44811D01*
X76963Y-44759D02*
X76683Y-44759D01*
X76723Y-44776D01*
X76750Y-44794D01*
X76763Y-44811D01*
X76017Y-47259D02*
X76017Y-47319D01*
X76163Y-47319D02*
X75883Y-47319D01*
X75883Y-47233D01*
X75883Y-47131D02*
X75883Y-47114D01*
X75897Y-47097D01*
X75910Y-47088D01*
X75937Y-47079D01*
X75990Y-47071D01*
X76057Y-47071D01*
X76110Y-47079D01*
X76137Y-47088D01*
X76150Y-47097D01*
X76163Y-47114D01*
X76163Y-47131D01*
X76150Y-47148D01*
X76137Y-47157D01*
X76110Y-47165D01*
X76057Y-47174D01*
X75990Y-47174D01*
X75937Y-47165D01*
X75910Y-47157D01*
X75897Y-47148D01*
X75883Y-47131D01*
X88535Y-52237D02*
X88526Y-52250D01*
X88500Y-52263D01*
X88483Y-52263D01*
X88458Y-52250D01*
X88440Y-52223D01*
X88432Y-52197D01*
X88423Y-52143D01*
X88423Y-52103D01*
X88432Y-52050D01*
X88440Y-52023D01*
X88458Y-51997D01*
X88483Y-51983D01*
X88500Y-51983D01*
X88526Y-51997D01*
X88535Y-52010D01*
X88706Y-52263D02*
X88603Y-52263D01*
X88655Y-52263D02*
X88655Y-51983D01*
X88638Y-52023D01*
X88620Y-52050D01*
X88603Y-52063D01*
X88766Y-51983D02*
X88877Y-51983D01*
X88817Y-52090D01*
X88843Y-52090D01*
X88860Y-52103D01*
X88869Y-52117D01*
X88877Y-52143D01*
X88877Y-52210D01*
X88869Y-52237D01*
X88860Y-52250D01*
X88843Y-52263D01*
X88791Y-52263D01*
X88774Y-52250D01*
X88766Y-52237D01*
X76313Y-55565D02*
X76180Y-55625D01*
X76313Y-55668D02*
X76033Y-55668D01*
X76033Y-55600D01*
X76047Y-55582D01*
X76060Y-55574D01*
X76087Y-55565D01*
X76127Y-55565D01*
X76153Y-55574D01*
X76167Y-55582D01*
X76180Y-55600D01*
X76180Y-55668D01*
X76313Y-55394D02*
X76313Y-55497D01*
X76313Y-55445D02*
X76033Y-55445D01*
X76073Y-55462D01*
X76100Y-55480D01*
X76113Y-55497D01*
X76033Y-55283D02*
X76033Y-55266D01*
X76047Y-55249D01*
X76060Y-55240D01*
X76087Y-55231D01*
X76140Y-55223D01*
X76207Y-55223D01*
X76260Y-55231D01*
X76287Y-55240D01*
X76300Y-55249D01*
X76313Y-55266D01*
X76313Y-55283D01*
X76300Y-55300D01*
X76287Y-55309D01*
X76260Y-55317D01*
X76207Y-55326D01*
X76140Y-55326D01*
X76087Y-55317D01*
X76060Y-55309D01*
X76047Y-55300D01*
X76033Y-55283D01*
X76613Y-56015D02*
X76480Y-56075D01*
X76613Y-56118D02*
X76333Y-56118D01*
X76333Y-56050D01*
X76347Y-56032D01*
X76360Y-56024D01*
X76387Y-56015D01*
X76427Y-56015D01*
X76453Y-56024D01*
X76467Y-56032D01*
X76480Y-56050D01*
X76480Y-56118D01*
X76613Y-55844D02*
X76613Y-55947D01*
X76613Y-55895D02*
X76333Y-55895D01*
X76373Y-55912D01*
X76400Y-55930D01*
X76413Y-55947D01*
X76613Y-55673D02*
X76613Y-55776D01*
X76613Y-55724D02*
X76333Y-55724D01*
X76373Y-55741D01*
X76400Y-55759D01*
X76413Y-55776D01*
X77185Y-57263D02*
X77125Y-57130D01*
X77082Y-57263D02*
X77082Y-56983D01*
X77150Y-56983D01*
X77168Y-56997D01*
X77176Y-57010D01*
X77185Y-57037D01*
X77185Y-57077D01*
X77176Y-57103D01*
X77168Y-57117D01*
X77150Y-57130D01*
X77082Y-57130D01*
X77356Y-57263D02*
X77253Y-57263D01*
X77305Y-57263D02*
X77305Y-56983D01*
X77288Y-57023D01*
X77270Y-57050D01*
X77253Y-57063D01*
X77424Y-57010D02*
X77433Y-56997D01*
X77450Y-56983D01*
X77493Y-56983D01*
X77510Y-56997D01*
X77519Y-57010D01*
X77527Y-57037D01*
X77527Y-57063D01*
X77519Y-57103D01*
X77416Y-57263D01*
X77527Y-57263D01*
X78013Y-57365D02*
X77880Y-57425D01*
X78013Y-57468D02*
X77733Y-57468D01*
X77733Y-57400D01*
X77747Y-57382D01*
X77760Y-57374D01*
X77787Y-57365D01*
X77827Y-57365D01*
X77853Y-57374D01*
X77867Y-57382D01*
X77880Y-57400D01*
X77880Y-57468D01*
X78013Y-57194D02*
X78013Y-57297D01*
X78013Y-57245D02*
X77733Y-57245D01*
X77773Y-57262D01*
X77800Y-57280D01*
X77813Y-57297D01*
X77733Y-57134D02*
X77733Y-57023D01*
X77840Y-57083D01*
X77840Y-57057D01*
X77853Y-57040D01*
X77867Y-57031D01*
X77893Y-57023D01*
X77960Y-57023D01*
X77987Y-57031D01*
X78000Y-57040D01*
X78013Y-57057D01*
X78013Y-57109D01*
X78000Y-57126D01*
X77987Y-57134D01*
X79635Y-46563D02*
X79575Y-46430D01*
X79532Y-46563D02*
X79532Y-46283D01*
X79600Y-46283D01*
X79618Y-46297D01*
X79626Y-46310D01*
X79635Y-46337D01*
X79635Y-46377D01*
X79626Y-46403D01*
X79618Y-46417D01*
X79600Y-46430D01*
X79532Y-46430D01*
X79806Y-46563D02*
X79703Y-46563D01*
X79755Y-46563D02*
X79755Y-46283D01*
X79738Y-46323D01*
X79720Y-46350D01*
X79703Y-46363D01*
X79960Y-46377D02*
X79960Y-46563D01*
X79917Y-46270D02*
X79874Y-46470D01*
X79986Y-46470D01*
X98363Y-51115D02*
X98230Y-51175D01*
X98363Y-51218D02*
X98083Y-51218D01*
X98083Y-51150D01*
X98097Y-51132D01*
X98110Y-51124D01*
X98137Y-51115D01*
X98177Y-51115D01*
X98203Y-51124D01*
X98217Y-51132D01*
X98230Y-51150D01*
X98230Y-51218D01*
X98110Y-51047D02*
X98097Y-51038D01*
X98083Y-51021D01*
X98083Y-50978D01*
X98097Y-50961D01*
X98110Y-50952D01*
X98137Y-50944D01*
X98163Y-50944D01*
X98203Y-50952D01*
X98363Y-51055D01*
X98363Y-50944D01*
X98083Y-50833D02*
X98083Y-50816D01*
X98097Y-50799D01*
X98110Y-50790D01*
X98137Y-50781D01*
X98190Y-50773D01*
X98257Y-50773D01*
X98310Y-50781D01*
X98337Y-50790D01*
X98350Y-50799D01*
X98363Y-50816D01*
X98363Y-50833D01*
X98350Y-50850D01*
X98337Y-50859D01*
X98310Y-50867D01*
X98257Y-50876D01*
X98190Y-50876D01*
X98137Y-50867D01*
X98110Y-50859D01*
X98097Y-50850D01*
X98083Y-50833D01*
X78237Y-54215D02*
X78250Y-54224D01*
X78263Y-54250D01*
X78263Y-54267D01*
X78250Y-54292D01*
X78223Y-54310D01*
X78197Y-54318D01*
X78143Y-54327D01*
X78103Y-54327D01*
X78050Y-54318D01*
X78023Y-54310D01*
X77997Y-54292D01*
X77983Y-54267D01*
X77983Y-54250D01*
X77997Y-54224D01*
X78010Y-54215D01*
X78263Y-54044D02*
X78263Y-54147D01*
X78263Y-54095D02*
X77983Y-54095D01*
X78023Y-54112D01*
X78050Y-54130D01*
X78063Y-54147D01*
X78077Y-53890D02*
X78263Y-53890D01*
X77970Y-53933D02*
X78170Y-53976D01*
X78170Y-53864D01*
X88335Y-56737D02*
X88326Y-56750D01*
X88300Y-56763D01*
X88283Y-56763D01*
X88258Y-56750D01*
X88240Y-56723D01*
X88232Y-56697D01*
X88223Y-56643D01*
X88223Y-56603D01*
X88232Y-56550D01*
X88240Y-56523D01*
X88258Y-56497D01*
X88283Y-56483D01*
X88300Y-56483D01*
X88326Y-56497D01*
X88335Y-56510D01*
X88506Y-56763D02*
X88403Y-56763D01*
X88455Y-56763D02*
X88455Y-56483D01*
X88438Y-56523D01*
X88420Y-56550D01*
X88403Y-56563D01*
X88574Y-56510D02*
X88583Y-56497D01*
X88600Y-56483D01*
X88643Y-56483D01*
X88660Y-56497D01*
X88669Y-56510D01*
X88677Y-56537D01*
X88677Y-56563D01*
X88669Y-56603D01*
X88566Y-56763D01*
X88677Y-56763D01*
X79687Y-57515D02*
X79700Y-57524D01*
X79713Y-57550D01*
X79713Y-57567D01*
X79700Y-57592D01*
X79673Y-57610D01*
X79647Y-57618D01*
X79593Y-57627D01*
X79553Y-57627D01*
X79500Y-57618D01*
X79473Y-57610D01*
X79447Y-57592D01*
X79433Y-57567D01*
X79433Y-57550D01*
X79447Y-57524D01*
X79460Y-57515D01*
X79713Y-57344D02*
X79713Y-57447D01*
X79713Y-57395D02*
X79433Y-57395D01*
X79473Y-57412D01*
X79500Y-57430D01*
X79513Y-57447D01*
X79713Y-57173D02*
X79713Y-57276D01*
X79713Y-57224D02*
X79433Y-57224D01*
X79473Y-57241D01*
X79500Y-57259D01*
X79513Y-57276D01*
X78237Y-53015D02*
X78250Y-53024D01*
X78263Y-53050D01*
X78263Y-53067D01*
X78250Y-53092D01*
X78223Y-53110D01*
X78197Y-53118D01*
X78143Y-53127D01*
X78103Y-53127D01*
X78050Y-53118D01*
X78023Y-53110D01*
X77997Y-53092D01*
X77983Y-53067D01*
X77983Y-53050D01*
X77997Y-53024D01*
X78010Y-53015D01*
X78263Y-52844D02*
X78263Y-52947D01*
X78263Y-52895D02*
X77983Y-52895D01*
X78023Y-52912D01*
X78050Y-52930D01*
X78063Y-52947D01*
X77983Y-52733D02*
X77983Y-52716D01*
X77997Y-52699D01*
X78010Y-52690D01*
X78037Y-52681D01*
X78090Y-52673D01*
X78157Y-52673D01*
X78210Y-52681D01*
X78237Y-52690D01*
X78250Y-52699D01*
X78263Y-52716D01*
X78263Y-52733D01*
X78250Y-52750D01*
X78237Y-52759D01*
X78210Y-52767D01*
X78157Y-52776D01*
X78090Y-52776D01*
X78037Y-52767D01*
X78010Y-52759D01*
X77997Y-52750D01*
X77983Y-52733D01*
X78237Y-53615D02*
X78250Y-53624D01*
X78263Y-53650D01*
X78263Y-53667D01*
X78250Y-53692D01*
X78223Y-53710D01*
X78197Y-53718D01*
X78143Y-53727D01*
X78103Y-53727D01*
X78050Y-53718D01*
X78023Y-53710D01*
X77997Y-53692D01*
X77983Y-53667D01*
X77983Y-53650D01*
X77997Y-53624D01*
X78010Y-53615D01*
X78263Y-53444D02*
X78263Y-53547D01*
X78263Y-53495D02*
X77983Y-53495D01*
X78023Y-53512D01*
X78050Y-53530D01*
X78063Y-53547D01*
X77983Y-53281D02*
X77983Y-53367D01*
X78117Y-53376D01*
X78103Y-53367D01*
X78090Y-53350D01*
X78090Y-53307D01*
X78103Y-53290D01*
X78117Y-53281D01*
X78143Y-53273D01*
X78210Y-53273D01*
X78237Y-53281D01*
X78250Y-53290D01*
X78263Y-53307D01*
X78263Y-53350D01*
X78250Y-53367D01*
X78237Y-53376D01*
X79035Y-46537D02*
X79026Y-46550D01*
X79000Y-46563D01*
X78983Y-46563D01*
X78958Y-46550D01*
X78940Y-46523D01*
X78932Y-46497D01*
X78923Y-46443D01*
X78923Y-46403D01*
X78932Y-46350D01*
X78940Y-46323D01*
X78958Y-46297D01*
X78983Y-46283D01*
X79000Y-46283D01*
X79026Y-46297D01*
X79035Y-46310D01*
X79206Y-46563D02*
X79103Y-46563D01*
X79155Y-46563D02*
X79155Y-46283D01*
X79138Y-46323D01*
X79120Y-46350D01*
X79103Y-46363D01*
X79266Y-46283D02*
X79386Y-46283D01*
X79309Y-46563D01*
X100185Y-45087D02*
X100176Y-45100D01*
X100150Y-45113D01*
X100133Y-45113D01*
X100108Y-45100D01*
X100090Y-45073D01*
X100082Y-45047D01*
X100073Y-44993D01*
X100073Y-44953D01*
X100082Y-44900D01*
X100090Y-44873D01*
X100108Y-44847D01*
X100133Y-44833D01*
X100150Y-44833D01*
X100176Y-44847D01*
X100185Y-44860D01*
X100253Y-44860D02*
X100262Y-44847D01*
X100279Y-44833D01*
X100322Y-44833D01*
X100339Y-44847D01*
X100348Y-44860D01*
X100356Y-44887D01*
X100356Y-44913D01*
X100348Y-44953D01*
X100245Y-45113D01*
X100356Y-45113D01*
X100527Y-45113D02*
X100424Y-45113D01*
X100476Y-45113D02*
X100476Y-44833D01*
X100459Y-44873D01*
X100441Y-44900D01*
X100424Y-44913D01*
X101782Y-55363D02*
X101782Y-55083D01*
X101850Y-55083D01*
X101868Y-55097D01*
X101876Y-55110D01*
X101885Y-55137D01*
X101885Y-55177D01*
X101876Y-55203D01*
X101868Y-55217D01*
X101850Y-55230D01*
X101782Y-55230D01*
X101970Y-55363D02*
X102005Y-55363D01*
X102022Y-55350D01*
X102030Y-55337D01*
X102048Y-55297D01*
X102056Y-55243D01*
X102056Y-55137D01*
X102048Y-55110D01*
X102039Y-55097D01*
X102022Y-55083D01*
X101988Y-55083D01*
X101970Y-55097D01*
X101962Y-55110D01*
X101953Y-55137D01*
X101953Y-55203D01*
X101962Y-55230D01*
X101970Y-55243D01*
X101988Y-55257D01*
X102022Y-55257D01*
X102039Y-55243D01*
X102048Y-55230D01*
X102056Y-55203D01*
X102167Y-55083D02*
X102184Y-55083D01*
X102201Y-55097D01*
X102210Y-55110D01*
X102219Y-55137D01*
X102227Y-55190D01*
X102227Y-55257D01*
X102219Y-55310D01*
X102210Y-55337D01*
X102201Y-55350D01*
X102184Y-55363D01*
X102167Y-55363D01*
X102150Y-55350D01*
X102141Y-55337D01*
X102133Y-55310D01*
X102124Y-55257D01*
X102124Y-55190D01*
X102133Y-55137D01*
X102141Y-55110D01*
X102150Y-55097D01*
X102167Y-55083D01*
X89235Y-52263D02*
X89175Y-52130D01*
X89132Y-52263D02*
X89132Y-51983D01*
X89200Y-51983D01*
X89218Y-51997D01*
X89226Y-52010D01*
X89235Y-52037D01*
X89235Y-52077D01*
X89226Y-52103D01*
X89218Y-52117D01*
X89200Y-52130D01*
X89132Y-52130D01*
X89303Y-52010D02*
X89312Y-51997D01*
X89329Y-51983D01*
X89372Y-51983D01*
X89389Y-51997D01*
X89398Y-52010D01*
X89406Y-52037D01*
X89406Y-52063D01*
X89398Y-52103D01*
X89295Y-52263D01*
X89406Y-52263D01*
X89577Y-52263D02*
X89474Y-52263D01*
X89526Y-52263D02*
X89526Y-51983D01*
X89509Y-52023D01*
X89491Y-52050D01*
X89474Y-52063D01*
X96313Y-51965D02*
X96180Y-52025D01*
X96313Y-52068D02*
X96033Y-52068D01*
X96033Y-52000D01*
X96047Y-51982D01*
X96060Y-51974D01*
X96087Y-51965D01*
X96127Y-51965D01*
X96153Y-51974D01*
X96167Y-51982D01*
X96180Y-52000D01*
X96180Y-52068D01*
X96060Y-51897D02*
X96047Y-51888D01*
X96033Y-51871D01*
X96033Y-51828D01*
X96047Y-51811D01*
X96060Y-51802D01*
X96087Y-51794D01*
X96113Y-51794D01*
X96153Y-51802D01*
X96313Y-51905D01*
X96313Y-51794D01*
X96060Y-51726D02*
X96047Y-51717D01*
X96033Y-51700D01*
X96033Y-51657D01*
X96047Y-51640D01*
X96060Y-51631D01*
X96087Y-51623D01*
X96113Y-51623D01*
X96153Y-51631D01*
X96313Y-51734D01*
X96313Y-51623D01*
X98985Y-58163D02*
X98925Y-58030D01*
X98882Y-58163D02*
X98882Y-57883D01*
X98950Y-57883D01*
X98968Y-57897D01*
X98976Y-57910D01*
X98985Y-57937D01*
X98985Y-57977D01*
X98976Y-58003D01*
X98968Y-58017D01*
X98950Y-58030D01*
X98882Y-58030D01*
X99053Y-57910D02*
X99062Y-57897D01*
X99079Y-57883D01*
X99122Y-57883D01*
X99139Y-57897D01*
X99148Y-57910D01*
X99156Y-57937D01*
X99156Y-57963D01*
X99148Y-58003D01*
X99045Y-58163D01*
X99156Y-58163D01*
X99319Y-57883D02*
X99233Y-57883D01*
X99224Y-58017D01*
X99233Y-58003D01*
X99250Y-57990D01*
X99293Y-57990D01*
X99310Y-58003D01*
X99319Y-58017D01*
X99327Y-58043D01*
X99327Y-58110D01*
X99319Y-58137D01*
X99310Y-58150D01*
X99293Y-58163D01*
X99250Y-58163D01*
X99233Y-58150D01*
X99224Y-58137D01*
X98085Y-55863D02*
X98025Y-55730D01*
X97982Y-55863D02*
X97982Y-55583D01*
X98050Y-55583D01*
X98068Y-55597D01*
X98076Y-55610D01*
X98085Y-55637D01*
X98085Y-55677D01*
X98076Y-55703D01*
X98068Y-55717D01*
X98050Y-55730D01*
X97982Y-55730D01*
X98153Y-55610D02*
X98162Y-55597D01*
X98179Y-55583D01*
X98222Y-55583D01*
X98239Y-55597D01*
X98248Y-55610D01*
X98256Y-55637D01*
X98256Y-55663D01*
X98248Y-55703D01*
X98145Y-55863D01*
X98256Y-55863D01*
X98410Y-55583D02*
X98376Y-55583D01*
X98359Y-55597D01*
X98350Y-55610D01*
X98333Y-55650D01*
X98324Y-55703D01*
X98324Y-55810D01*
X98333Y-55837D01*
X98341Y-55850D01*
X98359Y-55863D01*
X98393Y-55863D01*
X98410Y-55850D01*
X98419Y-55837D01*
X98427Y-55810D01*
X98427Y-55743D01*
X98419Y-55717D01*
X98410Y-55703D01*
X98393Y-55690D01*
X98359Y-55690D01*
X98341Y-55703D01*
X98333Y-55717D01*
X98324Y-55743D01*
X100685Y-44813D02*
X100625Y-44680D01*
X100582Y-44813D02*
X100582Y-44533D01*
X100650Y-44533D01*
X100668Y-44547D01*
X100676Y-44560D01*
X100685Y-44587D01*
X100685Y-44627D01*
X100676Y-44653D01*
X100668Y-44667D01*
X100650Y-44680D01*
X100582Y-44680D01*
X100753Y-44560D02*
X100762Y-44547D01*
X100779Y-44533D01*
X100822Y-44533D01*
X100839Y-44547D01*
X100848Y-44560D01*
X100856Y-44587D01*
X100856Y-44613D01*
X100848Y-44653D01*
X100745Y-44813D01*
X100856Y-44813D01*
X100916Y-44533D02*
X101036Y-44533D01*
X100959Y-44813D01*
X98390Y-56552D02*
X98377Y-56569D01*
X98350Y-56586D01*
X98310Y-56612D01*
X98297Y-56629D01*
X98297Y-56646D01*
X98363Y-56638D02*
X98350Y-56655D01*
X98323Y-56672D01*
X98270Y-56681D01*
X98177Y-56681D01*
X98123Y-56672D01*
X98097Y-56655D01*
X98083Y-56638D01*
X98083Y-56604D01*
X98097Y-56586D01*
X98123Y-56569D01*
X98177Y-56561D01*
X98270Y-56561D01*
X98323Y-56569D01*
X98350Y-56586D01*
X98363Y-56604D01*
X98363Y-56638D01*
X98110Y-56492D02*
X98097Y-56483D01*
X98083Y-56466D01*
X98083Y-56423D01*
X98097Y-56406D01*
X98110Y-56397D01*
X98137Y-56389D01*
X98163Y-56389D01*
X98203Y-56397D01*
X98363Y-56500D01*
X98363Y-56389D01*
X98083Y-56278D02*
X98083Y-56261D01*
X98097Y-56244D01*
X98110Y-56235D01*
X98137Y-56226D01*
X98190Y-56218D01*
X98257Y-56218D01*
X98310Y-56226D01*
X98337Y-56235D01*
X98350Y-56244D01*
X98363Y-56261D01*
X98363Y-56278D01*
X98350Y-56295D01*
X98337Y-56304D01*
X98310Y-56312D01*
X98257Y-56321D01*
X98190Y-56321D01*
X98137Y-56312D01*
X98110Y-56304D01*
X98097Y-56295D01*
X98083Y-56278D01*
X92900Y-52862D02*
X92913Y-52836D01*
X92913Y-52793D01*
X92900Y-52776D01*
X92887Y-52767D01*
X92860Y-52759D01*
X92833Y-52759D01*
X92807Y-52767D01*
X92793Y-52776D01*
X92780Y-52793D01*
X92767Y-52827D01*
X92753Y-52845D01*
X92740Y-52853D01*
X92713Y-52862D01*
X92687Y-52862D01*
X92660Y-52853D01*
X92647Y-52845D01*
X92633Y-52827D01*
X92633Y-52785D01*
X92647Y-52759D01*
X92913Y-52682D02*
X92633Y-52682D01*
X92633Y-52614D01*
X92647Y-52596D01*
X92660Y-52588D01*
X92687Y-52579D01*
X92727Y-52579D01*
X92753Y-52588D01*
X92767Y-52596D01*
X92780Y-52614D01*
X92780Y-52682D01*
X92660Y-52511D02*
X92647Y-52502D01*
X92633Y-52485D01*
X92633Y-52442D01*
X92647Y-52425D01*
X92660Y-52416D01*
X92687Y-52408D01*
X92713Y-52408D01*
X92753Y-52416D01*
X92913Y-52519D01*
X92913Y-52408D01*
X92633Y-52297D02*
X92633Y-52280D01*
X92647Y-52263D01*
X92660Y-52254D01*
X92687Y-52245D01*
X92740Y-52237D01*
X92807Y-52237D01*
X92860Y-52245D01*
X92887Y-52254D01*
X92900Y-52263D01*
X92913Y-52280D01*
X92913Y-52297D01*
X92900Y-52314D01*
X92887Y-52323D01*
X92860Y-52331D01*
X92807Y-52340D01*
X92740Y-52340D01*
X92687Y-52331D01*
X92660Y-52323D01*
X92647Y-52314D01*
X92633Y-52297D01*
X75818Y-48013D02*
X75818Y-47733D01*
X75886Y-47733D01*
X75904Y-47747D01*
X75912Y-47760D01*
X75921Y-47787D01*
X75921Y-47827D01*
X75912Y-47853D01*
X75904Y-47867D01*
X75886Y-47880D01*
X75818Y-47880D01*
X76032Y-47733D02*
X76049Y-47733D01*
X76066Y-47747D01*
X76075Y-47760D01*
X76084Y-47787D01*
X76092Y-47840D01*
X76092Y-47907D01*
X76084Y-47960D01*
X76075Y-47987D01*
X76066Y-48000D01*
X76049Y-48013D01*
X76032Y-48013D01*
X76015Y-48000D01*
X76006Y-47987D01*
X75998Y-47960D01*
X75989Y-47907D01*
X75989Y-47840D01*
X75998Y-47787D01*
X76006Y-47760D01*
X76015Y-47747D01*
X76032Y-47733D01*
X101435Y-44813D02*
X101375Y-44680D01*
X101332Y-44813D02*
X101332Y-44533D01*
X101400Y-44533D01*
X101418Y-44547D01*
X101426Y-44560D01*
X101435Y-44587D01*
X101435Y-44627D01*
X101426Y-44653D01*
X101418Y-44667D01*
X101400Y-44680D01*
X101332Y-44680D01*
X101503Y-44560D02*
X101512Y-44547D01*
X101529Y-44533D01*
X101572Y-44533D01*
X101589Y-44547D01*
X101598Y-44560D01*
X101606Y-44587D01*
X101606Y-44613D01*
X101598Y-44653D01*
X101495Y-44813D01*
X101606Y-44813D01*
X101691Y-44813D02*
X101726Y-44813D01*
X101743Y-44800D01*
X101751Y-44787D01*
X101769Y-44747D01*
X101777Y-44693D01*
X101777Y-44587D01*
X101769Y-44560D01*
X101760Y-44547D01*
X101743Y-44533D01*
X101709Y-44533D01*
X101691Y-44547D01*
X101683Y-44560D01*
X101674Y-44587D01*
X101674Y-44653D01*
X101683Y-44680D01*
X101691Y-44693D01*
X101709Y-44707D01*
X101743Y-44707D01*
X101760Y-44693D01*
X101769Y-44680D01*
X101777Y-44653D01*
X94645Y-44763D02*
X94585Y-44630D01*
X94542Y-44763D02*
X94542Y-44483D01*
X94610Y-44483D01*
X94628Y-44497D01*
X94636Y-44510D01*
X94645Y-44537D01*
X94645Y-44577D01*
X94636Y-44603D01*
X94628Y-44617D01*
X94610Y-44630D01*
X94542Y-44630D01*
X94722Y-44763D02*
X94722Y-44483D01*
X94790Y-44483D01*
X94808Y-44497D01*
X94816Y-44510D01*
X94825Y-44537D01*
X94825Y-44577D01*
X94816Y-44603D01*
X94808Y-44617D01*
X94790Y-44630D01*
X94722Y-44630D01*
X94893Y-44510D02*
X94902Y-44497D01*
X94919Y-44483D01*
X94962Y-44483D01*
X94979Y-44497D01*
X94988Y-44510D01*
X94996Y-44537D01*
X94996Y-44563D01*
X94988Y-44603D01*
X94885Y-44763D01*
X94996Y-44763D01*
X95081Y-44763D02*
X95116Y-44763D01*
X95133Y-44750D01*
X95141Y-44737D01*
X95159Y-44697D01*
X95167Y-44643D01*
X95167Y-44537D01*
X95159Y-44510D01*
X95150Y-44497D01*
X95133Y-44483D01*
X95099Y-44483D01*
X95081Y-44497D01*
X95073Y-44510D01*
X95064Y-44537D01*
X95064Y-44603D01*
X95073Y-44630D01*
X95081Y-44643D01*
X95099Y-44657D01*
X95133Y-44657D01*
X95150Y-44643D01*
X95159Y-44630D01*
X95167Y-44603D01*
X92645Y-44763D02*
X92585Y-44630D01*
X92542Y-44763D02*
X92542Y-44483D01*
X92610Y-44483D01*
X92628Y-44497D01*
X92636Y-44510D01*
X92645Y-44537D01*
X92645Y-44577D01*
X92636Y-44603D01*
X92628Y-44617D01*
X92610Y-44630D01*
X92542Y-44630D01*
X92722Y-44763D02*
X92722Y-44483D01*
X92790Y-44483D01*
X92808Y-44497D01*
X92816Y-44510D01*
X92825Y-44537D01*
X92825Y-44577D01*
X92816Y-44603D01*
X92808Y-44617D01*
X92790Y-44630D01*
X92722Y-44630D01*
X92893Y-44510D02*
X92902Y-44497D01*
X92919Y-44483D01*
X92962Y-44483D01*
X92979Y-44497D01*
X92988Y-44510D01*
X92996Y-44537D01*
X92996Y-44563D01*
X92988Y-44603D01*
X92885Y-44763D01*
X92996Y-44763D01*
X93099Y-44603D02*
X93081Y-44590D01*
X93073Y-44577D01*
X93064Y-44550D01*
X93064Y-44537D01*
X93073Y-44510D01*
X93081Y-44497D01*
X93099Y-44483D01*
X93133Y-44483D01*
X93150Y-44497D01*
X93159Y-44510D01*
X93167Y-44537D01*
X93167Y-44550D01*
X93159Y-44577D01*
X93150Y-44590D01*
X93133Y-44603D01*
X93099Y-44603D01*
X93081Y-44617D01*
X93073Y-44630D01*
X93064Y-44657D01*
X93064Y-44710D01*
X93073Y-44737D01*
X93081Y-44750D01*
X93099Y-44763D01*
X93133Y-44763D01*
X93150Y-44750D01*
X93159Y-44737D01*
X93167Y-44710D01*
X93167Y-44657D01*
X93159Y-44630D01*
X93150Y-44617D01*
X93133Y-44603D01*
X90645Y-44763D02*
X90585Y-44630D01*
X90542Y-44763D02*
X90542Y-44483D01*
X90610Y-44483D01*
X90628Y-44497D01*
X90636Y-44510D01*
X90645Y-44537D01*
X90645Y-44577D01*
X90636Y-44603D01*
X90628Y-44617D01*
X90610Y-44630D01*
X90542Y-44630D01*
X90722Y-44763D02*
X90722Y-44483D01*
X90790Y-44483D01*
X90808Y-44497D01*
X90816Y-44510D01*
X90825Y-44537D01*
X90825Y-44577D01*
X90816Y-44603D01*
X90808Y-44617D01*
X90790Y-44630D01*
X90722Y-44630D01*
X90893Y-44510D02*
X90902Y-44497D01*
X90919Y-44483D01*
X90962Y-44483D01*
X90979Y-44497D01*
X90988Y-44510D01*
X90996Y-44537D01*
X90996Y-44563D01*
X90988Y-44603D01*
X90885Y-44763D01*
X90996Y-44763D01*
X91056Y-44483D02*
X91176Y-44483D01*
X91099Y-44763D01*
X89495Y-44963D02*
X89435Y-44830D01*
X89392Y-44963D02*
X89392Y-44683D01*
X89460Y-44683D01*
X89478Y-44697D01*
X89486Y-44710D01*
X89495Y-44737D01*
X89495Y-44777D01*
X89486Y-44803D01*
X89478Y-44817D01*
X89460Y-44830D01*
X89392Y-44830D01*
X89572Y-44963D02*
X89572Y-44683D01*
X89640Y-44683D01*
X89658Y-44697D01*
X89666Y-44710D01*
X89675Y-44737D01*
X89675Y-44777D01*
X89666Y-44803D01*
X89658Y-44817D01*
X89640Y-44830D01*
X89572Y-44830D01*
X89743Y-44710D02*
X89752Y-44697D01*
X89769Y-44683D01*
X89812Y-44683D01*
X89829Y-44697D01*
X89838Y-44710D01*
X89846Y-44737D01*
X89846Y-44763D01*
X89838Y-44803D01*
X89735Y-44963D01*
X89846Y-44963D01*
X90000Y-44683D02*
X89966Y-44683D01*
X89949Y-44697D01*
X89940Y-44710D01*
X89923Y-44750D01*
X89914Y-44803D01*
X89914Y-44910D01*
X89923Y-44937D01*
X89931Y-44950D01*
X89949Y-44963D01*
X89983Y-44963D01*
X90000Y-44950D01*
X90009Y-44937D01*
X90017Y-44910D01*
X90017Y-44843D01*
X90009Y-44817D01*
X90000Y-44803D01*
X89983Y-44790D01*
X89949Y-44790D01*
X89931Y-44803D01*
X89923Y-44817D01*
X89914Y-44843D01*
X87645Y-44963D02*
X87585Y-44830D01*
X87542Y-44963D02*
X87542Y-44683D01*
X87610Y-44683D01*
X87628Y-44697D01*
X87636Y-44710D01*
X87645Y-44737D01*
X87645Y-44777D01*
X87636Y-44803D01*
X87628Y-44817D01*
X87610Y-44830D01*
X87542Y-44830D01*
X87722Y-44963D02*
X87722Y-44683D01*
X87790Y-44683D01*
X87808Y-44697D01*
X87816Y-44710D01*
X87825Y-44737D01*
X87825Y-44777D01*
X87816Y-44803D01*
X87808Y-44817D01*
X87790Y-44830D01*
X87722Y-44830D01*
X87893Y-44710D02*
X87902Y-44697D01*
X87919Y-44683D01*
X87962Y-44683D01*
X87979Y-44697D01*
X87988Y-44710D01*
X87996Y-44737D01*
X87996Y-44763D01*
X87988Y-44803D01*
X87885Y-44963D01*
X87996Y-44963D01*
X88159Y-44683D02*
X88073Y-44683D01*
X88064Y-44817D01*
X88073Y-44803D01*
X88090Y-44790D01*
X88133Y-44790D01*
X88150Y-44803D01*
X88159Y-44817D01*
X88167Y-44843D01*
X88167Y-44910D01*
X88159Y-44937D01*
X88150Y-44950D01*
X88133Y-44963D01*
X88090Y-44963D01*
X88073Y-44950D01*
X88064Y-44937D01*
X85645Y-44963D02*
X85585Y-44830D01*
X85542Y-44963D02*
X85542Y-44683D01*
X85610Y-44683D01*
X85628Y-44697D01*
X85636Y-44710D01*
X85645Y-44737D01*
X85645Y-44777D01*
X85636Y-44803D01*
X85628Y-44817D01*
X85610Y-44830D01*
X85542Y-44830D01*
X85722Y-44963D02*
X85722Y-44683D01*
X85790Y-44683D01*
X85808Y-44697D01*
X85816Y-44710D01*
X85825Y-44737D01*
X85825Y-44777D01*
X85816Y-44803D01*
X85808Y-44817D01*
X85790Y-44830D01*
X85722Y-44830D01*
X85893Y-44710D02*
X85902Y-44697D01*
X85919Y-44683D01*
X85962Y-44683D01*
X85979Y-44697D01*
X85988Y-44710D01*
X85996Y-44737D01*
X85996Y-44763D01*
X85988Y-44803D01*
X85885Y-44963D01*
X85996Y-44963D01*
X86150Y-44777D02*
X86150Y-44963D01*
X86107Y-44670D02*
X86064Y-44870D01*
X86176Y-44870D01*
X84645Y-44763D02*
X84585Y-44630D01*
X84542Y-44763D02*
X84542Y-44483D01*
X84610Y-44483D01*
X84628Y-44497D01*
X84636Y-44510D01*
X84645Y-44537D01*
X84645Y-44577D01*
X84636Y-44603D01*
X84628Y-44617D01*
X84610Y-44630D01*
X84542Y-44630D01*
X84722Y-44763D02*
X84722Y-44483D01*
X84790Y-44483D01*
X84808Y-44497D01*
X84816Y-44510D01*
X84825Y-44537D01*
X84825Y-44577D01*
X84816Y-44603D01*
X84808Y-44617D01*
X84790Y-44630D01*
X84722Y-44630D01*
X84893Y-44510D02*
X84902Y-44497D01*
X84919Y-44483D01*
X84962Y-44483D01*
X84979Y-44497D01*
X84988Y-44510D01*
X84996Y-44537D01*
X84996Y-44563D01*
X84988Y-44603D01*
X84885Y-44763D01*
X84996Y-44763D01*
X85056Y-44483D02*
X85167Y-44483D01*
X85107Y-44590D01*
X85133Y-44590D01*
X85150Y-44603D01*
X85159Y-44617D01*
X85167Y-44643D01*
X85167Y-44710D01*
X85159Y-44737D01*
X85150Y-44750D01*
X85133Y-44763D01*
X85081Y-44763D01*
X85064Y-44750D01*
X85056Y-44737D01*
X81845Y-44963D02*
X81785Y-44830D01*
X81742Y-44963D02*
X81742Y-44683D01*
X81810Y-44683D01*
X81828Y-44697D01*
X81836Y-44710D01*
X81845Y-44737D01*
X81845Y-44777D01*
X81836Y-44803D01*
X81828Y-44817D01*
X81810Y-44830D01*
X81742Y-44830D01*
X81922Y-44963D02*
X81922Y-44683D01*
X81990Y-44683D01*
X82008Y-44697D01*
X82016Y-44710D01*
X82025Y-44737D01*
X82025Y-44777D01*
X82016Y-44803D01*
X82008Y-44817D01*
X81990Y-44830D01*
X81922Y-44830D01*
X82093Y-44710D02*
X82102Y-44697D01*
X82119Y-44683D01*
X82162Y-44683D01*
X82179Y-44697D01*
X82188Y-44710D01*
X82196Y-44737D01*
X82196Y-44763D01*
X82188Y-44803D01*
X82085Y-44963D01*
X82196Y-44963D01*
X82264Y-44710D02*
X82273Y-44697D01*
X82290Y-44683D01*
X82333Y-44683D01*
X82350Y-44697D01*
X82359Y-44710D01*
X82367Y-44737D01*
X82367Y-44763D01*
X82359Y-44803D01*
X82256Y-44963D01*
X82367Y-44963D01*
X80745Y-44963D02*
X80685Y-44830D01*
X80642Y-44963D02*
X80642Y-44683D01*
X80710Y-44683D01*
X80728Y-44697D01*
X80736Y-44710D01*
X80745Y-44737D01*
X80745Y-44777D01*
X80736Y-44803D01*
X80728Y-44817D01*
X80710Y-44830D01*
X80642Y-44830D01*
X80822Y-44963D02*
X80822Y-44683D01*
X80890Y-44683D01*
X80908Y-44697D01*
X80916Y-44710D01*
X80925Y-44737D01*
X80925Y-44777D01*
X80916Y-44803D01*
X80908Y-44817D01*
X80890Y-44830D01*
X80822Y-44830D01*
X80993Y-44710D02*
X81002Y-44697D01*
X81019Y-44683D01*
X81062Y-44683D01*
X81079Y-44697D01*
X81088Y-44710D01*
X81096Y-44737D01*
X81096Y-44763D01*
X81088Y-44803D01*
X80985Y-44963D01*
X81096Y-44963D01*
X81267Y-44963D02*
X81164Y-44963D01*
X81216Y-44963D02*
X81216Y-44683D01*
X81199Y-44723D01*
X81181Y-44750D01*
X81164Y-44763D01*
X78695Y-44963D02*
X78635Y-44830D01*
X78592Y-44963D02*
X78592Y-44683D01*
X78660Y-44683D01*
X78678Y-44697D01*
X78686Y-44710D01*
X78695Y-44737D01*
X78695Y-44777D01*
X78686Y-44803D01*
X78678Y-44817D01*
X78660Y-44830D01*
X78592Y-44830D01*
X78772Y-44963D02*
X78772Y-44683D01*
X78840Y-44683D01*
X78858Y-44697D01*
X78866Y-44710D01*
X78875Y-44737D01*
X78875Y-44777D01*
X78866Y-44803D01*
X78858Y-44817D01*
X78840Y-44830D01*
X78772Y-44830D01*
X78943Y-44710D02*
X78952Y-44697D01*
X78969Y-44683D01*
X79012Y-44683D01*
X79029Y-44697D01*
X79038Y-44710D01*
X79046Y-44737D01*
X79046Y-44763D01*
X79038Y-44803D01*
X78935Y-44963D01*
X79046Y-44963D01*
X79157Y-44683D02*
X79174Y-44683D01*
X79191Y-44697D01*
X79200Y-44710D01*
X79209Y-44737D01*
X79217Y-44790D01*
X79217Y-44857D01*
X79209Y-44910D01*
X79200Y-44937D01*
X79191Y-44950D01*
X79174Y-44963D01*
X79157Y-44963D01*
X79140Y-44950D01*
X79131Y-44937D01*
X79123Y-44910D01*
X79114Y-44857D01*
X79114Y-44790D01*
X79123Y-44737D01*
X79131Y-44710D01*
X79140Y-44697D01*
X79157Y-44683D01*
X97645Y-44963D02*
X97585Y-44830D01*
X97542Y-44963D02*
X97542Y-44683D01*
X97610Y-44683D01*
X97628Y-44697D01*
X97636Y-44710D01*
X97645Y-44737D01*
X97645Y-44777D01*
X97636Y-44803D01*
X97628Y-44817D01*
X97610Y-44830D01*
X97542Y-44830D01*
X97722Y-44963D02*
X97722Y-44683D01*
X97790Y-44683D01*
X97808Y-44697D01*
X97816Y-44710D01*
X97825Y-44737D01*
X97825Y-44777D01*
X97816Y-44803D01*
X97808Y-44817D01*
X97790Y-44830D01*
X97722Y-44830D01*
X97885Y-44683D02*
X97996Y-44683D01*
X97936Y-44790D01*
X97962Y-44790D01*
X97979Y-44803D01*
X97988Y-44817D01*
X97996Y-44843D01*
X97996Y-44910D01*
X97988Y-44937D01*
X97979Y-44950D01*
X97962Y-44963D01*
X97910Y-44963D01*
X97893Y-44950D01*
X97885Y-44937D01*
X98107Y-44683D02*
X98124Y-44683D01*
X98141Y-44697D01*
X98150Y-44710D01*
X98159Y-44737D01*
X98167Y-44790D01*
X98167Y-44857D01*
X98159Y-44910D01*
X98150Y-44937D01*
X98141Y-44950D01*
X98124Y-44963D01*
X98107Y-44963D01*
X98090Y-44950D01*
X98081Y-44937D01*
X98073Y-44910D01*
X98064Y-44857D01*
X98064Y-44790D01*
X98073Y-44737D01*
X98081Y-44710D01*
X98090Y-44697D01*
X98107Y-44683D01*
X98995Y-44163D02*
X98935Y-44030D01*
X98892Y-44163D02*
X98892Y-43883D01*
X98960Y-43883D01*
X98978Y-43897D01*
X98986Y-43910D01*
X98995Y-43937D01*
X98995Y-43977D01*
X98986Y-44003D01*
X98978Y-44017D01*
X98960Y-44030D01*
X98892Y-44030D01*
X99072Y-44163D02*
X99072Y-43883D01*
X99140Y-43883D01*
X99158Y-43897D01*
X99166Y-43910D01*
X99175Y-43937D01*
X99175Y-43977D01*
X99166Y-44003D01*
X99158Y-44017D01*
X99140Y-44030D01*
X99072Y-44030D01*
X99235Y-43883D02*
X99346Y-43883D01*
X99286Y-43990D01*
X99312Y-43990D01*
X99329Y-44003D01*
X99338Y-44017D01*
X99346Y-44043D01*
X99346Y-44110D01*
X99338Y-44137D01*
X99329Y-44150D01*
X99312Y-44163D01*
X99260Y-44163D01*
X99243Y-44150D01*
X99235Y-44137D01*
X99517Y-44163D02*
X99414Y-44163D01*
X99466Y-44163D02*
X99466Y-43883D01*
X99449Y-43923D01*
X99431Y-43950D01*
X99414Y-43963D01*
X89385Y-57363D02*
X89325Y-57230D01*
X89282Y-57363D02*
X89282Y-57083D01*
X89350Y-57083D01*
X89368Y-57097D01*
X89376Y-57110D01*
X89385Y-57137D01*
X89385Y-57177D01*
X89376Y-57203D01*
X89368Y-57217D01*
X89350Y-57230D01*
X89282Y-57230D01*
X89445Y-57083D02*
X89556Y-57083D01*
X89496Y-57190D01*
X89522Y-57190D01*
X89539Y-57203D01*
X89548Y-57217D01*
X89556Y-57243D01*
X89556Y-57310D01*
X89548Y-57337D01*
X89539Y-57350D01*
X89522Y-57363D01*
X89470Y-57363D01*
X89453Y-57350D01*
X89445Y-57337D01*
X89727Y-57363D02*
X89624Y-57363D01*
X89676Y-57363D02*
X89676Y-57083D01*
X89659Y-57123D01*
X89641Y-57150D01*
X89624Y-57163D01*
X75355Y-53033D02*
X75475Y-53313D01*
X75475Y-53033D02*
X75355Y-53313D01*
X75577Y-53033D02*
X75594Y-53033D01*
X75611Y-53047D01*
X75620Y-53060D01*
X75629Y-53087D01*
X75637Y-53140D01*
X75637Y-53207D01*
X75629Y-53260D01*
X75620Y-53287D01*
X75611Y-53300D01*
X75594Y-53313D01*
X75577Y-53313D01*
X75560Y-53300D01*
X75551Y-53287D01*
X75543Y-53260D01*
X75534Y-53207D01*
X75534Y-53140D01*
X75543Y-53087D01*
X75551Y-53060D01*
X75560Y-53047D01*
X75577Y-53033D01*
X81335Y-57087D02*
X81326Y-57100D01*
X81300Y-57113D01*
X81283Y-57113D01*
X81258Y-57100D01*
X81240Y-57073D01*
X81232Y-57047D01*
X81223Y-56993D01*
X81223Y-56953D01*
X81232Y-56900D01*
X81240Y-56873D01*
X81258Y-56847D01*
X81283Y-56833D01*
X81300Y-56833D01*
X81326Y-56847D01*
X81335Y-56860D01*
X81506Y-57113D02*
X81403Y-57113D01*
X81455Y-57113D02*
X81455Y-56833D01*
X81438Y-56873D01*
X81420Y-56900D01*
X81403Y-56913D01*
X81609Y-56953D02*
X81591Y-56940D01*
X81583Y-56927D01*
X81574Y-56900D01*
X81574Y-56887D01*
X81583Y-56860D01*
X81591Y-56847D01*
X81609Y-56833D01*
X81643Y-56833D01*
X81660Y-56847D01*
X81669Y-56860D01*
X81677Y-56887D01*
X81677Y-56900D01*
X81669Y-56927D01*
X81660Y-56940D01*
X81643Y-56953D01*
X81609Y-56953D01*
X81591Y-56967D01*
X81583Y-56980D01*
X81574Y-57007D01*
X81574Y-57060D01*
X81583Y-57087D01*
X81591Y-57100D01*
X81609Y-57113D01*
X81643Y-57113D01*
X81660Y-57100D01*
X81669Y-57087D01*
X81677Y-57060D01*
X81677Y-57007D01*
X81669Y-56980D01*
X81660Y-56967D01*
X81643Y-56953D01*
X84385Y-57337D02*
X84376Y-57350D01*
X84350Y-57363D01*
X84333Y-57363D01*
X84308Y-57350D01*
X84290Y-57323D01*
X84282Y-57297D01*
X84273Y-57243D01*
X84273Y-57203D01*
X84282Y-57150D01*
X84290Y-57123D01*
X84308Y-57097D01*
X84333Y-57083D01*
X84350Y-57083D01*
X84376Y-57097D01*
X84385Y-57110D01*
X84556Y-57363D02*
X84453Y-57363D01*
X84505Y-57363D02*
X84505Y-57083D01*
X84488Y-57123D01*
X84470Y-57150D01*
X84453Y-57163D01*
X84641Y-57363D02*
X84676Y-57363D01*
X84693Y-57350D01*
X84701Y-57337D01*
X84719Y-57297D01*
X84727Y-57243D01*
X84727Y-57137D01*
X84719Y-57110D01*
X84710Y-57097D01*
X84693Y-57083D01*
X84659Y-57083D01*
X84641Y-57097D01*
X84633Y-57110D01*
X84624Y-57137D01*
X84624Y-57203D01*
X84633Y-57230D01*
X84641Y-57243D01*
X84659Y-57257D01*
X84693Y-57257D01*
X84710Y-57243D01*
X84719Y-57230D01*
X84727Y-57203D01*
X80535Y-57113D02*
X80475Y-56980D01*
X80432Y-57113D02*
X80432Y-56833D01*
X80500Y-56833D01*
X80518Y-56847D01*
X80526Y-56860D01*
X80535Y-56887D01*
X80535Y-56927D01*
X80526Y-56953D01*
X80518Y-56967D01*
X80500Y-56980D01*
X80432Y-56980D01*
X80595Y-56833D02*
X80706Y-56833D01*
X80646Y-56940D01*
X80672Y-56940D01*
X80689Y-56953D01*
X80698Y-56967D01*
X80706Y-56993D01*
X80706Y-57060D01*
X80698Y-57087D01*
X80689Y-57100D01*
X80672Y-57113D01*
X80620Y-57113D01*
X80603Y-57100D01*
X80595Y-57087D01*
X80766Y-56833D02*
X80877Y-56833D01*
X80817Y-56940D01*
X80843Y-56940D01*
X80860Y-56953D01*
X80869Y-56967D01*
X80877Y-56993D01*
X80877Y-57060D01*
X80869Y-57087D01*
X80860Y-57100D01*
X80843Y-57113D01*
X80791Y-57113D01*
X80774Y-57100D01*
X80766Y-57087D01*
X79713Y-58215D02*
X79580Y-58275D01*
X79713Y-58318D02*
X79433Y-58318D01*
X79433Y-58250D01*
X79447Y-58232D01*
X79460Y-58224D01*
X79487Y-58215D01*
X79527Y-58215D01*
X79553Y-58224D01*
X79567Y-58232D01*
X79580Y-58250D01*
X79580Y-58318D01*
X79713Y-58130D02*
X79713Y-58095D01*
X79700Y-58078D01*
X79687Y-58070D01*
X79647Y-58052D01*
X79593Y-58044D01*
X79487Y-58044D01*
X79460Y-58052D01*
X79447Y-58061D01*
X79433Y-58078D01*
X79433Y-58112D01*
X79447Y-58130D01*
X79460Y-58138D01*
X79487Y-58147D01*
X79553Y-58147D01*
X79580Y-58138D01*
X79593Y-58130D01*
X79607Y-58112D01*
X79607Y-58078D01*
X79593Y-58061D01*
X79580Y-58052D01*
X79553Y-58044D01*
X79460Y-57976D02*
X79447Y-57967D01*
X79433Y-57950D01*
X79433Y-57907D01*
X79447Y-57890D01*
X79460Y-57881D01*
X79487Y-57873D01*
X79513Y-57873D01*
X79553Y-57881D01*
X79713Y-57984D01*
X79713Y-57873D01*
X87448Y-57340D02*
X87431Y-57327D01*
X87414Y-57300D01*
X87388Y-57260D01*
X87371Y-57247D01*
X87354Y-57247D01*
X87362Y-57313D02*
X87345Y-57300D01*
X87328Y-57273D01*
X87319Y-57220D01*
X87319Y-57127D01*
X87328Y-57073D01*
X87345Y-57047D01*
X87362Y-57033D01*
X87396Y-57033D01*
X87414Y-57047D01*
X87431Y-57073D01*
X87439Y-57127D01*
X87439Y-57220D01*
X87431Y-57273D01*
X87414Y-57300D01*
X87396Y-57313D01*
X87362Y-57313D01*
X87508Y-57060D02*
X87517Y-57047D01*
X87534Y-57033D01*
X87577Y-57033D01*
X87594Y-57047D01*
X87603Y-57060D01*
X87611Y-57087D01*
X87611Y-57113D01*
X87603Y-57153D01*
X87500Y-57313D01*
X87611Y-57313D01*
X87782Y-57313D02*
X87679Y-57313D01*
X87731Y-57313D02*
X87731Y-57033D01*
X87714Y-57073D01*
X87696Y-57100D01*
X87679Y-57113D01*
X85635Y-57363D02*
X85575Y-57230D01*
X85532Y-57363D02*
X85532Y-57083D01*
X85600Y-57083D01*
X85618Y-57097D01*
X85626Y-57110D01*
X85635Y-57137D01*
X85635Y-57177D01*
X85626Y-57203D01*
X85618Y-57217D01*
X85600Y-57230D01*
X85532Y-57230D01*
X85695Y-57083D02*
X85806Y-57083D01*
X85746Y-57190D01*
X85772Y-57190D01*
X85789Y-57203D01*
X85798Y-57217D01*
X85806Y-57243D01*
X85806Y-57310D01*
X85798Y-57337D01*
X85789Y-57350D01*
X85772Y-57363D01*
X85720Y-57363D01*
X85703Y-57350D01*
X85695Y-57337D01*
X85960Y-57083D02*
X85926Y-57083D01*
X85909Y-57097D01*
X85900Y-57110D01*
X85883Y-57150D01*
X85874Y-57203D01*
X85874Y-57310D01*
X85883Y-57337D01*
X85891Y-57350D01*
X85909Y-57363D01*
X85943Y-57363D01*
X85960Y-57350D01*
X85969Y-57337D01*
X85977Y-57310D01*
X85977Y-57243D01*
X85969Y-57217D01*
X85960Y-57203D01*
X85943Y-57190D01*
X85909Y-57190D01*
X85891Y-57203D01*
X85883Y-57217D01*
X85874Y-57243D01*
X77382Y-48613D02*
X77382Y-48333D01*
X77450Y-48333D01*
X77468Y-48347D01*
X77476Y-48360D01*
X77485Y-48387D01*
X77485Y-48427D01*
X77476Y-48453D01*
X77468Y-48467D01*
X77450Y-48480D01*
X77382Y-48480D01*
X77656Y-48613D02*
X77553Y-48613D01*
X77605Y-48613D02*
X77605Y-48333D01*
X77588Y-48373D01*
X77570Y-48400D01*
X77553Y-48413D01*
X77767Y-48333D02*
X77784Y-48333D01*
X77801Y-48347D01*
X77810Y-48360D01*
X77819Y-48387D01*
X77827Y-48440D01*
X77827Y-48507D01*
X77819Y-48560D01*
X77810Y-48587D01*
X77801Y-48600D01*
X77784Y-48613D01*
X77767Y-48613D01*
X77750Y-48600D01*
X77741Y-48587D01*
X77733Y-48560D01*
X77724Y-48507D01*
X77724Y-48440D01*
X77733Y-48387D01*
X77741Y-48360D01*
X77750Y-48347D01*
X77767Y-48333D01*
X98337Y-51865D02*
X98350Y-51874D01*
X98363Y-51900D01*
X98363Y-51917D01*
X98350Y-51942D01*
X98323Y-51960D01*
X98297Y-51968D01*
X98243Y-51977D01*
X98203Y-51977D01*
X98150Y-51968D01*
X98123Y-51960D01*
X98097Y-51942D01*
X98083Y-51917D01*
X98083Y-51900D01*
X98097Y-51874D01*
X98110Y-51865D01*
X98110Y-51797D02*
X98097Y-51788D01*
X98083Y-51771D01*
X98083Y-51728D01*
X98097Y-51711D01*
X98110Y-51702D01*
X98137Y-51694D01*
X98163Y-51694D01*
X98203Y-51702D01*
X98363Y-51805D01*
X98363Y-51694D01*
X98110Y-51626D02*
X98097Y-51617D01*
X98083Y-51600D01*
X98083Y-51557D01*
X98097Y-51540D01*
X98110Y-51531D01*
X98137Y-51523D01*
X98163Y-51523D01*
X98203Y-51531D01*
X98363Y-51634D01*
X98363Y-51523D01*
X81835Y-57413D02*
X81775Y-57280D01*
X81732Y-57413D02*
X81732Y-57133D01*
X81800Y-57133D01*
X81818Y-57147D01*
X81826Y-57160D01*
X81835Y-57187D01*
X81835Y-57227D01*
X81826Y-57253D01*
X81818Y-57267D01*
X81800Y-57280D01*
X81732Y-57280D01*
X81895Y-57133D02*
X82006Y-57133D01*
X81946Y-57240D01*
X81972Y-57240D01*
X81989Y-57253D01*
X81998Y-57267D01*
X82006Y-57293D01*
X82006Y-57360D01*
X81998Y-57387D01*
X81989Y-57400D01*
X81972Y-57413D01*
X81920Y-57413D01*
X81903Y-57400D01*
X81895Y-57387D01*
X82074Y-57160D02*
X82083Y-57147D01*
X82100Y-57133D01*
X82143Y-57133D01*
X82160Y-57147D01*
X82169Y-57160D01*
X82177Y-57187D01*
X82177Y-57213D01*
X82169Y-57253D01*
X82066Y-57413D01*
X82177Y-57413D01*
X91985Y-55587D02*
X91976Y-55600D01*
X91950Y-55613D01*
X91933Y-55613D01*
X91908Y-55600D01*
X91890Y-55573D01*
X91882Y-55547D01*
X91873Y-55493D01*
X91873Y-55453D01*
X91882Y-55400D01*
X91890Y-55373D01*
X91908Y-55347D01*
X91933Y-55333D01*
X91950Y-55333D01*
X91976Y-55347D01*
X91985Y-55360D01*
X92053Y-55360D02*
X92062Y-55347D01*
X92079Y-55333D01*
X92122Y-55333D01*
X92139Y-55347D01*
X92148Y-55360D01*
X92156Y-55387D01*
X92156Y-55413D01*
X92148Y-55453D01*
X92045Y-55613D01*
X92156Y-55613D01*
X92267Y-55333D02*
X92284Y-55333D01*
X92301Y-55347D01*
X92310Y-55360D01*
X92319Y-55387D01*
X92327Y-55440D01*
X92327Y-55507D01*
X92319Y-55560D01*
X92310Y-55587D01*
X92301Y-55600D01*
X92284Y-55613D01*
X92267Y-55613D01*
X92250Y-55600D01*
X92241Y-55587D01*
X92233Y-55560D01*
X92224Y-55507D01*
X92224Y-55440D01*
X92233Y-55387D01*
X92241Y-55360D01*
X92250Y-55347D01*
X92267Y-55333D01*
X100785Y-56063D02*
X100725Y-55930D01*
X100682Y-56063D02*
X100682Y-55783D01*
X100750Y-55783D01*
X100768Y-55797D01*
X100776Y-55810D01*
X100785Y-55837D01*
X100785Y-55877D01*
X100776Y-55903D01*
X100768Y-55917D01*
X100750Y-55930D01*
X100682Y-55930D01*
X100845Y-55783D02*
X100956Y-55783D01*
X100896Y-55890D01*
X100922Y-55890D01*
X100939Y-55903D01*
X100948Y-55917D01*
X100956Y-55943D01*
X100956Y-56010D01*
X100948Y-56037D01*
X100939Y-56050D01*
X100922Y-56063D01*
X100870Y-56063D01*
X100853Y-56050D01*
X100845Y-56037D01*
X101016Y-55783D02*
X101136Y-55783D01*
X101059Y-56063D01*
X86385Y-57363D02*
X86325Y-57230D01*
X86282Y-57363D02*
X86282Y-57083D01*
X86350Y-57083D01*
X86368Y-57097D01*
X86376Y-57110D01*
X86385Y-57137D01*
X86385Y-57177D01*
X86376Y-57203D01*
X86368Y-57217D01*
X86350Y-57230D01*
X86282Y-57230D01*
X86445Y-57083D02*
X86556Y-57083D01*
X86496Y-57190D01*
X86522Y-57190D01*
X86539Y-57203D01*
X86548Y-57217D01*
X86556Y-57243D01*
X86556Y-57310D01*
X86548Y-57337D01*
X86539Y-57350D01*
X86522Y-57363D01*
X86470Y-57363D01*
X86453Y-57350D01*
X86445Y-57337D01*
X86659Y-57203D02*
X86641Y-57190D01*
X86633Y-57177D01*
X86624Y-57150D01*
X86624Y-57137D01*
X86633Y-57110D01*
X86641Y-57097D01*
X86659Y-57083D01*
X86693Y-57083D01*
X86710Y-57097D01*
X86719Y-57110D01*
X86727Y-57137D01*
X86727Y-57150D01*
X86719Y-57177D01*
X86710Y-57190D01*
X86693Y-57203D01*
X86659Y-57203D01*
X86641Y-57217D01*
X86633Y-57230D01*
X86624Y-57257D01*
X86624Y-57310D01*
X86633Y-57337D01*
X86641Y-57350D01*
X86659Y-57363D01*
X86693Y-57363D01*
X86710Y-57350D01*
X86719Y-57337D01*
X86727Y-57310D01*
X86727Y-57257D01*
X86719Y-57230D01*
X86710Y-57217D01*
X86693Y-57203D01*
X99085Y-45113D02*
X99025Y-44980D01*
X98982Y-45113D02*
X98982Y-44833D01*
X99050Y-44833D01*
X99068Y-44847D01*
X99076Y-44860D01*
X99085Y-44887D01*
X99085Y-44927D01*
X99076Y-44953D01*
X99068Y-44967D01*
X99050Y-44980D01*
X98982Y-44980D01*
X99145Y-44833D02*
X99256Y-44833D01*
X99196Y-44940D01*
X99222Y-44940D01*
X99239Y-44953D01*
X99248Y-44967D01*
X99256Y-44993D01*
X99256Y-45060D01*
X99248Y-45087D01*
X99239Y-45100D01*
X99222Y-45113D01*
X99170Y-45113D01*
X99153Y-45100D01*
X99145Y-45087D01*
X99341Y-45113D02*
X99376Y-45113D01*
X99393Y-45100D01*
X99401Y-45087D01*
X99419Y-45047D01*
X99427Y-44993D01*
X99427Y-44887D01*
X99419Y-44860D01*
X99410Y-44847D01*
X99393Y-44833D01*
X99359Y-44833D01*
X99341Y-44847D01*
X99333Y-44860D01*
X99324Y-44887D01*
X99324Y-44953D01*
X99333Y-44980D01*
X99341Y-44993D01*
X99359Y-45007D01*
X99393Y-45007D01*
X99410Y-44993D01*
X99419Y-44980D01*
X99427Y-44953D01*
X94563Y-51615D02*
X94430Y-51675D01*
X94563Y-51718D02*
X94283Y-51718D01*
X94283Y-51650D01*
X94297Y-51632D01*
X94310Y-51624D01*
X94337Y-51615D01*
X94377Y-51615D01*
X94403Y-51624D01*
X94417Y-51632D01*
X94430Y-51650D01*
X94430Y-51718D01*
X94377Y-51461D02*
X94563Y-51461D01*
X94270Y-51504D02*
X94470Y-51547D01*
X94470Y-51435D01*
X94283Y-51333D02*
X94283Y-51316D01*
X94297Y-51299D01*
X94310Y-51290D01*
X94337Y-51281D01*
X94390Y-51273D01*
X94457Y-51273D01*
X94510Y-51281D01*
X94537Y-51290D01*
X94550Y-51299D01*
X94563Y-51316D01*
X94563Y-51333D01*
X94550Y-51350D01*
X94537Y-51359D01*
X94510Y-51367D01*
X94457Y-51376D01*
X94390Y-51376D01*
X94337Y-51367D01*
X94310Y-51359D01*
X94297Y-51350D01*
X94283Y-51333D01*
M02*
