G04 (created by PCBNEW-RS274X (2012-01-19 BZR 3256)-stable) date 22/03/2013 00:28:45*
G01*
G70*
G90*
%MOIN*%
G04 Gerber Fmt 3.4, Leading zero omitted, Abs format*
%FSLAX34Y34*%
G04 APERTURE LIST*
%ADD10C,0.006000*%
%ADD11R,0.011800X0.057200*%
%ADD12R,0.057200X0.011800*%
%ADD13R,0.078700X0.007800*%
%ADD14R,0.060000X0.010000*%
%ADD15R,0.010000X0.060000*%
%ADD16R,0.070000X0.110000*%
%ADD17R,0.045000X0.055000*%
%ADD18R,0.035000X0.045000*%
%ADD19R,0.045000X0.035000*%
%ADD20R,0.035000X0.055000*%
%ADD21C,0.060000*%
%ADD22R,0.060000X0.060000*%
%ADD23R,0.055000X0.055000*%
%ADD24C,0.055000*%
%ADD25R,0.036000X0.036000*%
%ADD26R,0.078700X0.157500*%
%ADD27R,0.063000X0.055100*%
%ADD28R,0.092500X0.019700*%
%ADD29R,0.025600X0.035600*%
%ADD30R,0.019700X0.035600*%
%ADD31R,0.080000X0.040000*%
%ADD32C,0.025000*%
%ADD33C,0.020000*%
%ADD34C,0.008000*%
%ADD35C,0.010000*%
G04 APERTURE END LIST*
G54D10*
G54D11*
X83689Y-50377D03*
X83492Y-50377D03*
X83295Y-50377D03*
X83098Y-50377D03*
X82902Y-50377D03*
X82705Y-50377D03*
X83886Y-50377D03*
X84083Y-50377D03*
G54D12*
X84723Y-51017D03*
X84723Y-51214D03*
X84723Y-51411D03*
G54D11*
X82705Y-53823D03*
X82508Y-53823D03*
X82311Y-53823D03*
X82114Y-53823D03*
X81917Y-53823D03*
G54D12*
X81277Y-53183D03*
G54D11*
X82902Y-53823D03*
X83098Y-53823D03*
X83295Y-53823D03*
X83492Y-53823D03*
X83689Y-53823D03*
G54D12*
X81277Y-52002D03*
X84723Y-52592D03*
X81277Y-52198D03*
X84723Y-52789D03*
X84723Y-52986D03*
X81277Y-52395D03*
X81277Y-52592D03*
X84723Y-53183D03*
G54D11*
X84083Y-53823D03*
G54D12*
X81277Y-52789D03*
X81277Y-52986D03*
G54D11*
X83886Y-53823D03*
G54D12*
X84723Y-52395D03*
X81277Y-51805D03*
X81277Y-51608D03*
X84723Y-52198D03*
X84723Y-52002D03*
X81277Y-51411D03*
X81277Y-51214D03*
X84723Y-51805D03*
X84723Y-51608D03*
X81277Y-51017D03*
G54D11*
X82508Y-50377D03*
X82311Y-50377D03*
X82114Y-50377D03*
X81917Y-50377D03*
G54D13*
X97587Y-49620D03*
X97587Y-49423D03*
X97587Y-49226D03*
X97587Y-49030D03*
X97587Y-48833D03*
X97587Y-48636D03*
X97587Y-48439D03*
X97587Y-48242D03*
X97587Y-48045D03*
X97587Y-47848D03*
X97587Y-47652D03*
X97587Y-47455D03*
X97587Y-47258D03*
X97587Y-47061D03*
X97587Y-46864D03*
X97587Y-46667D03*
X97587Y-46470D03*
X97587Y-46274D03*
X97587Y-46077D03*
X97587Y-45880D03*
X97587Y-45683D03*
X97587Y-45486D03*
X97587Y-45289D03*
X97587Y-45093D03*
X89713Y-45093D03*
X89713Y-45289D03*
X89713Y-45486D03*
X89713Y-45683D03*
X89713Y-45880D03*
X89713Y-46077D03*
X89713Y-46274D03*
X89713Y-46470D03*
X89713Y-46667D03*
X89713Y-46864D03*
X89713Y-47061D03*
X89713Y-47258D03*
X89713Y-47455D03*
X89713Y-47652D03*
X89713Y-47848D03*
X89713Y-48045D03*
X89713Y-48242D03*
X89713Y-48439D03*
X89713Y-48636D03*
X89713Y-48833D03*
X89713Y-49030D03*
X89713Y-49226D03*
X89713Y-49423D03*
X89713Y-49620D03*
X89713Y-49817D03*
X89713Y-50014D03*
X89713Y-50211D03*
X89713Y-50407D03*
X97587Y-49817D03*
X97587Y-50014D03*
X97587Y-50211D03*
X97587Y-50407D03*
G54D14*
X78675Y-48655D03*
X78675Y-48855D03*
X78675Y-49050D03*
X78675Y-49245D03*
X78675Y-49445D03*
X78675Y-49640D03*
X78675Y-49835D03*
X78675Y-50035D03*
X78675Y-50230D03*
X78675Y-50425D03*
X78675Y-50625D03*
X78675Y-50820D03*
X78675Y-51015D03*
X78675Y-51215D03*
X78675Y-51410D03*
X78675Y-51605D03*
X78675Y-51805D03*
X78675Y-52000D03*
X78675Y-52200D03*
X78675Y-52395D03*
X78675Y-52595D03*
X78675Y-52790D03*
X78675Y-52985D03*
X78675Y-53185D03*
X78675Y-53380D03*
X78675Y-53575D03*
X78675Y-53775D03*
X78675Y-53970D03*
X78675Y-54165D03*
X78675Y-54365D03*
X78675Y-54560D03*
X78675Y-54755D03*
X78675Y-54955D03*
X78675Y-55150D03*
X78675Y-55345D03*
X78675Y-55545D03*
G54D15*
X85265Y-56425D03*
X85460Y-56425D03*
X85655Y-56425D03*
X85855Y-56425D03*
X86050Y-56425D03*
X86245Y-56425D03*
X86445Y-56425D03*
X85460Y-47775D03*
X85265Y-47775D03*
X85065Y-47775D03*
X84870Y-47775D03*
X84675Y-47775D03*
X84475Y-47775D03*
X84280Y-47775D03*
X84085Y-47775D03*
X83885Y-47775D03*
X83690Y-47775D03*
X83495Y-47775D03*
X83295Y-47775D03*
X83100Y-47775D03*
X82900Y-47775D03*
X82705Y-47775D03*
X82505Y-47775D03*
X82310Y-47775D03*
X82115Y-47775D03*
X81915Y-47775D03*
X81720Y-47775D03*
X81525Y-47775D03*
X81325Y-47775D03*
X81130Y-47775D03*
X80935Y-47775D03*
X80735Y-47775D03*
X80540Y-47775D03*
X80345Y-47775D03*
X80145Y-47775D03*
X79950Y-47775D03*
X79755Y-47775D03*
X79555Y-47775D03*
X79555Y-56425D03*
X79755Y-56425D03*
X79950Y-56425D03*
X80145Y-56425D03*
X80345Y-56425D03*
X80540Y-56425D03*
X80735Y-56425D03*
X80935Y-56425D03*
X81130Y-56425D03*
X81325Y-56425D03*
X81525Y-56425D03*
X81720Y-56425D03*
X81915Y-56425D03*
X82115Y-56425D03*
X82310Y-56425D03*
X82505Y-56425D03*
X82705Y-56425D03*
X82900Y-56425D03*
X83100Y-56425D03*
X83295Y-56425D03*
X83495Y-56425D03*
X83690Y-56425D03*
X83885Y-56425D03*
X84085Y-56425D03*
X84280Y-56425D03*
X84475Y-56425D03*
X84675Y-56425D03*
X84870Y-56425D03*
X85065Y-56425D03*
G54D14*
X87325Y-54560D03*
X87325Y-54365D03*
X87325Y-54165D03*
X87325Y-53970D03*
X87325Y-53775D03*
X87325Y-53575D03*
X87325Y-53380D03*
X87325Y-53185D03*
X87325Y-52985D03*
X87325Y-52790D03*
X87325Y-52595D03*
X87325Y-52395D03*
X87325Y-52200D03*
X87325Y-52000D03*
X87325Y-51805D03*
X87325Y-51605D03*
X87325Y-51410D03*
X87325Y-51215D03*
X87325Y-51015D03*
X87325Y-50820D03*
X87325Y-50625D03*
X87325Y-50425D03*
X87325Y-50230D03*
X87325Y-50035D03*
X87325Y-49835D03*
X87325Y-49640D03*
X87325Y-49445D03*
X87325Y-49245D03*
X87325Y-49050D03*
X87325Y-48855D03*
X87325Y-48655D03*
X87325Y-55545D03*
X87325Y-55345D03*
X87325Y-55150D03*
X87325Y-54955D03*
X87325Y-54755D03*
G54D15*
X86445Y-47775D03*
X86245Y-47775D03*
X86050Y-47775D03*
X85855Y-47775D03*
X85655Y-47775D03*
G54D16*
X74800Y-46000D03*
X76200Y-46000D03*
X76200Y-44450D03*
X74800Y-44450D03*
G54D17*
X75525Y-47200D03*
X74675Y-47200D03*
G54D18*
X100750Y-47450D03*
X100050Y-47450D03*
G54D19*
X88650Y-50950D03*
X88650Y-51650D03*
G54D18*
X76950Y-55200D03*
X77650Y-55200D03*
X77650Y-55900D03*
X76950Y-55900D03*
X77650Y-56600D03*
X76950Y-56600D03*
G54D19*
X78400Y-56450D03*
X78400Y-57150D03*
G54D18*
X79400Y-46950D03*
X80100Y-46950D03*
X97050Y-51000D03*
X97750Y-51000D03*
X100750Y-54450D03*
X100050Y-54450D03*
X76950Y-54500D03*
X77650Y-54500D03*
X100750Y-46450D03*
X100050Y-46450D03*
X100750Y-53450D03*
X100050Y-53450D03*
X100750Y-48450D03*
X100050Y-48450D03*
X100750Y-49450D03*
X100050Y-49450D03*
X100750Y-51450D03*
X100050Y-51450D03*
X100750Y-52450D03*
X100050Y-52450D03*
X100750Y-50450D03*
X100050Y-50450D03*
X87200Y-56450D03*
X87900Y-56450D03*
G54D19*
X79050Y-57150D03*
X79050Y-56450D03*
G54D18*
X77650Y-52900D03*
X76950Y-52900D03*
X77650Y-53700D03*
X76950Y-53700D03*
G54D20*
X99475Y-46450D03*
X98725Y-46450D03*
X99475Y-47450D03*
X98725Y-47450D03*
X99475Y-48450D03*
X98725Y-48450D03*
X99475Y-49450D03*
X98725Y-49450D03*
X99475Y-51450D03*
X98725Y-51450D03*
X99475Y-50450D03*
X98725Y-50450D03*
X99475Y-52450D03*
X98725Y-52450D03*
X99475Y-53450D03*
X98725Y-53450D03*
X99475Y-54450D03*
X98725Y-54450D03*
G54D19*
X78750Y-47600D03*
X78750Y-46900D03*
G54D18*
X100750Y-45500D03*
X100050Y-45500D03*
G54D21*
X102500Y-45450D03*
X101500Y-46450D03*
G54D22*
X101500Y-45450D03*
G54D21*
X102500Y-46450D03*
X101500Y-47450D03*
X102500Y-47450D03*
X101500Y-48450D03*
X102500Y-48450D03*
X101500Y-49450D03*
X102500Y-49450D03*
X101500Y-50450D03*
X102500Y-50450D03*
X101500Y-51450D03*
X102500Y-51450D03*
X101500Y-52450D03*
X102500Y-52450D03*
X101500Y-53450D03*
X102500Y-53450D03*
X101500Y-54450D03*
X102500Y-54450D03*
G54D19*
X89350Y-50950D03*
X89350Y-51650D03*
X95650Y-51850D03*
X95650Y-51150D03*
G54D18*
X98750Y-57500D03*
X99450Y-57500D03*
X99450Y-55400D03*
X98750Y-55400D03*
G54D19*
X101350Y-43500D03*
X101350Y-44200D03*
G54D21*
X100257Y-56100D03*
X102343Y-56100D03*
G54D23*
X74900Y-55000D03*
G54D24*
X75900Y-55000D03*
G54D23*
X74900Y-52700D03*
G54D24*
X75900Y-52700D03*
G54D23*
X78400Y-57700D03*
G54D24*
X77400Y-57700D03*
G54D25*
X99500Y-56100D03*
X99500Y-56800D03*
X98700Y-56450D03*
G54D26*
X93000Y-54650D03*
X97800Y-54650D03*
G54D27*
X74435Y-48060D03*
X76600Y-48060D03*
X74435Y-51840D03*
X76600Y-51840D03*
G54D28*
X77230Y-49320D03*
X77230Y-49635D03*
X77230Y-49950D03*
X77230Y-50265D03*
X77230Y-50580D03*
G54D22*
X77350Y-42500D03*
G54D21*
X77350Y-41500D03*
X78350Y-42500D03*
X78350Y-41500D03*
X79350Y-42500D03*
X79350Y-41500D03*
X80350Y-42500D03*
X80350Y-41500D03*
X81350Y-42500D03*
X81350Y-41500D03*
X82350Y-42500D03*
X82350Y-41500D03*
X83350Y-42500D03*
X83350Y-41500D03*
X84350Y-42500D03*
X84350Y-41500D03*
X85350Y-42500D03*
X85350Y-41500D03*
X86350Y-42500D03*
X86350Y-41500D03*
X87350Y-42500D03*
X87350Y-41500D03*
X88350Y-42500D03*
X88350Y-41500D03*
X89350Y-42500D03*
X89350Y-41500D03*
X90350Y-42500D03*
X90350Y-41500D03*
X91350Y-42500D03*
X91350Y-41500D03*
X92350Y-42500D03*
X92350Y-41500D03*
X93350Y-42500D03*
X93350Y-41500D03*
X94350Y-42500D03*
X94350Y-41500D03*
X95350Y-42500D03*
X95350Y-41500D03*
X96350Y-42500D03*
X96350Y-41500D03*
X97350Y-42500D03*
X97350Y-41500D03*
X98350Y-42500D03*
X98350Y-41500D03*
X99350Y-42500D03*
X99350Y-41500D03*
X100350Y-42500D03*
X100350Y-41500D03*
X101350Y-42500D03*
X101350Y-41500D03*
X102350Y-42500D03*
X102350Y-41500D03*
G54D19*
X102050Y-44200D03*
X102050Y-43500D03*
G54D29*
X96352Y-44149D03*
G54D30*
X96007Y-44149D03*
X95693Y-44149D03*
G54D29*
X95348Y-44149D03*
X95348Y-43451D03*
G54D30*
X95693Y-43451D03*
X96007Y-43451D03*
G54D29*
X96352Y-43451D03*
X94352Y-44149D03*
G54D30*
X94007Y-44149D03*
X93693Y-44149D03*
G54D29*
X93348Y-44149D03*
X93348Y-43451D03*
G54D30*
X93693Y-43451D03*
X94007Y-43451D03*
G54D29*
X94352Y-43451D03*
X92352Y-44149D03*
G54D30*
X92007Y-44149D03*
X91693Y-44149D03*
G54D29*
X91348Y-44149D03*
X91348Y-43451D03*
G54D30*
X91693Y-43451D03*
X92007Y-43451D03*
G54D29*
X92352Y-43451D03*
X90352Y-44149D03*
G54D30*
X90007Y-44149D03*
X89693Y-44149D03*
G54D29*
X89348Y-44149D03*
X89348Y-43451D03*
G54D30*
X89693Y-43451D03*
X90007Y-43451D03*
G54D29*
X90352Y-43451D03*
X88352Y-44149D03*
G54D30*
X88007Y-44149D03*
X87693Y-44149D03*
G54D29*
X87348Y-44149D03*
X87348Y-43451D03*
G54D30*
X87693Y-43451D03*
X88007Y-43451D03*
G54D29*
X88352Y-43451D03*
X86352Y-44149D03*
G54D30*
X86007Y-44149D03*
X85693Y-44149D03*
G54D29*
X85348Y-44149D03*
X85348Y-43451D03*
G54D30*
X85693Y-43451D03*
X86007Y-43451D03*
G54D29*
X86352Y-43451D03*
X84352Y-44149D03*
G54D30*
X84007Y-44149D03*
X83693Y-44149D03*
G54D29*
X83348Y-44149D03*
X83348Y-43451D03*
G54D30*
X83693Y-43451D03*
X84007Y-43451D03*
G54D29*
X84352Y-43451D03*
X82902Y-44149D03*
G54D30*
X82557Y-44149D03*
X82243Y-44149D03*
G54D29*
X81898Y-44149D03*
X81898Y-43451D03*
G54D30*
X82243Y-43451D03*
X82557Y-43451D03*
G54D29*
X82902Y-43451D03*
X81452Y-44149D03*
G54D30*
X81107Y-44149D03*
X80793Y-44149D03*
G54D29*
X80448Y-44149D03*
X80448Y-43451D03*
G54D30*
X80793Y-43451D03*
X81107Y-43451D03*
G54D29*
X81452Y-43451D03*
X79402Y-44149D03*
G54D30*
X79057Y-44149D03*
X78743Y-44149D03*
G54D29*
X78398Y-44149D03*
X78398Y-43451D03*
G54D30*
X78743Y-43451D03*
X79057Y-43451D03*
G54D29*
X79402Y-43451D03*
X98352Y-44149D03*
G54D30*
X98007Y-44149D03*
X97693Y-44149D03*
G54D29*
X97348Y-44149D03*
X97348Y-43451D03*
G54D30*
X97693Y-43451D03*
X98007Y-43451D03*
G54D29*
X98352Y-43451D03*
X100752Y-44149D03*
G54D30*
X100407Y-44149D03*
X100093Y-44149D03*
G54D29*
X99748Y-44149D03*
X99748Y-43451D03*
G54D30*
X100093Y-43451D03*
X100407Y-43451D03*
G54D29*
X100752Y-43451D03*
G54D16*
X90200Y-58050D03*
X88800Y-58050D03*
G54D21*
X100257Y-57800D03*
X102343Y-57800D03*
G54D31*
X74900Y-54300D03*
X76100Y-54300D03*
X76100Y-53700D03*
X74900Y-53700D03*
G54D19*
X81450Y-58450D03*
X81450Y-57750D03*
X84500Y-57700D03*
X84500Y-58400D03*
X80650Y-57750D03*
X80650Y-58450D03*
X79050Y-57750D03*
X79050Y-58450D03*
G54D25*
X87900Y-58450D03*
X87200Y-58450D03*
X87550Y-57650D03*
G54D19*
X85750Y-58400D03*
X85750Y-57700D03*
G54D22*
X77600Y-47700D03*
G54D21*
X77600Y-46700D03*
X77600Y-45700D03*
X77600Y-44700D03*
X77600Y-43700D03*
G54D18*
X97750Y-51750D03*
X97050Y-51750D03*
G54D19*
X97100Y-58250D03*
X97100Y-57550D03*
X96350Y-57550D03*
X96350Y-58250D03*
X95650Y-57550D03*
X95650Y-58250D03*
X94950Y-57550D03*
X94950Y-58250D03*
X94250Y-57550D03*
X94250Y-58250D03*
X93550Y-58250D03*
X93550Y-57550D03*
X92800Y-57550D03*
X92800Y-58250D03*
X92050Y-57550D03*
X92050Y-58250D03*
X91350Y-57550D03*
X91350Y-58250D03*
X97800Y-58250D03*
X97800Y-57550D03*
X82250Y-58450D03*
X82250Y-57750D03*
X92100Y-54300D03*
X92100Y-55000D03*
G54D18*
X100750Y-55400D03*
X100050Y-55400D03*
G54D19*
X86500Y-58400D03*
X86500Y-57700D03*
G54D18*
X99450Y-45500D03*
X98750Y-45500D03*
G54D19*
X94950Y-51850D03*
X94950Y-51150D03*
G54D32*
X75050Y-47650D03*
X85300Y-57600D03*
X80700Y-57300D03*
X81050Y-57300D03*
X98250Y-57350D03*
X99400Y-54950D03*
X95450Y-50550D03*
X88950Y-50550D03*
X95800Y-50700D03*
X99100Y-53950D03*
X88600Y-50550D03*
X96800Y-50400D03*
X78350Y-44500D03*
X79200Y-50350D03*
X79500Y-50550D03*
X78700Y-44500D03*
X83150Y-55400D03*
X82550Y-44500D03*
X83500Y-55400D03*
X82900Y-44500D03*
X83300Y-44500D03*
X91150Y-47050D03*
X91500Y-46700D03*
X83650Y-44500D03*
X84000Y-44500D03*
X90900Y-46800D03*
X91500Y-46350D03*
X90650Y-46550D03*
X84350Y-44500D03*
X91500Y-46000D03*
X84950Y-44000D03*
X88950Y-43550D03*
X92400Y-48150D03*
X85650Y-44500D03*
X89050Y-48550D03*
X89050Y-48200D03*
X86000Y-44500D03*
X92150Y-47900D03*
X86350Y-44500D03*
X78150Y-48850D03*
X88900Y-47150D03*
X79800Y-50750D03*
X79050Y-44500D03*
X79250Y-48800D03*
X89050Y-47450D03*
X87300Y-44500D03*
X87650Y-44500D03*
X79300Y-49150D03*
X89100Y-47850D03*
X88000Y-44500D03*
X79300Y-49500D03*
X88700Y-43800D03*
X79000Y-48350D03*
X89300Y-44500D03*
X82700Y-47300D03*
X82500Y-48250D03*
X96850Y-44500D03*
X89650Y-44500D03*
X79400Y-44500D03*
X79800Y-51100D03*
X79500Y-51300D03*
X80400Y-44500D03*
X79200Y-51500D03*
X80750Y-44500D03*
X82100Y-55750D03*
X81100Y-44500D03*
X81450Y-44500D03*
X82450Y-55750D03*
X82800Y-55750D03*
X81850Y-44500D03*
X82200Y-44500D03*
X82800Y-55400D03*
X84900Y-47300D03*
X98350Y-44500D03*
X96750Y-49150D03*
X90000Y-44500D03*
X92250Y-46250D03*
X86000Y-54350D03*
X96500Y-48900D03*
X92000Y-46000D03*
X90350Y-44500D03*
X85750Y-54100D03*
X94050Y-47750D03*
X98250Y-48250D03*
X95300Y-44500D03*
X93800Y-47500D03*
X88300Y-56300D03*
X85300Y-55900D03*
X98250Y-47900D03*
X95650Y-44500D03*
X93550Y-47050D03*
X98250Y-47200D03*
X85600Y-55750D03*
X96000Y-44500D03*
X87850Y-55950D03*
X93300Y-46800D03*
X96350Y-44500D03*
X98250Y-46850D03*
X93050Y-46550D03*
X98250Y-46500D03*
X97300Y-44500D03*
X98250Y-46150D03*
X92800Y-46300D03*
X97650Y-44500D03*
X96750Y-48550D03*
X91300Y-44500D03*
X87100Y-47750D03*
X91650Y-44500D03*
X85250Y-47300D03*
X96500Y-48300D03*
X95700Y-47250D03*
X92000Y-44500D03*
X83850Y-55500D03*
X92350Y-44500D03*
X96050Y-47200D03*
X84050Y-55800D03*
X93300Y-44500D03*
X84050Y-56900D03*
X96300Y-46950D03*
X96550Y-46700D03*
X84950Y-55900D03*
X93650Y-44500D03*
X94550Y-48250D03*
X94000Y-44500D03*
X98250Y-48950D03*
X94300Y-48000D03*
X94350Y-44500D03*
X98250Y-48600D03*
X101200Y-44600D03*
X84200Y-48750D03*
X83950Y-49000D03*
X101900Y-44600D03*
X84200Y-49250D03*
X96500Y-49800D03*
X82350Y-57250D03*
X82900Y-48250D03*
X80650Y-53850D03*
X98750Y-44550D03*
X80650Y-48950D03*
X98500Y-44800D03*
X96550Y-49450D03*
X84750Y-48300D03*
X99250Y-44350D03*
X80650Y-49300D03*
X83950Y-48500D03*
X90350Y-48400D03*
X98750Y-45050D03*
X90350Y-47300D03*
X98000Y-44500D03*
X84500Y-47300D03*
X80000Y-57400D03*
X99500Y-43000D03*
X79700Y-57000D03*
X88500Y-55600D03*
X99100Y-49950D03*
X83350Y-51100D03*
X82550Y-51700D03*
X83700Y-49500D03*
X82550Y-51350D03*
X88650Y-55300D03*
X99400Y-46950D03*
X86800Y-50750D03*
X88250Y-55300D03*
X99100Y-51950D03*
X84750Y-54900D03*
X87900Y-50550D03*
X99050Y-46950D03*
X96500Y-50150D03*
X86750Y-47700D03*
X98250Y-49300D03*
X82950Y-49800D03*
X99100Y-47950D03*
X99100Y-52950D03*
X87850Y-55600D03*
X83700Y-51100D03*
X82550Y-52050D03*
X87900Y-51100D03*
X96100Y-51400D03*
X88200Y-50900D03*
X96400Y-51250D03*
X80350Y-57400D03*
X87450Y-48350D03*
X85550Y-50300D03*
X81400Y-57300D03*
X99950Y-50000D03*
X96150Y-50650D03*
X83300Y-49850D03*
X88250Y-50550D03*
X99100Y-50950D03*
X96600Y-50950D03*
X82850Y-54550D03*
X99100Y-48950D03*
X77950Y-51200D03*
X83900Y-51750D03*
X78000Y-50800D03*
X84150Y-51500D03*
X78100Y-49800D03*
X84250Y-48250D03*
X94700Y-58600D03*
X86300Y-51600D03*
X83500Y-57150D03*
X79100Y-55900D03*
X76450Y-54750D03*
X98700Y-47950D03*
X79850Y-55900D03*
X81800Y-55900D03*
X78000Y-54500D03*
X77600Y-51200D03*
X88250Y-53500D03*
X82250Y-51550D03*
X87500Y-56000D03*
X78750Y-46500D03*
X84500Y-50600D03*
X94800Y-49550D03*
X90350Y-48050D03*
X95150Y-49550D03*
X90350Y-47650D03*
X94250Y-57150D03*
X92800Y-57150D03*
X91350Y-57150D03*
X95650Y-57150D03*
X90850Y-58600D03*
X76500Y-55250D03*
X75900Y-50300D03*
X75900Y-49950D03*
X94950Y-57150D03*
X93175Y-57150D03*
X92425Y-57150D03*
X87150Y-57425D03*
X92050Y-57150D03*
X96350Y-57150D03*
X97100Y-57150D03*
X96725Y-57150D03*
X93550Y-57150D03*
X80350Y-51500D03*
X97250Y-52200D03*
X98250Y-47550D03*
X88800Y-57250D03*
X76800Y-44450D03*
X88150Y-51550D03*
X86700Y-54200D03*
X84850Y-50750D03*
X98800Y-45950D03*
X78000Y-54900D03*
X84100Y-47300D03*
X86750Y-56550D03*
X84150Y-54250D03*
X93450Y-54600D03*
X82550Y-56950D03*
X86300Y-51250D03*
X80650Y-50850D03*
X84500Y-56900D03*
X84800Y-50250D03*
X82100Y-48250D03*
X82000Y-51850D03*
G54D33*
X75050Y-47575D02*
X75050Y-47650D01*
X74675Y-47200D02*
X74675Y-46125D01*
X74675Y-46125D02*
X74800Y-46000D01*
X74675Y-47200D02*
X75050Y-47575D01*
G54D34*
X78301Y-43451D02*
X78398Y-43451D01*
X77350Y-42500D02*
X78301Y-43451D01*
X77850Y-42650D02*
X78200Y-43000D01*
X78743Y-43243D02*
X78743Y-43451D01*
X78200Y-43000D02*
X78500Y-43000D01*
X77350Y-41500D02*
X77850Y-42000D01*
X77850Y-42000D02*
X77850Y-42650D01*
X78500Y-43000D02*
X78743Y-43243D01*
X82557Y-43307D02*
X82557Y-43451D01*
X82350Y-43100D02*
X82557Y-43307D01*
X82350Y-42500D02*
X82350Y-43100D01*
X82850Y-42000D02*
X82850Y-43399D01*
X82350Y-41500D02*
X82850Y-42000D01*
X82850Y-43399D02*
X82902Y-43451D01*
X83348Y-42502D02*
X83348Y-43451D01*
X83350Y-42500D02*
X83348Y-42502D01*
X83350Y-41500D02*
X83850Y-42000D01*
X83850Y-42000D02*
X83850Y-42750D01*
X83850Y-42750D02*
X83693Y-42907D01*
X83693Y-42907D02*
X83693Y-43451D01*
X84007Y-43451D02*
X84007Y-42843D01*
X84007Y-42843D02*
X84350Y-42500D01*
X84850Y-42000D02*
X84850Y-42953D01*
X84350Y-41500D02*
X84850Y-42000D01*
X84850Y-42953D02*
X84352Y-43451D01*
X85350Y-42500D02*
X85348Y-42502D01*
X85348Y-42502D02*
X85348Y-43451D01*
X85693Y-42857D02*
X85693Y-43451D01*
X85850Y-42000D02*
X85850Y-42700D01*
X85350Y-41500D02*
X85850Y-42000D01*
X85850Y-42700D02*
X85693Y-42857D01*
X86007Y-43451D02*
X86007Y-42843D01*
X86007Y-42843D02*
X86350Y-42500D01*
X86850Y-42953D02*
X86352Y-43451D01*
X86850Y-42000D02*
X86850Y-42953D01*
X86350Y-41500D02*
X86850Y-42000D01*
X79057Y-43207D02*
X79057Y-43451D01*
X78350Y-42500D02*
X79057Y-43207D01*
X87348Y-42502D02*
X87348Y-43451D01*
X87350Y-42500D02*
X87348Y-42502D01*
X87850Y-42000D02*
X87850Y-42700D01*
X87693Y-42857D02*
X87693Y-43451D01*
X87850Y-42700D02*
X87693Y-42857D01*
X87350Y-41500D02*
X87850Y-42000D01*
X88007Y-42843D02*
X88350Y-42500D01*
X88007Y-43451D02*
X88007Y-42843D01*
X88350Y-41500D02*
X88850Y-42000D01*
X88850Y-42000D02*
X88850Y-42953D01*
X88850Y-42953D02*
X88352Y-43451D01*
X89350Y-42500D02*
X89350Y-43449D01*
X89350Y-43449D02*
X89348Y-43451D01*
X89850Y-42700D02*
X89693Y-42857D01*
X89693Y-42857D02*
X89693Y-43451D01*
X89850Y-42000D02*
X89850Y-42700D01*
X89350Y-41500D02*
X89850Y-42000D01*
X78850Y-42700D02*
X79402Y-43252D01*
X78850Y-42000D02*
X78850Y-42700D01*
X78350Y-41500D02*
X78850Y-42000D01*
X79402Y-43252D02*
X79402Y-43451D01*
X79497Y-42500D02*
X80448Y-43451D01*
X79350Y-42500D02*
X79497Y-42500D01*
X79350Y-41500D02*
X79850Y-42000D01*
X79850Y-42000D02*
X79850Y-42600D01*
X79850Y-42600D02*
X80200Y-42950D01*
X80793Y-43243D02*
X80793Y-43451D01*
X80200Y-42950D02*
X80500Y-42950D01*
X80500Y-42950D02*
X80793Y-43243D01*
X81107Y-43257D02*
X81107Y-43451D01*
X80350Y-42500D02*
X81107Y-43257D01*
X81452Y-43451D02*
X81452Y-43302D01*
X80850Y-42700D02*
X80850Y-42000D01*
X81452Y-43302D02*
X80850Y-42700D01*
X80850Y-42000D02*
X80350Y-41500D01*
X81350Y-42750D02*
X81350Y-42500D01*
X81898Y-43298D02*
X81350Y-42750D01*
X81898Y-43451D02*
X81898Y-43298D01*
X81350Y-41500D02*
X81850Y-42000D01*
X81850Y-42900D02*
X82243Y-43293D01*
X82243Y-43293D02*
X82243Y-43451D01*
X81850Y-42000D02*
X81850Y-42900D01*
X82226Y-54574D02*
X82508Y-54292D01*
X80540Y-56425D02*
X80540Y-55860D01*
X81826Y-54574D02*
X82226Y-54574D01*
X82508Y-54292D02*
X82508Y-53823D01*
X80540Y-55860D02*
X81826Y-54574D01*
X80540Y-57140D02*
X80700Y-57300D01*
X80540Y-56425D02*
X80540Y-57140D01*
X85400Y-57700D02*
X85750Y-57700D01*
X85300Y-57600D02*
X85400Y-57700D01*
X82705Y-54345D02*
X82705Y-53823D01*
X80735Y-56835D02*
X81050Y-57150D01*
X81914Y-54736D02*
X82314Y-54736D01*
X81050Y-57150D02*
X81050Y-57300D01*
X80735Y-56835D02*
X80900Y-57000D01*
X82314Y-54736D02*
X82705Y-54345D01*
X80735Y-55915D02*
X81914Y-54736D01*
X80735Y-56425D02*
X80735Y-56835D01*
X80735Y-56835D02*
X80900Y-57000D01*
X98750Y-57500D02*
X98600Y-57350D01*
X80735Y-56425D02*
X80735Y-55915D01*
X98250Y-57350D02*
X98600Y-57350D01*
X79400Y-46250D02*
X78050Y-46250D01*
X80735Y-47775D02*
X80735Y-47185D01*
X80735Y-48185D02*
X81576Y-49026D01*
X81876Y-49026D02*
X82705Y-49855D01*
X80735Y-47185D02*
X80500Y-46950D01*
X82705Y-49855D02*
X82705Y-50377D01*
X81576Y-49026D02*
X81876Y-49026D01*
X80735Y-47775D02*
X80735Y-48185D01*
X78050Y-46250D02*
X77600Y-46700D01*
X80100Y-46950D02*
X79400Y-46250D01*
X80500Y-46950D02*
X80100Y-46950D01*
X100050Y-54450D02*
X99550Y-54950D01*
X99550Y-54950D02*
X99400Y-54950D01*
X82508Y-49908D02*
X82508Y-50377D01*
X85686Y-51614D02*
X85298Y-52002D01*
X85298Y-52002D02*
X84723Y-52002D01*
X80540Y-47775D02*
X80540Y-48240D01*
X85686Y-51014D02*
X85686Y-51614D01*
X82508Y-50708D02*
X83802Y-52002D01*
X83802Y-52002D02*
X84723Y-52002D01*
X86865Y-49835D02*
X85686Y-51014D01*
X100050Y-54450D02*
X99475Y-54450D01*
X80540Y-48240D02*
X81488Y-49188D01*
X81788Y-49188D02*
X82508Y-49908D01*
X87325Y-49835D02*
X86865Y-49835D01*
X81488Y-49188D02*
X81788Y-49188D01*
X88235Y-49835D02*
X88950Y-50550D01*
X82508Y-50377D02*
X82508Y-50708D01*
X88235Y-49835D02*
X87325Y-49835D01*
X81700Y-49350D02*
X82311Y-49961D01*
X83748Y-52198D02*
X84723Y-52198D01*
X86915Y-50035D02*
X87325Y-50035D01*
X84723Y-52198D02*
X85352Y-52198D01*
X82311Y-49961D02*
X82311Y-50377D01*
X82311Y-50377D02*
X82311Y-50761D01*
X88085Y-50035D02*
X88600Y-50550D01*
X81400Y-49350D02*
X81700Y-49350D01*
X85848Y-51102D02*
X86915Y-50035D01*
X87325Y-50035D02*
X88085Y-50035D01*
X85352Y-52198D02*
X85848Y-51702D01*
X99550Y-53950D02*
X99100Y-53950D01*
X82311Y-50761D02*
X83748Y-52198D01*
X80345Y-47775D02*
X80345Y-48295D01*
X99550Y-53950D02*
X100050Y-53450D01*
X85848Y-51702D02*
X85848Y-51102D01*
X100050Y-53450D02*
X99475Y-53450D01*
X80345Y-48295D02*
X81400Y-49350D01*
X98352Y-43248D02*
X98352Y-43451D01*
X98350Y-41500D02*
X98850Y-42000D01*
X98850Y-42750D02*
X98352Y-43248D01*
X98850Y-42000D02*
X98850Y-42750D01*
X90007Y-43451D02*
X90007Y-42843D01*
X90007Y-42843D02*
X90350Y-42500D01*
X90850Y-42953D02*
X90352Y-43451D01*
X90850Y-42000D02*
X90850Y-42953D01*
X90350Y-41500D02*
X90850Y-42000D01*
X95350Y-43449D02*
X95350Y-42500D01*
X95348Y-43451D02*
X95350Y-43449D01*
X95850Y-42700D02*
X95693Y-42857D01*
X95693Y-42857D02*
X95693Y-43451D01*
X95850Y-42000D02*
X95850Y-42700D01*
X95350Y-41500D02*
X95850Y-42000D01*
X96007Y-42843D02*
X96350Y-42500D01*
X96007Y-43451D02*
X96007Y-42843D01*
X96350Y-41500D02*
X96850Y-42000D01*
X96850Y-42000D02*
X96850Y-42953D01*
X96850Y-42953D02*
X96352Y-43451D01*
X97350Y-43449D02*
X97350Y-42500D01*
X97348Y-43451D02*
X97350Y-43449D01*
X97850Y-42000D02*
X97850Y-42700D01*
X97850Y-42700D02*
X97693Y-42857D01*
X97350Y-41500D02*
X97850Y-42000D01*
X97693Y-42857D02*
X97693Y-43451D01*
X91350Y-42500D02*
X91348Y-42502D01*
X91348Y-42502D02*
X91348Y-43451D01*
X91350Y-41500D02*
X91850Y-42000D01*
X91850Y-42700D02*
X91693Y-42857D01*
X91693Y-42857D02*
X91693Y-43451D01*
X91850Y-42000D02*
X91850Y-42700D01*
X92007Y-42843D02*
X92350Y-42500D01*
X92007Y-43451D02*
X92007Y-42843D01*
X92850Y-42000D02*
X92850Y-42953D01*
X92350Y-41500D02*
X92850Y-42000D01*
X92850Y-42953D02*
X92352Y-43451D01*
X93350Y-42500D02*
X93348Y-42502D01*
X93348Y-42502D02*
X93348Y-43451D01*
X93350Y-41500D02*
X93850Y-42000D01*
X93693Y-42857D02*
X93693Y-43451D01*
X93850Y-42700D02*
X93693Y-42857D01*
X93850Y-42000D02*
X93850Y-42700D01*
X94007Y-43451D02*
X94007Y-42843D01*
X94007Y-42843D02*
X94350Y-42500D01*
X94850Y-42953D02*
X94352Y-43451D01*
X94350Y-41500D02*
X94850Y-42000D01*
X94850Y-42000D02*
X94850Y-42953D01*
X96800Y-50350D02*
X96800Y-50400D01*
X97136Y-50014D02*
X96800Y-50350D01*
X79125Y-50425D02*
X79200Y-50350D01*
X97587Y-50014D02*
X97136Y-50014D01*
X78398Y-44452D02*
X78350Y-44500D01*
X79125Y-50425D02*
X78675Y-50425D01*
X78398Y-44149D02*
X78398Y-44452D01*
X88664Y-50014D02*
X89713Y-50014D01*
X87828Y-48078D02*
X87828Y-49178D01*
X78700Y-44500D02*
X81220Y-47020D01*
X78743Y-44457D02*
X78700Y-44500D01*
X78675Y-50625D02*
X79425Y-50625D01*
X87828Y-49178D02*
X88664Y-50014D01*
X79425Y-50625D02*
X79500Y-50550D01*
X86770Y-47020D02*
X87828Y-48078D01*
X78743Y-44149D02*
X78743Y-44457D01*
X81220Y-47020D02*
X86770Y-47020D01*
X82550Y-44500D02*
X83610Y-45560D01*
X83295Y-55545D02*
X83150Y-55400D01*
X82557Y-44149D02*
X82557Y-44493D01*
X87560Y-45560D02*
X88470Y-46470D01*
X82557Y-44493D02*
X82550Y-44500D01*
X83295Y-55545D02*
X83295Y-56425D01*
X83610Y-45560D02*
X87560Y-45560D01*
X88470Y-46470D02*
X89713Y-46470D01*
X88524Y-46274D02*
X89713Y-46274D01*
X83495Y-55405D02*
X83500Y-55400D01*
X82902Y-44498D02*
X82900Y-44500D01*
X83798Y-45398D02*
X87648Y-45398D01*
X87648Y-45398D02*
X88524Y-46274D01*
X82900Y-44500D02*
X83798Y-45398D01*
X83495Y-55405D02*
X83495Y-56425D01*
X82902Y-44149D02*
X82902Y-44498D01*
X83348Y-44452D02*
X83300Y-44500D01*
X89610Y-52790D02*
X91400Y-51000D01*
X91400Y-51000D02*
X91400Y-46950D01*
X84036Y-45236D02*
X87736Y-45236D01*
X83348Y-44149D02*
X83348Y-44452D01*
X90527Y-46077D02*
X89713Y-46077D01*
X87325Y-52790D02*
X89610Y-52790D01*
X88577Y-46077D02*
X89713Y-46077D01*
X87736Y-45236D02*
X88577Y-46077D01*
X90527Y-46077D02*
X91400Y-46950D01*
X83300Y-44500D02*
X84036Y-45236D01*
X89713Y-45880D02*
X90680Y-45880D01*
X83693Y-44457D02*
X83650Y-44500D01*
X87325Y-52595D02*
X89555Y-52595D01*
X83693Y-44149D02*
X83693Y-44457D01*
X91150Y-47050D02*
X91150Y-51000D01*
X87824Y-45074D02*
X88630Y-45880D01*
X88630Y-45880D02*
X89713Y-45880D01*
X84224Y-45074D02*
X87824Y-45074D01*
X90680Y-45880D02*
X91500Y-46700D01*
X91150Y-51000D02*
X89555Y-52595D01*
X83650Y-44500D02*
X84224Y-45074D01*
X84412Y-44912D02*
X87912Y-44912D01*
X89505Y-52395D02*
X90900Y-51000D01*
X87325Y-52395D02*
X89505Y-52395D01*
X91500Y-46350D02*
X90833Y-45683D01*
X84000Y-44500D02*
X84412Y-44912D01*
X90833Y-45683D02*
X89713Y-45683D01*
X88683Y-45683D02*
X89713Y-45683D01*
X87912Y-44912D02*
X88683Y-45683D01*
X84007Y-44493D02*
X84000Y-44500D01*
X90900Y-51000D02*
X90900Y-46800D01*
X84007Y-44149D02*
X84007Y-44493D01*
X84600Y-44750D02*
X88000Y-44750D01*
X90986Y-45486D02*
X89713Y-45486D01*
X88736Y-45486D02*
X88000Y-44750D01*
X84350Y-44500D02*
X84600Y-44750D01*
X89450Y-52200D02*
X90650Y-51000D01*
X90650Y-51000D02*
X90650Y-46550D01*
X87325Y-52200D02*
X89450Y-52200D01*
X90986Y-45486D02*
X91500Y-46000D01*
X84352Y-44498D02*
X84350Y-44500D01*
X84352Y-44498D02*
X84352Y-44149D01*
X89713Y-45486D02*
X88736Y-45486D01*
X89485Y-54165D02*
X87325Y-54165D01*
X91262Y-44912D02*
X92500Y-46150D01*
X91262Y-44912D02*
X89362Y-44912D01*
X89485Y-54165D02*
X92650Y-51000D01*
X92650Y-48000D02*
X92500Y-47850D01*
X92650Y-51000D02*
X92650Y-48000D01*
X88950Y-44500D02*
X88950Y-43550D01*
X96562Y-44912D02*
X91262Y-44912D01*
X85099Y-44149D02*
X84950Y-44000D01*
X89362Y-44912D02*
X88950Y-44500D01*
X85099Y-44149D02*
X85348Y-44149D01*
X97136Y-45486D02*
X96562Y-44912D01*
X92500Y-47850D02*
X92500Y-46150D01*
X97587Y-45486D02*
X97136Y-45486D01*
X89430Y-53970D02*
X92400Y-51000D01*
X92400Y-51000D02*
X92400Y-48150D01*
X89136Y-48636D02*
X89050Y-48550D01*
X89136Y-48636D02*
X89713Y-48636D01*
X87325Y-53970D02*
X89430Y-53970D01*
X85693Y-44149D02*
X85693Y-44457D01*
X85693Y-44457D02*
X85650Y-44500D01*
X89289Y-48439D02*
X89713Y-48439D01*
X89289Y-48439D02*
X89050Y-48200D01*
X87325Y-53775D02*
X89375Y-53775D01*
X86007Y-44493D02*
X86000Y-44500D01*
X92150Y-51000D02*
X92150Y-47900D01*
X89375Y-53775D02*
X92150Y-51000D01*
X86007Y-44149D02*
X86007Y-44493D01*
X86352Y-44498D02*
X86350Y-44500D01*
X88989Y-47061D02*
X89713Y-47061D01*
X88989Y-47061D02*
X88900Y-47150D01*
X78675Y-48855D02*
X78155Y-48855D01*
X78155Y-48855D02*
X78150Y-48850D01*
X86352Y-44498D02*
X86352Y-44149D01*
X87990Y-49090D02*
X87990Y-47990D01*
X78675Y-50820D02*
X79730Y-50820D01*
X89713Y-49817D02*
X88717Y-49817D01*
X79057Y-44149D02*
X79057Y-44493D01*
X79730Y-50820D02*
X79800Y-50750D01*
X86858Y-46858D02*
X81408Y-46858D01*
X81408Y-46858D02*
X79050Y-44500D01*
X79057Y-44493D02*
X79050Y-44500D01*
X88717Y-49817D02*
X87990Y-49090D01*
X87990Y-47990D02*
X86858Y-46858D01*
X78675Y-49050D02*
X79050Y-49050D01*
X79050Y-49050D02*
X79250Y-48850D01*
X87348Y-44149D02*
X87348Y-44452D01*
X89713Y-47258D02*
X89192Y-47258D01*
X89192Y-47258D02*
X89050Y-47400D01*
X79250Y-48850D02*
X79250Y-48800D01*
X89050Y-47400D02*
X89050Y-47450D01*
X87348Y-44452D02*
X87300Y-44500D01*
X78675Y-49245D02*
X79205Y-49245D01*
X79205Y-49245D02*
X79300Y-49150D01*
X89102Y-47848D02*
X89713Y-47848D01*
X87693Y-44457D02*
X87693Y-44149D01*
X87693Y-44457D02*
X87650Y-44500D01*
X89102Y-47848D02*
X89100Y-47850D01*
X78675Y-49445D02*
X79245Y-49445D01*
X79245Y-49445D02*
X79300Y-49500D01*
X88789Y-45289D02*
X89713Y-45289D01*
X88007Y-44493D02*
X88000Y-44500D01*
X88007Y-44149D02*
X88007Y-44493D01*
X88000Y-44500D02*
X88789Y-45289D01*
X88352Y-44149D02*
X88352Y-44602D01*
X88700Y-43801D02*
X88700Y-43800D01*
X88700Y-43801D02*
X88352Y-44149D01*
X78695Y-48655D02*
X79000Y-48350D01*
X78675Y-48655D02*
X78695Y-48655D01*
X88352Y-44602D02*
X88843Y-45093D01*
X88843Y-45093D02*
X89713Y-45093D01*
X97193Y-45093D02*
X97587Y-45093D01*
X89348Y-44452D02*
X89348Y-44149D01*
X89300Y-44500D02*
X89550Y-44750D01*
X82705Y-47775D02*
X82705Y-47305D01*
X89550Y-44750D02*
X96850Y-44750D01*
X96850Y-44750D02*
X97193Y-45093D01*
X82705Y-47305D02*
X82700Y-47300D01*
X89348Y-44452D02*
X89300Y-44500D01*
X98200Y-44950D02*
X98200Y-45200D01*
X82505Y-48245D02*
X82500Y-48250D01*
X98200Y-45200D02*
X98111Y-45289D01*
X98100Y-44850D02*
X98200Y-44950D01*
X98111Y-45289D02*
X97587Y-45289D01*
X96850Y-44500D02*
X97200Y-44850D01*
X89693Y-44457D02*
X89693Y-44149D01*
X89693Y-44457D02*
X89650Y-44500D01*
X97200Y-44850D02*
X98100Y-44850D01*
X82505Y-47775D02*
X82505Y-48245D01*
X79400Y-44500D02*
X81596Y-46696D01*
X88152Y-47902D02*
X88152Y-49002D01*
X88770Y-49620D02*
X89713Y-49620D01*
X86946Y-46696D02*
X88152Y-47902D01*
X79715Y-51015D02*
X79800Y-51100D01*
X79402Y-44149D02*
X79402Y-44498D01*
X88152Y-49002D02*
X88770Y-49620D01*
X78675Y-51015D02*
X79715Y-51015D01*
X79402Y-44498D02*
X79400Y-44500D01*
X81596Y-46696D02*
X86946Y-46696D01*
X78675Y-51215D02*
X79415Y-51215D01*
X88823Y-49423D02*
X89713Y-49423D01*
X80400Y-44500D02*
X82434Y-46534D01*
X80448Y-44452D02*
X80400Y-44500D01*
X87034Y-46534D02*
X88314Y-47814D01*
X82434Y-46534D02*
X87034Y-46534D01*
X80448Y-44149D02*
X80448Y-44452D01*
X79415Y-51215D02*
X79500Y-51300D01*
X88314Y-47814D02*
X88314Y-48914D01*
X88314Y-48914D02*
X88823Y-49423D01*
X88476Y-48826D02*
X88876Y-49226D01*
X79110Y-51410D02*
X79200Y-51500D01*
X80793Y-44457D02*
X80750Y-44500D01*
X88476Y-47726D02*
X88476Y-48826D01*
X80750Y-44500D02*
X82622Y-46372D01*
X87122Y-46372D02*
X88476Y-47726D01*
X78675Y-51410D02*
X79110Y-51410D01*
X88876Y-49226D02*
X89713Y-49226D01*
X80793Y-44149D02*
X80793Y-44457D01*
X82622Y-46372D02*
X87122Y-46372D01*
X87208Y-46208D02*
X82808Y-46208D01*
X88638Y-47638D02*
X87208Y-46208D01*
X82115Y-56425D02*
X82115Y-55765D01*
X88930Y-49030D02*
X88638Y-48738D01*
X82808Y-46208D02*
X81100Y-44500D01*
X89713Y-49030D02*
X88930Y-49030D01*
X81107Y-44493D02*
X81107Y-44149D01*
X81107Y-44493D02*
X81100Y-44500D01*
X82115Y-55765D02*
X82100Y-55750D01*
X88638Y-48738D02*
X88638Y-47638D01*
X82705Y-56425D02*
X82705Y-56005D01*
X88983Y-48833D02*
X89713Y-48833D01*
X82996Y-46046D02*
X87296Y-46046D01*
X82705Y-56005D02*
X82450Y-55750D01*
X88800Y-47550D02*
X88800Y-48650D01*
X81452Y-44498D02*
X81450Y-44500D01*
X87296Y-46046D02*
X88800Y-47550D01*
X81452Y-44149D02*
X81452Y-44498D01*
X88800Y-48650D02*
X88983Y-48833D01*
X81450Y-44500D02*
X82996Y-46046D01*
X82900Y-55850D02*
X82800Y-55750D01*
X83234Y-45884D02*
X87384Y-45884D01*
X82900Y-55850D02*
X82900Y-56425D01*
X87384Y-45884D02*
X88364Y-46864D01*
X81850Y-44500D02*
X83234Y-45884D01*
X81898Y-44452D02*
X81850Y-44500D01*
X88364Y-46864D02*
X89713Y-46864D01*
X81898Y-44149D02*
X81898Y-44452D01*
X88417Y-46667D02*
X89713Y-46667D01*
X82200Y-44500D02*
X83422Y-45722D01*
X82243Y-44149D02*
X82243Y-44457D01*
X83100Y-55700D02*
X82800Y-55400D01*
X83422Y-45722D02*
X87472Y-45722D01*
X82243Y-44457D02*
X82200Y-44500D01*
X87472Y-45722D02*
X88417Y-46667D01*
X83100Y-55700D02*
X83100Y-56425D01*
X84870Y-47775D02*
X84870Y-47330D01*
X98352Y-44498D02*
X98350Y-44500D01*
X98352Y-44498D02*
X98352Y-44149D01*
X84870Y-47330D02*
X84900Y-47300D01*
X89715Y-53185D02*
X87325Y-53185D01*
X97587Y-49226D02*
X96826Y-49226D01*
X89715Y-53185D02*
X91900Y-51000D01*
X91900Y-51000D02*
X91900Y-46900D01*
X86000Y-54050D02*
X86000Y-54350D01*
X92250Y-46550D02*
X92250Y-46250D01*
X96826Y-49226D02*
X96750Y-49150D01*
X91900Y-46900D02*
X92250Y-46550D01*
X86865Y-53185D02*
X86000Y-54050D01*
X90007Y-44493D02*
X90000Y-44500D01*
X87325Y-53185D02*
X86865Y-53185D01*
X90007Y-44149D02*
X90007Y-44493D01*
X91650Y-46900D02*
X92000Y-46550D01*
X92000Y-46550D02*
X92000Y-46000D01*
X91650Y-51000D02*
X91650Y-46900D01*
X97587Y-48833D02*
X96567Y-48833D01*
X86815Y-52985D02*
X85750Y-54050D01*
X87325Y-52985D02*
X86815Y-52985D01*
X85750Y-54050D02*
X85750Y-54100D01*
X89665Y-52985D02*
X87325Y-52985D01*
X90352Y-44498D02*
X90352Y-44149D01*
X90352Y-44498D02*
X90350Y-44500D01*
X89665Y-52985D02*
X91650Y-51000D01*
X96567Y-48833D02*
X96500Y-48900D01*
X88300Y-56850D02*
X94050Y-51100D01*
X97587Y-48242D02*
X98242Y-48242D01*
X85300Y-56850D02*
X88300Y-56850D01*
X94050Y-51100D02*
X94050Y-47750D01*
X95348Y-44452D02*
X95348Y-44149D01*
X85265Y-56815D02*
X85300Y-56850D01*
X95348Y-44452D02*
X95300Y-44500D01*
X85265Y-56425D02*
X85265Y-56815D01*
X98242Y-48242D02*
X98250Y-48250D01*
X93800Y-51100D02*
X93800Y-47500D01*
X95693Y-44457D02*
X95650Y-44500D01*
X88300Y-56300D02*
X88600Y-56300D01*
X85460Y-56425D02*
X85460Y-56060D01*
X85460Y-56060D02*
X85300Y-55900D01*
X88600Y-56300D02*
X93800Y-51100D01*
X97587Y-47848D02*
X98198Y-47848D01*
X98198Y-47848D02*
X98250Y-47900D01*
X95693Y-44149D02*
X95693Y-44457D01*
X96007Y-44493D02*
X96000Y-44500D01*
X88700Y-55950D02*
X87850Y-55950D01*
X98192Y-47258D02*
X97587Y-47258D01*
X93550Y-47050D02*
X93550Y-51100D01*
X85655Y-55805D02*
X85600Y-55750D01*
X96007Y-44149D02*
X96007Y-44493D01*
X85655Y-55805D02*
X85655Y-56425D01*
X98192Y-47258D02*
X98250Y-47200D01*
X93550Y-51100D02*
X88700Y-55950D01*
X96352Y-44149D02*
X96350Y-44151D01*
X89645Y-54755D02*
X93300Y-51100D01*
X93300Y-51100D02*
X93300Y-46800D01*
X96352Y-44498D02*
X96352Y-44149D01*
X98236Y-46864D02*
X98250Y-46850D01*
X96352Y-44498D02*
X96350Y-44500D01*
X98236Y-46864D02*
X97587Y-46864D01*
X87325Y-54755D02*
X89645Y-54755D01*
X97348Y-44452D02*
X97300Y-44500D01*
X98220Y-46470D02*
X98250Y-46500D01*
X98220Y-46470D02*
X97587Y-46470D01*
X97348Y-44149D02*
X97348Y-44452D01*
X93050Y-46550D02*
X93050Y-51100D01*
X93050Y-51100D02*
X89590Y-54560D01*
X89590Y-54560D02*
X87325Y-54560D01*
X92800Y-46700D02*
X92800Y-46300D01*
X97587Y-46077D02*
X98177Y-46077D01*
X92812Y-46712D02*
X92800Y-46700D01*
X98177Y-46077D02*
X98250Y-46150D01*
X89535Y-54365D02*
X92812Y-51088D01*
X92812Y-51088D02*
X92812Y-46712D01*
X97693Y-44457D02*
X97650Y-44500D01*
X87325Y-54365D02*
X89535Y-54365D01*
X97693Y-44457D02*
X97693Y-44149D01*
X91348Y-44452D02*
X91348Y-44149D01*
X87100Y-47600D02*
X87100Y-47750D01*
X97587Y-48439D02*
X96861Y-48439D01*
X96861Y-48439D02*
X96750Y-48550D01*
X85460Y-47775D02*
X85460Y-47440D01*
X85712Y-47188D02*
X86688Y-47188D01*
X86688Y-47188D02*
X87100Y-47600D01*
X91348Y-44452D02*
X91300Y-44500D01*
X85460Y-47440D02*
X85712Y-47188D01*
X96755Y-48045D02*
X96500Y-48300D01*
X85265Y-47775D02*
X85265Y-47315D01*
X97587Y-48045D02*
X96755Y-48045D01*
X91693Y-44457D02*
X91693Y-44149D01*
X91693Y-44457D02*
X91650Y-44500D01*
X85265Y-47315D02*
X85250Y-47300D01*
X83690Y-56425D02*
X83690Y-55710D01*
X92007Y-44493D02*
X92000Y-44500D01*
X92007Y-44149D02*
X92007Y-44493D01*
X83850Y-55550D02*
X83850Y-55500D01*
X97587Y-47455D02*
X95905Y-47455D01*
X95905Y-47455D02*
X95700Y-47250D01*
X83690Y-55710D02*
X83850Y-55550D01*
X92352Y-44498D02*
X92350Y-44500D01*
X96989Y-47061D02*
X96850Y-47200D01*
X92352Y-44149D02*
X92352Y-44498D01*
X97587Y-47061D02*
X96989Y-47061D01*
X96050Y-47200D02*
X96850Y-47200D01*
X96989Y-47061D02*
X96850Y-47200D01*
X83885Y-55965D02*
X84050Y-55800D01*
X83885Y-55965D02*
X83885Y-56425D01*
X93348Y-44452D02*
X93300Y-44500D01*
X96700Y-46950D02*
X96983Y-46667D01*
X84085Y-56865D02*
X84050Y-56900D01*
X96700Y-46950D02*
X96300Y-46950D01*
X84085Y-56865D02*
X84085Y-56425D01*
X97587Y-46667D02*
X96983Y-46667D01*
X93348Y-44452D02*
X93348Y-44149D01*
X93693Y-44457D02*
X93650Y-44500D01*
X84675Y-55975D02*
X84750Y-55900D01*
X96976Y-46274D02*
X96550Y-46700D01*
X96976Y-46274D02*
X97587Y-46274D01*
X93693Y-44457D02*
X93693Y-44149D01*
X84675Y-56425D02*
X84675Y-55975D01*
X84750Y-55900D02*
X84950Y-55900D01*
X85124Y-57174D02*
X88476Y-57174D01*
X94550Y-51100D02*
X94550Y-48250D01*
X97587Y-49030D02*
X98170Y-49030D01*
X84870Y-56425D02*
X84870Y-56920D01*
X98170Y-49030D02*
X98250Y-48950D01*
X88476Y-57174D02*
X94550Y-51100D01*
X94007Y-44493D02*
X94007Y-44149D01*
X94007Y-44493D02*
X94000Y-44500D01*
X84870Y-56920D02*
X85124Y-57174D01*
X94352Y-44498D02*
X94352Y-44149D01*
X94352Y-44498D02*
X94350Y-44500D01*
X85212Y-57012D02*
X88388Y-57012D01*
X97587Y-48636D02*
X98214Y-48636D01*
X88388Y-57012D02*
X94300Y-51100D01*
X85065Y-56865D02*
X85212Y-57012D01*
X94300Y-51100D02*
X94300Y-48000D01*
X98214Y-48636D02*
X98250Y-48600D01*
X85065Y-56425D02*
X85065Y-56865D01*
X83690Y-47775D02*
X83690Y-48590D01*
X101350Y-44200D02*
X101350Y-44450D01*
X83690Y-48590D02*
X83850Y-48750D01*
X83850Y-48750D02*
X84200Y-48750D01*
X101350Y-44450D02*
X101200Y-44600D01*
X102050Y-44450D02*
X101900Y-44600D01*
X102050Y-44200D02*
X102050Y-44450D01*
X83495Y-47775D02*
X83495Y-48645D01*
X83850Y-49000D02*
X83950Y-49000D01*
X83495Y-48645D02*
X83850Y-49000D01*
X83295Y-48695D02*
X83295Y-47775D01*
X98200Y-49950D02*
X98200Y-50550D01*
X83295Y-48695D02*
X83850Y-49250D01*
X96500Y-49800D02*
X96517Y-49817D01*
X97587Y-49817D02*
X98067Y-49817D01*
X96517Y-49817D02*
X97587Y-49817D01*
X83850Y-49250D02*
X84200Y-49250D01*
X98067Y-49817D02*
X98200Y-49950D01*
X96500Y-49800D02*
X96500Y-49800D01*
X98200Y-50550D02*
X97750Y-51000D01*
X82350Y-57250D02*
X82250Y-57350D01*
X82250Y-57350D02*
X82250Y-57750D01*
X82900Y-47775D02*
X82900Y-48250D01*
X100093Y-44407D02*
X99900Y-44600D01*
X100093Y-44407D02*
X100093Y-44149D01*
X98800Y-44600D02*
X98750Y-44550D01*
X80145Y-48345D02*
X80650Y-48850D01*
X80145Y-47775D02*
X80145Y-48345D01*
X80650Y-48850D02*
X80650Y-48950D01*
X99900Y-44600D02*
X98800Y-44600D01*
X84675Y-48225D02*
X84750Y-48300D01*
X100407Y-44393D02*
X100407Y-44149D01*
X100000Y-44800D02*
X98500Y-44800D01*
X100407Y-44393D02*
X100000Y-44800D01*
X96550Y-49450D02*
X96577Y-49423D01*
X96577Y-49423D02*
X97587Y-49423D01*
X84675Y-47775D02*
X84675Y-48225D01*
X99547Y-44350D02*
X99250Y-44350D01*
X79950Y-47775D02*
X79950Y-48600D01*
X79950Y-48600D02*
X80650Y-49300D01*
X99547Y-44350D02*
X99748Y-44149D01*
X89350Y-51650D02*
X89000Y-52000D01*
X87325Y-51805D02*
X87705Y-51805D01*
X90142Y-48242D02*
X90300Y-48400D01*
X83885Y-48435D02*
X83950Y-48500D01*
X90300Y-48400D02*
X90350Y-48400D01*
X90350Y-50650D02*
X89350Y-51650D01*
X87900Y-52000D02*
X87325Y-52000D01*
X83885Y-48435D02*
X83885Y-47775D01*
X90142Y-48242D02*
X89713Y-48242D01*
X89000Y-52000D02*
X87900Y-52000D01*
X100100Y-45050D02*
X98750Y-45050D01*
X100752Y-44398D02*
X100100Y-45050D01*
X100752Y-44398D02*
X100752Y-44149D01*
X90350Y-48400D02*
X90350Y-50650D01*
X87705Y-51805D02*
X87900Y-52000D01*
X84475Y-47325D02*
X84500Y-47300D01*
X84475Y-47325D02*
X84475Y-47775D01*
X98007Y-44493D02*
X98007Y-44149D01*
X90145Y-47455D02*
X90300Y-47300D01*
X98007Y-44493D02*
X98000Y-44500D01*
X90300Y-47300D02*
X90350Y-47300D01*
X89713Y-47455D02*
X90145Y-47455D01*
X82050Y-54250D02*
X81650Y-54250D01*
X80145Y-56425D02*
X80145Y-57155D01*
X80145Y-55755D02*
X80145Y-56425D01*
X80145Y-57155D02*
X80000Y-57300D01*
X79950Y-57450D02*
X79350Y-57450D01*
X82114Y-53823D02*
X82114Y-54186D01*
X80000Y-57300D02*
X80000Y-57400D01*
X79350Y-57450D02*
X79050Y-57750D01*
X81650Y-54250D02*
X80145Y-55755D01*
X80000Y-57400D02*
X79950Y-57450D01*
X82114Y-54186D02*
X82050Y-54250D01*
X81277Y-53183D02*
X80967Y-53183D01*
X79848Y-54852D02*
X79155Y-55545D01*
X78400Y-55820D02*
X78400Y-56450D01*
X79848Y-54302D02*
X79848Y-54852D01*
X79155Y-55545D02*
X78675Y-55545D01*
X80967Y-53183D02*
X79848Y-54302D01*
X78675Y-55545D02*
X78400Y-55820D01*
X79524Y-54676D02*
X79050Y-55150D01*
X78675Y-55150D02*
X78150Y-55150D01*
X79524Y-54126D02*
X79524Y-54676D01*
X78150Y-55150D02*
X78000Y-55300D01*
X78000Y-55300D02*
X78000Y-55550D01*
X80861Y-52789D02*
X79524Y-54126D01*
X81277Y-52789D02*
X80861Y-52789D01*
X78000Y-55550D02*
X77650Y-55900D01*
X79050Y-55150D02*
X78675Y-55150D01*
X80914Y-52986D02*
X79686Y-54214D01*
X79105Y-55345D02*
X78675Y-55345D01*
X78200Y-55400D02*
X78200Y-55600D01*
X78255Y-55345D02*
X78200Y-55400D01*
X79686Y-54214D02*
X79686Y-54764D01*
X81277Y-52986D02*
X80914Y-52986D01*
X79686Y-54764D02*
X79105Y-55345D01*
X78675Y-55345D02*
X78255Y-55345D01*
X77650Y-56600D02*
X78000Y-56250D01*
X78000Y-55800D02*
X78200Y-55600D01*
X78000Y-56250D02*
X78000Y-55800D01*
X101350Y-42500D02*
X101350Y-43500D01*
X101350Y-41500D02*
X101850Y-42000D01*
X101850Y-43300D02*
X102050Y-43500D01*
X101850Y-42000D02*
X101850Y-43300D01*
X99850Y-42000D02*
X99850Y-42700D01*
X99350Y-41500D02*
X99850Y-42000D01*
X99850Y-42700D02*
X100093Y-42943D01*
X100093Y-42943D02*
X100093Y-43451D01*
X100407Y-42557D02*
X100350Y-42500D01*
X100407Y-43451D02*
X100407Y-42557D01*
X78100Y-53500D02*
X78220Y-53380D01*
X76950Y-54500D02*
X77350Y-54100D01*
X76950Y-55200D02*
X76950Y-54500D01*
X78000Y-54100D02*
X78100Y-54000D01*
X79520Y-53380D02*
X78675Y-53380D01*
X81277Y-52198D02*
X80702Y-52198D01*
X78220Y-53380D02*
X78675Y-53380D01*
X77350Y-54100D02*
X78000Y-54100D01*
X78100Y-54000D02*
X78100Y-53500D01*
X80702Y-52198D02*
X79520Y-53380D01*
X99747Y-43450D02*
X99747Y-42897D01*
X99748Y-43451D02*
X99747Y-43450D01*
X99747Y-42897D02*
X99350Y-42500D01*
X100850Y-43353D02*
X100752Y-43451D01*
X100350Y-41500D02*
X100850Y-42000D01*
X100850Y-42000D02*
X100850Y-43353D01*
X98007Y-42843D02*
X98350Y-42500D01*
X98007Y-43451D02*
X98007Y-42843D01*
X77650Y-53550D02*
X78215Y-52985D01*
X81277Y-51805D02*
X80595Y-51805D01*
X78215Y-52985D02*
X78675Y-52985D01*
X79415Y-52985D02*
X78675Y-52985D01*
X77650Y-53700D02*
X77650Y-53550D01*
X80595Y-51805D02*
X79415Y-52985D01*
X79465Y-53185D02*
X78675Y-53185D01*
X80648Y-52002D02*
X79465Y-53185D01*
X81277Y-52002D02*
X80648Y-52002D01*
X79555Y-56425D02*
X79555Y-56855D01*
X79555Y-56855D02*
X79700Y-57000D01*
X79555Y-55845D02*
X81577Y-53823D01*
X79555Y-56425D02*
X79555Y-55845D01*
X81577Y-53823D02*
X81917Y-53823D01*
G54D33*
X102500Y-48450D02*
X102500Y-49450D01*
X102500Y-46450D02*
X102500Y-47450D01*
X102500Y-47450D02*
X102500Y-48450D01*
X102500Y-50450D02*
X102500Y-49450D01*
G54D34*
X101500Y-50450D02*
X100750Y-50450D01*
X101500Y-54450D02*
X100750Y-54450D01*
X101500Y-52450D02*
X100750Y-52450D01*
X101500Y-49450D02*
X100750Y-49450D01*
X101500Y-47450D02*
X100750Y-47450D01*
X101500Y-51450D02*
X100750Y-51450D01*
X101500Y-48450D02*
X100750Y-48450D01*
X101500Y-46450D02*
X100750Y-46450D01*
X101500Y-53450D02*
X100750Y-53450D01*
G54D33*
X102550Y-45400D02*
X102500Y-45450D01*
X102550Y-42700D02*
X102550Y-45400D01*
X102350Y-42500D02*
X102550Y-42700D01*
G54D34*
X85150Y-53050D02*
X85150Y-54450D01*
X82338Y-48538D02*
X83689Y-49889D01*
X88200Y-55600D02*
X88500Y-55600D01*
X83689Y-49889D02*
X83689Y-50377D01*
X100050Y-49450D02*
X99550Y-49950D01*
X85655Y-47775D02*
X85655Y-48445D01*
X87945Y-55345D02*
X88200Y-55600D01*
X86045Y-55345D02*
X87325Y-55345D01*
X81720Y-47775D02*
X81720Y-48420D01*
X85655Y-48445D02*
X84362Y-49738D01*
X83689Y-49911D02*
X83689Y-50377D01*
X83689Y-50377D02*
X83689Y-50761D01*
X83836Y-52986D02*
X82550Y-51700D01*
X85086Y-52986D02*
X85150Y-53050D01*
X81838Y-48538D02*
X82338Y-48538D01*
X83862Y-49738D02*
X83689Y-49911D01*
X84723Y-52986D02*
X85086Y-52986D01*
X83689Y-50761D02*
X83350Y-51100D01*
X87945Y-55345D02*
X87325Y-55345D01*
X84723Y-52986D02*
X83836Y-52986D01*
X84362Y-49738D02*
X83862Y-49738D01*
X99550Y-49950D02*
X99100Y-49950D01*
X85150Y-54450D02*
X86045Y-55345D01*
X100050Y-49450D02*
X99475Y-49450D01*
X81720Y-48420D02*
X81838Y-48538D01*
X99550Y-46950D02*
X100050Y-47450D01*
X84723Y-52592D02*
X83792Y-52592D01*
X85192Y-52592D02*
X85474Y-52874D01*
X86955Y-54955D02*
X87325Y-54955D01*
X84723Y-52592D02*
X83792Y-52592D01*
X84350Y-49500D02*
X83700Y-49500D01*
X86155Y-54955D02*
X87325Y-54955D01*
X88305Y-54955D02*
X88650Y-55300D01*
X85065Y-47775D02*
X85065Y-48785D01*
X85474Y-54274D02*
X86155Y-54955D01*
X85065Y-48785D02*
X84350Y-49500D01*
X85474Y-52874D02*
X85474Y-54274D01*
X84723Y-52592D02*
X85192Y-52592D01*
X100050Y-47450D02*
X99475Y-47450D01*
X87325Y-54955D02*
X88305Y-54955D01*
X87325Y-54955D02*
X86955Y-54955D01*
X83792Y-52592D02*
X82550Y-51350D01*
X99550Y-46950D02*
X99400Y-46950D01*
X99550Y-51950D02*
X100050Y-51450D01*
X88100Y-55150D02*
X88250Y-55300D01*
X85312Y-52962D02*
X85312Y-54362D01*
X86100Y-55150D02*
X87325Y-55150D01*
X85139Y-52789D02*
X85312Y-52962D01*
X84723Y-52789D02*
X85139Y-52789D01*
X86900Y-55150D02*
X87325Y-55150D01*
X87325Y-50625D02*
X86925Y-50625D01*
X88100Y-55150D02*
X87325Y-55150D01*
X100050Y-51450D02*
X99475Y-51450D01*
X86900Y-55150D02*
X87325Y-55150D01*
X85312Y-54362D02*
X86100Y-55150D01*
X86925Y-50625D02*
X86800Y-50750D01*
X99550Y-51950D02*
X99100Y-51950D01*
X99050Y-46875D02*
X99050Y-46950D01*
X84750Y-54900D02*
X85100Y-54900D01*
X85855Y-55655D02*
X85850Y-55650D01*
X99475Y-46450D02*
X99050Y-46875D01*
X85855Y-56425D02*
X85855Y-55655D01*
X83492Y-53823D02*
X83492Y-54492D01*
X87325Y-50425D02*
X87775Y-50425D01*
X83900Y-54900D02*
X84750Y-54900D01*
X100050Y-46450D02*
X99475Y-46450D01*
X83492Y-54492D02*
X83900Y-54900D01*
X87775Y-50425D02*
X87900Y-50550D01*
X85100Y-54900D02*
X85850Y-55650D01*
X80935Y-47415D02*
X80935Y-47775D01*
X86750Y-47500D02*
X86750Y-47700D01*
X81150Y-47350D02*
X81000Y-47350D01*
X81662Y-48862D02*
X82012Y-48862D01*
X81000Y-47350D02*
X80935Y-47415D01*
X83492Y-50377D02*
X83492Y-50708D01*
X82902Y-50377D02*
X82902Y-50752D01*
X82902Y-49848D02*
X82902Y-50377D01*
X86094Y-47350D02*
X86600Y-47350D01*
X83098Y-50377D02*
X83098Y-50752D01*
X83098Y-50752D02*
X83050Y-50800D01*
X82012Y-48862D02*
X82950Y-49800D01*
X81525Y-47775D02*
X81525Y-47425D01*
X83050Y-50800D02*
X82950Y-50800D01*
X86050Y-47394D02*
X86094Y-47350D01*
X86050Y-47775D02*
X86050Y-47394D01*
X81525Y-47425D02*
X81450Y-47350D01*
X81130Y-47370D02*
X81150Y-47350D01*
X81130Y-47775D02*
X81130Y-47370D01*
X99550Y-47950D02*
X99100Y-47950D01*
X83400Y-50800D02*
X83050Y-50800D01*
X100050Y-48450D02*
X99475Y-48450D01*
X99550Y-47950D02*
X100050Y-48450D01*
X82902Y-49848D02*
X82950Y-49800D01*
X82902Y-50752D02*
X82950Y-50800D01*
X81130Y-48330D02*
X81662Y-48862D01*
X81450Y-47350D02*
X81150Y-47350D01*
X83492Y-50708D02*
X83400Y-50800D01*
X86600Y-47350D02*
X86750Y-47500D01*
X81130Y-47775D02*
X81130Y-48330D01*
X86050Y-56425D02*
X86050Y-56000D01*
X86150Y-48200D02*
X85950Y-48200D01*
X85855Y-48105D02*
X85855Y-47775D01*
X100050Y-52450D02*
X99550Y-52950D01*
X86505Y-55545D02*
X86500Y-55545D01*
X83950Y-49900D02*
X83886Y-49964D01*
X85995Y-55545D02*
X84700Y-54250D01*
X83886Y-50914D02*
X83700Y-51100D01*
X84450Y-49900D02*
X83950Y-49900D01*
X84723Y-54227D02*
X84723Y-53183D01*
X87795Y-55545D02*
X87325Y-55545D01*
X84723Y-53183D02*
X83683Y-53183D01*
X84450Y-54500D02*
X84700Y-54250D01*
X86050Y-56000D02*
X86505Y-55545D01*
X86245Y-47775D02*
X86245Y-48105D01*
X100050Y-52450D02*
X99475Y-52450D01*
X83689Y-54289D02*
X83900Y-54500D01*
X86245Y-48105D02*
X86150Y-48200D01*
X83886Y-49964D02*
X83886Y-50377D01*
X83689Y-53823D02*
X83689Y-54289D01*
X99550Y-52950D02*
X99100Y-52950D01*
X87795Y-55545D02*
X87850Y-55600D01*
X83886Y-50914D02*
X83886Y-50377D01*
X86245Y-48105D02*
X84450Y-49900D01*
X84700Y-54250D02*
X84723Y-54227D01*
X83900Y-54500D02*
X84450Y-54500D01*
X86500Y-55545D02*
X85995Y-55545D01*
X83683Y-53183D02*
X82550Y-52050D01*
X85950Y-48200D02*
X85855Y-48105D01*
X86500Y-55545D02*
X87325Y-55545D01*
X87325Y-51015D02*
X87815Y-51015D01*
X87815Y-51015D02*
X87900Y-51100D01*
X87325Y-50820D02*
X88120Y-50820D01*
X88120Y-50820D02*
X88200Y-50900D01*
X80345Y-56425D02*
X80345Y-55805D01*
X80350Y-57450D02*
X80650Y-57750D01*
X80345Y-56425D02*
X80345Y-57395D01*
X81738Y-54412D02*
X82138Y-54412D01*
X82311Y-54239D02*
X82311Y-53823D01*
X80345Y-57395D02*
X80350Y-57400D01*
X80350Y-57400D02*
X80350Y-57450D01*
X80345Y-55805D02*
X81738Y-54412D01*
X82138Y-54412D02*
X82311Y-54239D01*
X84083Y-50377D02*
X84223Y-50377D01*
X87450Y-48350D02*
X86600Y-48350D01*
X84223Y-50377D02*
X86445Y-48155D01*
X86600Y-48350D02*
X86445Y-48195D01*
X86445Y-47775D02*
X86445Y-48155D01*
X86445Y-47775D02*
X86445Y-48195D01*
X86445Y-48155D02*
X86445Y-47775D01*
X86600Y-49250D02*
X85550Y-50300D01*
X85200Y-51350D02*
X85139Y-51411D01*
X87325Y-49245D02*
X86605Y-49245D01*
X85139Y-51411D02*
X84723Y-51411D01*
X85200Y-50650D02*
X85200Y-51350D01*
X86605Y-49245D02*
X86600Y-49250D01*
X85550Y-50300D02*
X85200Y-50650D01*
X81525Y-56425D02*
X81525Y-57175D01*
X82090Y-55060D02*
X81525Y-55625D01*
X83098Y-54652D02*
X82690Y-55060D01*
X81525Y-57175D02*
X81400Y-57300D01*
X81525Y-55625D02*
X81525Y-56425D01*
X83098Y-53823D02*
X83098Y-54652D01*
X82690Y-55060D02*
X82090Y-55060D01*
X83295Y-49855D02*
X83295Y-50377D01*
X81325Y-47775D02*
X81325Y-48275D01*
X82200Y-48700D02*
X83300Y-49800D01*
X81325Y-48275D02*
X81750Y-48700D01*
X83300Y-49800D02*
X83300Y-49850D01*
X81750Y-48700D02*
X82200Y-48700D01*
X83295Y-49855D02*
X83300Y-49850D01*
X87930Y-50230D02*
X88250Y-50550D01*
X85405Y-52395D02*
X84723Y-52395D01*
X86970Y-50230D02*
X86010Y-51190D01*
X87325Y-50230D02*
X86970Y-50230D01*
X86010Y-51190D02*
X86010Y-51790D01*
X100050Y-50450D02*
X99475Y-50450D01*
X100050Y-50450D02*
X99550Y-50950D01*
X87930Y-50230D02*
X87325Y-50230D01*
X86010Y-51790D02*
X85405Y-52395D01*
X99100Y-50950D02*
X99550Y-50950D01*
X81325Y-55575D02*
X82002Y-54898D01*
X82902Y-54498D02*
X82850Y-54550D01*
X82002Y-54898D02*
X82502Y-54898D01*
X82902Y-54418D02*
X82902Y-53823D01*
X81325Y-56425D02*
X81325Y-55575D01*
X82902Y-54498D02*
X82902Y-53823D01*
X82902Y-53823D02*
X82902Y-54418D01*
X82502Y-54898D02*
X82850Y-54550D01*
X85524Y-50926D02*
X85524Y-51506D01*
X86810Y-49640D02*
X85524Y-50926D01*
X85524Y-51506D02*
X85225Y-51805D01*
X87325Y-49640D02*
X86810Y-49640D01*
X83955Y-51805D02*
X83900Y-51750D01*
X85225Y-51805D02*
X84723Y-51805D01*
X84723Y-51805D02*
X83955Y-51805D01*
X87325Y-49445D02*
X86755Y-49445D01*
X85192Y-51608D02*
X84723Y-51608D01*
X84258Y-51608D02*
X84150Y-51500D01*
X85362Y-50838D02*
X85362Y-51438D01*
X86755Y-49445D02*
X85362Y-50838D01*
X85362Y-51438D02*
X85192Y-51608D01*
X84723Y-51608D02*
X84258Y-51608D01*
X79500Y-50300D02*
X79750Y-50300D01*
X78675Y-49835D02*
X78135Y-49835D01*
X80664Y-51214D02*
X80650Y-51200D01*
X79035Y-49835D02*
X79500Y-50300D01*
X79750Y-50300D02*
X80650Y-51200D01*
X78675Y-49835D02*
X79035Y-49835D01*
X81277Y-51214D02*
X80664Y-51214D01*
X78135Y-49835D02*
X78100Y-49800D01*
X86500Y-57700D02*
X86850Y-58050D01*
X83886Y-53823D02*
X83886Y-53436D01*
X85000Y-57900D02*
X84500Y-58400D01*
X86850Y-58050D02*
X87500Y-58050D01*
X84500Y-58400D02*
X83500Y-57400D01*
X85214Y-57336D02*
X85000Y-57550D01*
X86136Y-57336D02*
X85214Y-57336D01*
X87325Y-51410D02*
X87660Y-51410D01*
G54D33*
X76200Y-46000D02*
X74800Y-44600D01*
G54D34*
X79755Y-56425D02*
X79755Y-55995D01*
X78675Y-54365D02*
X78285Y-54365D01*
X82114Y-51414D02*
X82250Y-51550D01*
X84280Y-47775D02*
X84280Y-48220D01*
X86500Y-57700D02*
X86136Y-57336D01*
X85000Y-57550D02*
X85000Y-57900D01*
X96350Y-58250D02*
X95650Y-58250D01*
X94250Y-58250D02*
X93900Y-58600D01*
X79090Y-54560D02*
X78675Y-54560D01*
X82114Y-51414D02*
X82114Y-50377D01*
X87500Y-58050D02*
X87900Y-58450D01*
X83295Y-54545D02*
X84350Y-55600D01*
X83295Y-53400D02*
X83295Y-53245D01*
X83500Y-57400D02*
X83500Y-57150D01*
X83800Y-53350D02*
X83350Y-53350D01*
X98725Y-52450D02*
X98725Y-51450D01*
X78250Y-54500D02*
X78310Y-54560D01*
X81720Y-56425D02*
X81720Y-55980D01*
X82250Y-51550D02*
X82250Y-52200D01*
X97450Y-58600D02*
X96700Y-58600D01*
G54D33*
X77600Y-50950D02*
X77600Y-51200D01*
G54D34*
X80755Y-52395D02*
X79200Y-53950D01*
X84950Y-50500D02*
X84600Y-50500D01*
X81720Y-55980D02*
X81800Y-55900D01*
X83295Y-53245D02*
X83300Y-53250D01*
X78135Y-54365D02*
X78000Y-54500D01*
X82250Y-52200D02*
X83300Y-53250D01*
X83300Y-53400D02*
X83295Y-53400D01*
X98725Y-53450D02*
X98725Y-52450D01*
X84314Y-51214D02*
X84250Y-51150D01*
G54D33*
X77230Y-50580D02*
X77600Y-50950D01*
G54D34*
X84350Y-56000D02*
X84280Y-56070D01*
X81720Y-56425D02*
X81720Y-56770D01*
X86245Y-56425D02*
X86245Y-56055D01*
X98725Y-51450D02*
X98050Y-51450D01*
X87660Y-51410D02*
X88050Y-51800D01*
X81850Y-56900D02*
X82200Y-56900D01*
X87325Y-53575D02*
X88175Y-53575D01*
X87325Y-51410D02*
X86490Y-51410D01*
X86595Y-48855D02*
X84950Y-50500D01*
X79755Y-47305D02*
X79400Y-46950D01*
X82310Y-47310D02*
X82182Y-47182D01*
X82310Y-56790D02*
X82310Y-56425D01*
X98725Y-46225D02*
X98725Y-46450D01*
X86245Y-56055D02*
X86300Y-56000D01*
X83295Y-53823D02*
X83295Y-53400D01*
X83295Y-53823D02*
X83295Y-54545D01*
X79550Y-45700D02*
X77600Y-45700D01*
X98750Y-46450D02*
X99250Y-45950D01*
X79755Y-47775D02*
X79755Y-47305D01*
X81277Y-52395D02*
X80755Y-52395D01*
X83886Y-53436D02*
X83800Y-53350D01*
X94950Y-58250D02*
X94950Y-58350D01*
X88175Y-53575D02*
X88250Y-53500D01*
X97587Y-49620D02*
X98555Y-49620D01*
X98555Y-49620D02*
X98725Y-49450D01*
X79755Y-55995D02*
X79850Y-55900D01*
X98725Y-50450D02*
X98725Y-49450D01*
X95650Y-58250D02*
X94950Y-58250D01*
X98725Y-47450D02*
X98725Y-47925D01*
X98725Y-54450D02*
X98725Y-53450D01*
X98725Y-46450D02*
X98750Y-46450D01*
X98725Y-49450D02*
X98725Y-48450D01*
X98725Y-47925D02*
X98700Y-47950D01*
G54D33*
X76500Y-45700D02*
X76200Y-46000D01*
G54D34*
X79050Y-55950D02*
X79100Y-55900D01*
X100300Y-45950D02*
X100750Y-45500D01*
G54D33*
X99500Y-56100D02*
X100050Y-56650D01*
G54D34*
X94950Y-58350D02*
X94700Y-58600D01*
X78675Y-54365D02*
X78135Y-54365D01*
X82182Y-47182D02*
X81032Y-47182D01*
X86300Y-56000D02*
X87500Y-56000D01*
X99250Y-45950D02*
X100300Y-45950D01*
X91700Y-58600D02*
X91350Y-58250D01*
X84350Y-55600D02*
X84350Y-56000D01*
G54D33*
X77600Y-45700D02*
X76500Y-45700D01*
G54D34*
X78750Y-46500D02*
X78750Y-46900D01*
X81720Y-56770D02*
X81850Y-56900D01*
X98725Y-51450D02*
X98725Y-50450D01*
X83350Y-53350D02*
X83300Y-53400D01*
X101450Y-56100D02*
X102343Y-56100D01*
X100750Y-55400D02*
X101450Y-56100D01*
G54D33*
X100050Y-56650D02*
X101793Y-56650D01*
X101793Y-56650D02*
X102343Y-56100D01*
G54D34*
X79200Y-53950D02*
X79200Y-54450D01*
X90850Y-57750D02*
X91350Y-58250D01*
X79350Y-46900D02*
X79400Y-46950D01*
X92100Y-55000D02*
X90850Y-56250D01*
X78250Y-54400D02*
X78250Y-54500D01*
X78285Y-54365D02*
X78250Y-54400D01*
X87500Y-56050D02*
X87900Y-56450D01*
X98725Y-47975D02*
X98700Y-47950D01*
X78750Y-46900D02*
X79350Y-46900D01*
X81720Y-56425D02*
X81720Y-57480D01*
X84280Y-56070D02*
X84280Y-56425D01*
X79050Y-56450D02*
X79050Y-55950D01*
X90850Y-56250D02*
X90850Y-57750D01*
X98380Y-45880D02*
X98725Y-46225D01*
X78005Y-51605D02*
X77600Y-51200D01*
X94950Y-58250D02*
X94250Y-58250D01*
X93900Y-58600D02*
X91700Y-58600D01*
X76450Y-54650D02*
X76450Y-54750D01*
X81032Y-47182D02*
X79550Y-45700D01*
X84723Y-51214D02*
X84314Y-51214D01*
X76100Y-54300D02*
X76450Y-54650D01*
X87500Y-56050D02*
X87500Y-56000D01*
X96700Y-58600D02*
X96350Y-58250D01*
X97587Y-45880D02*
X98380Y-45880D01*
X79200Y-54450D02*
X79090Y-54560D01*
X82200Y-56900D02*
X82310Y-56790D01*
X77600Y-52250D02*
X76950Y-52900D01*
X87325Y-48855D02*
X86595Y-48855D01*
X88050Y-51800D02*
X88500Y-51800D01*
X97800Y-58250D02*
X97450Y-58600D01*
G54D33*
X74800Y-44600D02*
X74800Y-44450D01*
G54D34*
X98725Y-47450D02*
X98725Y-46450D01*
X77600Y-51200D02*
X77600Y-52250D01*
X82310Y-47775D02*
X82310Y-47310D01*
X86490Y-51410D02*
X86300Y-51600D01*
X84280Y-48220D02*
X84250Y-48250D01*
X88500Y-51800D02*
X88650Y-51650D01*
X84500Y-50600D02*
X84600Y-50500D01*
X78000Y-54500D02*
X77650Y-54500D01*
X81720Y-57480D02*
X81450Y-57750D01*
X78310Y-54560D02*
X78675Y-54560D01*
X98725Y-48450D02*
X98725Y-47975D01*
X78675Y-51605D02*
X78005Y-51605D01*
X84250Y-50850D02*
X84500Y-50600D01*
X98050Y-51450D02*
X97750Y-51750D01*
X84250Y-51150D02*
X84250Y-50850D01*
X94800Y-49550D02*
X94800Y-51000D01*
X89713Y-48045D02*
X90345Y-48045D01*
X90345Y-48045D02*
X90350Y-48050D01*
X94800Y-51000D02*
X94950Y-51150D01*
X95150Y-49550D02*
X95150Y-50600D01*
X95650Y-51100D02*
X95650Y-51150D01*
X90348Y-47652D02*
X90350Y-47650D01*
X95150Y-50600D02*
X95650Y-51100D01*
X89713Y-47652D02*
X90348Y-47652D01*
X94250Y-57150D02*
X94250Y-57550D01*
X92800Y-57550D02*
X92800Y-57150D01*
X91350Y-57150D02*
X91350Y-57550D01*
X95650Y-57150D02*
X95650Y-57550D01*
X98750Y-56400D02*
X98750Y-55400D01*
X98700Y-56450D02*
X98750Y-56400D01*
G54D33*
X97800Y-54650D02*
X97800Y-55550D01*
X97800Y-55550D02*
X98700Y-56450D01*
G54D34*
X90750Y-58600D02*
X90200Y-58050D01*
X90850Y-58600D02*
X90750Y-58600D01*
X75900Y-55100D02*
X76550Y-55750D01*
X75900Y-55000D02*
X75900Y-55100D01*
X76550Y-55750D02*
X76550Y-56200D01*
X76550Y-56200D02*
X76950Y-56600D01*
X76500Y-55450D02*
X76950Y-55900D01*
X76500Y-55250D02*
X76500Y-55450D01*
X76100Y-53700D02*
X76950Y-53700D01*
G54D33*
X75525Y-48375D02*
X76470Y-49320D01*
X76470Y-49320D02*
X77230Y-49320D01*
X75525Y-47200D02*
X75525Y-48375D01*
G54D34*
X75650Y-49850D02*
X75650Y-50050D01*
X77230Y-49635D02*
X75865Y-49635D01*
X75865Y-49635D02*
X75650Y-49850D01*
X75650Y-50050D02*
X75900Y-50300D01*
X77230Y-49950D02*
X75900Y-49950D01*
X78400Y-57150D02*
X77950Y-57150D01*
X77950Y-57150D02*
X77400Y-57700D01*
X94950Y-57150D02*
X94950Y-57550D01*
X93175Y-57875D02*
X93550Y-58250D01*
X93175Y-57150D02*
X93175Y-57875D01*
X92050Y-58250D02*
X92800Y-58250D01*
X92425Y-57875D02*
X92050Y-58250D01*
X92425Y-57150D02*
X92425Y-57875D01*
X87150Y-57425D02*
X87375Y-57650D01*
X87375Y-57650D02*
X87550Y-57650D01*
X92050Y-57150D02*
X92050Y-57550D01*
X96350Y-57150D02*
X96350Y-57550D01*
X97100Y-57150D02*
X97100Y-57550D01*
X97100Y-57550D02*
X97800Y-57550D01*
X96725Y-57150D02*
X96725Y-57875D01*
X96725Y-57875D02*
X97100Y-58250D01*
X93550Y-57150D02*
X93550Y-57550D01*
X87150Y-58400D02*
X87200Y-58450D01*
X86500Y-58400D02*
X85750Y-58400D01*
X86500Y-58400D02*
X87150Y-58400D01*
X100050Y-55450D02*
X100050Y-55400D01*
X99500Y-56800D02*
X99100Y-56400D01*
X99225Y-55775D02*
X99725Y-55775D01*
X99100Y-55900D02*
X99225Y-55775D01*
X99100Y-56400D02*
X99100Y-55900D01*
X99450Y-56850D02*
X99500Y-56800D01*
X99450Y-57500D02*
X99450Y-56850D01*
X99725Y-55775D02*
X100050Y-55450D01*
X97587Y-45683D02*
X98567Y-45683D01*
X98567Y-45683D02*
X98750Y-45500D01*
X87100Y-56550D02*
X86750Y-56550D01*
X87325Y-53380D02*
X86920Y-53380D01*
X98150Y-52200D02*
X98400Y-52450D01*
X88800Y-58050D02*
X88800Y-57250D01*
G54D33*
X76200Y-44450D02*
X76800Y-44450D01*
G54D34*
X79090Y-49640D02*
X79588Y-50138D01*
X99000Y-45950D02*
X99450Y-45500D01*
X97250Y-52200D02*
X98150Y-52200D01*
X79555Y-47775D02*
X79380Y-47600D01*
X86920Y-53380D02*
X86700Y-53600D01*
X77600Y-47700D02*
X77700Y-47600D01*
X78500Y-57700D02*
X79050Y-57150D01*
G54D33*
X93000Y-54650D02*
X93400Y-54650D01*
G54D34*
X86545Y-48655D02*
X87325Y-48655D01*
X79150Y-57250D02*
X79050Y-57150D01*
X84475Y-56425D02*
X84475Y-56875D01*
X77700Y-55200D02*
X77650Y-55200D01*
X78305Y-54955D02*
X78675Y-54955D01*
X80817Y-51017D02*
X80650Y-50850D01*
X80045Y-51805D02*
X80350Y-51500D01*
X84475Y-56875D02*
X84500Y-56900D01*
X88150Y-51450D02*
X88650Y-50950D01*
X82250Y-58450D02*
X81450Y-58450D01*
X88150Y-51450D02*
X88150Y-51550D01*
X86570Y-56550D02*
X86750Y-56550D01*
X79950Y-56425D02*
X79950Y-57100D01*
X82505Y-56905D02*
X82550Y-56950D01*
X78400Y-57700D02*
X78500Y-57700D01*
X78675Y-54755D02*
X78295Y-54755D01*
X79350Y-58150D02*
X80350Y-58150D01*
X84083Y-53823D02*
X84083Y-54183D01*
X79950Y-57100D02*
X79800Y-57250D01*
X84083Y-54183D02*
X84150Y-54250D01*
X80350Y-58150D02*
X80650Y-58450D01*
X79050Y-58450D02*
X79350Y-58150D01*
X81917Y-51767D02*
X82000Y-51850D01*
X84723Y-51017D02*
X84723Y-50877D01*
X79938Y-50138D02*
X80650Y-50850D01*
X97050Y-51750D02*
X97050Y-52000D01*
X81758Y-52592D02*
X81277Y-52592D01*
X79362Y-54538D02*
X78945Y-54955D01*
X78945Y-54955D02*
X78675Y-54955D01*
X97587Y-50407D02*
X97587Y-50463D01*
X81758Y-52592D02*
X82000Y-52350D01*
X78400Y-57800D02*
X78400Y-57700D01*
X86445Y-56425D02*
X86570Y-56550D01*
X97050Y-52000D02*
X97250Y-52200D01*
X78295Y-51805D02*
X77650Y-52450D01*
X78675Y-51805D02*
X80045Y-51805D01*
X97587Y-50463D02*
X97050Y-51000D01*
X79050Y-58450D02*
X78400Y-57800D01*
X89350Y-50950D02*
X88650Y-50950D01*
X95650Y-51850D02*
X96950Y-51850D01*
X78250Y-54800D02*
X78250Y-54900D01*
X94950Y-51850D02*
X95650Y-51850D01*
X78675Y-51805D02*
X78295Y-51805D01*
X78145Y-54755D02*
X78000Y-54900D01*
X98148Y-47652D02*
X98250Y-47550D01*
X82000Y-52350D02*
X82000Y-51850D01*
X86335Y-51215D02*
X87325Y-51215D01*
X78675Y-49640D02*
X79090Y-49640D01*
X82115Y-48235D02*
X82115Y-47775D01*
X96950Y-51850D02*
X97050Y-51750D01*
X84085Y-47315D02*
X84085Y-47775D01*
X98400Y-52450D02*
X98400Y-54850D01*
X98500Y-54950D02*
X98400Y-54850D01*
X81277Y-52592D02*
X80808Y-52592D01*
G54D33*
X93400Y-54650D02*
X93450Y-54600D01*
G54D34*
X78250Y-54900D02*
X78305Y-54955D01*
X93000Y-54650D02*
X92450Y-54650D01*
X79588Y-50138D02*
X79938Y-50138D01*
X74900Y-52700D02*
X74900Y-53700D01*
X77650Y-52450D02*
X77650Y-52900D01*
X79362Y-54038D02*
X79362Y-54538D01*
X81277Y-51017D02*
X80817Y-51017D01*
X84950Y-50250D02*
X84800Y-50250D01*
X81917Y-50377D02*
X81917Y-51767D01*
X82505Y-56905D02*
X82505Y-56425D01*
X79380Y-47600D02*
X78750Y-47600D01*
X100050Y-45500D02*
X99450Y-45500D01*
X77700Y-47600D02*
X78750Y-47600D01*
X84500Y-56900D02*
X84500Y-57700D01*
X99000Y-45950D02*
X98800Y-45950D01*
X78675Y-54755D02*
X78145Y-54755D01*
X86545Y-48655D02*
X84950Y-50250D01*
X80808Y-52592D02*
X79362Y-54038D01*
X99450Y-55400D02*
X99000Y-54950D01*
X86335Y-51215D02*
X86300Y-51250D01*
X84723Y-50877D02*
X84850Y-50750D01*
X81277Y-51017D02*
X81917Y-50377D01*
X82115Y-48235D02*
X82100Y-48250D01*
X78295Y-54755D02*
X78250Y-54800D01*
X84085Y-47315D02*
X84100Y-47300D01*
X79090Y-49640D02*
X79588Y-50138D01*
X79800Y-57250D02*
X79150Y-57250D01*
X97587Y-47652D02*
X98148Y-47652D01*
X99000Y-54950D02*
X98500Y-54950D01*
X77700Y-55200D02*
X78000Y-54900D01*
X86700Y-53600D02*
X86700Y-54200D01*
X87100Y-56550D02*
X87200Y-56450D01*
X97050Y-51000D02*
X97050Y-51750D01*
X92450Y-54650D02*
X92100Y-54300D01*
X81450Y-58450D02*
X80650Y-58450D01*
G54D10*
G36*
X76150Y-54350D02*
X76050Y-54350D01*
X76050Y-54250D01*
X76150Y-54250D01*
X76150Y-54350D01*
X76150Y-54350D01*
G37*
G54D35*
X76150Y-54350D02*
X76050Y-54350D01*
X76050Y-54250D01*
X76150Y-54250D01*
X76150Y-54350D01*
G54D10*
G36*
X76660Y-54850D02*
X76631Y-54879D01*
X76605Y-54941D01*
X76605Y-54975D01*
X76559Y-54956D01*
X76442Y-54956D01*
X76344Y-54996D01*
X76344Y-54912D01*
X76277Y-54749D01*
X76549Y-54749D01*
X76605Y-54725D01*
X76605Y-54759D01*
X76631Y-54821D01*
X76660Y-54850D01*
X76660Y-54850D01*
G37*
G54D35*
X76660Y-54850D02*
X76631Y-54879D01*
X76605Y-54941D01*
X76605Y-54975D01*
X76559Y-54956D01*
X76442Y-54956D01*
X76344Y-54996D01*
X76344Y-54912D01*
X76277Y-54749D01*
X76549Y-54749D01*
X76605Y-54725D01*
X76605Y-54759D01*
X76631Y-54821D01*
X76660Y-54850D01*
G54D10*
G36*
X78193Y-54340D02*
X78164Y-54369D01*
X78133Y-54443D01*
X78125Y-54452D01*
X78125Y-54460D01*
X78125Y-54462D01*
X78125Y-54473D01*
X78125Y-54548D01*
X78077Y-54558D01*
X78064Y-54561D01*
X78040Y-54577D01*
X78013Y-54550D01*
X77750Y-54550D01*
X77700Y-54550D01*
X77600Y-54550D01*
X77600Y-54450D01*
X77700Y-54450D01*
X77750Y-54450D01*
X78013Y-54450D01*
X78075Y-54388D01*
X78074Y-54324D01*
X78074Y-54295D01*
X78080Y-54294D01*
X78081Y-54294D01*
X78127Y-54261D01*
X78126Y-54266D01*
X78125Y-54278D01*
X78187Y-54340D01*
X78193Y-54340D01*
X78193Y-54340D01*
G37*
G54D35*
X78193Y-54340D02*
X78164Y-54369D01*
X78133Y-54443D01*
X78125Y-54452D01*
X78125Y-54460D01*
X78125Y-54462D01*
X78125Y-54473D01*
X78125Y-54548D01*
X78077Y-54558D01*
X78064Y-54561D01*
X78040Y-54577D01*
X78013Y-54550D01*
X77750Y-54550D01*
X77700Y-54550D01*
X77600Y-54550D01*
X77600Y-54450D01*
X77700Y-54450D01*
X77750Y-54450D01*
X78013Y-54450D01*
X78075Y-54388D01*
X78074Y-54324D01*
X78074Y-54295D01*
X78080Y-54294D01*
X78081Y-54294D01*
X78127Y-54261D01*
X78126Y-54266D01*
X78125Y-54278D01*
X78187Y-54340D01*
X78193Y-54340D01*
G54D10*
G36*
X78274Y-51599D02*
X78227Y-51608D01*
X78214Y-51611D01*
X78146Y-51657D01*
X77502Y-52302D01*
X77456Y-52369D01*
X77453Y-52382D01*
X77440Y-52450D01*
X77440Y-52505D01*
X77379Y-52531D01*
X77347Y-52562D01*
X77336Y-52534D01*
X77266Y-52464D01*
X77180Y-52428D01*
X77180Y-50866D01*
X77180Y-50629D01*
X76580Y-50629D01*
X76519Y-50690D01*
X76519Y-50728D01*
X76557Y-50819D01*
X76627Y-50889D01*
X76719Y-50927D01*
X77118Y-50928D01*
X77180Y-50866D01*
X77180Y-52428D01*
X77174Y-52426D01*
X77085Y-52425D01*
X77085Y-52149D01*
X77085Y-52081D01*
X77085Y-51531D01*
X77059Y-51469D01*
X77011Y-51421D01*
X76949Y-51395D01*
X76881Y-51395D01*
X76251Y-51395D01*
X76189Y-51421D01*
X76141Y-51469D01*
X76115Y-51531D01*
X76115Y-51599D01*
X76115Y-52149D01*
X76141Y-52211D01*
X76189Y-52259D01*
X76251Y-52285D01*
X76319Y-52285D01*
X76949Y-52285D01*
X77011Y-52259D01*
X77059Y-52211D01*
X77085Y-52149D01*
X77085Y-52425D01*
X77062Y-52425D01*
X77000Y-52487D01*
X77000Y-52800D01*
X77000Y-52850D01*
X77000Y-52950D01*
X76900Y-52950D01*
X76900Y-52850D01*
X76900Y-52487D01*
X76838Y-52425D01*
X76726Y-52426D01*
X76634Y-52464D01*
X76564Y-52534D01*
X76526Y-52625D01*
X76526Y-52724D01*
X76525Y-52788D01*
X76587Y-52850D01*
X76900Y-52850D01*
X76900Y-52950D01*
X76850Y-52950D01*
X76587Y-52950D01*
X76525Y-53012D01*
X76526Y-53076D01*
X76526Y-53175D01*
X76564Y-53266D01*
X76634Y-53336D01*
X76662Y-53347D01*
X76631Y-53379D01*
X76627Y-53387D01*
X76596Y-53356D01*
X76534Y-53330D01*
X76466Y-53330D01*
X76344Y-53330D01*
X76344Y-52789D01*
X76344Y-52612D01*
X76277Y-52449D01*
X76152Y-52324D01*
X75989Y-52256D01*
X75812Y-52256D01*
X75649Y-52323D01*
X75524Y-52448D01*
X75456Y-52611D01*
X75456Y-52788D01*
X75523Y-52951D01*
X75648Y-53076D01*
X75811Y-53144D01*
X75988Y-53144D01*
X76151Y-53077D01*
X76276Y-52952D01*
X76344Y-52789D01*
X76344Y-53330D01*
X75666Y-53330D01*
X75604Y-53356D01*
X75556Y-53404D01*
X75530Y-53466D01*
X75530Y-53534D01*
X75530Y-53918D01*
X75489Y-53959D01*
X75457Y-54035D01*
X75444Y-54004D01*
X75440Y-54000D01*
X75444Y-53996D01*
X75470Y-53934D01*
X75470Y-53866D01*
X75470Y-53466D01*
X75444Y-53404D01*
X75396Y-53356D01*
X75334Y-53330D01*
X75266Y-53330D01*
X75110Y-53330D01*
X75110Y-53145D01*
X75209Y-53145D01*
X75271Y-53119D01*
X75319Y-53071D01*
X75345Y-53009D01*
X75345Y-52941D01*
X75345Y-52391D01*
X75319Y-52329D01*
X75271Y-52281D01*
X75209Y-52255D01*
X75141Y-52255D01*
X74850Y-52255D01*
X74894Y-52211D01*
X74920Y-52149D01*
X74920Y-52081D01*
X74920Y-51531D01*
X74894Y-51469D01*
X74846Y-51421D01*
X74784Y-51395D01*
X74716Y-51395D01*
X74245Y-51395D01*
X74245Y-48505D01*
X74784Y-48505D01*
X74846Y-48479D01*
X74894Y-48431D01*
X74920Y-48369D01*
X74920Y-48301D01*
X74920Y-47914D01*
X74991Y-47944D01*
X75108Y-47944D01*
X75216Y-47899D01*
X75255Y-47860D01*
X75255Y-48375D01*
X75276Y-48478D01*
X75334Y-48566D01*
X75492Y-48724D01*
X75440Y-48742D01*
X75438Y-48743D01*
X75382Y-48777D01*
X75381Y-48778D01*
X75324Y-48829D01*
X75323Y-48829D01*
X75323Y-48830D01*
X75322Y-48830D01*
X75282Y-48885D01*
X75265Y-48920D01*
X75249Y-48953D01*
X75231Y-49020D01*
X75227Y-49097D01*
X75237Y-49167D01*
X75237Y-49168D01*
X75246Y-49193D01*
X75262Y-49239D01*
X75263Y-49240D01*
X75298Y-49300D01*
X75322Y-49326D01*
X75349Y-49356D01*
X75350Y-49356D01*
X75404Y-49397D01*
X75405Y-49398D01*
X75428Y-49409D01*
X75472Y-49431D01*
X75474Y-49431D01*
X75537Y-49447D01*
X75540Y-49448D01*
X75541Y-49449D01*
X75612Y-49452D01*
X75616Y-49453D01*
X75616Y-49452D01*
X75617Y-49453D01*
X75687Y-49443D01*
X75687Y-49442D01*
X75688Y-49443D01*
X75713Y-49433D01*
X75759Y-49418D01*
X75760Y-49417D01*
X75760Y-49416D01*
X75819Y-49382D01*
X75820Y-49382D01*
X75846Y-49357D01*
X75876Y-49331D01*
X75876Y-49330D01*
X75917Y-49276D01*
X75918Y-49275D01*
X75929Y-49252D01*
X75951Y-49208D01*
X75951Y-49206D01*
X75956Y-49188D01*
X76193Y-49425D01*
X75865Y-49425D01*
X75797Y-49438D01*
X75784Y-49441D01*
X75716Y-49487D01*
X75502Y-49702D01*
X75456Y-49769D01*
X75453Y-49782D01*
X75440Y-49850D01*
X75440Y-50050D01*
X75453Y-50117D01*
X75456Y-50131D01*
X75502Y-50198D01*
X75606Y-50302D01*
X75606Y-50358D01*
X75643Y-50448D01*
X75625Y-50445D01*
X75623Y-50445D01*
X75622Y-50445D01*
X75554Y-50447D01*
X75552Y-50447D01*
X75551Y-50447D01*
X75509Y-50456D01*
X75479Y-50464D01*
X75477Y-50464D01*
X75477Y-50465D01*
X75412Y-50495D01*
X75372Y-50524D01*
X75353Y-50537D01*
X75350Y-50539D01*
X75350Y-50540D01*
X75349Y-50540D01*
X75304Y-50588D01*
X75263Y-50652D01*
X75262Y-50653D01*
X75262Y-50655D01*
X75237Y-50722D01*
X75229Y-50771D01*
X75225Y-50795D01*
X75225Y-50796D01*
X75225Y-50797D01*
X75227Y-50866D01*
X75227Y-50868D01*
X75235Y-50902D01*
X75244Y-50941D01*
X75244Y-50942D01*
X75245Y-50943D01*
X75272Y-51001D01*
X75273Y-51004D01*
X75274Y-51006D01*
X75275Y-51007D01*
X75277Y-51010D01*
X75317Y-51067D01*
X75320Y-51069D01*
X75367Y-51115D01*
X75369Y-51116D01*
X75370Y-51117D01*
X75432Y-51156D01*
X75435Y-51158D01*
X75500Y-51182D01*
X75501Y-51183D01*
X75554Y-51191D01*
X75575Y-51195D01*
X75576Y-51194D01*
X75577Y-51195D01*
X75577Y-51194D01*
X75646Y-51193D01*
X75646Y-51192D01*
X75648Y-51193D01*
X75682Y-51184D01*
X75721Y-51176D01*
X75722Y-51175D01*
X75723Y-51175D01*
X75781Y-51147D01*
X75784Y-51147D01*
X75786Y-51145D01*
X75787Y-51145D01*
X75790Y-51142D01*
X75847Y-51103D01*
X75849Y-51100D01*
X75895Y-51053D01*
X75896Y-51050D01*
X75897Y-51050D01*
X75936Y-50988D01*
X75938Y-50985D01*
X75962Y-50920D01*
X75963Y-50919D01*
X75971Y-50865D01*
X75975Y-50845D01*
X75974Y-50843D01*
X75975Y-50843D01*
X75974Y-50842D01*
X75973Y-50774D01*
X75972Y-50772D01*
X75973Y-50771D01*
X75963Y-50729D01*
X75956Y-50699D01*
X75955Y-50697D01*
X75926Y-50636D01*
X75925Y-50632D01*
X75897Y-50594D01*
X75958Y-50594D01*
X76066Y-50549D01*
X76149Y-50467D01*
X76194Y-50359D01*
X76194Y-50242D01*
X76159Y-50160D01*
X76598Y-50160D01*
X76598Y-50201D01*
X76598Y-50300D01*
X76557Y-50341D01*
X76519Y-50432D01*
X76519Y-50470D01*
X76580Y-50531D01*
X76729Y-50531D01*
X76734Y-50533D01*
X76802Y-50533D01*
X77280Y-50533D01*
X77280Y-50629D01*
X77280Y-50680D01*
X77280Y-50866D01*
X77342Y-50928D01*
X77734Y-50927D01*
X77751Y-50966D01*
X77759Y-50974D01*
X77701Y-51033D01*
X77656Y-51141D01*
X77656Y-51258D01*
X77701Y-51366D01*
X77783Y-51449D01*
X77891Y-51494D01*
X78008Y-51494D01*
X78116Y-51449D01*
X78199Y-51367D01*
X78205Y-51352D01*
X78205Y-51373D01*
X78164Y-51414D01*
X78126Y-51506D01*
X78125Y-51518D01*
X78187Y-51580D01*
X78255Y-51580D01*
X78274Y-51599D01*
X78274Y-51599D01*
G37*
G54D35*
X78274Y-51599D02*
X78227Y-51608D01*
X78214Y-51611D01*
X78146Y-51657D01*
X77502Y-52302D01*
X77456Y-52369D01*
X77453Y-52382D01*
X77440Y-52450D01*
X77440Y-52505D01*
X77379Y-52531D01*
X77347Y-52562D01*
X77336Y-52534D01*
X77266Y-52464D01*
X77180Y-52428D01*
X77180Y-50866D01*
X77180Y-50629D01*
X76580Y-50629D01*
X76519Y-50690D01*
X76519Y-50728D01*
X76557Y-50819D01*
X76627Y-50889D01*
X76719Y-50927D01*
X77118Y-50928D01*
X77180Y-50866D01*
X77180Y-52428D01*
X77174Y-52426D01*
X77085Y-52425D01*
X77085Y-52149D01*
X77085Y-52081D01*
X77085Y-51531D01*
X77059Y-51469D01*
X77011Y-51421D01*
X76949Y-51395D01*
X76881Y-51395D01*
X76251Y-51395D01*
X76189Y-51421D01*
X76141Y-51469D01*
X76115Y-51531D01*
X76115Y-51599D01*
X76115Y-52149D01*
X76141Y-52211D01*
X76189Y-52259D01*
X76251Y-52285D01*
X76319Y-52285D01*
X76949Y-52285D01*
X77011Y-52259D01*
X77059Y-52211D01*
X77085Y-52149D01*
X77085Y-52425D01*
X77062Y-52425D01*
X77000Y-52487D01*
X77000Y-52800D01*
X77000Y-52850D01*
X77000Y-52950D01*
X76900Y-52950D01*
X76900Y-52850D01*
X76900Y-52487D01*
X76838Y-52425D01*
X76726Y-52426D01*
X76634Y-52464D01*
X76564Y-52534D01*
X76526Y-52625D01*
X76526Y-52724D01*
X76525Y-52788D01*
X76587Y-52850D01*
X76900Y-52850D01*
X76900Y-52950D01*
X76850Y-52950D01*
X76587Y-52950D01*
X76525Y-53012D01*
X76526Y-53076D01*
X76526Y-53175D01*
X76564Y-53266D01*
X76634Y-53336D01*
X76662Y-53347D01*
X76631Y-53379D01*
X76627Y-53387D01*
X76596Y-53356D01*
X76534Y-53330D01*
X76466Y-53330D01*
X76344Y-53330D01*
X76344Y-52789D01*
X76344Y-52612D01*
X76277Y-52449D01*
X76152Y-52324D01*
X75989Y-52256D01*
X75812Y-52256D01*
X75649Y-52323D01*
X75524Y-52448D01*
X75456Y-52611D01*
X75456Y-52788D01*
X75523Y-52951D01*
X75648Y-53076D01*
X75811Y-53144D01*
X75988Y-53144D01*
X76151Y-53077D01*
X76276Y-52952D01*
X76344Y-52789D01*
X76344Y-53330D01*
X75666Y-53330D01*
X75604Y-53356D01*
X75556Y-53404D01*
X75530Y-53466D01*
X75530Y-53534D01*
X75530Y-53918D01*
X75489Y-53959D01*
X75457Y-54035D01*
X75444Y-54004D01*
X75440Y-54000D01*
X75444Y-53996D01*
X75470Y-53934D01*
X75470Y-53866D01*
X75470Y-53466D01*
X75444Y-53404D01*
X75396Y-53356D01*
X75334Y-53330D01*
X75266Y-53330D01*
X75110Y-53330D01*
X75110Y-53145D01*
X75209Y-53145D01*
X75271Y-53119D01*
X75319Y-53071D01*
X75345Y-53009D01*
X75345Y-52941D01*
X75345Y-52391D01*
X75319Y-52329D01*
X75271Y-52281D01*
X75209Y-52255D01*
X75141Y-52255D01*
X74850Y-52255D01*
X74894Y-52211D01*
X74920Y-52149D01*
X74920Y-52081D01*
X74920Y-51531D01*
X74894Y-51469D01*
X74846Y-51421D01*
X74784Y-51395D01*
X74716Y-51395D01*
X74245Y-51395D01*
X74245Y-48505D01*
X74784Y-48505D01*
X74846Y-48479D01*
X74894Y-48431D01*
X74920Y-48369D01*
X74920Y-48301D01*
X74920Y-47914D01*
X74991Y-47944D01*
X75108Y-47944D01*
X75216Y-47899D01*
X75255Y-47860D01*
X75255Y-48375D01*
X75276Y-48478D01*
X75334Y-48566D01*
X75492Y-48724D01*
X75440Y-48742D01*
X75438Y-48743D01*
X75382Y-48777D01*
X75381Y-48778D01*
X75324Y-48829D01*
X75323Y-48829D01*
X75323Y-48830D01*
X75322Y-48830D01*
X75282Y-48885D01*
X75265Y-48920D01*
X75249Y-48953D01*
X75231Y-49020D01*
X75227Y-49097D01*
X75237Y-49167D01*
X75237Y-49168D01*
X75246Y-49193D01*
X75262Y-49239D01*
X75263Y-49240D01*
X75298Y-49300D01*
X75322Y-49326D01*
X75349Y-49356D01*
X75350Y-49356D01*
X75404Y-49397D01*
X75405Y-49398D01*
X75428Y-49409D01*
X75472Y-49431D01*
X75474Y-49431D01*
X75537Y-49447D01*
X75540Y-49448D01*
X75541Y-49449D01*
X75612Y-49452D01*
X75616Y-49453D01*
X75616Y-49452D01*
X75617Y-49453D01*
X75687Y-49443D01*
X75687Y-49442D01*
X75688Y-49443D01*
X75713Y-49433D01*
X75759Y-49418D01*
X75760Y-49417D01*
X75760Y-49416D01*
X75819Y-49382D01*
X75820Y-49382D01*
X75846Y-49357D01*
X75876Y-49331D01*
X75876Y-49330D01*
X75917Y-49276D01*
X75918Y-49275D01*
X75929Y-49252D01*
X75951Y-49208D01*
X75951Y-49206D01*
X75956Y-49188D01*
X76193Y-49425D01*
X75865Y-49425D01*
X75797Y-49438D01*
X75784Y-49441D01*
X75716Y-49487D01*
X75502Y-49702D01*
X75456Y-49769D01*
X75453Y-49782D01*
X75440Y-49850D01*
X75440Y-50050D01*
X75453Y-50117D01*
X75456Y-50131D01*
X75502Y-50198D01*
X75606Y-50302D01*
X75606Y-50358D01*
X75643Y-50448D01*
X75625Y-50445D01*
X75623Y-50445D01*
X75622Y-50445D01*
X75554Y-50447D01*
X75552Y-50447D01*
X75551Y-50447D01*
X75509Y-50456D01*
X75479Y-50464D01*
X75477Y-50464D01*
X75477Y-50465D01*
X75412Y-50495D01*
X75372Y-50524D01*
X75353Y-50537D01*
X75350Y-50539D01*
X75350Y-50540D01*
X75349Y-50540D01*
X75304Y-50588D01*
X75263Y-50652D01*
X75262Y-50653D01*
X75262Y-50655D01*
X75237Y-50722D01*
X75229Y-50771D01*
X75225Y-50795D01*
X75225Y-50796D01*
X75225Y-50797D01*
X75227Y-50866D01*
X75227Y-50868D01*
X75235Y-50902D01*
X75244Y-50941D01*
X75244Y-50942D01*
X75245Y-50943D01*
X75272Y-51001D01*
X75273Y-51004D01*
X75274Y-51006D01*
X75275Y-51007D01*
X75277Y-51010D01*
X75317Y-51067D01*
X75320Y-51069D01*
X75367Y-51115D01*
X75369Y-51116D01*
X75370Y-51117D01*
X75432Y-51156D01*
X75435Y-51158D01*
X75500Y-51182D01*
X75501Y-51183D01*
X75554Y-51191D01*
X75575Y-51195D01*
X75576Y-51194D01*
X75577Y-51195D01*
X75577Y-51194D01*
X75646Y-51193D01*
X75646Y-51192D01*
X75648Y-51193D01*
X75682Y-51184D01*
X75721Y-51176D01*
X75722Y-51175D01*
X75723Y-51175D01*
X75781Y-51147D01*
X75784Y-51147D01*
X75786Y-51145D01*
X75787Y-51145D01*
X75790Y-51142D01*
X75847Y-51103D01*
X75849Y-51100D01*
X75895Y-51053D01*
X75896Y-51050D01*
X75897Y-51050D01*
X75936Y-50988D01*
X75938Y-50985D01*
X75962Y-50920D01*
X75963Y-50919D01*
X75971Y-50865D01*
X75975Y-50845D01*
X75974Y-50843D01*
X75975Y-50843D01*
X75974Y-50842D01*
X75973Y-50774D01*
X75972Y-50772D01*
X75973Y-50771D01*
X75963Y-50729D01*
X75956Y-50699D01*
X75955Y-50697D01*
X75926Y-50636D01*
X75925Y-50632D01*
X75897Y-50594D01*
X75958Y-50594D01*
X76066Y-50549D01*
X76149Y-50467D01*
X76194Y-50359D01*
X76194Y-50242D01*
X76159Y-50160D01*
X76598Y-50160D01*
X76598Y-50201D01*
X76598Y-50300D01*
X76557Y-50341D01*
X76519Y-50432D01*
X76519Y-50470D01*
X76580Y-50531D01*
X76729Y-50531D01*
X76734Y-50533D01*
X76802Y-50533D01*
X77280Y-50533D01*
X77280Y-50629D01*
X77280Y-50680D01*
X77280Y-50866D01*
X77342Y-50928D01*
X77734Y-50927D01*
X77751Y-50966D01*
X77759Y-50974D01*
X77701Y-51033D01*
X77656Y-51141D01*
X77656Y-51258D01*
X77701Y-51366D01*
X77783Y-51449D01*
X77891Y-51494D01*
X78008Y-51494D01*
X78116Y-51449D01*
X78199Y-51367D01*
X78205Y-51352D01*
X78205Y-51373D01*
X78164Y-51414D01*
X78126Y-51506D01*
X78125Y-51518D01*
X78187Y-51580D01*
X78255Y-51580D01*
X78274Y-51599D01*
G54D10*
G36*
X79450Y-47000D02*
X79350Y-47000D01*
X79350Y-46900D01*
X79450Y-46900D01*
X79450Y-47000D01*
X79450Y-47000D01*
G37*
G54D35*
X79450Y-47000D02*
X79350Y-47000D01*
X79350Y-46900D01*
X79450Y-46900D01*
X79450Y-47000D01*
G54D10*
G36*
X81500Y-57800D02*
X81400Y-57800D01*
X81400Y-57700D01*
X81500Y-57700D01*
X81500Y-57800D01*
X81500Y-57800D01*
G37*
G54D35*
X81500Y-57800D02*
X81400Y-57800D01*
X81400Y-57700D01*
X81500Y-57700D01*
X81500Y-57800D01*
G54D10*
G36*
X81927Y-49874D02*
X81914Y-49880D01*
X81873Y-49921D01*
X81824Y-49921D01*
X81762Y-49947D01*
X81714Y-49995D01*
X81688Y-50057D01*
X81688Y-50125D01*
X81688Y-50309D01*
X81209Y-50788D01*
X80957Y-50788D01*
X80944Y-50792D01*
X80899Y-50684D01*
X80817Y-50601D01*
X80709Y-50556D01*
X80652Y-50556D01*
X80086Y-49990D01*
X80019Y-49944D01*
X80005Y-49941D01*
X79938Y-49928D01*
X79674Y-49928D01*
X79480Y-49734D01*
X79549Y-49667D01*
X79594Y-49559D01*
X79594Y-49442D01*
X79549Y-49334D01*
X79540Y-49325D01*
X79549Y-49317D01*
X79594Y-49209D01*
X79594Y-49092D01*
X79549Y-48984D01*
X79508Y-48943D01*
X79544Y-48859D01*
X79544Y-48742D01*
X79499Y-48634D01*
X79417Y-48551D01*
X79309Y-48506D01*
X79253Y-48506D01*
X79294Y-48409D01*
X79294Y-48292D01*
X79249Y-48184D01*
X79167Y-48101D01*
X79059Y-48056D01*
X78942Y-48056D01*
X78834Y-48101D01*
X78751Y-48183D01*
X78706Y-48291D01*
X78706Y-48347D01*
X78618Y-48435D01*
X78341Y-48435D01*
X78279Y-48461D01*
X78231Y-48509D01*
X78210Y-48556D01*
X78209Y-48556D01*
X78092Y-48556D01*
X77984Y-48601D01*
X77901Y-48683D01*
X77856Y-48791D01*
X77856Y-48908D01*
X77901Y-49016D01*
X77983Y-49099D01*
X78091Y-49144D01*
X78208Y-49144D01*
X78209Y-49143D01*
X78210Y-49147D01*
X78205Y-49161D01*
X78205Y-49229D01*
X78205Y-49329D01*
X78211Y-49345D01*
X78205Y-49361D01*
X78205Y-49429D01*
X78205Y-49525D01*
X78159Y-49506D01*
X78042Y-49506D01*
X77934Y-49551D01*
X77862Y-49622D01*
X77862Y-49503D01*
X77851Y-49477D01*
X77862Y-49452D01*
X77862Y-49384D01*
X77862Y-49188D01*
X77836Y-49126D01*
X77788Y-49078D01*
X77726Y-49052D01*
X77658Y-49052D01*
X77239Y-49052D01*
X77230Y-49050D01*
X77085Y-49050D01*
X77085Y-48369D01*
X77085Y-48301D01*
X77085Y-47751D01*
X77059Y-47689D01*
X77011Y-47641D01*
X76949Y-47615D01*
X76881Y-47615D01*
X76800Y-47615D01*
X76800Y-46112D01*
X76800Y-45888D01*
X76799Y-45499D01*
X76799Y-45400D01*
X76761Y-45309D01*
X76691Y-45239D01*
X76599Y-45201D01*
X76312Y-45200D01*
X76250Y-45262D01*
X76250Y-45950D01*
X76738Y-45950D01*
X76800Y-45888D01*
X76800Y-46112D01*
X76738Y-46050D01*
X76250Y-46050D01*
X76250Y-46738D01*
X76312Y-46800D01*
X76599Y-46799D01*
X76691Y-46761D01*
X76761Y-46691D01*
X76799Y-46600D01*
X76799Y-46501D01*
X76800Y-46112D01*
X76800Y-47615D01*
X76251Y-47615D01*
X76189Y-47641D01*
X76141Y-47689D01*
X76115Y-47751D01*
X76115Y-47819D01*
X76115Y-48369D01*
X76141Y-48431D01*
X76189Y-48479D01*
X76251Y-48505D01*
X76319Y-48505D01*
X76949Y-48505D01*
X77011Y-48479D01*
X77059Y-48431D01*
X77085Y-48369D01*
X77085Y-49050D01*
X76582Y-49050D01*
X75795Y-48263D01*
X75795Y-47640D01*
X75846Y-47619D01*
X75894Y-47571D01*
X75920Y-47509D01*
X75920Y-47441D01*
X75920Y-46891D01*
X75894Y-46829D01*
X75864Y-46799D01*
X76088Y-46800D01*
X76150Y-46738D01*
X76150Y-46050D01*
X76150Y-45950D01*
X76150Y-45262D01*
X76088Y-45200D01*
X75801Y-45201D01*
X75709Y-45239D01*
X75639Y-45309D01*
X75601Y-45400D01*
X75601Y-45499D01*
X75600Y-45888D01*
X75662Y-45950D01*
X76150Y-45950D01*
X76150Y-46050D01*
X75662Y-46050D01*
X75600Y-46112D01*
X75601Y-46501D01*
X75601Y-46600D01*
X75639Y-46691D01*
X75703Y-46755D01*
X75400Y-46755D01*
X75400Y-44562D01*
X75400Y-44338D01*
X75399Y-43949D01*
X75399Y-43850D01*
X75361Y-43759D01*
X75291Y-43689D01*
X75199Y-43651D01*
X74912Y-43650D01*
X74850Y-43712D01*
X74850Y-44400D01*
X75338Y-44400D01*
X75400Y-44338D01*
X75400Y-44562D01*
X75338Y-44500D01*
X74850Y-44500D01*
X74850Y-45188D01*
X74912Y-45250D01*
X75199Y-45249D01*
X75291Y-45211D01*
X75361Y-45141D01*
X75399Y-45050D01*
X75399Y-44951D01*
X75400Y-44562D01*
X75400Y-46755D01*
X75266Y-46755D01*
X75204Y-46781D01*
X75156Y-46829D01*
X75130Y-46891D01*
X75130Y-46959D01*
X75130Y-47273D01*
X75070Y-47213D01*
X75070Y-46891D01*
X75044Y-46829D01*
X74996Y-46781D01*
X74945Y-46759D01*
X74945Y-46720D01*
X75184Y-46720D01*
X75246Y-46694D01*
X75294Y-46646D01*
X75320Y-46584D01*
X75320Y-46516D01*
X75320Y-45416D01*
X75294Y-45354D01*
X75246Y-45306D01*
X75184Y-45280D01*
X75116Y-45280D01*
X74416Y-45280D01*
X74354Y-45306D01*
X74306Y-45354D01*
X74280Y-45416D01*
X74280Y-45484D01*
X74280Y-46584D01*
X74306Y-46646D01*
X74354Y-46694D01*
X74405Y-46715D01*
X74405Y-46759D01*
X74354Y-46781D01*
X74306Y-46829D01*
X74280Y-46891D01*
X74280Y-46959D01*
X74280Y-47509D01*
X74306Y-47571D01*
X74350Y-47615D01*
X74245Y-47615D01*
X74245Y-45147D01*
X74309Y-45211D01*
X74401Y-45249D01*
X74688Y-45250D01*
X74750Y-45188D01*
X74750Y-44550D01*
X74750Y-44500D01*
X74750Y-44400D01*
X74750Y-44350D01*
X74750Y-43712D01*
X74688Y-43650D01*
X74401Y-43651D01*
X74309Y-43689D01*
X74245Y-43753D01*
X74245Y-41195D01*
X76990Y-41195D01*
X76952Y-41233D01*
X76880Y-41406D01*
X76880Y-41593D01*
X76951Y-41766D01*
X77083Y-41898D01*
X77256Y-41970D01*
X77443Y-41970D01*
X77500Y-41946D01*
X77583Y-42030D01*
X77016Y-42030D01*
X76954Y-42056D01*
X76906Y-42104D01*
X76880Y-42166D01*
X76880Y-42234D01*
X76880Y-42834D01*
X76906Y-42896D01*
X76954Y-42944D01*
X77016Y-42970D01*
X77084Y-42970D01*
X77523Y-42970D01*
X77846Y-43293D01*
X77694Y-43230D01*
X77507Y-43230D01*
X77334Y-43301D01*
X77202Y-43433D01*
X77130Y-43606D01*
X77130Y-43793D01*
X77201Y-43966D01*
X77333Y-44098D01*
X77506Y-44170D01*
X77693Y-44170D01*
X77866Y-44099D01*
X77998Y-43967D01*
X78070Y-43794D01*
X78070Y-43607D01*
X78007Y-43454D01*
X78100Y-43546D01*
X78100Y-43663D01*
X78126Y-43725D01*
X78174Y-43773D01*
X78236Y-43799D01*
X78304Y-43799D01*
X78560Y-43799D01*
X78585Y-43788D01*
X78611Y-43799D01*
X78679Y-43799D01*
X78875Y-43799D01*
X78900Y-43788D01*
X78925Y-43799D01*
X78993Y-43799D01*
X79189Y-43799D01*
X79214Y-43788D01*
X79240Y-43799D01*
X79308Y-43799D01*
X79562Y-43799D01*
X79563Y-43801D01*
X79496Y-43801D01*
X79240Y-43801D01*
X79214Y-43811D01*
X79189Y-43801D01*
X79121Y-43801D01*
X78925Y-43801D01*
X78900Y-43811D01*
X78875Y-43801D01*
X78807Y-43801D01*
X78611Y-43801D01*
X78585Y-43811D01*
X78560Y-43801D01*
X78492Y-43801D01*
X78236Y-43801D01*
X78174Y-43827D01*
X78126Y-43875D01*
X78100Y-43937D01*
X78100Y-44005D01*
X78100Y-44335D01*
X78056Y-44441D01*
X78056Y-44558D01*
X78101Y-44666D01*
X78183Y-44749D01*
X78291Y-44794D01*
X78408Y-44794D01*
X78516Y-44749D01*
X78524Y-44740D01*
X78533Y-44749D01*
X78641Y-44794D01*
X78697Y-44794D01*
X81043Y-47140D01*
X81000Y-47140D01*
X80938Y-47152D01*
X80931Y-47117D01*
X80929Y-47105D01*
X80929Y-47104D01*
X80883Y-47037D01*
X80883Y-47036D01*
X80648Y-46802D01*
X80581Y-46756D01*
X80567Y-46753D01*
X80500Y-46740D01*
X80445Y-46740D01*
X80445Y-46691D01*
X80419Y-46629D01*
X80371Y-46581D01*
X80309Y-46555D01*
X80241Y-46555D01*
X80001Y-46555D01*
X79548Y-46102D01*
X79481Y-46056D01*
X79467Y-46053D01*
X79400Y-46040D01*
X78143Y-46040D01*
X78051Y-46040D01*
X78066Y-46025D01*
X78033Y-45992D01*
X78072Y-45981D01*
X78143Y-45779D01*
X78132Y-45566D01*
X78072Y-45419D01*
X78070Y-45418D01*
X78070Y-44794D01*
X78070Y-44607D01*
X77999Y-44434D01*
X77867Y-44302D01*
X77694Y-44230D01*
X77507Y-44230D01*
X77334Y-44301D01*
X77202Y-44433D01*
X77130Y-44606D01*
X77130Y-44793D01*
X77201Y-44966D01*
X77333Y-45098D01*
X77497Y-45166D01*
X77466Y-45168D01*
X77319Y-45228D01*
X77292Y-45322D01*
X77600Y-45629D01*
X77908Y-45322D01*
X77881Y-45228D01*
X77703Y-45165D01*
X77866Y-45099D01*
X77998Y-44967D01*
X78070Y-44794D01*
X78070Y-45418D01*
X77978Y-45392D01*
X77671Y-45700D01*
X77600Y-45771D01*
X77529Y-45841D01*
X77529Y-45700D01*
X77222Y-45392D01*
X77128Y-45419D01*
X77094Y-45515D01*
X77094Y-44509D01*
X77094Y-44392D01*
X77049Y-44284D01*
X76967Y-44201D01*
X76859Y-44156D01*
X76742Y-44156D01*
X76720Y-44165D01*
X76720Y-43866D01*
X76694Y-43804D01*
X76646Y-43756D01*
X76584Y-43730D01*
X76516Y-43730D01*
X76391Y-43730D01*
X76391Y-42639D01*
X76391Y-42638D01*
X76391Y-42562D01*
X76391Y-42561D01*
X76353Y-42372D01*
X76353Y-42371D01*
X76324Y-42301D01*
X76324Y-42300D01*
X76322Y-42298D01*
X76217Y-42138D01*
X76163Y-42084D01*
X76161Y-42083D01*
X75999Y-41975D01*
X75928Y-41947D01*
X75738Y-41909D01*
X75662Y-41909D01*
X75661Y-41909D01*
X75471Y-41947D01*
X75400Y-41976D01*
X75398Y-41977D01*
X75238Y-42083D01*
X75184Y-42137D01*
X75183Y-42138D01*
X75183Y-42139D01*
X75075Y-42301D01*
X75047Y-42372D01*
X75009Y-42562D01*
X75009Y-42638D01*
X75047Y-42828D01*
X75075Y-42899D01*
X75183Y-43061D01*
X75184Y-43063D01*
X75238Y-43117D01*
X75398Y-43222D01*
X75400Y-43224D01*
X75401Y-43224D01*
X75471Y-43253D01*
X75472Y-43253D01*
X75661Y-43291D01*
X75662Y-43291D01*
X75738Y-43291D01*
X75928Y-43253D01*
X75999Y-43225D01*
X75999Y-43224D01*
X76161Y-43117D01*
X76161Y-43116D01*
X76163Y-43116D01*
X76215Y-43063D01*
X76217Y-43062D01*
X76322Y-42901D01*
X76324Y-42900D01*
X76324Y-42899D01*
X76353Y-42829D01*
X76353Y-42828D01*
X76391Y-42639D01*
X76391Y-43730D01*
X75816Y-43730D01*
X75754Y-43756D01*
X75706Y-43804D01*
X75680Y-43866D01*
X75680Y-43934D01*
X75680Y-45034D01*
X75706Y-45096D01*
X75754Y-45144D01*
X75816Y-45170D01*
X75884Y-45170D01*
X76584Y-45170D01*
X76646Y-45144D01*
X76694Y-45096D01*
X76720Y-45034D01*
X76720Y-44966D01*
X76720Y-44735D01*
X76741Y-44744D01*
X76858Y-44744D01*
X76966Y-44699D01*
X77049Y-44617D01*
X77094Y-44509D01*
X77094Y-45515D01*
X77057Y-45621D01*
X77068Y-45834D01*
X77128Y-45981D01*
X77222Y-46008D01*
X77529Y-45700D01*
X77529Y-45841D01*
X77292Y-46078D01*
X77319Y-46172D01*
X77496Y-46234D01*
X77334Y-46301D01*
X77202Y-46433D01*
X77130Y-46606D01*
X77130Y-46793D01*
X77201Y-46966D01*
X77333Y-47098D01*
X77506Y-47170D01*
X77693Y-47170D01*
X77866Y-47099D01*
X77998Y-46967D01*
X78070Y-46794D01*
X78070Y-46607D01*
X78046Y-46550D01*
X78136Y-46460D01*
X79313Y-46460D01*
X79328Y-46475D01*
X79300Y-46475D01*
X79300Y-46487D01*
X79288Y-46475D01*
X79176Y-46476D01*
X79100Y-46507D01*
X79025Y-46476D01*
X78926Y-46476D01*
X78862Y-46475D01*
X78800Y-46537D01*
X78800Y-46850D01*
X78975Y-46850D01*
X78975Y-46950D01*
X78850Y-46950D01*
X78800Y-46950D01*
X78700Y-46950D01*
X78700Y-46850D01*
X78700Y-46537D01*
X78638Y-46475D01*
X78574Y-46476D01*
X78475Y-46476D01*
X78384Y-46514D01*
X78314Y-46584D01*
X78276Y-46676D01*
X78275Y-46788D01*
X78337Y-46850D01*
X78700Y-46850D01*
X78700Y-46950D01*
X78650Y-46950D01*
X78337Y-46950D01*
X78275Y-47012D01*
X78276Y-47124D01*
X78314Y-47216D01*
X78384Y-47286D01*
X78412Y-47297D01*
X78381Y-47329D01*
X78355Y-47390D01*
X78070Y-47390D01*
X78070Y-47366D01*
X78044Y-47304D01*
X77996Y-47256D01*
X77934Y-47230D01*
X77866Y-47230D01*
X77266Y-47230D01*
X77204Y-47256D01*
X77156Y-47304D01*
X77130Y-47366D01*
X77130Y-47434D01*
X77130Y-48034D01*
X77156Y-48096D01*
X77204Y-48144D01*
X77266Y-48170D01*
X77334Y-48170D01*
X77934Y-48170D01*
X77996Y-48144D01*
X78044Y-48096D01*
X78070Y-48034D01*
X78070Y-47966D01*
X78070Y-47810D01*
X78355Y-47810D01*
X78381Y-47871D01*
X78429Y-47919D01*
X78491Y-47945D01*
X78559Y-47945D01*
X79009Y-47945D01*
X79071Y-47919D01*
X79119Y-47871D01*
X79144Y-47810D01*
X79293Y-47810D01*
X79335Y-47851D01*
X79335Y-48109D01*
X79361Y-48171D01*
X79409Y-48219D01*
X79471Y-48245D01*
X79523Y-48245D01*
X79564Y-48286D01*
X79655Y-48324D01*
X79655Y-48325D01*
X79740Y-48325D01*
X79740Y-48600D01*
X79753Y-48667D01*
X79756Y-48681D01*
X79802Y-48748D01*
X80356Y-49302D01*
X80356Y-49358D01*
X80401Y-49466D01*
X80483Y-49549D01*
X80591Y-49594D01*
X80708Y-49594D01*
X80816Y-49549D01*
X80899Y-49467D01*
X80944Y-49359D01*
X80944Y-49242D01*
X80907Y-49154D01*
X81251Y-49498D01*
X81252Y-49498D01*
X81297Y-49528D01*
X81319Y-49543D01*
X81320Y-49544D01*
X81399Y-49559D01*
X81400Y-49560D01*
X81613Y-49560D01*
X81927Y-49874D01*
X81927Y-49874D01*
G37*
G54D35*
X81927Y-49874D02*
X81914Y-49880D01*
X81873Y-49921D01*
X81824Y-49921D01*
X81762Y-49947D01*
X81714Y-49995D01*
X81688Y-50057D01*
X81688Y-50125D01*
X81688Y-50309D01*
X81209Y-50788D01*
X80957Y-50788D01*
X80944Y-50792D01*
X80899Y-50684D01*
X80817Y-50601D01*
X80709Y-50556D01*
X80652Y-50556D01*
X80086Y-49990D01*
X80019Y-49944D01*
X80005Y-49941D01*
X79938Y-49928D01*
X79674Y-49928D01*
X79480Y-49734D01*
X79549Y-49667D01*
X79594Y-49559D01*
X79594Y-49442D01*
X79549Y-49334D01*
X79540Y-49325D01*
X79549Y-49317D01*
X79594Y-49209D01*
X79594Y-49092D01*
X79549Y-48984D01*
X79508Y-48943D01*
X79544Y-48859D01*
X79544Y-48742D01*
X79499Y-48634D01*
X79417Y-48551D01*
X79309Y-48506D01*
X79253Y-48506D01*
X79294Y-48409D01*
X79294Y-48292D01*
X79249Y-48184D01*
X79167Y-48101D01*
X79059Y-48056D01*
X78942Y-48056D01*
X78834Y-48101D01*
X78751Y-48183D01*
X78706Y-48291D01*
X78706Y-48347D01*
X78618Y-48435D01*
X78341Y-48435D01*
X78279Y-48461D01*
X78231Y-48509D01*
X78210Y-48556D01*
X78209Y-48556D01*
X78092Y-48556D01*
X77984Y-48601D01*
X77901Y-48683D01*
X77856Y-48791D01*
X77856Y-48908D01*
X77901Y-49016D01*
X77983Y-49099D01*
X78091Y-49144D01*
X78208Y-49144D01*
X78209Y-49143D01*
X78210Y-49147D01*
X78205Y-49161D01*
X78205Y-49229D01*
X78205Y-49329D01*
X78211Y-49345D01*
X78205Y-49361D01*
X78205Y-49429D01*
X78205Y-49525D01*
X78159Y-49506D01*
X78042Y-49506D01*
X77934Y-49551D01*
X77862Y-49622D01*
X77862Y-49503D01*
X77851Y-49477D01*
X77862Y-49452D01*
X77862Y-49384D01*
X77862Y-49188D01*
X77836Y-49126D01*
X77788Y-49078D01*
X77726Y-49052D01*
X77658Y-49052D01*
X77239Y-49052D01*
X77230Y-49050D01*
X77085Y-49050D01*
X77085Y-48369D01*
X77085Y-48301D01*
X77085Y-47751D01*
X77059Y-47689D01*
X77011Y-47641D01*
X76949Y-47615D01*
X76881Y-47615D01*
X76800Y-47615D01*
X76800Y-46112D01*
X76800Y-45888D01*
X76799Y-45499D01*
X76799Y-45400D01*
X76761Y-45309D01*
X76691Y-45239D01*
X76599Y-45201D01*
X76312Y-45200D01*
X76250Y-45262D01*
X76250Y-45950D01*
X76738Y-45950D01*
X76800Y-45888D01*
X76800Y-46112D01*
X76738Y-46050D01*
X76250Y-46050D01*
X76250Y-46738D01*
X76312Y-46800D01*
X76599Y-46799D01*
X76691Y-46761D01*
X76761Y-46691D01*
X76799Y-46600D01*
X76799Y-46501D01*
X76800Y-46112D01*
X76800Y-47615D01*
X76251Y-47615D01*
X76189Y-47641D01*
X76141Y-47689D01*
X76115Y-47751D01*
X76115Y-47819D01*
X76115Y-48369D01*
X76141Y-48431D01*
X76189Y-48479D01*
X76251Y-48505D01*
X76319Y-48505D01*
X76949Y-48505D01*
X77011Y-48479D01*
X77059Y-48431D01*
X77085Y-48369D01*
X77085Y-49050D01*
X76582Y-49050D01*
X75795Y-48263D01*
X75795Y-47640D01*
X75846Y-47619D01*
X75894Y-47571D01*
X75920Y-47509D01*
X75920Y-47441D01*
X75920Y-46891D01*
X75894Y-46829D01*
X75864Y-46799D01*
X76088Y-46800D01*
X76150Y-46738D01*
X76150Y-46050D01*
X76150Y-45950D01*
X76150Y-45262D01*
X76088Y-45200D01*
X75801Y-45201D01*
X75709Y-45239D01*
X75639Y-45309D01*
X75601Y-45400D01*
X75601Y-45499D01*
X75600Y-45888D01*
X75662Y-45950D01*
X76150Y-45950D01*
X76150Y-46050D01*
X75662Y-46050D01*
X75600Y-46112D01*
X75601Y-46501D01*
X75601Y-46600D01*
X75639Y-46691D01*
X75703Y-46755D01*
X75400Y-46755D01*
X75400Y-44562D01*
X75400Y-44338D01*
X75399Y-43949D01*
X75399Y-43850D01*
X75361Y-43759D01*
X75291Y-43689D01*
X75199Y-43651D01*
X74912Y-43650D01*
X74850Y-43712D01*
X74850Y-44400D01*
X75338Y-44400D01*
X75400Y-44338D01*
X75400Y-44562D01*
X75338Y-44500D01*
X74850Y-44500D01*
X74850Y-45188D01*
X74912Y-45250D01*
X75199Y-45249D01*
X75291Y-45211D01*
X75361Y-45141D01*
X75399Y-45050D01*
X75399Y-44951D01*
X75400Y-44562D01*
X75400Y-46755D01*
X75266Y-46755D01*
X75204Y-46781D01*
X75156Y-46829D01*
X75130Y-46891D01*
X75130Y-46959D01*
X75130Y-47273D01*
X75070Y-47213D01*
X75070Y-46891D01*
X75044Y-46829D01*
X74996Y-46781D01*
X74945Y-46759D01*
X74945Y-46720D01*
X75184Y-46720D01*
X75246Y-46694D01*
X75294Y-46646D01*
X75320Y-46584D01*
X75320Y-46516D01*
X75320Y-45416D01*
X75294Y-45354D01*
X75246Y-45306D01*
X75184Y-45280D01*
X75116Y-45280D01*
X74416Y-45280D01*
X74354Y-45306D01*
X74306Y-45354D01*
X74280Y-45416D01*
X74280Y-45484D01*
X74280Y-46584D01*
X74306Y-46646D01*
X74354Y-46694D01*
X74405Y-46715D01*
X74405Y-46759D01*
X74354Y-46781D01*
X74306Y-46829D01*
X74280Y-46891D01*
X74280Y-46959D01*
X74280Y-47509D01*
X74306Y-47571D01*
X74350Y-47615D01*
X74245Y-47615D01*
X74245Y-45147D01*
X74309Y-45211D01*
X74401Y-45249D01*
X74688Y-45250D01*
X74750Y-45188D01*
X74750Y-44550D01*
X74750Y-44500D01*
X74750Y-44400D01*
X74750Y-44350D01*
X74750Y-43712D01*
X74688Y-43650D01*
X74401Y-43651D01*
X74309Y-43689D01*
X74245Y-43753D01*
X74245Y-41195D01*
X76990Y-41195D01*
X76952Y-41233D01*
X76880Y-41406D01*
X76880Y-41593D01*
X76951Y-41766D01*
X77083Y-41898D01*
X77256Y-41970D01*
X77443Y-41970D01*
X77500Y-41946D01*
X77583Y-42030D01*
X77016Y-42030D01*
X76954Y-42056D01*
X76906Y-42104D01*
X76880Y-42166D01*
X76880Y-42234D01*
X76880Y-42834D01*
X76906Y-42896D01*
X76954Y-42944D01*
X77016Y-42970D01*
X77084Y-42970D01*
X77523Y-42970D01*
X77846Y-43293D01*
X77694Y-43230D01*
X77507Y-43230D01*
X77334Y-43301D01*
X77202Y-43433D01*
X77130Y-43606D01*
X77130Y-43793D01*
X77201Y-43966D01*
X77333Y-44098D01*
X77506Y-44170D01*
X77693Y-44170D01*
X77866Y-44099D01*
X77998Y-43967D01*
X78070Y-43794D01*
X78070Y-43607D01*
X78007Y-43454D01*
X78100Y-43546D01*
X78100Y-43663D01*
X78126Y-43725D01*
X78174Y-43773D01*
X78236Y-43799D01*
X78304Y-43799D01*
X78560Y-43799D01*
X78585Y-43788D01*
X78611Y-43799D01*
X78679Y-43799D01*
X78875Y-43799D01*
X78900Y-43788D01*
X78925Y-43799D01*
X78993Y-43799D01*
X79189Y-43799D01*
X79214Y-43788D01*
X79240Y-43799D01*
X79308Y-43799D01*
X79562Y-43799D01*
X79563Y-43801D01*
X79496Y-43801D01*
X79240Y-43801D01*
X79214Y-43811D01*
X79189Y-43801D01*
X79121Y-43801D01*
X78925Y-43801D01*
X78900Y-43811D01*
X78875Y-43801D01*
X78807Y-43801D01*
X78611Y-43801D01*
X78585Y-43811D01*
X78560Y-43801D01*
X78492Y-43801D01*
X78236Y-43801D01*
X78174Y-43827D01*
X78126Y-43875D01*
X78100Y-43937D01*
X78100Y-44005D01*
X78100Y-44335D01*
X78056Y-44441D01*
X78056Y-44558D01*
X78101Y-44666D01*
X78183Y-44749D01*
X78291Y-44794D01*
X78408Y-44794D01*
X78516Y-44749D01*
X78524Y-44740D01*
X78533Y-44749D01*
X78641Y-44794D01*
X78697Y-44794D01*
X81043Y-47140D01*
X81000Y-47140D01*
X80938Y-47152D01*
X80931Y-47117D01*
X80929Y-47105D01*
X80929Y-47104D01*
X80883Y-47037D01*
X80883Y-47036D01*
X80648Y-46802D01*
X80581Y-46756D01*
X80567Y-46753D01*
X80500Y-46740D01*
X80445Y-46740D01*
X80445Y-46691D01*
X80419Y-46629D01*
X80371Y-46581D01*
X80309Y-46555D01*
X80241Y-46555D01*
X80001Y-46555D01*
X79548Y-46102D01*
X79481Y-46056D01*
X79467Y-46053D01*
X79400Y-46040D01*
X78143Y-46040D01*
X78051Y-46040D01*
X78066Y-46025D01*
X78033Y-45992D01*
X78072Y-45981D01*
X78143Y-45779D01*
X78132Y-45566D01*
X78072Y-45419D01*
X78070Y-45418D01*
X78070Y-44794D01*
X78070Y-44607D01*
X77999Y-44434D01*
X77867Y-44302D01*
X77694Y-44230D01*
X77507Y-44230D01*
X77334Y-44301D01*
X77202Y-44433D01*
X77130Y-44606D01*
X77130Y-44793D01*
X77201Y-44966D01*
X77333Y-45098D01*
X77497Y-45166D01*
X77466Y-45168D01*
X77319Y-45228D01*
X77292Y-45322D01*
X77600Y-45629D01*
X77908Y-45322D01*
X77881Y-45228D01*
X77703Y-45165D01*
X77866Y-45099D01*
X77998Y-44967D01*
X78070Y-44794D01*
X78070Y-45418D01*
X77978Y-45392D01*
X77671Y-45700D01*
X77600Y-45771D01*
X77529Y-45841D01*
X77529Y-45700D01*
X77222Y-45392D01*
X77128Y-45419D01*
X77094Y-45515D01*
X77094Y-44509D01*
X77094Y-44392D01*
X77049Y-44284D01*
X76967Y-44201D01*
X76859Y-44156D01*
X76742Y-44156D01*
X76720Y-44165D01*
X76720Y-43866D01*
X76694Y-43804D01*
X76646Y-43756D01*
X76584Y-43730D01*
X76516Y-43730D01*
X76391Y-43730D01*
X76391Y-42639D01*
X76391Y-42638D01*
X76391Y-42562D01*
X76391Y-42561D01*
X76353Y-42372D01*
X76353Y-42371D01*
X76324Y-42301D01*
X76324Y-42300D01*
X76322Y-42298D01*
X76217Y-42138D01*
X76163Y-42084D01*
X76161Y-42083D01*
X75999Y-41975D01*
X75928Y-41947D01*
X75738Y-41909D01*
X75662Y-41909D01*
X75661Y-41909D01*
X75471Y-41947D01*
X75400Y-41976D01*
X75398Y-41977D01*
X75238Y-42083D01*
X75184Y-42137D01*
X75183Y-42138D01*
X75183Y-42139D01*
X75075Y-42301D01*
X75047Y-42372D01*
X75009Y-42562D01*
X75009Y-42638D01*
X75047Y-42828D01*
X75075Y-42899D01*
X75183Y-43061D01*
X75184Y-43063D01*
X75238Y-43117D01*
X75398Y-43222D01*
X75400Y-43224D01*
X75401Y-43224D01*
X75471Y-43253D01*
X75472Y-43253D01*
X75661Y-43291D01*
X75662Y-43291D01*
X75738Y-43291D01*
X75928Y-43253D01*
X75999Y-43225D01*
X75999Y-43224D01*
X76161Y-43117D01*
X76161Y-43116D01*
X76163Y-43116D01*
X76215Y-43063D01*
X76217Y-43062D01*
X76322Y-42901D01*
X76324Y-42900D01*
X76324Y-42899D01*
X76353Y-42829D01*
X76353Y-42828D01*
X76391Y-42639D01*
X76391Y-43730D01*
X75816Y-43730D01*
X75754Y-43756D01*
X75706Y-43804D01*
X75680Y-43866D01*
X75680Y-43934D01*
X75680Y-45034D01*
X75706Y-45096D01*
X75754Y-45144D01*
X75816Y-45170D01*
X75884Y-45170D01*
X76584Y-45170D01*
X76646Y-45144D01*
X76694Y-45096D01*
X76720Y-45034D01*
X76720Y-44966D01*
X76720Y-44735D01*
X76741Y-44744D01*
X76858Y-44744D01*
X76966Y-44699D01*
X77049Y-44617D01*
X77094Y-44509D01*
X77094Y-45515D01*
X77057Y-45621D01*
X77068Y-45834D01*
X77128Y-45981D01*
X77222Y-46008D01*
X77529Y-45700D01*
X77529Y-45841D01*
X77292Y-46078D01*
X77319Y-46172D01*
X77496Y-46234D01*
X77334Y-46301D01*
X77202Y-46433D01*
X77130Y-46606D01*
X77130Y-46793D01*
X77201Y-46966D01*
X77333Y-47098D01*
X77506Y-47170D01*
X77693Y-47170D01*
X77866Y-47099D01*
X77998Y-46967D01*
X78070Y-46794D01*
X78070Y-46607D01*
X78046Y-46550D01*
X78136Y-46460D01*
X79313Y-46460D01*
X79328Y-46475D01*
X79300Y-46475D01*
X79300Y-46487D01*
X79288Y-46475D01*
X79176Y-46476D01*
X79100Y-46507D01*
X79025Y-46476D01*
X78926Y-46476D01*
X78862Y-46475D01*
X78800Y-46537D01*
X78800Y-46850D01*
X78975Y-46850D01*
X78975Y-46950D01*
X78850Y-46950D01*
X78800Y-46950D01*
X78700Y-46950D01*
X78700Y-46850D01*
X78700Y-46537D01*
X78638Y-46475D01*
X78574Y-46476D01*
X78475Y-46476D01*
X78384Y-46514D01*
X78314Y-46584D01*
X78276Y-46676D01*
X78275Y-46788D01*
X78337Y-46850D01*
X78700Y-46850D01*
X78700Y-46950D01*
X78650Y-46950D01*
X78337Y-46950D01*
X78275Y-47012D01*
X78276Y-47124D01*
X78314Y-47216D01*
X78384Y-47286D01*
X78412Y-47297D01*
X78381Y-47329D01*
X78355Y-47390D01*
X78070Y-47390D01*
X78070Y-47366D01*
X78044Y-47304D01*
X77996Y-47256D01*
X77934Y-47230D01*
X77866Y-47230D01*
X77266Y-47230D01*
X77204Y-47256D01*
X77156Y-47304D01*
X77130Y-47366D01*
X77130Y-47434D01*
X77130Y-48034D01*
X77156Y-48096D01*
X77204Y-48144D01*
X77266Y-48170D01*
X77334Y-48170D01*
X77934Y-48170D01*
X77996Y-48144D01*
X78044Y-48096D01*
X78070Y-48034D01*
X78070Y-47966D01*
X78070Y-47810D01*
X78355Y-47810D01*
X78381Y-47871D01*
X78429Y-47919D01*
X78491Y-47945D01*
X78559Y-47945D01*
X79009Y-47945D01*
X79071Y-47919D01*
X79119Y-47871D01*
X79144Y-47810D01*
X79293Y-47810D01*
X79335Y-47851D01*
X79335Y-48109D01*
X79361Y-48171D01*
X79409Y-48219D01*
X79471Y-48245D01*
X79523Y-48245D01*
X79564Y-48286D01*
X79655Y-48324D01*
X79655Y-48325D01*
X79740Y-48325D01*
X79740Y-48600D01*
X79753Y-48667D01*
X79756Y-48681D01*
X79802Y-48748D01*
X80356Y-49302D01*
X80356Y-49358D01*
X80401Y-49466D01*
X80483Y-49549D01*
X80591Y-49594D01*
X80708Y-49594D01*
X80816Y-49549D01*
X80899Y-49467D01*
X80944Y-49359D01*
X80944Y-49242D01*
X80907Y-49154D01*
X81251Y-49498D01*
X81252Y-49498D01*
X81297Y-49528D01*
X81319Y-49543D01*
X81320Y-49544D01*
X81399Y-49559D01*
X81400Y-49560D01*
X81613Y-49560D01*
X81927Y-49874D01*
G54D10*
G36*
X82369Y-51115D02*
X82301Y-51183D01*
X82256Y-51291D01*
X82256Y-51408D01*
X82301Y-51516D01*
X82309Y-51524D01*
X82301Y-51533D01*
X82256Y-51641D01*
X82256Y-51700D01*
X82249Y-51684D01*
X82167Y-51601D01*
X82127Y-51584D01*
X82127Y-50913D01*
X82167Y-50913D01*
X82369Y-51115D01*
X82369Y-51115D01*
G37*
G54D35*
X82369Y-51115D02*
X82301Y-51183D01*
X82256Y-51291D01*
X82256Y-51408D01*
X82301Y-51516D01*
X82309Y-51524D01*
X82301Y-51533D01*
X82256Y-51641D01*
X82256Y-51700D01*
X82249Y-51684D01*
X82167Y-51601D01*
X82127Y-51584D01*
X82127Y-50913D01*
X82167Y-50913D01*
X82369Y-51115D01*
G54D10*
G36*
X83590Y-53369D02*
X83585Y-53367D01*
X83536Y-53367D01*
X83495Y-53326D01*
X83403Y-53288D01*
X83386Y-53287D01*
X83324Y-53349D01*
X83324Y-53406D01*
X83295Y-53435D01*
X83266Y-53406D01*
X83266Y-53349D01*
X83204Y-53287D01*
X83187Y-53288D01*
X83095Y-53326D01*
X83054Y-53367D01*
X83005Y-53367D01*
X83000Y-53369D01*
X82995Y-53367D01*
X82927Y-53367D01*
X82809Y-53367D01*
X82803Y-53369D01*
X82798Y-53367D01*
X82730Y-53367D01*
X82612Y-53367D01*
X82606Y-53369D01*
X82601Y-53367D01*
X82533Y-53367D01*
X82415Y-53367D01*
X82409Y-53369D01*
X82404Y-53367D01*
X82336Y-53367D01*
X82218Y-53367D01*
X82212Y-53369D01*
X82207Y-53367D01*
X82139Y-53367D01*
X82021Y-53367D01*
X82015Y-53369D01*
X82010Y-53367D01*
X81942Y-53367D01*
X81824Y-53367D01*
X81762Y-53393D01*
X81714Y-53441D01*
X81688Y-53503D01*
X81688Y-53571D01*
X81688Y-53613D01*
X81577Y-53613D01*
X81497Y-53629D01*
X81474Y-53644D01*
X81428Y-53675D01*
X79407Y-55697D01*
X79361Y-55764D01*
X79358Y-55777D01*
X79345Y-55845D01*
X79345Y-56034D01*
X79325Y-56026D01*
X79226Y-56026D01*
X79162Y-56025D01*
X79100Y-56087D01*
X79100Y-56350D01*
X79100Y-56400D01*
X79100Y-56500D01*
X79000Y-56500D01*
X79000Y-56400D01*
X79000Y-56350D01*
X79000Y-56087D01*
X78938Y-56025D01*
X78874Y-56026D01*
X78775Y-56026D01*
X78684Y-56064D01*
X78643Y-56105D01*
X78610Y-56105D01*
X78610Y-55906D01*
X78751Y-55765D01*
X79009Y-55765D01*
X79032Y-55755D01*
X79155Y-55755D01*
X79155Y-55754D01*
X79222Y-55741D01*
X79235Y-55739D01*
X79236Y-55739D01*
X79303Y-55693D01*
X79996Y-55001D01*
X79996Y-55000D01*
X80042Y-54933D01*
X80042Y-54932D01*
X80044Y-54919D01*
X80057Y-54852D01*
X80058Y-54852D01*
X80058Y-54388D01*
X80415Y-54030D01*
X80483Y-54099D01*
X80591Y-54144D01*
X80708Y-54144D01*
X80816Y-54099D01*
X80899Y-54017D01*
X80944Y-53909D01*
X80944Y-53792D01*
X80899Y-53684D01*
X80831Y-53615D01*
X81034Y-53412D01*
X81597Y-53412D01*
X81659Y-53386D01*
X81707Y-53338D01*
X81733Y-53276D01*
X81733Y-53208D01*
X81733Y-53090D01*
X81730Y-53084D01*
X81733Y-53079D01*
X81733Y-53011D01*
X81733Y-52893D01*
X81730Y-52887D01*
X81733Y-52882D01*
X81733Y-52814D01*
X81733Y-52802D01*
X81758Y-52802D01*
X81758Y-52801D01*
X81825Y-52788D01*
X81838Y-52786D01*
X81839Y-52786D01*
X81906Y-52740D01*
X82148Y-52499D01*
X82148Y-52498D01*
X82194Y-52431D01*
X82194Y-52430D01*
X82196Y-52417D01*
X82209Y-52350D01*
X82210Y-52350D01*
X82210Y-52055D01*
X82249Y-52017D01*
X82256Y-52000D01*
X82256Y-52108D01*
X82301Y-52216D01*
X82383Y-52299D01*
X82491Y-52344D01*
X82547Y-52344D01*
X83534Y-53331D01*
X83535Y-53331D01*
X83590Y-53369D01*
X83590Y-53369D01*
G37*
G54D35*
X83590Y-53369D02*
X83585Y-53367D01*
X83536Y-53367D01*
X83495Y-53326D01*
X83403Y-53288D01*
X83386Y-53287D01*
X83324Y-53349D01*
X83324Y-53406D01*
X83295Y-53435D01*
X83266Y-53406D01*
X83266Y-53349D01*
X83204Y-53287D01*
X83187Y-53288D01*
X83095Y-53326D01*
X83054Y-53367D01*
X83005Y-53367D01*
X83000Y-53369D01*
X82995Y-53367D01*
X82927Y-53367D01*
X82809Y-53367D01*
X82803Y-53369D01*
X82798Y-53367D01*
X82730Y-53367D01*
X82612Y-53367D01*
X82606Y-53369D01*
X82601Y-53367D01*
X82533Y-53367D01*
X82415Y-53367D01*
X82409Y-53369D01*
X82404Y-53367D01*
X82336Y-53367D01*
X82218Y-53367D01*
X82212Y-53369D01*
X82207Y-53367D01*
X82139Y-53367D01*
X82021Y-53367D01*
X82015Y-53369D01*
X82010Y-53367D01*
X81942Y-53367D01*
X81824Y-53367D01*
X81762Y-53393D01*
X81714Y-53441D01*
X81688Y-53503D01*
X81688Y-53571D01*
X81688Y-53613D01*
X81577Y-53613D01*
X81497Y-53629D01*
X81474Y-53644D01*
X81428Y-53675D01*
X79407Y-55697D01*
X79361Y-55764D01*
X79358Y-55777D01*
X79345Y-55845D01*
X79345Y-56034D01*
X79325Y-56026D01*
X79226Y-56026D01*
X79162Y-56025D01*
X79100Y-56087D01*
X79100Y-56350D01*
X79100Y-56400D01*
X79100Y-56500D01*
X79000Y-56500D01*
X79000Y-56400D01*
X79000Y-56350D01*
X79000Y-56087D01*
X78938Y-56025D01*
X78874Y-56026D01*
X78775Y-56026D01*
X78684Y-56064D01*
X78643Y-56105D01*
X78610Y-56105D01*
X78610Y-55906D01*
X78751Y-55765D01*
X79009Y-55765D01*
X79032Y-55755D01*
X79155Y-55755D01*
X79155Y-55754D01*
X79222Y-55741D01*
X79235Y-55739D01*
X79236Y-55739D01*
X79303Y-55693D01*
X79996Y-55001D01*
X79996Y-55000D01*
X80042Y-54933D01*
X80042Y-54932D01*
X80044Y-54919D01*
X80057Y-54852D01*
X80058Y-54852D01*
X80058Y-54388D01*
X80415Y-54030D01*
X80483Y-54099D01*
X80591Y-54144D01*
X80708Y-54144D01*
X80816Y-54099D01*
X80899Y-54017D01*
X80944Y-53909D01*
X80944Y-53792D01*
X80899Y-53684D01*
X80831Y-53615D01*
X81034Y-53412D01*
X81597Y-53412D01*
X81659Y-53386D01*
X81707Y-53338D01*
X81733Y-53276D01*
X81733Y-53208D01*
X81733Y-53090D01*
X81730Y-53084D01*
X81733Y-53079D01*
X81733Y-53011D01*
X81733Y-52893D01*
X81730Y-52887D01*
X81733Y-52882D01*
X81733Y-52814D01*
X81733Y-52802D01*
X81758Y-52802D01*
X81758Y-52801D01*
X81825Y-52788D01*
X81838Y-52786D01*
X81839Y-52786D01*
X81906Y-52740D01*
X82148Y-52499D01*
X82148Y-52498D01*
X82194Y-52431D01*
X82194Y-52430D01*
X82196Y-52417D01*
X82209Y-52350D01*
X82210Y-52350D01*
X82210Y-52055D01*
X82249Y-52017D01*
X82256Y-52000D01*
X82256Y-52108D01*
X82301Y-52216D01*
X82383Y-52299D01*
X82491Y-52344D01*
X82547Y-52344D01*
X83534Y-53331D01*
X83535Y-53331D01*
X83590Y-53369D01*
G54D10*
G36*
X84670Y-50514D02*
X84601Y-50583D01*
X84556Y-50691D01*
X84556Y-50756D01*
X84534Y-50788D01*
X84403Y-50788D01*
X84341Y-50814D01*
X84293Y-50862D01*
X84267Y-50924D01*
X84267Y-50973D01*
X84226Y-51014D01*
X84188Y-51105D01*
X84188Y-51114D01*
X84187Y-51114D01*
X84187Y-51206D01*
X84092Y-51206D01*
X83984Y-51251D01*
X83901Y-51333D01*
X83856Y-51441D01*
X83856Y-51456D01*
X83842Y-51456D01*
X83734Y-51501D01*
X83665Y-51568D01*
X83466Y-51369D01*
X83516Y-51349D01*
X83524Y-51340D01*
X83533Y-51349D01*
X83641Y-51394D01*
X83758Y-51394D01*
X83866Y-51349D01*
X83949Y-51267D01*
X83994Y-51159D01*
X83994Y-51102D01*
X84034Y-51063D01*
X84034Y-51062D01*
X84080Y-50995D01*
X84080Y-50994D01*
X84082Y-50981D01*
X84095Y-50914D01*
X84096Y-50914D01*
X84096Y-50833D01*
X84176Y-50833D01*
X84238Y-50807D01*
X84286Y-50759D01*
X84312Y-50697D01*
X84312Y-50629D01*
X84312Y-50565D01*
X84312Y-50564D01*
X84371Y-50525D01*
X84530Y-50365D01*
X84551Y-50416D01*
X84633Y-50499D01*
X84670Y-50514D01*
X84670Y-50514D01*
G37*
G54D35*
X84670Y-50514D02*
X84601Y-50583D01*
X84556Y-50691D01*
X84556Y-50756D01*
X84534Y-50788D01*
X84403Y-50788D01*
X84341Y-50814D01*
X84293Y-50862D01*
X84267Y-50924D01*
X84267Y-50973D01*
X84226Y-51014D01*
X84188Y-51105D01*
X84188Y-51114D01*
X84187Y-51114D01*
X84187Y-51206D01*
X84092Y-51206D01*
X83984Y-51251D01*
X83901Y-51333D01*
X83856Y-51441D01*
X83856Y-51456D01*
X83842Y-51456D01*
X83734Y-51501D01*
X83665Y-51568D01*
X83466Y-51369D01*
X83516Y-51349D01*
X83524Y-51340D01*
X83533Y-51349D01*
X83641Y-51394D01*
X83758Y-51394D01*
X83866Y-51349D01*
X83949Y-51267D01*
X83994Y-51159D01*
X83994Y-51102D01*
X84034Y-51063D01*
X84034Y-51062D01*
X84080Y-50995D01*
X84080Y-50994D01*
X84082Y-50981D01*
X84095Y-50914D01*
X84096Y-50914D01*
X84096Y-50833D01*
X84176Y-50833D01*
X84238Y-50807D01*
X84286Y-50759D01*
X84312Y-50697D01*
X84312Y-50629D01*
X84312Y-50565D01*
X84312Y-50564D01*
X84371Y-50525D01*
X84530Y-50365D01*
X84551Y-50416D01*
X84633Y-50499D01*
X84670Y-50514D01*
G54D10*
G36*
X84855Y-48698D02*
X84455Y-49098D01*
X84449Y-49084D01*
X84367Y-49001D01*
X84364Y-48999D01*
X84366Y-48999D01*
X84449Y-48917D01*
X84494Y-48809D01*
X84494Y-48692D01*
X84449Y-48584D01*
X84367Y-48501D01*
X84259Y-48456D01*
X84244Y-48456D01*
X84244Y-48442D01*
X84199Y-48334D01*
X84189Y-48324D01*
X84194Y-48324D01*
X84255Y-48263D01*
X84255Y-48195D01*
X84279Y-48171D01*
X84280Y-48168D01*
X84281Y-48171D01*
X84305Y-48195D01*
X84305Y-48263D01*
X84366Y-48324D01*
X84380Y-48324D01*
X84456Y-48292D01*
X84456Y-48358D01*
X84501Y-48466D01*
X84583Y-48549D01*
X84691Y-48594D01*
X84808Y-48594D01*
X84855Y-48574D01*
X84855Y-48698D01*
X84855Y-48698D01*
G37*
G54D35*
X84855Y-48698D02*
X84455Y-49098D01*
X84449Y-49084D01*
X84367Y-49001D01*
X84364Y-48999D01*
X84366Y-48999D01*
X84449Y-48917D01*
X84494Y-48809D01*
X84494Y-48692D01*
X84449Y-48584D01*
X84367Y-48501D01*
X84259Y-48456D01*
X84244Y-48456D01*
X84244Y-48442D01*
X84199Y-48334D01*
X84189Y-48324D01*
X84194Y-48324D01*
X84255Y-48263D01*
X84255Y-48195D01*
X84279Y-48171D01*
X84280Y-48168D01*
X84281Y-48171D01*
X84305Y-48195D01*
X84305Y-48263D01*
X84366Y-48324D01*
X84380Y-48324D01*
X84456Y-48292D01*
X84456Y-48358D01*
X84501Y-48466D01*
X84583Y-48549D01*
X84691Y-48594D01*
X84808Y-48594D01*
X84855Y-48574D01*
X84855Y-48698D01*
G54D10*
G36*
X85419Y-55515D02*
X85351Y-55583D01*
X85341Y-55606D01*
X85242Y-55606D01*
X85134Y-55651D01*
X85125Y-55659D01*
X85117Y-55651D01*
X85009Y-55606D01*
X84892Y-55606D01*
X84784Y-55651D01*
X84743Y-55691D01*
X84682Y-55703D01*
X84669Y-55706D01*
X84601Y-55752D01*
X84527Y-55827D01*
X84481Y-55894D01*
X84478Y-55907D01*
X84476Y-55919D01*
X84471Y-55914D01*
X84380Y-55876D01*
X84380Y-55875D01*
X84337Y-55875D01*
X84344Y-55859D01*
X84344Y-55742D01*
X84299Y-55634D01*
X84217Y-55551D01*
X84144Y-55520D01*
X84144Y-55442D01*
X84099Y-55334D01*
X84017Y-55251D01*
X83909Y-55206D01*
X83792Y-55206D01*
X83741Y-55226D01*
X83667Y-55151D01*
X83559Y-55106D01*
X83442Y-55106D01*
X83334Y-55151D01*
X83325Y-55159D01*
X83317Y-55151D01*
X83209Y-55106D01*
X83092Y-55106D01*
X82984Y-55151D01*
X82975Y-55159D01*
X82967Y-55151D01*
X82916Y-55129D01*
X83246Y-54801D01*
X83246Y-54800D01*
X83276Y-54755D01*
X83291Y-54733D01*
X83292Y-54732D01*
X83307Y-54653D01*
X83308Y-54652D01*
X83308Y-54587D01*
X83344Y-54640D01*
X83751Y-55048D01*
X83752Y-55048D01*
X83797Y-55078D01*
X83819Y-55093D01*
X83820Y-55094D01*
X83899Y-55109D01*
X83900Y-55110D01*
X84544Y-55110D01*
X84583Y-55149D01*
X84691Y-55194D01*
X84808Y-55194D01*
X84916Y-55149D01*
X84955Y-55110D01*
X85013Y-55110D01*
X85419Y-55515D01*
X85419Y-55515D01*
G37*
G54D35*
X85419Y-55515D02*
X85351Y-55583D01*
X85341Y-55606D01*
X85242Y-55606D01*
X85134Y-55651D01*
X85125Y-55659D01*
X85117Y-55651D01*
X85009Y-55606D01*
X84892Y-55606D01*
X84784Y-55651D01*
X84743Y-55691D01*
X84682Y-55703D01*
X84669Y-55706D01*
X84601Y-55752D01*
X84527Y-55827D01*
X84481Y-55894D01*
X84478Y-55907D01*
X84476Y-55919D01*
X84471Y-55914D01*
X84380Y-55876D01*
X84380Y-55875D01*
X84337Y-55875D01*
X84344Y-55859D01*
X84344Y-55742D01*
X84299Y-55634D01*
X84217Y-55551D01*
X84144Y-55520D01*
X84144Y-55442D01*
X84099Y-55334D01*
X84017Y-55251D01*
X83909Y-55206D01*
X83792Y-55206D01*
X83741Y-55226D01*
X83667Y-55151D01*
X83559Y-55106D01*
X83442Y-55106D01*
X83334Y-55151D01*
X83325Y-55159D01*
X83317Y-55151D01*
X83209Y-55106D01*
X83092Y-55106D01*
X82984Y-55151D01*
X82975Y-55159D01*
X82967Y-55151D01*
X82916Y-55129D01*
X83246Y-54801D01*
X83246Y-54800D01*
X83276Y-54755D01*
X83291Y-54733D01*
X83292Y-54732D01*
X83307Y-54653D01*
X83308Y-54652D01*
X83308Y-54587D01*
X83344Y-54640D01*
X83751Y-55048D01*
X83752Y-55048D01*
X83797Y-55078D01*
X83819Y-55093D01*
X83820Y-55094D01*
X83899Y-55109D01*
X83900Y-55110D01*
X84544Y-55110D01*
X84583Y-55149D01*
X84691Y-55194D01*
X84808Y-55194D01*
X84916Y-55149D01*
X84955Y-55110D01*
X85013Y-55110D01*
X85419Y-55515D01*
G54D10*
G36*
X86162Y-58097D02*
X86131Y-58129D01*
X86125Y-58143D01*
X86119Y-58129D01*
X86071Y-58081D01*
X86009Y-58055D01*
X85941Y-58055D01*
X85491Y-58055D01*
X85429Y-58081D01*
X85381Y-58129D01*
X85355Y-58191D01*
X85355Y-58259D01*
X85355Y-58609D01*
X85381Y-58671D01*
X85415Y-58705D01*
X84940Y-58705D01*
X84974Y-58624D01*
X84975Y-58512D01*
X84913Y-58450D01*
X84600Y-58450D01*
X84550Y-58450D01*
X84450Y-58450D01*
X84400Y-58450D01*
X84087Y-58450D01*
X84025Y-58512D01*
X84026Y-58624D01*
X84059Y-58705D01*
X82625Y-58705D01*
X82645Y-58659D01*
X82645Y-58591D01*
X82645Y-58241D01*
X82619Y-58179D01*
X82571Y-58131D01*
X82509Y-58105D01*
X82441Y-58105D01*
X81991Y-58105D01*
X81929Y-58131D01*
X81881Y-58179D01*
X81855Y-58240D01*
X81844Y-58240D01*
X81819Y-58179D01*
X81787Y-58147D01*
X81816Y-58136D01*
X81886Y-58066D01*
X81897Y-58037D01*
X81929Y-58069D01*
X81991Y-58095D01*
X82059Y-58095D01*
X82509Y-58095D01*
X82571Y-58069D01*
X82619Y-58021D01*
X82645Y-57959D01*
X82645Y-57891D01*
X82645Y-57541D01*
X82619Y-57479D01*
X82577Y-57437D01*
X82599Y-57417D01*
X82644Y-57309D01*
X82644Y-57229D01*
X82716Y-57199D01*
X82799Y-57117D01*
X82844Y-57009D01*
X82844Y-56895D01*
X82884Y-56895D01*
X82984Y-56895D01*
X83000Y-56888D01*
X83016Y-56895D01*
X83084Y-56895D01*
X83184Y-56895D01*
X83197Y-56889D01*
X83211Y-56895D01*
X83279Y-56895D01*
X83379Y-56895D01*
X83395Y-56888D01*
X83411Y-56895D01*
X83479Y-56895D01*
X83579Y-56895D01*
X83592Y-56889D01*
X83606Y-56895D01*
X83674Y-56895D01*
X83756Y-56895D01*
X83756Y-56958D01*
X83801Y-57066D01*
X83883Y-57149D01*
X83991Y-57194D01*
X84108Y-57194D01*
X84216Y-57149D01*
X84275Y-57090D01*
X84290Y-57105D01*
X84290Y-57355D01*
X84241Y-57355D01*
X84179Y-57381D01*
X84131Y-57429D01*
X84105Y-57491D01*
X84105Y-57559D01*
X84105Y-57909D01*
X84131Y-57971D01*
X84162Y-58002D01*
X84134Y-58014D01*
X84064Y-58084D01*
X84026Y-58176D01*
X84025Y-58288D01*
X84087Y-58350D01*
X84400Y-58350D01*
X84450Y-58350D01*
X84550Y-58350D01*
X84600Y-58350D01*
X84913Y-58350D01*
X84975Y-58288D01*
X84974Y-58176D01*
X84936Y-58084D01*
X84866Y-58014D01*
X84837Y-58002D01*
X84869Y-57971D01*
X84895Y-57909D01*
X84895Y-57841D01*
X84895Y-57491D01*
X84869Y-57429D01*
X84821Y-57381D01*
X84759Y-57355D01*
X84710Y-57355D01*
X84710Y-57105D01*
X84734Y-57080D01*
X84975Y-57322D01*
X84976Y-57322D01*
X85043Y-57368D01*
X85044Y-57368D01*
X85056Y-57370D01*
X85104Y-57380D01*
X85051Y-57433D01*
X85006Y-57541D01*
X85006Y-57658D01*
X85051Y-57766D01*
X85133Y-57849D01*
X85241Y-57894D01*
X85320Y-57894D01*
X85324Y-57894D01*
X85355Y-57901D01*
X85355Y-57909D01*
X85381Y-57971D01*
X85429Y-58019D01*
X85491Y-58045D01*
X85559Y-58045D01*
X86009Y-58045D01*
X86068Y-58020D01*
X86134Y-58086D01*
X86162Y-58097D01*
X86162Y-58097D01*
G37*
G54D35*
X86162Y-58097D02*
X86131Y-58129D01*
X86125Y-58143D01*
X86119Y-58129D01*
X86071Y-58081D01*
X86009Y-58055D01*
X85941Y-58055D01*
X85491Y-58055D01*
X85429Y-58081D01*
X85381Y-58129D01*
X85355Y-58191D01*
X85355Y-58259D01*
X85355Y-58609D01*
X85381Y-58671D01*
X85415Y-58705D01*
X84940Y-58705D01*
X84974Y-58624D01*
X84975Y-58512D01*
X84913Y-58450D01*
X84600Y-58450D01*
X84550Y-58450D01*
X84450Y-58450D01*
X84400Y-58450D01*
X84087Y-58450D01*
X84025Y-58512D01*
X84026Y-58624D01*
X84059Y-58705D01*
X82625Y-58705D01*
X82645Y-58659D01*
X82645Y-58591D01*
X82645Y-58241D01*
X82619Y-58179D01*
X82571Y-58131D01*
X82509Y-58105D01*
X82441Y-58105D01*
X81991Y-58105D01*
X81929Y-58131D01*
X81881Y-58179D01*
X81855Y-58240D01*
X81844Y-58240D01*
X81819Y-58179D01*
X81787Y-58147D01*
X81816Y-58136D01*
X81886Y-58066D01*
X81897Y-58037D01*
X81929Y-58069D01*
X81991Y-58095D01*
X82059Y-58095D01*
X82509Y-58095D01*
X82571Y-58069D01*
X82619Y-58021D01*
X82645Y-57959D01*
X82645Y-57891D01*
X82645Y-57541D01*
X82619Y-57479D01*
X82577Y-57437D01*
X82599Y-57417D01*
X82644Y-57309D01*
X82644Y-57229D01*
X82716Y-57199D01*
X82799Y-57117D01*
X82844Y-57009D01*
X82844Y-56895D01*
X82884Y-56895D01*
X82984Y-56895D01*
X83000Y-56888D01*
X83016Y-56895D01*
X83084Y-56895D01*
X83184Y-56895D01*
X83197Y-56889D01*
X83211Y-56895D01*
X83279Y-56895D01*
X83379Y-56895D01*
X83395Y-56888D01*
X83411Y-56895D01*
X83479Y-56895D01*
X83579Y-56895D01*
X83592Y-56889D01*
X83606Y-56895D01*
X83674Y-56895D01*
X83756Y-56895D01*
X83756Y-56958D01*
X83801Y-57066D01*
X83883Y-57149D01*
X83991Y-57194D01*
X84108Y-57194D01*
X84216Y-57149D01*
X84275Y-57090D01*
X84290Y-57105D01*
X84290Y-57355D01*
X84241Y-57355D01*
X84179Y-57381D01*
X84131Y-57429D01*
X84105Y-57491D01*
X84105Y-57559D01*
X84105Y-57909D01*
X84131Y-57971D01*
X84162Y-58002D01*
X84134Y-58014D01*
X84064Y-58084D01*
X84026Y-58176D01*
X84025Y-58288D01*
X84087Y-58350D01*
X84400Y-58350D01*
X84450Y-58350D01*
X84550Y-58350D01*
X84600Y-58350D01*
X84913Y-58350D01*
X84975Y-58288D01*
X84974Y-58176D01*
X84936Y-58084D01*
X84866Y-58014D01*
X84837Y-58002D01*
X84869Y-57971D01*
X84895Y-57909D01*
X84895Y-57841D01*
X84895Y-57491D01*
X84869Y-57429D01*
X84821Y-57381D01*
X84759Y-57355D01*
X84710Y-57355D01*
X84710Y-57105D01*
X84734Y-57080D01*
X84975Y-57322D01*
X84976Y-57322D01*
X85043Y-57368D01*
X85044Y-57368D01*
X85056Y-57370D01*
X85104Y-57380D01*
X85051Y-57433D01*
X85006Y-57541D01*
X85006Y-57658D01*
X85051Y-57766D01*
X85133Y-57849D01*
X85241Y-57894D01*
X85320Y-57894D01*
X85324Y-57894D01*
X85355Y-57901D01*
X85355Y-57909D01*
X85381Y-57971D01*
X85429Y-58019D01*
X85491Y-58045D01*
X85559Y-58045D01*
X86009Y-58045D01*
X86068Y-58020D01*
X86134Y-58086D01*
X86162Y-58097D01*
G54D10*
G36*
X86861Y-52495D02*
X86855Y-52511D01*
X86855Y-52579D01*
X86855Y-52679D01*
X86860Y-52692D01*
X86855Y-52706D01*
X86855Y-52774D01*
X86855Y-52775D01*
X86815Y-52775D01*
X86747Y-52788D01*
X86734Y-52791D01*
X86666Y-52837D01*
X85697Y-53806D01*
X85692Y-53806D01*
X85684Y-53809D01*
X85684Y-52874D01*
X85683Y-52873D01*
X85668Y-52794D01*
X85667Y-52793D01*
X85652Y-52771D01*
X85622Y-52726D01*
X85622Y-52725D01*
X85486Y-52589D01*
X85553Y-52543D01*
X86158Y-51939D01*
X86158Y-51938D01*
X86188Y-51893D01*
X86203Y-51871D01*
X86204Y-51870D01*
X86219Y-51790D01*
X86220Y-51790D01*
X86220Y-51535D01*
X86241Y-51544D01*
X86358Y-51544D01*
X86466Y-51499D01*
X86540Y-51425D01*
X86775Y-51425D01*
X86775Y-51497D01*
X86775Y-51510D01*
X86776Y-51510D01*
X86814Y-51601D01*
X86855Y-51642D01*
X86855Y-51689D01*
X86861Y-51705D01*
X86855Y-51721D01*
X86855Y-51789D01*
X86855Y-51889D01*
X86860Y-51902D01*
X86855Y-51916D01*
X86855Y-51984D01*
X86855Y-52084D01*
X86861Y-52100D01*
X86855Y-52116D01*
X86855Y-52184D01*
X86855Y-52284D01*
X86860Y-52297D01*
X86855Y-52311D01*
X86855Y-52379D01*
X86855Y-52479D01*
X86861Y-52495D01*
X86861Y-52495D01*
G37*
G54D35*
X86861Y-52495D02*
X86855Y-52511D01*
X86855Y-52579D01*
X86855Y-52679D01*
X86860Y-52692D01*
X86855Y-52706D01*
X86855Y-52774D01*
X86855Y-52775D01*
X86815Y-52775D01*
X86747Y-52788D01*
X86734Y-52791D01*
X86666Y-52837D01*
X85697Y-53806D01*
X85692Y-53806D01*
X85684Y-53809D01*
X85684Y-52874D01*
X85683Y-52873D01*
X85668Y-52794D01*
X85667Y-52793D01*
X85652Y-52771D01*
X85622Y-52726D01*
X85622Y-52725D01*
X85486Y-52589D01*
X85553Y-52543D01*
X86158Y-51939D01*
X86158Y-51938D01*
X86188Y-51893D01*
X86203Y-51871D01*
X86204Y-51870D01*
X86219Y-51790D01*
X86220Y-51790D01*
X86220Y-51535D01*
X86241Y-51544D01*
X86358Y-51544D01*
X86466Y-51499D01*
X86540Y-51425D01*
X86775Y-51425D01*
X86775Y-51497D01*
X86775Y-51510D01*
X86776Y-51510D01*
X86814Y-51601D01*
X86855Y-51642D01*
X86855Y-51689D01*
X86861Y-51705D01*
X86855Y-51721D01*
X86855Y-51789D01*
X86855Y-51889D01*
X86860Y-51902D01*
X86855Y-51916D01*
X86855Y-51984D01*
X86855Y-52084D01*
X86861Y-52100D01*
X86855Y-52116D01*
X86855Y-52184D01*
X86855Y-52284D01*
X86860Y-52297D01*
X86855Y-52311D01*
X86855Y-52379D01*
X86855Y-52479D01*
X86861Y-52495D01*
G54D10*
G36*
X87609Y-55774D02*
X87601Y-55783D01*
X87556Y-55891D01*
X87556Y-56008D01*
X87566Y-56032D01*
X87514Y-56084D01*
X87502Y-56112D01*
X87471Y-56081D01*
X87409Y-56055D01*
X87341Y-56055D01*
X86991Y-56055D01*
X86929Y-56081D01*
X86881Y-56129D01*
X86855Y-56191D01*
X86855Y-56259D01*
X86855Y-56275D01*
X86809Y-56256D01*
X86692Y-56256D01*
X86665Y-56267D01*
X86665Y-56091D01*
X86639Y-56029D01*
X86591Y-55981D01*
X86529Y-55955D01*
X86477Y-55955D01*
X86436Y-55914D01*
X86433Y-55912D01*
X86591Y-55755D01*
X86967Y-55755D01*
X86991Y-55765D01*
X87059Y-55765D01*
X87600Y-55765D01*
X87601Y-55766D01*
X87609Y-55774D01*
X87609Y-55774D01*
G37*
G54D35*
X87609Y-55774D02*
X87601Y-55783D01*
X87556Y-55891D01*
X87556Y-56008D01*
X87566Y-56032D01*
X87514Y-56084D01*
X87502Y-56112D01*
X87471Y-56081D01*
X87409Y-56055D01*
X87341Y-56055D01*
X86991Y-56055D01*
X86929Y-56081D01*
X86881Y-56129D01*
X86855Y-56191D01*
X86855Y-56259D01*
X86855Y-56275D01*
X86809Y-56256D01*
X86692Y-56256D01*
X86665Y-56267D01*
X86665Y-56091D01*
X86639Y-56029D01*
X86591Y-55981D01*
X86529Y-55955D01*
X86477Y-55955D01*
X86436Y-55914D01*
X86433Y-55912D01*
X86591Y-55755D01*
X86967Y-55755D01*
X86991Y-55765D01*
X87059Y-55765D01*
X87600Y-55765D01*
X87601Y-55766D01*
X87609Y-55774D01*
G54D10*
G36*
X87950Y-56500D02*
X87850Y-56500D01*
X87850Y-56400D01*
X87950Y-56400D01*
X87950Y-56500D01*
X87950Y-56500D01*
G37*
G54D35*
X87950Y-56500D02*
X87850Y-56500D01*
X87850Y-56400D01*
X87950Y-56400D01*
X87950Y-56500D01*
G54D10*
G36*
X88326Y-57384D02*
X88306Y-57404D01*
X88280Y-57466D01*
X88280Y-57534D01*
X88280Y-58118D01*
X88221Y-58059D01*
X88129Y-58021D01*
X88012Y-58020D01*
X87950Y-58082D01*
X87950Y-58350D01*
X87950Y-58400D01*
X87950Y-58500D01*
X87850Y-58500D01*
X87850Y-58400D01*
X87850Y-58350D01*
X87850Y-58082D01*
X87788Y-58020D01*
X87671Y-58021D01*
X87579Y-58059D01*
X87509Y-58129D01*
X87500Y-58150D01*
X87476Y-58126D01*
X87414Y-58100D01*
X87346Y-58100D01*
X86986Y-58100D01*
X86924Y-58126D01*
X86884Y-58165D01*
X86869Y-58129D01*
X86837Y-58097D01*
X86866Y-58086D01*
X86936Y-58016D01*
X86974Y-57924D01*
X86975Y-57812D01*
X86913Y-57750D01*
X86600Y-57750D01*
X86550Y-57750D01*
X86450Y-57750D01*
X86450Y-57650D01*
X86550Y-57650D01*
X86600Y-57650D01*
X86913Y-57650D01*
X86936Y-57626D01*
X86983Y-57674D01*
X87091Y-57719D01*
X87147Y-57719D01*
X87200Y-57771D01*
X87200Y-57864D01*
X87226Y-57926D01*
X87274Y-57974D01*
X87336Y-58000D01*
X87404Y-58000D01*
X87764Y-58000D01*
X87826Y-57974D01*
X87874Y-57926D01*
X87900Y-57864D01*
X87900Y-57796D01*
X87900Y-57436D01*
X87878Y-57384D01*
X88326Y-57384D01*
X88326Y-57384D01*
G37*
G54D35*
X88326Y-57384D02*
X88306Y-57404D01*
X88280Y-57466D01*
X88280Y-57534D01*
X88280Y-58118D01*
X88221Y-58059D01*
X88129Y-58021D01*
X88012Y-58020D01*
X87950Y-58082D01*
X87950Y-58350D01*
X87950Y-58400D01*
X87950Y-58500D01*
X87850Y-58500D01*
X87850Y-58400D01*
X87850Y-58350D01*
X87850Y-58082D01*
X87788Y-58020D01*
X87671Y-58021D01*
X87579Y-58059D01*
X87509Y-58129D01*
X87500Y-58150D01*
X87476Y-58126D01*
X87414Y-58100D01*
X87346Y-58100D01*
X86986Y-58100D01*
X86924Y-58126D01*
X86884Y-58165D01*
X86869Y-58129D01*
X86837Y-58097D01*
X86866Y-58086D01*
X86936Y-58016D01*
X86974Y-57924D01*
X86975Y-57812D01*
X86913Y-57750D01*
X86600Y-57750D01*
X86550Y-57750D01*
X86450Y-57750D01*
X86450Y-57650D01*
X86550Y-57650D01*
X86600Y-57650D01*
X86913Y-57650D01*
X86936Y-57626D01*
X86983Y-57674D01*
X87091Y-57719D01*
X87147Y-57719D01*
X87200Y-57771D01*
X87200Y-57864D01*
X87226Y-57926D01*
X87274Y-57974D01*
X87336Y-58000D01*
X87404Y-58000D01*
X87764Y-58000D01*
X87826Y-57974D01*
X87874Y-57926D01*
X87900Y-57864D01*
X87900Y-57796D01*
X87900Y-57436D01*
X87878Y-57384D01*
X88326Y-57384D01*
G54D10*
G36*
X88700Y-51700D02*
X88600Y-51700D01*
X88600Y-51600D01*
X88700Y-51600D01*
X88700Y-51700D01*
X88700Y-51700D01*
G37*
G54D35*
X88700Y-51700D02*
X88600Y-51700D01*
X88600Y-51600D01*
X88700Y-51600D01*
X88700Y-51700D01*
G54D10*
G36*
X89458Y-53395D02*
X89288Y-53565D01*
X87875Y-53565D01*
X87875Y-53488D01*
X87875Y-53475D01*
X87873Y-53475D01*
X87840Y-53395D01*
X89458Y-53395D01*
X89458Y-53395D01*
G37*
G54D35*
X89458Y-53395D02*
X89288Y-53565D01*
X87875Y-53565D01*
X87875Y-53488D01*
X87875Y-53475D01*
X87873Y-53475D01*
X87840Y-53395D01*
X89458Y-53395D01*
G54D10*
G36*
X98806Y-53956D02*
X98775Y-53987D01*
X98775Y-54350D01*
X98775Y-54400D01*
X98775Y-54500D01*
X98675Y-54500D01*
X98675Y-54400D01*
X98675Y-54350D01*
X98675Y-53987D01*
X98638Y-53950D01*
X98675Y-53913D01*
X98675Y-53550D01*
X98675Y-53500D01*
X98675Y-53400D01*
X98675Y-53350D01*
X98675Y-52987D01*
X98638Y-52950D01*
X98675Y-52913D01*
X98675Y-52550D01*
X98675Y-52500D01*
X98675Y-52400D01*
X98675Y-52350D01*
X98675Y-51987D01*
X98638Y-51950D01*
X98675Y-51913D01*
X98675Y-51500D01*
X98362Y-51500D01*
X98300Y-51562D01*
X98301Y-51676D01*
X98301Y-51775D01*
X98339Y-51866D01*
X98409Y-51936D01*
X98442Y-51950D01*
X98409Y-51964D01*
X98339Y-52034D01*
X98321Y-52075D01*
X98298Y-52052D01*
X98231Y-52006D01*
X98217Y-52003D01*
X98174Y-51994D01*
X98174Y-51926D01*
X98175Y-51862D01*
X98113Y-51800D01*
X97850Y-51800D01*
X97800Y-51800D01*
X97700Y-51800D01*
X97700Y-51700D01*
X97800Y-51700D01*
X97850Y-51700D01*
X98113Y-51700D01*
X98175Y-51638D01*
X98174Y-51574D01*
X98174Y-51475D01*
X98136Y-51384D01*
X98070Y-51318D01*
X98095Y-51259D01*
X98095Y-51191D01*
X98095Y-50951D01*
X98301Y-50745D01*
X98301Y-50775D01*
X98339Y-50866D01*
X98409Y-50936D01*
X98442Y-50950D01*
X98409Y-50964D01*
X98339Y-51034D01*
X98301Y-51125D01*
X98301Y-51224D01*
X98300Y-51338D01*
X98362Y-51400D01*
X98675Y-51400D01*
X98675Y-50987D01*
X98638Y-50950D01*
X98675Y-50913D01*
X98675Y-50550D01*
X98675Y-50500D01*
X98675Y-50400D01*
X98675Y-50350D01*
X98675Y-49987D01*
X98638Y-49950D01*
X98675Y-49913D01*
X98675Y-49550D01*
X98675Y-49500D01*
X98675Y-49400D01*
X98675Y-49350D01*
X98675Y-48987D01*
X98638Y-48950D01*
X98675Y-48913D01*
X98675Y-48550D01*
X98675Y-48500D01*
X98675Y-48400D01*
X98675Y-48350D01*
X98675Y-47987D01*
X98638Y-47950D01*
X98675Y-47913D01*
X98675Y-47550D01*
X98675Y-47500D01*
X98675Y-47400D01*
X98675Y-47350D01*
X98675Y-46987D01*
X98638Y-46950D01*
X98675Y-46913D01*
X98675Y-46550D01*
X98675Y-46500D01*
X98675Y-46400D01*
X98775Y-46400D01*
X98775Y-46500D01*
X98775Y-46550D01*
X98775Y-46845D01*
X98756Y-46891D01*
X98756Y-47008D01*
X98775Y-47053D01*
X98775Y-47350D01*
X98775Y-47400D01*
X98775Y-47500D01*
X98775Y-47550D01*
X98775Y-47913D01*
X98806Y-47944D01*
X98806Y-47956D01*
X98775Y-47987D01*
X98775Y-48350D01*
X98775Y-48400D01*
X98775Y-48500D01*
X98775Y-48550D01*
X98775Y-48913D01*
X98806Y-48944D01*
X98806Y-48956D01*
X98775Y-48987D01*
X98775Y-49350D01*
X98775Y-49400D01*
X98775Y-49500D01*
X98775Y-49550D01*
X98775Y-49913D01*
X98806Y-49944D01*
X98806Y-49956D01*
X98775Y-49987D01*
X98775Y-50350D01*
X98775Y-50400D01*
X98775Y-50500D01*
X98775Y-50550D01*
X98775Y-50913D01*
X98806Y-50944D01*
X98806Y-50956D01*
X98775Y-50987D01*
X98775Y-51350D01*
X98775Y-51400D01*
X98775Y-51500D01*
X98775Y-51550D01*
X98775Y-51913D01*
X98806Y-51944D01*
X98806Y-51956D01*
X98775Y-51987D01*
X98775Y-52350D01*
X98775Y-52400D01*
X98775Y-52500D01*
X98775Y-52550D01*
X98775Y-52913D01*
X98806Y-52944D01*
X98806Y-52956D01*
X98775Y-52987D01*
X98775Y-53350D01*
X98775Y-53400D01*
X98775Y-53500D01*
X98775Y-53550D01*
X98775Y-53913D01*
X98806Y-53944D01*
X98806Y-53956D01*
X98806Y-53956D01*
G37*
G54D35*
X98806Y-53956D02*
X98775Y-53987D01*
X98775Y-54350D01*
X98775Y-54400D01*
X98775Y-54500D01*
X98675Y-54500D01*
X98675Y-54400D01*
X98675Y-54350D01*
X98675Y-53987D01*
X98638Y-53950D01*
X98675Y-53913D01*
X98675Y-53550D01*
X98675Y-53500D01*
X98675Y-53400D01*
X98675Y-53350D01*
X98675Y-52987D01*
X98638Y-52950D01*
X98675Y-52913D01*
X98675Y-52550D01*
X98675Y-52500D01*
X98675Y-52400D01*
X98675Y-52350D01*
X98675Y-51987D01*
X98638Y-51950D01*
X98675Y-51913D01*
X98675Y-51500D01*
X98362Y-51500D01*
X98300Y-51562D01*
X98301Y-51676D01*
X98301Y-51775D01*
X98339Y-51866D01*
X98409Y-51936D01*
X98442Y-51950D01*
X98409Y-51964D01*
X98339Y-52034D01*
X98321Y-52075D01*
X98298Y-52052D01*
X98231Y-52006D01*
X98217Y-52003D01*
X98174Y-51994D01*
X98174Y-51926D01*
X98175Y-51862D01*
X98113Y-51800D01*
X97850Y-51800D01*
X97800Y-51800D01*
X97700Y-51800D01*
X97700Y-51700D01*
X97800Y-51700D01*
X97850Y-51700D01*
X98113Y-51700D01*
X98175Y-51638D01*
X98174Y-51574D01*
X98174Y-51475D01*
X98136Y-51384D01*
X98070Y-51318D01*
X98095Y-51259D01*
X98095Y-51191D01*
X98095Y-50951D01*
X98301Y-50745D01*
X98301Y-50775D01*
X98339Y-50866D01*
X98409Y-50936D01*
X98442Y-50950D01*
X98409Y-50964D01*
X98339Y-51034D01*
X98301Y-51125D01*
X98301Y-51224D01*
X98300Y-51338D01*
X98362Y-51400D01*
X98675Y-51400D01*
X98675Y-50987D01*
X98638Y-50950D01*
X98675Y-50913D01*
X98675Y-50550D01*
X98675Y-50500D01*
X98675Y-50400D01*
X98675Y-50350D01*
X98675Y-49987D01*
X98638Y-49950D01*
X98675Y-49913D01*
X98675Y-49550D01*
X98675Y-49500D01*
X98675Y-49400D01*
X98675Y-49350D01*
X98675Y-48987D01*
X98638Y-48950D01*
X98675Y-48913D01*
X98675Y-48550D01*
X98675Y-48500D01*
X98675Y-48400D01*
X98675Y-48350D01*
X98675Y-47987D01*
X98638Y-47950D01*
X98675Y-47913D01*
X98675Y-47550D01*
X98675Y-47500D01*
X98675Y-47400D01*
X98675Y-47350D01*
X98675Y-46987D01*
X98638Y-46950D01*
X98675Y-46913D01*
X98675Y-46550D01*
X98675Y-46500D01*
X98675Y-46400D01*
X98775Y-46400D01*
X98775Y-46500D01*
X98775Y-46550D01*
X98775Y-46845D01*
X98756Y-46891D01*
X98756Y-47008D01*
X98775Y-47053D01*
X98775Y-47350D01*
X98775Y-47400D01*
X98775Y-47500D01*
X98775Y-47550D01*
X98775Y-47913D01*
X98806Y-47944D01*
X98806Y-47956D01*
X98775Y-47987D01*
X98775Y-48350D01*
X98775Y-48400D01*
X98775Y-48500D01*
X98775Y-48550D01*
X98775Y-48913D01*
X98806Y-48944D01*
X98806Y-48956D01*
X98775Y-48987D01*
X98775Y-49350D01*
X98775Y-49400D01*
X98775Y-49500D01*
X98775Y-49550D01*
X98775Y-49913D01*
X98806Y-49944D01*
X98806Y-49956D01*
X98775Y-49987D01*
X98775Y-50350D01*
X98775Y-50400D01*
X98775Y-50500D01*
X98775Y-50550D01*
X98775Y-50913D01*
X98806Y-50944D01*
X98806Y-50956D01*
X98775Y-50987D01*
X98775Y-51350D01*
X98775Y-51400D01*
X98775Y-51500D01*
X98775Y-51550D01*
X98775Y-51913D01*
X98806Y-51944D01*
X98806Y-51956D01*
X98775Y-51987D01*
X98775Y-52350D01*
X98775Y-52400D01*
X98775Y-52500D01*
X98775Y-52550D01*
X98775Y-52913D01*
X98806Y-52944D01*
X98806Y-52956D01*
X98775Y-52987D01*
X98775Y-53350D01*
X98775Y-53400D01*
X98775Y-53500D01*
X98775Y-53550D01*
X98775Y-53913D01*
X98806Y-53944D01*
X98806Y-53956D01*
G54D10*
G36*
X99550Y-56150D02*
X99450Y-56150D01*
X99450Y-56050D01*
X99550Y-56050D01*
X99550Y-56150D01*
X99550Y-56150D01*
G37*
G54D35*
X99550Y-56150D02*
X99450Y-56150D01*
X99450Y-56050D01*
X99550Y-56050D01*
X99550Y-56150D01*
G54D10*
G36*
X105455Y-58705D02*
X104691Y-58705D01*
X104691Y-57439D01*
X104691Y-57438D01*
X104691Y-57362D01*
X104691Y-57361D01*
X104691Y-42639D01*
X104691Y-42638D01*
X104691Y-42562D01*
X104691Y-42561D01*
X104653Y-42372D01*
X104653Y-42371D01*
X104624Y-42301D01*
X104624Y-42300D01*
X104622Y-42298D01*
X104517Y-42138D01*
X104463Y-42084D01*
X104461Y-42083D01*
X104299Y-41975D01*
X104228Y-41947D01*
X104038Y-41909D01*
X103962Y-41909D01*
X103961Y-41909D01*
X103771Y-41947D01*
X103700Y-41976D01*
X103698Y-41977D01*
X103538Y-42083D01*
X103484Y-42137D01*
X103483Y-42138D01*
X103483Y-42139D01*
X103375Y-42301D01*
X103347Y-42372D01*
X103309Y-42562D01*
X103309Y-42638D01*
X103347Y-42828D01*
X103375Y-42899D01*
X103483Y-43061D01*
X103484Y-43063D01*
X103538Y-43117D01*
X103698Y-43222D01*
X103700Y-43224D01*
X103701Y-43224D01*
X103771Y-43253D01*
X103772Y-43253D01*
X103961Y-43291D01*
X103962Y-43291D01*
X104038Y-43291D01*
X104228Y-43253D01*
X104299Y-43225D01*
X104299Y-43224D01*
X104461Y-43117D01*
X104461Y-43116D01*
X104463Y-43116D01*
X104515Y-43063D01*
X104517Y-43062D01*
X104622Y-42901D01*
X104624Y-42900D01*
X104624Y-42899D01*
X104653Y-42829D01*
X104653Y-42828D01*
X104691Y-42639D01*
X104691Y-57361D01*
X104653Y-57172D01*
X104653Y-57171D01*
X104624Y-57101D01*
X104624Y-57100D01*
X104622Y-57098D01*
X104517Y-56938D01*
X104463Y-56884D01*
X104461Y-56883D01*
X104299Y-56775D01*
X104228Y-56747D01*
X104038Y-56709D01*
X103962Y-56709D01*
X103961Y-56709D01*
X103771Y-56747D01*
X103700Y-56776D01*
X103698Y-56777D01*
X103538Y-56883D01*
X103484Y-56937D01*
X103483Y-56938D01*
X103483Y-56939D01*
X103375Y-57101D01*
X103347Y-57172D01*
X103309Y-57362D01*
X103309Y-57438D01*
X103347Y-57628D01*
X103375Y-57699D01*
X103483Y-57861D01*
X103484Y-57863D01*
X103538Y-57917D01*
X103698Y-58022D01*
X103700Y-58024D01*
X103701Y-58024D01*
X103771Y-58053D01*
X103772Y-58053D01*
X103961Y-58091D01*
X103962Y-58091D01*
X104038Y-58091D01*
X104228Y-58053D01*
X104299Y-58025D01*
X104299Y-58024D01*
X104461Y-57917D01*
X104461Y-57916D01*
X104463Y-57916D01*
X104515Y-57863D01*
X104517Y-57862D01*
X104622Y-57701D01*
X104624Y-57700D01*
X104624Y-57699D01*
X104653Y-57629D01*
X104653Y-57628D01*
X104691Y-57439D01*
X104691Y-58705D01*
X102970Y-58705D01*
X102970Y-54544D01*
X102970Y-54357D01*
X102970Y-53544D01*
X102970Y-53357D01*
X102970Y-52544D01*
X102970Y-52357D01*
X102970Y-51544D01*
X102970Y-51357D01*
X102970Y-50544D01*
X102970Y-50357D01*
X102899Y-50184D01*
X102770Y-50055D01*
X102770Y-49845D01*
X102898Y-49717D01*
X102970Y-49544D01*
X102970Y-49357D01*
X102899Y-49184D01*
X102770Y-49055D01*
X102770Y-48845D01*
X102898Y-48717D01*
X102970Y-48544D01*
X102970Y-48357D01*
X102899Y-48184D01*
X102770Y-48055D01*
X102770Y-47845D01*
X102898Y-47717D01*
X102970Y-47544D01*
X102970Y-47357D01*
X102899Y-47184D01*
X102770Y-47055D01*
X102770Y-46845D01*
X102898Y-46717D01*
X102970Y-46544D01*
X102970Y-46357D01*
X102899Y-46184D01*
X102767Y-46052D01*
X102594Y-45980D01*
X102407Y-45980D01*
X102234Y-46051D01*
X102102Y-46183D01*
X102030Y-46356D01*
X102030Y-46543D01*
X102101Y-46716D01*
X102230Y-46845D01*
X102230Y-47055D01*
X102102Y-47183D01*
X102030Y-47356D01*
X102030Y-47543D01*
X102101Y-47716D01*
X102230Y-47845D01*
X102230Y-48055D01*
X102102Y-48183D01*
X102030Y-48356D01*
X102030Y-48543D01*
X102101Y-48716D01*
X102230Y-48845D01*
X102230Y-49055D01*
X102102Y-49183D01*
X102030Y-49356D01*
X102030Y-49543D01*
X102101Y-49716D01*
X102230Y-49845D01*
X102230Y-50055D01*
X102102Y-50183D01*
X102030Y-50356D01*
X102030Y-50543D01*
X102101Y-50716D01*
X102233Y-50848D01*
X102406Y-50920D01*
X102593Y-50920D01*
X102766Y-50849D01*
X102898Y-50717D01*
X102970Y-50544D01*
X102970Y-51357D01*
X102899Y-51184D01*
X102767Y-51052D01*
X102594Y-50980D01*
X102407Y-50980D01*
X102234Y-51051D01*
X102102Y-51183D01*
X102030Y-51356D01*
X102030Y-51543D01*
X102101Y-51716D01*
X102233Y-51848D01*
X102406Y-51920D01*
X102593Y-51920D01*
X102766Y-51849D01*
X102898Y-51717D01*
X102970Y-51544D01*
X102970Y-52357D01*
X102899Y-52184D01*
X102767Y-52052D01*
X102594Y-51980D01*
X102407Y-51980D01*
X102234Y-52051D01*
X102102Y-52183D01*
X102030Y-52356D01*
X102030Y-52543D01*
X102101Y-52716D01*
X102233Y-52848D01*
X102406Y-52920D01*
X102593Y-52920D01*
X102766Y-52849D01*
X102898Y-52717D01*
X102970Y-52544D01*
X102970Y-53357D01*
X102899Y-53184D01*
X102767Y-53052D01*
X102594Y-52980D01*
X102407Y-52980D01*
X102234Y-53051D01*
X102102Y-53183D01*
X102030Y-53356D01*
X102030Y-53543D01*
X102101Y-53716D01*
X102233Y-53848D01*
X102406Y-53920D01*
X102593Y-53920D01*
X102766Y-53849D01*
X102898Y-53717D01*
X102970Y-53544D01*
X102970Y-54357D01*
X102899Y-54184D01*
X102767Y-54052D01*
X102594Y-53980D01*
X102407Y-53980D01*
X102234Y-54051D01*
X102102Y-54183D01*
X102030Y-54356D01*
X102030Y-54543D01*
X102101Y-54716D01*
X102233Y-54848D01*
X102406Y-54920D01*
X102593Y-54920D01*
X102766Y-54849D01*
X102898Y-54717D01*
X102970Y-54544D01*
X102970Y-58705D01*
X102886Y-58705D01*
X102886Y-57879D01*
X102886Y-56179D01*
X102875Y-55966D01*
X102815Y-55819D01*
X102721Y-55792D01*
X102651Y-55862D01*
X102651Y-55722D01*
X102624Y-55628D01*
X102422Y-55557D01*
X102209Y-55568D01*
X102062Y-55628D01*
X102035Y-55722D01*
X102343Y-56029D01*
X102651Y-55722D01*
X102651Y-55862D01*
X102414Y-56100D01*
X102721Y-56408D01*
X102815Y-56381D01*
X102886Y-56179D01*
X102886Y-57879D01*
X102875Y-57666D01*
X102815Y-57519D01*
X102721Y-57492D01*
X102651Y-57562D01*
X102651Y-57422D01*
X102651Y-56478D01*
X102343Y-56171D01*
X102272Y-56241D01*
X102272Y-56100D01*
X101970Y-55797D01*
X101970Y-54544D01*
X101970Y-54357D01*
X101970Y-53544D01*
X101970Y-53357D01*
X101970Y-52544D01*
X101970Y-52357D01*
X101970Y-51544D01*
X101970Y-51357D01*
X101970Y-50544D01*
X101970Y-50357D01*
X101970Y-49544D01*
X101970Y-49357D01*
X101970Y-48544D01*
X101970Y-48357D01*
X101970Y-47544D01*
X101970Y-47357D01*
X101970Y-46544D01*
X101970Y-46357D01*
X101970Y-45784D01*
X101970Y-45716D01*
X101970Y-45116D01*
X101944Y-45054D01*
X101896Y-45006D01*
X101834Y-44980D01*
X101766Y-44980D01*
X101166Y-44980D01*
X101104Y-45006D01*
X101056Y-45054D01*
X101053Y-45059D01*
X100974Y-45026D01*
X100862Y-45025D01*
X100800Y-45087D01*
X100800Y-45400D01*
X100800Y-45450D01*
X100800Y-45550D01*
X100800Y-45600D01*
X100800Y-45913D01*
X100862Y-45975D01*
X100974Y-45974D01*
X101066Y-45936D01*
X101106Y-45895D01*
X101166Y-45920D01*
X101234Y-45920D01*
X101834Y-45920D01*
X101896Y-45894D01*
X101944Y-45846D01*
X101970Y-45784D01*
X101970Y-46357D01*
X101899Y-46184D01*
X101767Y-46052D01*
X101594Y-45980D01*
X101407Y-45980D01*
X101234Y-46051D01*
X101102Y-46183D01*
X101095Y-46199D01*
X101095Y-46191D01*
X101069Y-46129D01*
X101021Y-46081D01*
X100959Y-46055D01*
X100891Y-46055D01*
X100541Y-46055D01*
X100479Y-46081D01*
X100431Y-46129D01*
X100405Y-46191D01*
X100405Y-46259D01*
X100405Y-46709D01*
X100431Y-46771D01*
X100479Y-46819D01*
X100541Y-46845D01*
X100609Y-46845D01*
X100959Y-46845D01*
X101021Y-46819D01*
X101069Y-46771D01*
X101095Y-46709D01*
X101095Y-46701D01*
X101101Y-46716D01*
X101233Y-46848D01*
X101406Y-46920D01*
X101593Y-46920D01*
X101766Y-46849D01*
X101898Y-46717D01*
X101970Y-46544D01*
X101970Y-47357D01*
X101899Y-47184D01*
X101767Y-47052D01*
X101594Y-46980D01*
X101407Y-46980D01*
X101234Y-47051D01*
X101102Y-47183D01*
X101095Y-47199D01*
X101095Y-47191D01*
X101069Y-47129D01*
X101021Y-47081D01*
X100959Y-47055D01*
X100891Y-47055D01*
X100541Y-47055D01*
X100479Y-47081D01*
X100431Y-47129D01*
X100405Y-47191D01*
X100405Y-47259D01*
X100405Y-47709D01*
X100431Y-47771D01*
X100479Y-47819D01*
X100541Y-47845D01*
X100609Y-47845D01*
X100959Y-47845D01*
X101021Y-47819D01*
X101069Y-47771D01*
X101095Y-47709D01*
X101095Y-47701D01*
X101101Y-47716D01*
X101233Y-47848D01*
X101406Y-47920D01*
X101593Y-47920D01*
X101766Y-47849D01*
X101898Y-47717D01*
X101970Y-47544D01*
X101970Y-48357D01*
X101899Y-48184D01*
X101767Y-48052D01*
X101594Y-47980D01*
X101407Y-47980D01*
X101234Y-48051D01*
X101102Y-48183D01*
X101095Y-48199D01*
X101095Y-48191D01*
X101069Y-48129D01*
X101021Y-48081D01*
X100959Y-48055D01*
X100891Y-48055D01*
X100541Y-48055D01*
X100479Y-48081D01*
X100431Y-48129D01*
X100405Y-48191D01*
X100405Y-48259D01*
X100405Y-48709D01*
X100431Y-48771D01*
X100479Y-48819D01*
X100541Y-48845D01*
X100609Y-48845D01*
X100959Y-48845D01*
X101021Y-48819D01*
X101069Y-48771D01*
X101095Y-48709D01*
X101095Y-48701D01*
X101101Y-48716D01*
X101233Y-48848D01*
X101406Y-48920D01*
X101593Y-48920D01*
X101766Y-48849D01*
X101898Y-48717D01*
X101970Y-48544D01*
X101970Y-49357D01*
X101899Y-49184D01*
X101767Y-49052D01*
X101594Y-48980D01*
X101407Y-48980D01*
X101234Y-49051D01*
X101102Y-49183D01*
X101095Y-49199D01*
X101095Y-49191D01*
X101069Y-49129D01*
X101021Y-49081D01*
X100959Y-49055D01*
X100891Y-49055D01*
X100541Y-49055D01*
X100479Y-49081D01*
X100431Y-49129D01*
X100405Y-49191D01*
X100405Y-49259D01*
X100405Y-49709D01*
X100431Y-49771D01*
X100479Y-49819D01*
X100541Y-49845D01*
X100609Y-49845D01*
X100959Y-49845D01*
X101021Y-49819D01*
X101069Y-49771D01*
X101095Y-49709D01*
X101095Y-49701D01*
X101101Y-49716D01*
X101233Y-49848D01*
X101406Y-49920D01*
X101593Y-49920D01*
X101766Y-49849D01*
X101898Y-49717D01*
X101970Y-49544D01*
X101970Y-50357D01*
X101899Y-50184D01*
X101767Y-50052D01*
X101594Y-49980D01*
X101407Y-49980D01*
X101234Y-50051D01*
X101102Y-50183D01*
X101095Y-50199D01*
X101095Y-50191D01*
X101069Y-50129D01*
X101021Y-50081D01*
X100959Y-50055D01*
X100891Y-50055D01*
X100541Y-50055D01*
X100479Y-50081D01*
X100431Y-50129D01*
X100405Y-50191D01*
X100405Y-50259D01*
X100405Y-50709D01*
X100431Y-50771D01*
X100479Y-50819D01*
X100541Y-50845D01*
X100609Y-50845D01*
X100959Y-50845D01*
X101021Y-50819D01*
X101069Y-50771D01*
X101095Y-50709D01*
X101095Y-50701D01*
X101101Y-50716D01*
X101233Y-50848D01*
X101406Y-50920D01*
X101593Y-50920D01*
X101766Y-50849D01*
X101898Y-50717D01*
X101970Y-50544D01*
X101970Y-51357D01*
X101899Y-51184D01*
X101767Y-51052D01*
X101594Y-50980D01*
X101407Y-50980D01*
X101234Y-51051D01*
X101102Y-51183D01*
X101095Y-51199D01*
X101095Y-51191D01*
X101069Y-51129D01*
X101021Y-51081D01*
X100959Y-51055D01*
X100891Y-51055D01*
X100541Y-51055D01*
X100479Y-51081D01*
X100431Y-51129D01*
X100405Y-51191D01*
X100405Y-51259D01*
X100405Y-51709D01*
X100431Y-51771D01*
X100479Y-51819D01*
X100541Y-51845D01*
X100609Y-51845D01*
X100959Y-51845D01*
X101021Y-51819D01*
X101069Y-51771D01*
X101095Y-51709D01*
X101095Y-51701D01*
X101101Y-51716D01*
X101233Y-51848D01*
X101406Y-51920D01*
X101593Y-51920D01*
X101766Y-51849D01*
X101898Y-51717D01*
X101970Y-51544D01*
X101970Y-52357D01*
X101899Y-52184D01*
X101767Y-52052D01*
X101594Y-51980D01*
X101407Y-51980D01*
X101234Y-52051D01*
X101102Y-52183D01*
X101095Y-52199D01*
X101095Y-52191D01*
X101069Y-52129D01*
X101021Y-52081D01*
X100959Y-52055D01*
X100891Y-52055D01*
X100541Y-52055D01*
X100479Y-52081D01*
X100431Y-52129D01*
X100405Y-52191D01*
X100405Y-52259D01*
X100405Y-52709D01*
X100431Y-52771D01*
X100479Y-52819D01*
X100541Y-52845D01*
X100609Y-52845D01*
X100959Y-52845D01*
X101021Y-52819D01*
X101069Y-52771D01*
X101095Y-52709D01*
X101095Y-52701D01*
X101101Y-52716D01*
X101233Y-52848D01*
X101406Y-52920D01*
X101593Y-52920D01*
X101766Y-52849D01*
X101898Y-52717D01*
X101970Y-52544D01*
X101970Y-53357D01*
X101899Y-53184D01*
X101767Y-53052D01*
X101594Y-52980D01*
X101407Y-52980D01*
X101234Y-53051D01*
X101102Y-53183D01*
X101095Y-53199D01*
X101095Y-53191D01*
X101069Y-53129D01*
X101021Y-53081D01*
X100959Y-53055D01*
X100891Y-53055D01*
X100541Y-53055D01*
X100479Y-53081D01*
X100431Y-53129D01*
X100405Y-53191D01*
X100405Y-53259D01*
X100405Y-53709D01*
X100431Y-53771D01*
X100479Y-53819D01*
X100541Y-53845D01*
X100609Y-53845D01*
X100959Y-53845D01*
X101021Y-53819D01*
X101069Y-53771D01*
X101095Y-53709D01*
X101095Y-53701D01*
X101101Y-53716D01*
X101233Y-53848D01*
X101406Y-53920D01*
X101593Y-53920D01*
X101766Y-53849D01*
X101898Y-53717D01*
X101970Y-53544D01*
X101970Y-54357D01*
X101899Y-54184D01*
X101767Y-54052D01*
X101594Y-53980D01*
X101407Y-53980D01*
X101234Y-54051D01*
X101102Y-54183D01*
X101095Y-54199D01*
X101095Y-54191D01*
X101069Y-54129D01*
X101021Y-54081D01*
X100959Y-54055D01*
X100891Y-54055D01*
X100541Y-54055D01*
X100479Y-54081D01*
X100431Y-54129D01*
X100405Y-54191D01*
X100405Y-54259D01*
X100405Y-54709D01*
X100431Y-54771D01*
X100479Y-54819D01*
X100541Y-54845D01*
X100609Y-54845D01*
X100959Y-54845D01*
X101021Y-54819D01*
X101069Y-54771D01*
X101095Y-54709D01*
X101095Y-54701D01*
X101101Y-54716D01*
X101233Y-54848D01*
X101406Y-54920D01*
X101593Y-54920D01*
X101766Y-54849D01*
X101898Y-54717D01*
X101970Y-54544D01*
X101970Y-55797D01*
X101965Y-55792D01*
X101871Y-55819D01*
X101800Y-56021D01*
X101811Y-56234D01*
X101871Y-56381D01*
X101965Y-56408D01*
X102272Y-56100D01*
X102272Y-56241D01*
X102035Y-56478D01*
X102062Y-56572D01*
X102264Y-56643D01*
X102477Y-56632D01*
X102624Y-56572D01*
X102651Y-56478D01*
X102651Y-57422D01*
X102624Y-57328D01*
X102422Y-57257D01*
X102209Y-57268D01*
X102062Y-57328D01*
X102035Y-57422D01*
X102343Y-57729D01*
X102651Y-57422D01*
X102651Y-57562D01*
X102414Y-57800D01*
X102721Y-58108D01*
X102815Y-58081D01*
X102886Y-57879D01*
X102886Y-58705D01*
X102651Y-58705D01*
X102651Y-58178D01*
X102343Y-57871D01*
X102272Y-57941D01*
X102272Y-57800D01*
X101965Y-57492D01*
X101871Y-57519D01*
X101800Y-57721D01*
X101811Y-57934D01*
X101871Y-58081D01*
X101965Y-58108D01*
X102272Y-57800D01*
X102272Y-57941D01*
X102035Y-58178D01*
X102062Y-58272D01*
X102264Y-58343D01*
X102477Y-58332D01*
X102624Y-58272D01*
X102651Y-58178D01*
X102651Y-58705D01*
X101175Y-58705D01*
X101175Y-55512D01*
X101175Y-55288D01*
X101174Y-55224D01*
X101174Y-55125D01*
X101136Y-55034D01*
X101066Y-54964D01*
X100974Y-54926D01*
X100862Y-54925D01*
X100800Y-54987D01*
X100800Y-55350D01*
X101113Y-55350D01*
X101175Y-55288D01*
X101175Y-55512D01*
X101113Y-55450D01*
X100800Y-55450D01*
X100800Y-55813D01*
X100862Y-55875D01*
X100974Y-55874D01*
X101066Y-55836D01*
X101136Y-55766D01*
X101174Y-55675D01*
X101174Y-55576D01*
X101175Y-55512D01*
X101175Y-58705D01*
X99433Y-58705D01*
X99445Y-58688D01*
X99445Y-58686D01*
X99447Y-58685D01*
X99461Y-58649D01*
X99475Y-58618D01*
X99475Y-58616D01*
X99476Y-58614D01*
X99490Y-58539D01*
X99491Y-58539D01*
X99491Y-58538D01*
X99491Y-58462D01*
X99491Y-58461D01*
X99490Y-58460D01*
X99476Y-58386D01*
X99475Y-58383D01*
X99475Y-58382D01*
X99461Y-58350D01*
X99447Y-58315D01*
X99445Y-58313D01*
X99445Y-58312D01*
X99404Y-58253D01*
X99402Y-58249D01*
X99367Y-58215D01*
X99351Y-58198D01*
X99347Y-58195D01*
X99346Y-58194D01*
X99287Y-58154D01*
X99285Y-58153D01*
X99261Y-58143D01*
X99217Y-58124D01*
X99216Y-58123D01*
X99214Y-58123D01*
X99140Y-58109D01*
X99139Y-58109D01*
X99137Y-58109D01*
X99095Y-58109D01*
X99095Y-57759D01*
X99095Y-57691D01*
X99095Y-57241D01*
X99069Y-57179D01*
X99021Y-57131D01*
X98959Y-57105D01*
X98891Y-57105D01*
X98541Y-57105D01*
X98479Y-57131D01*
X98470Y-57140D01*
X98455Y-57140D01*
X98417Y-57101D01*
X98309Y-57056D01*
X98192Y-57056D01*
X98084Y-57101D01*
X98001Y-57183D01*
X97991Y-57205D01*
X97541Y-57205D01*
X97479Y-57231D01*
X97450Y-57260D01*
X97421Y-57231D01*
X97390Y-57218D01*
X97394Y-57209D01*
X97394Y-57092D01*
X97349Y-56984D01*
X97267Y-56901D01*
X97159Y-56856D01*
X97042Y-56856D01*
X96934Y-56901D01*
X96912Y-56921D01*
X96892Y-56901D01*
X96784Y-56856D01*
X96667Y-56856D01*
X96559Y-56901D01*
X96537Y-56921D01*
X96517Y-56901D01*
X96409Y-56856D01*
X96292Y-56856D01*
X96184Y-56901D01*
X96101Y-56983D01*
X96056Y-57091D01*
X96056Y-57208D01*
X96060Y-57217D01*
X96029Y-57231D01*
X96000Y-57260D01*
X95971Y-57231D01*
X95940Y-57218D01*
X95944Y-57209D01*
X95944Y-57092D01*
X95899Y-56984D01*
X95817Y-56901D01*
X95709Y-56856D01*
X95592Y-56856D01*
X95484Y-56901D01*
X95401Y-56983D01*
X95356Y-57091D01*
X95356Y-57208D01*
X95360Y-57217D01*
X95329Y-57231D01*
X95300Y-57260D01*
X95271Y-57231D01*
X95240Y-57218D01*
X95244Y-57209D01*
X95244Y-57092D01*
X95199Y-56984D01*
X95117Y-56901D01*
X95009Y-56856D01*
X94892Y-56856D01*
X94784Y-56901D01*
X94701Y-56983D01*
X94656Y-57091D01*
X94656Y-57208D01*
X94660Y-57217D01*
X94629Y-57231D01*
X94600Y-57260D01*
X94571Y-57231D01*
X94540Y-57218D01*
X94544Y-57209D01*
X94544Y-57092D01*
X94499Y-56984D01*
X94417Y-56901D01*
X94309Y-56856D01*
X94192Y-56856D01*
X94084Y-56901D01*
X94001Y-56983D01*
X93956Y-57091D01*
X93956Y-57208D01*
X93960Y-57217D01*
X93929Y-57231D01*
X93900Y-57260D01*
X93871Y-57231D01*
X93840Y-57218D01*
X93844Y-57209D01*
X93844Y-57092D01*
X93799Y-56984D01*
X93717Y-56901D01*
X93609Y-56856D01*
X93492Y-56856D01*
X93384Y-56901D01*
X93362Y-56921D01*
X93342Y-56901D01*
X93234Y-56856D01*
X93117Y-56856D01*
X93009Y-56901D01*
X92987Y-56921D01*
X92967Y-56901D01*
X92859Y-56856D01*
X92742Y-56856D01*
X92634Y-56901D01*
X92612Y-56921D01*
X92592Y-56901D01*
X92484Y-56856D01*
X92367Y-56856D01*
X92259Y-56901D01*
X92237Y-56921D01*
X92217Y-56901D01*
X92109Y-56856D01*
X92050Y-56856D01*
X92050Y-55363D01*
X92050Y-55050D01*
X91687Y-55050D01*
X91625Y-55112D01*
X91626Y-55224D01*
X91664Y-55316D01*
X91734Y-55386D01*
X91825Y-55424D01*
X91924Y-55424D01*
X91988Y-55425D01*
X92050Y-55363D01*
X92050Y-56856D01*
X91992Y-56856D01*
X91884Y-56901D01*
X91801Y-56983D01*
X91756Y-57091D01*
X91756Y-57208D01*
X91760Y-57217D01*
X91729Y-57231D01*
X91700Y-57260D01*
X91671Y-57231D01*
X91640Y-57218D01*
X91644Y-57209D01*
X91644Y-57092D01*
X91599Y-56984D01*
X91517Y-56901D01*
X91409Y-56856D01*
X91292Y-56856D01*
X91184Y-56901D01*
X91101Y-56983D01*
X91056Y-57091D01*
X91056Y-57208D01*
X91060Y-57217D01*
X91029Y-57231D01*
X90981Y-57279D01*
X90955Y-57341D01*
X90955Y-57409D01*
X90955Y-57759D01*
X90981Y-57821D01*
X91012Y-57852D01*
X90984Y-57864D01*
X90914Y-57934D01*
X90876Y-58026D01*
X90875Y-58138D01*
X90937Y-58200D01*
X91250Y-58200D01*
X91300Y-58200D01*
X91400Y-58200D01*
X91400Y-58300D01*
X91400Y-58350D01*
X91400Y-58613D01*
X91462Y-58675D01*
X91526Y-58674D01*
X91625Y-58674D01*
X91716Y-58636D01*
X91767Y-58584D01*
X91791Y-58595D01*
X91859Y-58595D01*
X92309Y-58595D01*
X92371Y-58569D01*
X92419Y-58521D01*
X92425Y-58506D01*
X92431Y-58521D01*
X92479Y-58569D01*
X92541Y-58595D01*
X92609Y-58595D01*
X93059Y-58595D01*
X93121Y-58569D01*
X93169Y-58521D01*
X93175Y-58506D01*
X93181Y-58521D01*
X93229Y-58569D01*
X93291Y-58595D01*
X93359Y-58595D01*
X93809Y-58595D01*
X93832Y-58584D01*
X93884Y-58636D01*
X93975Y-58674D01*
X94074Y-58674D01*
X94138Y-58675D01*
X94200Y-58613D01*
X94200Y-58350D01*
X94200Y-58300D01*
X94200Y-58200D01*
X94300Y-58200D01*
X94350Y-58200D01*
X94537Y-58200D01*
X94663Y-58200D01*
X94850Y-58200D01*
X94900Y-58200D01*
X95000Y-58200D01*
X95050Y-58200D01*
X95237Y-58200D01*
X95363Y-58200D01*
X95550Y-58200D01*
X95600Y-58200D01*
X95700Y-58200D01*
X95750Y-58200D01*
X95937Y-58200D01*
X96063Y-58200D01*
X96250Y-58200D01*
X96300Y-58200D01*
X96400Y-58200D01*
X96400Y-58300D01*
X96400Y-58350D01*
X96400Y-58613D01*
X96462Y-58675D01*
X96526Y-58674D01*
X96625Y-58674D01*
X96716Y-58636D01*
X96781Y-58570D01*
X96841Y-58595D01*
X96909Y-58595D01*
X97359Y-58595D01*
X97382Y-58584D01*
X97434Y-58636D01*
X97525Y-58674D01*
X97624Y-58674D01*
X97688Y-58675D01*
X97750Y-58613D01*
X97750Y-58350D01*
X97750Y-58300D01*
X97750Y-58200D01*
X97850Y-58200D01*
X97900Y-58200D01*
X98213Y-58200D01*
X98275Y-58138D01*
X98274Y-58026D01*
X98236Y-57934D01*
X98166Y-57864D01*
X98137Y-57852D01*
X98169Y-57821D01*
X98195Y-57759D01*
X98195Y-57691D01*
X98195Y-57644D01*
X98308Y-57644D01*
X98405Y-57603D01*
X98405Y-57759D01*
X98431Y-57821D01*
X98479Y-57869D01*
X98541Y-57895D01*
X98609Y-57895D01*
X98959Y-57895D01*
X99021Y-57869D01*
X99069Y-57821D01*
X99095Y-57759D01*
X99095Y-58109D01*
X99062Y-58109D01*
X99061Y-58109D01*
X99060Y-58109D01*
X98986Y-58124D01*
X98983Y-58124D01*
X98982Y-58125D01*
X98950Y-58138D01*
X98915Y-58153D01*
X98913Y-58154D01*
X98912Y-58155D01*
X98849Y-58198D01*
X98815Y-58232D01*
X98798Y-58249D01*
X98795Y-58252D01*
X98795Y-58253D01*
X98794Y-58253D01*
X98754Y-58313D01*
X98753Y-58314D01*
X98753Y-58315D01*
X98743Y-58338D01*
X98724Y-58383D01*
X98723Y-58383D01*
X98723Y-58386D01*
X98709Y-58459D01*
X98709Y-58461D01*
X98709Y-58463D01*
X98709Y-58537D01*
X98709Y-58539D01*
X98709Y-58540D01*
X98723Y-58614D01*
X98723Y-58616D01*
X98724Y-58617D01*
X98743Y-58661D01*
X98753Y-58685D01*
X98754Y-58687D01*
X98766Y-58705D01*
X98275Y-58705D01*
X98275Y-58362D01*
X98213Y-58300D01*
X97850Y-58300D01*
X97850Y-58613D01*
X97912Y-58675D01*
X97976Y-58674D01*
X98075Y-58674D01*
X98166Y-58636D01*
X98236Y-58566D01*
X98274Y-58474D01*
X98275Y-58362D01*
X98275Y-58705D01*
X96300Y-58705D01*
X96300Y-58613D01*
X96300Y-58300D01*
X96063Y-58300D01*
X95937Y-58300D01*
X95700Y-58300D01*
X95700Y-58613D01*
X95762Y-58675D01*
X95826Y-58674D01*
X95925Y-58674D01*
X96000Y-58642D01*
X96075Y-58674D01*
X96174Y-58674D01*
X96238Y-58675D01*
X96300Y-58613D01*
X96300Y-58705D01*
X95600Y-58705D01*
X95600Y-58613D01*
X95600Y-58300D01*
X95363Y-58300D01*
X95237Y-58300D01*
X95000Y-58300D01*
X95000Y-58613D01*
X95062Y-58675D01*
X95126Y-58674D01*
X95225Y-58674D01*
X95300Y-58642D01*
X95375Y-58674D01*
X95474Y-58674D01*
X95538Y-58675D01*
X95600Y-58613D01*
X95600Y-58705D01*
X94900Y-58705D01*
X94900Y-58613D01*
X94900Y-58300D01*
X94663Y-58300D01*
X94537Y-58300D01*
X94300Y-58300D01*
X94300Y-58613D01*
X94362Y-58675D01*
X94426Y-58674D01*
X94525Y-58674D01*
X94600Y-58642D01*
X94675Y-58674D01*
X94774Y-58674D01*
X94838Y-58675D01*
X94900Y-58613D01*
X94900Y-58705D01*
X91124Y-58705D01*
X91137Y-58674D01*
X91174Y-58674D01*
X91238Y-58675D01*
X91300Y-58613D01*
X91300Y-58300D01*
X90937Y-58300D01*
X90924Y-58312D01*
X90909Y-58306D01*
X90792Y-58306D01*
X90764Y-58317D01*
X90720Y-58273D01*
X90720Y-57466D01*
X90694Y-57404D01*
X90646Y-57356D01*
X90584Y-57330D01*
X90516Y-57330D01*
X89816Y-57330D01*
X89754Y-57356D01*
X89706Y-57404D01*
X89680Y-57466D01*
X89680Y-57534D01*
X89680Y-58634D01*
X89706Y-58696D01*
X89715Y-58705D01*
X89285Y-58705D01*
X89294Y-58696D01*
X89320Y-58634D01*
X89320Y-58566D01*
X89320Y-57466D01*
X89294Y-57404D01*
X89246Y-57356D01*
X89184Y-57330D01*
X89116Y-57330D01*
X89085Y-57330D01*
X89094Y-57309D01*
X89094Y-57192D01*
X89049Y-57084D01*
X88967Y-57001D01*
X88951Y-56994D01*
X91705Y-54241D01*
X91705Y-54509D01*
X91731Y-54571D01*
X91762Y-54602D01*
X91734Y-54614D01*
X91664Y-54684D01*
X91626Y-54776D01*
X91625Y-54888D01*
X91687Y-54950D01*
X92000Y-54950D01*
X92050Y-54950D01*
X92150Y-54950D01*
X92150Y-55050D01*
X92150Y-55100D01*
X92150Y-55363D01*
X92212Y-55425D01*
X92276Y-55424D01*
X92375Y-55424D01*
X92437Y-55398D01*
X92437Y-55471D01*
X92463Y-55533D01*
X92511Y-55581D01*
X92573Y-55607D01*
X92641Y-55607D01*
X93427Y-55607D01*
X93489Y-55581D01*
X93537Y-55533D01*
X93563Y-55471D01*
X93563Y-55403D01*
X93563Y-54871D01*
X93616Y-54849D01*
X93699Y-54767D01*
X93744Y-54659D01*
X93744Y-54542D01*
X93699Y-54434D01*
X93617Y-54351D01*
X93563Y-54328D01*
X93563Y-53829D01*
X93537Y-53767D01*
X93489Y-53719D01*
X93427Y-53693D01*
X93359Y-53693D01*
X92573Y-53693D01*
X92511Y-53719D01*
X92463Y-53767D01*
X92437Y-53829D01*
X92437Y-53897D01*
X92437Y-53997D01*
X92421Y-53981D01*
X92359Y-53955D01*
X92291Y-53955D01*
X91991Y-53955D01*
X94564Y-51382D01*
X94581Y-51421D01*
X94629Y-51469D01*
X94691Y-51495D01*
X94759Y-51495D01*
X95209Y-51495D01*
X95271Y-51469D01*
X95300Y-51440D01*
X95329Y-51469D01*
X95391Y-51495D01*
X95459Y-51495D01*
X95821Y-51495D01*
X95825Y-51505D01*
X95391Y-51505D01*
X95329Y-51531D01*
X95300Y-51560D01*
X95271Y-51531D01*
X95209Y-51505D01*
X95141Y-51505D01*
X94691Y-51505D01*
X94629Y-51531D01*
X94581Y-51579D01*
X94555Y-51641D01*
X94555Y-51709D01*
X94555Y-52059D01*
X94581Y-52121D01*
X94629Y-52169D01*
X94691Y-52195D01*
X94759Y-52195D01*
X95209Y-52195D01*
X95271Y-52169D01*
X95300Y-52140D01*
X95329Y-52169D01*
X95391Y-52195D01*
X95459Y-52195D01*
X95909Y-52195D01*
X95971Y-52169D01*
X96019Y-52121D01*
X96044Y-52060D01*
X96726Y-52060D01*
X96731Y-52071D01*
X96779Y-52119D01*
X96841Y-52145D01*
X96899Y-52145D01*
X96902Y-52148D01*
X96956Y-52202D01*
X96956Y-52258D01*
X97001Y-52366D01*
X97083Y-52449D01*
X97191Y-52494D01*
X97308Y-52494D01*
X97416Y-52449D01*
X97455Y-52410D01*
X98063Y-52410D01*
X98190Y-52536D01*
X98190Y-53693D01*
X98159Y-53693D01*
X97373Y-53693D01*
X97311Y-53719D01*
X97263Y-53767D01*
X97237Y-53829D01*
X97237Y-53897D01*
X97237Y-55471D01*
X97263Y-55533D01*
X97311Y-55581D01*
X97373Y-55607D01*
X97441Y-55607D01*
X97541Y-55607D01*
X97551Y-55653D01*
X97609Y-55741D01*
X98350Y-56481D01*
X98350Y-56664D01*
X98376Y-56726D01*
X98424Y-56774D01*
X98486Y-56800D01*
X98554Y-56800D01*
X98914Y-56800D01*
X98976Y-56774D01*
X99024Y-56726D01*
X99050Y-56664D01*
X99050Y-56646D01*
X99150Y-56746D01*
X99150Y-57014D01*
X99176Y-57076D01*
X99215Y-57115D01*
X99179Y-57131D01*
X99131Y-57179D01*
X99105Y-57241D01*
X99105Y-57309D01*
X99105Y-57759D01*
X99131Y-57821D01*
X99179Y-57869D01*
X99241Y-57895D01*
X99309Y-57895D01*
X99659Y-57895D01*
X99721Y-57869D01*
X99769Y-57821D01*
X99787Y-57778D01*
X99787Y-57893D01*
X99858Y-58066D01*
X99990Y-58198D01*
X100163Y-58270D01*
X100350Y-58270D01*
X100523Y-58199D01*
X100655Y-58067D01*
X100727Y-57894D01*
X100727Y-57707D01*
X100656Y-57534D01*
X100524Y-57402D01*
X100351Y-57330D01*
X100164Y-57330D01*
X99991Y-57401D01*
X99859Y-57533D01*
X99795Y-57686D01*
X99795Y-57241D01*
X99769Y-57179D01*
X99732Y-57142D01*
X99776Y-57124D01*
X99824Y-57076D01*
X99850Y-57014D01*
X99850Y-56946D01*
X99850Y-56586D01*
X99824Y-56524D01*
X99799Y-56499D01*
X99821Y-56491D01*
X99891Y-56421D01*
X99897Y-56405D01*
X99990Y-56498D01*
X100163Y-56570D01*
X100350Y-56570D01*
X100523Y-56499D01*
X100655Y-56367D01*
X100727Y-56194D01*
X100727Y-56007D01*
X100662Y-55850D01*
X100700Y-55813D01*
X100700Y-55500D01*
X100700Y-55450D01*
X100700Y-55350D01*
X100700Y-55300D01*
X100700Y-54987D01*
X100638Y-54925D01*
X100526Y-54926D01*
X100434Y-54964D01*
X100364Y-55034D01*
X100352Y-55062D01*
X100321Y-55031D01*
X100259Y-55005D01*
X100191Y-55005D01*
X99841Y-55005D01*
X99779Y-55031D01*
X99750Y-55060D01*
X99743Y-55053D01*
X99951Y-54845D01*
X100259Y-54845D01*
X100321Y-54819D01*
X100369Y-54771D01*
X100395Y-54709D01*
X100395Y-54641D01*
X100395Y-54191D01*
X100369Y-54129D01*
X100321Y-54081D01*
X100259Y-54055D01*
X100191Y-54055D01*
X99841Y-54055D01*
X99790Y-54075D01*
X99755Y-54040D01*
X99951Y-53845D01*
X100259Y-53845D01*
X100321Y-53819D01*
X100369Y-53771D01*
X100395Y-53709D01*
X100395Y-53641D01*
X100395Y-53191D01*
X100369Y-53129D01*
X100321Y-53081D01*
X100259Y-53055D01*
X100191Y-53055D01*
X99841Y-53055D01*
X99790Y-53075D01*
X99755Y-53040D01*
X99951Y-52845D01*
X100259Y-52845D01*
X100321Y-52819D01*
X100369Y-52771D01*
X100395Y-52709D01*
X100395Y-52641D01*
X100395Y-52191D01*
X100369Y-52129D01*
X100321Y-52081D01*
X100259Y-52055D01*
X100191Y-52055D01*
X99841Y-52055D01*
X99790Y-52075D01*
X99755Y-52040D01*
X99951Y-51845D01*
X100259Y-51845D01*
X100321Y-51819D01*
X100369Y-51771D01*
X100395Y-51709D01*
X100395Y-51641D01*
X100395Y-51191D01*
X100369Y-51129D01*
X100321Y-51081D01*
X100259Y-51055D01*
X100191Y-51055D01*
X99841Y-51055D01*
X99790Y-51075D01*
X99755Y-51040D01*
X99951Y-50845D01*
X100259Y-50845D01*
X100321Y-50819D01*
X100369Y-50771D01*
X100395Y-50709D01*
X100395Y-50641D01*
X100395Y-50191D01*
X100369Y-50129D01*
X100321Y-50081D01*
X100259Y-50055D01*
X100244Y-50055D01*
X100244Y-49942D01*
X100203Y-49845D01*
X100259Y-49845D01*
X100321Y-49819D01*
X100369Y-49771D01*
X100395Y-49709D01*
X100395Y-49641D01*
X100395Y-49191D01*
X100369Y-49129D01*
X100321Y-49081D01*
X100259Y-49055D01*
X100191Y-49055D01*
X99841Y-49055D01*
X99790Y-49075D01*
X99746Y-49031D01*
X99684Y-49005D01*
X99616Y-49005D01*
X99394Y-49005D01*
X99394Y-48895D01*
X99684Y-48895D01*
X99746Y-48869D01*
X99790Y-48824D01*
X99841Y-48845D01*
X99909Y-48845D01*
X100259Y-48845D01*
X100321Y-48819D01*
X100369Y-48771D01*
X100395Y-48709D01*
X100395Y-48641D01*
X100395Y-48191D01*
X100369Y-48129D01*
X100321Y-48081D01*
X100259Y-48055D01*
X100191Y-48055D01*
X99951Y-48055D01*
X99755Y-47859D01*
X99790Y-47824D01*
X99841Y-47845D01*
X99909Y-47845D01*
X100259Y-47845D01*
X100321Y-47819D01*
X100369Y-47771D01*
X100395Y-47709D01*
X100395Y-47641D01*
X100395Y-47191D01*
X100369Y-47129D01*
X100321Y-47081D01*
X100259Y-47055D01*
X100191Y-47055D01*
X99951Y-47055D01*
X99755Y-46859D01*
X99790Y-46824D01*
X99841Y-46845D01*
X99909Y-46845D01*
X100259Y-46845D01*
X100321Y-46819D01*
X100369Y-46771D01*
X100395Y-46709D01*
X100395Y-46641D01*
X100395Y-46191D01*
X100369Y-46129D01*
X100321Y-46081D01*
X100259Y-46055D01*
X100191Y-46055D01*
X99841Y-46055D01*
X99790Y-46075D01*
X99746Y-46031D01*
X99684Y-46005D01*
X99616Y-46005D01*
X99266Y-46005D01*
X99223Y-46022D01*
X99351Y-45895D01*
X99659Y-45895D01*
X99721Y-45869D01*
X99750Y-45840D01*
X99779Y-45869D01*
X99841Y-45895D01*
X99909Y-45895D01*
X100259Y-45895D01*
X100321Y-45869D01*
X100352Y-45837D01*
X100364Y-45866D01*
X100434Y-45936D01*
X100526Y-45974D01*
X100638Y-45975D01*
X100700Y-45913D01*
X100700Y-45600D01*
X100700Y-45550D01*
X100700Y-45450D01*
X100700Y-45400D01*
X100700Y-45087D01*
X100638Y-45025D01*
X100526Y-45026D01*
X100434Y-45064D01*
X100364Y-45134D01*
X100352Y-45162D01*
X100321Y-45131D01*
X100316Y-45129D01*
X100900Y-44547D01*
X100900Y-44546D01*
X100909Y-44533D01*
X100906Y-44541D01*
X100906Y-44658D01*
X100951Y-44766D01*
X101033Y-44849D01*
X101141Y-44894D01*
X101258Y-44894D01*
X101366Y-44849D01*
X101449Y-44767D01*
X101494Y-44659D01*
X101494Y-44602D01*
X101498Y-44599D01*
X101498Y-44598D01*
X101533Y-44545D01*
X101534Y-44545D01*
X101606Y-44545D01*
X101606Y-44658D01*
X101651Y-44766D01*
X101733Y-44849D01*
X101841Y-44894D01*
X101958Y-44894D01*
X102066Y-44849D01*
X102149Y-44767D01*
X102194Y-44659D01*
X102194Y-44602D01*
X102198Y-44599D01*
X102198Y-44598D01*
X102233Y-44545D01*
X102234Y-44545D01*
X102280Y-44545D01*
X102280Y-45032D01*
X102234Y-45051D01*
X102102Y-45183D01*
X102030Y-45356D01*
X102030Y-45543D01*
X102101Y-45716D01*
X102233Y-45848D01*
X102406Y-45920D01*
X102593Y-45920D01*
X102766Y-45849D01*
X102898Y-45717D01*
X102970Y-45544D01*
X102970Y-45357D01*
X102899Y-45184D01*
X102820Y-45105D01*
X102820Y-42700D01*
X102819Y-42699D01*
X102820Y-42699D01*
X102815Y-42678D01*
X102805Y-42629D01*
X102805Y-42628D01*
X102820Y-42594D01*
X102820Y-42407D01*
X102749Y-42234D01*
X102617Y-42102D01*
X102452Y-42033D01*
X102484Y-42032D01*
X102631Y-41972D01*
X102658Y-41878D01*
X102385Y-41606D01*
X102350Y-41571D01*
X102279Y-41500D01*
X102350Y-41429D01*
X102421Y-41500D01*
X102456Y-41535D01*
X102728Y-41808D01*
X102822Y-41781D01*
X102893Y-41579D01*
X102882Y-41366D01*
X102822Y-41219D01*
X102783Y-41207D01*
X102796Y-41195D01*
X105455Y-41195D01*
X105455Y-58705D01*
X105455Y-58705D01*
G37*
G54D35*
X105455Y-58705D02*
X104691Y-58705D01*
X104691Y-57439D01*
X104691Y-57438D01*
X104691Y-57362D01*
X104691Y-57361D01*
X104691Y-42639D01*
X104691Y-42638D01*
X104691Y-42562D01*
X104691Y-42561D01*
X104653Y-42372D01*
X104653Y-42371D01*
X104624Y-42301D01*
X104624Y-42300D01*
X104622Y-42298D01*
X104517Y-42138D01*
X104463Y-42084D01*
X104461Y-42083D01*
X104299Y-41975D01*
X104228Y-41947D01*
X104038Y-41909D01*
X103962Y-41909D01*
X103961Y-41909D01*
X103771Y-41947D01*
X103700Y-41976D01*
X103698Y-41977D01*
X103538Y-42083D01*
X103484Y-42137D01*
X103483Y-42138D01*
X103483Y-42139D01*
X103375Y-42301D01*
X103347Y-42372D01*
X103309Y-42562D01*
X103309Y-42638D01*
X103347Y-42828D01*
X103375Y-42899D01*
X103483Y-43061D01*
X103484Y-43063D01*
X103538Y-43117D01*
X103698Y-43222D01*
X103700Y-43224D01*
X103701Y-43224D01*
X103771Y-43253D01*
X103772Y-43253D01*
X103961Y-43291D01*
X103962Y-43291D01*
X104038Y-43291D01*
X104228Y-43253D01*
X104299Y-43225D01*
X104299Y-43224D01*
X104461Y-43117D01*
X104461Y-43116D01*
X104463Y-43116D01*
X104515Y-43063D01*
X104517Y-43062D01*
X104622Y-42901D01*
X104624Y-42900D01*
X104624Y-42899D01*
X104653Y-42829D01*
X104653Y-42828D01*
X104691Y-42639D01*
X104691Y-57361D01*
X104653Y-57172D01*
X104653Y-57171D01*
X104624Y-57101D01*
X104624Y-57100D01*
X104622Y-57098D01*
X104517Y-56938D01*
X104463Y-56884D01*
X104461Y-56883D01*
X104299Y-56775D01*
X104228Y-56747D01*
X104038Y-56709D01*
X103962Y-56709D01*
X103961Y-56709D01*
X103771Y-56747D01*
X103700Y-56776D01*
X103698Y-56777D01*
X103538Y-56883D01*
X103484Y-56937D01*
X103483Y-56938D01*
X103483Y-56939D01*
X103375Y-57101D01*
X103347Y-57172D01*
X103309Y-57362D01*
X103309Y-57438D01*
X103347Y-57628D01*
X103375Y-57699D01*
X103483Y-57861D01*
X103484Y-57863D01*
X103538Y-57917D01*
X103698Y-58022D01*
X103700Y-58024D01*
X103701Y-58024D01*
X103771Y-58053D01*
X103772Y-58053D01*
X103961Y-58091D01*
X103962Y-58091D01*
X104038Y-58091D01*
X104228Y-58053D01*
X104299Y-58025D01*
X104299Y-58024D01*
X104461Y-57917D01*
X104461Y-57916D01*
X104463Y-57916D01*
X104515Y-57863D01*
X104517Y-57862D01*
X104622Y-57701D01*
X104624Y-57700D01*
X104624Y-57699D01*
X104653Y-57629D01*
X104653Y-57628D01*
X104691Y-57439D01*
X104691Y-58705D01*
X102970Y-58705D01*
X102970Y-54544D01*
X102970Y-54357D01*
X102970Y-53544D01*
X102970Y-53357D01*
X102970Y-52544D01*
X102970Y-52357D01*
X102970Y-51544D01*
X102970Y-51357D01*
X102970Y-50544D01*
X102970Y-50357D01*
X102899Y-50184D01*
X102770Y-50055D01*
X102770Y-49845D01*
X102898Y-49717D01*
X102970Y-49544D01*
X102970Y-49357D01*
X102899Y-49184D01*
X102770Y-49055D01*
X102770Y-48845D01*
X102898Y-48717D01*
X102970Y-48544D01*
X102970Y-48357D01*
X102899Y-48184D01*
X102770Y-48055D01*
X102770Y-47845D01*
X102898Y-47717D01*
X102970Y-47544D01*
X102970Y-47357D01*
X102899Y-47184D01*
X102770Y-47055D01*
X102770Y-46845D01*
X102898Y-46717D01*
X102970Y-46544D01*
X102970Y-46357D01*
X102899Y-46184D01*
X102767Y-46052D01*
X102594Y-45980D01*
X102407Y-45980D01*
X102234Y-46051D01*
X102102Y-46183D01*
X102030Y-46356D01*
X102030Y-46543D01*
X102101Y-46716D01*
X102230Y-46845D01*
X102230Y-47055D01*
X102102Y-47183D01*
X102030Y-47356D01*
X102030Y-47543D01*
X102101Y-47716D01*
X102230Y-47845D01*
X102230Y-48055D01*
X102102Y-48183D01*
X102030Y-48356D01*
X102030Y-48543D01*
X102101Y-48716D01*
X102230Y-48845D01*
X102230Y-49055D01*
X102102Y-49183D01*
X102030Y-49356D01*
X102030Y-49543D01*
X102101Y-49716D01*
X102230Y-49845D01*
X102230Y-50055D01*
X102102Y-50183D01*
X102030Y-50356D01*
X102030Y-50543D01*
X102101Y-50716D01*
X102233Y-50848D01*
X102406Y-50920D01*
X102593Y-50920D01*
X102766Y-50849D01*
X102898Y-50717D01*
X102970Y-50544D01*
X102970Y-51357D01*
X102899Y-51184D01*
X102767Y-51052D01*
X102594Y-50980D01*
X102407Y-50980D01*
X102234Y-51051D01*
X102102Y-51183D01*
X102030Y-51356D01*
X102030Y-51543D01*
X102101Y-51716D01*
X102233Y-51848D01*
X102406Y-51920D01*
X102593Y-51920D01*
X102766Y-51849D01*
X102898Y-51717D01*
X102970Y-51544D01*
X102970Y-52357D01*
X102899Y-52184D01*
X102767Y-52052D01*
X102594Y-51980D01*
X102407Y-51980D01*
X102234Y-52051D01*
X102102Y-52183D01*
X102030Y-52356D01*
X102030Y-52543D01*
X102101Y-52716D01*
X102233Y-52848D01*
X102406Y-52920D01*
X102593Y-52920D01*
X102766Y-52849D01*
X102898Y-52717D01*
X102970Y-52544D01*
X102970Y-53357D01*
X102899Y-53184D01*
X102767Y-53052D01*
X102594Y-52980D01*
X102407Y-52980D01*
X102234Y-53051D01*
X102102Y-53183D01*
X102030Y-53356D01*
X102030Y-53543D01*
X102101Y-53716D01*
X102233Y-53848D01*
X102406Y-53920D01*
X102593Y-53920D01*
X102766Y-53849D01*
X102898Y-53717D01*
X102970Y-53544D01*
X102970Y-54357D01*
X102899Y-54184D01*
X102767Y-54052D01*
X102594Y-53980D01*
X102407Y-53980D01*
X102234Y-54051D01*
X102102Y-54183D01*
X102030Y-54356D01*
X102030Y-54543D01*
X102101Y-54716D01*
X102233Y-54848D01*
X102406Y-54920D01*
X102593Y-54920D01*
X102766Y-54849D01*
X102898Y-54717D01*
X102970Y-54544D01*
X102970Y-58705D01*
X102886Y-58705D01*
X102886Y-57879D01*
X102886Y-56179D01*
X102875Y-55966D01*
X102815Y-55819D01*
X102721Y-55792D01*
X102651Y-55862D01*
X102651Y-55722D01*
X102624Y-55628D01*
X102422Y-55557D01*
X102209Y-55568D01*
X102062Y-55628D01*
X102035Y-55722D01*
X102343Y-56029D01*
X102651Y-55722D01*
X102651Y-55862D01*
X102414Y-56100D01*
X102721Y-56408D01*
X102815Y-56381D01*
X102886Y-56179D01*
X102886Y-57879D01*
X102875Y-57666D01*
X102815Y-57519D01*
X102721Y-57492D01*
X102651Y-57562D01*
X102651Y-57422D01*
X102651Y-56478D01*
X102343Y-56171D01*
X102272Y-56241D01*
X102272Y-56100D01*
X101970Y-55797D01*
X101970Y-54544D01*
X101970Y-54357D01*
X101970Y-53544D01*
X101970Y-53357D01*
X101970Y-52544D01*
X101970Y-52357D01*
X101970Y-51544D01*
X101970Y-51357D01*
X101970Y-50544D01*
X101970Y-50357D01*
X101970Y-49544D01*
X101970Y-49357D01*
X101970Y-48544D01*
X101970Y-48357D01*
X101970Y-47544D01*
X101970Y-47357D01*
X101970Y-46544D01*
X101970Y-46357D01*
X101970Y-45784D01*
X101970Y-45716D01*
X101970Y-45116D01*
X101944Y-45054D01*
X101896Y-45006D01*
X101834Y-44980D01*
X101766Y-44980D01*
X101166Y-44980D01*
X101104Y-45006D01*
X101056Y-45054D01*
X101053Y-45059D01*
X100974Y-45026D01*
X100862Y-45025D01*
X100800Y-45087D01*
X100800Y-45400D01*
X100800Y-45450D01*
X100800Y-45550D01*
X100800Y-45600D01*
X100800Y-45913D01*
X100862Y-45975D01*
X100974Y-45974D01*
X101066Y-45936D01*
X101106Y-45895D01*
X101166Y-45920D01*
X101234Y-45920D01*
X101834Y-45920D01*
X101896Y-45894D01*
X101944Y-45846D01*
X101970Y-45784D01*
X101970Y-46357D01*
X101899Y-46184D01*
X101767Y-46052D01*
X101594Y-45980D01*
X101407Y-45980D01*
X101234Y-46051D01*
X101102Y-46183D01*
X101095Y-46199D01*
X101095Y-46191D01*
X101069Y-46129D01*
X101021Y-46081D01*
X100959Y-46055D01*
X100891Y-46055D01*
X100541Y-46055D01*
X100479Y-46081D01*
X100431Y-46129D01*
X100405Y-46191D01*
X100405Y-46259D01*
X100405Y-46709D01*
X100431Y-46771D01*
X100479Y-46819D01*
X100541Y-46845D01*
X100609Y-46845D01*
X100959Y-46845D01*
X101021Y-46819D01*
X101069Y-46771D01*
X101095Y-46709D01*
X101095Y-46701D01*
X101101Y-46716D01*
X101233Y-46848D01*
X101406Y-46920D01*
X101593Y-46920D01*
X101766Y-46849D01*
X101898Y-46717D01*
X101970Y-46544D01*
X101970Y-47357D01*
X101899Y-47184D01*
X101767Y-47052D01*
X101594Y-46980D01*
X101407Y-46980D01*
X101234Y-47051D01*
X101102Y-47183D01*
X101095Y-47199D01*
X101095Y-47191D01*
X101069Y-47129D01*
X101021Y-47081D01*
X100959Y-47055D01*
X100891Y-47055D01*
X100541Y-47055D01*
X100479Y-47081D01*
X100431Y-47129D01*
X100405Y-47191D01*
X100405Y-47259D01*
X100405Y-47709D01*
X100431Y-47771D01*
X100479Y-47819D01*
X100541Y-47845D01*
X100609Y-47845D01*
X100959Y-47845D01*
X101021Y-47819D01*
X101069Y-47771D01*
X101095Y-47709D01*
X101095Y-47701D01*
X101101Y-47716D01*
X101233Y-47848D01*
X101406Y-47920D01*
X101593Y-47920D01*
X101766Y-47849D01*
X101898Y-47717D01*
X101970Y-47544D01*
X101970Y-48357D01*
X101899Y-48184D01*
X101767Y-48052D01*
X101594Y-47980D01*
X101407Y-47980D01*
X101234Y-48051D01*
X101102Y-48183D01*
X101095Y-48199D01*
X101095Y-48191D01*
X101069Y-48129D01*
X101021Y-48081D01*
X100959Y-48055D01*
X100891Y-48055D01*
X100541Y-48055D01*
X100479Y-48081D01*
X100431Y-48129D01*
X100405Y-48191D01*
X100405Y-48259D01*
X100405Y-48709D01*
X100431Y-48771D01*
X100479Y-48819D01*
X100541Y-48845D01*
X100609Y-48845D01*
X100959Y-48845D01*
X101021Y-48819D01*
X101069Y-48771D01*
X101095Y-48709D01*
X101095Y-48701D01*
X101101Y-48716D01*
X101233Y-48848D01*
X101406Y-48920D01*
X101593Y-48920D01*
X101766Y-48849D01*
X101898Y-48717D01*
X101970Y-48544D01*
X101970Y-49357D01*
X101899Y-49184D01*
X101767Y-49052D01*
X101594Y-48980D01*
X101407Y-48980D01*
X101234Y-49051D01*
X101102Y-49183D01*
X101095Y-49199D01*
X101095Y-49191D01*
X101069Y-49129D01*
X101021Y-49081D01*
X100959Y-49055D01*
X100891Y-49055D01*
X100541Y-49055D01*
X100479Y-49081D01*
X100431Y-49129D01*
X100405Y-49191D01*
X100405Y-49259D01*
X100405Y-49709D01*
X100431Y-49771D01*
X100479Y-49819D01*
X100541Y-49845D01*
X100609Y-49845D01*
X100959Y-49845D01*
X101021Y-49819D01*
X101069Y-49771D01*
X101095Y-49709D01*
X101095Y-49701D01*
X101101Y-49716D01*
X101233Y-49848D01*
X101406Y-49920D01*
X101593Y-49920D01*
X101766Y-49849D01*
X101898Y-49717D01*
X101970Y-49544D01*
X101970Y-50357D01*
X101899Y-50184D01*
X101767Y-50052D01*
X101594Y-49980D01*
X101407Y-49980D01*
X101234Y-50051D01*
X101102Y-50183D01*
X101095Y-50199D01*
X101095Y-50191D01*
X101069Y-50129D01*
X101021Y-50081D01*
X100959Y-50055D01*
X100891Y-50055D01*
X100541Y-50055D01*
X100479Y-50081D01*
X100431Y-50129D01*
X100405Y-50191D01*
X100405Y-50259D01*
X100405Y-50709D01*
X100431Y-50771D01*
X100479Y-50819D01*
X100541Y-50845D01*
X100609Y-50845D01*
X100959Y-50845D01*
X101021Y-50819D01*
X101069Y-50771D01*
X101095Y-50709D01*
X101095Y-50701D01*
X101101Y-50716D01*
X101233Y-50848D01*
X101406Y-50920D01*
X101593Y-50920D01*
X101766Y-50849D01*
X101898Y-50717D01*
X101970Y-50544D01*
X101970Y-51357D01*
X101899Y-51184D01*
X101767Y-51052D01*
X101594Y-50980D01*
X101407Y-50980D01*
X101234Y-51051D01*
X101102Y-51183D01*
X101095Y-51199D01*
X101095Y-51191D01*
X101069Y-51129D01*
X101021Y-51081D01*
X100959Y-51055D01*
X100891Y-51055D01*
X100541Y-51055D01*
X100479Y-51081D01*
X100431Y-51129D01*
X100405Y-51191D01*
X100405Y-51259D01*
X100405Y-51709D01*
X100431Y-51771D01*
X100479Y-51819D01*
X100541Y-51845D01*
X100609Y-51845D01*
X100959Y-51845D01*
X101021Y-51819D01*
X101069Y-51771D01*
X101095Y-51709D01*
X101095Y-51701D01*
X101101Y-51716D01*
X101233Y-51848D01*
X101406Y-51920D01*
X101593Y-51920D01*
X101766Y-51849D01*
X101898Y-51717D01*
X101970Y-51544D01*
X101970Y-52357D01*
X101899Y-52184D01*
X101767Y-52052D01*
X101594Y-51980D01*
X101407Y-51980D01*
X101234Y-52051D01*
X101102Y-52183D01*
X101095Y-52199D01*
X101095Y-52191D01*
X101069Y-52129D01*
X101021Y-52081D01*
X100959Y-52055D01*
X100891Y-52055D01*
X100541Y-52055D01*
X100479Y-52081D01*
X100431Y-52129D01*
X100405Y-52191D01*
X100405Y-52259D01*
X100405Y-52709D01*
X100431Y-52771D01*
X100479Y-52819D01*
X100541Y-52845D01*
X100609Y-52845D01*
X100959Y-52845D01*
X101021Y-52819D01*
X101069Y-52771D01*
X101095Y-52709D01*
X101095Y-52701D01*
X101101Y-52716D01*
X101233Y-52848D01*
X101406Y-52920D01*
X101593Y-52920D01*
X101766Y-52849D01*
X101898Y-52717D01*
X101970Y-52544D01*
X101970Y-53357D01*
X101899Y-53184D01*
X101767Y-53052D01*
X101594Y-52980D01*
X101407Y-52980D01*
X101234Y-53051D01*
X101102Y-53183D01*
X101095Y-53199D01*
X101095Y-53191D01*
X101069Y-53129D01*
X101021Y-53081D01*
X100959Y-53055D01*
X100891Y-53055D01*
X100541Y-53055D01*
X100479Y-53081D01*
X100431Y-53129D01*
X100405Y-53191D01*
X100405Y-53259D01*
X100405Y-53709D01*
X100431Y-53771D01*
X100479Y-53819D01*
X100541Y-53845D01*
X100609Y-53845D01*
X100959Y-53845D01*
X101021Y-53819D01*
X101069Y-53771D01*
X101095Y-53709D01*
X101095Y-53701D01*
X101101Y-53716D01*
X101233Y-53848D01*
X101406Y-53920D01*
X101593Y-53920D01*
X101766Y-53849D01*
X101898Y-53717D01*
X101970Y-53544D01*
X101970Y-54357D01*
X101899Y-54184D01*
X101767Y-54052D01*
X101594Y-53980D01*
X101407Y-53980D01*
X101234Y-54051D01*
X101102Y-54183D01*
X101095Y-54199D01*
X101095Y-54191D01*
X101069Y-54129D01*
X101021Y-54081D01*
X100959Y-54055D01*
X100891Y-54055D01*
X100541Y-54055D01*
X100479Y-54081D01*
X100431Y-54129D01*
X100405Y-54191D01*
X100405Y-54259D01*
X100405Y-54709D01*
X100431Y-54771D01*
X100479Y-54819D01*
X100541Y-54845D01*
X100609Y-54845D01*
X100959Y-54845D01*
X101021Y-54819D01*
X101069Y-54771D01*
X101095Y-54709D01*
X101095Y-54701D01*
X101101Y-54716D01*
X101233Y-54848D01*
X101406Y-54920D01*
X101593Y-54920D01*
X101766Y-54849D01*
X101898Y-54717D01*
X101970Y-54544D01*
X101970Y-55797D01*
X101965Y-55792D01*
X101871Y-55819D01*
X101800Y-56021D01*
X101811Y-56234D01*
X101871Y-56381D01*
X101965Y-56408D01*
X102272Y-56100D01*
X102272Y-56241D01*
X102035Y-56478D01*
X102062Y-56572D01*
X102264Y-56643D01*
X102477Y-56632D01*
X102624Y-56572D01*
X102651Y-56478D01*
X102651Y-57422D01*
X102624Y-57328D01*
X102422Y-57257D01*
X102209Y-57268D01*
X102062Y-57328D01*
X102035Y-57422D01*
X102343Y-57729D01*
X102651Y-57422D01*
X102651Y-57562D01*
X102414Y-57800D01*
X102721Y-58108D01*
X102815Y-58081D01*
X102886Y-57879D01*
X102886Y-58705D01*
X102651Y-58705D01*
X102651Y-58178D01*
X102343Y-57871D01*
X102272Y-57941D01*
X102272Y-57800D01*
X101965Y-57492D01*
X101871Y-57519D01*
X101800Y-57721D01*
X101811Y-57934D01*
X101871Y-58081D01*
X101965Y-58108D01*
X102272Y-57800D01*
X102272Y-57941D01*
X102035Y-58178D01*
X102062Y-58272D01*
X102264Y-58343D01*
X102477Y-58332D01*
X102624Y-58272D01*
X102651Y-58178D01*
X102651Y-58705D01*
X101175Y-58705D01*
X101175Y-55512D01*
X101175Y-55288D01*
X101174Y-55224D01*
X101174Y-55125D01*
X101136Y-55034D01*
X101066Y-54964D01*
X100974Y-54926D01*
X100862Y-54925D01*
X100800Y-54987D01*
X100800Y-55350D01*
X101113Y-55350D01*
X101175Y-55288D01*
X101175Y-55512D01*
X101113Y-55450D01*
X100800Y-55450D01*
X100800Y-55813D01*
X100862Y-55875D01*
X100974Y-55874D01*
X101066Y-55836D01*
X101136Y-55766D01*
X101174Y-55675D01*
X101174Y-55576D01*
X101175Y-55512D01*
X101175Y-58705D01*
X99433Y-58705D01*
X99445Y-58688D01*
X99445Y-58686D01*
X99447Y-58685D01*
X99461Y-58649D01*
X99475Y-58618D01*
X99475Y-58616D01*
X99476Y-58614D01*
X99490Y-58539D01*
X99491Y-58539D01*
X99491Y-58538D01*
X99491Y-58462D01*
X99491Y-58461D01*
X99490Y-58460D01*
X99476Y-58386D01*
X99475Y-58383D01*
X99475Y-58382D01*
X99461Y-58350D01*
X99447Y-58315D01*
X99445Y-58313D01*
X99445Y-58312D01*
X99404Y-58253D01*
X99402Y-58249D01*
X99367Y-58215D01*
X99351Y-58198D01*
X99347Y-58195D01*
X99346Y-58194D01*
X99287Y-58154D01*
X99285Y-58153D01*
X99261Y-58143D01*
X99217Y-58124D01*
X99216Y-58123D01*
X99214Y-58123D01*
X99140Y-58109D01*
X99139Y-58109D01*
X99137Y-58109D01*
X99095Y-58109D01*
X99095Y-57759D01*
X99095Y-57691D01*
X99095Y-57241D01*
X99069Y-57179D01*
X99021Y-57131D01*
X98959Y-57105D01*
X98891Y-57105D01*
X98541Y-57105D01*
X98479Y-57131D01*
X98470Y-57140D01*
X98455Y-57140D01*
X98417Y-57101D01*
X98309Y-57056D01*
X98192Y-57056D01*
X98084Y-57101D01*
X98001Y-57183D01*
X97991Y-57205D01*
X97541Y-57205D01*
X97479Y-57231D01*
X97450Y-57260D01*
X97421Y-57231D01*
X97390Y-57218D01*
X97394Y-57209D01*
X97394Y-57092D01*
X97349Y-56984D01*
X97267Y-56901D01*
X97159Y-56856D01*
X97042Y-56856D01*
X96934Y-56901D01*
X96912Y-56921D01*
X96892Y-56901D01*
X96784Y-56856D01*
X96667Y-56856D01*
X96559Y-56901D01*
X96537Y-56921D01*
X96517Y-56901D01*
X96409Y-56856D01*
X96292Y-56856D01*
X96184Y-56901D01*
X96101Y-56983D01*
X96056Y-57091D01*
X96056Y-57208D01*
X96060Y-57217D01*
X96029Y-57231D01*
X96000Y-57260D01*
X95971Y-57231D01*
X95940Y-57218D01*
X95944Y-57209D01*
X95944Y-57092D01*
X95899Y-56984D01*
X95817Y-56901D01*
X95709Y-56856D01*
X95592Y-56856D01*
X95484Y-56901D01*
X95401Y-56983D01*
X95356Y-57091D01*
X95356Y-57208D01*
X95360Y-57217D01*
X95329Y-57231D01*
X95300Y-57260D01*
X95271Y-57231D01*
X95240Y-57218D01*
X95244Y-57209D01*
X95244Y-57092D01*
X95199Y-56984D01*
X95117Y-56901D01*
X95009Y-56856D01*
X94892Y-56856D01*
X94784Y-56901D01*
X94701Y-56983D01*
X94656Y-57091D01*
X94656Y-57208D01*
X94660Y-57217D01*
X94629Y-57231D01*
X94600Y-57260D01*
X94571Y-57231D01*
X94540Y-57218D01*
X94544Y-57209D01*
X94544Y-57092D01*
X94499Y-56984D01*
X94417Y-56901D01*
X94309Y-56856D01*
X94192Y-56856D01*
X94084Y-56901D01*
X94001Y-56983D01*
X93956Y-57091D01*
X93956Y-57208D01*
X93960Y-57217D01*
X93929Y-57231D01*
X93900Y-57260D01*
X93871Y-57231D01*
X93840Y-57218D01*
X93844Y-57209D01*
X93844Y-57092D01*
X93799Y-56984D01*
X93717Y-56901D01*
X93609Y-56856D01*
X93492Y-56856D01*
X93384Y-56901D01*
X93362Y-56921D01*
X93342Y-56901D01*
X93234Y-56856D01*
X93117Y-56856D01*
X93009Y-56901D01*
X92987Y-56921D01*
X92967Y-56901D01*
X92859Y-56856D01*
X92742Y-56856D01*
X92634Y-56901D01*
X92612Y-56921D01*
X92592Y-56901D01*
X92484Y-56856D01*
X92367Y-56856D01*
X92259Y-56901D01*
X92237Y-56921D01*
X92217Y-56901D01*
X92109Y-56856D01*
X92050Y-56856D01*
X92050Y-55363D01*
X92050Y-55050D01*
X91687Y-55050D01*
X91625Y-55112D01*
X91626Y-55224D01*
X91664Y-55316D01*
X91734Y-55386D01*
X91825Y-55424D01*
X91924Y-55424D01*
X91988Y-55425D01*
X92050Y-55363D01*
X92050Y-56856D01*
X91992Y-56856D01*
X91884Y-56901D01*
X91801Y-56983D01*
X91756Y-57091D01*
X91756Y-57208D01*
X91760Y-57217D01*
X91729Y-57231D01*
X91700Y-57260D01*
X91671Y-57231D01*
X91640Y-57218D01*
X91644Y-57209D01*
X91644Y-57092D01*
X91599Y-56984D01*
X91517Y-56901D01*
X91409Y-56856D01*
X91292Y-56856D01*
X91184Y-56901D01*
X91101Y-56983D01*
X91056Y-57091D01*
X91056Y-57208D01*
X91060Y-57217D01*
X91029Y-57231D01*
X90981Y-57279D01*
X90955Y-57341D01*
X90955Y-57409D01*
X90955Y-57759D01*
X90981Y-57821D01*
X91012Y-57852D01*
X90984Y-57864D01*
X90914Y-57934D01*
X90876Y-58026D01*
X90875Y-58138D01*
X90937Y-58200D01*
X91250Y-58200D01*
X91300Y-58200D01*
X91400Y-58200D01*
X91400Y-58300D01*
X91400Y-58350D01*
X91400Y-58613D01*
X91462Y-58675D01*
X91526Y-58674D01*
X91625Y-58674D01*
X91716Y-58636D01*
X91767Y-58584D01*
X91791Y-58595D01*
X91859Y-58595D01*
X92309Y-58595D01*
X92371Y-58569D01*
X92419Y-58521D01*
X92425Y-58506D01*
X92431Y-58521D01*
X92479Y-58569D01*
X92541Y-58595D01*
X92609Y-58595D01*
X93059Y-58595D01*
X93121Y-58569D01*
X93169Y-58521D01*
X93175Y-58506D01*
X93181Y-58521D01*
X93229Y-58569D01*
X93291Y-58595D01*
X93359Y-58595D01*
X93809Y-58595D01*
X93832Y-58584D01*
X93884Y-58636D01*
X93975Y-58674D01*
X94074Y-58674D01*
X94138Y-58675D01*
X94200Y-58613D01*
X94200Y-58350D01*
X94200Y-58300D01*
X94200Y-58200D01*
X94300Y-58200D01*
X94350Y-58200D01*
X94537Y-58200D01*
X94663Y-58200D01*
X94850Y-58200D01*
X94900Y-58200D01*
X95000Y-58200D01*
X95050Y-58200D01*
X95237Y-58200D01*
X95363Y-58200D01*
X95550Y-58200D01*
X95600Y-58200D01*
X95700Y-58200D01*
X95750Y-58200D01*
X95937Y-58200D01*
X96063Y-58200D01*
X96250Y-58200D01*
X96300Y-58200D01*
X96400Y-58200D01*
X96400Y-58300D01*
X96400Y-58350D01*
X96400Y-58613D01*
X96462Y-58675D01*
X96526Y-58674D01*
X96625Y-58674D01*
X96716Y-58636D01*
X96781Y-58570D01*
X96841Y-58595D01*
X96909Y-58595D01*
X97359Y-58595D01*
X97382Y-58584D01*
X97434Y-58636D01*
X97525Y-58674D01*
X97624Y-58674D01*
X97688Y-58675D01*
X97750Y-58613D01*
X97750Y-58350D01*
X97750Y-58300D01*
X97750Y-58200D01*
X97850Y-58200D01*
X97900Y-58200D01*
X98213Y-58200D01*
X98275Y-58138D01*
X98274Y-58026D01*
X98236Y-57934D01*
X98166Y-57864D01*
X98137Y-57852D01*
X98169Y-57821D01*
X98195Y-57759D01*
X98195Y-57691D01*
X98195Y-57644D01*
X98308Y-57644D01*
X98405Y-57603D01*
X98405Y-57759D01*
X98431Y-57821D01*
X98479Y-57869D01*
X98541Y-57895D01*
X98609Y-57895D01*
X98959Y-57895D01*
X99021Y-57869D01*
X99069Y-57821D01*
X99095Y-57759D01*
X99095Y-58109D01*
X99062Y-58109D01*
X99061Y-58109D01*
X99060Y-58109D01*
X98986Y-58124D01*
X98983Y-58124D01*
X98982Y-58125D01*
X98950Y-58138D01*
X98915Y-58153D01*
X98913Y-58154D01*
X98912Y-58155D01*
X98849Y-58198D01*
X98815Y-58232D01*
X98798Y-58249D01*
X98795Y-58252D01*
X98795Y-58253D01*
X98794Y-58253D01*
X98754Y-58313D01*
X98753Y-58314D01*
X98753Y-58315D01*
X98743Y-58338D01*
X98724Y-58383D01*
X98723Y-58383D01*
X98723Y-58386D01*
X98709Y-58459D01*
X98709Y-58461D01*
X98709Y-58463D01*
X98709Y-58537D01*
X98709Y-58539D01*
X98709Y-58540D01*
X98723Y-58614D01*
X98723Y-58616D01*
X98724Y-58617D01*
X98743Y-58661D01*
X98753Y-58685D01*
X98754Y-58687D01*
X98766Y-58705D01*
X98275Y-58705D01*
X98275Y-58362D01*
X98213Y-58300D01*
X97850Y-58300D01*
X97850Y-58613D01*
X97912Y-58675D01*
X97976Y-58674D01*
X98075Y-58674D01*
X98166Y-58636D01*
X98236Y-58566D01*
X98274Y-58474D01*
X98275Y-58362D01*
X98275Y-58705D01*
X96300Y-58705D01*
X96300Y-58613D01*
X96300Y-58300D01*
X96063Y-58300D01*
X95937Y-58300D01*
X95700Y-58300D01*
X95700Y-58613D01*
X95762Y-58675D01*
X95826Y-58674D01*
X95925Y-58674D01*
X96000Y-58642D01*
X96075Y-58674D01*
X96174Y-58674D01*
X96238Y-58675D01*
X96300Y-58613D01*
X96300Y-58705D01*
X95600Y-58705D01*
X95600Y-58613D01*
X95600Y-58300D01*
X95363Y-58300D01*
X95237Y-58300D01*
X95000Y-58300D01*
X95000Y-58613D01*
X95062Y-58675D01*
X95126Y-58674D01*
X95225Y-58674D01*
X95300Y-58642D01*
X95375Y-58674D01*
X95474Y-58674D01*
X95538Y-58675D01*
X95600Y-58613D01*
X95600Y-58705D01*
X94900Y-58705D01*
X94900Y-58613D01*
X94900Y-58300D01*
X94663Y-58300D01*
X94537Y-58300D01*
X94300Y-58300D01*
X94300Y-58613D01*
X94362Y-58675D01*
X94426Y-58674D01*
X94525Y-58674D01*
X94600Y-58642D01*
X94675Y-58674D01*
X94774Y-58674D01*
X94838Y-58675D01*
X94900Y-58613D01*
X94900Y-58705D01*
X91124Y-58705D01*
X91137Y-58674D01*
X91174Y-58674D01*
X91238Y-58675D01*
X91300Y-58613D01*
X91300Y-58300D01*
X90937Y-58300D01*
X90924Y-58312D01*
X90909Y-58306D01*
X90792Y-58306D01*
X90764Y-58317D01*
X90720Y-58273D01*
X90720Y-57466D01*
X90694Y-57404D01*
X90646Y-57356D01*
X90584Y-57330D01*
X90516Y-57330D01*
X89816Y-57330D01*
X89754Y-57356D01*
X89706Y-57404D01*
X89680Y-57466D01*
X89680Y-57534D01*
X89680Y-58634D01*
X89706Y-58696D01*
X89715Y-58705D01*
X89285Y-58705D01*
X89294Y-58696D01*
X89320Y-58634D01*
X89320Y-58566D01*
X89320Y-57466D01*
X89294Y-57404D01*
X89246Y-57356D01*
X89184Y-57330D01*
X89116Y-57330D01*
X89085Y-57330D01*
X89094Y-57309D01*
X89094Y-57192D01*
X89049Y-57084D01*
X88967Y-57001D01*
X88951Y-56994D01*
X91705Y-54241D01*
X91705Y-54509D01*
X91731Y-54571D01*
X91762Y-54602D01*
X91734Y-54614D01*
X91664Y-54684D01*
X91626Y-54776D01*
X91625Y-54888D01*
X91687Y-54950D01*
X92000Y-54950D01*
X92050Y-54950D01*
X92150Y-54950D01*
X92150Y-55050D01*
X92150Y-55100D01*
X92150Y-55363D01*
X92212Y-55425D01*
X92276Y-55424D01*
X92375Y-55424D01*
X92437Y-55398D01*
X92437Y-55471D01*
X92463Y-55533D01*
X92511Y-55581D01*
X92573Y-55607D01*
X92641Y-55607D01*
X93427Y-55607D01*
X93489Y-55581D01*
X93537Y-55533D01*
X93563Y-55471D01*
X93563Y-55403D01*
X93563Y-54871D01*
X93616Y-54849D01*
X93699Y-54767D01*
X93744Y-54659D01*
X93744Y-54542D01*
X93699Y-54434D01*
X93617Y-54351D01*
X93563Y-54328D01*
X93563Y-53829D01*
X93537Y-53767D01*
X93489Y-53719D01*
X93427Y-53693D01*
X93359Y-53693D01*
X92573Y-53693D01*
X92511Y-53719D01*
X92463Y-53767D01*
X92437Y-53829D01*
X92437Y-53897D01*
X92437Y-53997D01*
X92421Y-53981D01*
X92359Y-53955D01*
X92291Y-53955D01*
X91991Y-53955D01*
X94564Y-51382D01*
X94581Y-51421D01*
X94629Y-51469D01*
X94691Y-51495D01*
X94759Y-51495D01*
X95209Y-51495D01*
X95271Y-51469D01*
X95300Y-51440D01*
X95329Y-51469D01*
X95391Y-51495D01*
X95459Y-51495D01*
X95821Y-51495D01*
X95825Y-51505D01*
X95391Y-51505D01*
X95329Y-51531D01*
X95300Y-51560D01*
X95271Y-51531D01*
X95209Y-51505D01*
X95141Y-51505D01*
X94691Y-51505D01*
X94629Y-51531D01*
X94581Y-51579D01*
X94555Y-51641D01*
X94555Y-51709D01*
X94555Y-52059D01*
X94581Y-52121D01*
X94629Y-52169D01*
X94691Y-52195D01*
X94759Y-52195D01*
X95209Y-52195D01*
X95271Y-52169D01*
X95300Y-52140D01*
X95329Y-52169D01*
X95391Y-52195D01*
X95459Y-52195D01*
X95909Y-52195D01*
X95971Y-52169D01*
X96019Y-52121D01*
X96044Y-52060D01*
X96726Y-52060D01*
X96731Y-52071D01*
X96779Y-52119D01*
X96841Y-52145D01*
X96899Y-52145D01*
X96902Y-52148D01*
X96956Y-52202D01*
X96956Y-52258D01*
X97001Y-52366D01*
X97083Y-52449D01*
X97191Y-52494D01*
X97308Y-52494D01*
X97416Y-52449D01*
X97455Y-52410D01*
X98063Y-52410D01*
X98190Y-52536D01*
X98190Y-53693D01*
X98159Y-53693D01*
X97373Y-53693D01*
X97311Y-53719D01*
X97263Y-53767D01*
X97237Y-53829D01*
X97237Y-53897D01*
X97237Y-55471D01*
X97263Y-55533D01*
X97311Y-55581D01*
X97373Y-55607D01*
X97441Y-55607D01*
X97541Y-55607D01*
X97551Y-55653D01*
X97609Y-55741D01*
X98350Y-56481D01*
X98350Y-56664D01*
X98376Y-56726D01*
X98424Y-56774D01*
X98486Y-56800D01*
X98554Y-56800D01*
X98914Y-56800D01*
X98976Y-56774D01*
X99024Y-56726D01*
X99050Y-56664D01*
X99050Y-56646D01*
X99150Y-56746D01*
X99150Y-57014D01*
X99176Y-57076D01*
X99215Y-57115D01*
X99179Y-57131D01*
X99131Y-57179D01*
X99105Y-57241D01*
X99105Y-57309D01*
X99105Y-57759D01*
X99131Y-57821D01*
X99179Y-57869D01*
X99241Y-57895D01*
X99309Y-57895D01*
X99659Y-57895D01*
X99721Y-57869D01*
X99769Y-57821D01*
X99787Y-57778D01*
X99787Y-57893D01*
X99858Y-58066D01*
X99990Y-58198D01*
X100163Y-58270D01*
X100350Y-58270D01*
X100523Y-58199D01*
X100655Y-58067D01*
X100727Y-57894D01*
X100727Y-57707D01*
X100656Y-57534D01*
X100524Y-57402D01*
X100351Y-57330D01*
X100164Y-57330D01*
X99991Y-57401D01*
X99859Y-57533D01*
X99795Y-57686D01*
X99795Y-57241D01*
X99769Y-57179D01*
X99732Y-57142D01*
X99776Y-57124D01*
X99824Y-57076D01*
X99850Y-57014D01*
X99850Y-56946D01*
X99850Y-56586D01*
X99824Y-56524D01*
X99799Y-56499D01*
X99821Y-56491D01*
X99891Y-56421D01*
X99897Y-56405D01*
X99990Y-56498D01*
X100163Y-56570D01*
X100350Y-56570D01*
X100523Y-56499D01*
X100655Y-56367D01*
X100727Y-56194D01*
X100727Y-56007D01*
X100662Y-55850D01*
X100700Y-55813D01*
X100700Y-55500D01*
X100700Y-55450D01*
X100700Y-55350D01*
X100700Y-55300D01*
X100700Y-54987D01*
X100638Y-54925D01*
X100526Y-54926D01*
X100434Y-54964D01*
X100364Y-55034D01*
X100352Y-55062D01*
X100321Y-55031D01*
X100259Y-55005D01*
X100191Y-55005D01*
X99841Y-55005D01*
X99779Y-55031D01*
X99750Y-55060D01*
X99743Y-55053D01*
X99951Y-54845D01*
X100259Y-54845D01*
X100321Y-54819D01*
X100369Y-54771D01*
X100395Y-54709D01*
X100395Y-54641D01*
X100395Y-54191D01*
X100369Y-54129D01*
X100321Y-54081D01*
X100259Y-54055D01*
X100191Y-54055D01*
X99841Y-54055D01*
X99790Y-54075D01*
X99755Y-54040D01*
X99951Y-53845D01*
X100259Y-53845D01*
X100321Y-53819D01*
X100369Y-53771D01*
X100395Y-53709D01*
X100395Y-53641D01*
X100395Y-53191D01*
X100369Y-53129D01*
X100321Y-53081D01*
X100259Y-53055D01*
X100191Y-53055D01*
X99841Y-53055D01*
X99790Y-53075D01*
X99755Y-53040D01*
X99951Y-52845D01*
X100259Y-52845D01*
X100321Y-52819D01*
X100369Y-52771D01*
X100395Y-52709D01*
X100395Y-52641D01*
X100395Y-52191D01*
X100369Y-52129D01*
X100321Y-52081D01*
X100259Y-52055D01*
X100191Y-52055D01*
X99841Y-52055D01*
X99790Y-52075D01*
X99755Y-52040D01*
X99951Y-51845D01*
X100259Y-51845D01*
X100321Y-51819D01*
X100369Y-51771D01*
X100395Y-51709D01*
X100395Y-51641D01*
X100395Y-51191D01*
X100369Y-51129D01*
X100321Y-51081D01*
X100259Y-51055D01*
X100191Y-51055D01*
X99841Y-51055D01*
X99790Y-51075D01*
X99755Y-51040D01*
X99951Y-50845D01*
X100259Y-50845D01*
X100321Y-50819D01*
X100369Y-50771D01*
X100395Y-50709D01*
X100395Y-50641D01*
X100395Y-50191D01*
X100369Y-50129D01*
X100321Y-50081D01*
X100259Y-50055D01*
X100244Y-50055D01*
X100244Y-49942D01*
X100203Y-49845D01*
X100259Y-49845D01*
X100321Y-49819D01*
X100369Y-49771D01*
X100395Y-49709D01*
X100395Y-49641D01*
X100395Y-49191D01*
X100369Y-49129D01*
X100321Y-49081D01*
X100259Y-49055D01*
X100191Y-49055D01*
X99841Y-49055D01*
X99790Y-49075D01*
X99746Y-49031D01*
X99684Y-49005D01*
X99616Y-49005D01*
X99394Y-49005D01*
X99394Y-48895D01*
X99684Y-48895D01*
X99746Y-48869D01*
X99790Y-48824D01*
X99841Y-48845D01*
X99909Y-48845D01*
X100259Y-48845D01*
X100321Y-48819D01*
X100369Y-48771D01*
X100395Y-48709D01*
X100395Y-48641D01*
X100395Y-48191D01*
X100369Y-48129D01*
X100321Y-48081D01*
X100259Y-48055D01*
X100191Y-48055D01*
X99951Y-48055D01*
X99755Y-47859D01*
X99790Y-47824D01*
X99841Y-47845D01*
X99909Y-47845D01*
X100259Y-47845D01*
X100321Y-47819D01*
X100369Y-47771D01*
X100395Y-47709D01*
X100395Y-47641D01*
X100395Y-47191D01*
X100369Y-47129D01*
X100321Y-47081D01*
X100259Y-47055D01*
X100191Y-47055D01*
X99951Y-47055D01*
X99755Y-46859D01*
X99790Y-46824D01*
X99841Y-46845D01*
X99909Y-46845D01*
X100259Y-46845D01*
X100321Y-46819D01*
X100369Y-46771D01*
X100395Y-46709D01*
X100395Y-46641D01*
X100395Y-46191D01*
X100369Y-46129D01*
X100321Y-46081D01*
X100259Y-46055D01*
X100191Y-46055D01*
X99841Y-46055D01*
X99790Y-46075D01*
X99746Y-46031D01*
X99684Y-46005D01*
X99616Y-46005D01*
X99266Y-46005D01*
X99223Y-46022D01*
X99351Y-45895D01*
X99659Y-45895D01*
X99721Y-45869D01*
X99750Y-45840D01*
X99779Y-45869D01*
X99841Y-45895D01*
X99909Y-45895D01*
X100259Y-45895D01*
X100321Y-45869D01*
X100352Y-45837D01*
X100364Y-45866D01*
X100434Y-45936D01*
X100526Y-45974D01*
X100638Y-45975D01*
X100700Y-45913D01*
X100700Y-45600D01*
X100700Y-45550D01*
X100700Y-45450D01*
X100700Y-45400D01*
X100700Y-45087D01*
X100638Y-45025D01*
X100526Y-45026D01*
X100434Y-45064D01*
X100364Y-45134D01*
X100352Y-45162D01*
X100321Y-45131D01*
X100316Y-45129D01*
X100900Y-44547D01*
X100900Y-44546D01*
X100909Y-44533D01*
X100906Y-44541D01*
X100906Y-44658D01*
X100951Y-44766D01*
X101033Y-44849D01*
X101141Y-44894D01*
X101258Y-44894D01*
X101366Y-44849D01*
X101449Y-44767D01*
X101494Y-44659D01*
X101494Y-44602D01*
X101498Y-44599D01*
X101498Y-44598D01*
X101533Y-44545D01*
X101534Y-44545D01*
X101606Y-44545D01*
X101606Y-44658D01*
X101651Y-44766D01*
X101733Y-44849D01*
X101841Y-44894D01*
X101958Y-44894D01*
X102066Y-44849D01*
X102149Y-44767D01*
X102194Y-44659D01*
X102194Y-44602D01*
X102198Y-44599D01*
X102198Y-44598D01*
X102233Y-44545D01*
X102234Y-44545D01*
X102280Y-44545D01*
X102280Y-45032D01*
X102234Y-45051D01*
X102102Y-45183D01*
X102030Y-45356D01*
X102030Y-45543D01*
X102101Y-45716D01*
X102233Y-45848D01*
X102406Y-45920D01*
X102593Y-45920D01*
X102766Y-45849D01*
X102898Y-45717D01*
X102970Y-45544D01*
X102970Y-45357D01*
X102899Y-45184D01*
X102820Y-45105D01*
X102820Y-42700D01*
X102819Y-42699D01*
X102820Y-42699D01*
X102815Y-42678D01*
X102805Y-42629D01*
X102805Y-42628D01*
X102820Y-42594D01*
X102820Y-42407D01*
X102749Y-42234D01*
X102617Y-42102D01*
X102452Y-42033D01*
X102484Y-42032D01*
X102631Y-41972D01*
X102658Y-41878D01*
X102385Y-41606D01*
X102350Y-41571D01*
X102279Y-41500D01*
X102350Y-41429D01*
X102421Y-41500D01*
X102456Y-41535D01*
X102728Y-41808D01*
X102822Y-41781D01*
X102893Y-41579D01*
X102882Y-41366D01*
X102822Y-41219D01*
X102783Y-41207D01*
X102796Y-41195D01*
X105455Y-41195D01*
X105455Y-58705D01*
M02*
