G04 (created by PCBNEW-RS274X (2012-01-19 BZR 3256)-stable) date 22/03/2013 00:28:45*
G01*
G70*
G90*
%MOIN*%
G04 Gerber Fmt 3.4, Leading zero omitted, Abs format*
%FSLAX34Y34*%
G04 APERTURE LIST*
%ADD10C,0.006000*%
%ADD11R,0.036000X0.036000*%
%ADD12R,0.045000X0.055000*%
%ADD13R,0.035000X0.045000*%
%ADD14R,0.080000X0.060000*%
%ADD15R,0.035000X0.055000*%
%ADD16R,0.144000X0.080000*%
%ADD17R,0.040000X0.080000*%
%ADD18R,0.045000X0.035000*%
%ADD19R,0.035400X0.150000*%
G04 APERTURE END LIST*
G54D10*
G54D11*
X99900Y-44900D03*
X99900Y-45600D03*
X100700Y-45250D03*
G54D12*
X99825Y-49450D03*
X100675Y-49450D03*
G54D13*
X99900Y-46300D03*
X100600Y-46300D03*
X100600Y-47050D03*
X99900Y-47050D03*
X100600Y-48550D03*
X99900Y-48550D03*
X100600Y-47800D03*
X99900Y-47800D03*
X99800Y-43500D03*
X100500Y-43500D03*
X100500Y-44200D03*
X99800Y-44200D03*
G54D14*
X102650Y-44600D03*
X102650Y-43300D03*
G54D15*
X85025Y-58450D03*
X85775Y-58450D03*
X93975Y-58450D03*
X93225Y-58450D03*
X99875Y-54950D03*
X100625Y-54950D03*
X99875Y-53450D03*
X100625Y-53450D03*
X99875Y-51950D03*
X100625Y-51950D03*
G54D13*
X100600Y-54200D03*
X99900Y-54200D03*
X100600Y-52700D03*
X99900Y-52700D03*
X100600Y-51200D03*
X99900Y-51200D03*
X100600Y-50500D03*
X99900Y-50500D03*
X76950Y-50700D03*
X76250Y-50700D03*
X76950Y-49950D03*
X76250Y-49950D03*
X76950Y-49200D03*
X76250Y-49200D03*
G54D16*
X75550Y-44350D03*
G54D17*
X75550Y-46950D03*
X74650Y-46950D03*
X76450Y-46950D03*
G54D18*
X101150Y-44200D03*
X101150Y-43500D03*
X101850Y-43500D03*
X101850Y-44200D03*
G54D19*
X89200Y-53050D03*
X89672Y-53050D03*
X90145Y-53050D03*
X96759Y-53050D03*
X96287Y-53050D03*
X95814Y-53050D03*
X95342Y-53050D03*
X94869Y-53050D03*
X94397Y-53050D03*
X93924Y-53050D03*
X93452Y-53050D03*
X92980Y-53050D03*
X92507Y-53050D03*
X92035Y-53050D03*
X91562Y-53050D03*
X91090Y-53050D03*
X90617Y-53050D03*
X88728Y-53050D03*
X88255Y-53050D03*
X87783Y-53050D03*
X87310Y-53050D03*
X86838Y-53050D03*
X86365Y-53050D03*
X85893Y-53050D03*
X85420Y-53050D03*
X84948Y-53050D03*
X84476Y-53050D03*
X84003Y-53050D03*
X83531Y-53050D03*
X83058Y-53050D03*
X82585Y-53050D03*
X82113Y-53050D03*
X81641Y-53050D03*
M02*
