G04 (created by PCBNEW-RS274X (2012-01-19 BZR 3256)-stable) date 22/03/2013 00:28:44*
G01*
G70*
G90*
%MOIN*%
G04 Gerber Fmt 3.4, Leading zero omitted, Abs format*
%FSLAX34Y34*%
G04 APERTURE LIST*
%ADD10C,0.006000*%
%ADD11C,0.060000*%
%ADD12R,0.060000X0.060000*%
%ADD13R,0.055000X0.055000*%
%ADD14C,0.055000*%
%ADD15C,0.025000*%
%ADD16C,0.008000*%
%ADD17C,0.020000*%
%ADD18C,0.010000*%
G04 APERTURE END LIST*
G54D10*
G54D11*
X102500Y-45450D03*
X101500Y-46450D03*
G54D12*
X101500Y-45450D03*
G54D11*
X102500Y-46450D03*
X101500Y-47450D03*
X102500Y-47450D03*
X101500Y-48450D03*
X102500Y-48450D03*
X101500Y-49450D03*
X102500Y-49450D03*
X101500Y-50450D03*
X102500Y-50450D03*
X101500Y-51450D03*
X102500Y-51450D03*
X101500Y-52450D03*
X102500Y-52450D03*
X101500Y-53450D03*
X102500Y-53450D03*
X101500Y-54450D03*
X102500Y-54450D03*
X100257Y-56100D03*
X102343Y-56100D03*
G54D13*
X74900Y-55000D03*
G54D14*
X75900Y-55000D03*
G54D13*
X74900Y-52700D03*
G54D14*
X75900Y-52700D03*
G54D13*
X78400Y-57700D03*
G54D14*
X77400Y-57700D03*
G54D12*
X77350Y-42500D03*
G54D11*
X77350Y-41500D03*
X78350Y-42500D03*
X78350Y-41500D03*
X79350Y-42500D03*
X79350Y-41500D03*
X80350Y-42500D03*
X80350Y-41500D03*
X81350Y-42500D03*
X81350Y-41500D03*
X82350Y-42500D03*
X82350Y-41500D03*
X83350Y-42500D03*
X83350Y-41500D03*
X84350Y-42500D03*
X84350Y-41500D03*
X85350Y-42500D03*
X85350Y-41500D03*
X86350Y-42500D03*
X86350Y-41500D03*
X87350Y-42500D03*
X87350Y-41500D03*
X88350Y-42500D03*
X88350Y-41500D03*
X89350Y-42500D03*
X89350Y-41500D03*
X90350Y-42500D03*
X90350Y-41500D03*
X91350Y-42500D03*
X91350Y-41500D03*
X92350Y-42500D03*
X92350Y-41500D03*
X93350Y-42500D03*
X93350Y-41500D03*
X94350Y-42500D03*
X94350Y-41500D03*
X95350Y-42500D03*
X95350Y-41500D03*
X96350Y-42500D03*
X96350Y-41500D03*
X97350Y-42500D03*
X97350Y-41500D03*
X98350Y-42500D03*
X98350Y-41500D03*
X99350Y-42500D03*
X99350Y-41500D03*
X100350Y-42500D03*
X100350Y-41500D03*
X101350Y-42500D03*
X101350Y-41500D03*
X102350Y-42500D03*
X102350Y-41500D03*
X100257Y-57800D03*
X102343Y-57800D03*
G54D12*
X77600Y-47700D03*
G54D11*
X77600Y-46700D03*
X77600Y-45700D03*
X77600Y-44700D03*
X77600Y-43700D03*
G54D15*
X75050Y-47650D03*
X85300Y-57600D03*
X80700Y-57300D03*
X81050Y-57300D03*
X98250Y-57350D03*
X99400Y-54950D03*
X95450Y-50550D03*
X88950Y-50550D03*
X95800Y-50700D03*
X99100Y-53950D03*
X88600Y-50550D03*
X96800Y-50400D03*
X78350Y-44500D03*
X79200Y-50350D03*
X79500Y-50550D03*
X78700Y-44500D03*
X83150Y-55400D03*
X82550Y-44500D03*
X83500Y-55400D03*
X82900Y-44500D03*
X83300Y-44500D03*
X91150Y-47050D03*
X91500Y-46700D03*
X83650Y-44500D03*
X84000Y-44500D03*
X90900Y-46800D03*
X91500Y-46350D03*
X90650Y-46550D03*
X84350Y-44500D03*
X91500Y-46000D03*
X84950Y-44000D03*
X88950Y-43550D03*
X92400Y-48150D03*
X85650Y-44500D03*
X89050Y-48550D03*
X89050Y-48200D03*
X86000Y-44500D03*
X92150Y-47900D03*
X86350Y-44500D03*
X78150Y-48850D03*
X88900Y-47150D03*
X79800Y-50750D03*
X79050Y-44500D03*
X79250Y-48800D03*
X89050Y-47450D03*
X87300Y-44500D03*
X87650Y-44500D03*
X79300Y-49150D03*
X89100Y-47850D03*
X88000Y-44500D03*
X79300Y-49500D03*
X88700Y-43800D03*
X79000Y-48350D03*
X89300Y-44500D03*
X82700Y-47300D03*
X82500Y-48250D03*
X96850Y-44500D03*
X89650Y-44500D03*
X79400Y-44500D03*
X79800Y-51100D03*
X79500Y-51300D03*
X80400Y-44500D03*
X79200Y-51500D03*
X80750Y-44500D03*
X82100Y-55750D03*
X81100Y-44500D03*
X81450Y-44500D03*
X82450Y-55750D03*
X82800Y-55750D03*
X81850Y-44500D03*
X82200Y-44500D03*
X82800Y-55400D03*
X84900Y-47300D03*
X98350Y-44500D03*
X96750Y-49150D03*
X90000Y-44500D03*
X92250Y-46250D03*
X86000Y-54350D03*
X96500Y-48900D03*
X92000Y-46000D03*
X90350Y-44500D03*
X85750Y-54100D03*
X94050Y-47750D03*
X98250Y-48250D03*
X95300Y-44500D03*
X93800Y-47500D03*
X88300Y-56300D03*
X85300Y-55900D03*
X98250Y-47900D03*
X95650Y-44500D03*
X93550Y-47050D03*
X98250Y-47200D03*
X85600Y-55750D03*
X96000Y-44500D03*
X87850Y-55950D03*
X93300Y-46800D03*
X96350Y-44500D03*
X98250Y-46850D03*
X93050Y-46550D03*
X98250Y-46500D03*
X97300Y-44500D03*
X98250Y-46150D03*
X92800Y-46300D03*
X97650Y-44500D03*
X96750Y-48550D03*
X91300Y-44500D03*
X87100Y-47750D03*
X91650Y-44500D03*
X85250Y-47300D03*
X96500Y-48300D03*
X95700Y-47250D03*
X92000Y-44500D03*
X83850Y-55500D03*
X92350Y-44500D03*
X96050Y-47200D03*
X84050Y-55800D03*
X93300Y-44500D03*
X84050Y-56900D03*
X96300Y-46950D03*
X96550Y-46700D03*
X84950Y-55900D03*
X93650Y-44500D03*
X94550Y-48250D03*
X94000Y-44500D03*
X98250Y-48950D03*
X94300Y-48000D03*
X94350Y-44500D03*
X98250Y-48600D03*
X101200Y-44600D03*
X84200Y-48750D03*
X83950Y-49000D03*
X101900Y-44600D03*
X84200Y-49250D03*
X96500Y-49800D03*
X82350Y-57250D03*
X82900Y-48250D03*
X80650Y-53850D03*
X98750Y-44550D03*
X80650Y-48950D03*
X98500Y-44800D03*
X96550Y-49450D03*
X84750Y-48300D03*
X99250Y-44350D03*
X80650Y-49300D03*
X83950Y-48500D03*
X90350Y-48400D03*
X98750Y-45050D03*
X90350Y-47300D03*
X98000Y-44500D03*
X84500Y-47300D03*
X80000Y-57400D03*
X99500Y-43000D03*
X79700Y-57000D03*
X88500Y-55600D03*
X99100Y-49950D03*
X83350Y-51100D03*
X82550Y-51700D03*
X83700Y-49500D03*
X82550Y-51350D03*
X88650Y-55300D03*
X99400Y-46950D03*
X86800Y-50750D03*
X88250Y-55300D03*
X99100Y-51950D03*
X84750Y-54900D03*
X87900Y-50550D03*
X99050Y-46950D03*
X96500Y-50150D03*
X86750Y-47700D03*
X98250Y-49300D03*
X82950Y-49800D03*
X99100Y-47950D03*
X99100Y-52950D03*
X87850Y-55600D03*
X83700Y-51100D03*
X82550Y-52050D03*
X87900Y-51100D03*
X96100Y-51400D03*
X88200Y-50900D03*
X96400Y-51250D03*
X80350Y-57400D03*
X87450Y-48350D03*
X85550Y-50300D03*
X81400Y-57300D03*
X99950Y-50000D03*
X96150Y-50650D03*
X83300Y-49850D03*
X88250Y-50550D03*
X99100Y-50950D03*
X96600Y-50950D03*
X82850Y-54550D03*
X99100Y-48950D03*
X77950Y-51200D03*
X83900Y-51750D03*
X78000Y-50800D03*
X84150Y-51500D03*
X78100Y-49800D03*
X84250Y-48250D03*
X94700Y-58600D03*
X86300Y-51600D03*
X83500Y-57150D03*
X79100Y-55900D03*
X76450Y-54750D03*
X98700Y-47950D03*
X79850Y-55900D03*
X81800Y-55900D03*
X78000Y-54500D03*
X77600Y-51200D03*
X88250Y-53500D03*
X82250Y-51550D03*
X87500Y-56000D03*
X78750Y-46500D03*
X84500Y-50600D03*
X94800Y-49550D03*
X90350Y-48050D03*
X95150Y-49550D03*
X90350Y-47650D03*
X94250Y-57150D03*
X92800Y-57150D03*
X91350Y-57150D03*
X95650Y-57150D03*
X90850Y-58600D03*
X76500Y-55250D03*
X75900Y-50300D03*
X75900Y-49950D03*
X94950Y-57150D03*
X93175Y-57150D03*
X92425Y-57150D03*
X87150Y-57425D03*
X92050Y-57150D03*
X96350Y-57150D03*
X97100Y-57150D03*
X96725Y-57150D03*
X93550Y-57150D03*
X80350Y-51500D03*
X97250Y-52200D03*
X98250Y-47550D03*
X88800Y-57250D03*
X76800Y-44450D03*
X88150Y-51550D03*
X86700Y-54200D03*
X84850Y-50750D03*
X98800Y-45950D03*
X78000Y-54900D03*
X84100Y-47300D03*
X86750Y-56550D03*
X84150Y-54250D03*
X93450Y-54600D03*
X82550Y-56950D03*
X86300Y-51250D03*
X80650Y-50850D03*
X84500Y-56900D03*
X84800Y-50250D03*
X82100Y-48250D03*
X82000Y-51850D03*
G54D16*
X85038Y-44088D02*
X88062Y-44088D01*
X88062Y-44088D02*
X88600Y-43550D01*
X88600Y-43550D02*
X88950Y-43550D01*
X84950Y-44000D02*
X85038Y-44088D01*
X89350Y-48850D02*
X89050Y-48550D01*
X92400Y-48150D02*
X91700Y-48850D01*
X91700Y-48850D02*
X89350Y-48850D01*
X91400Y-48650D02*
X92150Y-47900D01*
X89500Y-48650D02*
X91400Y-48650D01*
X89050Y-48200D02*
X89500Y-48650D01*
X86350Y-44500D02*
X85938Y-44912D01*
X78850Y-48850D02*
X82788Y-44912D01*
X78150Y-48850D02*
X78850Y-48850D01*
X82788Y-44912D02*
X85938Y-44912D01*
X79250Y-48800D02*
X82976Y-45074D01*
X82976Y-45074D02*
X86726Y-45074D01*
X86726Y-45074D02*
X87300Y-44500D01*
X79300Y-49150D02*
X83214Y-45236D01*
X86914Y-45236D02*
X87650Y-44500D01*
X83214Y-45236D02*
X86914Y-45236D01*
X87102Y-45398D02*
X88000Y-44500D01*
X79300Y-49500D02*
X83402Y-45398D01*
X83402Y-45398D02*
X87102Y-45398D01*
X79000Y-48350D02*
X82600Y-44750D01*
X88250Y-44250D02*
X88700Y-43800D01*
X82600Y-44750D02*
X85050Y-44750D01*
X85550Y-44250D02*
X88250Y-44250D01*
X85050Y-44750D02*
X85550Y-44250D01*
X89300Y-44500D02*
X89100Y-44500D01*
X83804Y-46046D02*
X87554Y-46046D01*
X82700Y-47150D02*
X83804Y-46046D01*
X82700Y-47300D02*
X82700Y-47150D01*
X87554Y-46046D02*
X89100Y-44500D01*
X89900Y-44250D02*
X96600Y-44250D01*
X89100Y-44250D02*
X87466Y-45884D01*
X82450Y-47150D02*
X82450Y-48150D01*
X82450Y-48150D02*
X82500Y-48250D01*
X89650Y-44500D02*
X89900Y-44250D01*
X87466Y-45884D02*
X83716Y-45884D01*
X83716Y-45884D02*
X82450Y-47150D01*
X89400Y-44250D02*
X89100Y-44250D01*
X96600Y-44250D02*
X96850Y-44500D01*
X89650Y-44500D02*
X89400Y-44250D01*
X85668Y-46532D02*
X87818Y-46532D01*
X84900Y-47300D02*
X85668Y-46532D01*
X97776Y-45074D02*
X98350Y-44500D01*
X89276Y-45074D02*
X97776Y-45074D01*
X87818Y-46532D02*
X89276Y-45074D01*
X94138Y-47662D02*
X97662Y-47662D01*
X97662Y-47662D02*
X98250Y-48250D01*
X94050Y-47750D02*
X94138Y-47662D01*
X97850Y-47500D02*
X98250Y-47900D01*
X93800Y-47500D02*
X97850Y-47500D01*
X95550Y-47050D02*
X96192Y-46408D01*
X85600Y-55750D02*
X87650Y-55750D01*
X98250Y-47200D02*
X97458Y-46408D01*
X93550Y-47050D02*
X95550Y-47050D01*
X87650Y-55750D02*
X87850Y-55950D01*
X96192Y-46408D02*
X97458Y-46408D01*
X96104Y-46246D02*
X97646Y-46246D01*
X93300Y-46800D02*
X95550Y-46800D01*
X97646Y-46246D02*
X98250Y-46850D01*
X95550Y-46800D02*
X96104Y-46246D01*
X95550Y-46550D02*
X96016Y-46084D01*
X98250Y-46500D02*
X97834Y-46084D01*
X93050Y-46550D02*
X95550Y-46550D01*
X96016Y-46084D02*
X97834Y-46084D01*
X95550Y-46300D02*
X95928Y-45922D01*
X98022Y-45922D02*
X98250Y-46150D01*
X95928Y-45922D02*
X98022Y-45922D01*
X92800Y-46300D02*
X95550Y-46300D01*
X84000Y-47550D02*
X83850Y-47400D01*
X87642Y-46208D02*
X89100Y-44750D01*
X89100Y-44750D02*
X91400Y-44750D01*
X84842Y-46208D02*
X87642Y-46208D01*
X85000Y-47550D02*
X84000Y-47550D01*
X83850Y-47200D02*
X84842Y-46208D01*
X85250Y-47300D02*
X85000Y-47550D01*
X83850Y-47400D02*
X83850Y-47200D01*
X91400Y-44750D02*
X91650Y-44500D01*
X94814Y-47986D02*
X97286Y-47986D01*
X97286Y-47986D02*
X98250Y-48950D01*
X94550Y-48250D02*
X94814Y-47986D01*
X97474Y-47824D02*
X98250Y-48600D01*
X94300Y-48000D02*
X94476Y-47824D01*
X94476Y-47824D02*
X97474Y-47824D01*
X88082Y-47018D02*
X89526Y-45574D01*
X99450Y-44700D02*
X101100Y-44700D01*
X101100Y-44700D02*
X101200Y-44600D01*
X84900Y-48750D02*
X86632Y-47018D01*
X86632Y-47018D02*
X88082Y-47018D01*
X84200Y-48750D02*
X84900Y-48750D01*
X98576Y-45574D02*
X99450Y-44700D01*
X89526Y-45574D02*
X98576Y-45574D01*
X88170Y-47180D02*
X89614Y-45736D01*
X86720Y-47180D02*
X88170Y-47180D01*
X99538Y-44862D02*
X101638Y-44862D01*
X84900Y-49000D02*
X86720Y-47180D01*
X98664Y-45736D02*
X99538Y-44862D01*
X83950Y-49000D02*
X84900Y-49000D01*
X101638Y-44862D02*
X101900Y-44600D01*
X89614Y-45736D02*
X98664Y-45736D01*
X80650Y-53850D02*
X80650Y-55550D01*
X80650Y-55550D02*
X82350Y-57250D01*
X80650Y-48700D02*
X83628Y-45722D01*
X80650Y-48950D02*
X80650Y-48700D01*
X83628Y-45722D02*
X87378Y-45722D01*
X98450Y-44250D02*
X98750Y-44550D01*
X96688Y-44088D02*
X96850Y-44250D01*
X89012Y-44088D02*
X96688Y-44088D01*
X96850Y-44250D02*
X98450Y-44250D01*
X87378Y-45722D02*
X89012Y-44088D01*
X87906Y-46694D02*
X89350Y-45250D01*
X84750Y-48300D02*
X86356Y-46694D01*
X89350Y-45250D02*
X98050Y-45250D01*
X98050Y-45250D02*
X98500Y-44800D01*
X86356Y-46694D02*
X87906Y-46694D01*
X83540Y-45560D02*
X87290Y-45560D01*
X96938Y-44088D02*
X98538Y-44088D01*
X99200Y-44300D02*
X99250Y-44350D01*
X87290Y-45560D02*
X88924Y-43926D01*
X80400Y-49050D02*
X80400Y-48700D01*
X96776Y-43926D02*
X96938Y-44088D01*
X98750Y-44300D02*
X99200Y-44300D01*
X98538Y-44088D02*
X98750Y-44300D01*
X80650Y-49300D02*
X80400Y-49050D01*
X80400Y-48700D02*
X83540Y-45560D01*
X88924Y-43926D02*
X96776Y-43926D01*
X84650Y-48550D02*
X84850Y-48550D01*
X86544Y-46856D02*
X87994Y-46856D01*
X84850Y-48550D02*
X86544Y-46856D01*
X83950Y-48500D02*
X84600Y-48500D01*
X89438Y-45412D02*
X98388Y-45412D01*
X84600Y-48500D02*
X84650Y-48550D01*
X87994Y-46856D02*
X89438Y-45412D01*
X98388Y-45412D02*
X98750Y-45050D01*
X85430Y-46370D02*
X87730Y-46370D01*
X89188Y-44912D02*
X97588Y-44912D01*
X87730Y-46370D02*
X89188Y-44912D01*
X97588Y-44912D02*
X98000Y-44500D01*
X84500Y-47300D02*
X85430Y-46370D01*
X88500Y-55600D02*
X95950Y-55600D01*
X95950Y-55600D02*
X98688Y-52862D01*
X98688Y-50362D02*
X99100Y-49950D01*
X98688Y-52862D02*
X98688Y-50362D01*
X99512Y-47062D02*
X99400Y-46950D01*
X88650Y-55300D02*
X96000Y-55300D01*
X98526Y-52774D02*
X98526Y-50124D01*
X99512Y-49138D02*
X99512Y-47062D01*
X96000Y-55300D02*
X98526Y-52774D01*
X98526Y-50124D02*
X99512Y-49138D01*
X88250Y-55700D02*
X88400Y-55850D01*
X88400Y-55850D02*
X95950Y-55850D01*
X98850Y-52200D02*
X99100Y-51950D01*
X98850Y-52950D02*
X98850Y-52200D01*
X95950Y-55850D02*
X98850Y-52950D01*
X88250Y-55300D02*
X88250Y-55700D01*
X84750Y-54900D02*
X84900Y-55050D01*
X99050Y-46950D02*
X99350Y-47250D01*
X99350Y-47250D02*
X99350Y-49050D01*
X98364Y-50036D02*
X98364Y-52686D01*
X96000Y-55050D02*
X84900Y-55050D01*
X98364Y-52686D02*
X96000Y-55050D01*
X99350Y-49050D02*
X98364Y-50036D01*
X83550Y-49750D02*
X83400Y-49600D01*
X83150Y-49600D02*
X82950Y-49800D01*
X86750Y-47700D02*
X86450Y-47700D01*
X83400Y-49600D02*
X83150Y-49600D01*
X84400Y-49750D02*
X83550Y-49750D01*
X86450Y-47700D02*
X84400Y-49750D01*
X87850Y-55600D02*
X88300Y-56050D01*
X96000Y-56050D02*
X99100Y-52950D01*
X88300Y-56050D02*
X96000Y-56050D01*
X98202Y-49848D02*
X99100Y-48950D01*
X82850Y-54550D02*
X82950Y-54650D01*
X82950Y-54650D02*
X84850Y-54650D01*
X95912Y-54888D02*
X98202Y-52598D01*
X98202Y-52598D02*
X98202Y-49848D01*
X84850Y-54650D02*
X85088Y-54888D01*
X85088Y-54888D02*
X95912Y-54888D01*
X81350Y-51100D02*
X82750Y-51100D01*
X80538Y-51912D02*
X81350Y-51100D01*
X83400Y-51750D02*
X83900Y-51750D01*
X78662Y-51912D02*
X80538Y-51912D01*
X77950Y-51200D02*
X78662Y-51912D01*
X82750Y-51100D02*
X83400Y-51750D01*
X82838Y-50938D02*
X83400Y-51500D01*
X81262Y-50938D02*
X82838Y-50938D01*
X83400Y-51500D02*
X84150Y-51500D01*
X80450Y-51750D02*
X81262Y-50938D01*
X78950Y-51750D02*
X80450Y-51750D01*
X78000Y-50800D02*
X78950Y-51750D01*
X84500Y-51300D02*
X84500Y-50600D01*
X83550Y-57200D02*
X86550Y-57200D01*
X83500Y-57150D02*
X83550Y-57200D01*
X87500Y-56250D02*
X87500Y-56000D01*
X86550Y-57200D02*
X87500Y-56250D01*
X82450Y-52350D02*
X85550Y-52350D01*
G54D17*
X101850Y-42800D02*
X100650Y-44000D01*
G54D16*
X77600Y-45700D02*
X78400Y-46500D01*
X97750Y-58600D02*
X99400Y-56950D01*
X84800Y-51600D02*
X84500Y-51300D01*
X85550Y-52350D02*
X86300Y-51600D01*
X99400Y-56950D02*
X101493Y-56950D01*
G54D17*
X81250Y-43150D02*
X78700Y-45700D01*
X100650Y-44000D02*
X98900Y-44000D01*
G54D16*
X78500Y-52100D02*
X80600Y-52100D01*
X82250Y-52150D02*
X82450Y-52350D01*
X86300Y-51600D02*
X84800Y-51600D01*
X94700Y-58600D02*
X97750Y-58600D01*
G54D17*
X89150Y-43150D02*
X81250Y-43150D01*
G54D16*
X79850Y-55900D02*
X78450Y-54500D01*
G54D17*
X89500Y-43500D02*
X89150Y-43150D01*
G54D16*
X76700Y-54500D02*
X78000Y-54500D01*
X81150Y-51550D02*
X82250Y-51550D01*
X80600Y-52100D02*
X81150Y-51550D01*
X77600Y-51200D02*
X77600Y-48850D01*
X101493Y-56950D02*
X102343Y-57800D01*
X76700Y-54500D02*
X78000Y-54500D01*
X79100Y-55900D02*
X79850Y-55900D01*
G54D17*
X98900Y-44000D02*
X98400Y-43500D01*
G54D16*
X77600Y-51200D02*
X78500Y-52100D01*
X78100Y-46200D02*
X77600Y-45700D01*
X78450Y-54500D02*
X78000Y-54500D01*
X78400Y-46500D02*
X78750Y-46500D01*
X77600Y-48850D02*
X78100Y-48350D01*
X78100Y-48350D02*
X78100Y-46200D01*
X78000Y-54500D02*
X77600Y-54100D01*
G54D17*
X102350Y-41500D02*
X101850Y-42000D01*
G54D16*
X76450Y-54750D02*
X76700Y-54500D01*
X77600Y-54100D02*
X77600Y-51200D01*
G54D17*
X101850Y-42000D02*
X101850Y-42800D01*
G54D16*
X82250Y-51550D02*
X82250Y-52150D01*
G54D17*
X98400Y-43500D02*
X89500Y-43500D01*
X78700Y-45700D02*
X77600Y-45700D01*
G54D16*
X82250Y-51500D02*
X82250Y-51550D01*
G54D10*
G36*
X105455Y-58705D02*
X104691Y-58705D01*
X104691Y-57439D01*
X104691Y-57438D01*
X104691Y-57362D01*
X104691Y-57361D01*
X104691Y-42639D01*
X104691Y-42638D01*
X104691Y-42562D01*
X104691Y-42561D01*
X104653Y-42372D01*
X104653Y-42371D01*
X104624Y-42301D01*
X104624Y-42300D01*
X104622Y-42298D01*
X104517Y-42138D01*
X104463Y-42084D01*
X104461Y-42083D01*
X104299Y-41975D01*
X104228Y-41947D01*
X104038Y-41909D01*
X103962Y-41909D01*
X103961Y-41909D01*
X103771Y-41947D01*
X103700Y-41976D01*
X103698Y-41977D01*
X103538Y-42083D01*
X103484Y-42137D01*
X103483Y-42138D01*
X103483Y-42139D01*
X103375Y-42301D01*
X103347Y-42372D01*
X103309Y-42562D01*
X103309Y-42638D01*
X103347Y-42828D01*
X103375Y-42899D01*
X103483Y-43061D01*
X103484Y-43063D01*
X103538Y-43117D01*
X103698Y-43222D01*
X103700Y-43224D01*
X103701Y-43224D01*
X103771Y-43253D01*
X103772Y-43253D01*
X103961Y-43291D01*
X103962Y-43291D01*
X104038Y-43291D01*
X104228Y-43253D01*
X104299Y-43225D01*
X104299Y-43224D01*
X104461Y-43117D01*
X104461Y-43116D01*
X104463Y-43116D01*
X104515Y-43063D01*
X104517Y-43062D01*
X104622Y-42901D01*
X104624Y-42900D01*
X104624Y-42899D01*
X104653Y-42829D01*
X104653Y-42828D01*
X104691Y-42639D01*
X104691Y-57361D01*
X104653Y-57172D01*
X104653Y-57171D01*
X104624Y-57101D01*
X104624Y-57100D01*
X104622Y-57098D01*
X104517Y-56938D01*
X104463Y-56884D01*
X104461Y-56883D01*
X104299Y-56775D01*
X104228Y-56747D01*
X104038Y-56709D01*
X103962Y-56709D01*
X103961Y-56709D01*
X103771Y-56747D01*
X103700Y-56776D01*
X103698Y-56777D01*
X103538Y-56883D01*
X103484Y-56937D01*
X103483Y-56938D01*
X103483Y-56939D01*
X103375Y-57101D01*
X103347Y-57172D01*
X103309Y-57362D01*
X103309Y-57438D01*
X103347Y-57628D01*
X103375Y-57699D01*
X103483Y-57861D01*
X103484Y-57863D01*
X103538Y-57917D01*
X103698Y-58022D01*
X103700Y-58024D01*
X103701Y-58024D01*
X103771Y-58053D01*
X103772Y-58053D01*
X103961Y-58091D01*
X103962Y-58091D01*
X104038Y-58091D01*
X104228Y-58053D01*
X104299Y-58025D01*
X104299Y-58024D01*
X104461Y-57917D01*
X104461Y-57916D01*
X104463Y-57916D01*
X104515Y-57863D01*
X104517Y-57862D01*
X104622Y-57701D01*
X104624Y-57700D01*
X104624Y-57699D01*
X104653Y-57629D01*
X104653Y-57628D01*
X104691Y-57439D01*
X104691Y-58705D01*
X102970Y-58705D01*
X102970Y-54544D01*
X102970Y-54357D01*
X102970Y-53544D01*
X102970Y-53357D01*
X102970Y-52544D01*
X102970Y-52357D01*
X102970Y-51544D01*
X102970Y-51357D01*
X102970Y-50544D01*
X102970Y-50357D01*
X102970Y-49544D01*
X102970Y-49357D01*
X102970Y-48544D01*
X102970Y-48357D01*
X102970Y-47544D01*
X102970Y-47357D01*
X102970Y-46544D01*
X102970Y-46357D01*
X102970Y-45544D01*
X102970Y-45357D01*
X102899Y-45184D01*
X102820Y-45105D01*
X102820Y-42594D01*
X102820Y-42407D01*
X102749Y-42234D01*
X102617Y-42102D01*
X102452Y-42033D01*
X102484Y-42032D01*
X102631Y-41972D01*
X102658Y-41878D01*
X102350Y-41571D01*
X102042Y-41878D01*
X102069Y-41972D01*
X102246Y-42034D01*
X102084Y-42101D01*
X101952Y-42233D01*
X101880Y-42406D01*
X101880Y-42593D01*
X101951Y-42766D01*
X102083Y-42898D01*
X102256Y-42970D01*
X102443Y-42970D01*
X102616Y-42899D01*
X102748Y-42767D01*
X102820Y-42594D01*
X102820Y-45105D01*
X102767Y-45052D01*
X102594Y-44980D01*
X102407Y-44980D01*
X102234Y-45051D01*
X102194Y-45091D01*
X102194Y-44659D01*
X102194Y-44542D01*
X102149Y-44434D01*
X102067Y-44351D01*
X101959Y-44306D01*
X101842Y-44306D01*
X101820Y-44315D01*
X101820Y-42594D01*
X101820Y-42407D01*
X101749Y-42234D01*
X101617Y-42102D01*
X101444Y-42030D01*
X101257Y-42030D01*
X101084Y-42101D01*
X100952Y-42233D01*
X100880Y-42406D01*
X100880Y-42593D01*
X100951Y-42766D01*
X101083Y-42898D01*
X101256Y-42970D01*
X101443Y-42970D01*
X101616Y-42899D01*
X101748Y-42767D01*
X101820Y-42594D01*
X101820Y-44315D01*
X101734Y-44351D01*
X101651Y-44433D01*
X101606Y-44541D01*
X101606Y-44597D01*
X101551Y-44652D01*
X101494Y-44652D01*
X101494Y-44542D01*
X101449Y-44434D01*
X101367Y-44351D01*
X101259Y-44306D01*
X101142Y-44306D01*
X101034Y-44351D01*
X100951Y-44433D01*
X100927Y-44490D01*
X100820Y-44490D01*
X100820Y-42594D01*
X100820Y-42407D01*
X100749Y-42234D01*
X100617Y-42102D01*
X100444Y-42030D01*
X100257Y-42030D01*
X100084Y-42101D01*
X99952Y-42233D01*
X99880Y-42406D01*
X99880Y-42593D01*
X99951Y-42766D01*
X100083Y-42898D01*
X100256Y-42970D01*
X100443Y-42970D01*
X100616Y-42899D01*
X100748Y-42767D01*
X100820Y-42594D01*
X100820Y-44490D01*
X99820Y-44490D01*
X99820Y-42594D01*
X99820Y-42407D01*
X99749Y-42234D01*
X99617Y-42102D01*
X99444Y-42030D01*
X99257Y-42030D01*
X99084Y-42101D01*
X98952Y-42233D01*
X98880Y-42406D01*
X98880Y-42593D01*
X98951Y-42766D01*
X99083Y-42898D01*
X99206Y-42949D01*
X99206Y-43058D01*
X99251Y-43166D01*
X99333Y-43249D01*
X99441Y-43294D01*
X99558Y-43294D01*
X99666Y-43249D01*
X99749Y-43167D01*
X99794Y-43059D01*
X99794Y-42942D01*
X99749Y-42834D01*
X99715Y-42799D01*
X99748Y-42767D01*
X99820Y-42594D01*
X99820Y-44490D01*
X99510Y-44490D01*
X99544Y-44409D01*
X99544Y-44292D01*
X99499Y-44184D01*
X99491Y-44175D01*
X99491Y-43639D01*
X99491Y-43638D01*
X99491Y-43562D01*
X99491Y-43561D01*
X99490Y-43560D01*
X99476Y-43486D01*
X99475Y-43483D01*
X99475Y-43482D01*
X99461Y-43450D01*
X99447Y-43415D01*
X99445Y-43413D01*
X99445Y-43412D01*
X99404Y-43353D01*
X99402Y-43349D01*
X99367Y-43315D01*
X99351Y-43298D01*
X99347Y-43295D01*
X99346Y-43294D01*
X99287Y-43254D01*
X99285Y-43253D01*
X99261Y-43243D01*
X99217Y-43224D01*
X99216Y-43223D01*
X99214Y-43223D01*
X99140Y-43209D01*
X99139Y-43209D01*
X99137Y-43209D01*
X99062Y-43209D01*
X99061Y-43209D01*
X99060Y-43209D01*
X98986Y-43224D01*
X98983Y-43224D01*
X98982Y-43225D01*
X98950Y-43238D01*
X98915Y-43253D01*
X98913Y-43254D01*
X98912Y-43255D01*
X98849Y-43298D01*
X98820Y-43327D01*
X98820Y-42594D01*
X98820Y-42407D01*
X98749Y-42234D01*
X98617Y-42102D01*
X98444Y-42030D01*
X98257Y-42030D01*
X98084Y-42101D01*
X97952Y-42233D01*
X97880Y-42406D01*
X97880Y-42593D01*
X97951Y-42766D01*
X98083Y-42898D01*
X98256Y-42970D01*
X98443Y-42970D01*
X98616Y-42899D01*
X98748Y-42767D01*
X98820Y-42594D01*
X98820Y-43327D01*
X98815Y-43332D01*
X98798Y-43349D01*
X98795Y-43352D01*
X98795Y-43353D01*
X98794Y-43353D01*
X98754Y-43413D01*
X98753Y-43414D01*
X98753Y-43415D01*
X98743Y-43438D01*
X98724Y-43483D01*
X98723Y-43483D01*
X98723Y-43486D01*
X98709Y-43559D01*
X98709Y-43561D01*
X98709Y-43563D01*
X98709Y-43637D01*
X98709Y-43639D01*
X98709Y-43640D01*
X98723Y-43714D01*
X98723Y-43716D01*
X98724Y-43717D01*
X98743Y-43761D01*
X98753Y-43785D01*
X98754Y-43787D01*
X98794Y-43846D01*
X98795Y-43847D01*
X98798Y-43851D01*
X98815Y-43867D01*
X98849Y-43902D01*
X98853Y-43904D01*
X98912Y-43945D01*
X98913Y-43945D01*
X98915Y-43947D01*
X98950Y-43961D01*
X98982Y-43975D01*
X98983Y-43975D01*
X98986Y-43976D01*
X99060Y-43990D01*
X99061Y-43991D01*
X99062Y-43991D01*
X99137Y-43991D01*
X99139Y-43991D01*
X99140Y-43990D01*
X99214Y-43977D01*
X99216Y-43976D01*
X99217Y-43976D01*
X99261Y-43957D01*
X99285Y-43947D01*
X99285Y-43946D01*
X99287Y-43946D01*
X99346Y-43905D01*
X99347Y-43905D01*
X99347Y-43904D01*
X99351Y-43902D01*
X99367Y-43884D01*
X99402Y-43851D01*
X99404Y-43847D01*
X99445Y-43788D01*
X99445Y-43786D01*
X99447Y-43785D01*
X99461Y-43749D01*
X99475Y-43718D01*
X99475Y-43716D01*
X99476Y-43714D01*
X99490Y-43639D01*
X99491Y-43639D01*
X99491Y-44175D01*
X99417Y-44101D01*
X99309Y-44056D01*
X99192Y-44056D01*
X99110Y-44090D01*
X98836Y-44090D01*
X98686Y-43940D01*
X98619Y-43894D01*
X98605Y-43891D01*
X98538Y-43878D01*
X97820Y-43878D01*
X97820Y-42594D01*
X97820Y-42407D01*
X97749Y-42234D01*
X97617Y-42102D01*
X97444Y-42030D01*
X97257Y-42030D01*
X97084Y-42101D01*
X96952Y-42233D01*
X96880Y-42406D01*
X96880Y-42593D01*
X96951Y-42766D01*
X97083Y-42898D01*
X97256Y-42970D01*
X97443Y-42970D01*
X97616Y-42899D01*
X97748Y-42767D01*
X97820Y-42594D01*
X97820Y-43878D01*
X97024Y-43878D01*
X96924Y-43778D01*
X96857Y-43732D01*
X96843Y-43729D01*
X96820Y-43724D01*
X96820Y-42594D01*
X96820Y-42407D01*
X96749Y-42234D01*
X96617Y-42102D01*
X96444Y-42030D01*
X96257Y-42030D01*
X96084Y-42101D01*
X95952Y-42233D01*
X95880Y-42406D01*
X95880Y-42593D01*
X95951Y-42766D01*
X96083Y-42898D01*
X96256Y-42970D01*
X96443Y-42970D01*
X96616Y-42899D01*
X96748Y-42767D01*
X96820Y-42594D01*
X96820Y-43724D01*
X96776Y-43716D01*
X95820Y-43716D01*
X95820Y-42594D01*
X95820Y-42407D01*
X95749Y-42234D01*
X95617Y-42102D01*
X95444Y-42030D01*
X95257Y-42030D01*
X95084Y-42101D01*
X94952Y-42233D01*
X94880Y-42406D01*
X94880Y-42593D01*
X94951Y-42766D01*
X95083Y-42898D01*
X95256Y-42970D01*
X95443Y-42970D01*
X95616Y-42899D01*
X95748Y-42767D01*
X95820Y-42594D01*
X95820Y-43716D01*
X94820Y-43716D01*
X94820Y-42594D01*
X94820Y-42407D01*
X94749Y-42234D01*
X94617Y-42102D01*
X94444Y-42030D01*
X94257Y-42030D01*
X94084Y-42101D01*
X93952Y-42233D01*
X93880Y-42406D01*
X93880Y-42593D01*
X93951Y-42766D01*
X94083Y-42898D01*
X94256Y-42970D01*
X94443Y-42970D01*
X94616Y-42899D01*
X94748Y-42767D01*
X94820Y-42594D01*
X94820Y-43716D01*
X93820Y-43716D01*
X93820Y-42594D01*
X93820Y-42407D01*
X93749Y-42234D01*
X93617Y-42102D01*
X93444Y-42030D01*
X93257Y-42030D01*
X93084Y-42101D01*
X92952Y-42233D01*
X92880Y-42406D01*
X92880Y-42593D01*
X92951Y-42766D01*
X93083Y-42898D01*
X93256Y-42970D01*
X93443Y-42970D01*
X93616Y-42899D01*
X93748Y-42767D01*
X93820Y-42594D01*
X93820Y-43716D01*
X92820Y-43716D01*
X92820Y-42594D01*
X92820Y-42407D01*
X92749Y-42234D01*
X92617Y-42102D01*
X92444Y-42030D01*
X92257Y-42030D01*
X92084Y-42101D01*
X91952Y-42233D01*
X91880Y-42406D01*
X91880Y-42593D01*
X91951Y-42766D01*
X92083Y-42898D01*
X92256Y-42970D01*
X92443Y-42970D01*
X92616Y-42899D01*
X92748Y-42767D01*
X92820Y-42594D01*
X92820Y-43716D01*
X91820Y-43716D01*
X91820Y-42594D01*
X91820Y-42407D01*
X91749Y-42234D01*
X91617Y-42102D01*
X91444Y-42030D01*
X91257Y-42030D01*
X91084Y-42101D01*
X90952Y-42233D01*
X90880Y-42406D01*
X90880Y-42593D01*
X90951Y-42766D01*
X91083Y-42898D01*
X91256Y-42970D01*
X91443Y-42970D01*
X91616Y-42899D01*
X91748Y-42767D01*
X91820Y-42594D01*
X91820Y-43716D01*
X90820Y-43716D01*
X90820Y-42594D01*
X90820Y-42407D01*
X90749Y-42234D01*
X90617Y-42102D01*
X90444Y-42030D01*
X90257Y-42030D01*
X90084Y-42101D01*
X89952Y-42233D01*
X89880Y-42406D01*
X89880Y-42593D01*
X89951Y-42766D01*
X90083Y-42898D01*
X90256Y-42970D01*
X90443Y-42970D01*
X90616Y-42899D01*
X90748Y-42767D01*
X90820Y-42594D01*
X90820Y-43716D01*
X89820Y-43716D01*
X89820Y-42594D01*
X89820Y-42407D01*
X89749Y-42234D01*
X89617Y-42102D01*
X89444Y-42030D01*
X89257Y-42030D01*
X89084Y-42101D01*
X88952Y-42233D01*
X88880Y-42406D01*
X88880Y-42593D01*
X88951Y-42766D01*
X89083Y-42898D01*
X89256Y-42970D01*
X89443Y-42970D01*
X89616Y-42899D01*
X89748Y-42767D01*
X89820Y-42594D01*
X89820Y-43716D01*
X89199Y-43716D01*
X89244Y-43609D01*
X89244Y-43492D01*
X89199Y-43384D01*
X89117Y-43301D01*
X89009Y-43256D01*
X88892Y-43256D01*
X88820Y-43286D01*
X88820Y-42594D01*
X88820Y-42407D01*
X88749Y-42234D01*
X88617Y-42102D01*
X88444Y-42030D01*
X88257Y-42030D01*
X88084Y-42101D01*
X87952Y-42233D01*
X87880Y-42406D01*
X87880Y-42593D01*
X87951Y-42766D01*
X88083Y-42898D01*
X88256Y-42970D01*
X88443Y-42970D01*
X88616Y-42899D01*
X88748Y-42767D01*
X88820Y-42594D01*
X88820Y-43286D01*
X88784Y-43301D01*
X88744Y-43340D01*
X88600Y-43340D01*
X88520Y-43356D01*
X88497Y-43371D01*
X88451Y-43402D01*
X87975Y-43878D01*
X87820Y-43878D01*
X87820Y-42594D01*
X87820Y-42407D01*
X87749Y-42234D01*
X87617Y-42102D01*
X87444Y-42030D01*
X87257Y-42030D01*
X87084Y-42101D01*
X86952Y-42233D01*
X86880Y-42406D01*
X86880Y-42593D01*
X86951Y-42766D01*
X87083Y-42898D01*
X87256Y-42970D01*
X87443Y-42970D01*
X87616Y-42899D01*
X87748Y-42767D01*
X87820Y-42594D01*
X87820Y-43878D01*
X86820Y-43878D01*
X86820Y-42594D01*
X86820Y-42407D01*
X86749Y-42234D01*
X86617Y-42102D01*
X86444Y-42030D01*
X86257Y-42030D01*
X86084Y-42101D01*
X85952Y-42233D01*
X85880Y-42406D01*
X85880Y-42593D01*
X85951Y-42766D01*
X86083Y-42898D01*
X86256Y-42970D01*
X86443Y-42970D01*
X86616Y-42899D01*
X86748Y-42767D01*
X86820Y-42594D01*
X86820Y-43878D01*
X85820Y-43878D01*
X85820Y-42594D01*
X85820Y-42407D01*
X85749Y-42234D01*
X85617Y-42102D01*
X85444Y-42030D01*
X85257Y-42030D01*
X85084Y-42101D01*
X84952Y-42233D01*
X84880Y-42406D01*
X84880Y-42593D01*
X84951Y-42766D01*
X85083Y-42898D01*
X85256Y-42970D01*
X85443Y-42970D01*
X85616Y-42899D01*
X85748Y-42767D01*
X85820Y-42594D01*
X85820Y-43878D01*
X85217Y-43878D01*
X85199Y-43834D01*
X85117Y-43751D01*
X85009Y-43706D01*
X84892Y-43706D01*
X84820Y-43736D01*
X84820Y-42594D01*
X84820Y-42407D01*
X84749Y-42234D01*
X84617Y-42102D01*
X84444Y-42030D01*
X84257Y-42030D01*
X84084Y-42101D01*
X83952Y-42233D01*
X83880Y-42406D01*
X83880Y-42593D01*
X83951Y-42766D01*
X84083Y-42898D01*
X84256Y-42970D01*
X84443Y-42970D01*
X84616Y-42899D01*
X84748Y-42767D01*
X84820Y-42594D01*
X84820Y-43736D01*
X84784Y-43751D01*
X84701Y-43833D01*
X84656Y-43941D01*
X84656Y-44058D01*
X84701Y-44166D01*
X84783Y-44249D01*
X84891Y-44294D01*
X85008Y-44294D01*
X85011Y-44292D01*
X85012Y-44292D01*
X85038Y-44298D01*
X85205Y-44298D01*
X84963Y-44540D01*
X84644Y-44540D01*
X84644Y-44442D01*
X84599Y-44334D01*
X84517Y-44251D01*
X84409Y-44206D01*
X84292Y-44206D01*
X84184Y-44251D01*
X84175Y-44259D01*
X84167Y-44251D01*
X84059Y-44206D01*
X83942Y-44206D01*
X83834Y-44251D01*
X83825Y-44259D01*
X83820Y-44254D01*
X83820Y-42594D01*
X83820Y-42407D01*
X83749Y-42234D01*
X83617Y-42102D01*
X83444Y-42030D01*
X83257Y-42030D01*
X83084Y-42101D01*
X82952Y-42233D01*
X82880Y-42406D01*
X82880Y-42593D01*
X82951Y-42766D01*
X83083Y-42898D01*
X83256Y-42970D01*
X83443Y-42970D01*
X83616Y-42899D01*
X83748Y-42767D01*
X83820Y-42594D01*
X83820Y-44254D01*
X83817Y-44251D01*
X83709Y-44206D01*
X83592Y-44206D01*
X83484Y-44251D01*
X83475Y-44259D01*
X83467Y-44251D01*
X83359Y-44206D01*
X83242Y-44206D01*
X83134Y-44251D01*
X83100Y-44284D01*
X83067Y-44251D01*
X82959Y-44206D01*
X82842Y-44206D01*
X82820Y-44215D01*
X82820Y-42594D01*
X82820Y-42407D01*
X82749Y-42234D01*
X82617Y-42102D01*
X82444Y-42030D01*
X82257Y-42030D01*
X82084Y-42101D01*
X81952Y-42233D01*
X81880Y-42406D01*
X81880Y-42593D01*
X81951Y-42766D01*
X82083Y-42898D01*
X82256Y-42970D01*
X82443Y-42970D01*
X82616Y-42899D01*
X82748Y-42767D01*
X82820Y-42594D01*
X82820Y-44215D01*
X82734Y-44251D01*
X82725Y-44259D01*
X82717Y-44251D01*
X82609Y-44206D01*
X82492Y-44206D01*
X82384Y-44251D01*
X82375Y-44259D01*
X82367Y-44251D01*
X82259Y-44206D01*
X82142Y-44206D01*
X82034Y-44251D01*
X82025Y-44259D01*
X82017Y-44251D01*
X81909Y-44206D01*
X81820Y-44206D01*
X81820Y-42594D01*
X81820Y-42407D01*
X81749Y-42234D01*
X81617Y-42102D01*
X81444Y-42030D01*
X81257Y-42030D01*
X81084Y-42101D01*
X80952Y-42233D01*
X80880Y-42406D01*
X80880Y-42593D01*
X80951Y-42766D01*
X81083Y-42898D01*
X81256Y-42970D01*
X81443Y-42970D01*
X81616Y-42899D01*
X81748Y-42767D01*
X81820Y-42594D01*
X81820Y-44206D01*
X81792Y-44206D01*
X81684Y-44251D01*
X81650Y-44284D01*
X81617Y-44251D01*
X81509Y-44206D01*
X81392Y-44206D01*
X81284Y-44251D01*
X81275Y-44259D01*
X81267Y-44251D01*
X81159Y-44206D01*
X81042Y-44206D01*
X80934Y-44251D01*
X80925Y-44259D01*
X80917Y-44251D01*
X80820Y-44210D01*
X80820Y-42594D01*
X80820Y-42407D01*
X80749Y-42234D01*
X80617Y-42102D01*
X80444Y-42030D01*
X80257Y-42030D01*
X80084Y-42101D01*
X79952Y-42233D01*
X79880Y-42406D01*
X79880Y-42593D01*
X79951Y-42766D01*
X80083Y-42898D01*
X80256Y-42970D01*
X80443Y-42970D01*
X80616Y-42899D01*
X80748Y-42767D01*
X80820Y-42594D01*
X80820Y-44210D01*
X80809Y-44206D01*
X80692Y-44206D01*
X80584Y-44251D01*
X80575Y-44259D01*
X80567Y-44251D01*
X80459Y-44206D01*
X80342Y-44206D01*
X80291Y-44227D01*
X80291Y-43639D01*
X80291Y-43638D01*
X80291Y-43562D01*
X80291Y-43561D01*
X80290Y-43560D01*
X80276Y-43486D01*
X80275Y-43483D01*
X80275Y-43482D01*
X80261Y-43450D01*
X80247Y-43415D01*
X80245Y-43413D01*
X80245Y-43412D01*
X80204Y-43353D01*
X80202Y-43349D01*
X80167Y-43315D01*
X80151Y-43298D01*
X80147Y-43295D01*
X80146Y-43294D01*
X80087Y-43254D01*
X80085Y-43253D01*
X80061Y-43243D01*
X80017Y-43224D01*
X80016Y-43223D01*
X80014Y-43223D01*
X79940Y-43209D01*
X79939Y-43209D01*
X79937Y-43209D01*
X79862Y-43209D01*
X79861Y-43209D01*
X79860Y-43209D01*
X79820Y-43217D01*
X79820Y-42594D01*
X79820Y-42407D01*
X79749Y-42234D01*
X79617Y-42102D01*
X79444Y-42030D01*
X79257Y-42030D01*
X79084Y-42101D01*
X78952Y-42233D01*
X78880Y-42406D01*
X78880Y-42593D01*
X78951Y-42766D01*
X79083Y-42898D01*
X79256Y-42970D01*
X79443Y-42970D01*
X79616Y-42899D01*
X79748Y-42767D01*
X79820Y-42594D01*
X79820Y-43217D01*
X79786Y-43224D01*
X79783Y-43224D01*
X79782Y-43225D01*
X79750Y-43238D01*
X79715Y-43253D01*
X79713Y-43254D01*
X79712Y-43255D01*
X79649Y-43298D01*
X79615Y-43332D01*
X79598Y-43349D01*
X79595Y-43352D01*
X79595Y-43353D01*
X79594Y-43353D01*
X79554Y-43413D01*
X79553Y-43414D01*
X79553Y-43415D01*
X79543Y-43438D01*
X79524Y-43483D01*
X79523Y-43483D01*
X79523Y-43486D01*
X79509Y-43559D01*
X79509Y-43561D01*
X79509Y-43563D01*
X79509Y-43637D01*
X79509Y-43639D01*
X79509Y-43640D01*
X79523Y-43714D01*
X79523Y-43716D01*
X79524Y-43717D01*
X79543Y-43761D01*
X79553Y-43785D01*
X79554Y-43787D01*
X79594Y-43846D01*
X79595Y-43847D01*
X79598Y-43851D01*
X79615Y-43867D01*
X79649Y-43902D01*
X79653Y-43904D01*
X79712Y-43945D01*
X79713Y-43945D01*
X79715Y-43947D01*
X79750Y-43961D01*
X79782Y-43975D01*
X79783Y-43975D01*
X79786Y-43976D01*
X79860Y-43990D01*
X79861Y-43991D01*
X79862Y-43991D01*
X79937Y-43991D01*
X79939Y-43991D01*
X79940Y-43990D01*
X80014Y-43977D01*
X80016Y-43976D01*
X80017Y-43976D01*
X80061Y-43957D01*
X80085Y-43947D01*
X80085Y-43946D01*
X80087Y-43946D01*
X80146Y-43905D01*
X80147Y-43905D01*
X80147Y-43904D01*
X80151Y-43902D01*
X80167Y-43884D01*
X80202Y-43851D01*
X80204Y-43847D01*
X80245Y-43788D01*
X80245Y-43786D01*
X80247Y-43785D01*
X80261Y-43749D01*
X80275Y-43718D01*
X80275Y-43716D01*
X80276Y-43714D01*
X80290Y-43639D01*
X80291Y-43639D01*
X80291Y-44227D01*
X80234Y-44251D01*
X80151Y-44333D01*
X80106Y-44441D01*
X80106Y-44558D01*
X80151Y-44666D01*
X80233Y-44749D01*
X80341Y-44794D01*
X80458Y-44794D01*
X80566Y-44749D01*
X80574Y-44740D01*
X80583Y-44749D01*
X80691Y-44794D01*
X80808Y-44794D01*
X80916Y-44749D01*
X80924Y-44740D01*
X80933Y-44749D01*
X81041Y-44794D01*
X81158Y-44794D01*
X81266Y-44749D01*
X81274Y-44740D01*
X81283Y-44749D01*
X81391Y-44794D01*
X81508Y-44794D01*
X81616Y-44749D01*
X81649Y-44715D01*
X81683Y-44749D01*
X81791Y-44794D01*
X81908Y-44794D01*
X82016Y-44749D01*
X82024Y-44740D01*
X82033Y-44749D01*
X82141Y-44794D01*
X82258Y-44794D01*
X79694Y-47358D01*
X79694Y-44559D01*
X79694Y-44442D01*
X79649Y-44334D01*
X79567Y-44251D01*
X79459Y-44206D01*
X79342Y-44206D01*
X79234Y-44251D01*
X79225Y-44259D01*
X79217Y-44251D01*
X79109Y-44206D01*
X78992Y-44206D01*
X78884Y-44251D01*
X78875Y-44259D01*
X78867Y-44251D01*
X78820Y-44231D01*
X78820Y-42594D01*
X78820Y-42407D01*
X78749Y-42234D01*
X78617Y-42102D01*
X78444Y-42030D01*
X78257Y-42030D01*
X78084Y-42101D01*
X77952Y-42233D01*
X77880Y-42406D01*
X77880Y-42593D01*
X77951Y-42766D01*
X78083Y-42898D01*
X78256Y-42970D01*
X78443Y-42970D01*
X78616Y-42899D01*
X78748Y-42767D01*
X78820Y-42594D01*
X78820Y-44231D01*
X78759Y-44206D01*
X78642Y-44206D01*
X78534Y-44251D01*
X78525Y-44259D01*
X78517Y-44251D01*
X78409Y-44206D01*
X78292Y-44206D01*
X78184Y-44251D01*
X78101Y-44333D01*
X78070Y-44407D01*
X78070Y-43794D01*
X78070Y-43607D01*
X77999Y-43434D01*
X77867Y-43302D01*
X77820Y-43282D01*
X77820Y-42834D01*
X77820Y-42766D01*
X77820Y-42166D01*
X77794Y-42104D01*
X77746Y-42056D01*
X77684Y-42030D01*
X77616Y-42030D01*
X77016Y-42030D01*
X76954Y-42056D01*
X76906Y-42104D01*
X76880Y-42166D01*
X76880Y-42234D01*
X76880Y-42834D01*
X76906Y-42896D01*
X76954Y-42944D01*
X77016Y-42970D01*
X77084Y-42970D01*
X77684Y-42970D01*
X77746Y-42944D01*
X77794Y-42896D01*
X77820Y-42834D01*
X77820Y-43282D01*
X77694Y-43230D01*
X77507Y-43230D01*
X77334Y-43301D01*
X77202Y-43433D01*
X77130Y-43606D01*
X77130Y-43793D01*
X77201Y-43966D01*
X77333Y-44098D01*
X77506Y-44170D01*
X77693Y-44170D01*
X77866Y-44099D01*
X77998Y-43967D01*
X78070Y-43794D01*
X78070Y-44407D01*
X78056Y-44441D01*
X78056Y-44558D01*
X78101Y-44666D01*
X78183Y-44749D01*
X78291Y-44794D01*
X78408Y-44794D01*
X78516Y-44749D01*
X78524Y-44740D01*
X78533Y-44749D01*
X78641Y-44794D01*
X78758Y-44794D01*
X78866Y-44749D01*
X78874Y-44740D01*
X78883Y-44749D01*
X78991Y-44794D01*
X79108Y-44794D01*
X79216Y-44749D01*
X79224Y-44740D01*
X79233Y-44749D01*
X79341Y-44794D01*
X79458Y-44794D01*
X79566Y-44749D01*
X79649Y-44667D01*
X79694Y-44559D01*
X79694Y-47358D01*
X78997Y-48056D01*
X78942Y-48056D01*
X78834Y-48101D01*
X78751Y-48183D01*
X78706Y-48291D01*
X78706Y-48408D01*
X78751Y-48516D01*
X78819Y-48584D01*
X78763Y-48640D01*
X78355Y-48640D01*
X78317Y-48601D01*
X78209Y-48556D01*
X78143Y-48556D01*
X78143Y-45779D01*
X78132Y-45566D01*
X78072Y-45419D01*
X78070Y-45418D01*
X78070Y-44794D01*
X78070Y-44607D01*
X77999Y-44434D01*
X77867Y-44302D01*
X77694Y-44230D01*
X77507Y-44230D01*
X77334Y-44301D01*
X77202Y-44433D01*
X77130Y-44606D01*
X77130Y-44793D01*
X77201Y-44966D01*
X77333Y-45098D01*
X77497Y-45166D01*
X77466Y-45168D01*
X77319Y-45228D01*
X77292Y-45322D01*
X77600Y-45629D01*
X77908Y-45322D01*
X77881Y-45228D01*
X77703Y-45165D01*
X77866Y-45099D01*
X77998Y-44967D01*
X78070Y-44794D01*
X78070Y-45418D01*
X77978Y-45392D01*
X77671Y-45700D01*
X77978Y-46008D01*
X78072Y-45981D01*
X78143Y-45779D01*
X78143Y-48556D01*
X78092Y-48556D01*
X78070Y-48565D01*
X78070Y-48034D01*
X78070Y-47966D01*
X78070Y-47366D01*
X78070Y-46794D01*
X78070Y-46607D01*
X77999Y-46434D01*
X77867Y-46302D01*
X77702Y-46233D01*
X77734Y-46232D01*
X77881Y-46172D01*
X77908Y-46078D01*
X77600Y-45771D01*
X77529Y-45841D01*
X77529Y-45700D01*
X77222Y-45392D01*
X77128Y-45419D01*
X77094Y-45515D01*
X77094Y-44509D01*
X77094Y-44392D01*
X77049Y-44284D01*
X76967Y-44201D01*
X76859Y-44156D01*
X76742Y-44156D01*
X76634Y-44201D01*
X76551Y-44283D01*
X76506Y-44391D01*
X76506Y-44508D01*
X76551Y-44616D01*
X76633Y-44699D01*
X76741Y-44744D01*
X76858Y-44744D01*
X76966Y-44699D01*
X77049Y-44617D01*
X77094Y-44509D01*
X77094Y-45515D01*
X77057Y-45621D01*
X77068Y-45834D01*
X77128Y-45981D01*
X77222Y-46008D01*
X77529Y-45700D01*
X77529Y-45841D01*
X77292Y-46078D01*
X77319Y-46172D01*
X77496Y-46234D01*
X77334Y-46301D01*
X77202Y-46433D01*
X77130Y-46606D01*
X77130Y-46793D01*
X77201Y-46966D01*
X77333Y-47098D01*
X77506Y-47170D01*
X77693Y-47170D01*
X77866Y-47099D01*
X77998Y-46967D01*
X78070Y-46794D01*
X78070Y-47366D01*
X78044Y-47304D01*
X77996Y-47256D01*
X77934Y-47230D01*
X77866Y-47230D01*
X77266Y-47230D01*
X77204Y-47256D01*
X77156Y-47304D01*
X77130Y-47366D01*
X77130Y-47434D01*
X77130Y-48034D01*
X77156Y-48096D01*
X77204Y-48144D01*
X77266Y-48170D01*
X77334Y-48170D01*
X77934Y-48170D01*
X77996Y-48144D01*
X78044Y-48096D01*
X78070Y-48034D01*
X78070Y-48565D01*
X77984Y-48601D01*
X77901Y-48683D01*
X77856Y-48791D01*
X77856Y-48908D01*
X77901Y-49016D01*
X77983Y-49099D01*
X78091Y-49144D01*
X78208Y-49144D01*
X78316Y-49099D01*
X78355Y-49060D01*
X78850Y-49060D01*
X78850Y-49059D01*
X78917Y-49046D01*
X78930Y-49044D01*
X78931Y-49044D01*
X78998Y-48998D01*
X79015Y-48980D01*
X79041Y-49006D01*
X79006Y-49091D01*
X79006Y-49208D01*
X79051Y-49316D01*
X79059Y-49324D01*
X79051Y-49333D01*
X79006Y-49441D01*
X79006Y-49558D01*
X79051Y-49666D01*
X79133Y-49749D01*
X79241Y-49794D01*
X79358Y-49794D01*
X79466Y-49749D01*
X79549Y-49667D01*
X79594Y-49559D01*
X79594Y-49502D01*
X80190Y-48906D01*
X80190Y-49050D01*
X80203Y-49117D01*
X80206Y-49131D01*
X80252Y-49198D01*
X80356Y-49302D01*
X80356Y-49358D01*
X80401Y-49466D01*
X80483Y-49549D01*
X80591Y-49594D01*
X80708Y-49594D01*
X80816Y-49549D01*
X80899Y-49467D01*
X80944Y-49359D01*
X80944Y-49242D01*
X80899Y-49134D01*
X80890Y-49125D01*
X80899Y-49117D01*
X80944Y-49009D01*
X80944Y-48892D01*
X80899Y-48784D01*
X80880Y-48765D01*
X82240Y-47406D01*
X82240Y-47989D01*
X82159Y-47956D01*
X82042Y-47956D01*
X81934Y-48001D01*
X81851Y-48083D01*
X81806Y-48191D01*
X81806Y-48308D01*
X81851Y-48416D01*
X81933Y-48499D01*
X82041Y-48544D01*
X82158Y-48544D01*
X82266Y-48499D01*
X82299Y-48465D01*
X82333Y-48499D01*
X82441Y-48544D01*
X82558Y-48544D01*
X82666Y-48499D01*
X82699Y-48465D01*
X82733Y-48499D01*
X82841Y-48544D01*
X82958Y-48544D01*
X83066Y-48499D01*
X83149Y-48417D01*
X83194Y-48309D01*
X83194Y-48192D01*
X83149Y-48084D01*
X83067Y-48001D01*
X82959Y-47956D01*
X82842Y-47956D01*
X82734Y-48001D01*
X82700Y-48034D01*
X82667Y-48001D01*
X82660Y-47998D01*
X82660Y-47594D01*
X82758Y-47594D01*
X82866Y-47549D01*
X82949Y-47467D01*
X82994Y-47359D01*
X82994Y-47242D01*
X82967Y-47178D01*
X83890Y-46256D01*
X84497Y-46256D01*
X83702Y-47052D01*
X83656Y-47119D01*
X83653Y-47132D01*
X83640Y-47200D01*
X83640Y-47400D01*
X83653Y-47467D01*
X83656Y-47481D01*
X83702Y-47548D01*
X83851Y-47698D01*
X83852Y-47698D01*
X83919Y-47744D01*
X83920Y-47744D01*
X83932Y-47746D01*
X84000Y-47760D01*
X84993Y-47760D01*
X84747Y-48006D01*
X84692Y-48006D01*
X84584Y-48051D01*
X84501Y-48133D01*
X84456Y-48241D01*
X84456Y-48290D01*
X84155Y-48290D01*
X84117Y-48251D01*
X84009Y-48206D01*
X83892Y-48206D01*
X83784Y-48251D01*
X83701Y-48333D01*
X83656Y-48441D01*
X83656Y-48558D01*
X83701Y-48666D01*
X83783Y-48749D01*
X83785Y-48750D01*
X83784Y-48751D01*
X83701Y-48833D01*
X83656Y-48941D01*
X83656Y-49058D01*
X83701Y-49166D01*
X83740Y-49206D01*
X83642Y-49206D01*
X83534Y-49251D01*
X83451Y-49333D01*
X83425Y-49395D01*
X83400Y-49390D01*
X83150Y-49390D01*
X83070Y-49406D01*
X83047Y-49421D01*
X83001Y-49452D01*
X82947Y-49506D01*
X82892Y-49506D01*
X82784Y-49551D01*
X82701Y-49633D01*
X82656Y-49741D01*
X82656Y-49858D01*
X82701Y-49966D01*
X82783Y-50049D01*
X82891Y-50094D01*
X83008Y-50094D01*
X83093Y-50058D01*
X83133Y-50099D01*
X83241Y-50144D01*
X83358Y-50144D01*
X83466Y-50099D01*
X83549Y-50017D01*
X83572Y-49960D01*
X84400Y-49960D01*
X84400Y-49959D01*
X84467Y-49946D01*
X84480Y-49944D01*
X84481Y-49944D01*
X84548Y-49898D01*
X86536Y-47910D01*
X86544Y-47910D01*
X86583Y-47949D01*
X86691Y-47994D01*
X86808Y-47994D01*
X86893Y-47958D01*
X86933Y-47999D01*
X87041Y-48044D01*
X87158Y-48044D01*
X87266Y-47999D01*
X87349Y-47917D01*
X87394Y-47809D01*
X87394Y-47692D01*
X87349Y-47584D01*
X87267Y-47501D01*
X87159Y-47456D01*
X87042Y-47456D01*
X86956Y-47491D01*
X86917Y-47451D01*
X86809Y-47406D01*
X86790Y-47406D01*
X86806Y-47390D01*
X88170Y-47390D01*
X88170Y-47389D01*
X88237Y-47376D01*
X88250Y-47374D01*
X88251Y-47374D01*
X88318Y-47328D01*
X88642Y-47003D01*
X88606Y-47091D01*
X88606Y-47208D01*
X88651Y-47316D01*
X88733Y-47399D01*
X88756Y-47408D01*
X88756Y-47508D01*
X88801Y-47616D01*
X88859Y-47674D01*
X88851Y-47683D01*
X88806Y-47791D01*
X88806Y-47908D01*
X88841Y-47993D01*
X88801Y-48033D01*
X88756Y-48141D01*
X88756Y-48258D01*
X88801Y-48366D01*
X88809Y-48374D01*
X88801Y-48383D01*
X88756Y-48491D01*
X88756Y-48608D01*
X88801Y-48716D01*
X88883Y-48799D01*
X88991Y-48844D01*
X89047Y-48844D01*
X89201Y-48998D01*
X89202Y-48998D01*
X89269Y-49044D01*
X89270Y-49044D01*
X89282Y-49046D01*
X89350Y-49060D01*
X91700Y-49060D01*
X91700Y-49059D01*
X91767Y-49046D01*
X91780Y-49044D01*
X91781Y-49044D01*
X91848Y-48998D01*
X92402Y-48444D01*
X92458Y-48444D01*
X92566Y-48399D01*
X92649Y-48317D01*
X92694Y-48209D01*
X92694Y-48092D01*
X92649Y-47984D01*
X92567Y-47901D01*
X92459Y-47856D01*
X92444Y-47856D01*
X92444Y-47842D01*
X92399Y-47734D01*
X92317Y-47651D01*
X92209Y-47606D01*
X92092Y-47606D01*
X91984Y-47651D01*
X91901Y-47733D01*
X91856Y-47841D01*
X91856Y-47897D01*
X91313Y-48440D01*
X90644Y-48440D01*
X90644Y-48342D01*
X90599Y-48234D01*
X90590Y-48225D01*
X90599Y-48217D01*
X90644Y-48109D01*
X90644Y-47992D01*
X90599Y-47884D01*
X90565Y-47850D01*
X90599Y-47817D01*
X90644Y-47709D01*
X90644Y-47592D01*
X90599Y-47484D01*
X90590Y-47475D01*
X90599Y-47467D01*
X90644Y-47359D01*
X90644Y-47242D01*
X90599Y-47134D01*
X90517Y-47051D01*
X90409Y-47006D01*
X90292Y-47006D01*
X90184Y-47051D01*
X90101Y-47133D01*
X90056Y-47241D01*
X90056Y-47358D01*
X90101Y-47466D01*
X90109Y-47474D01*
X90101Y-47483D01*
X90056Y-47591D01*
X90056Y-47708D01*
X90101Y-47816D01*
X90134Y-47849D01*
X90101Y-47883D01*
X90056Y-47991D01*
X90056Y-48108D01*
X90101Y-48216D01*
X90109Y-48224D01*
X90101Y-48233D01*
X90056Y-48341D01*
X90056Y-48440D01*
X89586Y-48440D01*
X89344Y-48197D01*
X89344Y-48142D01*
X89308Y-48056D01*
X89349Y-48017D01*
X89394Y-47909D01*
X89394Y-47792D01*
X89349Y-47684D01*
X89290Y-47625D01*
X89299Y-47617D01*
X89344Y-47509D01*
X89344Y-47392D01*
X89299Y-47284D01*
X89217Y-47201D01*
X89194Y-47191D01*
X89194Y-47092D01*
X89149Y-46984D01*
X89067Y-46901D01*
X88959Y-46856D01*
X88842Y-46856D01*
X88753Y-46892D01*
X89700Y-45946D01*
X91206Y-45946D01*
X91206Y-46058D01*
X91251Y-46166D01*
X91259Y-46174D01*
X91251Y-46183D01*
X91206Y-46291D01*
X91206Y-46408D01*
X91251Y-46516D01*
X91259Y-46524D01*
X91251Y-46533D01*
X91206Y-46641D01*
X91206Y-46756D01*
X91194Y-46756D01*
X91194Y-46742D01*
X91149Y-46634D01*
X91067Y-46551D01*
X90959Y-46506D01*
X90944Y-46506D01*
X90944Y-46492D01*
X90899Y-46384D01*
X90817Y-46301D01*
X90709Y-46256D01*
X90592Y-46256D01*
X90484Y-46301D01*
X90401Y-46383D01*
X90356Y-46491D01*
X90356Y-46608D01*
X90401Y-46716D01*
X90483Y-46799D01*
X90591Y-46844D01*
X90606Y-46844D01*
X90606Y-46858D01*
X90651Y-46966D01*
X90733Y-47049D01*
X90841Y-47094D01*
X90856Y-47094D01*
X90856Y-47108D01*
X90901Y-47216D01*
X90983Y-47299D01*
X91091Y-47344D01*
X91208Y-47344D01*
X91316Y-47299D01*
X91399Y-47217D01*
X91444Y-47109D01*
X91444Y-46994D01*
X91558Y-46994D01*
X91666Y-46949D01*
X91749Y-46867D01*
X91794Y-46759D01*
X91794Y-46642D01*
X91749Y-46534D01*
X91740Y-46525D01*
X91749Y-46517D01*
X91794Y-46409D01*
X91794Y-46292D01*
X91749Y-46184D01*
X91740Y-46175D01*
X91749Y-46167D01*
X91750Y-46164D01*
X91751Y-46166D01*
X91833Y-46249D01*
X91941Y-46294D01*
X91956Y-46294D01*
X91956Y-46308D01*
X92001Y-46416D01*
X92083Y-46499D01*
X92191Y-46544D01*
X92308Y-46544D01*
X92416Y-46499D01*
X92499Y-46417D01*
X92514Y-46379D01*
X92551Y-46466D01*
X92633Y-46549D01*
X92741Y-46594D01*
X92756Y-46594D01*
X92756Y-46608D01*
X92801Y-46716D01*
X92883Y-46799D01*
X92991Y-46844D01*
X93006Y-46844D01*
X93006Y-46858D01*
X93051Y-46966D01*
X93133Y-47049D01*
X93241Y-47094D01*
X93256Y-47094D01*
X93256Y-47108D01*
X93301Y-47216D01*
X93383Y-47299D01*
X93491Y-47344D01*
X93546Y-47344D01*
X93506Y-47441D01*
X93506Y-47558D01*
X93551Y-47666D01*
X93633Y-47749D01*
X93741Y-47794D01*
X93756Y-47794D01*
X93756Y-47808D01*
X93801Y-47916D01*
X93883Y-47999D01*
X93991Y-48044D01*
X94006Y-48044D01*
X94006Y-48058D01*
X94051Y-48166D01*
X94133Y-48249D01*
X94241Y-48294D01*
X94256Y-48294D01*
X94256Y-48308D01*
X94301Y-48416D01*
X94383Y-48499D01*
X94491Y-48544D01*
X94608Y-48544D01*
X94716Y-48499D01*
X94799Y-48417D01*
X94844Y-48309D01*
X94844Y-48252D01*
X94900Y-48196D01*
X96224Y-48196D01*
X96206Y-48241D01*
X96206Y-48358D01*
X96251Y-48466D01*
X96333Y-48549D01*
X96441Y-48594D01*
X96456Y-48594D01*
X96456Y-48606D01*
X96442Y-48606D01*
X96334Y-48651D01*
X96251Y-48733D01*
X96206Y-48841D01*
X96206Y-48958D01*
X96251Y-49066D01*
X96333Y-49149D01*
X96420Y-49185D01*
X96384Y-49201D01*
X96301Y-49283D01*
X96256Y-49391D01*
X96256Y-49508D01*
X96291Y-49593D01*
X96251Y-49633D01*
X96206Y-49741D01*
X96206Y-49858D01*
X96251Y-49966D01*
X96259Y-49974D01*
X96251Y-49983D01*
X96206Y-50091D01*
X96206Y-50208D01*
X96251Y-50316D01*
X96333Y-50399D01*
X96441Y-50444D01*
X96506Y-50444D01*
X96506Y-50458D01*
X96551Y-50566D01*
X96633Y-50649D01*
X96649Y-50656D01*
X96542Y-50656D01*
X96444Y-50696D01*
X96444Y-50592D01*
X96399Y-50484D01*
X96317Y-50401D01*
X96209Y-50356D01*
X96092Y-50356D01*
X95984Y-50401D01*
X95943Y-50441D01*
X95859Y-50406D01*
X95742Y-50406D01*
X95713Y-50418D01*
X95699Y-50384D01*
X95617Y-50301D01*
X95509Y-50256D01*
X95444Y-50256D01*
X95444Y-49609D01*
X95444Y-49492D01*
X95399Y-49384D01*
X95317Y-49301D01*
X95209Y-49256D01*
X95092Y-49256D01*
X94984Y-49301D01*
X94975Y-49309D01*
X94967Y-49301D01*
X94859Y-49256D01*
X94742Y-49256D01*
X94634Y-49301D01*
X94551Y-49383D01*
X94506Y-49491D01*
X94506Y-49608D01*
X94551Y-49716D01*
X94633Y-49799D01*
X94741Y-49844D01*
X94858Y-49844D01*
X94966Y-49799D01*
X94974Y-49790D01*
X94983Y-49799D01*
X95091Y-49844D01*
X95208Y-49844D01*
X95316Y-49799D01*
X95399Y-49717D01*
X95444Y-49609D01*
X95444Y-50256D01*
X95392Y-50256D01*
X95284Y-50301D01*
X95201Y-50383D01*
X95156Y-50491D01*
X95156Y-50608D01*
X95201Y-50716D01*
X95283Y-50799D01*
X95391Y-50844D01*
X95508Y-50844D01*
X95536Y-50831D01*
X95551Y-50866D01*
X95633Y-50949D01*
X95741Y-50994D01*
X95858Y-50994D01*
X95966Y-50949D01*
X96006Y-50908D01*
X96091Y-50944D01*
X96208Y-50944D01*
X96306Y-50903D01*
X96306Y-50971D01*
X96234Y-51001D01*
X96151Y-51083D01*
X96141Y-51106D01*
X96042Y-51106D01*
X95934Y-51151D01*
X95851Y-51233D01*
X95806Y-51341D01*
X95806Y-51458D01*
X95851Y-51566D01*
X95933Y-51649D01*
X96041Y-51694D01*
X96158Y-51694D01*
X96266Y-51649D01*
X96349Y-51567D01*
X96358Y-51544D01*
X96458Y-51544D01*
X96566Y-51499D01*
X96649Y-51417D01*
X96694Y-51309D01*
X96694Y-51229D01*
X96766Y-51199D01*
X96849Y-51117D01*
X96894Y-51009D01*
X96894Y-50892D01*
X96849Y-50784D01*
X96767Y-50701D01*
X96750Y-50694D01*
X96858Y-50694D01*
X96966Y-50649D01*
X97049Y-50567D01*
X97094Y-50459D01*
X97094Y-50342D01*
X97049Y-50234D01*
X96967Y-50151D01*
X96859Y-50106D01*
X96794Y-50106D01*
X96794Y-50092D01*
X96749Y-49984D01*
X96740Y-49975D01*
X96749Y-49967D01*
X96794Y-49859D01*
X96794Y-49742D01*
X96758Y-49656D01*
X96799Y-49617D01*
X96844Y-49509D01*
X96844Y-49429D01*
X96916Y-49399D01*
X96999Y-49317D01*
X97044Y-49209D01*
X97044Y-49092D01*
X96999Y-48984D01*
X96917Y-48901D01*
X96809Y-48856D01*
X96794Y-48856D01*
X96794Y-48844D01*
X96808Y-48844D01*
X96916Y-48799D01*
X96999Y-48717D01*
X97044Y-48609D01*
X97044Y-48492D01*
X96999Y-48384D01*
X96917Y-48301D01*
X96809Y-48256D01*
X96794Y-48256D01*
X96794Y-48242D01*
X96774Y-48196D01*
X97199Y-48196D01*
X97956Y-48952D01*
X97956Y-49008D01*
X98001Y-49116D01*
X98009Y-49124D01*
X98001Y-49133D01*
X97956Y-49241D01*
X97956Y-49358D01*
X98001Y-49466D01*
X98083Y-49549D01*
X98169Y-49584D01*
X98054Y-49700D01*
X98008Y-49767D01*
X98005Y-49780D01*
X97992Y-49848D01*
X97992Y-52511D01*
X97544Y-52959D01*
X97544Y-52259D01*
X97544Y-52142D01*
X97499Y-52034D01*
X97417Y-51951D01*
X97309Y-51906D01*
X97192Y-51906D01*
X97084Y-51951D01*
X97001Y-52033D01*
X96956Y-52141D01*
X96956Y-52258D01*
X97001Y-52366D01*
X97083Y-52449D01*
X97191Y-52494D01*
X97308Y-52494D01*
X97416Y-52449D01*
X97499Y-52367D01*
X97544Y-52259D01*
X97544Y-52959D01*
X95825Y-54678D01*
X93736Y-54678D01*
X93744Y-54659D01*
X93744Y-54542D01*
X93699Y-54434D01*
X93617Y-54351D01*
X93509Y-54306D01*
X93392Y-54306D01*
X93284Y-54351D01*
X93201Y-54433D01*
X93156Y-54541D01*
X93156Y-54658D01*
X93164Y-54678D01*
X89244Y-54678D01*
X89244Y-50609D01*
X89244Y-50492D01*
X89199Y-50384D01*
X89117Y-50301D01*
X89009Y-50256D01*
X88892Y-50256D01*
X88784Y-50301D01*
X88775Y-50309D01*
X88767Y-50301D01*
X88659Y-50256D01*
X88542Y-50256D01*
X88434Y-50301D01*
X88425Y-50309D01*
X88417Y-50301D01*
X88309Y-50256D01*
X88192Y-50256D01*
X88084Y-50301D01*
X88075Y-50309D01*
X88067Y-50301D01*
X87959Y-50256D01*
X87842Y-50256D01*
X87744Y-50296D01*
X87744Y-48409D01*
X87744Y-48292D01*
X87699Y-48184D01*
X87617Y-48101D01*
X87509Y-48056D01*
X87392Y-48056D01*
X87284Y-48101D01*
X87201Y-48183D01*
X87156Y-48291D01*
X87156Y-48408D01*
X87201Y-48516D01*
X87283Y-48599D01*
X87391Y-48644D01*
X87508Y-48644D01*
X87616Y-48599D01*
X87699Y-48517D01*
X87744Y-48409D01*
X87744Y-50296D01*
X87734Y-50301D01*
X87651Y-50383D01*
X87606Y-50491D01*
X87606Y-50608D01*
X87651Y-50716D01*
X87733Y-50799D01*
X87795Y-50825D01*
X87734Y-50851D01*
X87651Y-50933D01*
X87606Y-51041D01*
X87606Y-51158D01*
X87651Y-51266D01*
X87733Y-51349D01*
X87841Y-51394D01*
X87896Y-51394D01*
X87856Y-51491D01*
X87856Y-51608D01*
X87901Y-51716D01*
X87983Y-51799D01*
X88091Y-51844D01*
X88208Y-51844D01*
X88316Y-51799D01*
X88399Y-51717D01*
X88444Y-51609D01*
X88444Y-51492D01*
X88399Y-51384D01*
X88317Y-51301D01*
X88209Y-51256D01*
X88153Y-51256D01*
X88179Y-51194D01*
X88258Y-51194D01*
X88366Y-51149D01*
X88449Y-51067D01*
X88494Y-50959D01*
X88494Y-50842D01*
X88485Y-50820D01*
X88541Y-50844D01*
X88658Y-50844D01*
X88766Y-50799D01*
X88774Y-50790D01*
X88783Y-50799D01*
X88891Y-50844D01*
X89008Y-50844D01*
X89116Y-50799D01*
X89199Y-50717D01*
X89244Y-50609D01*
X89244Y-54678D01*
X87094Y-54678D01*
X87094Y-50809D01*
X87094Y-50692D01*
X87049Y-50584D01*
X86967Y-50501D01*
X86859Y-50456D01*
X86742Y-50456D01*
X86634Y-50501D01*
X86551Y-50583D01*
X86506Y-50691D01*
X86506Y-50808D01*
X86551Y-50916D01*
X86633Y-50999D01*
X86741Y-51044D01*
X86858Y-51044D01*
X86966Y-50999D01*
X87049Y-50917D01*
X87094Y-50809D01*
X87094Y-54678D01*
X86994Y-54678D01*
X86994Y-54259D01*
X86994Y-54142D01*
X86949Y-54034D01*
X86867Y-53951D01*
X86759Y-53906D01*
X86642Y-53906D01*
X86594Y-53926D01*
X86594Y-51309D01*
X86594Y-51192D01*
X86549Y-51084D01*
X86467Y-51001D01*
X86359Y-50956D01*
X86242Y-50956D01*
X86134Y-51001D01*
X86051Y-51083D01*
X86006Y-51191D01*
X86006Y-51308D01*
X86051Y-51416D01*
X86133Y-51499D01*
X86241Y-51544D01*
X86358Y-51544D01*
X86466Y-51499D01*
X86549Y-51417D01*
X86594Y-51309D01*
X86594Y-53926D01*
X86534Y-53951D01*
X86451Y-54033D01*
X86406Y-54141D01*
X86406Y-54258D01*
X86451Y-54366D01*
X86533Y-54449D01*
X86641Y-54494D01*
X86758Y-54494D01*
X86866Y-54449D01*
X86949Y-54367D01*
X86994Y-54259D01*
X86994Y-54678D01*
X86294Y-54678D01*
X86294Y-54409D01*
X86294Y-54292D01*
X86249Y-54184D01*
X86167Y-54101D01*
X86059Y-54056D01*
X86044Y-54056D01*
X86044Y-54042D01*
X85999Y-53934D01*
X85917Y-53851D01*
X85844Y-53820D01*
X85844Y-50359D01*
X85844Y-50242D01*
X85799Y-50134D01*
X85717Y-50051D01*
X85609Y-50006D01*
X85492Y-50006D01*
X85384Y-50051D01*
X85301Y-50133D01*
X85256Y-50241D01*
X85256Y-50358D01*
X85301Y-50466D01*
X85383Y-50549D01*
X85491Y-50594D01*
X85608Y-50594D01*
X85716Y-50549D01*
X85799Y-50467D01*
X85844Y-50359D01*
X85844Y-53820D01*
X85809Y-53806D01*
X85692Y-53806D01*
X85584Y-53851D01*
X85501Y-53933D01*
X85456Y-54041D01*
X85456Y-54158D01*
X85501Y-54266D01*
X85583Y-54349D01*
X85691Y-54394D01*
X85706Y-54394D01*
X85706Y-54408D01*
X85751Y-54516D01*
X85833Y-54599D01*
X85941Y-54644D01*
X86058Y-54644D01*
X86166Y-54599D01*
X86249Y-54517D01*
X86294Y-54409D01*
X86294Y-54678D01*
X85174Y-54678D01*
X85144Y-54648D01*
X85144Y-50809D01*
X85144Y-50692D01*
X85099Y-50584D01*
X85017Y-50501D01*
X84979Y-50485D01*
X85049Y-50417D01*
X85094Y-50309D01*
X85094Y-50192D01*
X85049Y-50084D01*
X84967Y-50001D01*
X84859Y-49956D01*
X84742Y-49956D01*
X84634Y-50001D01*
X84551Y-50083D01*
X84506Y-50191D01*
X84506Y-50308D01*
X84551Y-50416D01*
X84633Y-50499D01*
X84670Y-50514D01*
X84601Y-50583D01*
X84556Y-50691D01*
X84556Y-50808D01*
X84601Y-50916D01*
X84683Y-50999D01*
X84791Y-51044D01*
X84908Y-51044D01*
X85016Y-50999D01*
X85099Y-50917D01*
X85144Y-50809D01*
X85144Y-54648D01*
X84998Y-54502D01*
X84931Y-54456D01*
X84917Y-54453D01*
X84850Y-54440D01*
X84375Y-54440D01*
X84399Y-54417D01*
X84444Y-54309D01*
X84444Y-54192D01*
X84444Y-51559D01*
X84444Y-51442D01*
X84399Y-51334D01*
X84317Y-51251D01*
X84209Y-51206D01*
X84092Y-51206D01*
X83984Y-51251D01*
X83944Y-51290D01*
X83925Y-51290D01*
X83949Y-51267D01*
X83994Y-51159D01*
X83994Y-51042D01*
X83949Y-50934D01*
X83867Y-50851D01*
X83759Y-50806D01*
X83642Y-50806D01*
X83534Y-50851D01*
X83525Y-50859D01*
X83517Y-50851D01*
X83409Y-50806D01*
X83292Y-50806D01*
X83184Y-50851D01*
X83115Y-50918D01*
X82986Y-50790D01*
X82919Y-50744D01*
X82905Y-50741D01*
X82838Y-50728D01*
X81262Y-50728D01*
X81194Y-50741D01*
X81181Y-50744D01*
X81113Y-50790D01*
X80908Y-50995D01*
X80944Y-50909D01*
X80944Y-50792D01*
X80899Y-50684D01*
X80817Y-50601D01*
X80709Y-50556D01*
X80592Y-50556D01*
X80484Y-50601D01*
X80401Y-50683D01*
X80356Y-50791D01*
X80356Y-50908D01*
X80401Y-51016D01*
X80483Y-51099D01*
X80591Y-51144D01*
X80708Y-51144D01*
X80796Y-51107D01*
X80584Y-51319D01*
X80517Y-51251D01*
X80409Y-51206D01*
X80292Y-51206D01*
X80184Y-51251D01*
X80101Y-51333D01*
X80056Y-51441D01*
X80056Y-51540D01*
X79675Y-51540D01*
X79749Y-51467D01*
X79779Y-51394D01*
X79858Y-51394D01*
X79966Y-51349D01*
X80049Y-51267D01*
X80094Y-51159D01*
X80094Y-51042D01*
X80049Y-50934D01*
X80040Y-50925D01*
X80049Y-50917D01*
X80094Y-50809D01*
X80094Y-50692D01*
X80049Y-50584D01*
X79967Y-50501D01*
X79859Y-50456D01*
X79779Y-50456D01*
X79749Y-50384D01*
X79667Y-50301D01*
X79559Y-50256D01*
X79479Y-50256D01*
X79449Y-50184D01*
X79367Y-50101D01*
X79259Y-50056D01*
X79142Y-50056D01*
X79034Y-50101D01*
X78951Y-50183D01*
X78906Y-50291D01*
X78906Y-50408D01*
X78951Y-50516D01*
X79033Y-50599D01*
X79141Y-50644D01*
X79221Y-50644D01*
X79251Y-50716D01*
X79333Y-50799D01*
X79441Y-50844D01*
X79521Y-50844D01*
X79551Y-50916D01*
X79559Y-50924D01*
X79551Y-50933D01*
X79520Y-51006D01*
X79442Y-51006D01*
X79334Y-51051D01*
X79251Y-51133D01*
X79220Y-51206D01*
X79142Y-51206D01*
X79034Y-51251D01*
X78951Y-51333D01*
X78915Y-51418D01*
X78394Y-50897D01*
X78394Y-49859D01*
X78394Y-49742D01*
X78349Y-49634D01*
X78267Y-49551D01*
X78159Y-49506D01*
X78042Y-49506D01*
X77934Y-49551D01*
X77851Y-49633D01*
X77806Y-49741D01*
X77806Y-49858D01*
X77851Y-49966D01*
X77933Y-50049D01*
X78041Y-50094D01*
X78158Y-50094D01*
X78266Y-50049D01*
X78349Y-49967D01*
X78394Y-49859D01*
X78394Y-50897D01*
X78294Y-50797D01*
X78294Y-50742D01*
X78249Y-50634D01*
X78167Y-50551D01*
X78059Y-50506D01*
X77942Y-50506D01*
X77834Y-50551D01*
X77751Y-50633D01*
X77706Y-50741D01*
X77706Y-50858D01*
X77751Y-50966D01*
X77759Y-50974D01*
X77701Y-51033D01*
X77656Y-51141D01*
X77656Y-51258D01*
X77701Y-51366D01*
X77783Y-51449D01*
X77891Y-51494D01*
X77947Y-51494D01*
X78513Y-52060D01*
X78514Y-52060D01*
X78559Y-52090D01*
X78581Y-52105D01*
X78582Y-52106D01*
X78661Y-52121D01*
X78662Y-52122D01*
X80538Y-52122D01*
X80538Y-52121D01*
X80605Y-52108D01*
X80618Y-52106D01*
X80619Y-52106D01*
X80686Y-52060D01*
X81436Y-51310D01*
X82256Y-51310D01*
X82256Y-51408D01*
X82301Y-51516D01*
X82309Y-51524D01*
X82301Y-51533D01*
X82256Y-51641D01*
X82256Y-51700D01*
X82249Y-51684D01*
X82167Y-51601D01*
X82059Y-51556D01*
X81942Y-51556D01*
X81834Y-51601D01*
X81751Y-51683D01*
X81706Y-51791D01*
X81706Y-51908D01*
X81751Y-52016D01*
X81833Y-52099D01*
X81941Y-52144D01*
X82058Y-52144D01*
X82166Y-52099D01*
X82249Y-52017D01*
X82256Y-52000D01*
X82256Y-52108D01*
X82301Y-52216D01*
X82383Y-52299D01*
X82491Y-52344D01*
X82608Y-52344D01*
X82716Y-52299D01*
X82799Y-52217D01*
X82844Y-52109D01*
X82844Y-51992D01*
X82799Y-51884D01*
X82790Y-51875D01*
X82799Y-51867D01*
X82844Y-51759D01*
X82844Y-51642D01*
X82799Y-51534D01*
X82790Y-51525D01*
X82799Y-51517D01*
X82820Y-51466D01*
X83251Y-51898D01*
X83252Y-51898D01*
X83319Y-51944D01*
X83320Y-51944D01*
X83332Y-51946D01*
X83400Y-51960D01*
X83694Y-51960D01*
X83733Y-51999D01*
X83841Y-52044D01*
X83958Y-52044D01*
X84066Y-51999D01*
X84149Y-51917D01*
X84194Y-51809D01*
X84194Y-51794D01*
X84208Y-51794D01*
X84316Y-51749D01*
X84399Y-51667D01*
X84444Y-51559D01*
X84444Y-54192D01*
X84399Y-54084D01*
X84317Y-54001D01*
X84209Y-53956D01*
X84092Y-53956D01*
X83984Y-54001D01*
X83901Y-54083D01*
X83856Y-54191D01*
X83856Y-54308D01*
X83901Y-54416D01*
X83924Y-54440D01*
X83122Y-54440D01*
X83099Y-54384D01*
X83017Y-54301D01*
X82909Y-54256D01*
X82792Y-54256D01*
X82684Y-54301D01*
X82601Y-54383D01*
X82556Y-54491D01*
X82556Y-54608D01*
X82601Y-54716D01*
X82683Y-54799D01*
X82791Y-54844D01*
X82870Y-54844D01*
X82874Y-54844D01*
X82950Y-54860D01*
X84456Y-54860D01*
X84456Y-54958D01*
X84501Y-55066D01*
X84583Y-55149D01*
X84691Y-55194D01*
X84747Y-55194D01*
X84751Y-55198D01*
X84752Y-55198D01*
X84819Y-55244D01*
X84820Y-55244D01*
X84832Y-55246D01*
X84900Y-55260D01*
X87956Y-55260D01*
X87956Y-55325D01*
X87909Y-55306D01*
X87792Y-55306D01*
X87684Y-55351D01*
X87601Y-55433D01*
X87556Y-55540D01*
X85805Y-55540D01*
X85767Y-55501D01*
X85659Y-55456D01*
X85542Y-55456D01*
X85434Y-55501D01*
X85351Y-55583D01*
X85341Y-55606D01*
X85242Y-55606D01*
X85134Y-55651D01*
X85125Y-55659D01*
X85117Y-55651D01*
X85009Y-55606D01*
X84892Y-55606D01*
X84784Y-55651D01*
X84701Y-55733D01*
X84656Y-55841D01*
X84656Y-55958D01*
X84701Y-56066D01*
X84783Y-56149D01*
X84891Y-56194D01*
X85008Y-56194D01*
X85116Y-56149D01*
X85124Y-56140D01*
X85133Y-56149D01*
X85241Y-56194D01*
X85358Y-56194D01*
X85466Y-56149D01*
X85549Y-56067D01*
X85558Y-56044D01*
X85658Y-56044D01*
X85766Y-55999D01*
X85805Y-55960D01*
X87556Y-55960D01*
X87556Y-56008D01*
X87601Y-56116D01*
X87683Y-56199D01*
X87791Y-56244D01*
X87908Y-56244D01*
X88016Y-56199D01*
X88028Y-56186D01*
X88006Y-56241D01*
X88006Y-56358D01*
X88051Y-56466D01*
X88133Y-56549D01*
X88241Y-56594D01*
X88358Y-56594D01*
X88466Y-56549D01*
X88549Y-56467D01*
X88594Y-56359D01*
X88594Y-56260D01*
X96000Y-56260D01*
X96000Y-56259D01*
X96067Y-56246D01*
X96080Y-56244D01*
X96081Y-56244D01*
X96148Y-56198D01*
X99102Y-53244D01*
X99158Y-53244D01*
X99266Y-53199D01*
X99349Y-53117D01*
X99394Y-53009D01*
X99394Y-52892D01*
X99349Y-52784D01*
X99267Y-52701D01*
X99159Y-52656D01*
X99060Y-52656D01*
X99060Y-52286D01*
X99102Y-52244D01*
X99158Y-52244D01*
X99266Y-52199D01*
X99349Y-52117D01*
X99394Y-52009D01*
X99394Y-51892D01*
X99349Y-51784D01*
X99267Y-51701D01*
X99159Y-51656D01*
X99042Y-51656D01*
X98934Y-51701D01*
X98898Y-51736D01*
X98898Y-51163D01*
X98933Y-51199D01*
X99041Y-51244D01*
X99158Y-51244D01*
X99266Y-51199D01*
X99349Y-51117D01*
X99394Y-51009D01*
X99394Y-50892D01*
X99349Y-50784D01*
X99267Y-50701D01*
X99159Y-50656D01*
X99042Y-50656D01*
X98934Y-50701D01*
X98898Y-50736D01*
X98898Y-50448D01*
X99102Y-50244D01*
X99158Y-50244D01*
X99266Y-50199D01*
X99349Y-50117D01*
X99394Y-50009D01*
X99394Y-49892D01*
X99349Y-49784D01*
X99267Y-49701D01*
X99251Y-49694D01*
X99660Y-49287D01*
X99660Y-49286D01*
X99690Y-49241D01*
X99705Y-49219D01*
X99706Y-49218D01*
X99721Y-49138D01*
X99722Y-49138D01*
X99722Y-47062D01*
X99706Y-46982D01*
X99705Y-46981D01*
X99694Y-46964D01*
X99694Y-46892D01*
X99649Y-46784D01*
X99567Y-46701D01*
X99459Y-46656D01*
X99342Y-46656D01*
X99234Y-46701D01*
X99225Y-46709D01*
X99217Y-46701D01*
X99109Y-46656D01*
X98992Y-46656D01*
X98884Y-46701D01*
X98801Y-46783D01*
X98756Y-46891D01*
X98756Y-47008D01*
X98801Y-47116D01*
X98883Y-47199D01*
X98991Y-47244D01*
X99047Y-47244D01*
X99140Y-47336D01*
X99140Y-47656D01*
X99042Y-47656D01*
X98934Y-47701D01*
X98851Y-47783D01*
X98806Y-47891D01*
X98806Y-48008D01*
X98851Y-48116D01*
X98933Y-48199D01*
X99041Y-48244D01*
X99140Y-48244D01*
X99140Y-48656D01*
X99042Y-48656D01*
X98934Y-48701D01*
X98851Y-48783D01*
X98806Y-48891D01*
X98806Y-48947D01*
X98534Y-49219D01*
X98499Y-49134D01*
X98490Y-49125D01*
X98499Y-49117D01*
X98544Y-49009D01*
X98544Y-48892D01*
X98499Y-48784D01*
X98490Y-48775D01*
X98499Y-48767D01*
X98544Y-48659D01*
X98544Y-48542D01*
X98499Y-48434D01*
X98490Y-48425D01*
X98499Y-48417D01*
X98544Y-48309D01*
X98544Y-48192D01*
X98499Y-48084D01*
X98490Y-48075D01*
X98499Y-48067D01*
X98544Y-47959D01*
X98544Y-47842D01*
X98499Y-47734D01*
X98490Y-47725D01*
X98499Y-47717D01*
X98544Y-47609D01*
X98544Y-47492D01*
X98499Y-47384D01*
X98490Y-47375D01*
X98499Y-47367D01*
X98544Y-47259D01*
X98544Y-47142D01*
X98499Y-47034D01*
X98490Y-47025D01*
X98499Y-47017D01*
X98544Y-46909D01*
X98544Y-46792D01*
X98499Y-46684D01*
X98490Y-46675D01*
X98499Y-46667D01*
X98544Y-46559D01*
X98544Y-46442D01*
X98499Y-46334D01*
X98490Y-46325D01*
X98499Y-46317D01*
X98544Y-46209D01*
X98544Y-46099D01*
X98551Y-46116D01*
X98633Y-46199D01*
X98741Y-46244D01*
X98858Y-46244D01*
X98966Y-46199D01*
X99049Y-46117D01*
X99094Y-46009D01*
X99094Y-45892D01*
X99049Y-45784D01*
X98981Y-45715D01*
X99624Y-45072D01*
X101048Y-45072D01*
X101030Y-45116D01*
X101030Y-45184D01*
X101030Y-45784D01*
X101056Y-45846D01*
X101104Y-45894D01*
X101166Y-45920D01*
X101234Y-45920D01*
X101834Y-45920D01*
X101896Y-45894D01*
X101944Y-45846D01*
X101970Y-45784D01*
X101970Y-45716D01*
X101970Y-45116D01*
X101944Y-45054D01*
X101896Y-45006D01*
X101834Y-44980D01*
X101816Y-44980D01*
X101902Y-44894D01*
X101958Y-44894D01*
X102066Y-44849D01*
X102149Y-44767D01*
X102194Y-44659D01*
X102194Y-45091D01*
X102102Y-45183D01*
X102030Y-45356D01*
X102030Y-45543D01*
X102101Y-45716D01*
X102233Y-45848D01*
X102406Y-45920D01*
X102593Y-45920D01*
X102766Y-45849D01*
X102898Y-45717D01*
X102970Y-45544D01*
X102970Y-46357D01*
X102899Y-46184D01*
X102767Y-46052D01*
X102594Y-45980D01*
X102407Y-45980D01*
X102234Y-46051D01*
X102102Y-46183D01*
X102030Y-46356D01*
X102030Y-46543D01*
X102101Y-46716D01*
X102233Y-46848D01*
X102406Y-46920D01*
X102593Y-46920D01*
X102766Y-46849D01*
X102898Y-46717D01*
X102970Y-46544D01*
X102970Y-47357D01*
X102899Y-47184D01*
X102767Y-47052D01*
X102594Y-46980D01*
X102407Y-46980D01*
X102234Y-47051D01*
X102102Y-47183D01*
X102030Y-47356D01*
X102030Y-47543D01*
X102101Y-47716D01*
X102233Y-47848D01*
X102406Y-47920D01*
X102593Y-47920D01*
X102766Y-47849D01*
X102898Y-47717D01*
X102970Y-47544D01*
X102970Y-48357D01*
X102899Y-48184D01*
X102767Y-48052D01*
X102594Y-47980D01*
X102407Y-47980D01*
X102234Y-48051D01*
X102102Y-48183D01*
X102030Y-48356D01*
X102030Y-48543D01*
X102101Y-48716D01*
X102233Y-48848D01*
X102406Y-48920D01*
X102593Y-48920D01*
X102766Y-48849D01*
X102898Y-48717D01*
X102970Y-48544D01*
X102970Y-49357D01*
X102899Y-49184D01*
X102767Y-49052D01*
X102594Y-48980D01*
X102407Y-48980D01*
X102234Y-49051D01*
X102102Y-49183D01*
X102030Y-49356D01*
X102030Y-49543D01*
X102101Y-49716D01*
X102233Y-49848D01*
X102406Y-49920D01*
X102593Y-49920D01*
X102766Y-49849D01*
X102898Y-49717D01*
X102970Y-49544D01*
X102970Y-50357D01*
X102899Y-50184D01*
X102767Y-50052D01*
X102594Y-49980D01*
X102407Y-49980D01*
X102234Y-50051D01*
X102102Y-50183D01*
X102030Y-50356D01*
X102030Y-50543D01*
X102101Y-50716D01*
X102233Y-50848D01*
X102406Y-50920D01*
X102593Y-50920D01*
X102766Y-50849D01*
X102898Y-50717D01*
X102970Y-50544D01*
X102970Y-51357D01*
X102899Y-51184D01*
X102767Y-51052D01*
X102594Y-50980D01*
X102407Y-50980D01*
X102234Y-51051D01*
X102102Y-51183D01*
X102030Y-51356D01*
X102030Y-51543D01*
X102101Y-51716D01*
X102233Y-51848D01*
X102406Y-51920D01*
X102593Y-51920D01*
X102766Y-51849D01*
X102898Y-51717D01*
X102970Y-51544D01*
X102970Y-52357D01*
X102899Y-52184D01*
X102767Y-52052D01*
X102594Y-51980D01*
X102407Y-51980D01*
X102234Y-52051D01*
X102102Y-52183D01*
X102030Y-52356D01*
X102030Y-52543D01*
X102101Y-52716D01*
X102233Y-52848D01*
X102406Y-52920D01*
X102593Y-52920D01*
X102766Y-52849D01*
X102898Y-52717D01*
X102970Y-52544D01*
X102970Y-53357D01*
X102899Y-53184D01*
X102767Y-53052D01*
X102594Y-52980D01*
X102407Y-52980D01*
X102234Y-53051D01*
X102102Y-53183D01*
X102030Y-53356D01*
X102030Y-53543D01*
X102101Y-53716D01*
X102233Y-53848D01*
X102406Y-53920D01*
X102593Y-53920D01*
X102766Y-53849D01*
X102898Y-53717D01*
X102970Y-53544D01*
X102970Y-54357D01*
X102899Y-54184D01*
X102767Y-54052D01*
X102594Y-53980D01*
X102407Y-53980D01*
X102234Y-54051D01*
X102102Y-54183D01*
X102030Y-54356D01*
X102030Y-54543D01*
X102101Y-54716D01*
X102233Y-54848D01*
X102406Y-54920D01*
X102593Y-54920D01*
X102766Y-54849D01*
X102898Y-54717D01*
X102970Y-54544D01*
X102970Y-58705D01*
X102886Y-58705D01*
X102886Y-57879D01*
X102886Y-56179D01*
X102875Y-55966D01*
X102815Y-55819D01*
X102721Y-55792D01*
X102651Y-55862D01*
X102651Y-55722D01*
X102624Y-55628D01*
X102422Y-55557D01*
X102209Y-55568D01*
X102062Y-55628D01*
X102035Y-55722D01*
X102343Y-56029D01*
X102651Y-55722D01*
X102651Y-55862D01*
X102414Y-56100D01*
X102721Y-56408D01*
X102815Y-56381D01*
X102886Y-56179D01*
X102886Y-57879D01*
X102875Y-57666D01*
X102815Y-57519D01*
X102721Y-57492D01*
X102651Y-57562D01*
X102651Y-57422D01*
X102651Y-56478D01*
X102343Y-56171D01*
X102272Y-56241D01*
X102272Y-56100D01*
X101970Y-55797D01*
X101970Y-54544D01*
X101970Y-54357D01*
X101970Y-53544D01*
X101970Y-53357D01*
X101970Y-52544D01*
X101970Y-52357D01*
X101970Y-51544D01*
X101970Y-51357D01*
X101970Y-50544D01*
X101970Y-50357D01*
X101970Y-49544D01*
X101970Y-49357D01*
X101970Y-48544D01*
X101970Y-48357D01*
X101970Y-47544D01*
X101970Y-47357D01*
X101970Y-46544D01*
X101970Y-46357D01*
X101899Y-46184D01*
X101767Y-46052D01*
X101594Y-45980D01*
X101407Y-45980D01*
X101234Y-46051D01*
X101102Y-46183D01*
X101030Y-46356D01*
X101030Y-46543D01*
X101101Y-46716D01*
X101233Y-46848D01*
X101406Y-46920D01*
X101593Y-46920D01*
X101766Y-46849D01*
X101898Y-46717D01*
X101970Y-46544D01*
X101970Y-47357D01*
X101899Y-47184D01*
X101767Y-47052D01*
X101594Y-46980D01*
X101407Y-46980D01*
X101234Y-47051D01*
X101102Y-47183D01*
X101030Y-47356D01*
X101030Y-47543D01*
X101101Y-47716D01*
X101233Y-47848D01*
X101406Y-47920D01*
X101593Y-47920D01*
X101766Y-47849D01*
X101898Y-47717D01*
X101970Y-47544D01*
X101970Y-48357D01*
X101899Y-48184D01*
X101767Y-48052D01*
X101594Y-47980D01*
X101407Y-47980D01*
X101234Y-48051D01*
X101102Y-48183D01*
X101030Y-48356D01*
X101030Y-48543D01*
X101101Y-48716D01*
X101233Y-48848D01*
X101406Y-48920D01*
X101593Y-48920D01*
X101766Y-48849D01*
X101898Y-48717D01*
X101970Y-48544D01*
X101970Y-49357D01*
X101899Y-49184D01*
X101767Y-49052D01*
X101594Y-48980D01*
X101407Y-48980D01*
X101234Y-49051D01*
X101102Y-49183D01*
X101030Y-49356D01*
X101030Y-49543D01*
X101101Y-49716D01*
X101233Y-49848D01*
X101406Y-49920D01*
X101593Y-49920D01*
X101766Y-49849D01*
X101898Y-49717D01*
X101970Y-49544D01*
X101970Y-50357D01*
X101899Y-50184D01*
X101767Y-50052D01*
X101594Y-49980D01*
X101407Y-49980D01*
X101234Y-50051D01*
X101102Y-50183D01*
X101030Y-50356D01*
X101030Y-50543D01*
X101101Y-50716D01*
X101233Y-50848D01*
X101406Y-50920D01*
X101593Y-50920D01*
X101766Y-50849D01*
X101898Y-50717D01*
X101970Y-50544D01*
X101970Y-51357D01*
X101899Y-51184D01*
X101767Y-51052D01*
X101594Y-50980D01*
X101407Y-50980D01*
X101234Y-51051D01*
X101102Y-51183D01*
X101030Y-51356D01*
X101030Y-51543D01*
X101101Y-51716D01*
X101233Y-51848D01*
X101406Y-51920D01*
X101593Y-51920D01*
X101766Y-51849D01*
X101898Y-51717D01*
X101970Y-51544D01*
X101970Y-52357D01*
X101899Y-52184D01*
X101767Y-52052D01*
X101594Y-51980D01*
X101407Y-51980D01*
X101234Y-52051D01*
X101102Y-52183D01*
X101030Y-52356D01*
X101030Y-52543D01*
X101101Y-52716D01*
X101233Y-52848D01*
X101406Y-52920D01*
X101593Y-52920D01*
X101766Y-52849D01*
X101898Y-52717D01*
X101970Y-52544D01*
X101970Y-53357D01*
X101899Y-53184D01*
X101767Y-53052D01*
X101594Y-52980D01*
X101407Y-52980D01*
X101234Y-53051D01*
X101102Y-53183D01*
X101030Y-53356D01*
X101030Y-53543D01*
X101101Y-53716D01*
X101233Y-53848D01*
X101406Y-53920D01*
X101593Y-53920D01*
X101766Y-53849D01*
X101898Y-53717D01*
X101970Y-53544D01*
X101970Y-54357D01*
X101899Y-54184D01*
X101767Y-54052D01*
X101594Y-53980D01*
X101407Y-53980D01*
X101234Y-54051D01*
X101102Y-54183D01*
X101030Y-54356D01*
X101030Y-54543D01*
X101101Y-54716D01*
X101233Y-54848D01*
X101406Y-54920D01*
X101593Y-54920D01*
X101766Y-54849D01*
X101898Y-54717D01*
X101970Y-54544D01*
X101970Y-55797D01*
X101965Y-55792D01*
X101871Y-55819D01*
X101800Y-56021D01*
X101811Y-56234D01*
X101871Y-56381D01*
X101965Y-56408D01*
X102272Y-56100D01*
X102272Y-56241D01*
X102035Y-56478D01*
X102062Y-56572D01*
X102264Y-56643D01*
X102477Y-56632D01*
X102624Y-56572D01*
X102651Y-56478D01*
X102651Y-57422D01*
X102624Y-57328D01*
X102422Y-57257D01*
X102209Y-57268D01*
X102062Y-57328D01*
X102035Y-57422D01*
X102343Y-57729D01*
X102651Y-57422D01*
X102651Y-57562D01*
X102414Y-57800D01*
X102721Y-58108D01*
X102815Y-58081D01*
X102886Y-57879D01*
X102886Y-58705D01*
X102651Y-58705D01*
X102651Y-58178D01*
X102343Y-57871D01*
X102272Y-57941D01*
X102272Y-57800D01*
X101965Y-57492D01*
X101871Y-57519D01*
X101800Y-57721D01*
X101811Y-57934D01*
X101871Y-58081D01*
X101965Y-58108D01*
X102272Y-57800D01*
X102272Y-57941D01*
X102035Y-58178D01*
X102062Y-58272D01*
X102264Y-58343D01*
X102477Y-58332D01*
X102624Y-58272D01*
X102651Y-58178D01*
X102651Y-58705D01*
X100727Y-58705D01*
X100727Y-57894D01*
X100727Y-57707D01*
X100727Y-56194D01*
X100727Y-56007D01*
X100656Y-55834D01*
X100524Y-55702D01*
X100351Y-55630D01*
X100244Y-55630D01*
X100244Y-50059D01*
X100244Y-49942D01*
X100199Y-49834D01*
X100117Y-49751D01*
X100009Y-49706D01*
X99892Y-49706D01*
X99784Y-49751D01*
X99701Y-49833D01*
X99656Y-49941D01*
X99656Y-50058D01*
X99701Y-50166D01*
X99783Y-50249D01*
X99891Y-50294D01*
X100008Y-50294D01*
X100116Y-50249D01*
X100199Y-50167D01*
X100244Y-50059D01*
X100244Y-55630D01*
X100164Y-55630D01*
X99991Y-55701D01*
X99859Y-55833D01*
X99787Y-56006D01*
X99787Y-56193D01*
X99858Y-56366D01*
X99990Y-56498D01*
X100163Y-56570D01*
X100350Y-56570D01*
X100523Y-56499D01*
X100655Y-56367D01*
X100727Y-56194D01*
X100727Y-57707D01*
X100656Y-57534D01*
X100524Y-57402D01*
X100351Y-57330D01*
X100164Y-57330D01*
X99991Y-57401D01*
X99859Y-57533D01*
X99787Y-57706D01*
X99787Y-57893D01*
X99858Y-58066D01*
X99990Y-58198D01*
X100163Y-58270D01*
X100350Y-58270D01*
X100523Y-58199D01*
X100655Y-58067D01*
X100727Y-57894D01*
X100727Y-58705D01*
X99694Y-58705D01*
X99694Y-55009D01*
X99694Y-54892D01*
X99649Y-54784D01*
X99567Y-54701D01*
X99459Y-54656D01*
X99394Y-54656D01*
X99394Y-54009D01*
X99394Y-53892D01*
X99349Y-53784D01*
X99267Y-53701D01*
X99159Y-53656D01*
X99042Y-53656D01*
X98934Y-53701D01*
X98851Y-53783D01*
X98806Y-53891D01*
X98806Y-54008D01*
X98851Y-54116D01*
X98933Y-54199D01*
X99041Y-54244D01*
X99158Y-54244D01*
X99266Y-54199D01*
X99349Y-54117D01*
X99394Y-54009D01*
X99394Y-54656D01*
X99342Y-54656D01*
X99234Y-54701D01*
X99151Y-54783D01*
X99106Y-54891D01*
X99106Y-55008D01*
X99151Y-55116D01*
X99233Y-55199D01*
X99341Y-55244D01*
X99458Y-55244D01*
X99566Y-55199D01*
X99649Y-55117D01*
X99694Y-55009D01*
X99694Y-58705D01*
X99433Y-58705D01*
X99445Y-58688D01*
X99445Y-58686D01*
X99447Y-58685D01*
X99461Y-58649D01*
X99475Y-58618D01*
X99475Y-58616D01*
X99476Y-58614D01*
X99490Y-58539D01*
X99491Y-58539D01*
X99491Y-58538D01*
X99491Y-58462D01*
X99491Y-58461D01*
X99490Y-58460D01*
X99476Y-58386D01*
X99475Y-58383D01*
X99475Y-58382D01*
X99461Y-58350D01*
X99447Y-58315D01*
X99445Y-58313D01*
X99445Y-58312D01*
X99404Y-58253D01*
X99402Y-58249D01*
X99367Y-58215D01*
X99351Y-58198D01*
X99347Y-58195D01*
X99346Y-58194D01*
X99287Y-58154D01*
X99285Y-58153D01*
X99261Y-58143D01*
X99217Y-58124D01*
X99216Y-58123D01*
X99214Y-58123D01*
X99140Y-58109D01*
X99139Y-58109D01*
X99137Y-58109D01*
X99062Y-58109D01*
X99061Y-58109D01*
X99060Y-58109D01*
X98986Y-58124D01*
X98983Y-58124D01*
X98982Y-58125D01*
X98950Y-58138D01*
X98915Y-58153D01*
X98913Y-58154D01*
X98912Y-58155D01*
X98849Y-58198D01*
X98815Y-58232D01*
X98798Y-58249D01*
X98795Y-58252D01*
X98795Y-58253D01*
X98794Y-58253D01*
X98754Y-58313D01*
X98753Y-58314D01*
X98753Y-58315D01*
X98743Y-58338D01*
X98724Y-58383D01*
X98723Y-58383D01*
X98723Y-58386D01*
X98709Y-58459D01*
X98709Y-58461D01*
X98709Y-58463D01*
X98709Y-58537D01*
X98709Y-58539D01*
X98709Y-58540D01*
X98723Y-58614D01*
X98723Y-58616D01*
X98724Y-58617D01*
X98743Y-58661D01*
X98753Y-58685D01*
X98754Y-58687D01*
X98766Y-58705D01*
X98544Y-58705D01*
X98544Y-57409D01*
X98544Y-57292D01*
X98499Y-57184D01*
X98417Y-57101D01*
X98309Y-57056D01*
X98192Y-57056D01*
X98084Y-57101D01*
X98001Y-57183D01*
X97956Y-57291D01*
X97956Y-57408D01*
X98001Y-57516D01*
X98083Y-57599D01*
X98191Y-57644D01*
X98308Y-57644D01*
X98416Y-57599D01*
X98499Y-57517D01*
X98544Y-57409D01*
X98544Y-58705D01*
X97394Y-58705D01*
X97394Y-57209D01*
X97394Y-57092D01*
X97349Y-56984D01*
X97267Y-56901D01*
X97159Y-56856D01*
X97042Y-56856D01*
X96934Y-56901D01*
X96912Y-56921D01*
X96892Y-56901D01*
X96784Y-56856D01*
X96667Y-56856D01*
X96559Y-56901D01*
X96537Y-56921D01*
X96517Y-56901D01*
X96409Y-56856D01*
X96292Y-56856D01*
X96184Y-56901D01*
X96101Y-56983D01*
X96056Y-57091D01*
X96056Y-57208D01*
X96101Y-57316D01*
X96183Y-57399D01*
X96291Y-57444D01*
X96408Y-57444D01*
X96516Y-57399D01*
X96537Y-57378D01*
X96558Y-57399D01*
X96666Y-57444D01*
X96783Y-57444D01*
X96891Y-57399D01*
X96912Y-57378D01*
X96933Y-57399D01*
X97041Y-57444D01*
X97158Y-57444D01*
X97266Y-57399D01*
X97349Y-57317D01*
X97394Y-57209D01*
X97394Y-58705D01*
X95944Y-58705D01*
X95944Y-57209D01*
X95944Y-57092D01*
X95899Y-56984D01*
X95817Y-56901D01*
X95709Y-56856D01*
X95592Y-56856D01*
X95484Y-56901D01*
X95401Y-56983D01*
X95356Y-57091D01*
X95356Y-57208D01*
X95401Y-57316D01*
X95483Y-57399D01*
X95591Y-57444D01*
X95708Y-57444D01*
X95816Y-57399D01*
X95899Y-57317D01*
X95944Y-57209D01*
X95944Y-58705D01*
X95244Y-58705D01*
X95244Y-57209D01*
X95244Y-57092D01*
X95199Y-56984D01*
X95117Y-56901D01*
X95009Y-56856D01*
X94892Y-56856D01*
X94784Y-56901D01*
X94701Y-56983D01*
X94656Y-57091D01*
X94656Y-57208D01*
X94701Y-57316D01*
X94783Y-57399D01*
X94891Y-57444D01*
X95008Y-57444D01*
X95116Y-57399D01*
X95199Y-57317D01*
X95244Y-57209D01*
X95244Y-58705D01*
X94544Y-58705D01*
X94544Y-57209D01*
X94544Y-57092D01*
X94499Y-56984D01*
X94417Y-56901D01*
X94309Y-56856D01*
X94192Y-56856D01*
X94084Y-56901D01*
X94001Y-56983D01*
X93956Y-57091D01*
X93956Y-57208D01*
X94001Y-57316D01*
X94083Y-57399D01*
X94191Y-57444D01*
X94308Y-57444D01*
X94416Y-57399D01*
X94499Y-57317D01*
X94544Y-57209D01*
X94544Y-58705D01*
X93844Y-58705D01*
X93844Y-57209D01*
X93844Y-57092D01*
X93799Y-56984D01*
X93717Y-56901D01*
X93609Y-56856D01*
X93492Y-56856D01*
X93384Y-56901D01*
X93362Y-56921D01*
X93342Y-56901D01*
X93234Y-56856D01*
X93117Y-56856D01*
X93009Y-56901D01*
X92987Y-56921D01*
X92967Y-56901D01*
X92859Y-56856D01*
X92742Y-56856D01*
X92634Y-56901D01*
X92612Y-56921D01*
X92592Y-56901D01*
X92484Y-56856D01*
X92367Y-56856D01*
X92259Y-56901D01*
X92237Y-56921D01*
X92217Y-56901D01*
X92109Y-56856D01*
X91992Y-56856D01*
X91884Y-56901D01*
X91801Y-56983D01*
X91756Y-57091D01*
X91756Y-57208D01*
X91801Y-57316D01*
X91883Y-57399D01*
X91991Y-57444D01*
X92108Y-57444D01*
X92216Y-57399D01*
X92237Y-57378D01*
X92258Y-57399D01*
X92366Y-57444D01*
X92483Y-57444D01*
X92591Y-57399D01*
X92612Y-57378D01*
X92633Y-57399D01*
X92741Y-57444D01*
X92858Y-57444D01*
X92966Y-57399D01*
X92987Y-57378D01*
X93008Y-57399D01*
X93116Y-57444D01*
X93233Y-57444D01*
X93341Y-57399D01*
X93362Y-57378D01*
X93383Y-57399D01*
X93491Y-57444D01*
X93608Y-57444D01*
X93716Y-57399D01*
X93799Y-57317D01*
X93844Y-57209D01*
X93844Y-58705D01*
X91644Y-58705D01*
X91644Y-57209D01*
X91644Y-57092D01*
X91599Y-56984D01*
X91517Y-56901D01*
X91409Y-56856D01*
X91292Y-56856D01*
X91184Y-56901D01*
X91101Y-56983D01*
X91056Y-57091D01*
X91056Y-57208D01*
X91101Y-57316D01*
X91183Y-57399D01*
X91291Y-57444D01*
X91408Y-57444D01*
X91516Y-57399D01*
X91599Y-57317D01*
X91644Y-57209D01*
X91644Y-58705D01*
X91124Y-58705D01*
X91144Y-58659D01*
X91144Y-58542D01*
X91099Y-58434D01*
X91017Y-58351D01*
X90909Y-58306D01*
X90792Y-58306D01*
X90684Y-58351D01*
X90601Y-58433D01*
X90556Y-58541D01*
X90556Y-58658D01*
X90575Y-58705D01*
X89094Y-58705D01*
X89094Y-57309D01*
X89094Y-57192D01*
X89049Y-57084D01*
X88967Y-57001D01*
X88859Y-56956D01*
X88742Y-56956D01*
X88634Y-57001D01*
X88551Y-57083D01*
X88506Y-57191D01*
X88506Y-57308D01*
X88551Y-57416D01*
X88633Y-57499D01*
X88741Y-57544D01*
X88858Y-57544D01*
X88966Y-57499D01*
X89049Y-57417D01*
X89094Y-57309D01*
X89094Y-58705D01*
X87444Y-58705D01*
X87444Y-57484D01*
X87444Y-57367D01*
X87399Y-57259D01*
X87317Y-57176D01*
X87209Y-57131D01*
X87092Y-57131D01*
X87044Y-57151D01*
X87044Y-56609D01*
X87044Y-56492D01*
X86999Y-56384D01*
X86917Y-56301D01*
X86809Y-56256D01*
X86692Y-56256D01*
X86584Y-56301D01*
X86501Y-56383D01*
X86456Y-56491D01*
X86456Y-56608D01*
X86501Y-56716D01*
X86583Y-56799D01*
X86691Y-56844D01*
X86808Y-56844D01*
X86916Y-56799D01*
X86999Y-56717D01*
X87044Y-56609D01*
X87044Y-57151D01*
X86984Y-57176D01*
X86901Y-57258D01*
X86856Y-57366D01*
X86856Y-57483D01*
X86901Y-57591D01*
X86983Y-57674D01*
X87091Y-57719D01*
X87208Y-57719D01*
X87316Y-57674D01*
X87399Y-57592D01*
X87444Y-57484D01*
X87444Y-58705D01*
X85594Y-58705D01*
X85594Y-57659D01*
X85594Y-57542D01*
X85549Y-57434D01*
X85467Y-57351D01*
X85359Y-57306D01*
X85242Y-57306D01*
X85134Y-57351D01*
X85051Y-57433D01*
X85006Y-57541D01*
X85006Y-57658D01*
X85051Y-57766D01*
X85133Y-57849D01*
X85241Y-57894D01*
X85358Y-57894D01*
X85466Y-57849D01*
X85549Y-57767D01*
X85594Y-57659D01*
X85594Y-58705D01*
X84794Y-58705D01*
X84794Y-56959D01*
X84794Y-56842D01*
X84749Y-56734D01*
X84667Y-56651D01*
X84559Y-56606D01*
X84442Y-56606D01*
X84344Y-56646D01*
X84344Y-55859D01*
X84344Y-55742D01*
X84299Y-55634D01*
X84217Y-55551D01*
X84144Y-55520D01*
X84144Y-55442D01*
X84099Y-55334D01*
X84017Y-55251D01*
X83909Y-55206D01*
X83792Y-55206D01*
X83741Y-55226D01*
X83667Y-55151D01*
X83559Y-55106D01*
X83442Y-55106D01*
X83334Y-55151D01*
X83325Y-55159D01*
X83317Y-55151D01*
X83209Y-55106D01*
X83092Y-55106D01*
X82984Y-55151D01*
X82975Y-55159D01*
X82967Y-55151D01*
X82859Y-55106D01*
X82742Y-55106D01*
X82634Y-55151D01*
X82551Y-55233D01*
X82506Y-55341D01*
X82506Y-55456D01*
X82392Y-55456D01*
X82284Y-55501D01*
X82275Y-55509D01*
X82267Y-55501D01*
X82159Y-55456D01*
X82042Y-55456D01*
X81934Y-55501D01*
X81851Y-55583D01*
X81806Y-55691D01*
X81806Y-55808D01*
X81851Y-55916D01*
X81933Y-55999D01*
X82041Y-56044D01*
X82158Y-56044D01*
X82266Y-55999D01*
X82274Y-55990D01*
X82283Y-55999D01*
X82391Y-56044D01*
X82508Y-56044D01*
X82616Y-55999D01*
X82624Y-55990D01*
X82633Y-55999D01*
X82741Y-56044D01*
X82858Y-56044D01*
X82966Y-55999D01*
X83049Y-55917D01*
X83094Y-55809D01*
X83094Y-55694D01*
X83208Y-55694D01*
X83316Y-55649D01*
X83324Y-55640D01*
X83333Y-55649D01*
X83441Y-55694D01*
X83558Y-55694D01*
X83608Y-55673D01*
X83683Y-55749D01*
X83756Y-55779D01*
X83756Y-55858D01*
X83801Y-55966D01*
X83883Y-56049D01*
X83991Y-56094D01*
X84108Y-56094D01*
X84216Y-56049D01*
X84299Y-55967D01*
X84344Y-55859D01*
X84344Y-56646D01*
X84334Y-56651D01*
X84274Y-56709D01*
X84217Y-56651D01*
X84109Y-56606D01*
X83992Y-56606D01*
X83884Y-56651D01*
X83801Y-56733D01*
X83756Y-56841D01*
X83756Y-56958D01*
X83801Y-57066D01*
X83883Y-57149D01*
X83991Y-57194D01*
X84108Y-57194D01*
X84216Y-57149D01*
X84275Y-57090D01*
X84333Y-57149D01*
X84441Y-57194D01*
X84558Y-57194D01*
X84666Y-57149D01*
X84749Y-57067D01*
X84794Y-56959D01*
X84794Y-58705D01*
X82844Y-58705D01*
X82844Y-57009D01*
X82844Y-56892D01*
X82799Y-56784D01*
X82717Y-56701D01*
X82609Y-56656D01*
X82492Y-56656D01*
X82384Y-56701D01*
X82301Y-56783D01*
X82265Y-56868D01*
X80860Y-55463D01*
X80860Y-54055D01*
X80899Y-54017D01*
X80944Y-53909D01*
X80944Y-53792D01*
X80899Y-53684D01*
X80817Y-53601D01*
X80709Y-53556D01*
X80592Y-53556D01*
X80484Y-53601D01*
X80401Y-53683D01*
X80356Y-53791D01*
X80356Y-53908D01*
X80401Y-54016D01*
X80440Y-54055D01*
X80440Y-55550D01*
X80453Y-55617D01*
X80456Y-55631D01*
X80502Y-55698D01*
X82056Y-57252D01*
X82056Y-57308D01*
X82101Y-57416D01*
X82183Y-57499D01*
X82291Y-57544D01*
X82408Y-57544D01*
X82516Y-57499D01*
X82599Y-57417D01*
X82644Y-57309D01*
X82644Y-57229D01*
X82716Y-57199D01*
X82799Y-57117D01*
X82844Y-57009D01*
X82844Y-58705D01*
X81694Y-58705D01*
X81694Y-57359D01*
X81694Y-57242D01*
X81649Y-57134D01*
X81567Y-57051D01*
X81459Y-57006D01*
X81342Y-57006D01*
X81234Y-57051D01*
X81225Y-57059D01*
X81217Y-57051D01*
X81109Y-57006D01*
X80992Y-57006D01*
X80884Y-57051D01*
X80875Y-57059D01*
X80867Y-57051D01*
X80759Y-57006D01*
X80642Y-57006D01*
X80534Y-57051D01*
X80457Y-57126D01*
X80409Y-57106D01*
X80292Y-57106D01*
X80184Y-57151D01*
X80175Y-57159D01*
X80167Y-57151D01*
X80059Y-57106D01*
X79974Y-57106D01*
X79994Y-57059D01*
X79994Y-56942D01*
X79949Y-56834D01*
X79867Y-56751D01*
X79759Y-56706D01*
X79642Y-56706D01*
X79534Y-56751D01*
X79451Y-56833D01*
X79406Y-56941D01*
X79406Y-57058D01*
X79451Y-57166D01*
X79533Y-57249D01*
X79641Y-57294D01*
X79725Y-57294D01*
X79706Y-57341D01*
X79706Y-57458D01*
X79751Y-57566D01*
X79833Y-57649D01*
X79941Y-57694D01*
X80058Y-57694D01*
X80166Y-57649D01*
X80174Y-57640D01*
X80183Y-57649D01*
X80291Y-57694D01*
X80408Y-57694D01*
X80516Y-57649D01*
X80592Y-57573D01*
X80641Y-57594D01*
X80758Y-57594D01*
X80866Y-57549D01*
X80874Y-57540D01*
X80883Y-57549D01*
X80991Y-57594D01*
X81108Y-57594D01*
X81216Y-57549D01*
X81224Y-57540D01*
X81233Y-57549D01*
X81341Y-57594D01*
X81458Y-57594D01*
X81566Y-57549D01*
X81649Y-57467D01*
X81694Y-57359D01*
X81694Y-58705D01*
X80234Y-58705D01*
X80263Y-58652D01*
X80285Y-58579D01*
X80286Y-58577D01*
X80287Y-58576D01*
X80293Y-58508D01*
X80294Y-58501D01*
X80293Y-58500D01*
X80294Y-58500D01*
X80286Y-58424D01*
X80286Y-58422D01*
X80272Y-58378D01*
X80264Y-58351D01*
X80263Y-58349D01*
X80262Y-58348D01*
X80229Y-58283D01*
X80227Y-58281D01*
X80181Y-58223D01*
X80179Y-58222D01*
X80178Y-58221D01*
X80119Y-58172D01*
X80075Y-58148D01*
X80052Y-58136D01*
X79978Y-58114D01*
X79977Y-58114D01*
X79976Y-58113D01*
X79908Y-58106D01*
X79901Y-58106D01*
X79900Y-58106D01*
X79822Y-58114D01*
X79778Y-58127D01*
X79751Y-58136D01*
X79749Y-58136D01*
X79749Y-58137D01*
X79748Y-58137D01*
X79683Y-58171D01*
X79623Y-58219D01*
X79621Y-58221D01*
X79572Y-58281D01*
X79548Y-58324D01*
X79536Y-58348D01*
X79514Y-58421D01*
X79513Y-58424D01*
X79506Y-58492D01*
X79506Y-58499D01*
X79506Y-58500D01*
X79514Y-58578D01*
X79523Y-58609D01*
X79535Y-58648D01*
X79537Y-58651D01*
X79564Y-58705D01*
X78845Y-58705D01*
X78845Y-58009D01*
X78845Y-57941D01*
X78845Y-57391D01*
X78819Y-57329D01*
X78771Y-57281D01*
X78709Y-57255D01*
X78641Y-57255D01*
X78294Y-57255D01*
X78294Y-54959D01*
X78294Y-54842D01*
X78249Y-54734D01*
X78167Y-54651D01*
X78059Y-54606D01*
X77942Y-54606D01*
X77834Y-54651D01*
X77751Y-54733D01*
X77706Y-54841D01*
X77706Y-54958D01*
X77751Y-55066D01*
X77833Y-55149D01*
X77941Y-55194D01*
X78058Y-55194D01*
X78166Y-55149D01*
X78249Y-55067D01*
X78294Y-54959D01*
X78294Y-57255D01*
X78091Y-57255D01*
X78029Y-57281D01*
X77981Y-57329D01*
X77955Y-57391D01*
X77955Y-57459D01*
X77955Y-58009D01*
X77981Y-58071D01*
X78029Y-58119D01*
X78091Y-58145D01*
X78159Y-58145D01*
X78709Y-58145D01*
X78771Y-58119D01*
X78819Y-58071D01*
X78845Y-58009D01*
X78845Y-58705D01*
X77844Y-58705D01*
X77844Y-57789D01*
X77844Y-57612D01*
X77777Y-57449D01*
X77652Y-57324D01*
X77489Y-57256D01*
X77312Y-57256D01*
X77149Y-57323D01*
X77024Y-57448D01*
X76956Y-57611D01*
X76956Y-57788D01*
X77023Y-57951D01*
X77148Y-58076D01*
X77311Y-58144D01*
X77488Y-58144D01*
X77651Y-58077D01*
X77776Y-57952D01*
X77844Y-57789D01*
X77844Y-58705D01*
X76794Y-58705D01*
X76794Y-55309D01*
X76794Y-55192D01*
X76749Y-55084D01*
X76667Y-55001D01*
X76559Y-54956D01*
X76442Y-54956D01*
X76391Y-54976D01*
X76391Y-42639D01*
X76391Y-42638D01*
X76391Y-42562D01*
X76391Y-42561D01*
X76353Y-42372D01*
X76353Y-42371D01*
X76324Y-42301D01*
X76324Y-42300D01*
X76322Y-42298D01*
X76217Y-42138D01*
X76163Y-42084D01*
X76161Y-42083D01*
X75999Y-41975D01*
X75928Y-41947D01*
X75738Y-41909D01*
X75662Y-41909D01*
X75661Y-41909D01*
X75471Y-41947D01*
X75400Y-41976D01*
X75398Y-41977D01*
X75238Y-42083D01*
X75184Y-42137D01*
X75183Y-42138D01*
X75183Y-42139D01*
X75075Y-42301D01*
X75047Y-42372D01*
X75009Y-42562D01*
X75009Y-42638D01*
X75047Y-42828D01*
X75075Y-42899D01*
X75183Y-43061D01*
X75184Y-43063D01*
X75238Y-43117D01*
X75398Y-43222D01*
X75400Y-43224D01*
X75401Y-43224D01*
X75471Y-43253D01*
X75472Y-43253D01*
X75661Y-43291D01*
X75662Y-43291D01*
X75738Y-43291D01*
X75928Y-43253D01*
X75999Y-43225D01*
X75999Y-43224D01*
X76161Y-43117D01*
X76161Y-43116D01*
X76163Y-43116D01*
X76215Y-43063D01*
X76217Y-43062D01*
X76322Y-42901D01*
X76324Y-42900D01*
X76324Y-42899D01*
X76353Y-42829D01*
X76353Y-42828D01*
X76391Y-42639D01*
X76391Y-54976D01*
X76344Y-54996D01*
X76344Y-54912D01*
X76344Y-52789D01*
X76344Y-52612D01*
X76277Y-52449D01*
X76194Y-52366D01*
X76194Y-50359D01*
X76194Y-50242D01*
X76149Y-50134D01*
X76140Y-50125D01*
X76149Y-50117D01*
X76194Y-50009D01*
X76194Y-49892D01*
X76149Y-49784D01*
X76067Y-49701D01*
X75973Y-49661D01*
X75973Y-49064D01*
X75972Y-49063D01*
X75973Y-49062D01*
X75963Y-48993D01*
X75962Y-48991D01*
X75938Y-48920D01*
X75937Y-48919D01*
X75936Y-48918D01*
X75902Y-48862D01*
X75902Y-48861D01*
X75901Y-48860D01*
X75851Y-48804D01*
X75850Y-48803D01*
X75849Y-48802D01*
X75796Y-48763D01*
X75795Y-48762D01*
X75760Y-48745D01*
X75727Y-48729D01*
X75660Y-48711D01*
X75583Y-48707D01*
X75582Y-48707D01*
X75513Y-48717D01*
X75440Y-48742D01*
X75438Y-48743D01*
X75382Y-48777D01*
X75381Y-48778D01*
X75344Y-48811D01*
X75344Y-47709D01*
X75344Y-47592D01*
X75299Y-47484D01*
X75217Y-47401D01*
X75109Y-47356D01*
X74992Y-47356D01*
X74884Y-47401D01*
X74801Y-47483D01*
X74756Y-47591D01*
X74756Y-47708D01*
X74801Y-47816D01*
X74883Y-47899D01*
X74991Y-47944D01*
X75108Y-47944D01*
X75216Y-47899D01*
X75299Y-47817D01*
X75344Y-47709D01*
X75344Y-48811D01*
X75324Y-48829D01*
X75323Y-48829D01*
X75323Y-48830D01*
X75322Y-48830D01*
X75282Y-48885D01*
X75265Y-48920D01*
X75249Y-48953D01*
X75231Y-49020D01*
X75227Y-49097D01*
X75237Y-49167D01*
X75237Y-49168D01*
X75246Y-49193D01*
X75262Y-49239D01*
X75263Y-49240D01*
X75298Y-49300D01*
X75322Y-49326D01*
X75349Y-49356D01*
X75350Y-49356D01*
X75404Y-49397D01*
X75405Y-49398D01*
X75428Y-49409D01*
X75472Y-49431D01*
X75474Y-49431D01*
X75537Y-49447D01*
X75540Y-49448D01*
X75541Y-49449D01*
X75612Y-49452D01*
X75616Y-49453D01*
X75616Y-49452D01*
X75617Y-49453D01*
X75687Y-49443D01*
X75687Y-49442D01*
X75688Y-49443D01*
X75713Y-49433D01*
X75759Y-49418D01*
X75760Y-49417D01*
X75760Y-49416D01*
X75819Y-49382D01*
X75820Y-49382D01*
X75846Y-49357D01*
X75876Y-49331D01*
X75876Y-49330D01*
X75917Y-49276D01*
X75918Y-49275D01*
X75929Y-49252D01*
X75951Y-49208D01*
X75951Y-49206D01*
X75967Y-49140D01*
X75968Y-49140D01*
X75969Y-49138D01*
X75972Y-49072D01*
X75973Y-49064D01*
X75973Y-49661D01*
X75959Y-49656D01*
X75842Y-49656D01*
X75734Y-49701D01*
X75651Y-49783D01*
X75606Y-49891D01*
X75606Y-50008D01*
X75651Y-50116D01*
X75659Y-50124D01*
X75651Y-50133D01*
X75606Y-50241D01*
X75606Y-50358D01*
X75643Y-50448D01*
X75625Y-50445D01*
X75623Y-50445D01*
X75622Y-50445D01*
X75554Y-50447D01*
X75552Y-50447D01*
X75551Y-50447D01*
X75509Y-50456D01*
X75479Y-50464D01*
X75477Y-50464D01*
X75477Y-50465D01*
X75412Y-50495D01*
X75372Y-50524D01*
X75353Y-50537D01*
X75350Y-50539D01*
X75350Y-50540D01*
X75349Y-50540D01*
X75304Y-50588D01*
X75263Y-50652D01*
X75262Y-50653D01*
X75262Y-50655D01*
X75237Y-50722D01*
X75229Y-50771D01*
X75225Y-50795D01*
X75225Y-50796D01*
X75225Y-50797D01*
X75227Y-50866D01*
X75227Y-50868D01*
X75235Y-50902D01*
X75244Y-50941D01*
X75244Y-50942D01*
X75245Y-50943D01*
X75272Y-51001D01*
X75273Y-51004D01*
X75274Y-51006D01*
X75275Y-51007D01*
X75277Y-51010D01*
X75317Y-51067D01*
X75320Y-51069D01*
X75367Y-51115D01*
X75369Y-51116D01*
X75370Y-51117D01*
X75432Y-51156D01*
X75435Y-51158D01*
X75500Y-51182D01*
X75501Y-51183D01*
X75554Y-51191D01*
X75575Y-51195D01*
X75576Y-51194D01*
X75577Y-51195D01*
X75577Y-51194D01*
X75646Y-51193D01*
X75646Y-51192D01*
X75648Y-51193D01*
X75682Y-51184D01*
X75721Y-51176D01*
X75722Y-51175D01*
X75723Y-51175D01*
X75781Y-51147D01*
X75784Y-51147D01*
X75786Y-51145D01*
X75787Y-51145D01*
X75790Y-51142D01*
X75847Y-51103D01*
X75849Y-51100D01*
X75895Y-51053D01*
X75896Y-51050D01*
X75897Y-51050D01*
X75936Y-50988D01*
X75938Y-50985D01*
X75962Y-50920D01*
X75963Y-50919D01*
X75971Y-50865D01*
X75975Y-50845D01*
X75974Y-50843D01*
X75975Y-50843D01*
X75974Y-50842D01*
X75973Y-50774D01*
X75972Y-50772D01*
X75973Y-50771D01*
X75963Y-50729D01*
X75956Y-50699D01*
X75955Y-50697D01*
X75926Y-50636D01*
X75925Y-50632D01*
X75897Y-50594D01*
X75958Y-50594D01*
X76066Y-50549D01*
X76149Y-50467D01*
X76194Y-50359D01*
X76194Y-52366D01*
X76152Y-52324D01*
X75989Y-52256D01*
X75812Y-52256D01*
X75649Y-52323D01*
X75524Y-52448D01*
X75456Y-52611D01*
X75456Y-52788D01*
X75523Y-52951D01*
X75648Y-53076D01*
X75811Y-53144D01*
X75988Y-53144D01*
X76151Y-53077D01*
X76276Y-52952D01*
X76344Y-52789D01*
X76344Y-54912D01*
X76277Y-54749D01*
X76152Y-54624D01*
X75989Y-54556D01*
X75812Y-54556D01*
X75649Y-54623D01*
X75524Y-54748D01*
X75456Y-54911D01*
X75456Y-55088D01*
X75523Y-55251D01*
X75648Y-55376D01*
X75811Y-55444D01*
X75988Y-55444D01*
X76151Y-55377D01*
X76210Y-55317D01*
X76251Y-55416D01*
X76333Y-55499D01*
X76441Y-55544D01*
X76558Y-55544D01*
X76666Y-55499D01*
X76749Y-55417D01*
X76794Y-55309D01*
X76794Y-58705D01*
X76391Y-58705D01*
X76391Y-57239D01*
X76391Y-57238D01*
X76391Y-57162D01*
X76391Y-57161D01*
X76353Y-56972D01*
X76353Y-56971D01*
X76324Y-56901D01*
X76324Y-56900D01*
X76322Y-56898D01*
X76217Y-56738D01*
X76163Y-56684D01*
X76161Y-56683D01*
X75999Y-56575D01*
X75928Y-56547D01*
X75738Y-56509D01*
X75662Y-56509D01*
X75661Y-56509D01*
X75471Y-56547D01*
X75400Y-56576D01*
X75398Y-56577D01*
X75345Y-56612D01*
X75345Y-55309D01*
X75345Y-55241D01*
X75345Y-54691D01*
X75345Y-53009D01*
X75345Y-52941D01*
X75345Y-52391D01*
X75319Y-52329D01*
X75271Y-52281D01*
X75209Y-52255D01*
X75141Y-52255D01*
X74591Y-52255D01*
X74529Y-52281D01*
X74481Y-52329D01*
X74455Y-52391D01*
X74455Y-52459D01*
X74455Y-53009D01*
X74481Y-53071D01*
X74529Y-53119D01*
X74591Y-53145D01*
X74659Y-53145D01*
X75209Y-53145D01*
X75271Y-53119D01*
X75319Y-53071D01*
X75345Y-53009D01*
X75345Y-54691D01*
X75319Y-54629D01*
X75271Y-54581D01*
X75209Y-54555D01*
X75141Y-54555D01*
X74591Y-54555D01*
X74529Y-54581D01*
X74481Y-54629D01*
X74455Y-54691D01*
X74455Y-54759D01*
X74455Y-55309D01*
X74481Y-55371D01*
X74529Y-55419D01*
X74591Y-55445D01*
X74659Y-55445D01*
X75209Y-55445D01*
X75271Y-55419D01*
X75319Y-55371D01*
X75345Y-55309D01*
X75345Y-56612D01*
X75238Y-56683D01*
X75184Y-56737D01*
X75183Y-56738D01*
X75183Y-56739D01*
X75075Y-56901D01*
X75047Y-56972D01*
X75009Y-57162D01*
X75009Y-57238D01*
X75047Y-57428D01*
X75075Y-57499D01*
X75183Y-57661D01*
X75184Y-57663D01*
X75238Y-57717D01*
X75398Y-57822D01*
X75400Y-57824D01*
X75401Y-57824D01*
X75471Y-57853D01*
X75472Y-57853D01*
X75661Y-57891D01*
X75662Y-57891D01*
X75738Y-57891D01*
X75928Y-57853D01*
X75999Y-57825D01*
X75999Y-57824D01*
X76161Y-57717D01*
X76161Y-57716D01*
X76163Y-57716D01*
X76215Y-57663D01*
X76217Y-57662D01*
X76322Y-57501D01*
X76324Y-57500D01*
X76324Y-57499D01*
X76353Y-57429D01*
X76353Y-57428D01*
X76391Y-57239D01*
X76391Y-58705D01*
X74245Y-58705D01*
X74245Y-41195D01*
X76990Y-41195D01*
X76952Y-41233D01*
X76880Y-41406D01*
X76880Y-41593D01*
X76951Y-41766D01*
X77083Y-41898D01*
X77256Y-41970D01*
X77443Y-41970D01*
X77616Y-41899D01*
X77748Y-41767D01*
X77820Y-41594D01*
X77820Y-41407D01*
X77749Y-41234D01*
X77710Y-41195D01*
X77990Y-41195D01*
X77952Y-41233D01*
X77880Y-41406D01*
X77880Y-41593D01*
X77951Y-41766D01*
X78083Y-41898D01*
X78256Y-41970D01*
X78443Y-41970D01*
X78616Y-41899D01*
X78748Y-41767D01*
X78820Y-41594D01*
X78820Y-41407D01*
X78749Y-41234D01*
X78710Y-41195D01*
X78990Y-41195D01*
X78952Y-41233D01*
X78880Y-41406D01*
X78880Y-41593D01*
X78951Y-41766D01*
X79083Y-41898D01*
X79256Y-41970D01*
X79443Y-41970D01*
X79616Y-41899D01*
X79748Y-41767D01*
X79820Y-41594D01*
X79820Y-41407D01*
X79749Y-41234D01*
X79710Y-41195D01*
X79990Y-41195D01*
X79952Y-41233D01*
X79880Y-41406D01*
X79880Y-41593D01*
X79951Y-41766D01*
X80083Y-41898D01*
X80256Y-41970D01*
X80443Y-41970D01*
X80616Y-41899D01*
X80748Y-41767D01*
X80820Y-41594D01*
X80820Y-41407D01*
X80749Y-41234D01*
X80710Y-41195D01*
X80990Y-41195D01*
X80952Y-41233D01*
X80880Y-41406D01*
X80880Y-41593D01*
X80951Y-41766D01*
X81083Y-41898D01*
X81256Y-41970D01*
X81443Y-41970D01*
X81616Y-41899D01*
X81748Y-41767D01*
X81820Y-41594D01*
X81820Y-41407D01*
X81749Y-41234D01*
X81710Y-41195D01*
X81990Y-41195D01*
X81952Y-41233D01*
X81880Y-41406D01*
X81880Y-41593D01*
X81951Y-41766D01*
X82083Y-41898D01*
X82256Y-41970D01*
X82443Y-41970D01*
X82616Y-41899D01*
X82748Y-41767D01*
X82820Y-41594D01*
X82820Y-41407D01*
X82749Y-41234D01*
X82710Y-41195D01*
X82990Y-41195D01*
X82952Y-41233D01*
X82880Y-41406D01*
X82880Y-41593D01*
X82951Y-41766D01*
X83083Y-41898D01*
X83256Y-41970D01*
X83443Y-41970D01*
X83616Y-41899D01*
X83748Y-41767D01*
X83820Y-41594D01*
X83820Y-41407D01*
X83749Y-41234D01*
X83710Y-41195D01*
X83990Y-41195D01*
X83952Y-41233D01*
X83880Y-41406D01*
X83880Y-41593D01*
X83951Y-41766D01*
X84083Y-41898D01*
X84256Y-41970D01*
X84443Y-41970D01*
X84616Y-41899D01*
X84748Y-41767D01*
X84820Y-41594D01*
X84820Y-41407D01*
X84749Y-41234D01*
X84710Y-41195D01*
X84990Y-41195D01*
X84952Y-41233D01*
X84880Y-41406D01*
X84880Y-41593D01*
X84951Y-41766D01*
X85083Y-41898D01*
X85256Y-41970D01*
X85443Y-41970D01*
X85616Y-41899D01*
X85748Y-41767D01*
X85820Y-41594D01*
X85820Y-41407D01*
X85749Y-41234D01*
X85710Y-41195D01*
X85990Y-41195D01*
X85952Y-41233D01*
X85880Y-41406D01*
X85880Y-41593D01*
X85951Y-41766D01*
X86083Y-41898D01*
X86256Y-41970D01*
X86443Y-41970D01*
X86616Y-41899D01*
X86748Y-41767D01*
X86820Y-41594D01*
X86820Y-41407D01*
X86749Y-41234D01*
X86710Y-41195D01*
X86990Y-41195D01*
X86952Y-41233D01*
X86880Y-41406D01*
X86880Y-41593D01*
X86951Y-41766D01*
X87083Y-41898D01*
X87256Y-41970D01*
X87443Y-41970D01*
X87616Y-41899D01*
X87748Y-41767D01*
X87820Y-41594D01*
X87820Y-41407D01*
X87749Y-41234D01*
X87710Y-41195D01*
X87990Y-41195D01*
X87952Y-41233D01*
X87880Y-41406D01*
X87880Y-41593D01*
X87951Y-41766D01*
X88083Y-41898D01*
X88256Y-41970D01*
X88443Y-41970D01*
X88616Y-41899D01*
X88748Y-41767D01*
X88820Y-41594D01*
X88820Y-41407D01*
X88749Y-41234D01*
X88710Y-41195D01*
X88990Y-41195D01*
X88952Y-41233D01*
X88880Y-41406D01*
X88880Y-41593D01*
X88951Y-41766D01*
X89083Y-41898D01*
X89256Y-41970D01*
X89443Y-41970D01*
X89616Y-41899D01*
X89748Y-41767D01*
X89820Y-41594D01*
X89820Y-41407D01*
X89749Y-41234D01*
X89710Y-41195D01*
X89990Y-41195D01*
X89952Y-41233D01*
X89880Y-41406D01*
X89880Y-41593D01*
X89951Y-41766D01*
X90083Y-41898D01*
X90256Y-41970D01*
X90443Y-41970D01*
X90616Y-41899D01*
X90748Y-41767D01*
X90820Y-41594D01*
X90820Y-41407D01*
X90749Y-41234D01*
X90710Y-41195D01*
X90990Y-41195D01*
X90952Y-41233D01*
X90880Y-41406D01*
X90880Y-41593D01*
X90951Y-41766D01*
X91083Y-41898D01*
X91256Y-41970D01*
X91443Y-41970D01*
X91616Y-41899D01*
X91748Y-41767D01*
X91820Y-41594D01*
X91820Y-41407D01*
X91749Y-41234D01*
X91710Y-41195D01*
X91990Y-41195D01*
X91952Y-41233D01*
X91880Y-41406D01*
X91880Y-41593D01*
X91951Y-41766D01*
X92083Y-41898D01*
X92256Y-41970D01*
X92443Y-41970D01*
X92616Y-41899D01*
X92748Y-41767D01*
X92820Y-41594D01*
X92820Y-41407D01*
X92749Y-41234D01*
X92710Y-41195D01*
X92990Y-41195D01*
X92952Y-41233D01*
X92880Y-41406D01*
X92880Y-41593D01*
X92951Y-41766D01*
X93083Y-41898D01*
X93256Y-41970D01*
X93443Y-41970D01*
X93616Y-41899D01*
X93748Y-41767D01*
X93820Y-41594D01*
X93820Y-41407D01*
X93749Y-41234D01*
X93710Y-41195D01*
X93990Y-41195D01*
X93952Y-41233D01*
X93880Y-41406D01*
X93880Y-41593D01*
X93951Y-41766D01*
X94083Y-41898D01*
X94256Y-41970D01*
X94443Y-41970D01*
X94616Y-41899D01*
X94748Y-41767D01*
X94820Y-41594D01*
X94820Y-41407D01*
X94749Y-41234D01*
X94710Y-41195D01*
X94990Y-41195D01*
X94952Y-41233D01*
X94880Y-41406D01*
X94880Y-41593D01*
X94951Y-41766D01*
X95083Y-41898D01*
X95256Y-41970D01*
X95443Y-41970D01*
X95616Y-41899D01*
X95748Y-41767D01*
X95820Y-41594D01*
X95820Y-41407D01*
X95749Y-41234D01*
X95710Y-41195D01*
X95990Y-41195D01*
X95952Y-41233D01*
X95880Y-41406D01*
X95880Y-41593D01*
X95951Y-41766D01*
X96083Y-41898D01*
X96256Y-41970D01*
X96443Y-41970D01*
X96616Y-41899D01*
X96748Y-41767D01*
X96820Y-41594D01*
X96820Y-41407D01*
X96749Y-41234D01*
X96710Y-41195D01*
X96990Y-41195D01*
X96952Y-41233D01*
X96880Y-41406D01*
X96880Y-41593D01*
X96951Y-41766D01*
X97083Y-41898D01*
X97256Y-41970D01*
X97443Y-41970D01*
X97616Y-41899D01*
X97748Y-41767D01*
X97820Y-41594D01*
X97820Y-41407D01*
X97749Y-41234D01*
X97710Y-41195D01*
X97990Y-41195D01*
X97952Y-41233D01*
X97880Y-41406D01*
X97880Y-41593D01*
X97951Y-41766D01*
X98083Y-41898D01*
X98256Y-41970D01*
X98443Y-41970D01*
X98616Y-41899D01*
X98748Y-41767D01*
X98820Y-41594D01*
X98820Y-41407D01*
X98749Y-41234D01*
X98710Y-41195D01*
X98990Y-41195D01*
X98952Y-41233D01*
X98880Y-41406D01*
X98880Y-41593D01*
X98951Y-41766D01*
X99083Y-41898D01*
X99256Y-41970D01*
X99443Y-41970D01*
X99616Y-41899D01*
X99748Y-41767D01*
X99820Y-41594D01*
X99820Y-41407D01*
X99749Y-41234D01*
X99710Y-41195D01*
X99990Y-41195D01*
X99952Y-41233D01*
X99880Y-41406D01*
X99880Y-41593D01*
X99951Y-41766D01*
X100083Y-41898D01*
X100256Y-41970D01*
X100443Y-41970D01*
X100616Y-41899D01*
X100748Y-41767D01*
X100820Y-41594D01*
X100820Y-41407D01*
X100749Y-41234D01*
X100710Y-41195D01*
X100990Y-41195D01*
X100952Y-41233D01*
X100880Y-41406D01*
X100880Y-41593D01*
X100951Y-41766D01*
X101083Y-41898D01*
X101256Y-41970D01*
X101443Y-41970D01*
X101616Y-41899D01*
X101748Y-41767D01*
X101816Y-41602D01*
X101818Y-41634D01*
X101878Y-41781D01*
X101972Y-41808D01*
X102244Y-41535D01*
X102279Y-41500D01*
X102350Y-41429D01*
X102421Y-41500D01*
X102456Y-41535D01*
X102728Y-41808D01*
X102822Y-41781D01*
X102893Y-41579D01*
X102882Y-41366D01*
X102822Y-41219D01*
X102783Y-41207D01*
X102796Y-41195D01*
X105455Y-41195D01*
X105455Y-58705D01*
X105455Y-58705D01*
G37*
G54D18*
X105455Y-58705D02*
X104691Y-58705D01*
X104691Y-57439D01*
X104691Y-57438D01*
X104691Y-57362D01*
X104691Y-57361D01*
X104691Y-42639D01*
X104691Y-42638D01*
X104691Y-42562D01*
X104691Y-42561D01*
X104653Y-42372D01*
X104653Y-42371D01*
X104624Y-42301D01*
X104624Y-42300D01*
X104622Y-42298D01*
X104517Y-42138D01*
X104463Y-42084D01*
X104461Y-42083D01*
X104299Y-41975D01*
X104228Y-41947D01*
X104038Y-41909D01*
X103962Y-41909D01*
X103961Y-41909D01*
X103771Y-41947D01*
X103700Y-41976D01*
X103698Y-41977D01*
X103538Y-42083D01*
X103484Y-42137D01*
X103483Y-42138D01*
X103483Y-42139D01*
X103375Y-42301D01*
X103347Y-42372D01*
X103309Y-42562D01*
X103309Y-42638D01*
X103347Y-42828D01*
X103375Y-42899D01*
X103483Y-43061D01*
X103484Y-43063D01*
X103538Y-43117D01*
X103698Y-43222D01*
X103700Y-43224D01*
X103701Y-43224D01*
X103771Y-43253D01*
X103772Y-43253D01*
X103961Y-43291D01*
X103962Y-43291D01*
X104038Y-43291D01*
X104228Y-43253D01*
X104299Y-43225D01*
X104299Y-43224D01*
X104461Y-43117D01*
X104461Y-43116D01*
X104463Y-43116D01*
X104515Y-43063D01*
X104517Y-43062D01*
X104622Y-42901D01*
X104624Y-42900D01*
X104624Y-42899D01*
X104653Y-42829D01*
X104653Y-42828D01*
X104691Y-42639D01*
X104691Y-57361D01*
X104653Y-57172D01*
X104653Y-57171D01*
X104624Y-57101D01*
X104624Y-57100D01*
X104622Y-57098D01*
X104517Y-56938D01*
X104463Y-56884D01*
X104461Y-56883D01*
X104299Y-56775D01*
X104228Y-56747D01*
X104038Y-56709D01*
X103962Y-56709D01*
X103961Y-56709D01*
X103771Y-56747D01*
X103700Y-56776D01*
X103698Y-56777D01*
X103538Y-56883D01*
X103484Y-56937D01*
X103483Y-56938D01*
X103483Y-56939D01*
X103375Y-57101D01*
X103347Y-57172D01*
X103309Y-57362D01*
X103309Y-57438D01*
X103347Y-57628D01*
X103375Y-57699D01*
X103483Y-57861D01*
X103484Y-57863D01*
X103538Y-57917D01*
X103698Y-58022D01*
X103700Y-58024D01*
X103701Y-58024D01*
X103771Y-58053D01*
X103772Y-58053D01*
X103961Y-58091D01*
X103962Y-58091D01*
X104038Y-58091D01*
X104228Y-58053D01*
X104299Y-58025D01*
X104299Y-58024D01*
X104461Y-57917D01*
X104461Y-57916D01*
X104463Y-57916D01*
X104515Y-57863D01*
X104517Y-57862D01*
X104622Y-57701D01*
X104624Y-57700D01*
X104624Y-57699D01*
X104653Y-57629D01*
X104653Y-57628D01*
X104691Y-57439D01*
X104691Y-58705D01*
X102970Y-58705D01*
X102970Y-54544D01*
X102970Y-54357D01*
X102970Y-53544D01*
X102970Y-53357D01*
X102970Y-52544D01*
X102970Y-52357D01*
X102970Y-51544D01*
X102970Y-51357D01*
X102970Y-50544D01*
X102970Y-50357D01*
X102970Y-49544D01*
X102970Y-49357D01*
X102970Y-48544D01*
X102970Y-48357D01*
X102970Y-47544D01*
X102970Y-47357D01*
X102970Y-46544D01*
X102970Y-46357D01*
X102970Y-45544D01*
X102970Y-45357D01*
X102899Y-45184D01*
X102820Y-45105D01*
X102820Y-42594D01*
X102820Y-42407D01*
X102749Y-42234D01*
X102617Y-42102D01*
X102452Y-42033D01*
X102484Y-42032D01*
X102631Y-41972D01*
X102658Y-41878D01*
X102350Y-41571D01*
X102042Y-41878D01*
X102069Y-41972D01*
X102246Y-42034D01*
X102084Y-42101D01*
X101952Y-42233D01*
X101880Y-42406D01*
X101880Y-42593D01*
X101951Y-42766D01*
X102083Y-42898D01*
X102256Y-42970D01*
X102443Y-42970D01*
X102616Y-42899D01*
X102748Y-42767D01*
X102820Y-42594D01*
X102820Y-45105D01*
X102767Y-45052D01*
X102594Y-44980D01*
X102407Y-44980D01*
X102234Y-45051D01*
X102194Y-45091D01*
X102194Y-44659D01*
X102194Y-44542D01*
X102149Y-44434D01*
X102067Y-44351D01*
X101959Y-44306D01*
X101842Y-44306D01*
X101820Y-44315D01*
X101820Y-42594D01*
X101820Y-42407D01*
X101749Y-42234D01*
X101617Y-42102D01*
X101444Y-42030D01*
X101257Y-42030D01*
X101084Y-42101D01*
X100952Y-42233D01*
X100880Y-42406D01*
X100880Y-42593D01*
X100951Y-42766D01*
X101083Y-42898D01*
X101256Y-42970D01*
X101443Y-42970D01*
X101616Y-42899D01*
X101748Y-42767D01*
X101820Y-42594D01*
X101820Y-44315D01*
X101734Y-44351D01*
X101651Y-44433D01*
X101606Y-44541D01*
X101606Y-44597D01*
X101551Y-44652D01*
X101494Y-44652D01*
X101494Y-44542D01*
X101449Y-44434D01*
X101367Y-44351D01*
X101259Y-44306D01*
X101142Y-44306D01*
X101034Y-44351D01*
X100951Y-44433D01*
X100927Y-44490D01*
X100820Y-44490D01*
X100820Y-42594D01*
X100820Y-42407D01*
X100749Y-42234D01*
X100617Y-42102D01*
X100444Y-42030D01*
X100257Y-42030D01*
X100084Y-42101D01*
X99952Y-42233D01*
X99880Y-42406D01*
X99880Y-42593D01*
X99951Y-42766D01*
X100083Y-42898D01*
X100256Y-42970D01*
X100443Y-42970D01*
X100616Y-42899D01*
X100748Y-42767D01*
X100820Y-42594D01*
X100820Y-44490D01*
X99820Y-44490D01*
X99820Y-42594D01*
X99820Y-42407D01*
X99749Y-42234D01*
X99617Y-42102D01*
X99444Y-42030D01*
X99257Y-42030D01*
X99084Y-42101D01*
X98952Y-42233D01*
X98880Y-42406D01*
X98880Y-42593D01*
X98951Y-42766D01*
X99083Y-42898D01*
X99206Y-42949D01*
X99206Y-43058D01*
X99251Y-43166D01*
X99333Y-43249D01*
X99441Y-43294D01*
X99558Y-43294D01*
X99666Y-43249D01*
X99749Y-43167D01*
X99794Y-43059D01*
X99794Y-42942D01*
X99749Y-42834D01*
X99715Y-42799D01*
X99748Y-42767D01*
X99820Y-42594D01*
X99820Y-44490D01*
X99510Y-44490D01*
X99544Y-44409D01*
X99544Y-44292D01*
X99499Y-44184D01*
X99491Y-44175D01*
X99491Y-43639D01*
X99491Y-43638D01*
X99491Y-43562D01*
X99491Y-43561D01*
X99490Y-43560D01*
X99476Y-43486D01*
X99475Y-43483D01*
X99475Y-43482D01*
X99461Y-43450D01*
X99447Y-43415D01*
X99445Y-43413D01*
X99445Y-43412D01*
X99404Y-43353D01*
X99402Y-43349D01*
X99367Y-43315D01*
X99351Y-43298D01*
X99347Y-43295D01*
X99346Y-43294D01*
X99287Y-43254D01*
X99285Y-43253D01*
X99261Y-43243D01*
X99217Y-43224D01*
X99216Y-43223D01*
X99214Y-43223D01*
X99140Y-43209D01*
X99139Y-43209D01*
X99137Y-43209D01*
X99062Y-43209D01*
X99061Y-43209D01*
X99060Y-43209D01*
X98986Y-43224D01*
X98983Y-43224D01*
X98982Y-43225D01*
X98950Y-43238D01*
X98915Y-43253D01*
X98913Y-43254D01*
X98912Y-43255D01*
X98849Y-43298D01*
X98820Y-43327D01*
X98820Y-42594D01*
X98820Y-42407D01*
X98749Y-42234D01*
X98617Y-42102D01*
X98444Y-42030D01*
X98257Y-42030D01*
X98084Y-42101D01*
X97952Y-42233D01*
X97880Y-42406D01*
X97880Y-42593D01*
X97951Y-42766D01*
X98083Y-42898D01*
X98256Y-42970D01*
X98443Y-42970D01*
X98616Y-42899D01*
X98748Y-42767D01*
X98820Y-42594D01*
X98820Y-43327D01*
X98815Y-43332D01*
X98798Y-43349D01*
X98795Y-43352D01*
X98795Y-43353D01*
X98794Y-43353D01*
X98754Y-43413D01*
X98753Y-43414D01*
X98753Y-43415D01*
X98743Y-43438D01*
X98724Y-43483D01*
X98723Y-43483D01*
X98723Y-43486D01*
X98709Y-43559D01*
X98709Y-43561D01*
X98709Y-43563D01*
X98709Y-43637D01*
X98709Y-43639D01*
X98709Y-43640D01*
X98723Y-43714D01*
X98723Y-43716D01*
X98724Y-43717D01*
X98743Y-43761D01*
X98753Y-43785D01*
X98754Y-43787D01*
X98794Y-43846D01*
X98795Y-43847D01*
X98798Y-43851D01*
X98815Y-43867D01*
X98849Y-43902D01*
X98853Y-43904D01*
X98912Y-43945D01*
X98913Y-43945D01*
X98915Y-43947D01*
X98950Y-43961D01*
X98982Y-43975D01*
X98983Y-43975D01*
X98986Y-43976D01*
X99060Y-43990D01*
X99061Y-43991D01*
X99062Y-43991D01*
X99137Y-43991D01*
X99139Y-43991D01*
X99140Y-43990D01*
X99214Y-43977D01*
X99216Y-43976D01*
X99217Y-43976D01*
X99261Y-43957D01*
X99285Y-43947D01*
X99285Y-43946D01*
X99287Y-43946D01*
X99346Y-43905D01*
X99347Y-43905D01*
X99347Y-43904D01*
X99351Y-43902D01*
X99367Y-43884D01*
X99402Y-43851D01*
X99404Y-43847D01*
X99445Y-43788D01*
X99445Y-43786D01*
X99447Y-43785D01*
X99461Y-43749D01*
X99475Y-43718D01*
X99475Y-43716D01*
X99476Y-43714D01*
X99490Y-43639D01*
X99491Y-43639D01*
X99491Y-44175D01*
X99417Y-44101D01*
X99309Y-44056D01*
X99192Y-44056D01*
X99110Y-44090D01*
X98836Y-44090D01*
X98686Y-43940D01*
X98619Y-43894D01*
X98605Y-43891D01*
X98538Y-43878D01*
X97820Y-43878D01*
X97820Y-42594D01*
X97820Y-42407D01*
X97749Y-42234D01*
X97617Y-42102D01*
X97444Y-42030D01*
X97257Y-42030D01*
X97084Y-42101D01*
X96952Y-42233D01*
X96880Y-42406D01*
X96880Y-42593D01*
X96951Y-42766D01*
X97083Y-42898D01*
X97256Y-42970D01*
X97443Y-42970D01*
X97616Y-42899D01*
X97748Y-42767D01*
X97820Y-42594D01*
X97820Y-43878D01*
X97024Y-43878D01*
X96924Y-43778D01*
X96857Y-43732D01*
X96843Y-43729D01*
X96820Y-43724D01*
X96820Y-42594D01*
X96820Y-42407D01*
X96749Y-42234D01*
X96617Y-42102D01*
X96444Y-42030D01*
X96257Y-42030D01*
X96084Y-42101D01*
X95952Y-42233D01*
X95880Y-42406D01*
X95880Y-42593D01*
X95951Y-42766D01*
X96083Y-42898D01*
X96256Y-42970D01*
X96443Y-42970D01*
X96616Y-42899D01*
X96748Y-42767D01*
X96820Y-42594D01*
X96820Y-43724D01*
X96776Y-43716D01*
X95820Y-43716D01*
X95820Y-42594D01*
X95820Y-42407D01*
X95749Y-42234D01*
X95617Y-42102D01*
X95444Y-42030D01*
X95257Y-42030D01*
X95084Y-42101D01*
X94952Y-42233D01*
X94880Y-42406D01*
X94880Y-42593D01*
X94951Y-42766D01*
X95083Y-42898D01*
X95256Y-42970D01*
X95443Y-42970D01*
X95616Y-42899D01*
X95748Y-42767D01*
X95820Y-42594D01*
X95820Y-43716D01*
X94820Y-43716D01*
X94820Y-42594D01*
X94820Y-42407D01*
X94749Y-42234D01*
X94617Y-42102D01*
X94444Y-42030D01*
X94257Y-42030D01*
X94084Y-42101D01*
X93952Y-42233D01*
X93880Y-42406D01*
X93880Y-42593D01*
X93951Y-42766D01*
X94083Y-42898D01*
X94256Y-42970D01*
X94443Y-42970D01*
X94616Y-42899D01*
X94748Y-42767D01*
X94820Y-42594D01*
X94820Y-43716D01*
X93820Y-43716D01*
X93820Y-42594D01*
X93820Y-42407D01*
X93749Y-42234D01*
X93617Y-42102D01*
X93444Y-42030D01*
X93257Y-42030D01*
X93084Y-42101D01*
X92952Y-42233D01*
X92880Y-42406D01*
X92880Y-42593D01*
X92951Y-42766D01*
X93083Y-42898D01*
X93256Y-42970D01*
X93443Y-42970D01*
X93616Y-42899D01*
X93748Y-42767D01*
X93820Y-42594D01*
X93820Y-43716D01*
X92820Y-43716D01*
X92820Y-42594D01*
X92820Y-42407D01*
X92749Y-42234D01*
X92617Y-42102D01*
X92444Y-42030D01*
X92257Y-42030D01*
X92084Y-42101D01*
X91952Y-42233D01*
X91880Y-42406D01*
X91880Y-42593D01*
X91951Y-42766D01*
X92083Y-42898D01*
X92256Y-42970D01*
X92443Y-42970D01*
X92616Y-42899D01*
X92748Y-42767D01*
X92820Y-42594D01*
X92820Y-43716D01*
X91820Y-43716D01*
X91820Y-42594D01*
X91820Y-42407D01*
X91749Y-42234D01*
X91617Y-42102D01*
X91444Y-42030D01*
X91257Y-42030D01*
X91084Y-42101D01*
X90952Y-42233D01*
X90880Y-42406D01*
X90880Y-42593D01*
X90951Y-42766D01*
X91083Y-42898D01*
X91256Y-42970D01*
X91443Y-42970D01*
X91616Y-42899D01*
X91748Y-42767D01*
X91820Y-42594D01*
X91820Y-43716D01*
X90820Y-43716D01*
X90820Y-42594D01*
X90820Y-42407D01*
X90749Y-42234D01*
X90617Y-42102D01*
X90444Y-42030D01*
X90257Y-42030D01*
X90084Y-42101D01*
X89952Y-42233D01*
X89880Y-42406D01*
X89880Y-42593D01*
X89951Y-42766D01*
X90083Y-42898D01*
X90256Y-42970D01*
X90443Y-42970D01*
X90616Y-42899D01*
X90748Y-42767D01*
X90820Y-42594D01*
X90820Y-43716D01*
X89820Y-43716D01*
X89820Y-42594D01*
X89820Y-42407D01*
X89749Y-42234D01*
X89617Y-42102D01*
X89444Y-42030D01*
X89257Y-42030D01*
X89084Y-42101D01*
X88952Y-42233D01*
X88880Y-42406D01*
X88880Y-42593D01*
X88951Y-42766D01*
X89083Y-42898D01*
X89256Y-42970D01*
X89443Y-42970D01*
X89616Y-42899D01*
X89748Y-42767D01*
X89820Y-42594D01*
X89820Y-43716D01*
X89199Y-43716D01*
X89244Y-43609D01*
X89244Y-43492D01*
X89199Y-43384D01*
X89117Y-43301D01*
X89009Y-43256D01*
X88892Y-43256D01*
X88820Y-43286D01*
X88820Y-42594D01*
X88820Y-42407D01*
X88749Y-42234D01*
X88617Y-42102D01*
X88444Y-42030D01*
X88257Y-42030D01*
X88084Y-42101D01*
X87952Y-42233D01*
X87880Y-42406D01*
X87880Y-42593D01*
X87951Y-42766D01*
X88083Y-42898D01*
X88256Y-42970D01*
X88443Y-42970D01*
X88616Y-42899D01*
X88748Y-42767D01*
X88820Y-42594D01*
X88820Y-43286D01*
X88784Y-43301D01*
X88744Y-43340D01*
X88600Y-43340D01*
X88520Y-43356D01*
X88497Y-43371D01*
X88451Y-43402D01*
X87975Y-43878D01*
X87820Y-43878D01*
X87820Y-42594D01*
X87820Y-42407D01*
X87749Y-42234D01*
X87617Y-42102D01*
X87444Y-42030D01*
X87257Y-42030D01*
X87084Y-42101D01*
X86952Y-42233D01*
X86880Y-42406D01*
X86880Y-42593D01*
X86951Y-42766D01*
X87083Y-42898D01*
X87256Y-42970D01*
X87443Y-42970D01*
X87616Y-42899D01*
X87748Y-42767D01*
X87820Y-42594D01*
X87820Y-43878D01*
X86820Y-43878D01*
X86820Y-42594D01*
X86820Y-42407D01*
X86749Y-42234D01*
X86617Y-42102D01*
X86444Y-42030D01*
X86257Y-42030D01*
X86084Y-42101D01*
X85952Y-42233D01*
X85880Y-42406D01*
X85880Y-42593D01*
X85951Y-42766D01*
X86083Y-42898D01*
X86256Y-42970D01*
X86443Y-42970D01*
X86616Y-42899D01*
X86748Y-42767D01*
X86820Y-42594D01*
X86820Y-43878D01*
X85820Y-43878D01*
X85820Y-42594D01*
X85820Y-42407D01*
X85749Y-42234D01*
X85617Y-42102D01*
X85444Y-42030D01*
X85257Y-42030D01*
X85084Y-42101D01*
X84952Y-42233D01*
X84880Y-42406D01*
X84880Y-42593D01*
X84951Y-42766D01*
X85083Y-42898D01*
X85256Y-42970D01*
X85443Y-42970D01*
X85616Y-42899D01*
X85748Y-42767D01*
X85820Y-42594D01*
X85820Y-43878D01*
X85217Y-43878D01*
X85199Y-43834D01*
X85117Y-43751D01*
X85009Y-43706D01*
X84892Y-43706D01*
X84820Y-43736D01*
X84820Y-42594D01*
X84820Y-42407D01*
X84749Y-42234D01*
X84617Y-42102D01*
X84444Y-42030D01*
X84257Y-42030D01*
X84084Y-42101D01*
X83952Y-42233D01*
X83880Y-42406D01*
X83880Y-42593D01*
X83951Y-42766D01*
X84083Y-42898D01*
X84256Y-42970D01*
X84443Y-42970D01*
X84616Y-42899D01*
X84748Y-42767D01*
X84820Y-42594D01*
X84820Y-43736D01*
X84784Y-43751D01*
X84701Y-43833D01*
X84656Y-43941D01*
X84656Y-44058D01*
X84701Y-44166D01*
X84783Y-44249D01*
X84891Y-44294D01*
X85008Y-44294D01*
X85011Y-44292D01*
X85012Y-44292D01*
X85038Y-44298D01*
X85205Y-44298D01*
X84963Y-44540D01*
X84644Y-44540D01*
X84644Y-44442D01*
X84599Y-44334D01*
X84517Y-44251D01*
X84409Y-44206D01*
X84292Y-44206D01*
X84184Y-44251D01*
X84175Y-44259D01*
X84167Y-44251D01*
X84059Y-44206D01*
X83942Y-44206D01*
X83834Y-44251D01*
X83825Y-44259D01*
X83820Y-44254D01*
X83820Y-42594D01*
X83820Y-42407D01*
X83749Y-42234D01*
X83617Y-42102D01*
X83444Y-42030D01*
X83257Y-42030D01*
X83084Y-42101D01*
X82952Y-42233D01*
X82880Y-42406D01*
X82880Y-42593D01*
X82951Y-42766D01*
X83083Y-42898D01*
X83256Y-42970D01*
X83443Y-42970D01*
X83616Y-42899D01*
X83748Y-42767D01*
X83820Y-42594D01*
X83820Y-44254D01*
X83817Y-44251D01*
X83709Y-44206D01*
X83592Y-44206D01*
X83484Y-44251D01*
X83475Y-44259D01*
X83467Y-44251D01*
X83359Y-44206D01*
X83242Y-44206D01*
X83134Y-44251D01*
X83100Y-44284D01*
X83067Y-44251D01*
X82959Y-44206D01*
X82842Y-44206D01*
X82820Y-44215D01*
X82820Y-42594D01*
X82820Y-42407D01*
X82749Y-42234D01*
X82617Y-42102D01*
X82444Y-42030D01*
X82257Y-42030D01*
X82084Y-42101D01*
X81952Y-42233D01*
X81880Y-42406D01*
X81880Y-42593D01*
X81951Y-42766D01*
X82083Y-42898D01*
X82256Y-42970D01*
X82443Y-42970D01*
X82616Y-42899D01*
X82748Y-42767D01*
X82820Y-42594D01*
X82820Y-44215D01*
X82734Y-44251D01*
X82725Y-44259D01*
X82717Y-44251D01*
X82609Y-44206D01*
X82492Y-44206D01*
X82384Y-44251D01*
X82375Y-44259D01*
X82367Y-44251D01*
X82259Y-44206D01*
X82142Y-44206D01*
X82034Y-44251D01*
X82025Y-44259D01*
X82017Y-44251D01*
X81909Y-44206D01*
X81820Y-44206D01*
X81820Y-42594D01*
X81820Y-42407D01*
X81749Y-42234D01*
X81617Y-42102D01*
X81444Y-42030D01*
X81257Y-42030D01*
X81084Y-42101D01*
X80952Y-42233D01*
X80880Y-42406D01*
X80880Y-42593D01*
X80951Y-42766D01*
X81083Y-42898D01*
X81256Y-42970D01*
X81443Y-42970D01*
X81616Y-42899D01*
X81748Y-42767D01*
X81820Y-42594D01*
X81820Y-44206D01*
X81792Y-44206D01*
X81684Y-44251D01*
X81650Y-44284D01*
X81617Y-44251D01*
X81509Y-44206D01*
X81392Y-44206D01*
X81284Y-44251D01*
X81275Y-44259D01*
X81267Y-44251D01*
X81159Y-44206D01*
X81042Y-44206D01*
X80934Y-44251D01*
X80925Y-44259D01*
X80917Y-44251D01*
X80820Y-44210D01*
X80820Y-42594D01*
X80820Y-42407D01*
X80749Y-42234D01*
X80617Y-42102D01*
X80444Y-42030D01*
X80257Y-42030D01*
X80084Y-42101D01*
X79952Y-42233D01*
X79880Y-42406D01*
X79880Y-42593D01*
X79951Y-42766D01*
X80083Y-42898D01*
X80256Y-42970D01*
X80443Y-42970D01*
X80616Y-42899D01*
X80748Y-42767D01*
X80820Y-42594D01*
X80820Y-44210D01*
X80809Y-44206D01*
X80692Y-44206D01*
X80584Y-44251D01*
X80575Y-44259D01*
X80567Y-44251D01*
X80459Y-44206D01*
X80342Y-44206D01*
X80291Y-44227D01*
X80291Y-43639D01*
X80291Y-43638D01*
X80291Y-43562D01*
X80291Y-43561D01*
X80290Y-43560D01*
X80276Y-43486D01*
X80275Y-43483D01*
X80275Y-43482D01*
X80261Y-43450D01*
X80247Y-43415D01*
X80245Y-43413D01*
X80245Y-43412D01*
X80204Y-43353D01*
X80202Y-43349D01*
X80167Y-43315D01*
X80151Y-43298D01*
X80147Y-43295D01*
X80146Y-43294D01*
X80087Y-43254D01*
X80085Y-43253D01*
X80061Y-43243D01*
X80017Y-43224D01*
X80016Y-43223D01*
X80014Y-43223D01*
X79940Y-43209D01*
X79939Y-43209D01*
X79937Y-43209D01*
X79862Y-43209D01*
X79861Y-43209D01*
X79860Y-43209D01*
X79820Y-43217D01*
X79820Y-42594D01*
X79820Y-42407D01*
X79749Y-42234D01*
X79617Y-42102D01*
X79444Y-42030D01*
X79257Y-42030D01*
X79084Y-42101D01*
X78952Y-42233D01*
X78880Y-42406D01*
X78880Y-42593D01*
X78951Y-42766D01*
X79083Y-42898D01*
X79256Y-42970D01*
X79443Y-42970D01*
X79616Y-42899D01*
X79748Y-42767D01*
X79820Y-42594D01*
X79820Y-43217D01*
X79786Y-43224D01*
X79783Y-43224D01*
X79782Y-43225D01*
X79750Y-43238D01*
X79715Y-43253D01*
X79713Y-43254D01*
X79712Y-43255D01*
X79649Y-43298D01*
X79615Y-43332D01*
X79598Y-43349D01*
X79595Y-43352D01*
X79595Y-43353D01*
X79594Y-43353D01*
X79554Y-43413D01*
X79553Y-43414D01*
X79553Y-43415D01*
X79543Y-43438D01*
X79524Y-43483D01*
X79523Y-43483D01*
X79523Y-43486D01*
X79509Y-43559D01*
X79509Y-43561D01*
X79509Y-43563D01*
X79509Y-43637D01*
X79509Y-43639D01*
X79509Y-43640D01*
X79523Y-43714D01*
X79523Y-43716D01*
X79524Y-43717D01*
X79543Y-43761D01*
X79553Y-43785D01*
X79554Y-43787D01*
X79594Y-43846D01*
X79595Y-43847D01*
X79598Y-43851D01*
X79615Y-43867D01*
X79649Y-43902D01*
X79653Y-43904D01*
X79712Y-43945D01*
X79713Y-43945D01*
X79715Y-43947D01*
X79750Y-43961D01*
X79782Y-43975D01*
X79783Y-43975D01*
X79786Y-43976D01*
X79860Y-43990D01*
X79861Y-43991D01*
X79862Y-43991D01*
X79937Y-43991D01*
X79939Y-43991D01*
X79940Y-43990D01*
X80014Y-43977D01*
X80016Y-43976D01*
X80017Y-43976D01*
X80061Y-43957D01*
X80085Y-43947D01*
X80085Y-43946D01*
X80087Y-43946D01*
X80146Y-43905D01*
X80147Y-43905D01*
X80147Y-43904D01*
X80151Y-43902D01*
X80167Y-43884D01*
X80202Y-43851D01*
X80204Y-43847D01*
X80245Y-43788D01*
X80245Y-43786D01*
X80247Y-43785D01*
X80261Y-43749D01*
X80275Y-43718D01*
X80275Y-43716D01*
X80276Y-43714D01*
X80290Y-43639D01*
X80291Y-43639D01*
X80291Y-44227D01*
X80234Y-44251D01*
X80151Y-44333D01*
X80106Y-44441D01*
X80106Y-44558D01*
X80151Y-44666D01*
X80233Y-44749D01*
X80341Y-44794D01*
X80458Y-44794D01*
X80566Y-44749D01*
X80574Y-44740D01*
X80583Y-44749D01*
X80691Y-44794D01*
X80808Y-44794D01*
X80916Y-44749D01*
X80924Y-44740D01*
X80933Y-44749D01*
X81041Y-44794D01*
X81158Y-44794D01*
X81266Y-44749D01*
X81274Y-44740D01*
X81283Y-44749D01*
X81391Y-44794D01*
X81508Y-44794D01*
X81616Y-44749D01*
X81649Y-44715D01*
X81683Y-44749D01*
X81791Y-44794D01*
X81908Y-44794D01*
X82016Y-44749D01*
X82024Y-44740D01*
X82033Y-44749D01*
X82141Y-44794D01*
X82258Y-44794D01*
X79694Y-47358D01*
X79694Y-44559D01*
X79694Y-44442D01*
X79649Y-44334D01*
X79567Y-44251D01*
X79459Y-44206D01*
X79342Y-44206D01*
X79234Y-44251D01*
X79225Y-44259D01*
X79217Y-44251D01*
X79109Y-44206D01*
X78992Y-44206D01*
X78884Y-44251D01*
X78875Y-44259D01*
X78867Y-44251D01*
X78820Y-44231D01*
X78820Y-42594D01*
X78820Y-42407D01*
X78749Y-42234D01*
X78617Y-42102D01*
X78444Y-42030D01*
X78257Y-42030D01*
X78084Y-42101D01*
X77952Y-42233D01*
X77880Y-42406D01*
X77880Y-42593D01*
X77951Y-42766D01*
X78083Y-42898D01*
X78256Y-42970D01*
X78443Y-42970D01*
X78616Y-42899D01*
X78748Y-42767D01*
X78820Y-42594D01*
X78820Y-44231D01*
X78759Y-44206D01*
X78642Y-44206D01*
X78534Y-44251D01*
X78525Y-44259D01*
X78517Y-44251D01*
X78409Y-44206D01*
X78292Y-44206D01*
X78184Y-44251D01*
X78101Y-44333D01*
X78070Y-44407D01*
X78070Y-43794D01*
X78070Y-43607D01*
X77999Y-43434D01*
X77867Y-43302D01*
X77820Y-43282D01*
X77820Y-42834D01*
X77820Y-42766D01*
X77820Y-42166D01*
X77794Y-42104D01*
X77746Y-42056D01*
X77684Y-42030D01*
X77616Y-42030D01*
X77016Y-42030D01*
X76954Y-42056D01*
X76906Y-42104D01*
X76880Y-42166D01*
X76880Y-42234D01*
X76880Y-42834D01*
X76906Y-42896D01*
X76954Y-42944D01*
X77016Y-42970D01*
X77084Y-42970D01*
X77684Y-42970D01*
X77746Y-42944D01*
X77794Y-42896D01*
X77820Y-42834D01*
X77820Y-43282D01*
X77694Y-43230D01*
X77507Y-43230D01*
X77334Y-43301D01*
X77202Y-43433D01*
X77130Y-43606D01*
X77130Y-43793D01*
X77201Y-43966D01*
X77333Y-44098D01*
X77506Y-44170D01*
X77693Y-44170D01*
X77866Y-44099D01*
X77998Y-43967D01*
X78070Y-43794D01*
X78070Y-44407D01*
X78056Y-44441D01*
X78056Y-44558D01*
X78101Y-44666D01*
X78183Y-44749D01*
X78291Y-44794D01*
X78408Y-44794D01*
X78516Y-44749D01*
X78524Y-44740D01*
X78533Y-44749D01*
X78641Y-44794D01*
X78758Y-44794D01*
X78866Y-44749D01*
X78874Y-44740D01*
X78883Y-44749D01*
X78991Y-44794D01*
X79108Y-44794D01*
X79216Y-44749D01*
X79224Y-44740D01*
X79233Y-44749D01*
X79341Y-44794D01*
X79458Y-44794D01*
X79566Y-44749D01*
X79649Y-44667D01*
X79694Y-44559D01*
X79694Y-47358D01*
X78997Y-48056D01*
X78942Y-48056D01*
X78834Y-48101D01*
X78751Y-48183D01*
X78706Y-48291D01*
X78706Y-48408D01*
X78751Y-48516D01*
X78819Y-48584D01*
X78763Y-48640D01*
X78355Y-48640D01*
X78317Y-48601D01*
X78209Y-48556D01*
X78143Y-48556D01*
X78143Y-45779D01*
X78132Y-45566D01*
X78072Y-45419D01*
X78070Y-45418D01*
X78070Y-44794D01*
X78070Y-44607D01*
X77999Y-44434D01*
X77867Y-44302D01*
X77694Y-44230D01*
X77507Y-44230D01*
X77334Y-44301D01*
X77202Y-44433D01*
X77130Y-44606D01*
X77130Y-44793D01*
X77201Y-44966D01*
X77333Y-45098D01*
X77497Y-45166D01*
X77466Y-45168D01*
X77319Y-45228D01*
X77292Y-45322D01*
X77600Y-45629D01*
X77908Y-45322D01*
X77881Y-45228D01*
X77703Y-45165D01*
X77866Y-45099D01*
X77998Y-44967D01*
X78070Y-44794D01*
X78070Y-45418D01*
X77978Y-45392D01*
X77671Y-45700D01*
X77978Y-46008D01*
X78072Y-45981D01*
X78143Y-45779D01*
X78143Y-48556D01*
X78092Y-48556D01*
X78070Y-48565D01*
X78070Y-48034D01*
X78070Y-47966D01*
X78070Y-47366D01*
X78070Y-46794D01*
X78070Y-46607D01*
X77999Y-46434D01*
X77867Y-46302D01*
X77702Y-46233D01*
X77734Y-46232D01*
X77881Y-46172D01*
X77908Y-46078D01*
X77600Y-45771D01*
X77529Y-45841D01*
X77529Y-45700D01*
X77222Y-45392D01*
X77128Y-45419D01*
X77094Y-45515D01*
X77094Y-44509D01*
X77094Y-44392D01*
X77049Y-44284D01*
X76967Y-44201D01*
X76859Y-44156D01*
X76742Y-44156D01*
X76634Y-44201D01*
X76551Y-44283D01*
X76506Y-44391D01*
X76506Y-44508D01*
X76551Y-44616D01*
X76633Y-44699D01*
X76741Y-44744D01*
X76858Y-44744D01*
X76966Y-44699D01*
X77049Y-44617D01*
X77094Y-44509D01*
X77094Y-45515D01*
X77057Y-45621D01*
X77068Y-45834D01*
X77128Y-45981D01*
X77222Y-46008D01*
X77529Y-45700D01*
X77529Y-45841D01*
X77292Y-46078D01*
X77319Y-46172D01*
X77496Y-46234D01*
X77334Y-46301D01*
X77202Y-46433D01*
X77130Y-46606D01*
X77130Y-46793D01*
X77201Y-46966D01*
X77333Y-47098D01*
X77506Y-47170D01*
X77693Y-47170D01*
X77866Y-47099D01*
X77998Y-46967D01*
X78070Y-46794D01*
X78070Y-47366D01*
X78044Y-47304D01*
X77996Y-47256D01*
X77934Y-47230D01*
X77866Y-47230D01*
X77266Y-47230D01*
X77204Y-47256D01*
X77156Y-47304D01*
X77130Y-47366D01*
X77130Y-47434D01*
X77130Y-48034D01*
X77156Y-48096D01*
X77204Y-48144D01*
X77266Y-48170D01*
X77334Y-48170D01*
X77934Y-48170D01*
X77996Y-48144D01*
X78044Y-48096D01*
X78070Y-48034D01*
X78070Y-48565D01*
X77984Y-48601D01*
X77901Y-48683D01*
X77856Y-48791D01*
X77856Y-48908D01*
X77901Y-49016D01*
X77983Y-49099D01*
X78091Y-49144D01*
X78208Y-49144D01*
X78316Y-49099D01*
X78355Y-49060D01*
X78850Y-49060D01*
X78850Y-49059D01*
X78917Y-49046D01*
X78930Y-49044D01*
X78931Y-49044D01*
X78998Y-48998D01*
X79015Y-48980D01*
X79041Y-49006D01*
X79006Y-49091D01*
X79006Y-49208D01*
X79051Y-49316D01*
X79059Y-49324D01*
X79051Y-49333D01*
X79006Y-49441D01*
X79006Y-49558D01*
X79051Y-49666D01*
X79133Y-49749D01*
X79241Y-49794D01*
X79358Y-49794D01*
X79466Y-49749D01*
X79549Y-49667D01*
X79594Y-49559D01*
X79594Y-49502D01*
X80190Y-48906D01*
X80190Y-49050D01*
X80203Y-49117D01*
X80206Y-49131D01*
X80252Y-49198D01*
X80356Y-49302D01*
X80356Y-49358D01*
X80401Y-49466D01*
X80483Y-49549D01*
X80591Y-49594D01*
X80708Y-49594D01*
X80816Y-49549D01*
X80899Y-49467D01*
X80944Y-49359D01*
X80944Y-49242D01*
X80899Y-49134D01*
X80890Y-49125D01*
X80899Y-49117D01*
X80944Y-49009D01*
X80944Y-48892D01*
X80899Y-48784D01*
X80880Y-48765D01*
X82240Y-47406D01*
X82240Y-47989D01*
X82159Y-47956D01*
X82042Y-47956D01*
X81934Y-48001D01*
X81851Y-48083D01*
X81806Y-48191D01*
X81806Y-48308D01*
X81851Y-48416D01*
X81933Y-48499D01*
X82041Y-48544D01*
X82158Y-48544D01*
X82266Y-48499D01*
X82299Y-48465D01*
X82333Y-48499D01*
X82441Y-48544D01*
X82558Y-48544D01*
X82666Y-48499D01*
X82699Y-48465D01*
X82733Y-48499D01*
X82841Y-48544D01*
X82958Y-48544D01*
X83066Y-48499D01*
X83149Y-48417D01*
X83194Y-48309D01*
X83194Y-48192D01*
X83149Y-48084D01*
X83067Y-48001D01*
X82959Y-47956D01*
X82842Y-47956D01*
X82734Y-48001D01*
X82700Y-48034D01*
X82667Y-48001D01*
X82660Y-47998D01*
X82660Y-47594D01*
X82758Y-47594D01*
X82866Y-47549D01*
X82949Y-47467D01*
X82994Y-47359D01*
X82994Y-47242D01*
X82967Y-47178D01*
X83890Y-46256D01*
X84497Y-46256D01*
X83702Y-47052D01*
X83656Y-47119D01*
X83653Y-47132D01*
X83640Y-47200D01*
X83640Y-47400D01*
X83653Y-47467D01*
X83656Y-47481D01*
X83702Y-47548D01*
X83851Y-47698D01*
X83852Y-47698D01*
X83919Y-47744D01*
X83920Y-47744D01*
X83932Y-47746D01*
X84000Y-47760D01*
X84993Y-47760D01*
X84747Y-48006D01*
X84692Y-48006D01*
X84584Y-48051D01*
X84501Y-48133D01*
X84456Y-48241D01*
X84456Y-48290D01*
X84155Y-48290D01*
X84117Y-48251D01*
X84009Y-48206D01*
X83892Y-48206D01*
X83784Y-48251D01*
X83701Y-48333D01*
X83656Y-48441D01*
X83656Y-48558D01*
X83701Y-48666D01*
X83783Y-48749D01*
X83785Y-48750D01*
X83784Y-48751D01*
X83701Y-48833D01*
X83656Y-48941D01*
X83656Y-49058D01*
X83701Y-49166D01*
X83740Y-49206D01*
X83642Y-49206D01*
X83534Y-49251D01*
X83451Y-49333D01*
X83425Y-49395D01*
X83400Y-49390D01*
X83150Y-49390D01*
X83070Y-49406D01*
X83047Y-49421D01*
X83001Y-49452D01*
X82947Y-49506D01*
X82892Y-49506D01*
X82784Y-49551D01*
X82701Y-49633D01*
X82656Y-49741D01*
X82656Y-49858D01*
X82701Y-49966D01*
X82783Y-50049D01*
X82891Y-50094D01*
X83008Y-50094D01*
X83093Y-50058D01*
X83133Y-50099D01*
X83241Y-50144D01*
X83358Y-50144D01*
X83466Y-50099D01*
X83549Y-50017D01*
X83572Y-49960D01*
X84400Y-49960D01*
X84400Y-49959D01*
X84467Y-49946D01*
X84480Y-49944D01*
X84481Y-49944D01*
X84548Y-49898D01*
X86536Y-47910D01*
X86544Y-47910D01*
X86583Y-47949D01*
X86691Y-47994D01*
X86808Y-47994D01*
X86893Y-47958D01*
X86933Y-47999D01*
X87041Y-48044D01*
X87158Y-48044D01*
X87266Y-47999D01*
X87349Y-47917D01*
X87394Y-47809D01*
X87394Y-47692D01*
X87349Y-47584D01*
X87267Y-47501D01*
X87159Y-47456D01*
X87042Y-47456D01*
X86956Y-47491D01*
X86917Y-47451D01*
X86809Y-47406D01*
X86790Y-47406D01*
X86806Y-47390D01*
X88170Y-47390D01*
X88170Y-47389D01*
X88237Y-47376D01*
X88250Y-47374D01*
X88251Y-47374D01*
X88318Y-47328D01*
X88642Y-47003D01*
X88606Y-47091D01*
X88606Y-47208D01*
X88651Y-47316D01*
X88733Y-47399D01*
X88756Y-47408D01*
X88756Y-47508D01*
X88801Y-47616D01*
X88859Y-47674D01*
X88851Y-47683D01*
X88806Y-47791D01*
X88806Y-47908D01*
X88841Y-47993D01*
X88801Y-48033D01*
X88756Y-48141D01*
X88756Y-48258D01*
X88801Y-48366D01*
X88809Y-48374D01*
X88801Y-48383D01*
X88756Y-48491D01*
X88756Y-48608D01*
X88801Y-48716D01*
X88883Y-48799D01*
X88991Y-48844D01*
X89047Y-48844D01*
X89201Y-48998D01*
X89202Y-48998D01*
X89269Y-49044D01*
X89270Y-49044D01*
X89282Y-49046D01*
X89350Y-49060D01*
X91700Y-49060D01*
X91700Y-49059D01*
X91767Y-49046D01*
X91780Y-49044D01*
X91781Y-49044D01*
X91848Y-48998D01*
X92402Y-48444D01*
X92458Y-48444D01*
X92566Y-48399D01*
X92649Y-48317D01*
X92694Y-48209D01*
X92694Y-48092D01*
X92649Y-47984D01*
X92567Y-47901D01*
X92459Y-47856D01*
X92444Y-47856D01*
X92444Y-47842D01*
X92399Y-47734D01*
X92317Y-47651D01*
X92209Y-47606D01*
X92092Y-47606D01*
X91984Y-47651D01*
X91901Y-47733D01*
X91856Y-47841D01*
X91856Y-47897D01*
X91313Y-48440D01*
X90644Y-48440D01*
X90644Y-48342D01*
X90599Y-48234D01*
X90590Y-48225D01*
X90599Y-48217D01*
X90644Y-48109D01*
X90644Y-47992D01*
X90599Y-47884D01*
X90565Y-47850D01*
X90599Y-47817D01*
X90644Y-47709D01*
X90644Y-47592D01*
X90599Y-47484D01*
X90590Y-47475D01*
X90599Y-47467D01*
X90644Y-47359D01*
X90644Y-47242D01*
X90599Y-47134D01*
X90517Y-47051D01*
X90409Y-47006D01*
X90292Y-47006D01*
X90184Y-47051D01*
X90101Y-47133D01*
X90056Y-47241D01*
X90056Y-47358D01*
X90101Y-47466D01*
X90109Y-47474D01*
X90101Y-47483D01*
X90056Y-47591D01*
X90056Y-47708D01*
X90101Y-47816D01*
X90134Y-47849D01*
X90101Y-47883D01*
X90056Y-47991D01*
X90056Y-48108D01*
X90101Y-48216D01*
X90109Y-48224D01*
X90101Y-48233D01*
X90056Y-48341D01*
X90056Y-48440D01*
X89586Y-48440D01*
X89344Y-48197D01*
X89344Y-48142D01*
X89308Y-48056D01*
X89349Y-48017D01*
X89394Y-47909D01*
X89394Y-47792D01*
X89349Y-47684D01*
X89290Y-47625D01*
X89299Y-47617D01*
X89344Y-47509D01*
X89344Y-47392D01*
X89299Y-47284D01*
X89217Y-47201D01*
X89194Y-47191D01*
X89194Y-47092D01*
X89149Y-46984D01*
X89067Y-46901D01*
X88959Y-46856D01*
X88842Y-46856D01*
X88753Y-46892D01*
X89700Y-45946D01*
X91206Y-45946D01*
X91206Y-46058D01*
X91251Y-46166D01*
X91259Y-46174D01*
X91251Y-46183D01*
X91206Y-46291D01*
X91206Y-46408D01*
X91251Y-46516D01*
X91259Y-46524D01*
X91251Y-46533D01*
X91206Y-46641D01*
X91206Y-46756D01*
X91194Y-46756D01*
X91194Y-46742D01*
X91149Y-46634D01*
X91067Y-46551D01*
X90959Y-46506D01*
X90944Y-46506D01*
X90944Y-46492D01*
X90899Y-46384D01*
X90817Y-46301D01*
X90709Y-46256D01*
X90592Y-46256D01*
X90484Y-46301D01*
X90401Y-46383D01*
X90356Y-46491D01*
X90356Y-46608D01*
X90401Y-46716D01*
X90483Y-46799D01*
X90591Y-46844D01*
X90606Y-46844D01*
X90606Y-46858D01*
X90651Y-46966D01*
X90733Y-47049D01*
X90841Y-47094D01*
X90856Y-47094D01*
X90856Y-47108D01*
X90901Y-47216D01*
X90983Y-47299D01*
X91091Y-47344D01*
X91208Y-47344D01*
X91316Y-47299D01*
X91399Y-47217D01*
X91444Y-47109D01*
X91444Y-46994D01*
X91558Y-46994D01*
X91666Y-46949D01*
X91749Y-46867D01*
X91794Y-46759D01*
X91794Y-46642D01*
X91749Y-46534D01*
X91740Y-46525D01*
X91749Y-46517D01*
X91794Y-46409D01*
X91794Y-46292D01*
X91749Y-46184D01*
X91740Y-46175D01*
X91749Y-46167D01*
X91750Y-46164D01*
X91751Y-46166D01*
X91833Y-46249D01*
X91941Y-46294D01*
X91956Y-46294D01*
X91956Y-46308D01*
X92001Y-46416D01*
X92083Y-46499D01*
X92191Y-46544D01*
X92308Y-46544D01*
X92416Y-46499D01*
X92499Y-46417D01*
X92514Y-46379D01*
X92551Y-46466D01*
X92633Y-46549D01*
X92741Y-46594D01*
X92756Y-46594D01*
X92756Y-46608D01*
X92801Y-46716D01*
X92883Y-46799D01*
X92991Y-46844D01*
X93006Y-46844D01*
X93006Y-46858D01*
X93051Y-46966D01*
X93133Y-47049D01*
X93241Y-47094D01*
X93256Y-47094D01*
X93256Y-47108D01*
X93301Y-47216D01*
X93383Y-47299D01*
X93491Y-47344D01*
X93546Y-47344D01*
X93506Y-47441D01*
X93506Y-47558D01*
X93551Y-47666D01*
X93633Y-47749D01*
X93741Y-47794D01*
X93756Y-47794D01*
X93756Y-47808D01*
X93801Y-47916D01*
X93883Y-47999D01*
X93991Y-48044D01*
X94006Y-48044D01*
X94006Y-48058D01*
X94051Y-48166D01*
X94133Y-48249D01*
X94241Y-48294D01*
X94256Y-48294D01*
X94256Y-48308D01*
X94301Y-48416D01*
X94383Y-48499D01*
X94491Y-48544D01*
X94608Y-48544D01*
X94716Y-48499D01*
X94799Y-48417D01*
X94844Y-48309D01*
X94844Y-48252D01*
X94900Y-48196D01*
X96224Y-48196D01*
X96206Y-48241D01*
X96206Y-48358D01*
X96251Y-48466D01*
X96333Y-48549D01*
X96441Y-48594D01*
X96456Y-48594D01*
X96456Y-48606D01*
X96442Y-48606D01*
X96334Y-48651D01*
X96251Y-48733D01*
X96206Y-48841D01*
X96206Y-48958D01*
X96251Y-49066D01*
X96333Y-49149D01*
X96420Y-49185D01*
X96384Y-49201D01*
X96301Y-49283D01*
X96256Y-49391D01*
X96256Y-49508D01*
X96291Y-49593D01*
X96251Y-49633D01*
X96206Y-49741D01*
X96206Y-49858D01*
X96251Y-49966D01*
X96259Y-49974D01*
X96251Y-49983D01*
X96206Y-50091D01*
X96206Y-50208D01*
X96251Y-50316D01*
X96333Y-50399D01*
X96441Y-50444D01*
X96506Y-50444D01*
X96506Y-50458D01*
X96551Y-50566D01*
X96633Y-50649D01*
X96649Y-50656D01*
X96542Y-50656D01*
X96444Y-50696D01*
X96444Y-50592D01*
X96399Y-50484D01*
X96317Y-50401D01*
X96209Y-50356D01*
X96092Y-50356D01*
X95984Y-50401D01*
X95943Y-50441D01*
X95859Y-50406D01*
X95742Y-50406D01*
X95713Y-50418D01*
X95699Y-50384D01*
X95617Y-50301D01*
X95509Y-50256D01*
X95444Y-50256D01*
X95444Y-49609D01*
X95444Y-49492D01*
X95399Y-49384D01*
X95317Y-49301D01*
X95209Y-49256D01*
X95092Y-49256D01*
X94984Y-49301D01*
X94975Y-49309D01*
X94967Y-49301D01*
X94859Y-49256D01*
X94742Y-49256D01*
X94634Y-49301D01*
X94551Y-49383D01*
X94506Y-49491D01*
X94506Y-49608D01*
X94551Y-49716D01*
X94633Y-49799D01*
X94741Y-49844D01*
X94858Y-49844D01*
X94966Y-49799D01*
X94974Y-49790D01*
X94983Y-49799D01*
X95091Y-49844D01*
X95208Y-49844D01*
X95316Y-49799D01*
X95399Y-49717D01*
X95444Y-49609D01*
X95444Y-50256D01*
X95392Y-50256D01*
X95284Y-50301D01*
X95201Y-50383D01*
X95156Y-50491D01*
X95156Y-50608D01*
X95201Y-50716D01*
X95283Y-50799D01*
X95391Y-50844D01*
X95508Y-50844D01*
X95536Y-50831D01*
X95551Y-50866D01*
X95633Y-50949D01*
X95741Y-50994D01*
X95858Y-50994D01*
X95966Y-50949D01*
X96006Y-50908D01*
X96091Y-50944D01*
X96208Y-50944D01*
X96306Y-50903D01*
X96306Y-50971D01*
X96234Y-51001D01*
X96151Y-51083D01*
X96141Y-51106D01*
X96042Y-51106D01*
X95934Y-51151D01*
X95851Y-51233D01*
X95806Y-51341D01*
X95806Y-51458D01*
X95851Y-51566D01*
X95933Y-51649D01*
X96041Y-51694D01*
X96158Y-51694D01*
X96266Y-51649D01*
X96349Y-51567D01*
X96358Y-51544D01*
X96458Y-51544D01*
X96566Y-51499D01*
X96649Y-51417D01*
X96694Y-51309D01*
X96694Y-51229D01*
X96766Y-51199D01*
X96849Y-51117D01*
X96894Y-51009D01*
X96894Y-50892D01*
X96849Y-50784D01*
X96767Y-50701D01*
X96750Y-50694D01*
X96858Y-50694D01*
X96966Y-50649D01*
X97049Y-50567D01*
X97094Y-50459D01*
X97094Y-50342D01*
X97049Y-50234D01*
X96967Y-50151D01*
X96859Y-50106D01*
X96794Y-50106D01*
X96794Y-50092D01*
X96749Y-49984D01*
X96740Y-49975D01*
X96749Y-49967D01*
X96794Y-49859D01*
X96794Y-49742D01*
X96758Y-49656D01*
X96799Y-49617D01*
X96844Y-49509D01*
X96844Y-49429D01*
X96916Y-49399D01*
X96999Y-49317D01*
X97044Y-49209D01*
X97044Y-49092D01*
X96999Y-48984D01*
X96917Y-48901D01*
X96809Y-48856D01*
X96794Y-48856D01*
X96794Y-48844D01*
X96808Y-48844D01*
X96916Y-48799D01*
X96999Y-48717D01*
X97044Y-48609D01*
X97044Y-48492D01*
X96999Y-48384D01*
X96917Y-48301D01*
X96809Y-48256D01*
X96794Y-48256D01*
X96794Y-48242D01*
X96774Y-48196D01*
X97199Y-48196D01*
X97956Y-48952D01*
X97956Y-49008D01*
X98001Y-49116D01*
X98009Y-49124D01*
X98001Y-49133D01*
X97956Y-49241D01*
X97956Y-49358D01*
X98001Y-49466D01*
X98083Y-49549D01*
X98169Y-49584D01*
X98054Y-49700D01*
X98008Y-49767D01*
X98005Y-49780D01*
X97992Y-49848D01*
X97992Y-52511D01*
X97544Y-52959D01*
X97544Y-52259D01*
X97544Y-52142D01*
X97499Y-52034D01*
X97417Y-51951D01*
X97309Y-51906D01*
X97192Y-51906D01*
X97084Y-51951D01*
X97001Y-52033D01*
X96956Y-52141D01*
X96956Y-52258D01*
X97001Y-52366D01*
X97083Y-52449D01*
X97191Y-52494D01*
X97308Y-52494D01*
X97416Y-52449D01*
X97499Y-52367D01*
X97544Y-52259D01*
X97544Y-52959D01*
X95825Y-54678D01*
X93736Y-54678D01*
X93744Y-54659D01*
X93744Y-54542D01*
X93699Y-54434D01*
X93617Y-54351D01*
X93509Y-54306D01*
X93392Y-54306D01*
X93284Y-54351D01*
X93201Y-54433D01*
X93156Y-54541D01*
X93156Y-54658D01*
X93164Y-54678D01*
X89244Y-54678D01*
X89244Y-50609D01*
X89244Y-50492D01*
X89199Y-50384D01*
X89117Y-50301D01*
X89009Y-50256D01*
X88892Y-50256D01*
X88784Y-50301D01*
X88775Y-50309D01*
X88767Y-50301D01*
X88659Y-50256D01*
X88542Y-50256D01*
X88434Y-50301D01*
X88425Y-50309D01*
X88417Y-50301D01*
X88309Y-50256D01*
X88192Y-50256D01*
X88084Y-50301D01*
X88075Y-50309D01*
X88067Y-50301D01*
X87959Y-50256D01*
X87842Y-50256D01*
X87744Y-50296D01*
X87744Y-48409D01*
X87744Y-48292D01*
X87699Y-48184D01*
X87617Y-48101D01*
X87509Y-48056D01*
X87392Y-48056D01*
X87284Y-48101D01*
X87201Y-48183D01*
X87156Y-48291D01*
X87156Y-48408D01*
X87201Y-48516D01*
X87283Y-48599D01*
X87391Y-48644D01*
X87508Y-48644D01*
X87616Y-48599D01*
X87699Y-48517D01*
X87744Y-48409D01*
X87744Y-50296D01*
X87734Y-50301D01*
X87651Y-50383D01*
X87606Y-50491D01*
X87606Y-50608D01*
X87651Y-50716D01*
X87733Y-50799D01*
X87795Y-50825D01*
X87734Y-50851D01*
X87651Y-50933D01*
X87606Y-51041D01*
X87606Y-51158D01*
X87651Y-51266D01*
X87733Y-51349D01*
X87841Y-51394D01*
X87896Y-51394D01*
X87856Y-51491D01*
X87856Y-51608D01*
X87901Y-51716D01*
X87983Y-51799D01*
X88091Y-51844D01*
X88208Y-51844D01*
X88316Y-51799D01*
X88399Y-51717D01*
X88444Y-51609D01*
X88444Y-51492D01*
X88399Y-51384D01*
X88317Y-51301D01*
X88209Y-51256D01*
X88153Y-51256D01*
X88179Y-51194D01*
X88258Y-51194D01*
X88366Y-51149D01*
X88449Y-51067D01*
X88494Y-50959D01*
X88494Y-50842D01*
X88485Y-50820D01*
X88541Y-50844D01*
X88658Y-50844D01*
X88766Y-50799D01*
X88774Y-50790D01*
X88783Y-50799D01*
X88891Y-50844D01*
X89008Y-50844D01*
X89116Y-50799D01*
X89199Y-50717D01*
X89244Y-50609D01*
X89244Y-54678D01*
X87094Y-54678D01*
X87094Y-50809D01*
X87094Y-50692D01*
X87049Y-50584D01*
X86967Y-50501D01*
X86859Y-50456D01*
X86742Y-50456D01*
X86634Y-50501D01*
X86551Y-50583D01*
X86506Y-50691D01*
X86506Y-50808D01*
X86551Y-50916D01*
X86633Y-50999D01*
X86741Y-51044D01*
X86858Y-51044D01*
X86966Y-50999D01*
X87049Y-50917D01*
X87094Y-50809D01*
X87094Y-54678D01*
X86994Y-54678D01*
X86994Y-54259D01*
X86994Y-54142D01*
X86949Y-54034D01*
X86867Y-53951D01*
X86759Y-53906D01*
X86642Y-53906D01*
X86594Y-53926D01*
X86594Y-51309D01*
X86594Y-51192D01*
X86549Y-51084D01*
X86467Y-51001D01*
X86359Y-50956D01*
X86242Y-50956D01*
X86134Y-51001D01*
X86051Y-51083D01*
X86006Y-51191D01*
X86006Y-51308D01*
X86051Y-51416D01*
X86133Y-51499D01*
X86241Y-51544D01*
X86358Y-51544D01*
X86466Y-51499D01*
X86549Y-51417D01*
X86594Y-51309D01*
X86594Y-53926D01*
X86534Y-53951D01*
X86451Y-54033D01*
X86406Y-54141D01*
X86406Y-54258D01*
X86451Y-54366D01*
X86533Y-54449D01*
X86641Y-54494D01*
X86758Y-54494D01*
X86866Y-54449D01*
X86949Y-54367D01*
X86994Y-54259D01*
X86994Y-54678D01*
X86294Y-54678D01*
X86294Y-54409D01*
X86294Y-54292D01*
X86249Y-54184D01*
X86167Y-54101D01*
X86059Y-54056D01*
X86044Y-54056D01*
X86044Y-54042D01*
X85999Y-53934D01*
X85917Y-53851D01*
X85844Y-53820D01*
X85844Y-50359D01*
X85844Y-50242D01*
X85799Y-50134D01*
X85717Y-50051D01*
X85609Y-50006D01*
X85492Y-50006D01*
X85384Y-50051D01*
X85301Y-50133D01*
X85256Y-50241D01*
X85256Y-50358D01*
X85301Y-50466D01*
X85383Y-50549D01*
X85491Y-50594D01*
X85608Y-50594D01*
X85716Y-50549D01*
X85799Y-50467D01*
X85844Y-50359D01*
X85844Y-53820D01*
X85809Y-53806D01*
X85692Y-53806D01*
X85584Y-53851D01*
X85501Y-53933D01*
X85456Y-54041D01*
X85456Y-54158D01*
X85501Y-54266D01*
X85583Y-54349D01*
X85691Y-54394D01*
X85706Y-54394D01*
X85706Y-54408D01*
X85751Y-54516D01*
X85833Y-54599D01*
X85941Y-54644D01*
X86058Y-54644D01*
X86166Y-54599D01*
X86249Y-54517D01*
X86294Y-54409D01*
X86294Y-54678D01*
X85174Y-54678D01*
X85144Y-54648D01*
X85144Y-50809D01*
X85144Y-50692D01*
X85099Y-50584D01*
X85017Y-50501D01*
X84979Y-50485D01*
X85049Y-50417D01*
X85094Y-50309D01*
X85094Y-50192D01*
X85049Y-50084D01*
X84967Y-50001D01*
X84859Y-49956D01*
X84742Y-49956D01*
X84634Y-50001D01*
X84551Y-50083D01*
X84506Y-50191D01*
X84506Y-50308D01*
X84551Y-50416D01*
X84633Y-50499D01*
X84670Y-50514D01*
X84601Y-50583D01*
X84556Y-50691D01*
X84556Y-50808D01*
X84601Y-50916D01*
X84683Y-50999D01*
X84791Y-51044D01*
X84908Y-51044D01*
X85016Y-50999D01*
X85099Y-50917D01*
X85144Y-50809D01*
X85144Y-54648D01*
X84998Y-54502D01*
X84931Y-54456D01*
X84917Y-54453D01*
X84850Y-54440D01*
X84375Y-54440D01*
X84399Y-54417D01*
X84444Y-54309D01*
X84444Y-54192D01*
X84444Y-51559D01*
X84444Y-51442D01*
X84399Y-51334D01*
X84317Y-51251D01*
X84209Y-51206D01*
X84092Y-51206D01*
X83984Y-51251D01*
X83944Y-51290D01*
X83925Y-51290D01*
X83949Y-51267D01*
X83994Y-51159D01*
X83994Y-51042D01*
X83949Y-50934D01*
X83867Y-50851D01*
X83759Y-50806D01*
X83642Y-50806D01*
X83534Y-50851D01*
X83525Y-50859D01*
X83517Y-50851D01*
X83409Y-50806D01*
X83292Y-50806D01*
X83184Y-50851D01*
X83115Y-50918D01*
X82986Y-50790D01*
X82919Y-50744D01*
X82905Y-50741D01*
X82838Y-50728D01*
X81262Y-50728D01*
X81194Y-50741D01*
X81181Y-50744D01*
X81113Y-50790D01*
X80908Y-50995D01*
X80944Y-50909D01*
X80944Y-50792D01*
X80899Y-50684D01*
X80817Y-50601D01*
X80709Y-50556D01*
X80592Y-50556D01*
X80484Y-50601D01*
X80401Y-50683D01*
X80356Y-50791D01*
X80356Y-50908D01*
X80401Y-51016D01*
X80483Y-51099D01*
X80591Y-51144D01*
X80708Y-51144D01*
X80796Y-51107D01*
X80584Y-51319D01*
X80517Y-51251D01*
X80409Y-51206D01*
X80292Y-51206D01*
X80184Y-51251D01*
X80101Y-51333D01*
X80056Y-51441D01*
X80056Y-51540D01*
X79675Y-51540D01*
X79749Y-51467D01*
X79779Y-51394D01*
X79858Y-51394D01*
X79966Y-51349D01*
X80049Y-51267D01*
X80094Y-51159D01*
X80094Y-51042D01*
X80049Y-50934D01*
X80040Y-50925D01*
X80049Y-50917D01*
X80094Y-50809D01*
X80094Y-50692D01*
X80049Y-50584D01*
X79967Y-50501D01*
X79859Y-50456D01*
X79779Y-50456D01*
X79749Y-50384D01*
X79667Y-50301D01*
X79559Y-50256D01*
X79479Y-50256D01*
X79449Y-50184D01*
X79367Y-50101D01*
X79259Y-50056D01*
X79142Y-50056D01*
X79034Y-50101D01*
X78951Y-50183D01*
X78906Y-50291D01*
X78906Y-50408D01*
X78951Y-50516D01*
X79033Y-50599D01*
X79141Y-50644D01*
X79221Y-50644D01*
X79251Y-50716D01*
X79333Y-50799D01*
X79441Y-50844D01*
X79521Y-50844D01*
X79551Y-50916D01*
X79559Y-50924D01*
X79551Y-50933D01*
X79520Y-51006D01*
X79442Y-51006D01*
X79334Y-51051D01*
X79251Y-51133D01*
X79220Y-51206D01*
X79142Y-51206D01*
X79034Y-51251D01*
X78951Y-51333D01*
X78915Y-51418D01*
X78394Y-50897D01*
X78394Y-49859D01*
X78394Y-49742D01*
X78349Y-49634D01*
X78267Y-49551D01*
X78159Y-49506D01*
X78042Y-49506D01*
X77934Y-49551D01*
X77851Y-49633D01*
X77806Y-49741D01*
X77806Y-49858D01*
X77851Y-49966D01*
X77933Y-50049D01*
X78041Y-50094D01*
X78158Y-50094D01*
X78266Y-50049D01*
X78349Y-49967D01*
X78394Y-49859D01*
X78394Y-50897D01*
X78294Y-50797D01*
X78294Y-50742D01*
X78249Y-50634D01*
X78167Y-50551D01*
X78059Y-50506D01*
X77942Y-50506D01*
X77834Y-50551D01*
X77751Y-50633D01*
X77706Y-50741D01*
X77706Y-50858D01*
X77751Y-50966D01*
X77759Y-50974D01*
X77701Y-51033D01*
X77656Y-51141D01*
X77656Y-51258D01*
X77701Y-51366D01*
X77783Y-51449D01*
X77891Y-51494D01*
X77947Y-51494D01*
X78513Y-52060D01*
X78514Y-52060D01*
X78559Y-52090D01*
X78581Y-52105D01*
X78582Y-52106D01*
X78661Y-52121D01*
X78662Y-52122D01*
X80538Y-52122D01*
X80538Y-52121D01*
X80605Y-52108D01*
X80618Y-52106D01*
X80619Y-52106D01*
X80686Y-52060D01*
X81436Y-51310D01*
X82256Y-51310D01*
X82256Y-51408D01*
X82301Y-51516D01*
X82309Y-51524D01*
X82301Y-51533D01*
X82256Y-51641D01*
X82256Y-51700D01*
X82249Y-51684D01*
X82167Y-51601D01*
X82059Y-51556D01*
X81942Y-51556D01*
X81834Y-51601D01*
X81751Y-51683D01*
X81706Y-51791D01*
X81706Y-51908D01*
X81751Y-52016D01*
X81833Y-52099D01*
X81941Y-52144D01*
X82058Y-52144D01*
X82166Y-52099D01*
X82249Y-52017D01*
X82256Y-52000D01*
X82256Y-52108D01*
X82301Y-52216D01*
X82383Y-52299D01*
X82491Y-52344D01*
X82608Y-52344D01*
X82716Y-52299D01*
X82799Y-52217D01*
X82844Y-52109D01*
X82844Y-51992D01*
X82799Y-51884D01*
X82790Y-51875D01*
X82799Y-51867D01*
X82844Y-51759D01*
X82844Y-51642D01*
X82799Y-51534D01*
X82790Y-51525D01*
X82799Y-51517D01*
X82820Y-51466D01*
X83251Y-51898D01*
X83252Y-51898D01*
X83319Y-51944D01*
X83320Y-51944D01*
X83332Y-51946D01*
X83400Y-51960D01*
X83694Y-51960D01*
X83733Y-51999D01*
X83841Y-52044D01*
X83958Y-52044D01*
X84066Y-51999D01*
X84149Y-51917D01*
X84194Y-51809D01*
X84194Y-51794D01*
X84208Y-51794D01*
X84316Y-51749D01*
X84399Y-51667D01*
X84444Y-51559D01*
X84444Y-54192D01*
X84399Y-54084D01*
X84317Y-54001D01*
X84209Y-53956D01*
X84092Y-53956D01*
X83984Y-54001D01*
X83901Y-54083D01*
X83856Y-54191D01*
X83856Y-54308D01*
X83901Y-54416D01*
X83924Y-54440D01*
X83122Y-54440D01*
X83099Y-54384D01*
X83017Y-54301D01*
X82909Y-54256D01*
X82792Y-54256D01*
X82684Y-54301D01*
X82601Y-54383D01*
X82556Y-54491D01*
X82556Y-54608D01*
X82601Y-54716D01*
X82683Y-54799D01*
X82791Y-54844D01*
X82870Y-54844D01*
X82874Y-54844D01*
X82950Y-54860D01*
X84456Y-54860D01*
X84456Y-54958D01*
X84501Y-55066D01*
X84583Y-55149D01*
X84691Y-55194D01*
X84747Y-55194D01*
X84751Y-55198D01*
X84752Y-55198D01*
X84819Y-55244D01*
X84820Y-55244D01*
X84832Y-55246D01*
X84900Y-55260D01*
X87956Y-55260D01*
X87956Y-55325D01*
X87909Y-55306D01*
X87792Y-55306D01*
X87684Y-55351D01*
X87601Y-55433D01*
X87556Y-55540D01*
X85805Y-55540D01*
X85767Y-55501D01*
X85659Y-55456D01*
X85542Y-55456D01*
X85434Y-55501D01*
X85351Y-55583D01*
X85341Y-55606D01*
X85242Y-55606D01*
X85134Y-55651D01*
X85125Y-55659D01*
X85117Y-55651D01*
X85009Y-55606D01*
X84892Y-55606D01*
X84784Y-55651D01*
X84701Y-55733D01*
X84656Y-55841D01*
X84656Y-55958D01*
X84701Y-56066D01*
X84783Y-56149D01*
X84891Y-56194D01*
X85008Y-56194D01*
X85116Y-56149D01*
X85124Y-56140D01*
X85133Y-56149D01*
X85241Y-56194D01*
X85358Y-56194D01*
X85466Y-56149D01*
X85549Y-56067D01*
X85558Y-56044D01*
X85658Y-56044D01*
X85766Y-55999D01*
X85805Y-55960D01*
X87556Y-55960D01*
X87556Y-56008D01*
X87601Y-56116D01*
X87683Y-56199D01*
X87791Y-56244D01*
X87908Y-56244D01*
X88016Y-56199D01*
X88028Y-56186D01*
X88006Y-56241D01*
X88006Y-56358D01*
X88051Y-56466D01*
X88133Y-56549D01*
X88241Y-56594D01*
X88358Y-56594D01*
X88466Y-56549D01*
X88549Y-56467D01*
X88594Y-56359D01*
X88594Y-56260D01*
X96000Y-56260D01*
X96000Y-56259D01*
X96067Y-56246D01*
X96080Y-56244D01*
X96081Y-56244D01*
X96148Y-56198D01*
X99102Y-53244D01*
X99158Y-53244D01*
X99266Y-53199D01*
X99349Y-53117D01*
X99394Y-53009D01*
X99394Y-52892D01*
X99349Y-52784D01*
X99267Y-52701D01*
X99159Y-52656D01*
X99060Y-52656D01*
X99060Y-52286D01*
X99102Y-52244D01*
X99158Y-52244D01*
X99266Y-52199D01*
X99349Y-52117D01*
X99394Y-52009D01*
X99394Y-51892D01*
X99349Y-51784D01*
X99267Y-51701D01*
X99159Y-51656D01*
X99042Y-51656D01*
X98934Y-51701D01*
X98898Y-51736D01*
X98898Y-51163D01*
X98933Y-51199D01*
X99041Y-51244D01*
X99158Y-51244D01*
X99266Y-51199D01*
X99349Y-51117D01*
X99394Y-51009D01*
X99394Y-50892D01*
X99349Y-50784D01*
X99267Y-50701D01*
X99159Y-50656D01*
X99042Y-50656D01*
X98934Y-50701D01*
X98898Y-50736D01*
X98898Y-50448D01*
X99102Y-50244D01*
X99158Y-50244D01*
X99266Y-50199D01*
X99349Y-50117D01*
X99394Y-50009D01*
X99394Y-49892D01*
X99349Y-49784D01*
X99267Y-49701D01*
X99251Y-49694D01*
X99660Y-49287D01*
X99660Y-49286D01*
X99690Y-49241D01*
X99705Y-49219D01*
X99706Y-49218D01*
X99721Y-49138D01*
X99722Y-49138D01*
X99722Y-47062D01*
X99706Y-46982D01*
X99705Y-46981D01*
X99694Y-46964D01*
X99694Y-46892D01*
X99649Y-46784D01*
X99567Y-46701D01*
X99459Y-46656D01*
X99342Y-46656D01*
X99234Y-46701D01*
X99225Y-46709D01*
X99217Y-46701D01*
X99109Y-46656D01*
X98992Y-46656D01*
X98884Y-46701D01*
X98801Y-46783D01*
X98756Y-46891D01*
X98756Y-47008D01*
X98801Y-47116D01*
X98883Y-47199D01*
X98991Y-47244D01*
X99047Y-47244D01*
X99140Y-47336D01*
X99140Y-47656D01*
X99042Y-47656D01*
X98934Y-47701D01*
X98851Y-47783D01*
X98806Y-47891D01*
X98806Y-48008D01*
X98851Y-48116D01*
X98933Y-48199D01*
X99041Y-48244D01*
X99140Y-48244D01*
X99140Y-48656D01*
X99042Y-48656D01*
X98934Y-48701D01*
X98851Y-48783D01*
X98806Y-48891D01*
X98806Y-48947D01*
X98534Y-49219D01*
X98499Y-49134D01*
X98490Y-49125D01*
X98499Y-49117D01*
X98544Y-49009D01*
X98544Y-48892D01*
X98499Y-48784D01*
X98490Y-48775D01*
X98499Y-48767D01*
X98544Y-48659D01*
X98544Y-48542D01*
X98499Y-48434D01*
X98490Y-48425D01*
X98499Y-48417D01*
X98544Y-48309D01*
X98544Y-48192D01*
X98499Y-48084D01*
X98490Y-48075D01*
X98499Y-48067D01*
X98544Y-47959D01*
X98544Y-47842D01*
X98499Y-47734D01*
X98490Y-47725D01*
X98499Y-47717D01*
X98544Y-47609D01*
X98544Y-47492D01*
X98499Y-47384D01*
X98490Y-47375D01*
X98499Y-47367D01*
X98544Y-47259D01*
X98544Y-47142D01*
X98499Y-47034D01*
X98490Y-47025D01*
X98499Y-47017D01*
X98544Y-46909D01*
X98544Y-46792D01*
X98499Y-46684D01*
X98490Y-46675D01*
X98499Y-46667D01*
X98544Y-46559D01*
X98544Y-46442D01*
X98499Y-46334D01*
X98490Y-46325D01*
X98499Y-46317D01*
X98544Y-46209D01*
X98544Y-46099D01*
X98551Y-46116D01*
X98633Y-46199D01*
X98741Y-46244D01*
X98858Y-46244D01*
X98966Y-46199D01*
X99049Y-46117D01*
X99094Y-46009D01*
X99094Y-45892D01*
X99049Y-45784D01*
X98981Y-45715D01*
X99624Y-45072D01*
X101048Y-45072D01*
X101030Y-45116D01*
X101030Y-45184D01*
X101030Y-45784D01*
X101056Y-45846D01*
X101104Y-45894D01*
X101166Y-45920D01*
X101234Y-45920D01*
X101834Y-45920D01*
X101896Y-45894D01*
X101944Y-45846D01*
X101970Y-45784D01*
X101970Y-45716D01*
X101970Y-45116D01*
X101944Y-45054D01*
X101896Y-45006D01*
X101834Y-44980D01*
X101816Y-44980D01*
X101902Y-44894D01*
X101958Y-44894D01*
X102066Y-44849D01*
X102149Y-44767D01*
X102194Y-44659D01*
X102194Y-45091D01*
X102102Y-45183D01*
X102030Y-45356D01*
X102030Y-45543D01*
X102101Y-45716D01*
X102233Y-45848D01*
X102406Y-45920D01*
X102593Y-45920D01*
X102766Y-45849D01*
X102898Y-45717D01*
X102970Y-45544D01*
X102970Y-46357D01*
X102899Y-46184D01*
X102767Y-46052D01*
X102594Y-45980D01*
X102407Y-45980D01*
X102234Y-46051D01*
X102102Y-46183D01*
X102030Y-46356D01*
X102030Y-46543D01*
X102101Y-46716D01*
X102233Y-46848D01*
X102406Y-46920D01*
X102593Y-46920D01*
X102766Y-46849D01*
X102898Y-46717D01*
X102970Y-46544D01*
X102970Y-47357D01*
X102899Y-47184D01*
X102767Y-47052D01*
X102594Y-46980D01*
X102407Y-46980D01*
X102234Y-47051D01*
X102102Y-47183D01*
X102030Y-47356D01*
X102030Y-47543D01*
X102101Y-47716D01*
X102233Y-47848D01*
X102406Y-47920D01*
X102593Y-47920D01*
X102766Y-47849D01*
X102898Y-47717D01*
X102970Y-47544D01*
X102970Y-48357D01*
X102899Y-48184D01*
X102767Y-48052D01*
X102594Y-47980D01*
X102407Y-47980D01*
X102234Y-48051D01*
X102102Y-48183D01*
X102030Y-48356D01*
X102030Y-48543D01*
X102101Y-48716D01*
X102233Y-48848D01*
X102406Y-48920D01*
X102593Y-48920D01*
X102766Y-48849D01*
X102898Y-48717D01*
X102970Y-48544D01*
X102970Y-49357D01*
X102899Y-49184D01*
X102767Y-49052D01*
X102594Y-48980D01*
X102407Y-48980D01*
X102234Y-49051D01*
X102102Y-49183D01*
X102030Y-49356D01*
X102030Y-49543D01*
X102101Y-49716D01*
X102233Y-49848D01*
X102406Y-49920D01*
X102593Y-49920D01*
X102766Y-49849D01*
X102898Y-49717D01*
X102970Y-49544D01*
X102970Y-50357D01*
X102899Y-50184D01*
X102767Y-50052D01*
X102594Y-49980D01*
X102407Y-49980D01*
X102234Y-50051D01*
X102102Y-50183D01*
X102030Y-50356D01*
X102030Y-50543D01*
X102101Y-50716D01*
X102233Y-50848D01*
X102406Y-50920D01*
X102593Y-50920D01*
X102766Y-50849D01*
X102898Y-50717D01*
X102970Y-50544D01*
X102970Y-51357D01*
X102899Y-51184D01*
X102767Y-51052D01*
X102594Y-50980D01*
X102407Y-50980D01*
X102234Y-51051D01*
X102102Y-51183D01*
X102030Y-51356D01*
X102030Y-51543D01*
X102101Y-51716D01*
X102233Y-51848D01*
X102406Y-51920D01*
X102593Y-51920D01*
X102766Y-51849D01*
X102898Y-51717D01*
X102970Y-51544D01*
X102970Y-52357D01*
X102899Y-52184D01*
X102767Y-52052D01*
X102594Y-51980D01*
X102407Y-51980D01*
X102234Y-52051D01*
X102102Y-52183D01*
X102030Y-52356D01*
X102030Y-52543D01*
X102101Y-52716D01*
X102233Y-52848D01*
X102406Y-52920D01*
X102593Y-52920D01*
X102766Y-52849D01*
X102898Y-52717D01*
X102970Y-52544D01*
X102970Y-53357D01*
X102899Y-53184D01*
X102767Y-53052D01*
X102594Y-52980D01*
X102407Y-52980D01*
X102234Y-53051D01*
X102102Y-53183D01*
X102030Y-53356D01*
X102030Y-53543D01*
X102101Y-53716D01*
X102233Y-53848D01*
X102406Y-53920D01*
X102593Y-53920D01*
X102766Y-53849D01*
X102898Y-53717D01*
X102970Y-53544D01*
X102970Y-54357D01*
X102899Y-54184D01*
X102767Y-54052D01*
X102594Y-53980D01*
X102407Y-53980D01*
X102234Y-54051D01*
X102102Y-54183D01*
X102030Y-54356D01*
X102030Y-54543D01*
X102101Y-54716D01*
X102233Y-54848D01*
X102406Y-54920D01*
X102593Y-54920D01*
X102766Y-54849D01*
X102898Y-54717D01*
X102970Y-54544D01*
X102970Y-58705D01*
X102886Y-58705D01*
X102886Y-57879D01*
X102886Y-56179D01*
X102875Y-55966D01*
X102815Y-55819D01*
X102721Y-55792D01*
X102651Y-55862D01*
X102651Y-55722D01*
X102624Y-55628D01*
X102422Y-55557D01*
X102209Y-55568D01*
X102062Y-55628D01*
X102035Y-55722D01*
X102343Y-56029D01*
X102651Y-55722D01*
X102651Y-55862D01*
X102414Y-56100D01*
X102721Y-56408D01*
X102815Y-56381D01*
X102886Y-56179D01*
X102886Y-57879D01*
X102875Y-57666D01*
X102815Y-57519D01*
X102721Y-57492D01*
X102651Y-57562D01*
X102651Y-57422D01*
X102651Y-56478D01*
X102343Y-56171D01*
X102272Y-56241D01*
X102272Y-56100D01*
X101970Y-55797D01*
X101970Y-54544D01*
X101970Y-54357D01*
X101970Y-53544D01*
X101970Y-53357D01*
X101970Y-52544D01*
X101970Y-52357D01*
X101970Y-51544D01*
X101970Y-51357D01*
X101970Y-50544D01*
X101970Y-50357D01*
X101970Y-49544D01*
X101970Y-49357D01*
X101970Y-48544D01*
X101970Y-48357D01*
X101970Y-47544D01*
X101970Y-47357D01*
X101970Y-46544D01*
X101970Y-46357D01*
X101899Y-46184D01*
X101767Y-46052D01*
X101594Y-45980D01*
X101407Y-45980D01*
X101234Y-46051D01*
X101102Y-46183D01*
X101030Y-46356D01*
X101030Y-46543D01*
X101101Y-46716D01*
X101233Y-46848D01*
X101406Y-46920D01*
X101593Y-46920D01*
X101766Y-46849D01*
X101898Y-46717D01*
X101970Y-46544D01*
X101970Y-47357D01*
X101899Y-47184D01*
X101767Y-47052D01*
X101594Y-46980D01*
X101407Y-46980D01*
X101234Y-47051D01*
X101102Y-47183D01*
X101030Y-47356D01*
X101030Y-47543D01*
X101101Y-47716D01*
X101233Y-47848D01*
X101406Y-47920D01*
X101593Y-47920D01*
X101766Y-47849D01*
X101898Y-47717D01*
X101970Y-47544D01*
X101970Y-48357D01*
X101899Y-48184D01*
X101767Y-48052D01*
X101594Y-47980D01*
X101407Y-47980D01*
X101234Y-48051D01*
X101102Y-48183D01*
X101030Y-48356D01*
X101030Y-48543D01*
X101101Y-48716D01*
X101233Y-48848D01*
X101406Y-48920D01*
X101593Y-48920D01*
X101766Y-48849D01*
X101898Y-48717D01*
X101970Y-48544D01*
X101970Y-49357D01*
X101899Y-49184D01*
X101767Y-49052D01*
X101594Y-48980D01*
X101407Y-48980D01*
X101234Y-49051D01*
X101102Y-49183D01*
X101030Y-49356D01*
X101030Y-49543D01*
X101101Y-49716D01*
X101233Y-49848D01*
X101406Y-49920D01*
X101593Y-49920D01*
X101766Y-49849D01*
X101898Y-49717D01*
X101970Y-49544D01*
X101970Y-50357D01*
X101899Y-50184D01*
X101767Y-50052D01*
X101594Y-49980D01*
X101407Y-49980D01*
X101234Y-50051D01*
X101102Y-50183D01*
X101030Y-50356D01*
X101030Y-50543D01*
X101101Y-50716D01*
X101233Y-50848D01*
X101406Y-50920D01*
X101593Y-50920D01*
X101766Y-50849D01*
X101898Y-50717D01*
X101970Y-50544D01*
X101970Y-51357D01*
X101899Y-51184D01*
X101767Y-51052D01*
X101594Y-50980D01*
X101407Y-50980D01*
X101234Y-51051D01*
X101102Y-51183D01*
X101030Y-51356D01*
X101030Y-51543D01*
X101101Y-51716D01*
X101233Y-51848D01*
X101406Y-51920D01*
X101593Y-51920D01*
X101766Y-51849D01*
X101898Y-51717D01*
X101970Y-51544D01*
X101970Y-52357D01*
X101899Y-52184D01*
X101767Y-52052D01*
X101594Y-51980D01*
X101407Y-51980D01*
X101234Y-52051D01*
X101102Y-52183D01*
X101030Y-52356D01*
X101030Y-52543D01*
X101101Y-52716D01*
X101233Y-52848D01*
X101406Y-52920D01*
X101593Y-52920D01*
X101766Y-52849D01*
X101898Y-52717D01*
X101970Y-52544D01*
X101970Y-53357D01*
X101899Y-53184D01*
X101767Y-53052D01*
X101594Y-52980D01*
X101407Y-52980D01*
X101234Y-53051D01*
X101102Y-53183D01*
X101030Y-53356D01*
X101030Y-53543D01*
X101101Y-53716D01*
X101233Y-53848D01*
X101406Y-53920D01*
X101593Y-53920D01*
X101766Y-53849D01*
X101898Y-53717D01*
X101970Y-53544D01*
X101970Y-54357D01*
X101899Y-54184D01*
X101767Y-54052D01*
X101594Y-53980D01*
X101407Y-53980D01*
X101234Y-54051D01*
X101102Y-54183D01*
X101030Y-54356D01*
X101030Y-54543D01*
X101101Y-54716D01*
X101233Y-54848D01*
X101406Y-54920D01*
X101593Y-54920D01*
X101766Y-54849D01*
X101898Y-54717D01*
X101970Y-54544D01*
X101970Y-55797D01*
X101965Y-55792D01*
X101871Y-55819D01*
X101800Y-56021D01*
X101811Y-56234D01*
X101871Y-56381D01*
X101965Y-56408D01*
X102272Y-56100D01*
X102272Y-56241D01*
X102035Y-56478D01*
X102062Y-56572D01*
X102264Y-56643D01*
X102477Y-56632D01*
X102624Y-56572D01*
X102651Y-56478D01*
X102651Y-57422D01*
X102624Y-57328D01*
X102422Y-57257D01*
X102209Y-57268D01*
X102062Y-57328D01*
X102035Y-57422D01*
X102343Y-57729D01*
X102651Y-57422D01*
X102651Y-57562D01*
X102414Y-57800D01*
X102721Y-58108D01*
X102815Y-58081D01*
X102886Y-57879D01*
X102886Y-58705D01*
X102651Y-58705D01*
X102651Y-58178D01*
X102343Y-57871D01*
X102272Y-57941D01*
X102272Y-57800D01*
X101965Y-57492D01*
X101871Y-57519D01*
X101800Y-57721D01*
X101811Y-57934D01*
X101871Y-58081D01*
X101965Y-58108D01*
X102272Y-57800D01*
X102272Y-57941D01*
X102035Y-58178D01*
X102062Y-58272D01*
X102264Y-58343D01*
X102477Y-58332D01*
X102624Y-58272D01*
X102651Y-58178D01*
X102651Y-58705D01*
X100727Y-58705D01*
X100727Y-57894D01*
X100727Y-57707D01*
X100727Y-56194D01*
X100727Y-56007D01*
X100656Y-55834D01*
X100524Y-55702D01*
X100351Y-55630D01*
X100244Y-55630D01*
X100244Y-50059D01*
X100244Y-49942D01*
X100199Y-49834D01*
X100117Y-49751D01*
X100009Y-49706D01*
X99892Y-49706D01*
X99784Y-49751D01*
X99701Y-49833D01*
X99656Y-49941D01*
X99656Y-50058D01*
X99701Y-50166D01*
X99783Y-50249D01*
X99891Y-50294D01*
X100008Y-50294D01*
X100116Y-50249D01*
X100199Y-50167D01*
X100244Y-50059D01*
X100244Y-55630D01*
X100164Y-55630D01*
X99991Y-55701D01*
X99859Y-55833D01*
X99787Y-56006D01*
X99787Y-56193D01*
X99858Y-56366D01*
X99990Y-56498D01*
X100163Y-56570D01*
X100350Y-56570D01*
X100523Y-56499D01*
X100655Y-56367D01*
X100727Y-56194D01*
X100727Y-57707D01*
X100656Y-57534D01*
X100524Y-57402D01*
X100351Y-57330D01*
X100164Y-57330D01*
X99991Y-57401D01*
X99859Y-57533D01*
X99787Y-57706D01*
X99787Y-57893D01*
X99858Y-58066D01*
X99990Y-58198D01*
X100163Y-58270D01*
X100350Y-58270D01*
X100523Y-58199D01*
X100655Y-58067D01*
X100727Y-57894D01*
X100727Y-58705D01*
X99694Y-58705D01*
X99694Y-55009D01*
X99694Y-54892D01*
X99649Y-54784D01*
X99567Y-54701D01*
X99459Y-54656D01*
X99394Y-54656D01*
X99394Y-54009D01*
X99394Y-53892D01*
X99349Y-53784D01*
X99267Y-53701D01*
X99159Y-53656D01*
X99042Y-53656D01*
X98934Y-53701D01*
X98851Y-53783D01*
X98806Y-53891D01*
X98806Y-54008D01*
X98851Y-54116D01*
X98933Y-54199D01*
X99041Y-54244D01*
X99158Y-54244D01*
X99266Y-54199D01*
X99349Y-54117D01*
X99394Y-54009D01*
X99394Y-54656D01*
X99342Y-54656D01*
X99234Y-54701D01*
X99151Y-54783D01*
X99106Y-54891D01*
X99106Y-55008D01*
X99151Y-55116D01*
X99233Y-55199D01*
X99341Y-55244D01*
X99458Y-55244D01*
X99566Y-55199D01*
X99649Y-55117D01*
X99694Y-55009D01*
X99694Y-58705D01*
X99433Y-58705D01*
X99445Y-58688D01*
X99445Y-58686D01*
X99447Y-58685D01*
X99461Y-58649D01*
X99475Y-58618D01*
X99475Y-58616D01*
X99476Y-58614D01*
X99490Y-58539D01*
X99491Y-58539D01*
X99491Y-58538D01*
X99491Y-58462D01*
X99491Y-58461D01*
X99490Y-58460D01*
X99476Y-58386D01*
X99475Y-58383D01*
X99475Y-58382D01*
X99461Y-58350D01*
X99447Y-58315D01*
X99445Y-58313D01*
X99445Y-58312D01*
X99404Y-58253D01*
X99402Y-58249D01*
X99367Y-58215D01*
X99351Y-58198D01*
X99347Y-58195D01*
X99346Y-58194D01*
X99287Y-58154D01*
X99285Y-58153D01*
X99261Y-58143D01*
X99217Y-58124D01*
X99216Y-58123D01*
X99214Y-58123D01*
X99140Y-58109D01*
X99139Y-58109D01*
X99137Y-58109D01*
X99062Y-58109D01*
X99061Y-58109D01*
X99060Y-58109D01*
X98986Y-58124D01*
X98983Y-58124D01*
X98982Y-58125D01*
X98950Y-58138D01*
X98915Y-58153D01*
X98913Y-58154D01*
X98912Y-58155D01*
X98849Y-58198D01*
X98815Y-58232D01*
X98798Y-58249D01*
X98795Y-58252D01*
X98795Y-58253D01*
X98794Y-58253D01*
X98754Y-58313D01*
X98753Y-58314D01*
X98753Y-58315D01*
X98743Y-58338D01*
X98724Y-58383D01*
X98723Y-58383D01*
X98723Y-58386D01*
X98709Y-58459D01*
X98709Y-58461D01*
X98709Y-58463D01*
X98709Y-58537D01*
X98709Y-58539D01*
X98709Y-58540D01*
X98723Y-58614D01*
X98723Y-58616D01*
X98724Y-58617D01*
X98743Y-58661D01*
X98753Y-58685D01*
X98754Y-58687D01*
X98766Y-58705D01*
X98544Y-58705D01*
X98544Y-57409D01*
X98544Y-57292D01*
X98499Y-57184D01*
X98417Y-57101D01*
X98309Y-57056D01*
X98192Y-57056D01*
X98084Y-57101D01*
X98001Y-57183D01*
X97956Y-57291D01*
X97956Y-57408D01*
X98001Y-57516D01*
X98083Y-57599D01*
X98191Y-57644D01*
X98308Y-57644D01*
X98416Y-57599D01*
X98499Y-57517D01*
X98544Y-57409D01*
X98544Y-58705D01*
X97394Y-58705D01*
X97394Y-57209D01*
X97394Y-57092D01*
X97349Y-56984D01*
X97267Y-56901D01*
X97159Y-56856D01*
X97042Y-56856D01*
X96934Y-56901D01*
X96912Y-56921D01*
X96892Y-56901D01*
X96784Y-56856D01*
X96667Y-56856D01*
X96559Y-56901D01*
X96537Y-56921D01*
X96517Y-56901D01*
X96409Y-56856D01*
X96292Y-56856D01*
X96184Y-56901D01*
X96101Y-56983D01*
X96056Y-57091D01*
X96056Y-57208D01*
X96101Y-57316D01*
X96183Y-57399D01*
X96291Y-57444D01*
X96408Y-57444D01*
X96516Y-57399D01*
X96537Y-57378D01*
X96558Y-57399D01*
X96666Y-57444D01*
X96783Y-57444D01*
X96891Y-57399D01*
X96912Y-57378D01*
X96933Y-57399D01*
X97041Y-57444D01*
X97158Y-57444D01*
X97266Y-57399D01*
X97349Y-57317D01*
X97394Y-57209D01*
X97394Y-58705D01*
X95944Y-58705D01*
X95944Y-57209D01*
X95944Y-57092D01*
X95899Y-56984D01*
X95817Y-56901D01*
X95709Y-56856D01*
X95592Y-56856D01*
X95484Y-56901D01*
X95401Y-56983D01*
X95356Y-57091D01*
X95356Y-57208D01*
X95401Y-57316D01*
X95483Y-57399D01*
X95591Y-57444D01*
X95708Y-57444D01*
X95816Y-57399D01*
X95899Y-57317D01*
X95944Y-57209D01*
X95944Y-58705D01*
X95244Y-58705D01*
X95244Y-57209D01*
X95244Y-57092D01*
X95199Y-56984D01*
X95117Y-56901D01*
X95009Y-56856D01*
X94892Y-56856D01*
X94784Y-56901D01*
X94701Y-56983D01*
X94656Y-57091D01*
X94656Y-57208D01*
X94701Y-57316D01*
X94783Y-57399D01*
X94891Y-57444D01*
X95008Y-57444D01*
X95116Y-57399D01*
X95199Y-57317D01*
X95244Y-57209D01*
X95244Y-58705D01*
X94544Y-58705D01*
X94544Y-57209D01*
X94544Y-57092D01*
X94499Y-56984D01*
X94417Y-56901D01*
X94309Y-56856D01*
X94192Y-56856D01*
X94084Y-56901D01*
X94001Y-56983D01*
X93956Y-57091D01*
X93956Y-57208D01*
X94001Y-57316D01*
X94083Y-57399D01*
X94191Y-57444D01*
X94308Y-57444D01*
X94416Y-57399D01*
X94499Y-57317D01*
X94544Y-57209D01*
X94544Y-58705D01*
X93844Y-58705D01*
X93844Y-57209D01*
X93844Y-57092D01*
X93799Y-56984D01*
X93717Y-56901D01*
X93609Y-56856D01*
X93492Y-56856D01*
X93384Y-56901D01*
X93362Y-56921D01*
X93342Y-56901D01*
X93234Y-56856D01*
X93117Y-56856D01*
X93009Y-56901D01*
X92987Y-56921D01*
X92967Y-56901D01*
X92859Y-56856D01*
X92742Y-56856D01*
X92634Y-56901D01*
X92612Y-56921D01*
X92592Y-56901D01*
X92484Y-56856D01*
X92367Y-56856D01*
X92259Y-56901D01*
X92237Y-56921D01*
X92217Y-56901D01*
X92109Y-56856D01*
X91992Y-56856D01*
X91884Y-56901D01*
X91801Y-56983D01*
X91756Y-57091D01*
X91756Y-57208D01*
X91801Y-57316D01*
X91883Y-57399D01*
X91991Y-57444D01*
X92108Y-57444D01*
X92216Y-57399D01*
X92237Y-57378D01*
X92258Y-57399D01*
X92366Y-57444D01*
X92483Y-57444D01*
X92591Y-57399D01*
X92612Y-57378D01*
X92633Y-57399D01*
X92741Y-57444D01*
X92858Y-57444D01*
X92966Y-57399D01*
X92987Y-57378D01*
X93008Y-57399D01*
X93116Y-57444D01*
X93233Y-57444D01*
X93341Y-57399D01*
X93362Y-57378D01*
X93383Y-57399D01*
X93491Y-57444D01*
X93608Y-57444D01*
X93716Y-57399D01*
X93799Y-57317D01*
X93844Y-57209D01*
X93844Y-58705D01*
X91644Y-58705D01*
X91644Y-57209D01*
X91644Y-57092D01*
X91599Y-56984D01*
X91517Y-56901D01*
X91409Y-56856D01*
X91292Y-56856D01*
X91184Y-56901D01*
X91101Y-56983D01*
X91056Y-57091D01*
X91056Y-57208D01*
X91101Y-57316D01*
X91183Y-57399D01*
X91291Y-57444D01*
X91408Y-57444D01*
X91516Y-57399D01*
X91599Y-57317D01*
X91644Y-57209D01*
X91644Y-58705D01*
X91124Y-58705D01*
X91144Y-58659D01*
X91144Y-58542D01*
X91099Y-58434D01*
X91017Y-58351D01*
X90909Y-58306D01*
X90792Y-58306D01*
X90684Y-58351D01*
X90601Y-58433D01*
X90556Y-58541D01*
X90556Y-58658D01*
X90575Y-58705D01*
X89094Y-58705D01*
X89094Y-57309D01*
X89094Y-57192D01*
X89049Y-57084D01*
X88967Y-57001D01*
X88859Y-56956D01*
X88742Y-56956D01*
X88634Y-57001D01*
X88551Y-57083D01*
X88506Y-57191D01*
X88506Y-57308D01*
X88551Y-57416D01*
X88633Y-57499D01*
X88741Y-57544D01*
X88858Y-57544D01*
X88966Y-57499D01*
X89049Y-57417D01*
X89094Y-57309D01*
X89094Y-58705D01*
X87444Y-58705D01*
X87444Y-57484D01*
X87444Y-57367D01*
X87399Y-57259D01*
X87317Y-57176D01*
X87209Y-57131D01*
X87092Y-57131D01*
X87044Y-57151D01*
X87044Y-56609D01*
X87044Y-56492D01*
X86999Y-56384D01*
X86917Y-56301D01*
X86809Y-56256D01*
X86692Y-56256D01*
X86584Y-56301D01*
X86501Y-56383D01*
X86456Y-56491D01*
X86456Y-56608D01*
X86501Y-56716D01*
X86583Y-56799D01*
X86691Y-56844D01*
X86808Y-56844D01*
X86916Y-56799D01*
X86999Y-56717D01*
X87044Y-56609D01*
X87044Y-57151D01*
X86984Y-57176D01*
X86901Y-57258D01*
X86856Y-57366D01*
X86856Y-57483D01*
X86901Y-57591D01*
X86983Y-57674D01*
X87091Y-57719D01*
X87208Y-57719D01*
X87316Y-57674D01*
X87399Y-57592D01*
X87444Y-57484D01*
X87444Y-58705D01*
X85594Y-58705D01*
X85594Y-57659D01*
X85594Y-57542D01*
X85549Y-57434D01*
X85467Y-57351D01*
X85359Y-57306D01*
X85242Y-57306D01*
X85134Y-57351D01*
X85051Y-57433D01*
X85006Y-57541D01*
X85006Y-57658D01*
X85051Y-57766D01*
X85133Y-57849D01*
X85241Y-57894D01*
X85358Y-57894D01*
X85466Y-57849D01*
X85549Y-57767D01*
X85594Y-57659D01*
X85594Y-58705D01*
X84794Y-58705D01*
X84794Y-56959D01*
X84794Y-56842D01*
X84749Y-56734D01*
X84667Y-56651D01*
X84559Y-56606D01*
X84442Y-56606D01*
X84344Y-56646D01*
X84344Y-55859D01*
X84344Y-55742D01*
X84299Y-55634D01*
X84217Y-55551D01*
X84144Y-55520D01*
X84144Y-55442D01*
X84099Y-55334D01*
X84017Y-55251D01*
X83909Y-55206D01*
X83792Y-55206D01*
X83741Y-55226D01*
X83667Y-55151D01*
X83559Y-55106D01*
X83442Y-55106D01*
X83334Y-55151D01*
X83325Y-55159D01*
X83317Y-55151D01*
X83209Y-55106D01*
X83092Y-55106D01*
X82984Y-55151D01*
X82975Y-55159D01*
X82967Y-55151D01*
X82859Y-55106D01*
X82742Y-55106D01*
X82634Y-55151D01*
X82551Y-55233D01*
X82506Y-55341D01*
X82506Y-55456D01*
X82392Y-55456D01*
X82284Y-55501D01*
X82275Y-55509D01*
X82267Y-55501D01*
X82159Y-55456D01*
X82042Y-55456D01*
X81934Y-55501D01*
X81851Y-55583D01*
X81806Y-55691D01*
X81806Y-55808D01*
X81851Y-55916D01*
X81933Y-55999D01*
X82041Y-56044D01*
X82158Y-56044D01*
X82266Y-55999D01*
X82274Y-55990D01*
X82283Y-55999D01*
X82391Y-56044D01*
X82508Y-56044D01*
X82616Y-55999D01*
X82624Y-55990D01*
X82633Y-55999D01*
X82741Y-56044D01*
X82858Y-56044D01*
X82966Y-55999D01*
X83049Y-55917D01*
X83094Y-55809D01*
X83094Y-55694D01*
X83208Y-55694D01*
X83316Y-55649D01*
X83324Y-55640D01*
X83333Y-55649D01*
X83441Y-55694D01*
X83558Y-55694D01*
X83608Y-55673D01*
X83683Y-55749D01*
X83756Y-55779D01*
X83756Y-55858D01*
X83801Y-55966D01*
X83883Y-56049D01*
X83991Y-56094D01*
X84108Y-56094D01*
X84216Y-56049D01*
X84299Y-55967D01*
X84344Y-55859D01*
X84344Y-56646D01*
X84334Y-56651D01*
X84274Y-56709D01*
X84217Y-56651D01*
X84109Y-56606D01*
X83992Y-56606D01*
X83884Y-56651D01*
X83801Y-56733D01*
X83756Y-56841D01*
X83756Y-56958D01*
X83801Y-57066D01*
X83883Y-57149D01*
X83991Y-57194D01*
X84108Y-57194D01*
X84216Y-57149D01*
X84275Y-57090D01*
X84333Y-57149D01*
X84441Y-57194D01*
X84558Y-57194D01*
X84666Y-57149D01*
X84749Y-57067D01*
X84794Y-56959D01*
X84794Y-58705D01*
X82844Y-58705D01*
X82844Y-57009D01*
X82844Y-56892D01*
X82799Y-56784D01*
X82717Y-56701D01*
X82609Y-56656D01*
X82492Y-56656D01*
X82384Y-56701D01*
X82301Y-56783D01*
X82265Y-56868D01*
X80860Y-55463D01*
X80860Y-54055D01*
X80899Y-54017D01*
X80944Y-53909D01*
X80944Y-53792D01*
X80899Y-53684D01*
X80817Y-53601D01*
X80709Y-53556D01*
X80592Y-53556D01*
X80484Y-53601D01*
X80401Y-53683D01*
X80356Y-53791D01*
X80356Y-53908D01*
X80401Y-54016D01*
X80440Y-54055D01*
X80440Y-55550D01*
X80453Y-55617D01*
X80456Y-55631D01*
X80502Y-55698D01*
X82056Y-57252D01*
X82056Y-57308D01*
X82101Y-57416D01*
X82183Y-57499D01*
X82291Y-57544D01*
X82408Y-57544D01*
X82516Y-57499D01*
X82599Y-57417D01*
X82644Y-57309D01*
X82644Y-57229D01*
X82716Y-57199D01*
X82799Y-57117D01*
X82844Y-57009D01*
X82844Y-58705D01*
X81694Y-58705D01*
X81694Y-57359D01*
X81694Y-57242D01*
X81649Y-57134D01*
X81567Y-57051D01*
X81459Y-57006D01*
X81342Y-57006D01*
X81234Y-57051D01*
X81225Y-57059D01*
X81217Y-57051D01*
X81109Y-57006D01*
X80992Y-57006D01*
X80884Y-57051D01*
X80875Y-57059D01*
X80867Y-57051D01*
X80759Y-57006D01*
X80642Y-57006D01*
X80534Y-57051D01*
X80457Y-57126D01*
X80409Y-57106D01*
X80292Y-57106D01*
X80184Y-57151D01*
X80175Y-57159D01*
X80167Y-57151D01*
X80059Y-57106D01*
X79974Y-57106D01*
X79994Y-57059D01*
X79994Y-56942D01*
X79949Y-56834D01*
X79867Y-56751D01*
X79759Y-56706D01*
X79642Y-56706D01*
X79534Y-56751D01*
X79451Y-56833D01*
X79406Y-56941D01*
X79406Y-57058D01*
X79451Y-57166D01*
X79533Y-57249D01*
X79641Y-57294D01*
X79725Y-57294D01*
X79706Y-57341D01*
X79706Y-57458D01*
X79751Y-57566D01*
X79833Y-57649D01*
X79941Y-57694D01*
X80058Y-57694D01*
X80166Y-57649D01*
X80174Y-57640D01*
X80183Y-57649D01*
X80291Y-57694D01*
X80408Y-57694D01*
X80516Y-57649D01*
X80592Y-57573D01*
X80641Y-57594D01*
X80758Y-57594D01*
X80866Y-57549D01*
X80874Y-57540D01*
X80883Y-57549D01*
X80991Y-57594D01*
X81108Y-57594D01*
X81216Y-57549D01*
X81224Y-57540D01*
X81233Y-57549D01*
X81341Y-57594D01*
X81458Y-57594D01*
X81566Y-57549D01*
X81649Y-57467D01*
X81694Y-57359D01*
X81694Y-58705D01*
X80234Y-58705D01*
X80263Y-58652D01*
X80285Y-58579D01*
X80286Y-58577D01*
X80287Y-58576D01*
X80293Y-58508D01*
X80294Y-58501D01*
X80293Y-58500D01*
X80294Y-58500D01*
X80286Y-58424D01*
X80286Y-58422D01*
X80272Y-58378D01*
X80264Y-58351D01*
X80263Y-58349D01*
X80262Y-58348D01*
X80229Y-58283D01*
X80227Y-58281D01*
X80181Y-58223D01*
X80179Y-58222D01*
X80178Y-58221D01*
X80119Y-58172D01*
X80075Y-58148D01*
X80052Y-58136D01*
X79978Y-58114D01*
X79977Y-58114D01*
X79976Y-58113D01*
X79908Y-58106D01*
X79901Y-58106D01*
X79900Y-58106D01*
X79822Y-58114D01*
X79778Y-58127D01*
X79751Y-58136D01*
X79749Y-58136D01*
X79749Y-58137D01*
X79748Y-58137D01*
X79683Y-58171D01*
X79623Y-58219D01*
X79621Y-58221D01*
X79572Y-58281D01*
X79548Y-58324D01*
X79536Y-58348D01*
X79514Y-58421D01*
X79513Y-58424D01*
X79506Y-58492D01*
X79506Y-58499D01*
X79506Y-58500D01*
X79514Y-58578D01*
X79523Y-58609D01*
X79535Y-58648D01*
X79537Y-58651D01*
X79564Y-58705D01*
X78845Y-58705D01*
X78845Y-58009D01*
X78845Y-57941D01*
X78845Y-57391D01*
X78819Y-57329D01*
X78771Y-57281D01*
X78709Y-57255D01*
X78641Y-57255D01*
X78294Y-57255D01*
X78294Y-54959D01*
X78294Y-54842D01*
X78249Y-54734D01*
X78167Y-54651D01*
X78059Y-54606D01*
X77942Y-54606D01*
X77834Y-54651D01*
X77751Y-54733D01*
X77706Y-54841D01*
X77706Y-54958D01*
X77751Y-55066D01*
X77833Y-55149D01*
X77941Y-55194D01*
X78058Y-55194D01*
X78166Y-55149D01*
X78249Y-55067D01*
X78294Y-54959D01*
X78294Y-57255D01*
X78091Y-57255D01*
X78029Y-57281D01*
X77981Y-57329D01*
X77955Y-57391D01*
X77955Y-57459D01*
X77955Y-58009D01*
X77981Y-58071D01*
X78029Y-58119D01*
X78091Y-58145D01*
X78159Y-58145D01*
X78709Y-58145D01*
X78771Y-58119D01*
X78819Y-58071D01*
X78845Y-58009D01*
X78845Y-58705D01*
X77844Y-58705D01*
X77844Y-57789D01*
X77844Y-57612D01*
X77777Y-57449D01*
X77652Y-57324D01*
X77489Y-57256D01*
X77312Y-57256D01*
X77149Y-57323D01*
X77024Y-57448D01*
X76956Y-57611D01*
X76956Y-57788D01*
X77023Y-57951D01*
X77148Y-58076D01*
X77311Y-58144D01*
X77488Y-58144D01*
X77651Y-58077D01*
X77776Y-57952D01*
X77844Y-57789D01*
X77844Y-58705D01*
X76794Y-58705D01*
X76794Y-55309D01*
X76794Y-55192D01*
X76749Y-55084D01*
X76667Y-55001D01*
X76559Y-54956D01*
X76442Y-54956D01*
X76391Y-54976D01*
X76391Y-42639D01*
X76391Y-42638D01*
X76391Y-42562D01*
X76391Y-42561D01*
X76353Y-42372D01*
X76353Y-42371D01*
X76324Y-42301D01*
X76324Y-42300D01*
X76322Y-42298D01*
X76217Y-42138D01*
X76163Y-42084D01*
X76161Y-42083D01*
X75999Y-41975D01*
X75928Y-41947D01*
X75738Y-41909D01*
X75662Y-41909D01*
X75661Y-41909D01*
X75471Y-41947D01*
X75400Y-41976D01*
X75398Y-41977D01*
X75238Y-42083D01*
X75184Y-42137D01*
X75183Y-42138D01*
X75183Y-42139D01*
X75075Y-42301D01*
X75047Y-42372D01*
X75009Y-42562D01*
X75009Y-42638D01*
X75047Y-42828D01*
X75075Y-42899D01*
X75183Y-43061D01*
X75184Y-43063D01*
X75238Y-43117D01*
X75398Y-43222D01*
X75400Y-43224D01*
X75401Y-43224D01*
X75471Y-43253D01*
X75472Y-43253D01*
X75661Y-43291D01*
X75662Y-43291D01*
X75738Y-43291D01*
X75928Y-43253D01*
X75999Y-43225D01*
X75999Y-43224D01*
X76161Y-43117D01*
X76161Y-43116D01*
X76163Y-43116D01*
X76215Y-43063D01*
X76217Y-43062D01*
X76322Y-42901D01*
X76324Y-42900D01*
X76324Y-42899D01*
X76353Y-42829D01*
X76353Y-42828D01*
X76391Y-42639D01*
X76391Y-54976D01*
X76344Y-54996D01*
X76344Y-54912D01*
X76344Y-52789D01*
X76344Y-52612D01*
X76277Y-52449D01*
X76194Y-52366D01*
X76194Y-50359D01*
X76194Y-50242D01*
X76149Y-50134D01*
X76140Y-50125D01*
X76149Y-50117D01*
X76194Y-50009D01*
X76194Y-49892D01*
X76149Y-49784D01*
X76067Y-49701D01*
X75973Y-49661D01*
X75973Y-49064D01*
X75972Y-49063D01*
X75973Y-49062D01*
X75963Y-48993D01*
X75962Y-48991D01*
X75938Y-48920D01*
X75937Y-48919D01*
X75936Y-48918D01*
X75902Y-48862D01*
X75902Y-48861D01*
X75901Y-48860D01*
X75851Y-48804D01*
X75850Y-48803D01*
X75849Y-48802D01*
X75796Y-48763D01*
X75795Y-48762D01*
X75760Y-48745D01*
X75727Y-48729D01*
X75660Y-48711D01*
X75583Y-48707D01*
X75582Y-48707D01*
X75513Y-48717D01*
X75440Y-48742D01*
X75438Y-48743D01*
X75382Y-48777D01*
X75381Y-48778D01*
X75344Y-48811D01*
X75344Y-47709D01*
X75344Y-47592D01*
X75299Y-47484D01*
X75217Y-47401D01*
X75109Y-47356D01*
X74992Y-47356D01*
X74884Y-47401D01*
X74801Y-47483D01*
X74756Y-47591D01*
X74756Y-47708D01*
X74801Y-47816D01*
X74883Y-47899D01*
X74991Y-47944D01*
X75108Y-47944D01*
X75216Y-47899D01*
X75299Y-47817D01*
X75344Y-47709D01*
X75344Y-48811D01*
X75324Y-48829D01*
X75323Y-48829D01*
X75323Y-48830D01*
X75322Y-48830D01*
X75282Y-48885D01*
X75265Y-48920D01*
X75249Y-48953D01*
X75231Y-49020D01*
X75227Y-49097D01*
X75237Y-49167D01*
X75237Y-49168D01*
X75246Y-49193D01*
X75262Y-49239D01*
X75263Y-49240D01*
X75298Y-49300D01*
X75322Y-49326D01*
X75349Y-49356D01*
X75350Y-49356D01*
X75404Y-49397D01*
X75405Y-49398D01*
X75428Y-49409D01*
X75472Y-49431D01*
X75474Y-49431D01*
X75537Y-49447D01*
X75540Y-49448D01*
X75541Y-49449D01*
X75612Y-49452D01*
X75616Y-49453D01*
X75616Y-49452D01*
X75617Y-49453D01*
X75687Y-49443D01*
X75687Y-49442D01*
X75688Y-49443D01*
X75713Y-49433D01*
X75759Y-49418D01*
X75760Y-49417D01*
X75760Y-49416D01*
X75819Y-49382D01*
X75820Y-49382D01*
X75846Y-49357D01*
X75876Y-49331D01*
X75876Y-49330D01*
X75917Y-49276D01*
X75918Y-49275D01*
X75929Y-49252D01*
X75951Y-49208D01*
X75951Y-49206D01*
X75967Y-49140D01*
X75968Y-49140D01*
X75969Y-49138D01*
X75972Y-49072D01*
X75973Y-49064D01*
X75973Y-49661D01*
X75959Y-49656D01*
X75842Y-49656D01*
X75734Y-49701D01*
X75651Y-49783D01*
X75606Y-49891D01*
X75606Y-50008D01*
X75651Y-50116D01*
X75659Y-50124D01*
X75651Y-50133D01*
X75606Y-50241D01*
X75606Y-50358D01*
X75643Y-50448D01*
X75625Y-50445D01*
X75623Y-50445D01*
X75622Y-50445D01*
X75554Y-50447D01*
X75552Y-50447D01*
X75551Y-50447D01*
X75509Y-50456D01*
X75479Y-50464D01*
X75477Y-50464D01*
X75477Y-50465D01*
X75412Y-50495D01*
X75372Y-50524D01*
X75353Y-50537D01*
X75350Y-50539D01*
X75350Y-50540D01*
X75349Y-50540D01*
X75304Y-50588D01*
X75263Y-50652D01*
X75262Y-50653D01*
X75262Y-50655D01*
X75237Y-50722D01*
X75229Y-50771D01*
X75225Y-50795D01*
X75225Y-50796D01*
X75225Y-50797D01*
X75227Y-50866D01*
X75227Y-50868D01*
X75235Y-50902D01*
X75244Y-50941D01*
X75244Y-50942D01*
X75245Y-50943D01*
X75272Y-51001D01*
X75273Y-51004D01*
X75274Y-51006D01*
X75275Y-51007D01*
X75277Y-51010D01*
X75317Y-51067D01*
X75320Y-51069D01*
X75367Y-51115D01*
X75369Y-51116D01*
X75370Y-51117D01*
X75432Y-51156D01*
X75435Y-51158D01*
X75500Y-51182D01*
X75501Y-51183D01*
X75554Y-51191D01*
X75575Y-51195D01*
X75576Y-51194D01*
X75577Y-51195D01*
X75577Y-51194D01*
X75646Y-51193D01*
X75646Y-51192D01*
X75648Y-51193D01*
X75682Y-51184D01*
X75721Y-51176D01*
X75722Y-51175D01*
X75723Y-51175D01*
X75781Y-51147D01*
X75784Y-51147D01*
X75786Y-51145D01*
X75787Y-51145D01*
X75790Y-51142D01*
X75847Y-51103D01*
X75849Y-51100D01*
X75895Y-51053D01*
X75896Y-51050D01*
X75897Y-51050D01*
X75936Y-50988D01*
X75938Y-50985D01*
X75962Y-50920D01*
X75963Y-50919D01*
X75971Y-50865D01*
X75975Y-50845D01*
X75974Y-50843D01*
X75975Y-50843D01*
X75974Y-50842D01*
X75973Y-50774D01*
X75972Y-50772D01*
X75973Y-50771D01*
X75963Y-50729D01*
X75956Y-50699D01*
X75955Y-50697D01*
X75926Y-50636D01*
X75925Y-50632D01*
X75897Y-50594D01*
X75958Y-50594D01*
X76066Y-50549D01*
X76149Y-50467D01*
X76194Y-50359D01*
X76194Y-52366D01*
X76152Y-52324D01*
X75989Y-52256D01*
X75812Y-52256D01*
X75649Y-52323D01*
X75524Y-52448D01*
X75456Y-52611D01*
X75456Y-52788D01*
X75523Y-52951D01*
X75648Y-53076D01*
X75811Y-53144D01*
X75988Y-53144D01*
X76151Y-53077D01*
X76276Y-52952D01*
X76344Y-52789D01*
X76344Y-54912D01*
X76277Y-54749D01*
X76152Y-54624D01*
X75989Y-54556D01*
X75812Y-54556D01*
X75649Y-54623D01*
X75524Y-54748D01*
X75456Y-54911D01*
X75456Y-55088D01*
X75523Y-55251D01*
X75648Y-55376D01*
X75811Y-55444D01*
X75988Y-55444D01*
X76151Y-55377D01*
X76210Y-55317D01*
X76251Y-55416D01*
X76333Y-55499D01*
X76441Y-55544D01*
X76558Y-55544D01*
X76666Y-55499D01*
X76749Y-55417D01*
X76794Y-55309D01*
X76794Y-58705D01*
X76391Y-58705D01*
X76391Y-57239D01*
X76391Y-57238D01*
X76391Y-57162D01*
X76391Y-57161D01*
X76353Y-56972D01*
X76353Y-56971D01*
X76324Y-56901D01*
X76324Y-56900D01*
X76322Y-56898D01*
X76217Y-56738D01*
X76163Y-56684D01*
X76161Y-56683D01*
X75999Y-56575D01*
X75928Y-56547D01*
X75738Y-56509D01*
X75662Y-56509D01*
X75661Y-56509D01*
X75471Y-56547D01*
X75400Y-56576D01*
X75398Y-56577D01*
X75345Y-56612D01*
X75345Y-55309D01*
X75345Y-55241D01*
X75345Y-54691D01*
X75345Y-53009D01*
X75345Y-52941D01*
X75345Y-52391D01*
X75319Y-52329D01*
X75271Y-52281D01*
X75209Y-52255D01*
X75141Y-52255D01*
X74591Y-52255D01*
X74529Y-52281D01*
X74481Y-52329D01*
X74455Y-52391D01*
X74455Y-52459D01*
X74455Y-53009D01*
X74481Y-53071D01*
X74529Y-53119D01*
X74591Y-53145D01*
X74659Y-53145D01*
X75209Y-53145D01*
X75271Y-53119D01*
X75319Y-53071D01*
X75345Y-53009D01*
X75345Y-54691D01*
X75319Y-54629D01*
X75271Y-54581D01*
X75209Y-54555D01*
X75141Y-54555D01*
X74591Y-54555D01*
X74529Y-54581D01*
X74481Y-54629D01*
X74455Y-54691D01*
X74455Y-54759D01*
X74455Y-55309D01*
X74481Y-55371D01*
X74529Y-55419D01*
X74591Y-55445D01*
X74659Y-55445D01*
X75209Y-55445D01*
X75271Y-55419D01*
X75319Y-55371D01*
X75345Y-55309D01*
X75345Y-56612D01*
X75238Y-56683D01*
X75184Y-56737D01*
X75183Y-56738D01*
X75183Y-56739D01*
X75075Y-56901D01*
X75047Y-56972D01*
X75009Y-57162D01*
X75009Y-57238D01*
X75047Y-57428D01*
X75075Y-57499D01*
X75183Y-57661D01*
X75184Y-57663D01*
X75238Y-57717D01*
X75398Y-57822D01*
X75400Y-57824D01*
X75401Y-57824D01*
X75471Y-57853D01*
X75472Y-57853D01*
X75661Y-57891D01*
X75662Y-57891D01*
X75738Y-57891D01*
X75928Y-57853D01*
X75999Y-57825D01*
X75999Y-57824D01*
X76161Y-57717D01*
X76161Y-57716D01*
X76163Y-57716D01*
X76215Y-57663D01*
X76217Y-57662D01*
X76322Y-57501D01*
X76324Y-57500D01*
X76324Y-57499D01*
X76353Y-57429D01*
X76353Y-57428D01*
X76391Y-57239D01*
X76391Y-58705D01*
X74245Y-58705D01*
X74245Y-41195D01*
X76990Y-41195D01*
X76952Y-41233D01*
X76880Y-41406D01*
X76880Y-41593D01*
X76951Y-41766D01*
X77083Y-41898D01*
X77256Y-41970D01*
X77443Y-41970D01*
X77616Y-41899D01*
X77748Y-41767D01*
X77820Y-41594D01*
X77820Y-41407D01*
X77749Y-41234D01*
X77710Y-41195D01*
X77990Y-41195D01*
X77952Y-41233D01*
X77880Y-41406D01*
X77880Y-41593D01*
X77951Y-41766D01*
X78083Y-41898D01*
X78256Y-41970D01*
X78443Y-41970D01*
X78616Y-41899D01*
X78748Y-41767D01*
X78820Y-41594D01*
X78820Y-41407D01*
X78749Y-41234D01*
X78710Y-41195D01*
X78990Y-41195D01*
X78952Y-41233D01*
X78880Y-41406D01*
X78880Y-41593D01*
X78951Y-41766D01*
X79083Y-41898D01*
X79256Y-41970D01*
X79443Y-41970D01*
X79616Y-41899D01*
X79748Y-41767D01*
X79820Y-41594D01*
X79820Y-41407D01*
X79749Y-41234D01*
X79710Y-41195D01*
X79990Y-41195D01*
X79952Y-41233D01*
X79880Y-41406D01*
X79880Y-41593D01*
X79951Y-41766D01*
X80083Y-41898D01*
X80256Y-41970D01*
X80443Y-41970D01*
X80616Y-41899D01*
X80748Y-41767D01*
X80820Y-41594D01*
X80820Y-41407D01*
X80749Y-41234D01*
X80710Y-41195D01*
X80990Y-41195D01*
X80952Y-41233D01*
X80880Y-41406D01*
X80880Y-41593D01*
X80951Y-41766D01*
X81083Y-41898D01*
X81256Y-41970D01*
X81443Y-41970D01*
X81616Y-41899D01*
X81748Y-41767D01*
X81820Y-41594D01*
X81820Y-41407D01*
X81749Y-41234D01*
X81710Y-41195D01*
X81990Y-41195D01*
X81952Y-41233D01*
X81880Y-41406D01*
X81880Y-41593D01*
X81951Y-41766D01*
X82083Y-41898D01*
X82256Y-41970D01*
X82443Y-41970D01*
X82616Y-41899D01*
X82748Y-41767D01*
X82820Y-41594D01*
X82820Y-41407D01*
X82749Y-41234D01*
X82710Y-41195D01*
X82990Y-41195D01*
X82952Y-41233D01*
X82880Y-41406D01*
X82880Y-41593D01*
X82951Y-41766D01*
X83083Y-41898D01*
X83256Y-41970D01*
X83443Y-41970D01*
X83616Y-41899D01*
X83748Y-41767D01*
X83820Y-41594D01*
X83820Y-41407D01*
X83749Y-41234D01*
X83710Y-41195D01*
X83990Y-41195D01*
X83952Y-41233D01*
X83880Y-41406D01*
X83880Y-41593D01*
X83951Y-41766D01*
X84083Y-41898D01*
X84256Y-41970D01*
X84443Y-41970D01*
X84616Y-41899D01*
X84748Y-41767D01*
X84820Y-41594D01*
X84820Y-41407D01*
X84749Y-41234D01*
X84710Y-41195D01*
X84990Y-41195D01*
X84952Y-41233D01*
X84880Y-41406D01*
X84880Y-41593D01*
X84951Y-41766D01*
X85083Y-41898D01*
X85256Y-41970D01*
X85443Y-41970D01*
X85616Y-41899D01*
X85748Y-41767D01*
X85820Y-41594D01*
X85820Y-41407D01*
X85749Y-41234D01*
X85710Y-41195D01*
X85990Y-41195D01*
X85952Y-41233D01*
X85880Y-41406D01*
X85880Y-41593D01*
X85951Y-41766D01*
X86083Y-41898D01*
X86256Y-41970D01*
X86443Y-41970D01*
X86616Y-41899D01*
X86748Y-41767D01*
X86820Y-41594D01*
X86820Y-41407D01*
X86749Y-41234D01*
X86710Y-41195D01*
X86990Y-41195D01*
X86952Y-41233D01*
X86880Y-41406D01*
X86880Y-41593D01*
X86951Y-41766D01*
X87083Y-41898D01*
X87256Y-41970D01*
X87443Y-41970D01*
X87616Y-41899D01*
X87748Y-41767D01*
X87820Y-41594D01*
X87820Y-41407D01*
X87749Y-41234D01*
X87710Y-41195D01*
X87990Y-41195D01*
X87952Y-41233D01*
X87880Y-41406D01*
X87880Y-41593D01*
X87951Y-41766D01*
X88083Y-41898D01*
X88256Y-41970D01*
X88443Y-41970D01*
X88616Y-41899D01*
X88748Y-41767D01*
X88820Y-41594D01*
X88820Y-41407D01*
X88749Y-41234D01*
X88710Y-41195D01*
X88990Y-41195D01*
X88952Y-41233D01*
X88880Y-41406D01*
X88880Y-41593D01*
X88951Y-41766D01*
X89083Y-41898D01*
X89256Y-41970D01*
X89443Y-41970D01*
X89616Y-41899D01*
X89748Y-41767D01*
X89820Y-41594D01*
X89820Y-41407D01*
X89749Y-41234D01*
X89710Y-41195D01*
X89990Y-41195D01*
X89952Y-41233D01*
X89880Y-41406D01*
X89880Y-41593D01*
X89951Y-41766D01*
X90083Y-41898D01*
X90256Y-41970D01*
X90443Y-41970D01*
X90616Y-41899D01*
X90748Y-41767D01*
X90820Y-41594D01*
X90820Y-41407D01*
X90749Y-41234D01*
X90710Y-41195D01*
X90990Y-41195D01*
X90952Y-41233D01*
X90880Y-41406D01*
X90880Y-41593D01*
X90951Y-41766D01*
X91083Y-41898D01*
X91256Y-41970D01*
X91443Y-41970D01*
X91616Y-41899D01*
X91748Y-41767D01*
X91820Y-41594D01*
X91820Y-41407D01*
X91749Y-41234D01*
X91710Y-41195D01*
X91990Y-41195D01*
X91952Y-41233D01*
X91880Y-41406D01*
X91880Y-41593D01*
X91951Y-41766D01*
X92083Y-41898D01*
X92256Y-41970D01*
X92443Y-41970D01*
X92616Y-41899D01*
X92748Y-41767D01*
X92820Y-41594D01*
X92820Y-41407D01*
X92749Y-41234D01*
X92710Y-41195D01*
X92990Y-41195D01*
X92952Y-41233D01*
X92880Y-41406D01*
X92880Y-41593D01*
X92951Y-41766D01*
X93083Y-41898D01*
X93256Y-41970D01*
X93443Y-41970D01*
X93616Y-41899D01*
X93748Y-41767D01*
X93820Y-41594D01*
X93820Y-41407D01*
X93749Y-41234D01*
X93710Y-41195D01*
X93990Y-41195D01*
X93952Y-41233D01*
X93880Y-41406D01*
X93880Y-41593D01*
X93951Y-41766D01*
X94083Y-41898D01*
X94256Y-41970D01*
X94443Y-41970D01*
X94616Y-41899D01*
X94748Y-41767D01*
X94820Y-41594D01*
X94820Y-41407D01*
X94749Y-41234D01*
X94710Y-41195D01*
X94990Y-41195D01*
X94952Y-41233D01*
X94880Y-41406D01*
X94880Y-41593D01*
X94951Y-41766D01*
X95083Y-41898D01*
X95256Y-41970D01*
X95443Y-41970D01*
X95616Y-41899D01*
X95748Y-41767D01*
X95820Y-41594D01*
X95820Y-41407D01*
X95749Y-41234D01*
X95710Y-41195D01*
X95990Y-41195D01*
X95952Y-41233D01*
X95880Y-41406D01*
X95880Y-41593D01*
X95951Y-41766D01*
X96083Y-41898D01*
X96256Y-41970D01*
X96443Y-41970D01*
X96616Y-41899D01*
X96748Y-41767D01*
X96820Y-41594D01*
X96820Y-41407D01*
X96749Y-41234D01*
X96710Y-41195D01*
X96990Y-41195D01*
X96952Y-41233D01*
X96880Y-41406D01*
X96880Y-41593D01*
X96951Y-41766D01*
X97083Y-41898D01*
X97256Y-41970D01*
X97443Y-41970D01*
X97616Y-41899D01*
X97748Y-41767D01*
X97820Y-41594D01*
X97820Y-41407D01*
X97749Y-41234D01*
X97710Y-41195D01*
X97990Y-41195D01*
X97952Y-41233D01*
X97880Y-41406D01*
X97880Y-41593D01*
X97951Y-41766D01*
X98083Y-41898D01*
X98256Y-41970D01*
X98443Y-41970D01*
X98616Y-41899D01*
X98748Y-41767D01*
X98820Y-41594D01*
X98820Y-41407D01*
X98749Y-41234D01*
X98710Y-41195D01*
X98990Y-41195D01*
X98952Y-41233D01*
X98880Y-41406D01*
X98880Y-41593D01*
X98951Y-41766D01*
X99083Y-41898D01*
X99256Y-41970D01*
X99443Y-41970D01*
X99616Y-41899D01*
X99748Y-41767D01*
X99820Y-41594D01*
X99820Y-41407D01*
X99749Y-41234D01*
X99710Y-41195D01*
X99990Y-41195D01*
X99952Y-41233D01*
X99880Y-41406D01*
X99880Y-41593D01*
X99951Y-41766D01*
X100083Y-41898D01*
X100256Y-41970D01*
X100443Y-41970D01*
X100616Y-41899D01*
X100748Y-41767D01*
X100820Y-41594D01*
X100820Y-41407D01*
X100749Y-41234D01*
X100710Y-41195D01*
X100990Y-41195D01*
X100952Y-41233D01*
X100880Y-41406D01*
X100880Y-41593D01*
X100951Y-41766D01*
X101083Y-41898D01*
X101256Y-41970D01*
X101443Y-41970D01*
X101616Y-41899D01*
X101748Y-41767D01*
X101816Y-41602D01*
X101818Y-41634D01*
X101878Y-41781D01*
X101972Y-41808D01*
X102244Y-41535D01*
X102279Y-41500D01*
X102350Y-41429D01*
X102421Y-41500D01*
X102456Y-41535D01*
X102728Y-41808D01*
X102822Y-41781D01*
X102893Y-41579D01*
X102882Y-41366D01*
X102822Y-41219D01*
X102783Y-41207D01*
X102796Y-41195D01*
X105455Y-41195D01*
X105455Y-58705D01*
M02*
