M48
;DRILL file {Pcbnew (2012-01-19 BZR 3256)-stable} date 22/03/2013 00:28:47
;FORMAT={-:-/ absolute / inch / decimal}
FMAT,2
INCH,TZ
T1C0.015
T2C0.032
T3C0.035
T4C0.040
%
G90
G05
M72
T1
X7.505Y4.765
X7.590Y4.995
X7.590Y5.030
X7.645Y5.475
X7.650Y5.525
X7.680Y4.445
X7.760Y5.120
X7.795Y5.120
X7.800Y5.080
X7.800Y5.450
X7.800Y5.490
X7.810Y4.980
X7.815Y4.885
X7.835Y4.450
X7.870Y4.450
X7.875Y4.650
X7.900Y4.835
X7.905Y4.450
X7.910Y5.590
X7.920Y5.035
X7.920Y5.150
X7.925Y4.880
X7.930Y4.915
X7.930Y4.950
X7.940Y4.450
X7.950Y5.055
X7.950Y5.130
X7.970Y5.700
X7.980Y5.075
X7.980Y5.110
X7.985Y5.590
X8.000Y5.740
X8.035Y5.150
X8.035Y5.740
X8.040Y4.450
X8.065Y4.895
X8.065Y4.930
X8.065Y5.085
X8.065Y5.385
X8.070Y5.730
X8.075Y4.450
X8.105Y5.730
X8.110Y4.450
X8.140Y5.730
X8.145Y4.450
X8.180Y5.590
X8.185Y4.450
X8.200Y5.185
X8.210Y4.825
X8.210Y5.575
X8.220Y4.450
X8.225Y5.155
X8.235Y5.725
X8.245Y5.575
X8.250Y4.825
X8.255Y4.450
X8.255Y5.135
X8.255Y5.170
X8.255Y5.205
X8.255Y5.695
X8.270Y4.730
X8.280Y5.540
X8.280Y5.575
X8.285Y5.455
X8.290Y4.450
X8.290Y4.825
X8.295Y4.980
X8.315Y5.540
X8.330Y4.450
X8.330Y4.985
X8.335Y5.110
X8.350Y5.540
X8.350Y5.715
X8.365Y4.450
X8.370Y4.950
X8.370Y5.110
X8.385Y5.550
X8.390Y5.175
X8.395Y4.850
X8.395Y4.900
X8.400Y4.450
X8.405Y5.580
X8.405Y5.690
X8.410Y4.730
X8.415Y5.150
X8.415Y5.425
X8.420Y4.875
X8.420Y4.925
X8.425Y4.825
X8.435Y4.450
X8.450Y4.730
X8.450Y5.060
X8.450Y5.690
X8.475Y4.830
X8.475Y5.490
X8.480Y5.025
X8.485Y5.075
X8.490Y4.730
X8.495Y4.400
X8.495Y5.590
X8.525Y4.730
X8.530Y5.590
X8.530Y5.760
X8.555Y5.030
X8.560Y5.575
X8.565Y4.450
X8.575Y5.410
X8.600Y4.450
X8.600Y5.435
X8.630Y5.125
X8.630Y5.160
X8.635Y4.450
X8.670Y5.420
X8.675Y4.770
X8.675Y5.655
X8.680Y5.075
X8.710Y4.775
X8.715Y5.743
X8.730Y4.450
X8.745Y4.835
X8.750Y5.600
X8.765Y4.450
X8.785Y5.560
X8.785Y5.595
X8.790Y5.055
X8.790Y5.110
X8.800Y4.450
X8.815Y5.155
X8.820Y5.090
X8.825Y5.055
X8.825Y5.350
X8.825Y5.530
X8.830Y5.630
X8.850Y5.560
X8.860Y5.055
X8.865Y5.530
X8.870Y4.380
X8.880Y5.725
X8.890Y4.715
X8.895Y4.355
X8.895Y5.055
X8.905Y4.745
X8.905Y4.820
X8.905Y4.855
X8.910Y4.785
X8.930Y4.450
X8.965Y4.450
X9.000Y4.450
X9.035Y4.450
X9.035Y4.730
X9.035Y4.765
X9.035Y4.805
X9.035Y4.840
X9.065Y4.655
X9.085Y5.860
X9.090Y4.680
X9.115Y4.705
X9.130Y4.450
X9.135Y5.715
X9.150Y4.600
X9.150Y4.635
X9.150Y4.670
X9.165Y4.450
X9.200Y4.450
X9.200Y4.600
X9.205Y5.715
X9.215Y4.790
X9.225Y4.625
X9.235Y4.450
X9.240Y4.815
X9.242Y5.715
X9.280Y4.630
X9.280Y5.715
X9.305Y4.655
X9.318Y5.715
X9.330Y4.450
X9.330Y4.680
X9.345Y5.460
X9.355Y4.705
X9.355Y5.715
X9.365Y4.450
X9.380Y4.750
X9.400Y4.450
X9.405Y4.775
X9.425Y5.715
X9.430Y4.800
X9.435Y4.450
X9.455Y4.825
X9.470Y5.860
X9.480Y4.955
X9.495Y5.715
X9.515Y4.955
X9.530Y4.450
X9.545Y5.055
X9.565Y4.450
X9.565Y5.715
X9.570Y4.725
X9.580Y5.070
X9.600Y4.450
X9.605Y4.720
X9.610Y5.140
X9.615Y5.065
X9.630Y4.695
X9.635Y4.450
X9.635Y5.715
X9.640Y5.125
X9.650Y4.830
X9.650Y4.890
X9.650Y4.980
X9.650Y5.015
X9.655Y4.670
X9.655Y4.945
X9.660Y5.095
X9.673Y5.715
X9.675Y4.855
X9.675Y4.915
X9.680Y5.040
X9.685Y4.450
X9.710Y5.715
X9.725Y5.220
X9.730Y4.450
X9.765Y4.450
X9.800Y4.450
X9.825Y4.615
X9.825Y4.650
X9.825Y4.685
X9.825Y4.720
X9.825Y4.755
X9.825Y4.790
X9.825Y4.825
X9.825Y4.860
X9.825Y4.895
X9.825Y4.930
X9.825Y5.735
X9.835Y4.450
X9.850Y4.480
X9.870Y4.795
X9.875Y4.455
X9.875Y4.505
X9.880Y4.595
X9.905Y4.695
X9.910Y4.795
X9.910Y4.895
X9.910Y4.995
X9.910Y5.095
X9.910Y5.195
X9.910Y5.295
X9.910Y5.395
X9.925Y4.435
X9.940Y4.695
X9.940Y5.495
X9.950Y4.300
X9.995Y5.000
X10.120Y4.460
X10.190Y4.460
T2
X7.490Y5.270
X7.490Y5.500
X7.590Y5.270
X7.590Y5.500
X7.735Y4.150
X7.735Y4.250
X7.740Y5.770
X7.835Y4.150
X7.835Y4.250
X7.840Y5.770
X7.935Y4.150
X7.935Y4.250
X8.035Y4.150
X8.035Y4.250
X8.135Y4.150
X8.135Y4.250
X8.235Y4.150
X8.235Y4.250
X8.335Y4.150
X8.335Y4.250
X8.435Y4.150
X8.435Y4.250
X8.535Y4.150
X8.535Y4.250
X8.635Y4.150
X8.635Y4.250
X8.735Y4.150
X8.735Y4.250
X8.835Y4.150
X8.835Y4.250
X8.935Y4.150
X8.935Y4.250
X9.035Y4.150
X9.035Y4.250
X9.135Y4.150
X9.135Y4.250
X9.235Y4.150
X9.235Y4.250
X9.335Y4.150
X9.335Y4.250
X9.435Y4.150
X9.435Y4.250
X9.535Y4.150
X9.535Y4.250
X9.635Y4.150
X9.635Y4.250
X9.735Y4.150
X9.735Y4.250
X9.835Y4.150
X9.835Y4.250
X9.935Y4.150
X9.935Y4.250
X10.035Y4.150
X10.035Y4.250
X10.135Y4.150
X10.135Y4.250
X10.235Y4.150
X10.235Y4.250
T3
X10.026Y5.610
X10.026Y5.780
X10.150Y4.545
X10.150Y4.645
X10.150Y4.745
X10.150Y4.845
X10.150Y4.945
X10.150Y5.045
X10.150Y5.145
X10.150Y5.245
X10.150Y5.345
X10.150Y5.445
X10.234Y5.610
X10.234Y5.780
X10.250Y4.545
X10.250Y4.645
X10.250Y4.745
X10.250Y4.845
X10.250Y4.945
X10.250Y5.045
X10.250Y5.145
X10.250Y5.245
X10.250Y5.345
X10.250Y5.445
T4
X7.760Y4.370
X7.760Y4.470
X7.760Y4.570
X7.760Y4.670
X7.760Y4.770
T0
M30
