G04 (created by PCBNEW-RS274X (2012-01-19 BZR 3256)-stable) date 22/03/2012 17:56:24*
G01*
G70*
G90*
%MOIN*%
G04 Gerber Fmt 3.4, Leading zero omitted, Abs format*
%FSLAX34Y34*%
G04 APERTURE LIST*
%ADD10C,0.006000*%
%ADD11R,0.035000X0.045000*%
%ADD12R,0.045000X0.035000*%
%ADD13R,0.120000X0.055000*%
%ADD14O,0.120000X0.055000*%
%ADD15O,0.060000X0.160000*%
%ADD16R,0.057200X0.011800*%
%ADD17R,0.011800X0.057200*%
%ADD18R,0.055000X0.035000*%
%ADD19C,0.060000*%
%ADD20R,0.045000X0.020000*%
%ADD21R,0.157500X0.078700*%
%ADD22C,0.035000*%
%ADD23C,0.008000*%
%ADD24C,0.010000*%
G04 APERTURE END LIST*
G54D10*
G54D11*
X89100Y-66500D03*
X88400Y-66500D03*
G54D12*
X91500Y-67850D03*
X91500Y-67150D03*
X86600Y-59650D03*
X86600Y-58950D03*
X87350Y-59650D03*
X87350Y-58950D03*
X88100Y-59650D03*
X88100Y-58950D03*
X90750Y-67850D03*
X90750Y-67150D03*
G54D11*
X82300Y-65500D03*
X81600Y-65500D03*
G54D12*
X87700Y-66500D03*
X87700Y-65800D03*
G54D11*
X81650Y-60850D03*
X82350Y-60850D03*
G54D13*
X80650Y-61050D03*
G54D14*
X80650Y-62050D03*
X80650Y-63050D03*
X80650Y-64050D03*
X80650Y-65050D03*
G54D15*
X90950Y-69200D03*
X89950Y-69200D03*
X88950Y-69200D03*
X87950Y-69200D03*
X86950Y-69200D03*
X85950Y-69200D03*
X84950Y-69200D03*
X83950Y-69200D03*
X82950Y-69200D03*
X81950Y-69200D03*
G54D16*
X83117Y-64633D03*
X83117Y-64436D03*
X83117Y-64239D03*
X83117Y-64042D03*
X83117Y-63845D03*
X83117Y-63648D03*
X83117Y-64830D03*
X83117Y-65026D03*
G54D17*
X84711Y-65833D03*
X84908Y-65833D03*
X85105Y-65833D03*
G54D16*
X87683Y-62861D03*
X87683Y-62664D03*
X87683Y-62467D03*
X87683Y-62270D03*
X87683Y-62074D03*
G54D17*
X86089Y-61267D03*
G54D16*
X87683Y-63058D03*
X87683Y-63255D03*
X87683Y-63452D03*
X87683Y-63648D03*
X87683Y-63845D03*
G54D17*
X84908Y-61267D03*
X86286Y-65833D03*
X85105Y-61267D03*
X86483Y-65833D03*
X86680Y-65833D03*
X85302Y-61267D03*
X85498Y-61267D03*
X86876Y-65833D03*
G54D16*
X87683Y-64239D03*
G54D17*
X85695Y-61267D03*
X85892Y-61267D03*
G54D16*
X87683Y-64042D03*
G54D17*
X86089Y-65833D03*
X84711Y-61267D03*
X84514Y-61267D03*
X85892Y-65833D03*
X85695Y-65833D03*
X84317Y-61267D03*
X84120Y-61267D03*
X85498Y-65833D03*
X85302Y-65833D03*
X83924Y-61267D03*
G54D16*
X83117Y-63452D03*
X83117Y-63255D03*
X83117Y-63058D03*
X83117Y-62861D03*
G54D17*
X86286Y-61267D03*
X86483Y-61267D03*
X86680Y-61267D03*
X86876Y-61267D03*
G54D16*
X87683Y-64436D03*
X87683Y-64633D03*
X87683Y-64830D03*
X87683Y-65026D03*
X83117Y-62664D03*
X83117Y-62467D03*
X83117Y-62270D03*
X83117Y-62074D03*
G54D17*
X84514Y-65833D03*
X84317Y-65833D03*
X84120Y-65833D03*
X83924Y-65833D03*
G54D18*
X85950Y-67125D03*
X85950Y-67875D03*
X83950Y-67125D03*
X83950Y-67875D03*
X84950Y-67125D03*
X84950Y-67875D03*
X86950Y-67125D03*
X86950Y-67875D03*
X87950Y-67125D03*
X87950Y-67875D03*
X81950Y-67125D03*
X81950Y-67875D03*
X82950Y-67125D03*
X82950Y-67875D03*
X89950Y-67125D03*
X89950Y-67875D03*
X88950Y-67125D03*
X88950Y-67875D03*
G54D11*
X81600Y-64550D03*
X82300Y-64550D03*
G54D12*
X81900Y-63650D03*
X81900Y-62950D03*
G54D19*
X97957Y-63600D03*
X100043Y-63600D03*
G54D20*
X98100Y-68050D03*
X96000Y-68050D03*
X98100Y-67550D03*
X98100Y-67050D03*
X98100Y-66550D03*
X96000Y-67550D03*
X96000Y-67050D03*
X96000Y-66550D03*
G54D12*
X95100Y-68050D03*
X95100Y-67350D03*
X99000Y-68000D03*
X99000Y-67300D03*
G54D19*
X95200Y-69600D03*
X96200Y-69600D03*
X97200Y-69600D03*
X98200Y-69600D03*
G54D12*
X91950Y-69150D03*
X91950Y-68450D03*
G54D21*
X90850Y-61250D03*
X90850Y-66050D03*
G54D22*
X87950Y-60250D03*
X94350Y-60350D03*
X84950Y-65200D03*
X87050Y-63300D03*
X89150Y-65050D03*
X86650Y-63100D03*
X95100Y-66600D03*
X89150Y-65500D03*
X95850Y-68450D03*
X84400Y-64950D03*
X83950Y-65050D03*
X86650Y-62500D03*
X85950Y-62500D03*
X85050Y-62250D03*
X91100Y-64100D03*
X91950Y-64100D03*
X92800Y-64100D03*
X93650Y-64100D03*
X94500Y-64100D03*
X95350Y-64100D03*
X96200Y-64100D03*
X97050Y-64100D03*
X81650Y-60850D03*
X87000Y-64050D03*
X81050Y-68550D03*
X88450Y-68350D03*
X91500Y-67150D03*
X91650Y-68350D03*
X89700Y-65500D03*
X85800Y-64350D03*
X92650Y-65550D03*
X96200Y-65500D03*
X97050Y-65500D03*
X92650Y-64800D03*
X86200Y-64150D03*
X85850Y-65250D03*
X94750Y-66900D03*
X92650Y-67850D03*
X85400Y-65250D03*
X94500Y-67300D03*
X92650Y-68550D03*
X92650Y-67050D03*
X85000Y-64750D03*
X97850Y-65500D03*
X92650Y-66300D03*
X85400Y-64550D03*
X96625Y-65800D03*
X80950Y-65900D03*
X82850Y-65750D03*
X85950Y-67125D03*
X84750Y-66450D03*
X81950Y-67125D03*
X87100Y-66450D03*
X83950Y-67125D03*
X86950Y-67125D03*
X88950Y-67125D03*
X86000Y-66450D03*
X84950Y-67125D03*
X86450Y-66750D03*
X87950Y-67125D03*
X82850Y-66300D03*
X83800Y-63450D03*
X89950Y-67125D03*
X82950Y-67125D03*
X90750Y-67150D03*
X96640Y-64700D03*
X93350Y-64800D03*
X92650Y-69700D03*
X98400Y-66100D03*
X84350Y-63550D03*
X86800Y-61900D03*
X89400Y-60700D03*
X86100Y-61900D03*
X92100Y-60600D03*
X88300Y-62150D03*
X84350Y-61900D03*
X81750Y-65100D03*
X98450Y-61050D03*
X81050Y-66600D03*
X87950Y-58300D03*
X86600Y-58400D03*
X88400Y-58950D03*
X91750Y-65500D03*
X84500Y-62500D03*
X91950Y-69050D03*
X97050Y-62025D03*
X81300Y-64550D03*
X83650Y-65700D03*
X88900Y-62150D03*
X85500Y-62750D03*
X96200Y-62025D03*
X83800Y-61900D03*
X88350Y-64800D03*
X90850Y-61250D03*
X99750Y-62350D03*
X80700Y-62350D03*
X85650Y-61950D03*
G54D23*
X87950Y-60250D02*
X94250Y-60250D01*
X94250Y-60250D02*
X94350Y-60350D01*
X86150Y-65100D02*
X86000Y-64950D01*
X85250Y-64950D02*
X85000Y-65200D01*
X86150Y-65400D02*
X86150Y-65100D01*
X86089Y-65461D02*
X86150Y-65400D01*
X85000Y-65200D02*
X84950Y-65200D01*
X86089Y-65833D02*
X86089Y-65461D01*
X86000Y-64950D02*
X85250Y-64950D01*
X82639Y-62861D02*
X82350Y-63150D01*
X82350Y-63150D02*
X82350Y-63200D01*
X83117Y-62861D02*
X82639Y-62861D01*
X82350Y-63200D02*
X81900Y-63650D01*
X83964Y-62664D02*
X84750Y-63450D01*
X86900Y-63450D02*
X87050Y-63300D01*
X84750Y-63450D02*
X86900Y-63450D01*
X89150Y-65050D02*
X89200Y-65000D01*
X93850Y-66300D02*
X95750Y-66300D01*
X92800Y-67350D02*
X93850Y-66300D01*
X92525Y-67350D02*
X92800Y-67350D01*
X95750Y-66300D02*
X96000Y-66550D01*
X92000Y-65000D02*
X92350Y-65350D01*
X83117Y-62664D02*
X83964Y-62664D01*
X92350Y-67175D02*
X92525Y-67350D01*
X89200Y-65000D02*
X92000Y-65000D01*
X92350Y-65350D02*
X92350Y-67175D01*
X86650Y-63100D02*
X84650Y-63100D01*
X84650Y-63100D02*
X84017Y-62467D01*
X92150Y-67200D02*
X92500Y-67550D01*
X89150Y-65500D02*
X89450Y-65200D01*
X92500Y-67550D02*
X92850Y-67550D01*
X91950Y-65200D02*
X92150Y-65400D01*
X95850Y-68200D02*
X96000Y-68050D01*
X93800Y-66600D02*
X95100Y-66600D01*
X92150Y-65400D02*
X92150Y-67200D01*
X92850Y-67550D02*
X93800Y-66600D01*
X95850Y-68450D02*
X95850Y-68200D01*
X83117Y-62467D02*
X84017Y-62467D01*
X89450Y-65200D02*
X91950Y-65200D01*
X84711Y-65833D02*
X84711Y-65411D01*
X84711Y-65411D02*
X84400Y-65100D01*
X84400Y-64950D02*
X84400Y-65100D01*
X84514Y-65833D02*
X84514Y-65464D01*
X84514Y-65464D02*
X84300Y-65250D01*
X85950Y-62500D02*
X86650Y-62500D01*
X84300Y-65250D02*
X84150Y-65250D01*
X84150Y-65250D02*
X83950Y-65050D01*
X90950Y-64400D02*
X90100Y-63550D01*
X89552Y-63452D02*
X87683Y-63452D01*
X89650Y-63550D02*
X89552Y-63452D01*
X97350Y-64400D02*
X90950Y-64400D01*
X97957Y-63600D02*
X97957Y-63793D01*
X90100Y-63550D02*
X89650Y-63550D01*
X97957Y-63793D02*
X97350Y-64400D01*
X85498Y-60652D02*
X86500Y-59650D01*
X86500Y-59650D02*
X86600Y-59650D01*
X85498Y-61267D02*
X85498Y-60652D01*
X85302Y-61267D02*
X85302Y-61998D01*
X85302Y-61998D02*
X85050Y-62250D01*
X87350Y-59650D02*
X87000Y-60000D01*
X86400Y-60000D02*
X87000Y-60000D01*
X85695Y-60705D02*
X86400Y-60000D01*
X85695Y-61267D02*
X85695Y-60705D01*
X90350Y-63350D02*
X91100Y-64100D01*
X90350Y-63350D02*
X89700Y-63350D01*
X89700Y-63350D02*
X89605Y-63255D01*
X87683Y-63255D02*
X89605Y-63255D01*
X91000Y-63150D02*
X89750Y-63150D01*
X89750Y-63150D02*
X89658Y-63058D01*
X91000Y-63150D02*
X91950Y-64100D01*
X87683Y-63058D02*
X89658Y-63058D01*
X91650Y-62950D02*
X92800Y-64100D01*
X91650Y-62950D02*
X89800Y-62950D01*
X89800Y-62950D02*
X89711Y-62861D01*
X87683Y-62861D02*
X89711Y-62861D01*
X89850Y-62750D02*
X89764Y-62664D01*
X87683Y-62664D02*
X89764Y-62664D01*
X92300Y-62750D02*
X89850Y-62750D01*
X92300Y-62750D02*
X93650Y-64100D01*
X87683Y-62074D02*
X87683Y-61967D01*
X89900Y-62550D02*
X89150Y-61800D01*
X87683Y-61967D02*
X87850Y-61800D01*
X87850Y-61800D02*
X89150Y-61800D01*
X92950Y-62550D02*
X89900Y-62550D01*
X92950Y-62550D02*
X94500Y-64100D01*
X89950Y-62350D02*
X89200Y-61600D01*
X93600Y-62350D02*
X89950Y-62350D01*
X87567Y-61267D02*
X87900Y-61600D01*
X86876Y-61267D02*
X87567Y-61267D01*
X93600Y-62350D02*
X95350Y-64100D01*
X87900Y-61600D02*
X89200Y-61600D01*
X94250Y-62150D02*
X96200Y-64100D01*
X94250Y-62150D02*
X90000Y-62150D01*
X87950Y-61400D02*
X89250Y-61400D01*
X86750Y-60800D02*
X87350Y-60800D01*
X87350Y-60800D02*
X87950Y-61400D01*
X90000Y-62150D02*
X89250Y-61400D01*
X86680Y-61267D02*
X86680Y-60870D01*
X86680Y-60870D02*
X86750Y-60800D01*
X86483Y-61267D02*
X86483Y-60767D01*
X94900Y-61950D02*
X90050Y-61950D01*
X94900Y-61950D02*
X97050Y-64100D01*
X88000Y-61200D02*
X89300Y-61200D01*
X90050Y-61950D02*
X89300Y-61200D01*
X87400Y-60600D02*
X88000Y-61200D01*
X86483Y-60767D02*
X86650Y-60600D01*
X86650Y-60600D02*
X87400Y-60600D01*
X86450Y-60200D02*
X87550Y-60200D01*
X85892Y-61267D02*
X85892Y-60758D01*
X85892Y-60758D02*
X86450Y-60200D01*
X88100Y-59650D02*
X87550Y-60200D01*
X81850Y-60450D02*
X81650Y-60650D01*
X85105Y-60855D02*
X85050Y-60800D01*
X82700Y-60450D02*
X83050Y-60800D01*
X82700Y-60450D02*
X81850Y-60450D01*
X81650Y-60650D02*
X81650Y-60850D01*
X85105Y-61267D02*
X85105Y-60855D01*
X80650Y-61050D02*
X81450Y-61050D01*
X83050Y-60800D02*
X85050Y-60800D01*
X81450Y-61050D02*
X81650Y-60850D01*
X87008Y-64042D02*
X87000Y-64050D01*
X87683Y-64042D02*
X87008Y-64042D01*
X87950Y-69200D02*
X86950Y-69200D01*
X86950Y-69200D02*
X85950Y-69200D01*
X81700Y-69200D02*
X81050Y-68550D01*
X84950Y-69200D02*
X83950Y-69200D01*
X81950Y-69200D02*
X81700Y-69200D01*
X83950Y-69200D02*
X82950Y-69200D01*
X89950Y-69200D02*
X88950Y-69200D01*
X88950Y-69200D02*
X87950Y-69200D01*
X82950Y-69200D02*
X81950Y-69200D01*
X85950Y-69200D02*
X84950Y-69200D01*
X88550Y-68250D02*
X91100Y-68250D01*
X88450Y-68350D02*
X88550Y-68250D01*
X91100Y-68250D02*
X91500Y-67850D01*
X89850Y-66500D02*
X89850Y-65650D01*
X91950Y-68450D02*
X91950Y-67600D01*
X89850Y-65650D02*
X89700Y-65500D01*
X91650Y-68350D02*
X91850Y-68350D01*
X91850Y-68350D02*
X91950Y-68450D01*
X91950Y-67600D02*
X91500Y-67150D01*
X90950Y-66600D02*
X91500Y-67150D01*
X89950Y-66600D02*
X90950Y-66600D01*
X89850Y-66500D02*
X89950Y-66600D01*
X92700Y-65500D02*
X92650Y-65550D01*
X96200Y-65500D02*
X92700Y-65500D01*
X83117Y-64239D02*
X85689Y-64239D01*
X85689Y-64239D02*
X85800Y-64350D01*
X86092Y-64042D02*
X86200Y-64150D01*
X96650Y-65100D02*
X97050Y-65500D01*
X92950Y-65100D02*
X96650Y-65100D01*
X92650Y-64800D02*
X92950Y-65100D01*
X83117Y-64042D02*
X86092Y-64042D01*
X93750Y-66900D02*
X94750Y-66900D01*
X92800Y-67850D02*
X93750Y-66900D01*
X85695Y-65405D02*
X85850Y-65250D01*
X92650Y-67850D02*
X92800Y-67850D01*
X85695Y-65833D02*
X85695Y-65405D01*
X93900Y-67300D02*
X92650Y-68550D01*
X85498Y-65833D02*
X85498Y-65348D01*
X85498Y-65348D02*
X85400Y-65250D01*
X94500Y-67300D02*
X93900Y-67300D01*
X97250Y-66100D02*
X93600Y-66100D01*
X84883Y-64633D02*
X83117Y-64633D01*
X97850Y-65500D02*
X97250Y-66100D01*
X84883Y-64633D02*
X85000Y-64750D01*
X93600Y-66100D02*
X92650Y-67050D01*
X83117Y-64436D02*
X85286Y-64436D01*
X85286Y-64436D02*
X85400Y-64550D01*
X93150Y-65800D02*
X92650Y-66300D01*
X96625Y-65800D02*
X93150Y-65800D01*
X82600Y-64150D02*
X80750Y-64150D01*
X83117Y-65026D02*
X82726Y-65026D01*
X82726Y-65026D02*
X82650Y-64950D01*
X80750Y-64150D02*
X80650Y-64050D01*
X82650Y-64200D02*
X82600Y-64150D01*
X82650Y-64950D02*
X82650Y-64200D01*
X83400Y-66300D02*
X82850Y-65750D01*
X80650Y-65600D02*
X80950Y-65900D01*
X80650Y-65050D02*
X80650Y-65600D01*
X84250Y-66300D02*
X83400Y-66300D01*
X84317Y-65833D02*
X84317Y-66233D01*
X84317Y-66233D02*
X84250Y-66300D01*
X85302Y-65833D02*
X85302Y-66477D01*
X85302Y-66477D02*
X85950Y-67125D01*
X84800Y-66450D02*
X84750Y-66450D01*
X84908Y-65833D02*
X84908Y-66342D01*
X84908Y-66342D02*
X84800Y-66450D01*
X87217Y-64633D02*
X87683Y-64633D01*
X87217Y-64633D02*
X87000Y-64850D01*
X87150Y-66400D02*
X87100Y-66450D01*
X87000Y-65200D02*
X87150Y-65350D01*
X87150Y-66400D02*
X87100Y-66450D01*
X87000Y-64850D02*
X87000Y-65200D01*
X87150Y-66400D02*
X87150Y-65350D01*
X86500Y-64000D02*
X86345Y-63845D01*
X86500Y-65250D02*
X86680Y-65430D01*
X83117Y-63845D02*
X86345Y-63845D01*
X86680Y-66480D02*
X86950Y-66750D01*
X86680Y-65833D02*
X86680Y-65430D01*
X86680Y-65833D02*
X86680Y-66480D01*
X86950Y-66750D02*
X86950Y-67125D01*
X86500Y-64000D02*
X86500Y-65250D01*
X86069Y-66450D02*
X86000Y-66450D01*
X86286Y-65833D02*
X86286Y-66233D01*
X86286Y-66233D02*
X86069Y-66450D01*
X86483Y-66717D02*
X86450Y-66750D01*
X86483Y-65833D02*
X86483Y-66717D01*
X82450Y-66900D02*
X82850Y-66500D01*
X82450Y-67400D02*
X82450Y-66900D01*
X87575Y-67500D02*
X87950Y-67125D01*
X83117Y-63058D02*
X83558Y-63058D01*
X83117Y-63648D02*
X83602Y-63648D01*
X83558Y-63058D02*
X83800Y-63300D01*
X83117Y-63255D02*
X83605Y-63255D01*
X83602Y-63648D02*
X83800Y-63450D01*
X83800Y-63300D02*
X83800Y-63450D01*
X82850Y-66500D02*
X82850Y-66300D01*
X82550Y-67500D02*
X82450Y-67400D01*
X87575Y-67500D02*
X82550Y-67500D01*
X83605Y-63255D02*
X83800Y-63450D01*
X89450Y-66625D02*
X89450Y-66200D01*
X88650Y-64600D02*
X88650Y-65800D01*
X88950Y-66100D02*
X89350Y-66100D01*
X88650Y-65800D02*
X88950Y-66100D01*
X89450Y-66200D02*
X89350Y-66100D01*
X88650Y-64600D02*
X88486Y-64436D01*
X89950Y-67125D02*
X89450Y-66625D01*
X88486Y-64436D02*
X87683Y-64436D01*
X83275Y-66800D02*
X82950Y-67125D01*
X85105Y-65833D02*
X85105Y-66595D01*
X85105Y-66595D02*
X84900Y-66800D01*
X84900Y-66800D02*
X83275Y-66800D01*
X89650Y-66150D02*
X89400Y-65900D01*
X90750Y-67150D02*
X90400Y-66800D01*
X88145Y-63845D02*
X87683Y-63845D01*
X89650Y-66561D02*
X89650Y-66150D01*
X88850Y-65750D02*
X89000Y-65900D01*
X89000Y-65900D02*
X89400Y-65900D01*
X88850Y-64550D02*
X88145Y-63845D01*
X90400Y-66800D02*
X89889Y-66800D01*
X89889Y-66800D02*
X89650Y-66561D01*
X88850Y-64550D02*
X88850Y-65750D01*
X96540Y-64800D02*
X96640Y-64700D01*
X93350Y-64800D02*
X96540Y-64800D01*
X88450Y-67875D02*
X88450Y-66550D01*
X90725Y-67875D02*
X89950Y-67875D01*
X86089Y-61889D02*
X86100Y-61900D01*
X86089Y-60811D02*
X86500Y-60400D01*
X87261Y-64239D02*
X87150Y-64350D01*
X88450Y-66550D02*
X88400Y-66500D01*
X88950Y-67875D02*
X88450Y-67875D01*
X96000Y-67550D02*
X96500Y-67550D01*
X87683Y-62270D02*
X88180Y-62270D01*
X84950Y-67875D02*
X83950Y-67875D01*
X86089Y-61267D02*
X86089Y-60811D01*
X92650Y-69700D02*
X94300Y-68050D01*
X82950Y-67875D02*
X81950Y-67875D01*
X81600Y-65500D02*
X81600Y-65250D01*
X86500Y-60400D02*
X87450Y-60400D01*
X89400Y-60700D02*
X87750Y-60700D01*
X86800Y-64350D02*
X86700Y-64250D01*
X81750Y-65100D02*
X82150Y-65100D01*
X88400Y-66500D02*
X87700Y-66500D01*
X86700Y-63950D02*
X86400Y-63650D01*
X86700Y-64250D02*
X86700Y-63950D01*
X87150Y-64350D02*
X86800Y-64350D01*
X84400Y-63650D02*
X84350Y-63550D01*
X87450Y-60400D02*
X87750Y-60700D01*
X87270Y-62270D02*
X86900Y-61900D01*
X87683Y-64239D02*
X87261Y-64239D01*
X82300Y-62950D02*
X81900Y-62950D01*
X86900Y-61900D02*
X86800Y-61900D01*
X82730Y-62270D02*
X82600Y-62400D01*
X88450Y-67875D02*
X87950Y-67875D01*
X97950Y-66100D02*
X98400Y-66100D01*
X80650Y-63050D02*
X81800Y-63050D01*
X98450Y-61050D02*
X99750Y-61050D01*
X100043Y-61343D02*
X100043Y-63600D01*
X86089Y-61267D02*
X86089Y-61889D01*
X94300Y-68050D02*
X95100Y-68050D01*
X82600Y-62400D02*
X82600Y-62650D01*
X83980Y-62270D02*
X84350Y-61900D01*
X89500Y-60600D02*
X89400Y-60700D01*
X83117Y-62270D02*
X82730Y-62270D01*
X90750Y-67850D02*
X90725Y-67875D01*
X99750Y-61050D02*
X100043Y-61343D01*
X92100Y-60600D02*
X89500Y-60600D01*
X92100Y-60600D02*
X92550Y-61050D01*
X96000Y-67550D02*
X95600Y-67550D01*
X92550Y-61050D02*
X98450Y-61050D01*
X81050Y-66975D02*
X81950Y-67875D01*
X81600Y-65250D02*
X81750Y-65100D01*
X96500Y-67550D02*
X97950Y-66100D01*
X86400Y-63650D02*
X84400Y-63650D01*
X85950Y-67875D02*
X84950Y-67875D01*
X87270Y-62270D02*
X87683Y-62270D01*
X83117Y-62270D02*
X83980Y-62270D01*
X81800Y-63050D02*
X81900Y-62950D01*
X86950Y-67875D02*
X85950Y-67875D01*
X87950Y-67875D02*
X86950Y-67875D01*
X95600Y-67550D02*
X95100Y-68050D01*
X83950Y-67875D02*
X82950Y-67875D01*
X81050Y-66600D02*
X81050Y-66975D01*
X82300Y-64950D02*
X82300Y-64550D01*
X81600Y-65500D02*
X81600Y-66050D01*
X82150Y-65100D02*
X82300Y-64950D01*
X81600Y-66050D02*
X81050Y-66600D01*
X89950Y-67875D02*
X88950Y-67875D01*
X88180Y-62270D02*
X88300Y-62150D01*
X82600Y-62650D02*
X82300Y-62950D01*
X87350Y-58950D02*
X87350Y-58900D01*
X87350Y-58900D02*
X87950Y-58300D01*
X86600Y-58950D02*
X86600Y-58400D01*
X88400Y-58950D02*
X88100Y-58950D01*
X91750Y-65500D02*
X91200Y-66050D01*
X91200Y-66050D02*
X90850Y-66050D01*
X96200Y-69600D02*
X96200Y-68850D01*
X97500Y-67550D02*
X98100Y-67550D01*
X97200Y-69600D02*
X96200Y-69600D01*
X96200Y-68850D02*
X97500Y-67550D01*
X82450Y-65350D02*
X82300Y-65500D01*
X84120Y-65833D02*
X84120Y-65470D01*
X84000Y-65350D02*
X82450Y-65350D01*
X84120Y-65470D02*
X84000Y-65350D01*
X84711Y-61267D02*
X84711Y-62289D01*
X84711Y-62289D02*
X84500Y-62500D01*
X87270Y-64830D02*
X87200Y-64900D01*
X87683Y-64830D02*
X87270Y-64830D01*
X87200Y-65150D02*
X87700Y-65650D01*
X87200Y-64900D02*
X87200Y-65150D01*
X87700Y-65650D02*
X87700Y-65800D01*
X98200Y-69600D02*
X97900Y-69300D01*
X98600Y-68400D02*
X99000Y-68000D01*
X98300Y-68400D02*
X98600Y-68400D01*
X97900Y-68800D02*
X98300Y-68400D01*
X97900Y-69300D02*
X97900Y-68800D01*
X91950Y-69050D02*
X91950Y-69150D01*
X98100Y-67050D02*
X98750Y-67050D01*
X98100Y-67050D02*
X97750Y-67050D01*
X97750Y-67050D02*
X95200Y-69600D01*
X98750Y-67050D02*
X99000Y-67300D01*
X87683Y-65026D02*
X88124Y-65026D01*
X83783Y-65833D02*
X83650Y-65700D01*
X83117Y-61267D02*
X83924Y-61267D01*
X96000Y-67050D02*
X96750Y-67050D01*
X82700Y-60850D02*
X83117Y-61267D01*
X96000Y-67050D02*
X95400Y-67050D01*
X87683Y-62467D02*
X88583Y-62467D01*
X86950Y-62800D02*
X87283Y-62467D01*
X88350Y-65750D02*
X89100Y-66500D01*
X85500Y-62100D02*
X85650Y-61950D01*
X82350Y-60850D02*
X82700Y-60850D01*
X80800Y-62050D02*
X81600Y-61250D01*
X81950Y-61250D02*
X82350Y-60850D01*
X86450Y-62050D02*
X86300Y-62200D01*
X98650Y-63900D02*
X98650Y-63450D01*
X98650Y-63450D02*
X99750Y-62350D01*
X86286Y-61636D02*
X86450Y-61800D01*
X85500Y-62750D02*
X85500Y-62100D01*
X87683Y-62467D02*
X87283Y-62467D01*
X83924Y-61267D02*
X83924Y-61776D01*
X96750Y-67050D02*
X98150Y-65650D01*
X88124Y-65026D02*
X88350Y-64800D01*
X88350Y-64800D02*
X88350Y-65750D01*
X80650Y-62050D02*
X80650Y-62300D01*
X85550Y-62800D02*
X85500Y-62750D01*
X86300Y-62200D02*
X85900Y-62200D01*
X88583Y-62467D02*
X88900Y-62150D01*
X86950Y-62800D02*
X85550Y-62800D01*
X83117Y-62074D02*
X83924Y-61267D01*
X81600Y-64550D02*
X81300Y-64550D01*
X98150Y-65650D02*
X98150Y-64400D01*
X95400Y-67050D02*
X95100Y-67350D01*
X86450Y-61800D02*
X86450Y-62050D01*
X81600Y-61250D02*
X81950Y-61250D01*
X86286Y-61267D02*
X86286Y-61636D01*
X83924Y-65833D02*
X83783Y-65833D01*
X83924Y-61776D02*
X83800Y-61900D01*
X80650Y-62300D02*
X80700Y-62350D01*
X85900Y-62200D02*
X85650Y-61950D01*
X80650Y-62050D02*
X80800Y-62050D01*
X98150Y-64400D02*
X98650Y-63900D01*
X97050Y-62025D02*
X96200Y-62025D01*
G54D10*
G36*
X81562Y-63347D02*
X81531Y-63379D01*
X81505Y-63441D01*
X81505Y-63509D01*
X81505Y-63859D01*
X81531Y-63921D01*
X81550Y-63940D01*
X81417Y-63940D01*
X81361Y-63803D01*
X81238Y-63680D01*
X81078Y-63613D01*
X80904Y-63613D01*
X80224Y-63613D01*
X80195Y-63624D01*
X80195Y-63567D01*
X80213Y-63575D01*
X80600Y-63575D01*
X80600Y-63150D01*
X80600Y-63100D01*
X80600Y-63000D01*
X80700Y-63000D01*
X80700Y-63100D01*
X80700Y-63150D01*
X80700Y-63575D01*
X81087Y-63575D01*
X81279Y-63492D01*
X81425Y-63342D01*
X81457Y-63250D01*
X81464Y-63266D01*
X81534Y-63336D01*
X81562Y-63347D01*
X81562Y-63347D01*
G37*
G54D24*
X81562Y-63347D02*
X81531Y-63379D01*
X81505Y-63441D01*
X81505Y-63509D01*
X81505Y-63859D01*
X81531Y-63921D01*
X81550Y-63940D01*
X81417Y-63940D01*
X81361Y-63803D01*
X81238Y-63680D01*
X81078Y-63613D01*
X80904Y-63613D01*
X80224Y-63613D01*
X80195Y-63624D01*
X80195Y-63567D01*
X80213Y-63575D01*
X80600Y-63575D01*
X80600Y-63150D01*
X80600Y-63100D01*
X80600Y-63000D01*
X80700Y-63000D01*
X80700Y-63100D01*
X80700Y-63150D01*
X80700Y-63575D01*
X81087Y-63575D01*
X81279Y-63492D01*
X81425Y-63342D01*
X81457Y-63250D01*
X81464Y-63266D01*
X81534Y-63336D01*
X81562Y-63347D01*
G54D10*
G36*
X81950Y-63000D02*
X81850Y-63000D01*
X81850Y-62900D01*
X81950Y-62900D01*
X81950Y-63000D01*
X81950Y-63000D01*
G37*
G54D24*
X81950Y-63000D02*
X81850Y-63000D01*
X81850Y-62900D01*
X81950Y-62900D01*
X81950Y-63000D01*
G54D10*
G36*
X82663Y-62565D02*
X82661Y-62571D01*
X82661Y-62639D01*
X82661Y-62651D01*
X82639Y-62651D01*
X82559Y-62667D01*
X82536Y-62682D01*
X82490Y-62713D01*
X82374Y-62828D01*
X82374Y-62726D01*
X82352Y-62673D01*
X82482Y-62586D01*
X82536Y-62532D01*
X82603Y-62431D01*
X82620Y-62470D01*
X82661Y-62511D01*
X82661Y-62560D01*
X82663Y-62565D01*
X82663Y-62565D01*
G37*
G54D24*
X82663Y-62565D02*
X82661Y-62571D01*
X82661Y-62639D01*
X82661Y-62651D01*
X82639Y-62651D01*
X82559Y-62667D01*
X82536Y-62682D01*
X82490Y-62713D01*
X82374Y-62828D01*
X82374Y-62726D01*
X82352Y-62673D01*
X82482Y-62586D01*
X82536Y-62532D01*
X82603Y-62431D01*
X82620Y-62470D01*
X82661Y-62511D01*
X82661Y-62560D01*
X82663Y-62565D01*
G54D10*
G36*
X84501Y-62156D02*
X84432Y-62156D01*
X84306Y-62208D01*
X84209Y-62305D01*
X84191Y-62345D01*
X84165Y-62319D01*
X84098Y-62273D01*
X84084Y-62270D01*
X84017Y-62257D01*
X83653Y-62257D01*
X83653Y-62210D01*
X83731Y-62244D01*
X83868Y-62244D01*
X83994Y-62192D01*
X84091Y-62095D01*
X84144Y-61969D01*
X84144Y-61832D01*
X84129Y-61797D01*
X84133Y-61776D01*
X84134Y-61776D01*
X84134Y-61723D01*
X84213Y-61723D01*
X84218Y-61720D01*
X84224Y-61723D01*
X84292Y-61723D01*
X84410Y-61723D01*
X84415Y-61720D01*
X84421Y-61723D01*
X84489Y-61723D01*
X84501Y-61723D01*
X84501Y-62156D01*
X84501Y-62156D01*
G37*
G54D24*
X84501Y-62156D02*
X84432Y-62156D01*
X84306Y-62208D01*
X84209Y-62305D01*
X84191Y-62345D01*
X84165Y-62319D01*
X84098Y-62273D01*
X84084Y-62270D01*
X84017Y-62257D01*
X83653Y-62257D01*
X83653Y-62210D01*
X83731Y-62244D01*
X83868Y-62244D01*
X83994Y-62192D01*
X84091Y-62095D01*
X84144Y-61969D01*
X84144Y-61832D01*
X84129Y-61797D01*
X84133Y-61776D01*
X84134Y-61776D01*
X84134Y-61723D01*
X84213Y-61723D01*
X84218Y-61720D01*
X84224Y-61723D01*
X84292Y-61723D01*
X84410Y-61723D01*
X84415Y-61720D01*
X84421Y-61723D01*
X84489Y-61723D01*
X84501Y-61723D01*
X84501Y-62156D01*
G54D10*
G36*
X84656Y-63635D02*
X84095Y-63635D01*
X84144Y-63519D01*
X84144Y-63382D01*
X84092Y-63256D01*
X83995Y-63159D01*
X83927Y-63130D01*
X83706Y-62910D01*
X83653Y-62874D01*
X83877Y-62874D01*
X84601Y-63598D01*
X84602Y-63598D01*
X84647Y-63628D01*
X84656Y-63635D01*
X84656Y-63635D01*
G37*
G54D24*
X84656Y-63635D02*
X84095Y-63635D01*
X84144Y-63519D01*
X84144Y-63382D01*
X84092Y-63256D01*
X83995Y-63159D01*
X83927Y-63130D01*
X83706Y-62910D01*
X83653Y-62874D01*
X83877Y-62874D01*
X84601Y-63598D01*
X84602Y-63598D01*
X84647Y-63628D01*
X84656Y-63635D01*
G54D10*
G36*
X86240Y-61963D02*
X86213Y-61990D01*
X85994Y-61990D01*
X85994Y-61882D01*
X85957Y-61792D01*
X85980Y-61802D01*
X85999Y-61802D01*
X86060Y-61741D01*
X86060Y-61684D01*
X86081Y-61662D01*
X86089Y-61703D01*
X86092Y-61717D01*
X86138Y-61784D01*
X86155Y-61802D01*
X86156Y-61802D01*
X86240Y-61886D01*
X86240Y-61963D01*
X86240Y-61963D01*
G37*
G54D24*
X86240Y-61963D02*
X86213Y-61990D01*
X85994Y-61990D01*
X85994Y-61882D01*
X85957Y-61792D01*
X85980Y-61802D01*
X85999Y-61802D01*
X86060Y-61741D01*
X86060Y-61684D01*
X86081Y-61662D01*
X86089Y-61703D01*
X86092Y-61717D01*
X86138Y-61784D01*
X86155Y-61802D01*
X86156Y-61802D01*
X86240Y-61886D01*
X86240Y-61963D01*
G54D10*
G36*
X87182Y-64430D02*
X87137Y-64439D01*
X87114Y-64454D01*
X87068Y-64485D01*
X86852Y-64702D01*
X86806Y-64769D01*
X86803Y-64782D01*
X86790Y-64850D01*
X86790Y-65200D01*
X86800Y-65253D01*
X86710Y-65163D01*
X86710Y-64246D01*
X86805Y-64341D01*
X86931Y-64394D01*
X87068Y-64394D01*
X87152Y-64358D01*
X87182Y-64429D01*
X87182Y-64430D01*
X87182Y-64430D01*
G37*
G54D24*
X87182Y-64430D02*
X87137Y-64439D01*
X87114Y-64454D01*
X87068Y-64485D01*
X86852Y-64702D01*
X86806Y-64769D01*
X86803Y-64782D01*
X86790Y-64850D01*
X86790Y-65200D01*
X86800Y-65253D01*
X86710Y-65163D01*
X86710Y-64246D01*
X86805Y-64341D01*
X86931Y-64394D01*
X87068Y-64394D01*
X87152Y-64358D01*
X87182Y-64429D01*
X87182Y-64430D01*
G54D10*
G36*
X87678Y-61674D02*
X87535Y-61819D01*
X87517Y-61845D01*
X87363Y-61845D01*
X87301Y-61871D01*
X87253Y-61919D01*
X87227Y-61981D01*
X87227Y-62029D01*
X87186Y-62070D01*
X87148Y-62162D01*
X87147Y-62179D01*
X87209Y-62241D01*
X87265Y-62241D01*
X87281Y-62257D01*
X87203Y-62273D01*
X87180Y-62288D01*
X87134Y-62319D01*
X86994Y-62459D01*
X86994Y-62432D01*
X86942Y-62306D01*
X86845Y-62209D01*
X86719Y-62156D01*
X86627Y-62156D01*
X86644Y-62131D01*
X86644Y-62130D01*
X86646Y-62117D01*
X86659Y-62050D01*
X86660Y-62050D01*
X86660Y-61800D01*
X86659Y-61799D01*
X86644Y-61723D01*
X86655Y-61723D01*
X86773Y-61723D01*
X86778Y-61720D01*
X86783Y-61723D01*
X86851Y-61723D01*
X86969Y-61723D01*
X87031Y-61697D01*
X87079Y-61649D01*
X87105Y-61587D01*
X87105Y-61519D01*
X87105Y-61477D01*
X87480Y-61477D01*
X87678Y-61674D01*
X87678Y-61674D01*
G37*
G54D24*
X87678Y-61674D02*
X87535Y-61819D01*
X87517Y-61845D01*
X87363Y-61845D01*
X87301Y-61871D01*
X87253Y-61919D01*
X87227Y-61981D01*
X87227Y-62029D01*
X87186Y-62070D01*
X87148Y-62162D01*
X87147Y-62179D01*
X87209Y-62241D01*
X87265Y-62241D01*
X87281Y-62257D01*
X87203Y-62273D01*
X87180Y-62288D01*
X87134Y-62319D01*
X86994Y-62459D01*
X86994Y-62432D01*
X86942Y-62306D01*
X86845Y-62209D01*
X86719Y-62156D01*
X86627Y-62156D01*
X86644Y-62131D01*
X86644Y-62130D01*
X86646Y-62117D01*
X86659Y-62050D01*
X86660Y-62050D01*
X86660Y-61800D01*
X86659Y-61799D01*
X86644Y-61723D01*
X86655Y-61723D01*
X86773Y-61723D01*
X86778Y-61720D01*
X86783Y-61723D01*
X86851Y-61723D01*
X86969Y-61723D01*
X87031Y-61697D01*
X87079Y-61649D01*
X87105Y-61587D01*
X87105Y-61519D01*
X87105Y-61477D01*
X87480Y-61477D01*
X87678Y-61674D01*
G54D10*
G36*
X88585Y-62010D02*
X88556Y-62081D01*
X88556Y-62197D01*
X88496Y-62257D01*
X88219Y-62257D01*
X88219Y-62179D01*
X88219Y-62170D01*
X88218Y-62170D01*
X88218Y-62162D01*
X88180Y-62070D01*
X88139Y-62029D01*
X88139Y-62010D01*
X88585Y-62010D01*
X88585Y-62010D01*
G37*
G54D24*
X88585Y-62010D02*
X88556Y-62081D01*
X88556Y-62197D01*
X88496Y-62257D01*
X88219Y-62257D01*
X88219Y-62179D01*
X88219Y-62170D01*
X88218Y-62170D01*
X88218Y-62162D01*
X88180Y-62070D01*
X88139Y-62029D01*
X88139Y-62010D01*
X88585Y-62010D01*
G54D10*
G36*
X88610Y-67457D02*
X88534Y-67489D01*
X88464Y-67559D01*
X88450Y-67592D01*
X88436Y-67559D01*
X88366Y-67489D01*
X88289Y-67457D01*
X88321Y-67444D01*
X88369Y-67396D01*
X88395Y-67334D01*
X88395Y-67266D01*
X88395Y-66916D01*
X88369Y-66854D01*
X88350Y-66835D01*
X88350Y-66550D01*
X88113Y-66550D01*
X88037Y-66550D01*
X87800Y-66550D01*
X87750Y-66550D01*
X87650Y-66550D01*
X87650Y-66450D01*
X87750Y-66450D01*
X87800Y-66450D01*
X88037Y-66450D01*
X88113Y-66450D01*
X88300Y-66450D01*
X88350Y-66450D01*
X88450Y-66450D01*
X88450Y-66550D01*
X88450Y-66600D01*
X88450Y-66913D01*
X88505Y-66968D01*
X88505Y-66984D01*
X88505Y-67334D01*
X88531Y-67396D01*
X88579Y-67444D01*
X88610Y-67457D01*
X88610Y-67457D01*
G37*
G54D24*
X88610Y-67457D02*
X88534Y-67489D01*
X88464Y-67559D01*
X88450Y-67592D01*
X88436Y-67559D01*
X88366Y-67489D01*
X88289Y-67457D01*
X88321Y-67444D01*
X88369Y-67396D01*
X88395Y-67334D01*
X88395Y-67266D01*
X88395Y-66916D01*
X88369Y-66854D01*
X88350Y-66835D01*
X88350Y-66550D01*
X88113Y-66550D01*
X88037Y-66550D01*
X87800Y-66550D01*
X87750Y-66550D01*
X87650Y-66550D01*
X87650Y-66450D01*
X87750Y-66450D01*
X87800Y-66450D01*
X88037Y-66450D01*
X88113Y-66450D01*
X88300Y-66450D01*
X88350Y-66450D01*
X88450Y-66450D01*
X88450Y-66550D01*
X88450Y-66600D01*
X88450Y-66913D01*
X88505Y-66968D01*
X88505Y-66984D01*
X88505Y-67334D01*
X88531Y-67396D01*
X88579Y-67444D01*
X88610Y-67457D01*
G54D10*
G36*
X90800Y-67900D02*
X90700Y-67900D01*
X90650Y-67900D01*
X90337Y-67900D01*
X90312Y-67925D01*
X90050Y-67925D01*
X90000Y-67925D01*
X89900Y-67925D01*
X89850Y-67925D01*
X89487Y-67925D01*
X89450Y-67962D01*
X89413Y-67925D01*
X89050Y-67925D01*
X89000Y-67925D01*
X88900Y-67925D01*
X88850Y-67925D01*
X88487Y-67925D01*
X88450Y-67962D01*
X88413Y-67925D01*
X88050Y-67925D01*
X88000Y-67925D01*
X87900Y-67925D01*
X87850Y-67925D01*
X87487Y-67925D01*
X87450Y-67962D01*
X87413Y-67925D01*
X87050Y-67925D01*
X87000Y-67925D01*
X86900Y-67925D01*
X86850Y-67925D01*
X86487Y-67925D01*
X86450Y-67962D01*
X86413Y-67925D01*
X86050Y-67925D01*
X86000Y-67925D01*
X85900Y-67925D01*
X85850Y-67925D01*
X85487Y-67925D01*
X85450Y-67962D01*
X85413Y-67925D01*
X85050Y-67925D01*
X85000Y-67925D01*
X84900Y-67925D01*
X84850Y-67925D01*
X84487Y-67925D01*
X84450Y-67962D01*
X84413Y-67925D01*
X84050Y-67925D01*
X84000Y-67925D01*
X83900Y-67925D01*
X83850Y-67925D01*
X83487Y-67925D01*
X83450Y-67962D01*
X83413Y-67925D01*
X83050Y-67925D01*
X83000Y-67925D01*
X82900Y-67925D01*
X82850Y-67925D01*
X82487Y-67925D01*
X82450Y-67962D01*
X82413Y-67925D01*
X82050Y-67925D01*
X82000Y-67925D01*
X81900Y-67925D01*
X81850Y-67925D01*
X81487Y-67925D01*
X81425Y-67987D01*
X81426Y-68099D01*
X81464Y-68191D01*
X81534Y-68261D01*
X81625Y-68299D01*
X81680Y-68299D01*
X81560Y-68419D01*
X81489Y-68589D01*
X81489Y-68692D01*
X81394Y-68597D01*
X81394Y-68482D01*
X81342Y-68356D01*
X81245Y-68259D01*
X81119Y-68206D01*
X80982Y-68206D01*
X80856Y-68258D01*
X80759Y-68355D01*
X80706Y-68481D01*
X80706Y-68618D01*
X80758Y-68744D01*
X80855Y-68841D01*
X80981Y-68894D01*
X81097Y-68894D01*
X81489Y-69285D01*
X81489Y-69805D01*
X80495Y-69805D01*
X80495Y-68400D01*
X80480Y-68325D01*
X80438Y-68262D01*
X80375Y-68220D01*
X80300Y-68205D01*
X80195Y-68205D01*
X80195Y-68195D01*
X80600Y-68195D01*
X80675Y-68180D01*
X80738Y-68138D01*
X80780Y-68075D01*
X80795Y-68000D01*
X80795Y-66207D01*
X80881Y-66244D01*
X81018Y-66244D01*
X81144Y-66192D01*
X81241Y-66095D01*
X81294Y-65969D01*
X81294Y-65940D01*
X81376Y-65974D01*
X81488Y-65975D01*
X81550Y-65913D01*
X81550Y-65550D01*
X81237Y-65550D01*
X81175Y-65612D01*
X81175Y-65639D01*
X81145Y-65609D01*
X81019Y-65556D01*
X80902Y-65556D01*
X80860Y-65513D01*
X80860Y-65487D01*
X81076Y-65487D01*
X81216Y-65429D01*
X81237Y-65450D01*
X81550Y-65450D01*
X81550Y-65087D01*
X81488Y-65025D01*
X81427Y-65025D01*
X81427Y-64964D01*
X81419Y-64945D01*
X81459Y-64945D01*
X81809Y-64945D01*
X81871Y-64919D01*
X81902Y-64887D01*
X81914Y-64916D01*
X81984Y-64986D01*
X82076Y-65024D01*
X82188Y-65025D01*
X82250Y-64963D01*
X82250Y-64650D01*
X82250Y-64600D01*
X82250Y-64500D01*
X82350Y-64500D01*
X82350Y-64600D01*
X82350Y-64650D01*
X82350Y-64963D01*
X82412Y-65025D01*
X82454Y-65024D01*
X82456Y-65031D01*
X82502Y-65098D01*
X82508Y-65105D01*
X82441Y-65105D01*
X82091Y-65105D01*
X82029Y-65131D01*
X81997Y-65162D01*
X81986Y-65134D01*
X81916Y-65064D01*
X81824Y-65026D01*
X81712Y-65025D01*
X81650Y-65087D01*
X81650Y-65400D01*
X81650Y-65450D01*
X81650Y-65550D01*
X81650Y-65600D01*
X81650Y-65913D01*
X81712Y-65975D01*
X81824Y-65974D01*
X81916Y-65936D01*
X81986Y-65866D01*
X81997Y-65837D01*
X82029Y-65869D01*
X82091Y-65895D01*
X82159Y-65895D01*
X82509Y-65895D01*
X82533Y-65884D01*
X82558Y-65944D01*
X82639Y-66025D01*
X82559Y-66105D01*
X82506Y-66231D01*
X82506Y-66368D01*
X82558Y-66494D01*
X82302Y-66752D01*
X82277Y-66787D01*
X82259Y-66780D01*
X82191Y-66780D01*
X81641Y-66780D01*
X81579Y-66806D01*
X81531Y-66854D01*
X81505Y-66916D01*
X81505Y-66984D01*
X81505Y-67334D01*
X81531Y-67396D01*
X81579Y-67444D01*
X81610Y-67457D01*
X81534Y-67489D01*
X81464Y-67559D01*
X81426Y-67651D01*
X81425Y-67763D01*
X81487Y-67825D01*
X81850Y-67825D01*
X81900Y-67825D01*
X82000Y-67825D01*
X82050Y-67825D01*
X82413Y-67825D01*
X82450Y-67788D01*
X82487Y-67825D01*
X82850Y-67825D01*
X82900Y-67825D01*
X83000Y-67825D01*
X83050Y-67825D01*
X83413Y-67825D01*
X83450Y-67788D01*
X83487Y-67825D01*
X83850Y-67825D01*
X83900Y-67825D01*
X84000Y-67825D01*
X84050Y-67825D01*
X84413Y-67825D01*
X84450Y-67788D01*
X84487Y-67825D01*
X84850Y-67825D01*
X84900Y-67825D01*
X85000Y-67825D01*
X85050Y-67825D01*
X85413Y-67825D01*
X85450Y-67788D01*
X85487Y-67825D01*
X85850Y-67825D01*
X85900Y-67825D01*
X86000Y-67825D01*
X86050Y-67825D01*
X86413Y-67825D01*
X86450Y-67788D01*
X86487Y-67825D01*
X86850Y-67825D01*
X86900Y-67825D01*
X87000Y-67825D01*
X87050Y-67825D01*
X87413Y-67825D01*
X87450Y-67788D01*
X87487Y-67825D01*
X87850Y-67825D01*
X87900Y-67825D01*
X88000Y-67825D01*
X88050Y-67825D01*
X88413Y-67825D01*
X88450Y-67788D01*
X88487Y-67825D01*
X88850Y-67825D01*
X88900Y-67825D01*
X89000Y-67825D01*
X89050Y-67825D01*
X89413Y-67825D01*
X89450Y-67788D01*
X89487Y-67825D01*
X89850Y-67825D01*
X89900Y-67825D01*
X90000Y-67825D01*
X90050Y-67825D01*
X90413Y-67825D01*
X90438Y-67800D01*
X90650Y-67800D01*
X90700Y-67800D01*
X90800Y-67800D01*
X90800Y-67900D01*
X90800Y-67900D01*
G37*
G54D24*
X90800Y-67900D02*
X90700Y-67900D01*
X90650Y-67900D01*
X90337Y-67900D01*
X90312Y-67925D01*
X90050Y-67925D01*
X90000Y-67925D01*
X89900Y-67925D01*
X89850Y-67925D01*
X89487Y-67925D01*
X89450Y-67962D01*
X89413Y-67925D01*
X89050Y-67925D01*
X89000Y-67925D01*
X88900Y-67925D01*
X88850Y-67925D01*
X88487Y-67925D01*
X88450Y-67962D01*
X88413Y-67925D01*
X88050Y-67925D01*
X88000Y-67925D01*
X87900Y-67925D01*
X87850Y-67925D01*
X87487Y-67925D01*
X87450Y-67962D01*
X87413Y-67925D01*
X87050Y-67925D01*
X87000Y-67925D01*
X86900Y-67925D01*
X86850Y-67925D01*
X86487Y-67925D01*
X86450Y-67962D01*
X86413Y-67925D01*
X86050Y-67925D01*
X86000Y-67925D01*
X85900Y-67925D01*
X85850Y-67925D01*
X85487Y-67925D01*
X85450Y-67962D01*
X85413Y-67925D01*
X85050Y-67925D01*
X85000Y-67925D01*
X84900Y-67925D01*
X84850Y-67925D01*
X84487Y-67925D01*
X84450Y-67962D01*
X84413Y-67925D01*
X84050Y-67925D01*
X84000Y-67925D01*
X83900Y-67925D01*
X83850Y-67925D01*
X83487Y-67925D01*
X83450Y-67962D01*
X83413Y-67925D01*
X83050Y-67925D01*
X83000Y-67925D01*
X82900Y-67925D01*
X82850Y-67925D01*
X82487Y-67925D01*
X82450Y-67962D01*
X82413Y-67925D01*
X82050Y-67925D01*
X82000Y-67925D01*
X81900Y-67925D01*
X81850Y-67925D01*
X81487Y-67925D01*
X81425Y-67987D01*
X81426Y-68099D01*
X81464Y-68191D01*
X81534Y-68261D01*
X81625Y-68299D01*
X81680Y-68299D01*
X81560Y-68419D01*
X81489Y-68589D01*
X81489Y-68692D01*
X81394Y-68597D01*
X81394Y-68482D01*
X81342Y-68356D01*
X81245Y-68259D01*
X81119Y-68206D01*
X80982Y-68206D01*
X80856Y-68258D01*
X80759Y-68355D01*
X80706Y-68481D01*
X80706Y-68618D01*
X80758Y-68744D01*
X80855Y-68841D01*
X80981Y-68894D01*
X81097Y-68894D01*
X81489Y-69285D01*
X81489Y-69805D01*
X80495Y-69805D01*
X80495Y-68400D01*
X80480Y-68325D01*
X80438Y-68262D01*
X80375Y-68220D01*
X80300Y-68205D01*
X80195Y-68205D01*
X80195Y-68195D01*
X80600Y-68195D01*
X80675Y-68180D01*
X80738Y-68138D01*
X80780Y-68075D01*
X80795Y-68000D01*
X80795Y-66207D01*
X80881Y-66244D01*
X81018Y-66244D01*
X81144Y-66192D01*
X81241Y-66095D01*
X81294Y-65969D01*
X81294Y-65940D01*
X81376Y-65974D01*
X81488Y-65975D01*
X81550Y-65913D01*
X81550Y-65550D01*
X81237Y-65550D01*
X81175Y-65612D01*
X81175Y-65639D01*
X81145Y-65609D01*
X81019Y-65556D01*
X80902Y-65556D01*
X80860Y-65513D01*
X80860Y-65487D01*
X81076Y-65487D01*
X81216Y-65429D01*
X81237Y-65450D01*
X81550Y-65450D01*
X81550Y-65087D01*
X81488Y-65025D01*
X81427Y-65025D01*
X81427Y-64964D01*
X81419Y-64945D01*
X81459Y-64945D01*
X81809Y-64945D01*
X81871Y-64919D01*
X81902Y-64887D01*
X81914Y-64916D01*
X81984Y-64986D01*
X82076Y-65024D01*
X82188Y-65025D01*
X82250Y-64963D01*
X82250Y-64650D01*
X82250Y-64600D01*
X82250Y-64500D01*
X82350Y-64500D01*
X82350Y-64600D01*
X82350Y-64650D01*
X82350Y-64963D01*
X82412Y-65025D01*
X82454Y-65024D01*
X82456Y-65031D01*
X82502Y-65098D01*
X82508Y-65105D01*
X82441Y-65105D01*
X82091Y-65105D01*
X82029Y-65131D01*
X81997Y-65162D01*
X81986Y-65134D01*
X81916Y-65064D01*
X81824Y-65026D01*
X81712Y-65025D01*
X81650Y-65087D01*
X81650Y-65400D01*
X81650Y-65450D01*
X81650Y-65550D01*
X81650Y-65600D01*
X81650Y-65913D01*
X81712Y-65975D01*
X81824Y-65974D01*
X81916Y-65936D01*
X81986Y-65866D01*
X81997Y-65837D01*
X82029Y-65869D01*
X82091Y-65895D01*
X82159Y-65895D01*
X82509Y-65895D01*
X82533Y-65884D01*
X82558Y-65944D01*
X82639Y-66025D01*
X82559Y-66105D01*
X82506Y-66231D01*
X82506Y-66368D01*
X82558Y-66494D01*
X82302Y-66752D01*
X82277Y-66787D01*
X82259Y-66780D01*
X82191Y-66780D01*
X81641Y-66780D01*
X81579Y-66806D01*
X81531Y-66854D01*
X81505Y-66916D01*
X81505Y-66984D01*
X81505Y-67334D01*
X81531Y-67396D01*
X81579Y-67444D01*
X81610Y-67457D01*
X81534Y-67489D01*
X81464Y-67559D01*
X81426Y-67651D01*
X81425Y-67763D01*
X81487Y-67825D01*
X81850Y-67825D01*
X81900Y-67825D01*
X82000Y-67825D01*
X82050Y-67825D01*
X82413Y-67825D01*
X82450Y-67788D01*
X82487Y-67825D01*
X82850Y-67825D01*
X82900Y-67825D01*
X83000Y-67825D01*
X83050Y-67825D01*
X83413Y-67825D01*
X83450Y-67788D01*
X83487Y-67825D01*
X83850Y-67825D01*
X83900Y-67825D01*
X84000Y-67825D01*
X84050Y-67825D01*
X84413Y-67825D01*
X84450Y-67788D01*
X84487Y-67825D01*
X84850Y-67825D01*
X84900Y-67825D01*
X85000Y-67825D01*
X85050Y-67825D01*
X85413Y-67825D01*
X85450Y-67788D01*
X85487Y-67825D01*
X85850Y-67825D01*
X85900Y-67825D01*
X86000Y-67825D01*
X86050Y-67825D01*
X86413Y-67825D01*
X86450Y-67788D01*
X86487Y-67825D01*
X86850Y-67825D01*
X86900Y-67825D01*
X87000Y-67825D01*
X87050Y-67825D01*
X87413Y-67825D01*
X87450Y-67788D01*
X87487Y-67825D01*
X87850Y-67825D01*
X87900Y-67825D01*
X88000Y-67825D01*
X88050Y-67825D01*
X88413Y-67825D01*
X88450Y-67788D01*
X88487Y-67825D01*
X88850Y-67825D01*
X88900Y-67825D01*
X89000Y-67825D01*
X89050Y-67825D01*
X89413Y-67825D01*
X89450Y-67788D01*
X89487Y-67825D01*
X89850Y-67825D01*
X89900Y-67825D01*
X90000Y-67825D01*
X90050Y-67825D01*
X90413Y-67825D01*
X90438Y-67800D01*
X90650Y-67800D01*
X90700Y-67800D01*
X90800Y-67800D01*
X90800Y-67900D01*
G54D10*
G36*
X97793Y-66800D02*
X97779Y-66806D01*
X97743Y-66841D01*
X97682Y-66853D01*
X97669Y-66856D01*
X97601Y-66902D01*
X96395Y-68108D01*
X96395Y-67916D01*
X96370Y-67856D01*
X96436Y-67791D01*
X96474Y-67699D01*
X96475Y-67662D01*
X96413Y-67600D01*
X96100Y-67600D01*
X96050Y-67600D01*
X95950Y-67600D01*
X95900Y-67600D01*
X95587Y-67600D01*
X95525Y-67662D01*
X95526Y-67699D01*
X95564Y-67791D01*
X95629Y-67856D01*
X95605Y-67916D01*
X95605Y-67984D01*
X95605Y-68184D01*
X95612Y-68201D01*
X95574Y-68239D01*
X95575Y-68162D01*
X95513Y-68100D01*
X95150Y-68100D01*
X95150Y-68413D01*
X95212Y-68475D01*
X95276Y-68474D01*
X95375Y-68474D01*
X95466Y-68436D01*
X95506Y-68396D01*
X95506Y-68518D01*
X95558Y-68644D01*
X95655Y-68741D01*
X95730Y-68772D01*
X95497Y-69006D01*
X95499Y-68980D01*
X95488Y-68904D01*
X95461Y-68829D01*
X95421Y-68763D01*
X95368Y-68704D01*
X95367Y-68702D01*
X95322Y-68670D01*
X95307Y-68658D01*
X95306Y-68657D01*
X95305Y-68657D01*
X95234Y-68624D01*
X95232Y-68623D01*
X95196Y-68614D01*
X95160Y-68605D01*
X95080Y-68601D01*
X95050Y-68605D01*
X95050Y-68413D01*
X95050Y-68100D01*
X94687Y-68100D01*
X94625Y-68162D01*
X94626Y-68274D01*
X94664Y-68366D01*
X94734Y-68436D01*
X94825Y-68474D01*
X94924Y-68474D01*
X94988Y-68475D01*
X95050Y-68413D01*
X95050Y-68605D01*
X95004Y-68612D01*
X94929Y-68639D01*
X94863Y-68679D01*
X94804Y-68731D01*
X94802Y-68733D01*
X94770Y-68777D01*
X94758Y-68793D01*
X94757Y-68793D01*
X94757Y-68795D01*
X94723Y-68868D01*
X94714Y-68904D01*
X94705Y-68940D01*
X94701Y-69020D01*
X94712Y-69096D01*
X94712Y-69097D01*
X94739Y-69171D01*
X94778Y-69236D01*
X94832Y-69296D01*
X94833Y-69297D01*
X94835Y-69299D01*
X94802Y-69333D01*
X94730Y-69506D01*
X94730Y-69693D01*
X94775Y-69805D01*
X91411Y-69805D01*
X91411Y-69628D01*
X91411Y-68597D01*
X91455Y-68641D01*
X91567Y-68688D01*
X91581Y-68721D01*
X91629Y-68769D01*
X91691Y-68795D01*
X91719Y-68795D01*
X91709Y-68805D01*
X91691Y-68805D01*
X91629Y-68831D01*
X91581Y-68879D01*
X91555Y-68941D01*
X91555Y-69009D01*
X91555Y-69359D01*
X91581Y-69421D01*
X91629Y-69469D01*
X91691Y-69495D01*
X91759Y-69495D01*
X92209Y-69495D01*
X92271Y-69469D01*
X92319Y-69421D01*
X92345Y-69359D01*
X92345Y-69291D01*
X92345Y-68941D01*
X92319Y-68879D01*
X92271Y-68831D01*
X92209Y-68805D01*
X92191Y-68805D01*
X92181Y-68795D01*
X92209Y-68795D01*
X92271Y-68769D01*
X92319Y-68721D01*
X92333Y-68685D01*
X92358Y-68744D01*
X92455Y-68841D01*
X92581Y-68894D01*
X92718Y-68894D01*
X92844Y-68842D01*
X92941Y-68745D01*
X92994Y-68619D01*
X92994Y-68502D01*
X93986Y-67510D01*
X94224Y-67510D01*
X94305Y-67591D01*
X94431Y-67644D01*
X94568Y-67644D01*
X94694Y-67592D01*
X94711Y-67574D01*
X94731Y-67621D01*
X94762Y-67652D01*
X94734Y-67664D01*
X94664Y-67734D01*
X94626Y-67826D01*
X94625Y-67938D01*
X94687Y-68000D01*
X95000Y-68000D01*
X95050Y-68000D01*
X95150Y-68000D01*
X95200Y-68000D01*
X95513Y-68000D01*
X95575Y-67938D01*
X95574Y-67826D01*
X95536Y-67734D01*
X95466Y-67664D01*
X95437Y-67652D01*
X95469Y-67621D01*
X95495Y-67559D01*
X95495Y-67491D01*
X95495Y-67260D01*
X95613Y-67260D01*
X95564Y-67309D01*
X95526Y-67401D01*
X95525Y-67438D01*
X95587Y-67500D01*
X95900Y-67500D01*
X95950Y-67500D01*
X96050Y-67500D01*
X96100Y-67500D01*
X96413Y-67500D01*
X96475Y-67438D01*
X96474Y-67401D01*
X96436Y-67309D01*
X96387Y-67260D01*
X96750Y-67260D01*
X96750Y-67259D01*
X96817Y-67246D01*
X96830Y-67244D01*
X96831Y-67244D01*
X96898Y-67198D01*
X97722Y-66373D01*
X97705Y-66416D01*
X97705Y-66484D01*
X97705Y-66684D01*
X97731Y-66746D01*
X97779Y-66794D01*
X97793Y-66800D01*
X97793Y-66800D01*
G37*
G54D24*
X97793Y-66800D02*
X97779Y-66806D01*
X97743Y-66841D01*
X97682Y-66853D01*
X97669Y-66856D01*
X97601Y-66902D01*
X96395Y-68108D01*
X96395Y-67916D01*
X96370Y-67856D01*
X96436Y-67791D01*
X96474Y-67699D01*
X96475Y-67662D01*
X96413Y-67600D01*
X96100Y-67600D01*
X96050Y-67600D01*
X95950Y-67600D01*
X95900Y-67600D01*
X95587Y-67600D01*
X95525Y-67662D01*
X95526Y-67699D01*
X95564Y-67791D01*
X95629Y-67856D01*
X95605Y-67916D01*
X95605Y-67984D01*
X95605Y-68184D01*
X95612Y-68201D01*
X95574Y-68239D01*
X95575Y-68162D01*
X95513Y-68100D01*
X95150Y-68100D01*
X95150Y-68413D01*
X95212Y-68475D01*
X95276Y-68474D01*
X95375Y-68474D01*
X95466Y-68436D01*
X95506Y-68396D01*
X95506Y-68518D01*
X95558Y-68644D01*
X95655Y-68741D01*
X95730Y-68772D01*
X95497Y-69006D01*
X95499Y-68980D01*
X95488Y-68904D01*
X95461Y-68829D01*
X95421Y-68763D01*
X95368Y-68704D01*
X95367Y-68702D01*
X95322Y-68670D01*
X95307Y-68658D01*
X95306Y-68657D01*
X95305Y-68657D01*
X95234Y-68624D01*
X95232Y-68623D01*
X95196Y-68614D01*
X95160Y-68605D01*
X95080Y-68601D01*
X95050Y-68605D01*
X95050Y-68413D01*
X95050Y-68100D01*
X94687Y-68100D01*
X94625Y-68162D01*
X94626Y-68274D01*
X94664Y-68366D01*
X94734Y-68436D01*
X94825Y-68474D01*
X94924Y-68474D01*
X94988Y-68475D01*
X95050Y-68413D01*
X95050Y-68605D01*
X95004Y-68612D01*
X94929Y-68639D01*
X94863Y-68679D01*
X94804Y-68731D01*
X94802Y-68733D01*
X94770Y-68777D01*
X94758Y-68793D01*
X94757Y-68793D01*
X94757Y-68795D01*
X94723Y-68868D01*
X94714Y-68904D01*
X94705Y-68940D01*
X94701Y-69020D01*
X94712Y-69096D01*
X94712Y-69097D01*
X94739Y-69171D01*
X94778Y-69236D01*
X94832Y-69296D01*
X94833Y-69297D01*
X94835Y-69299D01*
X94802Y-69333D01*
X94730Y-69506D01*
X94730Y-69693D01*
X94775Y-69805D01*
X91411Y-69805D01*
X91411Y-69628D01*
X91411Y-68597D01*
X91455Y-68641D01*
X91567Y-68688D01*
X91581Y-68721D01*
X91629Y-68769D01*
X91691Y-68795D01*
X91719Y-68795D01*
X91709Y-68805D01*
X91691Y-68805D01*
X91629Y-68831D01*
X91581Y-68879D01*
X91555Y-68941D01*
X91555Y-69009D01*
X91555Y-69359D01*
X91581Y-69421D01*
X91629Y-69469D01*
X91691Y-69495D01*
X91759Y-69495D01*
X92209Y-69495D01*
X92271Y-69469D01*
X92319Y-69421D01*
X92345Y-69359D01*
X92345Y-69291D01*
X92345Y-68941D01*
X92319Y-68879D01*
X92271Y-68831D01*
X92209Y-68805D01*
X92191Y-68805D01*
X92181Y-68795D01*
X92209Y-68795D01*
X92271Y-68769D01*
X92319Y-68721D01*
X92333Y-68685D01*
X92358Y-68744D01*
X92455Y-68841D01*
X92581Y-68894D01*
X92718Y-68894D01*
X92844Y-68842D01*
X92941Y-68745D01*
X92994Y-68619D01*
X92994Y-68502D01*
X93986Y-67510D01*
X94224Y-67510D01*
X94305Y-67591D01*
X94431Y-67644D01*
X94568Y-67644D01*
X94694Y-67592D01*
X94711Y-67574D01*
X94731Y-67621D01*
X94762Y-67652D01*
X94734Y-67664D01*
X94664Y-67734D01*
X94626Y-67826D01*
X94625Y-67938D01*
X94687Y-68000D01*
X95000Y-68000D01*
X95050Y-68000D01*
X95150Y-68000D01*
X95200Y-68000D01*
X95513Y-68000D01*
X95575Y-67938D01*
X95574Y-67826D01*
X95536Y-67734D01*
X95466Y-67664D01*
X95437Y-67652D01*
X95469Y-67621D01*
X95495Y-67559D01*
X95495Y-67491D01*
X95495Y-67260D01*
X95613Y-67260D01*
X95564Y-67309D01*
X95526Y-67401D01*
X95525Y-67438D01*
X95587Y-67500D01*
X95900Y-67500D01*
X95950Y-67500D01*
X96050Y-67500D01*
X96100Y-67500D01*
X96413Y-67500D01*
X96475Y-67438D01*
X96474Y-67401D01*
X96436Y-67309D01*
X96387Y-67260D01*
X96750Y-67260D01*
X96750Y-67259D01*
X96817Y-67246D01*
X96830Y-67244D01*
X96831Y-67244D01*
X96898Y-67198D01*
X97722Y-66373D01*
X97705Y-66416D01*
X97705Y-66484D01*
X97705Y-66684D01*
X97731Y-66746D01*
X97779Y-66794D01*
X97793Y-66800D01*
G54D10*
G36*
X100605Y-68205D02*
X100500Y-68205D01*
X100425Y-68220D01*
X100362Y-68262D01*
X100320Y-68325D01*
X100305Y-68400D01*
X100305Y-69805D01*
X98623Y-69805D01*
X98670Y-69694D01*
X98670Y-69507D01*
X98599Y-69334D01*
X98539Y-69274D01*
X98546Y-69268D01*
X98546Y-69267D01*
X98547Y-69267D01*
X98562Y-69246D01*
X98592Y-69207D01*
X98592Y-69206D01*
X98593Y-69205D01*
X98626Y-69134D01*
X98627Y-69133D01*
X98640Y-69078D01*
X98645Y-69060D01*
X98645Y-69059D01*
X98649Y-68980D01*
X98638Y-68904D01*
X98611Y-68829D01*
X98571Y-68763D01*
X98518Y-68704D01*
X98517Y-68702D01*
X98472Y-68670D01*
X98457Y-68658D01*
X98456Y-68657D01*
X98455Y-68657D01*
X98384Y-68624D01*
X98382Y-68623D01*
X98375Y-68621D01*
X98386Y-68610D01*
X98600Y-68610D01*
X98600Y-68609D01*
X98667Y-68596D01*
X98680Y-68594D01*
X98681Y-68594D01*
X98748Y-68548D01*
X98951Y-68345D01*
X99259Y-68345D01*
X99321Y-68319D01*
X99369Y-68271D01*
X99395Y-68209D01*
X99395Y-68141D01*
X99395Y-67791D01*
X99369Y-67729D01*
X99321Y-67681D01*
X99259Y-67655D01*
X99191Y-67655D01*
X98741Y-67655D01*
X98679Y-67681D01*
X98631Y-67729D01*
X98605Y-67791D01*
X98605Y-67859D01*
X98605Y-68098D01*
X98513Y-68190D01*
X98492Y-68190D01*
X98495Y-68184D01*
X98495Y-68116D01*
X98495Y-67916D01*
X98469Y-67854D01*
X98421Y-67806D01*
X98406Y-67800D01*
X98421Y-67794D01*
X98469Y-67746D01*
X98495Y-67684D01*
X98495Y-67616D01*
X98495Y-67416D01*
X98469Y-67354D01*
X98421Y-67306D01*
X98406Y-67300D01*
X98421Y-67294D01*
X98455Y-67260D01*
X98605Y-67260D01*
X98605Y-67509D01*
X98631Y-67571D01*
X98679Y-67619D01*
X98741Y-67645D01*
X98809Y-67645D01*
X99259Y-67645D01*
X99321Y-67619D01*
X99369Y-67571D01*
X99395Y-67509D01*
X99395Y-67441D01*
X99395Y-67091D01*
X99369Y-67029D01*
X99321Y-66981D01*
X99259Y-66955D01*
X99191Y-66955D01*
X98951Y-66955D01*
X98898Y-66902D01*
X98831Y-66856D01*
X98817Y-66853D01*
X98750Y-66840D01*
X98455Y-66840D01*
X98421Y-66806D01*
X98406Y-66800D01*
X98421Y-66794D01*
X98469Y-66746D01*
X98495Y-66684D01*
X98495Y-66616D01*
X98495Y-66416D01*
X98469Y-66354D01*
X98421Y-66306D01*
X98359Y-66280D01*
X98291Y-66280D01*
X97841Y-66280D01*
X97799Y-66297D01*
X98298Y-65799D01*
X98298Y-65798D01*
X98328Y-65753D01*
X98343Y-65731D01*
X98344Y-65730D01*
X98359Y-65651D01*
X98360Y-65650D01*
X98360Y-64486D01*
X98798Y-64049D01*
X98798Y-64048D01*
X98844Y-63981D01*
X98844Y-63980D01*
X98846Y-63967D01*
X98859Y-63900D01*
X98860Y-63900D01*
X98860Y-63536D01*
X99702Y-62694D01*
X99818Y-62694D01*
X99944Y-62642D01*
X100041Y-62545D01*
X100094Y-62419D01*
X100094Y-62282D01*
X100042Y-62156D01*
X99945Y-62059D01*
X99819Y-62006D01*
X99682Y-62006D01*
X99641Y-62022D01*
X99641Y-61962D01*
X99641Y-61961D01*
X99595Y-61732D01*
X99566Y-61661D01*
X99436Y-61468D01*
X99382Y-61414D01*
X99188Y-61284D01*
X99118Y-61255D01*
X98888Y-61209D01*
X98812Y-61209D01*
X98811Y-61209D01*
X98582Y-61255D01*
X98511Y-61284D01*
X98318Y-61414D01*
X98264Y-61468D01*
X98134Y-61662D01*
X98105Y-61732D01*
X98059Y-61962D01*
X98059Y-62038D01*
X98105Y-62268D01*
X98134Y-62338D01*
X98264Y-62532D01*
X98318Y-62586D01*
X98511Y-62716D01*
X98582Y-62745D01*
X98811Y-62791D01*
X98812Y-62791D01*
X98888Y-62791D01*
X99043Y-62759D01*
X98502Y-63302D01*
X98456Y-63369D01*
X98453Y-63382D01*
X98440Y-63450D01*
X98440Y-63813D01*
X98002Y-64252D01*
X97956Y-64319D01*
X97953Y-64332D01*
X97940Y-64400D01*
X97940Y-65164D01*
X97919Y-65156D01*
X97782Y-65156D01*
X97656Y-65208D01*
X97559Y-65305D01*
X97506Y-65431D01*
X97506Y-65547D01*
X97163Y-65890D01*
X96960Y-65890D01*
X96969Y-65869D01*
X96969Y-65838D01*
X96981Y-65844D01*
X97118Y-65844D01*
X97244Y-65792D01*
X97341Y-65695D01*
X97394Y-65569D01*
X97394Y-65432D01*
X97342Y-65306D01*
X97245Y-65209D01*
X97119Y-65156D01*
X97002Y-65156D01*
X96836Y-64989D01*
X96931Y-64895D01*
X96984Y-64769D01*
X96984Y-64632D01*
X96974Y-64610D01*
X97350Y-64610D01*
X97350Y-64609D01*
X97417Y-64596D01*
X97430Y-64594D01*
X97431Y-64594D01*
X97498Y-64548D01*
X97976Y-64070D01*
X98050Y-64070D01*
X98223Y-63999D01*
X98355Y-63867D01*
X98427Y-63694D01*
X98427Y-63507D01*
X98356Y-63334D01*
X98224Y-63202D01*
X98051Y-63130D01*
X97864Y-63130D01*
X97691Y-63201D01*
X97559Y-63333D01*
X97487Y-63506D01*
X97487Y-63693D01*
X97558Y-63866D01*
X97572Y-63880D01*
X97394Y-64059D01*
X97394Y-64032D01*
X97394Y-62094D01*
X97394Y-61957D01*
X97342Y-61831D01*
X97245Y-61734D01*
X97119Y-61681D01*
X96982Y-61681D01*
X96856Y-61733D01*
X96774Y-61815D01*
X96476Y-61815D01*
X96395Y-61734D01*
X96269Y-61681D01*
X96132Y-61681D01*
X96006Y-61733D01*
X95909Y-61830D01*
X95856Y-61956D01*
X95856Y-62093D01*
X95908Y-62219D01*
X96005Y-62316D01*
X96131Y-62369D01*
X96268Y-62369D01*
X96394Y-62317D01*
X96476Y-62235D01*
X96774Y-62235D01*
X96855Y-62316D01*
X96981Y-62369D01*
X97118Y-62369D01*
X97244Y-62317D01*
X97341Y-62220D01*
X97394Y-62094D01*
X97394Y-64032D01*
X97342Y-63906D01*
X97245Y-63809D01*
X97119Y-63756D01*
X97002Y-63756D01*
X95048Y-61802D01*
X94981Y-61756D01*
X94967Y-61753D01*
X94900Y-61740D01*
X91780Y-61740D01*
X91781Y-61739D01*
X91807Y-61677D01*
X91807Y-61609D01*
X91807Y-60823D01*
X91781Y-60761D01*
X91733Y-60713D01*
X91671Y-60687D01*
X91603Y-60687D01*
X90029Y-60687D01*
X89967Y-60713D01*
X89919Y-60761D01*
X89893Y-60823D01*
X89893Y-60891D01*
X89893Y-61496D01*
X89448Y-61052D01*
X89381Y-61006D01*
X89367Y-61003D01*
X89300Y-60990D01*
X88086Y-60990D01*
X87548Y-60452D01*
X87486Y-60410D01*
X87550Y-60410D01*
X87550Y-60409D01*
X87617Y-60396D01*
X87630Y-60394D01*
X87631Y-60394D01*
X87635Y-60390D01*
X87658Y-60444D01*
X87755Y-60541D01*
X87881Y-60594D01*
X88018Y-60594D01*
X88144Y-60542D01*
X88226Y-60460D01*
X94023Y-60460D01*
X94058Y-60544D01*
X94155Y-60641D01*
X94281Y-60694D01*
X94418Y-60694D01*
X94544Y-60642D01*
X94641Y-60545D01*
X94694Y-60419D01*
X94694Y-60282D01*
X94642Y-60156D01*
X94545Y-60059D01*
X94419Y-60006D01*
X94282Y-60006D01*
X94199Y-60040D01*
X88226Y-60040D01*
X88181Y-59995D01*
X88359Y-59995D01*
X88421Y-59969D01*
X88469Y-59921D01*
X88495Y-59859D01*
X88495Y-59791D01*
X88495Y-59441D01*
X88469Y-59379D01*
X88421Y-59331D01*
X88359Y-59305D01*
X88291Y-59305D01*
X87841Y-59305D01*
X87779Y-59331D01*
X87731Y-59379D01*
X87725Y-59393D01*
X87719Y-59379D01*
X87671Y-59331D01*
X87609Y-59305D01*
X87541Y-59305D01*
X87091Y-59305D01*
X87029Y-59331D01*
X86981Y-59379D01*
X86975Y-59393D01*
X86969Y-59379D01*
X86921Y-59331D01*
X86859Y-59305D01*
X86791Y-59305D01*
X86341Y-59305D01*
X86279Y-59331D01*
X86231Y-59379D01*
X86205Y-59441D01*
X86205Y-59509D01*
X86205Y-59648D01*
X85781Y-60072D01*
X86205Y-58798D01*
X86205Y-58809D01*
X86205Y-59159D01*
X86231Y-59221D01*
X86279Y-59269D01*
X86341Y-59295D01*
X86409Y-59295D01*
X86859Y-59295D01*
X86921Y-59269D01*
X86969Y-59221D01*
X86975Y-59206D01*
X86981Y-59221D01*
X87029Y-59269D01*
X87091Y-59295D01*
X87159Y-59295D01*
X87609Y-59295D01*
X87671Y-59269D01*
X87719Y-59221D01*
X87725Y-59206D01*
X87731Y-59221D01*
X87779Y-59269D01*
X87841Y-59295D01*
X87909Y-59295D01*
X88359Y-59295D01*
X88361Y-59294D01*
X88468Y-59294D01*
X88594Y-59242D01*
X88691Y-59145D01*
X88744Y-59019D01*
X88744Y-58882D01*
X88692Y-58756D01*
X88595Y-58659D01*
X88469Y-58606D01*
X88361Y-58606D01*
X88359Y-58605D01*
X88291Y-58605D01*
X88112Y-58605D01*
X88144Y-58592D01*
X88241Y-58495D01*
X88294Y-58369D01*
X88294Y-58232D01*
X88242Y-58106D01*
X88145Y-58009D01*
X88019Y-57956D01*
X87882Y-57956D01*
X87756Y-58008D01*
X87659Y-58105D01*
X87606Y-58231D01*
X87606Y-58347D01*
X87348Y-58605D01*
X87091Y-58605D01*
X87029Y-58631D01*
X86981Y-58679D01*
X86975Y-58693D01*
X86969Y-58679D01*
X86921Y-58631D01*
X86874Y-58611D01*
X86891Y-58595D01*
X86944Y-58469D01*
X86944Y-58332D01*
X86892Y-58206D01*
X86795Y-58109D01*
X86669Y-58056D01*
X86532Y-58056D01*
X86439Y-58094D01*
X86638Y-57495D01*
X94159Y-57495D01*
X95113Y-60362D01*
X95119Y-60373D01*
X95120Y-60375D01*
X95123Y-60380D01*
X95151Y-60428D01*
X95160Y-60435D01*
X95162Y-60438D01*
X95173Y-60445D01*
X95211Y-60475D01*
X95222Y-60478D01*
X95225Y-60480D01*
X95240Y-60483D01*
X95284Y-60495D01*
X95293Y-60493D01*
X95300Y-60495D01*
X100605Y-60495D01*
X100605Y-65605D01*
X100586Y-65605D01*
X100586Y-63679D01*
X100575Y-63466D01*
X100515Y-63319D01*
X100421Y-63292D01*
X100351Y-63362D01*
X100351Y-63222D01*
X100324Y-63128D01*
X100122Y-63057D01*
X99909Y-63068D01*
X99762Y-63128D01*
X99735Y-63222D01*
X100043Y-63529D01*
X100351Y-63222D01*
X100351Y-63362D01*
X100114Y-63600D01*
X100421Y-63908D01*
X100515Y-63881D01*
X100586Y-63679D01*
X100586Y-65605D01*
X100351Y-65605D01*
X100351Y-63978D01*
X100043Y-63671D01*
X99972Y-63741D01*
X99972Y-63600D01*
X99665Y-63292D01*
X99571Y-63319D01*
X99500Y-63521D01*
X99511Y-63734D01*
X99571Y-63881D01*
X99665Y-63908D01*
X99972Y-63600D01*
X99972Y-63741D01*
X99735Y-63978D01*
X99762Y-64072D01*
X99964Y-64143D01*
X100177Y-64132D01*
X100324Y-64072D01*
X100351Y-63978D01*
X100351Y-65605D01*
X100200Y-65605D01*
X100125Y-65620D01*
X100062Y-65662D01*
X100020Y-65725D01*
X100005Y-65800D01*
X100005Y-68000D01*
X100020Y-68075D01*
X100062Y-68138D01*
X100125Y-68180D01*
X100200Y-68195D01*
X100605Y-68195D01*
X100605Y-68205D01*
X100605Y-68205D01*
G37*
G54D24*
X100605Y-68205D02*
X100500Y-68205D01*
X100425Y-68220D01*
X100362Y-68262D01*
X100320Y-68325D01*
X100305Y-68400D01*
X100305Y-69805D01*
X98623Y-69805D01*
X98670Y-69694D01*
X98670Y-69507D01*
X98599Y-69334D01*
X98539Y-69274D01*
X98546Y-69268D01*
X98546Y-69267D01*
X98547Y-69267D01*
X98562Y-69246D01*
X98592Y-69207D01*
X98592Y-69206D01*
X98593Y-69205D01*
X98626Y-69134D01*
X98627Y-69133D01*
X98640Y-69078D01*
X98645Y-69060D01*
X98645Y-69059D01*
X98649Y-68980D01*
X98638Y-68904D01*
X98611Y-68829D01*
X98571Y-68763D01*
X98518Y-68704D01*
X98517Y-68702D01*
X98472Y-68670D01*
X98457Y-68658D01*
X98456Y-68657D01*
X98455Y-68657D01*
X98384Y-68624D01*
X98382Y-68623D01*
X98375Y-68621D01*
X98386Y-68610D01*
X98600Y-68610D01*
X98600Y-68609D01*
X98667Y-68596D01*
X98680Y-68594D01*
X98681Y-68594D01*
X98748Y-68548D01*
X98951Y-68345D01*
X99259Y-68345D01*
X99321Y-68319D01*
X99369Y-68271D01*
X99395Y-68209D01*
X99395Y-68141D01*
X99395Y-67791D01*
X99369Y-67729D01*
X99321Y-67681D01*
X99259Y-67655D01*
X99191Y-67655D01*
X98741Y-67655D01*
X98679Y-67681D01*
X98631Y-67729D01*
X98605Y-67791D01*
X98605Y-67859D01*
X98605Y-68098D01*
X98513Y-68190D01*
X98492Y-68190D01*
X98495Y-68184D01*
X98495Y-68116D01*
X98495Y-67916D01*
X98469Y-67854D01*
X98421Y-67806D01*
X98406Y-67800D01*
X98421Y-67794D01*
X98469Y-67746D01*
X98495Y-67684D01*
X98495Y-67616D01*
X98495Y-67416D01*
X98469Y-67354D01*
X98421Y-67306D01*
X98406Y-67300D01*
X98421Y-67294D01*
X98455Y-67260D01*
X98605Y-67260D01*
X98605Y-67509D01*
X98631Y-67571D01*
X98679Y-67619D01*
X98741Y-67645D01*
X98809Y-67645D01*
X99259Y-67645D01*
X99321Y-67619D01*
X99369Y-67571D01*
X99395Y-67509D01*
X99395Y-67441D01*
X99395Y-67091D01*
X99369Y-67029D01*
X99321Y-66981D01*
X99259Y-66955D01*
X99191Y-66955D01*
X98951Y-66955D01*
X98898Y-66902D01*
X98831Y-66856D01*
X98817Y-66853D01*
X98750Y-66840D01*
X98455Y-66840D01*
X98421Y-66806D01*
X98406Y-66800D01*
X98421Y-66794D01*
X98469Y-66746D01*
X98495Y-66684D01*
X98495Y-66616D01*
X98495Y-66416D01*
X98469Y-66354D01*
X98421Y-66306D01*
X98359Y-66280D01*
X98291Y-66280D01*
X97841Y-66280D01*
X97799Y-66297D01*
X98298Y-65799D01*
X98298Y-65798D01*
X98328Y-65753D01*
X98343Y-65731D01*
X98344Y-65730D01*
X98359Y-65651D01*
X98360Y-65650D01*
X98360Y-64486D01*
X98798Y-64049D01*
X98798Y-64048D01*
X98844Y-63981D01*
X98844Y-63980D01*
X98846Y-63967D01*
X98859Y-63900D01*
X98860Y-63900D01*
X98860Y-63536D01*
X99702Y-62694D01*
X99818Y-62694D01*
X99944Y-62642D01*
X100041Y-62545D01*
X100094Y-62419D01*
X100094Y-62282D01*
X100042Y-62156D01*
X99945Y-62059D01*
X99819Y-62006D01*
X99682Y-62006D01*
X99641Y-62022D01*
X99641Y-61962D01*
X99641Y-61961D01*
X99595Y-61732D01*
X99566Y-61661D01*
X99436Y-61468D01*
X99382Y-61414D01*
X99188Y-61284D01*
X99118Y-61255D01*
X98888Y-61209D01*
X98812Y-61209D01*
X98811Y-61209D01*
X98582Y-61255D01*
X98511Y-61284D01*
X98318Y-61414D01*
X98264Y-61468D01*
X98134Y-61662D01*
X98105Y-61732D01*
X98059Y-61962D01*
X98059Y-62038D01*
X98105Y-62268D01*
X98134Y-62338D01*
X98264Y-62532D01*
X98318Y-62586D01*
X98511Y-62716D01*
X98582Y-62745D01*
X98811Y-62791D01*
X98812Y-62791D01*
X98888Y-62791D01*
X99043Y-62759D01*
X98502Y-63302D01*
X98456Y-63369D01*
X98453Y-63382D01*
X98440Y-63450D01*
X98440Y-63813D01*
X98002Y-64252D01*
X97956Y-64319D01*
X97953Y-64332D01*
X97940Y-64400D01*
X97940Y-65164D01*
X97919Y-65156D01*
X97782Y-65156D01*
X97656Y-65208D01*
X97559Y-65305D01*
X97506Y-65431D01*
X97506Y-65547D01*
X97163Y-65890D01*
X96960Y-65890D01*
X96969Y-65869D01*
X96969Y-65838D01*
X96981Y-65844D01*
X97118Y-65844D01*
X97244Y-65792D01*
X97341Y-65695D01*
X97394Y-65569D01*
X97394Y-65432D01*
X97342Y-65306D01*
X97245Y-65209D01*
X97119Y-65156D01*
X97002Y-65156D01*
X96836Y-64989D01*
X96931Y-64895D01*
X96984Y-64769D01*
X96984Y-64632D01*
X96974Y-64610D01*
X97350Y-64610D01*
X97350Y-64609D01*
X97417Y-64596D01*
X97430Y-64594D01*
X97431Y-64594D01*
X97498Y-64548D01*
X97976Y-64070D01*
X98050Y-64070D01*
X98223Y-63999D01*
X98355Y-63867D01*
X98427Y-63694D01*
X98427Y-63507D01*
X98356Y-63334D01*
X98224Y-63202D01*
X98051Y-63130D01*
X97864Y-63130D01*
X97691Y-63201D01*
X97559Y-63333D01*
X97487Y-63506D01*
X97487Y-63693D01*
X97558Y-63866D01*
X97572Y-63880D01*
X97394Y-64059D01*
X97394Y-64032D01*
X97394Y-62094D01*
X97394Y-61957D01*
X97342Y-61831D01*
X97245Y-61734D01*
X97119Y-61681D01*
X96982Y-61681D01*
X96856Y-61733D01*
X96774Y-61815D01*
X96476Y-61815D01*
X96395Y-61734D01*
X96269Y-61681D01*
X96132Y-61681D01*
X96006Y-61733D01*
X95909Y-61830D01*
X95856Y-61956D01*
X95856Y-62093D01*
X95908Y-62219D01*
X96005Y-62316D01*
X96131Y-62369D01*
X96268Y-62369D01*
X96394Y-62317D01*
X96476Y-62235D01*
X96774Y-62235D01*
X96855Y-62316D01*
X96981Y-62369D01*
X97118Y-62369D01*
X97244Y-62317D01*
X97341Y-62220D01*
X97394Y-62094D01*
X97394Y-64032D01*
X97342Y-63906D01*
X97245Y-63809D01*
X97119Y-63756D01*
X97002Y-63756D01*
X95048Y-61802D01*
X94981Y-61756D01*
X94967Y-61753D01*
X94900Y-61740D01*
X91780Y-61740D01*
X91781Y-61739D01*
X91807Y-61677D01*
X91807Y-61609D01*
X91807Y-60823D01*
X91781Y-60761D01*
X91733Y-60713D01*
X91671Y-60687D01*
X91603Y-60687D01*
X90029Y-60687D01*
X89967Y-60713D01*
X89919Y-60761D01*
X89893Y-60823D01*
X89893Y-60891D01*
X89893Y-61496D01*
X89448Y-61052D01*
X89381Y-61006D01*
X89367Y-61003D01*
X89300Y-60990D01*
X88086Y-60990D01*
X87548Y-60452D01*
X87486Y-60410D01*
X87550Y-60410D01*
X87550Y-60409D01*
X87617Y-60396D01*
X87630Y-60394D01*
X87631Y-60394D01*
X87635Y-60390D01*
X87658Y-60444D01*
X87755Y-60541D01*
X87881Y-60594D01*
X88018Y-60594D01*
X88144Y-60542D01*
X88226Y-60460D01*
X94023Y-60460D01*
X94058Y-60544D01*
X94155Y-60641D01*
X94281Y-60694D01*
X94418Y-60694D01*
X94544Y-60642D01*
X94641Y-60545D01*
X94694Y-60419D01*
X94694Y-60282D01*
X94642Y-60156D01*
X94545Y-60059D01*
X94419Y-60006D01*
X94282Y-60006D01*
X94199Y-60040D01*
X88226Y-60040D01*
X88181Y-59995D01*
X88359Y-59995D01*
X88421Y-59969D01*
X88469Y-59921D01*
X88495Y-59859D01*
X88495Y-59791D01*
X88495Y-59441D01*
X88469Y-59379D01*
X88421Y-59331D01*
X88359Y-59305D01*
X88291Y-59305D01*
X87841Y-59305D01*
X87779Y-59331D01*
X87731Y-59379D01*
X87725Y-59393D01*
X87719Y-59379D01*
X87671Y-59331D01*
X87609Y-59305D01*
X87541Y-59305D01*
X87091Y-59305D01*
X87029Y-59331D01*
X86981Y-59379D01*
X86975Y-59393D01*
X86969Y-59379D01*
X86921Y-59331D01*
X86859Y-59305D01*
X86791Y-59305D01*
X86341Y-59305D01*
X86279Y-59331D01*
X86231Y-59379D01*
X86205Y-59441D01*
X86205Y-59509D01*
X86205Y-59648D01*
X85781Y-60072D01*
X86205Y-58798D01*
X86205Y-58809D01*
X86205Y-59159D01*
X86231Y-59221D01*
X86279Y-59269D01*
X86341Y-59295D01*
X86409Y-59295D01*
X86859Y-59295D01*
X86921Y-59269D01*
X86969Y-59221D01*
X86975Y-59206D01*
X86981Y-59221D01*
X87029Y-59269D01*
X87091Y-59295D01*
X87159Y-59295D01*
X87609Y-59295D01*
X87671Y-59269D01*
X87719Y-59221D01*
X87725Y-59206D01*
X87731Y-59221D01*
X87779Y-59269D01*
X87841Y-59295D01*
X87909Y-59295D01*
X88359Y-59295D01*
X88361Y-59294D01*
X88468Y-59294D01*
X88594Y-59242D01*
X88691Y-59145D01*
X88744Y-59019D01*
X88744Y-58882D01*
X88692Y-58756D01*
X88595Y-58659D01*
X88469Y-58606D01*
X88361Y-58606D01*
X88359Y-58605D01*
X88291Y-58605D01*
X88112Y-58605D01*
X88144Y-58592D01*
X88241Y-58495D01*
X88294Y-58369D01*
X88294Y-58232D01*
X88242Y-58106D01*
X88145Y-58009D01*
X88019Y-57956D01*
X87882Y-57956D01*
X87756Y-58008D01*
X87659Y-58105D01*
X87606Y-58231D01*
X87606Y-58347D01*
X87348Y-58605D01*
X87091Y-58605D01*
X87029Y-58631D01*
X86981Y-58679D01*
X86975Y-58693D01*
X86969Y-58679D01*
X86921Y-58631D01*
X86874Y-58611D01*
X86891Y-58595D01*
X86944Y-58469D01*
X86944Y-58332D01*
X86892Y-58206D01*
X86795Y-58109D01*
X86669Y-58056D01*
X86532Y-58056D01*
X86439Y-58094D01*
X86638Y-57495D01*
X94159Y-57495D01*
X95113Y-60362D01*
X95119Y-60373D01*
X95120Y-60375D01*
X95123Y-60380D01*
X95151Y-60428D01*
X95160Y-60435D01*
X95162Y-60438D01*
X95173Y-60445D01*
X95211Y-60475D01*
X95222Y-60478D01*
X95225Y-60480D01*
X95240Y-60483D01*
X95284Y-60495D01*
X95293Y-60493D01*
X95300Y-60495D01*
X100605Y-60495D01*
X100605Y-65605D01*
X100586Y-65605D01*
X100586Y-63679D01*
X100575Y-63466D01*
X100515Y-63319D01*
X100421Y-63292D01*
X100351Y-63362D01*
X100351Y-63222D01*
X100324Y-63128D01*
X100122Y-63057D01*
X99909Y-63068D01*
X99762Y-63128D01*
X99735Y-63222D01*
X100043Y-63529D01*
X100351Y-63222D01*
X100351Y-63362D01*
X100114Y-63600D01*
X100421Y-63908D01*
X100515Y-63881D01*
X100586Y-63679D01*
X100586Y-65605D01*
X100351Y-65605D01*
X100351Y-63978D01*
X100043Y-63671D01*
X99972Y-63741D01*
X99972Y-63600D01*
X99665Y-63292D01*
X99571Y-63319D01*
X99500Y-63521D01*
X99511Y-63734D01*
X99571Y-63881D01*
X99665Y-63908D01*
X99972Y-63600D01*
X99972Y-63741D01*
X99735Y-63978D01*
X99762Y-64072D01*
X99964Y-64143D01*
X100177Y-64132D01*
X100324Y-64072D01*
X100351Y-63978D01*
X100351Y-65605D01*
X100200Y-65605D01*
X100125Y-65620D01*
X100062Y-65662D01*
X100020Y-65725D01*
X100005Y-65800D01*
X100005Y-68000D01*
X100020Y-68075D01*
X100062Y-68138D01*
X100125Y-68180D01*
X100200Y-68195D01*
X100605Y-68195D01*
X100605Y-68205D01*
M02*
