M48
;DRILL file {Pcbnew (2012-01-19 BZR 3256)-stable} date 22/03/2012 17:56:28
;FORMAT={-:-/ absolute / inch / decimal}
FMAT,2
INCH,TZ
T1C0.025
T2C0.032
T3C0.035
%
G90
G05
M72
T1
X8.070Y6.235
X8.095Y6.590
X8.105Y6.660
X8.105Y6.855
X8.130Y6.455
X8.165Y6.085
X8.175Y6.510
X8.195Y6.713
X8.285Y6.575
X8.285Y6.630
X8.295Y6.713
X8.365Y6.570
X8.380Y6.190
X8.380Y6.345
X8.395Y6.505
X8.395Y6.713
X8.435Y6.190
X8.435Y6.355
X8.440Y6.495
X8.450Y6.250
X8.475Y6.645
X8.495Y6.520
X8.495Y6.713
X8.500Y6.475
X8.505Y6.225
X8.540Y6.455
X8.540Y6.525
X8.550Y6.275
X8.565Y6.195
X8.580Y6.435
X8.585Y6.525
X8.595Y6.250
X8.595Y6.713
X8.600Y6.645
X8.610Y6.190
X8.620Y6.415
X8.645Y6.675
X8.660Y5.840
X8.665Y6.250
X8.665Y6.310
X8.680Y6.190
X8.695Y6.713
X8.700Y6.405
X8.705Y6.330
X8.710Y6.645
X8.795Y5.830
X8.795Y6.025
X8.795Y6.713
X8.830Y6.215
X8.835Y6.480
X8.840Y5.895
X8.845Y6.835
X8.890Y6.215
X8.895Y6.713
X8.915Y6.505
X8.915Y6.550
X8.940Y6.070
X8.970Y6.550
X8.995Y6.713
X9.075Y6.715
X9.085Y6.125
X9.110Y6.410
X9.150Y6.715
X9.165Y6.835
X9.175Y6.550
X9.195Y6.410
X9.195Y6.905
X9.210Y6.060
X9.265Y6.480
X9.265Y6.555
X9.265Y6.630
X9.265Y6.705
X9.265Y6.785
X9.265Y6.855
X9.265Y6.970
X9.280Y6.410
X9.335Y6.480
X9.365Y6.410
X9.435Y6.035
X9.450Y6.410
X9.450Y6.730
X9.475Y6.690
X9.510Y6.660
X9.535Y6.410
X9.585Y6.845
X9.620Y6.203
X9.620Y6.410
X9.620Y6.550
X9.662Y6.580
X9.664Y6.470
X9.705Y6.203
X9.705Y6.410
X9.705Y6.550
X9.785Y6.550
X9.840Y6.610
X9.845Y6.105
X9.975Y6.235
T2
X9.520Y6.960
X9.620Y6.960
X9.720Y6.960
X9.820Y6.960
T3
X9.796Y6.360
X10.004Y6.360
T0
M30
