G04 (created by PCBNEW-RS274X (2011-12-28 BZR 3254)-stable) date 17/03/2012 11:59:27*
G01*
G70*
G90*
%MOIN*%
G04 Gerber Fmt 3.4, Leading zero omitted, Abs format*
%FSLAX34Y34*%
G04 APERTURE LIST*
%ADD10C,0.006000*%
%ADD11C,0.060000*%
%ADD12C,0.035000*%
%ADD13C,0.010000*%
G04 APERTURE END LIST*
G54D10*
G54D11*
X97957Y-63600D03*
X100043Y-63600D03*
X95200Y-69600D03*
X96200Y-69600D03*
X97200Y-69600D03*
X98200Y-69600D03*
G54D12*
X94350Y-60350D03*
X87950Y-60250D03*
X84950Y-65200D03*
X89150Y-65050D03*
X87050Y-63300D03*
X95100Y-66600D03*
X89150Y-65500D03*
X95850Y-68450D03*
X86650Y-63100D03*
X84400Y-64950D03*
X86650Y-62500D03*
X83950Y-65050D03*
X85950Y-62500D03*
X85050Y-62250D03*
X91100Y-64100D03*
X91950Y-64100D03*
X92800Y-64100D03*
X93650Y-64100D03*
X94500Y-64100D03*
X95350Y-64100D03*
X96200Y-64100D03*
X97050Y-64100D03*
X81650Y-60850D03*
X87000Y-64050D03*
X81050Y-68550D03*
X88450Y-68350D03*
X89700Y-65500D03*
X91500Y-67150D03*
X91650Y-68350D03*
X96200Y-65500D03*
X92650Y-65550D03*
X85800Y-64350D03*
X92650Y-64800D03*
X86200Y-64150D03*
X97050Y-65500D03*
X92650Y-67850D03*
X94750Y-66900D03*
X85850Y-65250D03*
X92650Y-68550D03*
X85400Y-65250D03*
X94500Y-67300D03*
X97850Y-65500D03*
X85000Y-64750D03*
X92650Y-67050D03*
X96625Y-65800D03*
X92650Y-66300D03*
X85400Y-64550D03*
X80950Y-65900D03*
X82850Y-65750D03*
X85950Y-67125D03*
X81950Y-67125D03*
X84750Y-66450D03*
X87100Y-66450D03*
X83950Y-67125D03*
X86950Y-67125D03*
X86000Y-66450D03*
X88950Y-67125D03*
X84950Y-67125D03*
X86450Y-66750D03*
X83800Y-63450D03*
X87950Y-67125D03*
X82850Y-66300D03*
X89950Y-67125D03*
X82950Y-67125D03*
X90750Y-67150D03*
X93350Y-64800D03*
X96640Y-64700D03*
X92100Y-60600D03*
X86100Y-61900D03*
X89400Y-60700D03*
X98450Y-61050D03*
X81050Y-66600D03*
X88300Y-62150D03*
X84350Y-61900D03*
X81750Y-65100D03*
X98400Y-66100D03*
X92650Y-69700D03*
X84350Y-63550D03*
X86800Y-61900D03*
X87950Y-58300D03*
X86600Y-58400D03*
X88400Y-58950D03*
X91750Y-65500D03*
X84500Y-62500D03*
X91950Y-69050D03*
X85650Y-61950D03*
X80700Y-62350D03*
X99750Y-62350D03*
X90850Y-61250D03*
X88350Y-64800D03*
X88900Y-62150D03*
X83650Y-65700D03*
X81300Y-64550D03*
X97050Y-62025D03*
X96200Y-62025D03*
X83800Y-61900D03*
X85500Y-62750D03*
G54D10*
G36*
X100605Y-68205D02*
X100500Y-68205D01*
X100425Y-68220D01*
X100362Y-68262D01*
X100320Y-68325D01*
X100305Y-68400D01*
X100305Y-69805D01*
X98623Y-69805D01*
X98670Y-69694D01*
X98670Y-69507D01*
X98599Y-69334D01*
X98539Y-69274D01*
X98546Y-69268D01*
X98546Y-69267D01*
X98547Y-69267D01*
X98562Y-69246D01*
X98592Y-69207D01*
X98592Y-69206D01*
X98593Y-69205D01*
X98626Y-69134D01*
X98627Y-69133D01*
X98640Y-69078D01*
X98645Y-69060D01*
X98645Y-69059D01*
X98649Y-68980D01*
X98638Y-68904D01*
X98611Y-68829D01*
X98571Y-68763D01*
X98518Y-68704D01*
X98517Y-68702D01*
X98472Y-68670D01*
X98457Y-68658D01*
X98456Y-68657D01*
X98455Y-68657D01*
X98427Y-68643D01*
X98427Y-63694D01*
X98427Y-63507D01*
X98356Y-63334D01*
X98224Y-63202D01*
X98051Y-63130D01*
X97864Y-63130D01*
X97691Y-63201D01*
X97559Y-63333D01*
X97487Y-63506D01*
X97487Y-63693D01*
X97558Y-63866D01*
X97690Y-63998D01*
X97863Y-64070D01*
X98050Y-64070D01*
X98223Y-63999D01*
X98355Y-63867D01*
X98427Y-63694D01*
X98427Y-68643D01*
X98384Y-68624D01*
X98382Y-68623D01*
X98346Y-68614D01*
X98310Y-68605D01*
X98230Y-68601D01*
X98194Y-68606D01*
X98194Y-65569D01*
X98194Y-65432D01*
X98142Y-65306D01*
X98045Y-65209D01*
X97919Y-65156D01*
X97782Y-65156D01*
X97656Y-65208D01*
X97559Y-65305D01*
X97506Y-65431D01*
X97506Y-65568D01*
X97558Y-65694D01*
X97655Y-65791D01*
X97781Y-65844D01*
X97918Y-65844D01*
X98044Y-65792D01*
X98141Y-65695D01*
X98194Y-65569D01*
X98194Y-68606D01*
X98154Y-68612D01*
X98079Y-68639D01*
X98013Y-68679D01*
X97954Y-68731D01*
X97952Y-68733D01*
X97920Y-68777D01*
X97908Y-68793D01*
X97907Y-68793D01*
X97907Y-68795D01*
X97873Y-68868D01*
X97864Y-68904D01*
X97855Y-68940D01*
X97851Y-69020D01*
X97862Y-69096D01*
X97862Y-69097D01*
X97889Y-69171D01*
X97917Y-69217D01*
X97802Y-69333D01*
X97730Y-69506D01*
X97730Y-69693D01*
X97775Y-69805D01*
X97623Y-69805D01*
X97670Y-69694D01*
X97670Y-69507D01*
X97599Y-69334D01*
X97467Y-69202D01*
X97394Y-69171D01*
X97394Y-65569D01*
X97394Y-65432D01*
X97394Y-64169D01*
X97394Y-64032D01*
X97394Y-62094D01*
X97394Y-61957D01*
X97342Y-61831D01*
X97245Y-61734D01*
X97119Y-61681D01*
X96982Y-61681D01*
X96856Y-61733D01*
X96759Y-61830D01*
X96706Y-61956D01*
X96706Y-62093D01*
X96758Y-62219D01*
X96855Y-62316D01*
X96981Y-62369D01*
X97118Y-62369D01*
X97244Y-62317D01*
X97341Y-62220D01*
X97394Y-62094D01*
X97394Y-64032D01*
X97342Y-63906D01*
X97245Y-63809D01*
X97119Y-63756D01*
X96982Y-63756D01*
X96856Y-63808D01*
X96759Y-63905D01*
X96706Y-64031D01*
X96706Y-64168D01*
X96758Y-64294D01*
X96855Y-64391D01*
X96981Y-64444D01*
X97118Y-64444D01*
X97244Y-64392D01*
X97341Y-64295D01*
X97394Y-64169D01*
X97394Y-65432D01*
X97342Y-65306D01*
X97245Y-65209D01*
X97119Y-65156D01*
X96984Y-65156D01*
X96984Y-64769D01*
X96984Y-64632D01*
X96932Y-64506D01*
X96835Y-64409D01*
X96709Y-64356D01*
X96572Y-64356D01*
X96544Y-64367D01*
X96544Y-64169D01*
X96544Y-64032D01*
X96544Y-62094D01*
X96544Y-61957D01*
X96492Y-61831D01*
X96395Y-61734D01*
X96269Y-61681D01*
X96132Y-61681D01*
X96006Y-61733D01*
X95909Y-61830D01*
X95856Y-61956D01*
X95856Y-62093D01*
X95908Y-62219D01*
X96005Y-62316D01*
X96131Y-62369D01*
X96268Y-62369D01*
X96394Y-62317D01*
X96491Y-62220D01*
X96544Y-62094D01*
X96544Y-64032D01*
X96492Y-63906D01*
X96395Y-63809D01*
X96269Y-63756D01*
X96132Y-63756D01*
X96006Y-63808D01*
X95909Y-63905D01*
X95856Y-64031D01*
X95856Y-64168D01*
X95908Y-64294D01*
X96005Y-64391D01*
X96131Y-64444D01*
X96268Y-64444D01*
X96394Y-64392D01*
X96491Y-64295D01*
X96544Y-64169D01*
X96544Y-64367D01*
X96446Y-64408D01*
X96349Y-64505D01*
X96296Y-64631D01*
X96296Y-64768D01*
X96348Y-64894D01*
X96445Y-64991D01*
X96571Y-65044D01*
X96708Y-65044D01*
X96834Y-64992D01*
X96931Y-64895D01*
X96984Y-64769D01*
X96984Y-65156D01*
X96982Y-65156D01*
X96856Y-65208D01*
X96759Y-65305D01*
X96706Y-65431D01*
X96706Y-65461D01*
X96694Y-65456D01*
X96557Y-65456D01*
X96544Y-65461D01*
X96544Y-65432D01*
X96492Y-65306D01*
X96395Y-65209D01*
X96269Y-65156D01*
X96132Y-65156D01*
X96006Y-65208D01*
X95909Y-65305D01*
X95856Y-65431D01*
X95856Y-65568D01*
X95908Y-65694D01*
X96005Y-65791D01*
X96131Y-65844D01*
X96268Y-65844D01*
X96281Y-65838D01*
X96281Y-65868D01*
X96333Y-65994D01*
X96430Y-66091D01*
X96556Y-66144D01*
X96693Y-66144D01*
X96819Y-66092D01*
X96916Y-65995D01*
X96969Y-65869D01*
X96969Y-65838D01*
X96981Y-65844D01*
X97118Y-65844D01*
X97244Y-65792D01*
X97341Y-65695D01*
X97394Y-65569D01*
X97394Y-69171D01*
X97294Y-69130D01*
X97107Y-69130D01*
X96934Y-69201D01*
X96802Y-69333D01*
X96730Y-69506D01*
X96730Y-69693D01*
X96775Y-69805D01*
X96623Y-69805D01*
X96670Y-69694D01*
X96670Y-69507D01*
X96599Y-69334D01*
X96467Y-69202D01*
X96294Y-69130D01*
X96194Y-69130D01*
X96194Y-68519D01*
X96194Y-68382D01*
X96142Y-68256D01*
X96045Y-68159D01*
X95919Y-68106D01*
X95782Y-68106D01*
X95694Y-68142D01*
X95694Y-64169D01*
X95694Y-64032D01*
X95642Y-63906D01*
X95545Y-63809D01*
X95419Y-63756D01*
X95282Y-63756D01*
X95156Y-63808D01*
X95059Y-63905D01*
X95006Y-64031D01*
X95006Y-64168D01*
X95058Y-64294D01*
X95155Y-64391D01*
X95281Y-64444D01*
X95418Y-64444D01*
X95544Y-64392D01*
X95641Y-64295D01*
X95694Y-64169D01*
X95694Y-68142D01*
X95656Y-68158D01*
X95559Y-68255D01*
X95506Y-68381D01*
X95506Y-68518D01*
X95558Y-68644D01*
X95655Y-68741D01*
X95781Y-68794D01*
X95918Y-68794D01*
X96044Y-68742D01*
X96141Y-68645D01*
X96194Y-68519D01*
X96194Y-69130D01*
X96107Y-69130D01*
X95934Y-69201D01*
X95802Y-69333D01*
X95730Y-69506D01*
X95730Y-69693D01*
X95775Y-69805D01*
X95623Y-69805D01*
X95670Y-69694D01*
X95670Y-69507D01*
X95599Y-69334D01*
X95467Y-69202D01*
X95448Y-69194D01*
X95476Y-69134D01*
X95477Y-69133D01*
X95490Y-69078D01*
X95495Y-69060D01*
X95495Y-69059D01*
X95499Y-68980D01*
X95488Y-68904D01*
X95461Y-68829D01*
X95444Y-68800D01*
X95444Y-66669D01*
X95444Y-66532D01*
X95392Y-66406D01*
X95295Y-66309D01*
X95169Y-66256D01*
X95032Y-66256D01*
X94906Y-66308D01*
X94844Y-66370D01*
X94844Y-64169D01*
X94844Y-64032D01*
X94792Y-63906D01*
X94695Y-63809D01*
X94694Y-63808D01*
X94694Y-60419D01*
X94694Y-60282D01*
X94642Y-60156D01*
X94545Y-60059D01*
X94419Y-60006D01*
X94282Y-60006D01*
X94156Y-60058D01*
X94059Y-60155D01*
X94006Y-60281D01*
X94006Y-60418D01*
X94058Y-60544D01*
X94155Y-60641D01*
X94281Y-60694D01*
X94418Y-60694D01*
X94544Y-60642D01*
X94641Y-60545D01*
X94694Y-60419D01*
X94694Y-63808D01*
X94569Y-63756D01*
X94432Y-63756D01*
X94306Y-63808D01*
X94209Y-63905D01*
X94156Y-64031D01*
X94156Y-64168D01*
X94208Y-64294D01*
X94305Y-64391D01*
X94431Y-64444D01*
X94568Y-64444D01*
X94694Y-64392D01*
X94791Y-64295D01*
X94844Y-64169D01*
X94844Y-66370D01*
X94809Y-66405D01*
X94756Y-66531D01*
X94756Y-66556D01*
X94682Y-66556D01*
X94556Y-66608D01*
X94459Y-66705D01*
X94406Y-66831D01*
X94406Y-66966D01*
X94306Y-67008D01*
X94209Y-67105D01*
X94156Y-67231D01*
X94156Y-67368D01*
X94208Y-67494D01*
X94305Y-67591D01*
X94431Y-67644D01*
X94568Y-67644D01*
X94694Y-67592D01*
X94791Y-67495D01*
X94844Y-67369D01*
X94844Y-67233D01*
X94844Y-67232D01*
X94944Y-67192D01*
X95041Y-67095D01*
X95094Y-66969D01*
X95094Y-66944D01*
X95168Y-66944D01*
X95294Y-66892D01*
X95391Y-66795D01*
X95444Y-66669D01*
X95444Y-68800D01*
X95421Y-68763D01*
X95368Y-68704D01*
X95367Y-68702D01*
X95322Y-68670D01*
X95307Y-68658D01*
X95306Y-68657D01*
X95305Y-68657D01*
X95234Y-68624D01*
X95232Y-68623D01*
X95196Y-68614D01*
X95160Y-68605D01*
X95080Y-68601D01*
X95004Y-68612D01*
X94929Y-68639D01*
X94863Y-68679D01*
X94804Y-68731D01*
X94802Y-68733D01*
X94770Y-68777D01*
X94758Y-68793D01*
X94757Y-68793D01*
X94757Y-68795D01*
X94723Y-68868D01*
X94714Y-68904D01*
X94705Y-68940D01*
X94701Y-69020D01*
X94712Y-69096D01*
X94712Y-69097D01*
X94739Y-69171D01*
X94778Y-69236D01*
X94832Y-69296D01*
X94833Y-69297D01*
X94835Y-69299D01*
X94802Y-69333D01*
X94730Y-69506D01*
X94730Y-69693D01*
X94775Y-69805D01*
X93994Y-69805D01*
X93994Y-64169D01*
X93994Y-64032D01*
X93942Y-63906D01*
X93845Y-63809D01*
X93719Y-63756D01*
X93582Y-63756D01*
X93456Y-63808D01*
X93359Y-63905D01*
X93306Y-64031D01*
X93306Y-64168D01*
X93358Y-64294D01*
X93455Y-64391D01*
X93581Y-64444D01*
X93718Y-64444D01*
X93844Y-64392D01*
X93941Y-64295D01*
X93994Y-64169D01*
X93994Y-69805D01*
X93694Y-69805D01*
X93694Y-64869D01*
X93694Y-64732D01*
X93642Y-64606D01*
X93545Y-64509D01*
X93419Y-64456D01*
X93282Y-64456D01*
X93156Y-64508D01*
X93144Y-64520D01*
X93144Y-64169D01*
X93144Y-64032D01*
X93092Y-63906D01*
X92995Y-63809D01*
X92869Y-63756D01*
X92732Y-63756D01*
X92606Y-63808D01*
X92509Y-63905D01*
X92456Y-64031D01*
X92456Y-64168D01*
X92508Y-64294D01*
X92605Y-64391D01*
X92731Y-64444D01*
X92868Y-64444D01*
X92994Y-64392D01*
X93091Y-64295D01*
X93144Y-64169D01*
X93144Y-64520D01*
X93059Y-64605D01*
X93006Y-64731D01*
X93006Y-64868D01*
X93058Y-64994D01*
X93155Y-65091D01*
X93281Y-65144D01*
X93418Y-65144D01*
X93544Y-65092D01*
X93641Y-64995D01*
X93694Y-64869D01*
X93694Y-69805D01*
X92994Y-69805D01*
X92994Y-68619D01*
X92994Y-68482D01*
X92994Y-67919D01*
X92994Y-67782D01*
X92994Y-67119D01*
X92994Y-66982D01*
X92994Y-66369D01*
X92994Y-66232D01*
X92994Y-65619D01*
X92994Y-65482D01*
X92994Y-64869D01*
X92994Y-64732D01*
X92942Y-64606D01*
X92845Y-64509D01*
X92719Y-64456D01*
X92582Y-64456D01*
X92456Y-64508D01*
X92359Y-64605D01*
X92306Y-64731D01*
X92306Y-64868D01*
X92358Y-64994D01*
X92455Y-65091D01*
X92581Y-65144D01*
X92718Y-65144D01*
X92844Y-65092D01*
X92941Y-64995D01*
X92994Y-64869D01*
X92994Y-65482D01*
X92942Y-65356D01*
X92845Y-65259D01*
X92719Y-65206D01*
X92582Y-65206D01*
X92456Y-65258D01*
X92359Y-65355D01*
X92306Y-65481D01*
X92306Y-65618D01*
X92358Y-65744D01*
X92455Y-65841D01*
X92581Y-65894D01*
X92718Y-65894D01*
X92844Y-65842D01*
X92941Y-65745D01*
X92994Y-65619D01*
X92994Y-66232D01*
X92942Y-66106D01*
X92845Y-66009D01*
X92719Y-65956D01*
X92582Y-65956D01*
X92456Y-66008D01*
X92359Y-66105D01*
X92306Y-66231D01*
X92306Y-66368D01*
X92358Y-66494D01*
X92455Y-66591D01*
X92581Y-66644D01*
X92718Y-66644D01*
X92844Y-66592D01*
X92941Y-66495D01*
X92994Y-66369D01*
X92994Y-66982D01*
X92942Y-66856D01*
X92845Y-66759D01*
X92719Y-66706D01*
X92582Y-66706D01*
X92456Y-66758D01*
X92359Y-66855D01*
X92306Y-66981D01*
X92306Y-67118D01*
X92358Y-67244D01*
X92455Y-67341D01*
X92581Y-67394D01*
X92718Y-67394D01*
X92844Y-67342D01*
X92941Y-67245D01*
X92994Y-67119D01*
X92994Y-67782D01*
X92942Y-67656D01*
X92845Y-67559D01*
X92719Y-67506D01*
X92582Y-67506D01*
X92456Y-67558D01*
X92359Y-67655D01*
X92306Y-67781D01*
X92306Y-67918D01*
X92358Y-68044D01*
X92455Y-68141D01*
X92581Y-68194D01*
X92718Y-68194D01*
X92844Y-68142D01*
X92941Y-68045D01*
X92994Y-67919D01*
X92994Y-68482D01*
X92942Y-68356D01*
X92845Y-68259D01*
X92719Y-68206D01*
X92582Y-68206D01*
X92456Y-68258D01*
X92359Y-68355D01*
X92306Y-68481D01*
X92306Y-68618D01*
X92358Y-68744D01*
X92455Y-68841D01*
X92581Y-68894D01*
X92718Y-68894D01*
X92844Y-68842D01*
X92941Y-68745D01*
X92994Y-68619D01*
X92994Y-69805D01*
X92294Y-69805D01*
X92294Y-69119D01*
X92294Y-68982D01*
X92294Y-64169D01*
X92294Y-64032D01*
X92242Y-63906D01*
X92145Y-63809D01*
X92019Y-63756D01*
X91882Y-63756D01*
X91756Y-63808D01*
X91659Y-63905D01*
X91606Y-64031D01*
X91606Y-64168D01*
X91658Y-64294D01*
X91755Y-64391D01*
X91881Y-64444D01*
X92018Y-64444D01*
X92144Y-64392D01*
X92241Y-64295D01*
X92294Y-64169D01*
X92294Y-68982D01*
X92242Y-68856D01*
X92145Y-68759D01*
X92094Y-68737D01*
X92094Y-65569D01*
X92094Y-65432D01*
X92042Y-65306D01*
X91945Y-65209D01*
X91819Y-65156D01*
X91682Y-65156D01*
X91556Y-65208D01*
X91459Y-65305D01*
X91444Y-65340D01*
X91444Y-64169D01*
X91444Y-64032D01*
X91392Y-63906D01*
X91295Y-63809D01*
X91194Y-63766D01*
X91194Y-61319D01*
X91194Y-61182D01*
X91142Y-61056D01*
X91045Y-60959D01*
X90919Y-60906D01*
X90782Y-60906D01*
X90656Y-60958D01*
X90559Y-61055D01*
X90506Y-61181D01*
X90506Y-61318D01*
X90558Y-61444D01*
X90655Y-61541D01*
X90781Y-61594D01*
X90918Y-61594D01*
X91044Y-61542D01*
X91141Y-61445D01*
X91194Y-61319D01*
X91194Y-63766D01*
X91169Y-63756D01*
X91032Y-63756D01*
X90906Y-63808D01*
X90809Y-63905D01*
X90756Y-64031D01*
X90756Y-64168D01*
X90808Y-64294D01*
X90905Y-64391D01*
X91031Y-64444D01*
X91168Y-64444D01*
X91294Y-64392D01*
X91391Y-64295D01*
X91444Y-64169D01*
X91444Y-65340D01*
X91406Y-65431D01*
X91406Y-65568D01*
X91458Y-65694D01*
X91555Y-65791D01*
X91681Y-65844D01*
X91818Y-65844D01*
X91944Y-65792D01*
X92041Y-65695D01*
X92094Y-65569D01*
X92094Y-68737D01*
X92019Y-68706D01*
X91994Y-68706D01*
X91994Y-68419D01*
X91994Y-68282D01*
X91942Y-68156D01*
X91845Y-68059D01*
X91844Y-68058D01*
X91844Y-67219D01*
X91844Y-67082D01*
X91792Y-66956D01*
X91695Y-66859D01*
X91569Y-66806D01*
X91432Y-66806D01*
X91306Y-66858D01*
X91209Y-66955D01*
X91156Y-67081D01*
X91156Y-67218D01*
X91208Y-67344D01*
X91305Y-67441D01*
X91431Y-67494D01*
X91568Y-67494D01*
X91694Y-67442D01*
X91791Y-67345D01*
X91844Y-67219D01*
X91844Y-68058D01*
X91719Y-68006D01*
X91582Y-68006D01*
X91456Y-68058D01*
X91359Y-68155D01*
X91306Y-68281D01*
X91306Y-68418D01*
X91358Y-68544D01*
X91455Y-68641D01*
X91581Y-68694D01*
X91718Y-68694D01*
X91844Y-68642D01*
X91941Y-68545D01*
X91994Y-68419D01*
X91994Y-68706D01*
X91882Y-68706D01*
X91756Y-68758D01*
X91659Y-68855D01*
X91606Y-68981D01*
X91606Y-69118D01*
X91658Y-69244D01*
X91755Y-69341D01*
X91881Y-69394D01*
X92018Y-69394D01*
X92144Y-69342D01*
X92241Y-69245D01*
X92294Y-69119D01*
X92294Y-69805D01*
X91094Y-69805D01*
X91094Y-67219D01*
X91094Y-67082D01*
X91042Y-66956D01*
X90945Y-66859D01*
X90819Y-66806D01*
X90682Y-66806D01*
X90556Y-66858D01*
X90459Y-66955D01*
X90406Y-67081D01*
X90406Y-67218D01*
X90458Y-67344D01*
X90555Y-67441D01*
X90681Y-67494D01*
X90818Y-67494D01*
X90944Y-67442D01*
X91041Y-67345D01*
X91094Y-67219D01*
X91094Y-69805D01*
X90294Y-69805D01*
X90294Y-67194D01*
X90294Y-67057D01*
X90242Y-66931D01*
X90145Y-66834D01*
X90044Y-66791D01*
X90044Y-65569D01*
X90044Y-65432D01*
X89992Y-65306D01*
X89895Y-65209D01*
X89769Y-65156D01*
X89632Y-65156D01*
X89506Y-65208D01*
X89425Y-65289D01*
X89411Y-65275D01*
X89441Y-65245D01*
X89494Y-65119D01*
X89494Y-64982D01*
X89442Y-64856D01*
X89345Y-64759D01*
X89244Y-64716D01*
X89244Y-62219D01*
X89244Y-62082D01*
X89192Y-61956D01*
X89095Y-61859D01*
X88969Y-61806D01*
X88832Y-61806D01*
X88744Y-61842D01*
X88744Y-59019D01*
X88744Y-58882D01*
X88692Y-58756D01*
X88595Y-58659D01*
X88469Y-58606D01*
X88332Y-58606D01*
X88294Y-58621D01*
X88294Y-58369D01*
X88294Y-58232D01*
X88242Y-58106D01*
X88145Y-58009D01*
X88019Y-57956D01*
X87882Y-57956D01*
X87756Y-58008D01*
X87659Y-58105D01*
X87606Y-58231D01*
X87606Y-58368D01*
X87658Y-58494D01*
X87755Y-58591D01*
X87881Y-58644D01*
X88018Y-58644D01*
X88144Y-58592D01*
X88241Y-58495D01*
X88294Y-58369D01*
X88294Y-58621D01*
X88206Y-58658D01*
X88109Y-58755D01*
X88056Y-58881D01*
X88056Y-59018D01*
X88108Y-59144D01*
X88205Y-59241D01*
X88331Y-59294D01*
X88468Y-59294D01*
X88594Y-59242D01*
X88691Y-59145D01*
X88744Y-59019D01*
X88744Y-61842D01*
X88706Y-61858D01*
X88609Y-61955D01*
X88556Y-62081D01*
X88556Y-62218D01*
X88608Y-62344D01*
X88705Y-62441D01*
X88831Y-62494D01*
X88968Y-62494D01*
X89094Y-62442D01*
X89191Y-62345D01*
X89244Y-62219D01*
X89244Y-64716D01*
X89219Y-64706D01*
X89082Y-64706D01*
X88956Y-64758D01*
X88859Y-64855D01*
X88806Y-64981D01*
X88806Y-65118D01*
X88858Y-65244D01*
X88889Y-65275D01*
X88859Y-65305D01*
X88806Y-65431D01*
X88806Y-65568D01*
X88858Y-65694D01*
X88955Y-65791D01*
X89081Y-65844D01*
X89218Y-65844D01*
X89344Y-65792D01*
X89425Y-65711D01*
X89505Y-65791D01*
X89631Y-65844D01*
X89768Y-65844D01*
X89894Y-65792D01*
X89991Y-65695D01*
X90044Y-65569D01*
X90044Y-66791D01*
X90019Y-66781D01*
X89882Y-66781D01*
X89756Y-66833D01*
X89659Y-66930D01*
X89606Y-67056D01*
X89606Y-67193D01*
X89658Y-67319D01*
X89755Y-67416D01*
X89881Y-67469D01*
X90018Y-67469D01*
X90144Y-67417D01*
X90241Y-67320D01*
X90294Y-67194D01*
X90294Y-69805D01*
X89294Y-69805D01*
X89294Y-67194D01*
X89294Y-67057D01*
X89242Y-66931D01*
X89145Y-66834D01*
X89019Y-66781D01*
X88882Y-66781D01*
X88756Y-66833D01*
X88694Y-66895D01*
X88694Y-64869D01*
X88694Y-64732D01*
X88642Y-64606D01*
X88545Y-64509D01*
X88419Y-64456D01*
X88294Y-64456D01*
X88294Y-60319D01*
X88294Y-60182D01*
X88242Y-60056D01*
X88145Y-59959D01*
X88019Y-59906D01*
X87882Y-59906D01*
X87756Y-59958D01*
X87659Y-60055D01*
X87606Y-60181D01*
X87606Y-60318D01*
X87658Y-60444D01*
X87755Y-60541D01*
X87881Y-60594D01*
X88018Y-60594D01*
X88144Y-60542D01*
X88241Y-60445D01*
X88294Y-60319D01*
X88294Y-64456D01*
X88282Y-64456D01*
X88156Y-64508D01*
X88059Y-64605D01*
X88006Y-64731D01*
X88006Y-64868D01*
X88058Y-64994D01*
X88155Y-65091D01*
X88281Y-65144D01*
X88418Y-65144D01*
X88544Y-65092D01*
X88641Y-64995D01*
X88694Y-64869D01*
X88694Y-66895D01*
X88659Y-66930D01*
X88606Y-67056D01*
X88606Y-67193D01*
X88658Y-67319D01*
X88755Y-67416D01*
X88881Y-67469D01*
X89018Y-67469D01*
X89144Y-67417D01*
X89241Y-67320D01*
X89294Y-67194D01*
X89294Y-69805D01*
X88794Y-69805D01*
X88794Y-68419D01*
X88794Y-68282D01*
X88742Y-68156D01*
X88645Y-68059D01*
X88519Y-68006D01*
X88382Y-68006D01*
X88294Y-68042D01*
X88294Y-67194D01*
X88294Y-67057D01*
X88242Y-66931D01*
X88145Y-66834D01*
X88019Y-66781D01*
X87882Y-66781D01*
X87756Y-66833D01*
X87659Y-66930D01*
X87606Y-67056D01*
X87606Y-67193D01*
X87658Y-67319D01*
X87755Y-67416D01*
X87881Y-67469D01*
X88018Y-67469D01*
X88144Y-67417D01*
X88241Y-67320D01*
X88294Y-67194D01*
X88294Y-68042D01*
X88256Y-68058D01*
X88159Y-68155D01*
X88106Y-68281D01*
X88106Y-68418D01*
X88158Y-68544D01*
X88255Y-68641D01*
X88381Y-68694D01*
X88518Y-68694D01*
X88644Y-68642D01*
X88741Y-68545D01*
X88794Y-68419D01*
X88794Y-69805D01*
X87444Y-69805D01*
X87444Y-66519D01*
X87444Y-66382D01*
X87394Y-66260D01*
X87394Y-63369D01*
X87394Y-63232D01*
X87342Y-63106D01*
X87245Y-63009D01*
X87119Y-62956D01*
X86982Y-62956D01*
X86965Y-62962D01*
X86942Y-62906D01*
X86845Y-62809D01*
X86824Y-62800D01*
X86844Y-62792D01*
X86941Y-62695D01*
X86994Y-62569D01*
X86994Y-62432D01*
X86942Y-62306D01*
X86845Y-62209D01*
X86719Y-62156D01*
X86582Y-62156D01*
X86456Y-62208D01*
X86359Y-62305D01*
X86306Y-62431D01*
X86306Y-62568D01*
X86358Y-62694D01*
X86455Y-62791D01*
X86475Y-62799D01*
X86456Y-62808D01*
X86359Y-62905D01*
X86306Y-63031D01*
X86306Y-63168D01*
X86358Y-63294D01*
X86455Y-63391D01*
X86581Y-63444D01*
X86718Y-63444D01*
X86734Y-63437D01*
X86758Y-63494D01*
X86855Y-63591D01*
X86981Y-63644D01*
X87118Y-63644D01*
X87244Y-63592D01*
X87341Y-63495D01*
X87394Y-63369D01*
X87394Y-66260D01*
X87392Y-66256D01*
X87344Y-66208D01*
X87344Y-64119D01*
X87344Y-63982D01*
X87292Y-63856D01*
X87195Y-63759D01*
X87069Y-63706D01*
X86932Y-63706D01*
X86806Y-63758D01*
X86709Y-63855D01*
X86656Y-63981D01*
X86656Y-64118D01*
X86708Y-64244D01*
X86805Y-64341D01*
X86931Y-64394D01*
X87068Y-64394D01*
X87194Y-64342D01*
X87291Y-64245D01*
X87344Y-64119D01*
X87344Y-66208D01*
X87295Y-66159D01*
X87169Y-66106D01*
X87032Y-66106D01*
X86906Y-66158D01*
X86809Y-66255D01*
X86756Y-66381D01*
X86756Y-66518D01*
X86808Y-66644D01*
X86905Y-66741D01*
X87000Y-66781D01*
X86882Y-66781D01*
X86794Y-66817D01*
X86794Y-66682D01*
X86742Y-66556D01*
X86645Y-66459D01*
X86544Y-66416D01*
X86544Y-64219D01*
X86544Y-64082D01*
X86492Y-63956D01*
X86395Y-63859D01*
X86294Y-63816D01*
X86294Y-62569D01*
X86294Y-62432D01*
X86242Y-62306D01*
X86145Y-62209D01*
X86019Y-62156D01*
X85930Y-62156D01*
X85941Y-62145D01*
X85994Y-62019D01*
X85994Y-61882D01*
X85942Y-61756D01*
X85845Y-61659D01*
X85719Y-61606D01*
X85582Y-61606D01*
X85456Y-61658D01*
X85359Y-61755D01*
X85306Y-61881D01*
X85306Y-62018D01*
X85307Y-62021D01*
X85245Y-61959D01*
X85119Y-61906D01*
X84982Y-61906D01*
X84856Y-61958D01*
X84759Y-62055D01*
X84706Y-62181D01*
X84706Y-62220D01*
X84695Y-62209D01*
X84569Y-62156D01*
X84432Y-62156D01*
X84306Y-62208D01*
X84209Y-62305D01*
X84156Y-62431D01*
X84156Y-62568D01*
X84208Y-62694D01*
X84305Y-62791D01*
X84431Y-62844D01*
X84568Y-62844D01*
X84694Y-62792D01*
X84791Y-62695D01*
X84844Y-62569D01*
X84844Y-62530D01*
X84855Y-62541D01*
X84981Y-62594D01*
X85118Y-62594D01*
X85208Y-62556D01*
X85156Y-62681D01*
X85156Y-62818D01*
X85208Y-62944D01*
X85305Y-63041D01*
X85431Y-63094D01*
X85568Y-63094D01*
X85694Y-63042D01*
X85791Y-62945D01*
X85840Y-62827D01*
X85881Y-62844D01*
X86018Y-62844D01*
X86144Y-62792D01*
X86241Y-62695D01*
X86294Y-62569D01*
X86294Y-63816D01*
X86269Y-63806D01*
X86132Y-63806D01*
X86006Y-63858D01*
X85909Y-63955D01*
X85884Y-64012D01*
X85869Y-64006D01*
X85732Y-64006D01*
X85606Y-64058D01*
X85509Y-64155D01*
X85484Y-64212D01*
X85469Y-64206D01*
X85332Y-64206D01*
X85206Y-64258D01*
X85109Y-64355D01*
X85084Y-64412D01*
X85069Y-64406D01*
X84932Y-64406D01*
X84806Y-64458D01*
X84709Y-64555D01*
X84656Y-64681D01*
X84656Y-64720D01*
X84595Y-64659D01*
X84469Y-64606D01*
X84332Y-64606D01*
X84206Y-64658D01*
X84144Y-64719D01*
X84144Y-63519D01*
X84144Y-63382D01*
X84144Y-61969D01*
X84144Y-61832D01*
X84092Y-61706D01*
X83995Y-61609D01*
X83869Y-61556D01*
X83732Y-61556D01*
X83606Y-61608D01*
X83509Y-61705D01*
X83456Y-61831D01*
X83456Y-61968D01*
X83508Y-62094D01*
X83605Y-62191D01*
X83731Y-62244D01*
X83868Y-62244D01*
X83994Y-62192D01*
X84091Y-62095D01*
X84144Y-61969D01*
X84144Y-63382D01*
X84092Y-63256D01*
X83995Y-63159D01*
X83869Y-63106D01*
X83732Y-63106D01*
X83606Y-63158D01*
X83509Y-63255D01*
X83456Y-63381D01*
X83456Y-63518D01*
X83508Y-63644D01*
X83605Y-63741D01*
X83731Y-63794D01*
X83868Y-63794D01*
X83994Y-63742D01*
X84091Y-63645D01*
X84144Y-63519D01*
X84144Y-64719D01*
X84116Y-64747D01*
X84019Y-64706D01*
X83882Y-64706D01*
X83756Y-64758D01*
X83659Y-64855D01*
X83606Y-64981D01*
X83606Y-65118D01*
X83658Y-65244D01*
X83755Y-65341D01*
X83881Y-65394D01*
X84018Y-65394D01*
X84144Y-65342D01*
X84233Y-65252D01*
X84331Y-65294D01*
X84468Y-65294D01*
X84594Y-65242D01*
X84606Y-65230D01*
X84606Y-65268D01*
X84658Y-65394D01*
X84755Y-65491D01*
X84881Y-65544D01*
X85018Y-65544D01*
X85144Y-65492D01*
X85150Y-65486D01*
X85205Y-65541D01*
X85331Y-65594D01*
X85468Y-65594D01*
X85594Y-65542D01*
X85625Y-65511D01*
X85655Y-65541D01*
X85781Y-65594D01*
X85918Y-65594D01*
X86044Y-65542D01*
X86141Y-65445D01*
X86194Y-65319D01*
X86194Y-65182D01*
X86142Y-65056D01*
X86045Y-64959D01*
X85919Y-64906D01*
X85782Y-64906D01*
X85656Y-64958D01*
X85625Y-64989D01*
X85595Y-64959D01*
X85469Y-64906D01*
X85332Y-64906D01*
X85302Y-64918D01*
X85315Y-64887D01*
X85331Y-64894D01*
X85468Y-64894D01*
X85594Y-64842D01*
X85691Y-64745D01*
X85715Y-64687D01*
X85731Y-64694D01*
X85868Y-64694D01*
X85994Y-64642D01*
X86091Y-64545D01*
X86115Y-64487D01*
X86131Y-64494D01*
X86268Y-64494D01*
X86394Y-64442D01*
X86491Y-64345D01*
X86544Y-64219D01*
X86544Y-66416D01*
X86519Y-66406D01*
X86382Y-66406D01*
X86344Y-66421D01*
X86344Y-66382D01*
X86292Y-66256D01*
X86195Y-66159D01*
X86069Y-66106D01*
X85932Y-66106D01*
X85806Y-66158D01*
X85709Y-66255D01*
X85656Y-66381D01*
X85656Y-66518D01*
X85708Y-66644D01*
X85805Y-66741D01*
X85900Y-66781D01*
X85882Y-66781D01*
X85756Y-66833D01*
X85659Y-66930D01*
X85606Y-67056D01*
X85606Y-67193D01*
X85658Y-67319D01*
X85755Y-67416D01*
X85881Y-67469D01*
X86018Y-67469D01*
X86144Y-67417D01*
X86241Y-67320D01*
X86294Y-67194D01*
X86294Y-67057D01*
X86381Y-67094D01*
X86518Y-67094D01*
X86606Y-67057D01*
X86606Y-67193D01*
X86658Y-67319D01*
X86755Y-67416D01*
X86881Y-67469D01*
X87018Y-67469D01*
X87144Y-67417D01*
X87241Y-67320D01*
X87294Y-67194D01*
X87294Y-67057D01*
X87242Y-66931D01*
X87145Y-66834D01*
X87049Y-66794D01*
X87168Y-66794D01*
X87294Y-66742D01*
X87391Y-66645D01*
X87444Y-66519D01*
X87444Y-69805D01*
X85294Y-69805D01*
X85294Y-67194D01*
X85294Y-67057D01*
X85242Y-66931D01*
X85145Y-66834D01*
X85094Y-66812D01*
X85094Y-66519D01*
X85094Y-66382D01*
X85042Y-66256D01*
X84945Y-66159D01*
X84819Y-66106D01*
X84682Y-66106D01*
X84556Y-66158D01*
X84459Y-66255D01*
X84406Y-66381D01*
X84406Y-66518D01*
X84458Y-66644D01*
X84555Y-66741D01*
X84681Y-66794D01*
X84818Y-66794D01*
X84944Y-66742D01*
X85041Y-66645D01*
X85094Y-66519D01*
X85094Y-66812D01*
X85019Y-66781D01*
X84882Y-66781D01*
X84756Y-66833D01*
X84659Y-66930D01*
X84606Y-67056D01*
X84606Y-67193D01*
X84658Y-67319D01*
X84755Y-67416D01*
X84881Y-67469D01*
X85018Y-67469D01*
X85144Y-67417D01*
X85241Y-67320D01*
X85294Y-67194D01*
X85294Y-69805D01*
X84294Y-69805D01*
X84294Y-67194D01*
X84294Y-67057D01*
X84242Y-66931D01*
X84145Y-66834D01*
X84019Y-66781D01*
X83994Y-66781D01*
X83994Y-65769D01*
X83994Y-65632D01*
X83942Y-65506D01*
X83845Y-65409D01*
X83719Y-65356D01*
X83582Y-65356D01*
X83456Y-65408D01*
X83359Y-65505D01*
X83306Y-65631D01*
X83306Y-65768D01*
X83358Y-65894D01*
X83455Y-65991D01*
X83581Y-66044D01*
X83718Y-66044D01*
X83844Y-65992D01*
X83941Y-65895D01*
X83994Y-65769D01*
X83994Y-66781D01*
X83882Y-66781D01*
X83756Y-66833D01*
X83659Y-66930D01*
X83606Y-67056D01*
X83606Y-67193D01*
X83658Y-67319D01*
X83755Y-67416D01*
X83881Y-67469D01*
X84018Y-67469D01*
X84144Y-67417D01*
X84241Y-67320D01*
X84294Y-67194D01*
X84294Y-69805D01*
X83294Y-69805D01*
X83294Y-67194D01*
X83294Y-67057D01*
X83242Y-66931D01*
X83194Y-66883D01*
X83194Y-66369D01*
X83194Y-66232D01*
X83142Y-66106D01*
X83061Y-66025D01*
X83141Y-65945D01*
X83194Y-65819D01*
X83194Y-65682D01*
X83142Y-65556D01*
X83045Y-65459D01*
X82919Y-65406D01*
X82782Y-65406D01*
X82741Y-65422D01*
X82741Y-62039D01*
X82741Y-62038D01*
X82741Y-61962D01*
X82741Y-61961D01*
X82695Y-61732D01*
X82666Y-61661D01*
X82536Y-61468D01*
X82482Y-61414D01*
X82288Y-61284D01*
X82218Y-61255D01*
X81994Y-61210D01*
X81994Y-60919D01*
X81994Y-60782D01*
X81942Y-60656D01*
X81845Y-60559D01*
X81719Y-60506D01*
X81582Y-60506D01*
X81456Y-60558D01*
X81359Y-60655D01*
X81306Y-60781D01*
X81306Y-60918D01*
X81358Y-61044D01*
X81455Y-61141D01*
X81581Y-61194D01*
X81718Y-61194D01*
X81844Y-61142D01*
X81941Y-61045D01*
X81994Y-60919D01*
X81994Y-61210D01*
X81988Y-61209D01*
X81912Y-61209D01*
X81911Y-61209D01*
X81682Y-61255D01*
X81611Y-61284D01*
X81418Y-61414D01*
X81364Y-61468D01*
X81234Y-61662D01*
X81205Y-61732D01*
X81159Y-61962D01*
X81159Y-62038D01*
X81205Y-62268D01*
X81234Y-62338D01*
X81364Y-62532D01*
X81418Y-62586D01*
X81611Y-62716D01*
X81682Y-62745D01*
X81911Y-62791D01*
X81912Y-62791D01*
X81988Y-62791D01*
X82218Y-62745D01*
X82288Y-62716D01*
X82482Y-62586D01*
X82536Y-62532D01*
X82666Y-62339D01*
X82695Y-62268D01*
X82741Y-62039D01*
X82741Y-65422D01*
X82656Y-65458D01*
X82559Y-65555D01*
X82506Y-65681D01*
X82506Y-65818D01*
X82558Y-65944D01*
X82639Y-66025D01*
X82559Y-66105D01*
X82506Y-66231D01*
X82506Y-66368D01*
X82558Y-66494D01*
X82655Y-66591D01*
X82781Y-66644D01*
X82918Y-66644D01*
X83044Y-66592D01*
X83141Y-66495D01*
X83194Y-66369D01*
X83194Y-66883D01*
X83145Y-66834D01*
X83019Y-66781D01*
X82882Y-66781D01*
X82756Y-66833D01*
X82659Y-66930D01*
X82606Y-67056D01*
X82606Y-67193D01*
X82658Y-67319D01*
X82755Y-67416D01*
X82881Y-67469D01*
X83018Y-67469D01*
X83144Y-67417D01*
X83241Y-67320D01*
X83294Y-67194D01*
X83294Y-69805D01*
X82294Y-69805D01*
X82294Y-67194D01*
X82294Y-67057D01*
X82242Y-66931D01*
X82145Y-66834D01*
X82019Y-66781D01*
X81882Y-66781D01*
X81756Y-66833D01*
X81659Y-66930D01*
X81644Y-66965D01*
X81644Y-64619D01*
X81644Y-64482D01*
X81592Y-64356D01*
X81495Y-64259D01*
X81369Y-64206D01*
X81232Y-64206D01*
X81106Y-64258D01*
X81044Y-64320D01*
X81044Y-62419D01*
X81044Y-62282D01*
X80992Y-62156D01*
X80895Y-62059D01*
X80769Y-62006D01*
X80632Y-62006D01*
X80506Y-62058D01*
X80409Y-62155D01*
X80356Y-62281D01*
X80356Y-62418D01*
X80408Y-62544D01*
X80505Y-62641D01*
X80631Y-62694D01*
X80768Y-62694D01*
X80894Y-62642D01*
X80991Y-62545D01*
X81044Y-62419D01*
X81044Y-64320D01*
X81009Y-64355D01*
X80956Y-64481D01*
X80956Y-64618D01*
X81008Y-64744D01*
X81105Y-64841D01*
X81231Y-64894D01*
X81368Y-64894D01*
X81494Y-64842D01*
X81591Y-64745D01*
X81644Y-64619D01*
X81644Y-66965D01*
X81606Y-67056D01*
X81606Y-67193D01*
X81658Y-67319D01*
X81755Y-67416D01*
X81881Y-67469D01*
X82018Y-67469D01*
X82144Y-67417D01*
X82241Y-67320D01*
X82294Y-67194D01*
X82294Y-69805D01*
X81394Y-69805D01*
X81394Y-68619D01*
X81394Y-68482D01*
X81342Y-68356D01*
X81245Y-68259D01*
X81119Y-68206D01*
X80982Y-68206D01*
X80856Y-68258D01*
X80759Y-68355D01*
X80706Y-68481D01*
X80706Y-68618D01*
X80758Y-68744D01*
X80855Y-68841D01*
X80981Y-68894D01*
X81118Y-68894D01*
X81244Y-68842D01*
X81341Y-68745D01*
X81394Y-68619D01*
X81394Y-69805D01*
X80495Y-69805D01*
X80495Y-68400D01*
X80480Y-68325D01*
X80438Y-68262D01*
X80375Y-68220D01*
X80300Y-68205D01*
X80195Y-68205D01*
X80195Y-68195D01*
X80600Y-68195D01*
X80675Y-68180D01*
X80738Y-68138D01*
X80780Y-68075D01*
X80795Y-68000D01*
X80795Y-66207D01*
X80881Y-66244D01*
X81018Y-66244D01*
X81144Y-66192D01*
X81241Y-66095D01*
X81294Y-65969D01*
X81294Y-65832D01*
X81242Y-65706D01*
X81145Y-65609D01*
X81019Y-65556D01*
X80882Y-65556D01*
X80756Y-65608D01*
X80716Y-65647D01*
X80675Y-65620D01*
X80600Y-65605D01*
X80195Y-65605D01*
X80195Y-60495D01*
X85500Y-60495D01*
X85508Y-60493D01*
X85514Y-60494D01*
X85543Y-60486D01*
X85575Y-60480D01*
X85579Y-60476D01*
X85587Y-60475D01*
X85612Y-60454D01*
X85638Y-60438D01*
X85642Y-60431D01*
X85647Y-60428D01*
X85661Y-60402D01*
X85680Y-60375D01*
X85681Y-60368D01*
X85685Y-60362D01*
X86288Y-58546D01*
X86308Y-58594D01*
X86405Y-58691D01*
X86531Y-58744D01*
X86668Y-58744D01*
X86794Y-58692D01*
X86891Y-58595D01*
X86944Y-58469D01*
X86944Y-58332D01*
X86892Y-58206D01*
X86795Y-58109D01*
X86669Y-58056D01*
X86532Y-58056D01*
X86439Y-58094D01*
X86638Y-57495D01*
X94159Y-57495D01*
X95113Y-60362D01*
X95119Y-60373D01*
X95120Y-60375D01*
X95123Y-60380D01*
X95151Y-60428D01*
X95160Y-60435D01*
X95162Y-60438D01*
X95173Y-60445D01*
X95211Y-60475D01*
X95222Y-60478D01*
X95225Y-60480D01*
X95240Y-60483D01*
X95284Y-60495D01*
X95293Y-60493D01*
X95300Y-60495D01*
X100605Y-60495D01*
X100605Y-65605D01*
X100586Y-65605D01*
X100586Y-63679D01*
X100575Y-63466D01*
X100515Y-63319D01*
X100421Y-63292D01*
X100351Y-63362D01*
X100351Y-63222D01*
X100324Y-63128D01*
X100122Y-63057D01*
X100094Y-63058D01*
X100094Y-62419D01*
X100094Y-62282D01*
X100042Y-62156D01*
X99945Y-62059D01*
X99819Y-62006D01*
X99682Y-62006D01*
X99641Y-62022D01*
X99641Y-61962D01*
X99641Y-61961D01*
X99595Y-61732D01*
X99566Y-61661D01*
X99436Y-61468D01*
X99382Y-61414D01*
X99188Y-61284D01*
X99118Y-61255D01*
X98888Y-61209D01*
X98812Y-61209D01*
X98811Y-61209D01*
X98582Y-61255D01*
X98511Y-61284D01*
X98318Y-61414D01*
X98264Y-61468D01*
X98134Y-61662D01*
X98105Y-61732D01*
X98059Y-61962D01*
X98059Y-62038D01*
X98105Y-62268D01*
X98134Y-62338D01*
X98264Y-62532D01*
X98318Y-62586D01*
X98511Y-62716D01*
X98582Y-62745D01*
X98811Y-62791D01*
X98812Y-62791D01*
X98888Y-62791D01*
X99118Y-62745D01*
X99188Y-62716D01*
X99382Y-62586D01*
X99436Y-62532D01*
X99446Y-62516D01*
X99458Y-62544D01*
X99555Y-62641D01*
X99681Y-62694D01*
X99818Y-62694D01*
X99944Y-62642D01*
X100041Y-62545D01*
X100094Y-62419D01*
X100094Y-63058D01*
X99909Y-63068D01*
X99762Y-63128D01*
X99735Y-63222D01*
X100043Y-63529D01*
X100351Y-63222D01*
X100351Y-63362D01*
X100114Y-63600D01*
X100421Y-63908D01*
X100515Y-63881D01*
X100586Y-63679D01*
X100586Y-65605D01*
X100351Y-65605D01*
X100351Y-63978D01*
X100043Y-63671D01*
X99972Y-63741D01*
X99972Y-63600D01*
X99665Y-63292D01*
X99571Y-63319D01*
X99500Y-63521D01*
X99511Y-63734D01*
X99571Y-63881D01*
X99665Y-63908D01*
X99972Y-63600D01*
X99972Y-63741D01*
X99735Y-63978D01*
X99762Y-64072D01*
X99964Y-64143D01*
X100177Y-64132D01*
X100324Y-64072D01*
X100351Y-63978D01*
X100351Y-65605D01*
X100200Y-65605D01*
X100125Y-65620D01*
X100062Y-65662D01*
X100020Y-65725D01*
X100005Y-65800D01*
X100005Y-68000D01*
X100020Y-68075D01*
X100062Y-68138D01*
X100125Y-68180D01*
X100200Y-68195D01*
X100605Y-68195D01*
X100605Y-68205D01*
X100605Y-68205D01*
G37*
G54D13*
X100605Y-68205D02*
X100500Y-68205D01*
X100425Y-68220D01*
X100362Y-68262D01*
X100320Y-68325D01*
X100305Y-68400D01*
X100305Y-69805D01*
X98623Y-69805D01*
X98670Y-69694D01*
X98670Y-69507D01*
X98599Y-69334D01*
X98539Y-69274D01*
X98546Y-69268D01*
X98546Y-69267D01*
X98547Y-69267D01*
X98562Y-69246D01*
X98592Y-69207D01*
X98592Y-69206D01*
X98593Y-69205D01*
X98626Y-69134D01*
X98627Y-69133D01*
X98640Y-69078D01*
X98645Y-69060D01*
X98645Y-69059D01*
X98649Y-68980D01*
X98638Y-68904D01*
X98611Y-68829D01*
X98571Y-68763D01*
X98518Y-68704D01*
X98517Y-68702D01*
X98472Y-68670D01*
X98457Y-68658D01*
X98456Y-68657D01*
X98455Y-68657D01*
X98427Y-68643D01*
X98427Y-63694D01*
X98427Y-63507D01*
X98356Y-63334D01*
X98224Y-63202D01*
X98051Y-63130D01*
X97864Y-63130D01*
X97691Y-63201D01*
X97559Y-63333D01*
X97487Y-63506D01*
X97487Y-63693D01*
X97558Y-63866D01*
X97690Y-63998D01*
X97863Y-64070D01*
X98050Y-64070D01*
X98223Y-63999D01*
X98355Y-63867D01*
X98427Y-63694D01*
X98427Y-68643D01*
X98384Y-68624D01*
X98382Y-68623D01*
X98346Y-68614D01*
X98310Y-68605D01*
X98230Y-68601D01*
X98194Y-68606D01*
X98194Y-65569D01*
X98194Y-65432D01*
X98142Y-65306D01*
X98045Y-65209D01*
X97919Y-65156D01*
X97782Y-65156D01*
X97656Y-65208D01*
X97559Y-65305D01*
X97506Y-65431D01*
X97506Y-65568D01*
X97558Y-65694D01*
X97655Y-65791D01*
X97781Y-65844D01*
X97918Y-65844D01*
X98044Y-65792D01*
X98141Y-65695D01*
X98194Y-65569D01*
X98194Y-68606D01*
X98154Y-68612D01*
X98079Y-68639D01*
X98013Y-68679D01*
X97954Y-68731D01*
X97952Y-68733D01*
X97920Y-68777D01*
X97908Y-68793D01*
X97907Y-68793D01*
X97907Y-68795D01*
X97873Y-68868D01*
X97864Y-68904D01*
X97855Y-68940D01*
X97851Y-69020D01*
X97862Y-69096D01*
X97862Y-69097D01*
X97889Y-69171D01*
X97917Y-69217D01*
X97802Y-69333D01*
X97730Y-69506D01*
X97730Y-69693D01*
X97775Y-69805D01*
X97623Y-69805D01*
X97670Y-69694D01*
X97670Y-69507D01*
X97599Y-69334D01*
X97467Y-69202D01*
X97394Y-69171D01*
X97394Y-65569D01*
X97394Y-65432D01*
X97394Y-64169D01*
X97394Y-64032D01*
X97394Y-62094D01*
X97394Y-61957D01*
X97342Y-61831D01*
X97245Y-61734D01*
X97119Y-61681D01*
X96982Y-61681D01*
X96856Y-61733D01*
X96759Y-61830D01*
X96706Y-61956D01*
X96706Y-62093D01*
X96758Y-62219D01*
X96855Y-62316D01*
X96981Y-62369D01*
X97118Y-62369D01*
X97244Y-62317D01*
X97341Y-62220D01*
X97394Y-62094D01*
X97394Y-64032D01*
X97342Y-63906D01*
X97245Y-63809D01*
X97119Y-63756D01*
X96982Y-63756D01*
X96856Y-63808D01*
X96759Y-63905D01*
X96706Y-64031D01*
X96706Y-64168D01*
X96758Y-64294D01*
X96855Y-64391D01*
X96981Y-64444D01*
X97118Y-64444D01*
X97244Y-64392D01*
X97341Y-64295D01*
X97394Y-64169D01*
X97394Y-65432D01*
X97342Y-65306D01*
X97245Y-65209D01*
X97119Y-65156D01*
X96984Y-65156D01*
X96984Y-64769D01*
X96984Y-64632D01*
X96932Y-64506D01*
X96835Y-64409D01*
X96709Y-64356D01*
X96572Y-64356D01*
X96544Y-64367D01*
X96544Y-64169D01*
X96544Y-64032D01*
X96544Y-62094D01*
X96544Y-61957D01*
X96492Y-61831D01*
X96395Y-61734D01*
X96269Y-61681D01*
X96132Y-61681D01*
X96006Y-61733D01*
X95909Y-61830D01*
X95856Y-61956D01*
X95856Y-62093D01*
X95908Y-62219D01*
X96005Y-62316D01*
X96131Y-62369D01*
X96268Y-62369D01*
X96394Y-62317D01*
X96491Y-62220D01*
X96544Y-62094D01*
X96544Y-64032D01*
X96492Y-63906D01*
X96395Y-63809D01*
X96269Y-63756D01*
X96132Y-63756D01*
X96006Y-63808D01*
X95909Y-63905D01*
X95856Y-64031D01*
X95856Y-64168D01*
X95908Y-64294D01*
X96005Y-64391D01*
X96131Y-64444D01*
X96268Y-64444D01*
X96394Y-64392D01*
X96491Y-64295D01*
X96544Y-64169D01*
X96544Y-64367D01*
X96446Y-64408D01*
X96349Y-64505D01*
X96296Y-64631D01*
X96296Y-64768D01*
X96348Y-64894D01*
X96445Y-64991D01*
X96571Y-65044D01*
X96708Y-65044D01*
X96834Y-64992D01*
X96931Y-64895D01*
X96984Y-64769D01*
X96984Y-65156D01*
X96982Y-65156D01*
X96856Y-65208D01*
X96759Y-65305D01*
X96706Y-65431D01*
X96706Y-65461D01*
X96694Y-65456D01*
X96557Y-65456D01*
X96544Y-65461D01*
X96544Y-65432D01*
X96492Y-65306D01*
X96395Y-65209D01*
X96269Y-65156D01*
X96132Y-65156D01*
X96006Y-65208D01*
X95909Y-65305D01*
X95856Y-65431D01*
X95856Y-65568D01*
X95908Y-65694D01*
X96005Y-65791D01*
X96131Y-65844D01*
X96268Y-65844D01*
X96281Y-65838D01*
X96281Y-65868D01*
X96333Y-65994D01*
X96430Y-66091D01*
X96556Y-66144D01*
X96693Y-66144D01*
X96819Y-66092D01*
X96916Y-65995D01*
X96969Y-65869D01*
X96969Y-65838D01*
X96981Y-65844D01*
X97118Y-65844D01*
X97244Y-65792D01*
X97341Y-65695D01*
X97394Y-65569D01*
X97394Y-69171D01*
X97294Y-69130D01*
X97107Y-69130D01*
X96934Y-69201D01*
X96802Y-69333D01*
X96730Y-69506D01*
X96730Y-69693D01*
X96775Y-69805D01*
X96623Y-69805D01*
X96670Y-69694D01*
X96670Y-69507D01*
X96599Y-69334D01*
X96467Y-69202D01*
X96294Y-69130D01*
X96194Y-69130D01*
X96194Y-68519D01*
X96194Y-68382D01*
X96142Y-68256D01*
X96045Y-68159D01*
X95919Y-68106D01*
X95782Y-68106D01*
X95694Y-68142D01*
X95694Y-64169D01*
X95694Y-64032D01*
X95642Y-63906D01*
X95545Y-63809D01*
X95419Y-63756D01*
X95282Y-63756D01*
X95156Y-63808D01*
X95059Y-63905D01*
X95006Y-64031D01*
X95006Y-64168D01*
X95058Y-64294D01*
X95155Y-64391D01*
X95281Y-64444D01*
X95418Y-64444D01*
X95544Y-64392D01*
X95641Y-64295D01*
X95694Y-64169D01*
X95694Y-68142D01*
X95656Y-68158D01*
X95559Y-68255D01*
X95506Y-68381D01*
X95506Y-68518D01*
X95558Y-68644D01*
X95655Y-68741D01*
X95781Y-68794D01*
X95918Y-68794D01*
X96044Y-68742D01*
X96141Y-68645D01*
X96194Y-68519D01*
X96194Y-69130D01*
X96107Y-69130D01*
X95934Y-69201D01*
X95802Y-69333D01*
X95730Y-69506D01*
X95730Y-69693D01*
X95775Y-69805D01*
X95623Y-69805D01*
X95670Y-69694D01*
X95670Y-69507D01*
X95599Y-69334D01*
X95467Y-69202D01*
X95448Y-69194D01*
X95476Y-69134D01*
X95477Y-69133D01*
X95490Y-69078D01*
X95495Y-69060D01*
X95495Y-69059D01*
X95499Y-68980D01*
X95488Y-68904D01*
X95461Y-68829D01*
X95444Y-68800D01*
X95444Y-66669D01*
X95444Y-66532D01*
X95392Y-66406D01*
X95295Y-66309D01*
X95169Y-66256D01*
X95032Y-66256D01*
X94906Y-66308D01*
X94844Y-66370D01*
X94844Y-64169D01*
X94844Y-64032D01*
X94792Y-63906D01*
X94695Y-63809D01*
X94694Y-63808D01*
X94694Y-60419D01*
X94694Y-60282D01*
X94642Y-60156D01*
X94545Y-60059D01*
X94419Y-60006D01*
X94282Y-60006D01*
X94156Y-60058D01*
X94059Y-60155D01*
X94006Y-60281D01*
X94006Y-60418D01*
X94058Y-60544D01*
X94155Y-60641D01*
X94281Y-60694D01*
X94418Y-60694D01*
X94544Y-60642D01*
X94641Y-60545D01*
X94694Y-60419D01*
X94694Y-63808D01*
X94569Y-63756D01*
X94432Y-63756D01*
X94306Y-63808D01*
X94209Y-63905D01*
X94156Y-64031D01*
X94156Y-64168D01*
X94208Y-64294D01*
X94305Y-64391D01*
X94431Y-64444D01*
X94568Y-64444D01*
X94694Y-64392D01*
X94791Y-64295D01*
X94844Y-64169D01*
X94844Y-66370D01*
X94809Y-66405D01*
X94756Y-66531D01*
X94756Y-66556D01*
X94682Y-66556D01*
X94556Y-66608D01*
X94459Y-66705D01*
X94406Y-66831D01*
X94406Y-66966D01*
X94306Y-67008D01*
X94209Y-67105D01*
X94156Y-67231D01*
X94156Y-67368D01*
X94208Y-67494D01*
X94305Y-67591D01*
X94431Y-67644D01*
X94568Y-67644D01*
X94694Y-67592D01*
X94791Y-67495D01*
X94844Y-67369D01*
X94844Y-67233D01*
X94844Y-67232D01*
X94944Y-67192D01*
X95041Y-67095D01*
X95094Y-66969D01*
X95094Y-66944D01*
X95168Y-66944D01*
X95294Y-66892D01*
X95391Y-66795D01*
X95444Y-66669D01*
X95444Y-68800D01*
X95421Y-68763D01*
X95368Y-68704D01*
X95367Y-68702D01*
X95322Y-68670D01*
X95307Y-68658D01*
X95306Y-68657D01*
X95305Y-68657D01*
X95234Y-68624D01*
X95232Y-68623D01*
X95196Y-68614D01*
X95160Y-68605D01*
X95080Y-68601D01*
X95004Y-68612D01*
X94929Y-68639D01*
X94863Y-68679D01*
X94804Y-68731D01*
X94802Y-68733D01*
X94770Y-68777D01*
X94758Y-68793D01*
X94757Y-68793D01*
X94757Y-68795D01*
X94723Y-68868D01*
X94714Y-68904D01*
X94705Y-68940D01*
X94701Y-69020D01*
X94712Y-69096D01*
X94712Y-69097D01*
X94739Y-69171D01*
X94778Y-69236D01*
X94832Y-69296D01*
X94833Y-69297D01*
X94835Y-69299D01*
X94802Y-69333D01*
X94730Y-69506D01*
X94730Y-69693D01*
X94775Y-69805D01*
X93994Y-69805D01*
X93994Y-64169D01*
X93994Y-64032D01*
X93942Y-63906D01*
X93845Y-63809D01*
X93719Y-63756D01*
X93582Y-63756D01*
X93456Y-63808D01*
X93359Y-63905D01*
X93306Y-64031D01*
X93306Y-64168D01*
X93358Y-64294D01*
X93455Y-64391D01*
X93581Y-64444D01*
X93718Y-64444D01*
X93844Y-64392D01*
X93941Y-64295D01*
X93994Y-64169D01*
X93994Y-69805D01*
X93694Y-69805D01*
X93694Y-64869D01*
X93694Y-64732D01*
X93642Y-64606D01*
X93545Y-64509D01*
X93419Y-64456D01*
X93282Y-64456D01*
X93156Y-64508D01*
X93144Y-64520D01*
X93144Y-64169D01*
X93144Y-64032D01*
X93092Y-63906D01*
X92995Y-63809D01*
X92869Y-63756D01*
X92732Y-63756D01*
X92606Y-63808D01*
X92509Y-63905D01*
X92456Y-64031D01*
X92456Y-64168D01*
X92508Y-64294D01*
X92605Y-64391D01*
X92731Y-64444D01*
X92868Y-64444D01*
X92994Y-64392D01*
X93091Y-64295D01*
X93144Y-64169D01*
X93144Y-64520D01*
X93059Y-64605D01*
X93006Y-64731D01*
X93006Y-64868D01*
X93058Y-64994D01*
X93155Y-65091D01*
X93281Y-65144D01*
X93418Y-65144D01*
X93544Y-65092D01*
X93641Y-64995D01*
X93694Y-64869D01*
X93694Y-69805D01*
X92994Y-69805D01*
X92994Y-68619D01*
X92994Y-68482D01*
X92994Y-67919D01*
X92994Y-67782D01*
X92994Y-67119D01*
X92994Y-66982D01*
X92994Y-66369D01*
X92994Y-66232D01*
X92994Y-65619D01*
X92994Y-65482D01*
X92994Y-64869D01*
X92994Y-64732D01*
X92942Y-64606D01*
X92845Y-64509D01*
X92719Y-64456D01*
X92582Y-64456D01*
X92456Y-64508D01*
X92359Y-64605D01*
X92306Y-64731D01*
X92306Y-64868D01*
X92358Y-64994D01*
X92455Y-65091D01*
X92581Y-65144D01*
X92718Y-65144D01*
X92844Y-65092D01*
X92941Y-64995D01*
X92994Y-64869D01*
X92994Y-65482D01*
X92942Y-65356D01*
X92845Y-65259D01*
X92719Y-65206D01*
X92582Y-65206D01*
X92456Y-65258D01*
X92359Y-65355D01*
X92306Y-65481D01*
X92306Y-65618D01*
X92358Y-65744D01*
X92455Y-65841D01*
X92581Y-65894D01*
X92718Y-65894D01*
X92844Y-65842D01*
X92941Y-65745D01*
X92994Y-65619D01*
X92994Y-66232D01*
X92942Y-66106D01*
X92845Y-66009D01*
X92719Y-65956D01*
X92582Y-65956D01*
X92456Y-66008D01*
X92359Y-66105D01*
X92306Y-66231D01*
X92306Y-66368D01*
X92358Y-66494D01*
X92455Y-66591D01*
X92581Y-66644D01*
X92718Y-66644D01*
X92844Y-66592D01*
X92941Y-66495D01*
X92994Y-66369D01*
X92994Y-66982D01*
X92942Y-66856D01*
X92845Y-66759D01*
X92719Y-66706D01*
X92582Y-66706D01*
X92456Y-66758D01*
X92359Y-66855D01*
X92306Y-66981D01*
X92306Y-67118D01*
X92358Y-67244D01*
X92455Y-67341D01*
X92581Y-67394D01*
X92718Y-67394D01*
X92844Y-67342D01*
X92941Y-67245D01*
X92994Y-67119D01*
X92994Y-67782D01*
X92942Y-67656D01*
X92845Y-67559D01*
X92719Y-67506D01*
X92582Y-67506D01*
X92456Y-67558D01*
X92359Y-67655D01*
X92306Y-67781D01*
X92306Y-67918D01*
X92358Y-68044D01*
X92455Y-68141D01*
X92581Y-68194D01*
X92718Y-68194D01*
X92844Y-68142D01*
X92941Y-68045D01*
X92994Y-67919D01*
X92994Y-68482D01*
X92942Y-68356D01*
X92845Y-68259D01*
X92719Y-68206D01*
X92582Y-68206D01*
X92456Y-68258D01*
X92359Y-68355D01*
X92306Y-68481D01*
X92306Y-68618D01*
X92358Y-68744D01*
X92455Y-68841D01*
X92581Y-68894D01*
X92718Y-68894D01*
X92844Y-68842D01*
X92941Y-68745D01*
X92994Y-68619D01*
X92994Y-69805D01*
X92294Y-69805D01*
X92294Y-69119D01*
X92294Y-68982D01*
X92294Y-64169D01*
X92294Y-64032D01*
X92242Y-63906D01*
X92145Y-63809D01*
X92019Y-63756D01*
X91882Y-63756D01*
X91756Y-63808D01*
X91659Y-63905D01*
X91606Y-64031D01*
X91606Y-64168D01*
X91658Y-64294D01*
X91755Y-64391D01*
X91881Y-64444D01*
X92018Y-64444D01*
X92144Y-64392D01*
X92241Y-64295D01*
X92294Y-64169D01*
X92294Y-68982D01*
X92242Y-68856D01*
X92145Y-68759D01*
X92094Y-68737D01*
X92094Y-65569D01*
X92094Y-65432D01*
X92042Y-65306D01*
X91945Y-65209D01*
X91819Y-65156D01*
X91682Y-65156D01*
X91556Y-65208D01*
X91459Y-65305D01*
X91444Y-65340D01*
X91444Y-64169D01*
X91444Y-64032D01*
X91392Y-63906D01*
X91295Y-63809D01*
X91194Y-63766D01*
X91194Y-61319D01*
X91194Y-61182D01*
X91142Y-61056D01*
X91045Y-60959D01*
X90919Y-60906D01*
X90782Y-60906D01*
X90656Y-60958D01*
X90559Y-61055D01*
X90506Y-61181D01*
X90506Y-61318D01*
X90558Y-61444D01*
X90655Y-61541D01*
X90781Y-61594D01*
X90918Y-61594D01*
X91044Y-61542D01*
X91141Y-61445D01*
X91194Y-61319D01*
X91194Y-63766D01*
X91169Y-63756D01*
X91032Y-63756D01*
X90906Y-63808D01*
X90809Y-63905D01*
X90756Y-64031D01*
X90756Y-64168D01*
X90808Y-64294D01*
X90905Y-64391D01*
X91031Y-64444D01*
X91168Y-64444D01*
X91294Y-64392D01*
X91391Y-64295D01*
X91444Y-64169D01*
X91444Y-65340D01*
X91406Y-65431D01*
X91406Y-65568D01*
X91458Y-65694D01*
X91555Y-65791D01*
X91681Y-65844D01*
X91818Y-65844D01*
X91944Y-65792D01*
X92041Y-65695D01*
X92094Y-65569D01*
X92094Y-68737D01*
X92019Y-68706D01*
X91994Y-68706D01*
X91994Y-68419D01*
X91994Y-68282D01*
X91942Y-68156D01*
X91845Y-68059D01*
X91844Y-68058D01*
X91844Y-67219D01*
X91844Y-67082D01*
X91792Y-66956D01*
X91695Y-66859D01*
X91569Y-66806D01*
X91432Y-66806D01*
X91306Y-66858D01*
X91209Y-66955D01*
X91156Y-67081D01*
X91156Y-67218D01*
X91208Y-67344D01*
X91305Y-67441D01*
X91431Y-67494D01*
X91568Y-67494D01*
X91694Y-67442D01*
X91791Y-67345D01*
X91844Y-67219D01*
X91844Y-68058D01*
X91719Y-68006D01*
X91582Y-68006D01*
X91456Y-68058D01*
X91359Y-68155D01*
X91306Y-68281D01*
X91306Y-68418D01*
X91358Y-68544D01*
X91455Y-68641D01*
X91581Y-68694D01*
X91718Y-68694D01*
X91844Y-68642D01*
X91941Y-68545D01*
X91994Y-68419D01*
X91994Y-68706D01*
X91882Y-68706D01*
X91756Y-68758D01*
X91659Y-68855D01*
X91606Y-68981D01*
X91606Y-69118D01*
X91658Y-69244D01*
X91755Y-69341D01*
X91881Y-69394D01*
X92018Y-69394D01*
X92144Y-69342D01*
X92241Y-69245D01*
X92294Y-69119D01*
X92294Y-69805D01*
X91094Y-69805D01*
X91094Y-67219D01*
X91094Y-67082D01*
X91042Y-66956D01*
X90945Y-66859D01*
X90819Y-66806D01*
X90682Y-66806D01*
X90556Y-66858D01*
X90459Y-66955D01*
X90406Y-67081D01*
X90406Y-67218D01*
X90458Y-67344D01*
X90555Y-67441D01*
X90681Y-67494D01*
X90818Y-67494D01*
X90944Y-67442D01*
X91041Y-67345D01*
X91094Y-67219D01*
X91094Y-69805D01*
X90294Y-69805D01*
X90294Y-67194D01*
X90294Y-67057D01*
X90242Y-66931D01*
X90145Y-66834D01*
X90044Y-66791D01*
X90044Y-65569D01*
X90044Y-65432D01*
X89992Y-65306D01*
X89895Y-65209D01*
X89769Y-65156D01*
X89632Y-65156D01*
X89506Y-65208D01*
X89425Y-65289D01*
X89411Y-65275D01*
X89441Y-65245D01*
X89494Y-65119D01*
X89494Y-64982D01*
X89442Y-64856D01*
X89345Y-64759D01*
X89244Y-64716D01*
X89244Y-62219D01*
X89244Y-62082D01*
X89192Y-61956D01*
X89095Y-61859D01*
X88969Y-61806D01*
X88832Y-61806D01*
X88744Y-61842D01*
X88744Y-59019D01*
X88744Y-58882D01*
X88692Y-58756D01*
X88595Y-58659D01*
X88469Y-58606D01*
X88332Y-58606D01*
X88294Y-58621D01*
X88294Y-58369D01*
X88294Y-58232D01*
X88242Y-58106D01*
X88145Y-58009D01*
X88019Y-57956D01*
X87882Y-57956D01*
X87756Y-58008D01*
X87659Y-58105D01*
X87606Y-58231D01*
X87606Y-58368D01*
X87658Y-58494D01*
X87755Y-58591D01*
X87881Y-58644D01*
X88018Y-58644D01*
X88144Y-58592D01*
X88241Y-58495D01*
X88294Y-58369D01*
X88294Y-58621D01*
X88206Y-58658D01*
X88109Y-58755D01*
X88056Y-58881D01*
X88056Y-59018D01*
X88108Y-59144D01*
X88205Y-59241D01*
X88331Y-59294D01*
X88468Y-59294D01*
X88594Y-59242D01*
X88691Y-59145D01*
X88744Y-59019D01*
X88744Y-61842D01*
X88706Y-61858D01*
X88609Y-61955D01*
X88556Y-62081D01*
X88556Y-62218D01*
X88608Y-62344D01*
X88705Y-62441D01*
X88831Y-62494D01*
X88968Y-62494D01*
X89094Y-62442D01*
X89191Y-62345D01*
X89244Y-62219D01*
X89244Y-64716D01*
X89219Y-64706D01*
X89082Y-64706D01*
X88956Y-64758D01*
X88859Y-64855D01*
X88806Y-64981D01*
X88806Y-65118D01*
X88858Y-65244D01*
X88889Y-65275D01*
X88859Y-65305D01*
X88806Y-65431D01*
X88806Y-65568D01*
X88858Y-65694D01*
X88955Y-65791D01*
X89081Y-65844D01*
X89218Y-65844D01*
X89344Y-65792D01*
X89425Y-65711D01*
X89505Y-65791D01*
X89631Y-65844D01*
X89768Y-65844D01*
X89894Y-65792D01*
X89991Y-65695D01*
X90044Y-65569D01*
X90044Y-66791D01*
X90019Y-66781D01*
X89882Y-66781D01*
X89756Y-66833D01*
X89659Y-66930D01*
X89606Y-67056D01*
X89606Y-67193D01*
X89658Y-67319D01*
X89755Y-67416D01*
X89881Y-67469D01*
X90018Y-67469D01*
X90144Y-67417D01*
X90241Y-67320D01*
X90294Y-67194D01*
X90294Y-69805D01*
X89294Y-69805D01*
X89294Y-67194D01*
X89294Y-67057D01*
X89242Y-66931D01*
X89145Y-66834D01*
X89019Y-66781D01*
X88882Y-66781D01*
X88756Y-66833D01*
X88694Y-66895D01*
X88694Y-64869D01*
X88694Y-64732D01*
X88642Y-64606D01*
X88545Y-64509D01*
X88419Y-64456D01*
X88294Y-64456D01*
X88294Y-60319D01*
X88294Y-60182D01*
X88242Y-60056D01*
X88145Y-59959D01*
X88019Y-59906D01*
X87882Y-59906D01*
X87756Y-59958D01*
X87659Y-60055D01*
X87606Y-60181D01*
X87606Y-60318D01*
X87658Y-60444D01*
X87755Y-60541D01*
X87881Y-60594D01*
X88018Y-60594D01*
X88144Y-60542D01*
X88241Y-60445D01*
X88294Y-60319D01*
X88294Y-64456D01*
X88282Y-64456D01*
X88156Y-64508D01*
X88059Y-64605D01*
X88006Y-64731D01*
X88006Y-64868D01*
X88058Y-64994D01*
X88155Y-65091D01*
X88281Y-65144D01*
X88418Y-65144D01*
X88544Y-65092D01*
X88641Y-64995D01*
X88694Y-64869D01*
X88694Y-66895D01*
X88659Y-66930D01*
X88606Y-67056D01*
X88606Y-67193D01*
X88658Y-67319D01*
X88755Y-67416D01*
X88881Y-67469D01*
X89018Y-67469D01*
X89144Y-67417D01*
X89241Y-67320D01*
X89294Y-67194D01*
X89294Y-69805D01*
X88794Y-69805D01*
X88794Y-68419D01*
X88794Y-68282D01*
X88742Y-68156D01*
X88645Y-68059D01*
X88519Y-68006D01*
X88382Y-68006D01*
X88294Y-68042D01*
X88294Y-67194D01*
X88294Y-67057D01*
X88242Y-66931D01*
X88145Y-66834D01*
X88019Y-66781D01*
X87882Y-66781D01*
X87756Y-66833D01*
X87659Y-66930D01*
X87606Y-67056D01*
X87606Y-67193D01*
X87658Y-67319D01*
X87755Y-67416D01*
X87881Y-67469D01*
X88018Y-67469D01*
X88144Y-67417D01*
X88241Y-67320D01*
X88294Y-67194D01*
X88294Y-68042D01*
X88256Y-68058D01*
X88159Y-68155D01*
X88106Y-68281D01*
X88106Y-68418D01*
X88158Y-68544D01*
X88255Y-68641D01*
X88381Y-68694D01*
X88518Y-68694D01*
X88644Y-68642D01*
X88741Y-68545D01*
X88794Y-68419D01*
X88794Y-69805D01*
X87444Y-69805D01*
X87444Y-66519D01*
X87444Y-66382D01*
X87394Y-66260D01*
X87394Y-63369D01*
X87394Y-63232D01*
X87342Y-63106D01*
X87245Y-63009D01*
X87119Y-62956D01*
X86982Y-62956D01*
X86965Y-62962D01*
X86942Y-62906D01*
X86845Y-62809D01*
X86824Y-62800D01*
X86844Y-62792D01*
X86941Y-62695D01*
X86994Y-62569D01*
X86994Y-62432D01*
X86942Y-62306D01*
X86845Y-62209D01*
X86719Y-62156D01*
X86582Y-62156D01*
X86456Y-62208D01*
X86359Y-62305D01*
X86306Y-62431D01*
X86306Y-62568D01*
X86358Y-62694D01*
X86455Y-62791D01*
X86475Y-62799D01*
X86456Y-62808D01*
X86359Y-62905D01*
X86306Y-63031D01*
X86306Y-63168D01*
X86358Y-63294D01*
X86455Y-63391D01*
X86581Y-63444D01*
X86718Y-63444D01*
X86734Y-63437D01*
X86758Y-63494D01*
X86855Y-63591D01*
X86981Y-63644D01*
X87118Y-63644D01*
X87244Y-63592D01*
X87341Y-63495D01*
X87394Y-63369D01*
X87394Y-66260D01*
X87392Y-66256D01*
X87344Y-66208D01*
X87344Y-64119D01*
X87344Y-63982D01*
X87292Y-63856D01*
X87195Y-63759D01*
X87069Y-63706D01*
X86932Y-63706D01*
X86806Y-63758D01*
X86709Y-63855D01*
X86656Y-63981D01*
X86656Y-64118D01*
X86708Y-64244D01*
X86805Y-64341D01*
X86931Y-64394D01*
X87068Y-64394D01*
X87194Y-64342D01*
X87291Y-64245D01*
X87344Y-64119D01*
X87344Y-66208D01*
X87295Y-66159D01*
X87169Y-66106D01*
X87032Y-66106D01*
X86906Y-66158D01*
X86809Y-66255D01*
X86756Y-66381D01*
X86756Y-66518D01*
X86808Y-66644D01*
X86905Y-66741D01*
X87000Y-66781D01*
X86882Y-66781D01*
X86794Y-66817D01*
X86794Y-66682D01*
X86742Y-66556D01*
X86645Y-66459D01*
X86544Y-66416D01*
X86544Y-64219D01*
X86544Y-64082D01*
X86492Y-63956D01*
X86395Y-63859D01*
X86294Y-63816D01*
X86294Y-62569D01*
X86294Y-62432D01*
X86242Y-62306D01*
X86145Y-62209D01*
X86019Y-62156D01*
X85930Y-62156D01*
X85941Y-62145D01*
X85994Y-62019D01*
X85994Y-61882D01*
X85942Y-61756D01*
X85845Y-61659D01*
X85719Y-61606D01*
X85582Y-61606D01*
X85456Y-61658D01*
X85359Y-61755D01*
X85306Y-61881D01*
X85306Y-62018D01*
X85307Y-62021D01*
X85245Y-61959D01*
X85119Y-61906D01*
X84982Y-61906D01*
X84856Y-61958D01*
X84759Y-62055D01*
X84706Y-62181D01*
X84706Y-62220D01*
X84695Y-62209D01*
X84569Y-62156D01*
X84432Y-62156D01*
X84306Y-62208D01*
X84209Y-62305D01*
X84156Y-62431D01*
X84156Y-62568D01*
X84208Y-62694D01*
X84305Y-62791D01*
X84431Y-62844D01*
X84568Y-62844D01*
X84694Y-62792D01*
X84791Y-62695D01*
X84844Y-62569D01*
X84844Y-62530D01*
X84855Y-62541D01*
X84981Y-62594D01*
X85118Y-62594D01*
X85208Y-62556D01*
X85156Y-62681D01*
X85156Y-62818D01*
X85208Y-62944D01*
X85305Y-63041D01*
X85431Y-63094D01*
X85568Y-63094D01*
X85694Y-63042D01*
X85791Y-62945D01*
X85840Y-62827D01*
X85881Y-62844D01*
X86018Y-62844D01*
X86144Y-62792D01*
X86241Y-62695D01*
X86294Y-62569D01*
X86294Y-63816D01*
X86269Y-63806D01*
X86132Y-63806D01*
X86006Y-63858D01*
X85909Y-63955D01*
X85884Y-64012D01*
X85869Y-64006D01*
X85732Y-64006D01*
X85606Y-64058D01*
X85509Y-64155D01*
X85484Y-64212D01*
X85469Y-64206D01*
X85332Y-64206D01*
X85206Y-64258D01*
X85109Y-64355D01*
X85084Y-64412D01*
X85069Y-64406D01*
X84932Y-64406D01*
X84806Y-64458D01*
X84709Y-64555D01*
X84656Y-64681D01*
X84656Y-64720D01*
X84595Y-64659D01*
X84469Y-64606D01*
X84332Y-64606D01*
X84206Y-64658D01*
X84144Y-64719D01*
X84144Y-63519D01*
X84144Y-63382D01*
X84144Y-61969D01*
X84144Y-61832D01*
X84092Y-61706D01*
X83995Y-61609D01*
X83869Y-61556D01*
X83732Y-61556D01*
X83606Y-61608D01*
X83509Y-61705D01*
X83456Y-61831D01*
X83456Y-61968D01*
X83508Y-62094D01*
X83605Y-62191D01*
X83731Y-62244D01*
X83868Y-62244D01*
X83994Y-62192D01*
X84091Y-62095D01*
X84144Y-61969D01*
X84144Y-63382D01*
X84092Y-63256D01*
X83995Y-63159D01*
X83869Y-63106D01*
X83732Y-63106D01*
X83606Y-63158D01*
X83509Y-63255D01*
X83456Y-63381D01*
X83456Y-63518D01*
X83508Y-63644D01*
X83605Y-63741D01*
X83731Y-63794D01*
X83868Y-63794D01*
X83994Y-63742D01*
X84091Y-63645D01*
X84144Y-63519D01*
X84144Y-64719D01*
X84116Y-64747D01*
X84019Y-64706D01*
X83882Y-64706D01*
X83756Y-64758D01*
X83659Y-64855D01*
X83606Y-64981D01*
X83606Y-65118D01*
X83658Y-65244D01*
X83755Y-65341D01*
X83881Y-65394D01*
X84018Y-65394D01*
X84144Y-65342D01*
X84233Y-65252D01*
X84331Y-65294D01*
X84468Y-65294D01*
X84594Y-65242D01*
X84606Y-65230D01*
X84606Y-65268D01*
X84658Y-65394D01*
X84755Y-65491D01*
X84881Y-65544D01*
X85018Y-65544D01*
X85144Y-65492D01*
X85150Y-65486D01*
X85205Y-65541D01*
X85331Y-65594D01*
X85468Y-65594D01*
X85594Y-65542D01*
X85625Y-65511D01*
X85655Y-65541D01*
X85781Y-65594D01*
X85918Y-65594D01*
X86044Y-65542D01*
X86141Y-65445D01*
X86194Y-65319D01*
X86194Y-65182D01*
X86142Y-65056D01*
X86045Y-64959D01*
X85919Y-64906D01*
X85782Y-64906D01*
X85656Y-64958D01*
X85625Y-64989D01*
X85595Y-64959D01*
X85469Y-64906D01*
X85332Y-64906D01*
X85302Y-64918D01*
X85315Y-64887D01*
X85331Y-64894D01*
X85468Y-64894D01*
X85594Y-64842D01*
X85691Y-64745D01*
X85715Y-64687D01*
X85731Y-64694D01*
X85868Y-64694D01*
X85994Y-64642D01*
X86091Y-64545D01*
X86115Y-64487D01*
X86131Y-64494D01*
X86268Y-64494D01*
X86394Y-64442D01*
X86491Y-64345D01*
X86544Y-64219D01*
X86544Y-66416D01*
X86519Y-66406D01*
X86382Y-66406D01*
X86344Y-66421D01*
X86344Y-66382D01*
X86292Y-66256D01*
X86195Y-66159D01*
X86069Y-66106D01*
X85932Y-66106D01*
X85806Y-66158D01*
X85709Y-66255D01*
X85656Y-66381D01*
X85656Y-66518D01*
X85708Y-66644D01*
X85805Y-66741D01*
X85900Y-66781D01*
X85882Y-66781D01*
X85756Y-66833D01*
X85659Y-66930D01*
X85606Y-67056D01*
X85606Y-67193D01*
X85658Y-67319D01*
X85755Y-67416D01*
X85881Y-67469D01*
X86018Y-67469D01*
X86144Y-67417D01*
X86241Y-67320D01*
X86294Y-67194D01*
X86294Y-67057D01*
X86381Y-67094D01*
X86518Y-67094D01*
X86606Y-67057D01*
X86606Y-67193D01*
X86658Y-67319D01*
X86755Y-67416D01*
X86881Y-67469D01*
X87018Y-67469D01*
X87144Y-67417D01*
X87241Y-67320D01*
X87294Y-67194D01*
X87294Y-67057D01*
X87242Y-66931D01*
X87145Y-66834D01*
X87049Y-66794D01*
X87168Y-66794D01*
X87294Y-66742D01*
X87391Y-66645D01*
X87444Y-66519D01*
X87444Y-69805D01*
X85294Y-69805D01*
X85294Y-67194D01*
X85294Y-67057D01*
X85242Y-66931D01*
X85145Y-66834D01*
X85094Y-66812D01*
X85094Y-66519D01*
X85094Y-66382D01*
X85042Y-66256D01*
X84945Y-66159D01*
X84819Y-66106D01*
X84682Y-66106D01*
X84556Y-66158D01*
X84459Y-66255D01*
X84406Y-66381D01*
X84406Y-66518D01*
X84458Y-66644D01*
X84555Y-66741D01*
X84681Y-66794D01*
X84818Y-66794D01*
X84944Y-66742D01*
X85041Y-66645D01*
X85094Y-66519D01*
X85094Y-66812D01*
X85019Y-66781D01*
X84882Y-66781D01*
X84756Y-66833D01*
X84659Y-66930D01*
X84606Y-67056D01*
X84606Y-67193D01*
X84658Y-67319D01*
X84755Y-67416D01*
X84881Y-67469D01*
X85018Y-67469D01*
X85144Y-67417D01*
X85241Y-67320D01*
X85294Y-67194D01*
X85294Y-69805D01*
X84294Y-69805D01*
X84294Y-67194D01*
X84294Y-67057D01*
X84242Y-66931D01*
X84145Y-66834D01*
X84019Y-66781D01*
X83994Y-66781D01*
X83994Y-65769D01*
X83994Y-65632D01*
X83942Y-65506D01*
X83845Y-65409D01*
X83719Y-65356D01*
X83582Y-65356D01*
X83456Y-65408D01*
X83359Y-65505D01*
X83306Y-65631D01*
X83306Y-65768D01*
X83358Y-65894D01*
X83455Y-65991D01*
X83581Y-66044D01*
X83718Y-66044D01*
X83844Y-65992D01*
X83941Y-65895D01*
X83994Y-65769D01*
X83994Y-66781D01*
X83882Y-66781D01*
X83756Y-66833D01*
X83659Y-66930D01*
X83606Y-67056D01*
X83606Y-67193D01*
X83658Y-67319D01*
X83755Y-67416D01*
X83881Y-67469D01*
X84018Y-67469D01*
X84144Y-67417D01*
X84241Y-67320D01*
X84294Y-67194D01*
X84294Y-69805D01*
X83294Y-69805D01*
X83294Y-67194D01*
X83294Y-67057D01*
X83242Y-66931D01*
X83194Y-66883D01*
X83194Y-66369D01*
X83194Y-66232D01*
X83142Y-66106D01*
X83061Y-66025D01*
X83141Y-65945D01*
X83194Y-65819D01*
X83194Y-65682D01*
X83142Y-65556D01*
X83045Y-65459D01*
X82919Y-65406D01*
X82782Y-65406D01*
X82741Y-65422D01*
X82741Y-62039D01*
X82741Y-62038D01*
X82741Y-61962D01*
X82741Y-61961D01*
X82695Y-61732D01*
X82666Y-61661D01*
X82536Y-61468D01*
X82482Y-61414D01*
X82288Y-61284D01*
X82218Y-61255D01*
X81994Y-61210D01*
X81994Y-60919D01*
X81994Y-60782D01*
X81942Y-60656D01*
X81845Y-60559D01*
X81719Y-60506D01*
X81582Y-60506D01*
X81456Y-60558D01*
X81359Y-60655D01*
X81306Y-60781D01*
X81306Y-60918D01*
X81358Y-61044D01*
X81455Y-61141D01*
X81581Y-61194D01*
X81718Y-61194D01*
X81844Y-61142D01*
X81941Y-61045D01*
X81994Y-60919D01*
X81994Y-61210D01*
X81988Y-61209D01*
X81912Y-61209D01*
X81911Y-61209D01*
X81682Y-61255D01*
X81611Y-61284D01*
X81418Y-61414D01*
X81364Y-61468D01*
X81234Y-61662D01*
X81205Y-61732D01*
X81159Y-61962D01*
X81159Y-62038D01*
X81205Y-62268D01*
X81234Y-62338D01*
X81364Y-62532D01*
X81418Y-62586D01*
X81611Y-62716D01*
X81682Y-62745D01*
X81911Y-62791D01*
X81912Y-62791D01*
X81988Y-62791D01*
X82218Y-62745D01*
X82288Y-62716D01*
X82482Y-62586D01*
X82536Y-62532D01*
X82666Y-62339D01*
X82695Y-62268D01*
X82741Y-62039D01*
X82741Y-65422D01*
X82656Y-65458D01*
X82559Y-65555D01*
X82506Y-65681D01*
X82506Y-65818D01*
X82558Y-65944D01*
X82639Y-66025D01*
X82559Y-66105D01*
X82506Y-66231D01*
X82506Y-66368D01*
X82558Y-66494D01*
X82655Y-66591D01*
X82781Y-66644D01*
X82918Y-66644D01*
X83044Y-66592D01*
X83141Y-66495D01*
X83194Y-66369D01*
X83194Y-66883D01*
X83145Y-66834D01*
X83019Y-66781D01*
X82882Y-66781D01*
X82756Y-66833D01*
X82659Y-66930D01*
X82606Y-67056D01*
X82606Y-67193D01*
X82658Y-67319D01*
X82755Y-67416D01*
X82881Y-67469D01*
X83018Y-67469D01*
X83144Y-67417D01*
X83241Y-67320D01*
X83294Y-67194D01*
X83294Y-69805D01*
X82294Y-69805D01*
X82294Y-67194D01*
X82294Y-67057D01*
X82242Y-66931D01*
X82145Y-66834D01*
X82019Y-66781D01*
X81882Y-66781D01*
X81756Y-66833D01*
X81659Y-66930D01*
X81644Y-66965D01*
X81644Y-64619D01*
X81644Y-64482D01*
X81592Y-64356D01*
X81495Y-64259D01*
X81369Y-64206D01*
X81232Y-64206D01*
X81106Y-64258D01*
X81044Y-64320D01*
X81044Y-62419D01*
X81044Y-62282D01*
X80992Y-62156D01*
X80895Y-62059D01*
X80769Y-62006D01*
X80632Y-62006D01*
X80506Y-62058D01*
X80409Y-62155D01*
X80356Y-62281D01*
X80356Y-62418D01*
X80408Y-62544D01*
X80505Y-62641D01*
X80631Y-62694D01*
X80768Y-62694D01*
X80894Y-62642D01*
X80991Y-62545D01*
X81044Y-62419D01*
X81044Y-64320D01*
X81009Y-64355D01*
X80956Y-64481D01*
X80956Y-64618D01*
X81008Y-64744D01*
X81105Y-64841D01*
X81231Y-64894D01*
X81368Y-64894D01*
X81494Y-64842D01*
X81591Y-64745D01*
X81644Y-64619D01*
X81644Y-66965D01*
X81606Y-67056D01*
X81606Y-67193D01*
X81658Y-67319D01*
X81755Y-67416D01*
X81881Y-67469D01*
X82018Y-67469D01*
X82144Y-67417D01*
X82241Y-67320D01*
X82294Y-67194D01*
X82294Y-69805D01*
X81394Y-69805D01*
X81394Y-68619D01*
X81394Y-68482D01*
X81342Y-68356D01*
X81245Y-68259D01*
X81119Y-68206D01*
X80982Y-68206D01*
X80856Y-68258D01*
X80759Y-68355D01*
X80706Y-68481D01*
X80706Y-68618D01*
X80758Y-68744D01*
X80855Y-68841D01*
X80981Y-68894D01*
X81118Y-68894D01*
X81244Y-68842D01*
X81341Y-68745D01*
X81394Y-68619D01*
X81394Y-69805D01*
X80495Y-69805D01*
X80495Y-68400D01*
X80480Y-68325D01*
X80438Y-68262D01*
X80375Y-68220D01*
X80300Y-68205D01*
X80195Y-68205D01*
X80195Y-68195D01*
X80600Y-68195D01*
X80675Y-68180D01*
X80738Y-68138D01*
X80780Y-68075D01*
X80795Y-68000D01*
X80795Y-66207D01*
X80881Y-66244D01*
X81018Y-66244D01*
X81144Y-66192D01*
X81241Y-66095D01*
X81294Y-65969D01*
X81294Y-65832D01*
X81242Y-65706D01*
X81145Y-65609D01*
X81019Y-65556D01*
X80882Y-65556D01*
X80756Y-65608D01*
X80716Y-65647D01*
X80675Y-65620D01*
X80600Y-65605D01*
X80195Y-65605D01*
X80195Y-60495D01*
X85500Y-60495D01*
X85508Y-60493D01*
X85514Y-60494D01*
X85543Y-60486D01*
X85575Y-60480D01*
X85579Y-60476D01*
X85587Y-60475D01*
X85612Y-60454D01*
X85638Y-60438D01*
X85642Y-60431D01*
X85647Y-60428D01*
X85661Y-60402D01*
X85680Y-60375D01*
X85681Y-60368D01*
X85685Y-60362D01*
X86288Y-58546D01*
X86308Y-58594D01*
X86405Y-58691D01*
X86531Y-58744D01*
X86668Y-58744D01*
X86794Y-58692D01*
X86891Y-58595D01*
X86944Y-58469D01*
X86944Y-58332D01*
X86892Y-58206D01*
X86795Y-58109D01*
X86669Y-58056D01*
X86532Y-58056D01*
X86439Y-58094D01*
X86638Y-57495D01*
X94159Y-57495D01*
X95113Y-60362D01*
X95119Y-60373D01*
X95120Y-60375D01*
X95123Y-60380D01*
X95151Y-60428D01*
X95160Y-60435D01*
X95162Y-60438D01*
X95173Y-60445D01*
X95211Y-60475D01*
X95222Y-60478D01*
X95225Y-60480D01*
X95240Y-60483D01*
X95284Y-60495D01*
X95293Y-60493D01*
X95300Y-60495D01*
X100605Y-60495D01*
X100605Y-65605D01*
X100586Y-65605D01*
X100586Y-63679D01*
X100575Y-63466D01*
X100515Y-63319D01*
X100421Y-63292D01*
X100351Y-63362D01*
X100351Y-63222D01*
X100324Y-63128D01*
X100122Y-63057D01*
X100094Y-63058D01*
X100094Y-62419D01*
X100094Y-62282D01*
X100042Y-62156D01*
X99945Y-62059D01*
X99819Y-62006D01*
X99682Y-62006D01*
X99641Y-62022D01*
X99641Y-61962D01*
X99641Y-61961D01*
X99595Y-61732D01*
X99566Y-61661D01*
X99436Y-61468D01*
X99382Y-61414D01*
X99188Y-61284D01*
X99118Y-61255D01*
X98888Y-61209D01*
X98812Y-61209D01*
X98811Y-61209D01*
X98582Y-61255D01*
X98511Y-61284D01*
X98318Y-61414D01*
X98264Y-61468D01*
X98134Y-61662D01*
X98105Y-61732D01*
X98059Y-61962D01*
X98059Y-62038D01*
X98105Y-62268D01*
X98134Y-62338D01*
X98264Y-62532D01*
X98318Y-62586D01*
X98511Y-62716D01*
X98582Y-62745D01*
X98811Y-62791D01*
X98812Y-62791D01*
X98888Y-62791D01*
X99118Y-62745D01*
X99188Y-62716D01*
X99382Y-62586D01*
X99436Y-62532D01*
X99446Y-62516D01*
X99458Y-62544D01*
X99555Y-62641D01*
X99681Y-62694D01*
X99818Y-62694D01*
X99944Y-62642D01*
X100041Y-62545D01*
X100094Y-62419D01*
X100094Y-63058D01*
X99909Y-63068D01*
X99762Y-63128D01*
X99735Y-63222D01*
X100043Y-63529D01*
X100351Y-63222D01*
X100351Y-63362D01*
X100114Y-63600D01*
X100421Y-63908D01*
X100515Y-63881D01*
X100586Y-63679D01*
X100586Y-65605D01*
X100351Y-65605D01*
X100351Y-63978D01*
X100043Y-63671D01*
X99972Y-63741D01*
X99972Y-63600D01*
X99665Y-63292D01*
X99571Y-63319D01*
X99500Y-63521D01*
X99511Y-63734D01*
X99571Y-63881D01*
X99665Y-63908D01*
X99972Y-63600D01*
X99972Y-63741D01*
X99735Y-63978D01*
X99762Y-64072D01*
X99964Y-64143D01*
X100177Y-64132D01*
X100324Y-64072D01*
X100351Y-63978D01*
X100351Y-65605D01*
X100200Y-65605D01*
X100125Y-65620D01*
X100062Y-65662D01*
X100020Y-65725D01*
X100005Y-65800D01*
X100005Y-68000D01*
X100020Y-68075D01*
X100062Y-68138D01*
X100125Y-68180D01*
X100200Y-68195D01*
X100605Y-68195D01*
X100605Y-68205D01*
M02*
