G04 (created by PCBNEW-RS274X (2012-01-19 BZR 3256)-stable) date 22/03/2012 17:56:24*
G01*
G70*
G90*
%MOIN*%
G04 Gerber Fmt 3.4, Leading zero omitted, Abs format*
%FSLAX34Y34*%
G04 APERTURE LIST*
%ADD10C,0.006000*%
%ADD11R,0.036000X0.036000*%
%ADD12R,0.040000X0.020000*%
%ADD13R,0.070000X0.110000*%
%ADD14R,0.045000X0.055000*%
%ADD15R,0.055000X0.045000*%
%ADD16R,0.045000X0.035000*%
%ADD17R,0.035000X0.045000*%
%ADD18R,0.040000X0.016000*%
%ADD19R,0.060000X0.160000*%
%ADD20O,0.060000X0.160000*%
%ADD21R,0.055100X0.063000*%
%ADD22R,0.019700X0.092500*%
%ADD23R,0.060000X0.080000*%
%ADD24R,0.055000X0.035000*%
%ADD25R,0.080000X0.040000*%
%ADD26R,0.047200X0.086600*%
%ADD27R,0.063000X0.055100*%
%ADD28R,0.047200X0.055100*%
%ADD29R,0.027600X0.063000*%
%ADD30R,0.035400X0.055100*%
G04 APERTURE END LIST*
G54D10*
G54D11*
X89500Y-64250D03*
X89500Y-63550D03*
X90300Y-63900D03*
X89500Y-62950D03*
X89500Y-62250D03*
X90300Y-62600D03*
G54D12*
X94350Y-60675D03*
X94350Y-61425D03*
X95450Y-60675D03*
X94350Y-61050D03*
X95450Y-61425D03*
X86450Y-61425D03*
X86450Y-60675D03*
X85350Y-61425D03*
X86450Y-61050D03*
X85350Y-60675D03*
G54D13*
X96300Y-61050D03*
X97700Y-61050D03*
X84500Y-61050D03*
X83100Y-61050D03*
G54D14*
X93325Y-59850D03*
X94175Y-59850D03*
G54D15*
X81050Y-66975D03*
X81050Y-67825D03*
G54D16*
X93650Y-64100D03*
X93650Y-63400D03*
X92800Y-64100D03*
X92800Y-63400D03*
X91950Y-64100D03*
X91950Y-63400D03*
X91100Y-64100D03*
X91100Y-63400D03*
G54D17*
X93350Y-68550D03*
X92650Y-68550D03*
X93350Y-67800D03*
X92650Y-67800D03*
X93350Y-65550D03*
X92650Y-65550D03*
X93350Y-64800D03*
X92650Y-64800D03*
X93350Y-66300D03*
X92650Y-66300D03*
X93350Y-67050D03*
X92650Y-67050D03*
G54D16*
X91500Y-67150D03*
X91500Y-67850D03*
G54D17*
X82300Y-63000D03*
X81600Y-63000D03*
X88900Y-64400D03*
X88200Y-64400D03*
X88200Y-63650D03*
X88900Y-63650D03*
G54D16*
X90750Y-67850D03*
X90750Y-67150D03*
X85950Y-67850D03*
X85950Y-67150D03*
X83950Y-67850D03*
X83950Y-67150D03*
X84950Y-67850D03*
X84950Y-67150D03*
X86950Y-67850D03*
X86950Y-67150D03*
X87950Y-67850D03*
X87950Y-67150D03*
X88950Y-67850D03*
X88950Y-67150D03*
X89950Y-67850D03*
X89950Y-67150D03*
X82950Y-67850D03*
X82950Y-67150D03*
X81950Y-67850D03*
X81950Y-67150D03*
G54D17*
X88200Y-62900D03*
X88900Y-62900D03*
G54D16*
X97050Y-64100D03*
X97050Y-63400D03*
X96200Y-64100D03*
X96200Y-63400D03*
X95350Y-64100D03*
X95350Y-63400D03*
X94500Y-64100D03*
X94500Y-63400D03*
G54D17*
X88200Y-62150D03*
X88900Y-62150D03*
X92650Y-69300D03*
X93350Y-69300D03*
X81650Y-60750D03*
X82350Y-60750D03*
X81050Y-60750D03*
X80350Y-60750D03*
G54D16*
X99900Y-61650D03*
X99900Y-62350D03*
G54D18*
X87750Y-61160D03*
X87750Y-60900D03*
X87750Y-60640D03*
X88550Y-60640D03*
X88550Y-60900D03*
X88550Y-61160D03*
G54D19*
X90950Y-69200D03*
G54D20*
X89950Y-69200D03*
X88950Y-69200D03*
X87950Y-69200D03*
X86950Y-69200D03*
X85950Y-69200D03*
X84950Y-69200D03*
X83950Y-69200D03*
X82950Y-69200D03*
X81950Y-69200D03*
G54D21*
X92290Y-57753D03*
X92290Y-59800D03*
X88510Y-57753D03*
X88510Y-59800D03*
G54D22*
X91030Y-60430D03*
X90715Y-60430D03*
X90400Y-60430D03*
X90085Y-60430D03*
X89770Y-60430D03*
G54D23*
X91100Y-65250D03*
X89800Y-65250D03*
G54D24*
X80700Y-61575D03*
X80700Y-62325D03*
X80700Y-63025D03*
X80700Y-63775D03*
X91100Y-62775D03*
X91100Y-62025D03*
X91950Y-62775D03*
X91950Y-62025D03*
X92800Y-62775D03*
X92800Y-62025D03*
X93650Y-62775D03*
X93650Y-62025D03*
X94500Y-62775D03*
X94500Y-62025D03*
X95350Y-62775D03*
X95350Y-62025D03*
X96200Y-62775D03*
X96200Y-62025D03*
X97050Y-62775D03*
X97050Y-62025D03*
G54D25*
X80850Y-65100D03*
X82050Y-65100D03*
X82050Y-64500D03*
X80850Y-64500D03*
G54D17*
X82300Y-63750D03*
X81600Y-63750D03*
G54D13*
X93500Y-61050D03*
X92100Y-61050D03*
G54D26*
X93999Y-68838D03*
X100101Y-68838D03*
G54D27*
X99747Y-65059D03*
G54D28*
X93999Y-65059D03*
G54D29*
X94471Y-64862D03*
X94904Y-64862D03*
X95337Y-64862D03*
X95770Y-64862D03*
X96204Y-64862D03*
X96637Y-64862D03*
X97070Y-64862D03*
X97503Y-64862D03*
X97936Y-64862D03*
G54D30*
X87074Y-59330D03*
X87626Y-59330D03*
X87626Y-58070D03*
X87074Y-58070D03*
G54D17*
X89550Y-61550D03*
X90250Y-61550D03*
G54D24*
X91950Y-69625D03*
X91950Y-68875D03*
M02*
