G04 (created by PCBNEW-RS274X (2012-01-19 BZR 3256)-stable) date 22/03/2013 02:03:58*
G01*
G70*
G90*
%MOIN*%
G04 Gerber Fmt 3.4, Leading zero omitted, Abs format*
%FSLAX34Y34*%
G04 APERTURE LIST*
%ADD10C,0.006000*%
%ADD11C,0.005000*%
%ADD12C,0.012000*%
%ADD13C,0.015000*%
%ADD14C,0.004500*%
G04 APERTURE END LIST*
G54D10*
G54D11*
X89650Y-66250D02*
X88450Y-66250D01*
X88450Y-66250D02*
X88450Y-66850D01*
X88450Y-66850D02*
X89650Y-66850D01*
X89650Y-66850D02*
X89650Y-66250D01*
X100700Y-62650D02*
X100700Y-61950D01*
X100700Y-61950D02*
X99500Y-61950D01*
X99500Y-61950D02*
X99500Y-62650D01*
X99500Y-62650D02*
X100700Y-62650D01*
X98120Y-64400D02*
X98118Y-64413D01*
X98114Y-64426D01*
X98108Y-64438D01*
X98099Y-64449D01*
X98089Y-64458D01*
X98077Y-64464D01*
X98064Y-64468D01*
X98050Y-64469D01*
X98037Y-64468D01*
X98024Y-64464D01*
X98012Y-64458D01*
X98002Y-64450D01*
X97993Y-64439D01*
X97986Y-64427D01*
X97982Y-64414D01*
X97981Y-64400D01*
X97982Y-64388D01*
X97985Y-64375D01*
X97992Y-64363D01*
X98000Y-64352D01*
X98011Y-64343D01*
X98022Y-64336D01*
X98035Y-64332D01*
X98049Y-64331D01*
X98062Y-64332D01*
X98075Y-64335D01*
X98087Y-64341D01*
X98098Y-64350D01*
X98107Y-64360D01*
X98113Y-64372D01*
X98118Y-64385D01*
X98119Y-64399D01*
X98120Y-64400D01*
X99550Y-64450D02*
X100300Y-64450D01*
X100300Y-64450D02*
X100300Y-65650D01*
X100300Y-65650D02*
X99550Y-65650D01*
X98900Y-65650D02*
X98100Y-65650D01*
X98100Y-65650D02*
X98100Y-64450D01*
X98100Y-64450D02*
X98900Y-64450D01*
X99750Y-61100D02*
X99250Y-61100D01*
X99250Y-61100D02*
X99250Y-60400D01*
X99250Y-60400D02*
X99750Y-60400D01*
X100150Y-61100D02*
X100650Y-61100D01*
X100650Y-61100D02*
X100650Y-60400D01*
X100650Y-60400D02*
X100150Y-60400D01*
X91800Y-68100D02*
X91800Y-66900D01*
X91800Y-66900D02*
X91200Y-66900D01*
X91200Y-66900D02*
X91200Y-68100D01*
X91200Y-68100D02*
X91800Y-68100D01*
X91050Y-68100D02*
X91050Y-66900D01*
X91050Y-66900D02*
X90450Y-66900D01*
X90450Y-66900D02*
X90450Y-68100D01*
X90450Y-68100D02*
X91050Y-68100D01*
X99100Y-64200D02*
X99100Y-63000D01*
X99100Y-63000D02*
X98500Y-63000D01*
X98500Y-63000D02*
X98500Y-64200D01*
X98500Y-64200D02*
X99100Y-64200D01*
X81400Y-61150D02*
X82600Y-61150D01*
X82600Y-61150D02*
X82600Y-60550D01*
X82600Y-60550D02*
X81400Y-60550D01*
X81400Y-60550D02*
X81400Y-61150D01*
G54D12*
X81150Y-60550D02*
X80150Y-60550D01*
X80150Y-60550D02*
X80150Y-65550D01*
X80150Y-65550D02*
X81150Y-65550D01*
X81150Y-65550D02*
X81150Y-60550D01*
X81150Y-61550D02*
X80150Y-61550D01*
G54D13*
X91450Y-70200D02*
X81450Y-70200D01*
X91450Y-68200D02*
X81450Y-68200D01*
X81450Y-70200D02*
X81450Y-68200D01*
X91450Y-68200D02*
X91450Y-70200D01*
G54D11*
X82800Y-66150D02*
X88000Y-66150D01*
X88000Y-66150D02*
X88000Y-60950D01*
X88000Y-60950D02*
X83200Y-60950D01*
X83200Y-60950D02*
X82800Y-61350D01*
X82800Y-61350D02*
X82800Y-66150D01*
X83650Y-61550D02*
X83645Y-61598D01*
X83631Y-61645D01*
X83608Y-61688D01*
X83577Y-61726D01*
X83539Y-61757D01*
X83496Y-61780D01*
X83450Y-61794D01*
X83401Y-61799D01*
X83354Y-61795D01*
X83307Y-61781D01*
X83264Y-61759D01*
X83226Y-61728D01*
X83194Y-61691D01*
X83171Y-61648D01*
X83156Y-61601D01*
X83151Y-61553D01*
X83155Y-61505D01*
X83168Y-61458D01*
X83190Y-61415D01*
X83221Y-61377D01*
X83258Y-61345D01*
X83300Y-61321D01*
X83347Y-61306D01*
X83395Y-61301D01*
X83443Y-61304D01*
X83490Y-61317D01*
X83533Y-61339D01*
X83572Y-61369D01*
X83604Y-61406D01*
X83628Y-61449D01*
X83643Y-61495D01*
X83649Y-61544D01*
X83650Y-61550D01*
X85600Y-66900D02*
X85700Y-66800D01*
X85700Y-66800D02*
X86200Y-66800D01*
X86200Y-66800D02*
X86300Y-66900D01*
X85600Y-67300D02*
X85600Y-66900D01*
X85600Y-66900D02*
X86300Y-66900D01*
X86300Y-66900D02*
X86300Y-67300D01*
X85600Y-67700D02*
X85600Y-68100D01*
X85600Y-68100D02*
X86300Y-68100D01*
X86300Y-68100D02*
X86300Y-67700D01*
X83600Y-66900D02*
X83700Y-66800D01*
X83700Y-66800D02*
X84200Y-66800D01*
X84200Y-66800D02*
X84300Y-66900D01*
X83600Y-67300D02*
X83600Y-66900D01*
X83600Y-66900D02*
X84300Y-66900D01*
X84300Y-66900D02*
X84300Y-67300D01*
X83600Y-67700D02*
X83600Y-68100D01*
X83600Y-68100D02*
X84300Y-68100D01*
X84300Y-68100D02*
X84300Y-67700D01*
X84600Y-66900D02*
X84700Y-66800D01*
X84700Y-66800D02*
X85200Y-66800D01*
X85200Y-66800D02*
X85300Y-66900D01*
X84600Y-67300D02*
X84600Y-66900D01*
X84600Y-66900D02*
X85300Y-66900D01*
X85300Y-66900D02*
X85300Y-67300D01*
X84600Y-67700D02*
X84600Y-68100D01*
X84600Y-68100D02*
X85300Y-68100D01*
X85300Y-68100D02*
X85300Y-67700D01*
X86600Y-66900D02*
X86700Y-66800D01*
X86700Y-66800D02*
X87200Y-66800D01*
X87200Y-66800D02*
X87300Y-66900D01*
X86600Y-67300D02*
X86600Y-66900D01*
X86600Y-66900D02*
X87300Y-66900D01*
X87300Y-66900D02*
X87300Y-67300D01*
X86600Y-67700D02*
X86600Y-68100D01*
X86600Y-68100D02*
X87300Y-68100D01*
X87300Y-68100D02*
X87300Y-67700D01*
X87600Y-66900D02*
X87700Y-66800D01*
X87700Y-66800D02*
X88200Y-66800D01*
X88200Y-66800D02*
X88300Y-66900D01*
X87600Y-67300D02*
X87600Y-66900D01*
X87600Y-66900D02*
X88300Y-66900D01*
X88300Y-66900D02*
X88300Y-67300D01*
X87600Y-67700D02*
X87600Y-68100D01*
X87600Y-68100D02*
X88300Y-68100D01*
X88300Y-68100D02*
X88300Y-67700D01*
X81600Y-66900D02*
X81700Y-66800D01*
X81700Y-66800D02*
X82200Y-66800D01*
X82200Y-66800D02*
X82300Y-66900D01*
X81600Y-67300D02*
X81600Y-66900D01*
X81600Y-66900D02*
X82300Y-66900D01*
X82300Y-66900D02*
X82300Y-67300D01*
X81600Y-67700D02*
X81600Y-68100D01*
X81600Y-68100D02*
X82300Y-68100D01*
X82300Y-68100D02*
X82300Y-67700D01*
X82600Y-66900D02*
X82700Y-66800D01*
X82700Y-66800D02*
X83200Y-66800D01*
X83200Y-66800D02*
X83300Y-66900D01*
X82600Y-67300D02*
X82600Y-66900D01*
X82600Y-66900D02*
X83300Y-66900D01*
X83300Y-66900D02*
X83300Y-67300D01*
X82600Y-67700D02*
X82600Y-68100D01*
X82600Y-68100D02*
X83300Y-68100D01*
X83300Y-68100D02*
X83300Y-67700D01*
X89600Y-66900D02*
X89700Y-66800D01*
X89700Y-66800D02*
X90200Y-66800D01*
X90200Y-66800D02*
X90300Y-66900D01*
X89600Y-67300D02*
X89600Y-66900D01*
X89600Y-66900D02*
X90300Y-66900D01*
X90300Y-66900D02*
X90300Y-67300D01*
X89600Y-67700D02*
X89600Y-68100D01*
X89600Y-68100D02*
X90300Y-68100D01*
X90300Y-68100D02*
X90300Y-67700D01*
X88600Y-66900D02*
X88700Y-66800D01*
X88700Y-66800D02*
X89200Y-66800D01*
X89200Y-66800D02*
X89300Y-66900D01*
X88600Y-67300D02*
X88600Y-66900D01*
X88600Y-66900D02*
X89300Y-66900D01*
X89300Y-66900D02*
X89300Y-67300D01*
X88600Y-67700D02*
X88600Y-68100D01*
X88600Y-68100D02*
X89300Y-68100D01*
X89300Y-68100D02*
X89300Y-67700D01*
X81350Y-64850D02*
X82550Y-64850D01*
X82550Y-64850D02*
X82550Y-64250D01*
X82550Y-64250D02*
X81350Y-64250D01*
X81350Y-64250D02*
X81350Y-64850D01*
X82200Y-63900D02*
X82200Y-62700D01*
X82200Y-62700D02*
X81600Y-62700D01*
X81600Y-62700D02*
X81600Y-63900D01*
X81600Y-63900D02*
X82200Y-63900D01*
X98270Y-62850D02*
X98268Y-62863D01*
X98264Y-62876D01*
X98258Y-62888D01*
X98249Y-62899D01*
X98239Y-62908D01*
X98227Y-62914D01*
X98214Y-62918D01*
X98200Y-62919D01*
X98187Y-62918D01*
X98174Y-62914D01*
X98162Y-62908D01*
X98152Y-62900D01*
X98143Y-62889D01*
X98136Y-62877D01*
X98132Y-62864D01*
X98131Y-62850D01*
X98132Y-62838D01*
X98135Y-62825D01*
X98142Y-62813D01*
X98150Y-62802D01*
X98161Y-62793D01*
X98172Y-62786D01*
X98185Y-62782D01*
X98199Y-62781D01*
X98212Y-62782D01*
X98225Y-62785D01*
X98237Y-62791D01*
X98248Y-62800D01*
X98257Y-62810D01*
X98263Y-62822D01*
X98268Y-62835D01*
X98269Y-62849D01*
X98270Y-62850D01*
X96700Y-62800D02*
X95950Y-62800D01*
X95950Y-62800D02*
X95950Y-61600D01*
X95950Y-61600D02*
X96700Y-61600D01*
X97350Y-61600D02*
X98150Y-61600D01*
X98150Y-61600D02*
X98150Y-62800D01*
X98150Y-62800D02*
X97350Y-62800D01*
X92250Y-69400D02*
X92250Y-68200D01*
X92250Y-68200D02*
X91650Y-68200D01*
X91650Y-68200D02*
X91650Y-69400D01*
X91650Y-69400D02*
X92250Y-69400D01*
X89250Y-62050D02*
X89246Y-62088D01*
X89234Y-62126D01*
X89216Y-62160D01*
X89191Y-62190D01*
X89161Y-62215D01*
X89127Y-62234D01*
X89090Y-62245D01*
X89051Y-62249D01*
X89013Y-62246D01*
X88976Y-62235D01*
X88941Y-62217D01*
X88911Y-62192D01*
X88885Y-62162D01*
X88867Y-62128D01*
X88855Y-62091D01*
X88851Y-62052D01*
X88854Y-62014D01*
X88865Y-61977D01*
X88882Y-61942D01*
X88907Y-61912D01*
X88936Y-61886D01*
X88970Y-61867D01*
X89008Y-61855D01*
X89046Y-61851D01*
X89084Y-61854D01*
X89122Y-61864D01*
X89157Y-61882D01*
X89187Y-61906D01*
X89213Y-61935D01*
X89232Y-61969D01*
X89245Y-62006D01*
X89249Y-62045D01*
X89250Y-62050D01*
X93250Y-61450D02*
X88450Y-61450D01*
X88450Y-61450D02*
X88450Y-66250D01*
X88450Y-66250D02*
X93250Y-66250D01*
X93250Y-66250D02*
X93250Y-61450D01*
X94650Y-62200D02*
X95850Y-62200D01*
X95850Y-62200D02*
X95850Y-61600D01*
X95850Y-61600D02*
X94650Y-61600D01*
X94650Y-61600D02*
X94650Y-62200D01*
X93350Y-62200D02*
X94550Y-62200D01*
X94550Y-62200D02*
X94550Y-61600D01*
X94550Y-61600D02*
X93350Y-61600D01*
X93350Y-61600D02*
X93350Y-62200D01*
X92150Y-61300D02*
X93350Y-61300D01*
X93350Y-61300D02*
X93350Y-60700D01*
X93350Y-60700D02*
X92150Y-60700D01*
X92150Y-60700D02*
X92150Y-61300D01*
X82550Y-65000D02*
X81350Y-65000D01*
X81350Y-65000D02*
X81350Y-65600D01*
X81350Y-65600D02*
X82550Y-65600D01*
X82550Y-65600D02*
X82550Y-65000D01*
X88300Y-66250D02*
X87100Y-66250D01*
X87100Y-66250D02*
X87100Y-66850D01*
X87100Y-66850D02*
X88300Y-66850D01*
X88300Y-66850D02*
X88300Y-66250D01*
G54D14*
X89987Y-66521D02*
X90000Y-66512D01*
X90013Y-66486D01*
X90013Y-66469D01*
X90000Y-66444D01*
X89973Y-66426D01*
X89947Y-66418D01*
X89893Y-66409D01*
X89853Y-66409D01*
X89800Y-66418D01*
X89773Y-66426D01*
X89747Y-66444D01*
X89733Y-66469D01*
X89733Y-66486D01*
X89747Y-66512D01*
X89760Y-66521D01*
X90013Y-66606D02*
X90013Y-66641D01*
X90000Y-66658D01*
X89987Y-66666D01*
X89947Y-66684D01*
X89893Y-66692D01*
X89787Y-66692D01*
X89760Y-66684D01*
X89747Y-66675D01*
X89733Y-66658D01*
X89733Y-66624D01*
X89747Y-66606D01*
X89760Y-66598D01*
X89787Y-66589D01*
X89853Y-66589D01*
X89880Y-66598D01*
X89893Y-66606D01*
X89907Y-66624D01*
X89907Y-66658D01*
X89893Y-66675D01*
X89880Y-66684D01*
X89853Y-66692D01*
X100237Y-62133D02*
X100237Y-62360D01*
X100229Y-62387D01*
X100220Y-62400D01*
X100203Y-62413D01*
X100169Y-62413D01*
X100151Y-62400D01*
X100143Y-62387D01*
X100134Y-62360D01*
X100134Y-62133D01*
X100014Y-62133D02*
X99997Y-62133D01*
X99980Y-62147D01*
X99971Y-62160D01*
X99962Y-62187D01*
X99954Y-62240D01*
X99954Y-62307D01*
X99962Y-62360D01*
X99971Y-62387D01*
X99980Y-62400D01*
X99997Y-62413D01*
X100014Y-62413D01*
X100031Y-62400D01*
X100040Y-62387D01*
X100048Y-62360D01*
X100057Y-62307D01*
X100057Y-62240D01*
X100048Y-62187D01*
X100040Y-62160D01*
X100031Y-62147D01*
X100014Y-62133D01*
X99229Y-65987D02*
X99238Y-66000D01*
X99264Y-66013D01*
X99281Y-66013D01*
X99306Y-66000D01*
X99324Y-65973D01*
X99332Y-65947D01*
X99341Y-65893D01*
X99341Y-65853D01*
X99332Y-65800D01*
X99324Y-65773D01*
X99306Y-65747D01*
X99281Y-65733D01*
X99264Y-65733D01*
X99238Y-65747D01*
X99229Y-65760D01*
X99118Y-65733D02*
X99101Y-65733D01*
X99084Y-65747D01*
X99075Y-65760D01*
X99066Y-65787D01*
X99058Y-65840D01*
X99058Y-65907D01*
X99066Y-65960D01*
X99075Y-65987D01*
X99084Y-66000D01*
X99101Y-66013D01*
X99118Y-66013D01*
X99135Y-66000D01*
X99144Y-65987D01*
X99152Y-65960D01*
X99161Y-65907D01*
X99161Y-65840D01*
X99152Y-65787D01*
X99144Y-65760D01*
X99135Y-65747D01*
X99118Y-65733D01*
X100095Y-61317D02*
X100155Y-61317D01*
X100155Y-61463D02*
X100155Y-61183D01*
X100069Y-61183D01*
X99907Y-61463D02*
X100010Y-61463D01*
X99958Y-61463D02*
X99958Y-61183D01*
X99975Y-61223D01*
X99993Y-61250D01*
X100010Y-61263D01*
X99796Y-61183D02*
X99779Y-61183D01*
X99762Y-61197D01*
X99753Y-61210D01*
X99744Y-61237D01*
X99736Y-61290D01*
X99736Y-61357D01*
X99744Y-61410D01*
X99753Y-61437D01*
X99762Y-61450D01*
X99779Y-61463D01*
X99796Y-61463D01*
X99813Y-61450D01*
X99822Y-61437D01*
X99830Y-61410D01*
X99839Y-61357D01*
X99839Y-61290D01*
X99830Y-61237D01*
X99822Y-61210D01*
X99813Y-61197D01*
X99796Y-61183D01*
X91615Y-66813D02*
X91675Y-66680D01*
X91718Y-66813D02*
X91718Y-66533D01*
X91650Y-66533D01*
X91632Y-66547D01*
X91624Y-66560D01*
X91615Y-66587D01*
X91615Y-66627D01*
X91624Y-66653D01*
X91632Y-66667D01*
X91650Y-66680D01*
X91718Y-66680D01*
X91444Y-66813D02*
X91547Y-66813D01*
X91495Y-66813D02*
X91495Y-66533D01*
X91512Y-66573D01*
X91530Y-66600D01*
X91547Y-66613D01*
X91359Y-66813D02*
X91324Y-66813D01*
X91307Y-66800D01*
X91299Y-66787D01*
X91281Y-66747D01*
X91273Y-66693D01*
X91273Y-66587D01*
X91281Y-66560D01*
X91290Y-66547D01*
X91307Y-66533D01*
X91341Y-66533D01*
X91359Y-66547D01*
X91367Y-66560D01*
X91376Y-66587D01*
X91376Y-66653D01*
X91367Y-66680D01*
X91359Y-66693D01*
X91341Y-66707D01*
X91307Y-66707D01*
X91290Y-66693D01*
X91281Y-66680D01*
X91273Y-66653D01*
X90865Y-66813D02*
X90925Y-66680D01*
X90968Y-66813D02*
X90968Y-66533D01*
X90900Y-66533D01*
X90882Y-66547D01*
X90874Y-66560D01*
X90865Y-66587D01*
X90865Y-66627D01*
X90874Y-66653D01*
X90882Y-66667D01*
X90900Y-66680D01*
X90968Y-66680D01*
X90780Y-66813D02*
X90745Y-66813D01*
X90728Y-66800D01*
X90720Y-66787D01*
X90702Y-66747D01*
X90694Y-66693D01*
X90694Y-66587D01*
X90702Y-66560D01*
X90711Y-66547D01*
X90728Y-66533D01*
X90762Y-66533D01*
X90780Y-66547D01*
X90788Y-66560D01*
X90797Y-66587D01*
X90797Y-66653D01*
X90788Y-66680D01*
X90780Y-66693D01*
X90762Y-66707D01*
X90728Y-66707D01*
X90711Y-66693D01*
X90702Y-66680D01*
X90694Y-66653D01*
X90583Y-66533D02*
X90566Y-66533D01*
X90549Y-66547D01*
X90540Y-66560D01*
X90531Y-66587D01*
X90523Y-66640D01*
X90523Y-66707D01*
X90531Y-66760D01*
X90540Y-66787D01*
X90549Y-66800D01*
X90566Y-66813D01*
X90583Y-66813D01*
X90600Y-66800D01*
X90609Y-66787D01*
X90617Y-66760D01*
X90626Y-66707D01*
X90626Y-66640D01*
X90617Y-66587D01*
X90609Y-66560D01*
X90600Y-66547D01*
X90583Y-66533D01*
X99463Y-63485D02*
X99330Y-63425D01*
X99463Y-63382D02*
X99183Y-63382D01*
X99183Y-63450D01*
X99197Y-63468D01*
X99210Y-63476D01*
X99237Y-63485D01*
X99277Y-63485D01*
X99303Y-63476D01*
X99317Y-63468D01*
X99330Y-63450D01*
X99330Y-63382D01*
X99463Y-63656D02*
X99463Y-63553D01*
X99463Y-63605D02*
X99183Y-63605D01*
X99223Y-63588D01*
X99250Y-63570D01*
X99263Y-63553D01*
X99183Y-63767D02*
X99183Y-63784D01*
X99197Y-63801D01*
X99210Y-63810D01*
X99237Y-63819D01*
X99290Y-63827D01*
X99357Y-63827D01*
X99410Y-63819D01*
X99437Y-63810D01*
X99450Y-63801D01*
X99463Y-63784D01*
X99463Y-63767D01*
X99450Y-63750D01*
X99437Y-63741D01*
X99410Y-63733D01*
X99357Y-63724D01*
X99290Y-63724D01*
X99237Y-63733D01*
X99210Y-63741D01*
X99197Y-63750D01*
X99183Y-63767D01*
X81429Y-61513D02*
X81489Y-61380D01*
X81532Y-61513D02*
X81532Y-61233D01*
X81464Y-61233D01*
X81446Y-61247D01*
X81438Y-61260D01*
X81429Y-61287D01*
X81429Y-61327D01*
X81438Y-61353D01*
X81446Y-61367D01*
X81464Y-61380D01*
X81532Y-61380D01*
X81318Y-61233D02*
X81301Y-61233D01*
X81284Y-61247D01*
X81275Y-61260D01*
X81266Y-61287D01*
X81258Y-61340D01*
X81258Y-61407D01*
X81266Y-61460D01*
X81275Y-61487D01*
X81284Y-61500D01*
X81301Y-61513D01*
X81318Y-61513D01*
X81335Y-61500D01*
X81344Y-61487D01*
X81352Y-61460D01*
X81361Y-61407D01*
X81361Y-61340D01*
X81352Y-61287D01*
X81344Y-61260D01*
X81335Y-61247D01*
X81318Y-61233D01*
X83487Y-60601D02*
X83487Y-60804D01*
X83479Y-60827D01*
X83470Y-60839D01*
X83453Y-60851D01*
X83419Y-60851D01*
X83401Y-60839D01*
X83393Y-60827D01*
X83384Y-60804D01*
X83384Y-60601D01*
X83307Y-60625D02*
X83298Y-60613D01*
X83281Y-60601D01*
X83238Y-60601D01*
X83221Y-60613D01*
X83212Y-60625D01*
X83204Y-60649D01*
X83204Y-60673D01*
X83212Y-60708D01*
X83315Y-60851D01*
X83204Y-60851D01*
X82479Y-64087D02*
X82488Y-64100D01*
X82514Y-64113D01*
X82531Y-64113D01*
X82556Y-64100D01*
X82574Y-64073D01*
X82582Y-64047D01*
X82591Y-63993D01*
X82591Y-63953D01*
X82582Y-63900D01*
X82574Y-63873D01*
X82556Y-63847D01*
X82531Y-63833D01*
X82514Y-63833D01*
X82488Y-63847D01*
X82479Y-63860D01*
X82316Y-63833D02*
X82402Y-63833D01*
X82411Y-63967D01*
X82402Y-63953D01*
X82385Y-63940D01*
X82342Y-63940D01*
X82325Y-63953D01*
X82316Y-63967D01*
X82308Y-63993D01*
X82308Y-64060D01*
X82316Y-64087D01*
X82325Y-64100D01*
X82342Y-64113D01*
X82385Y-64113D01*
X82402Y-64100D01*
X82411Y-64087D01*
X82563Y-63271D02*
X82430Y-63211D01*
X82563Y-63168D02*
X82283Y-63168D01*
X82283Y-63236D01*
X82297Y-63254D01*
X82310Y-63262D01*
X82337Y-63271D01*
X82377Y-63271D01*
X82403Y-63262D01*
X82417Y-63254D01*
X82430Y-63236D01*
X82430Y-63168D01*
X82283Y-63331D02*
X82283Y-63442D01*
X82390Y-63382D01*
X82390Y-63408D01*
X82403Y-63425D01*
X82417Y-63434D01*
X82443Y-63442D01*
X82510Y-63442D01*
X82537Y-63434D01*
X82550Y-63425D01*
X82563Y-63408D01*
X82563Y-63356D01*
X82550Y-63339D01*
X82537Y-63331D01*
X97079Y-63077D02*
X97088Y-63089D01*
X97114Y-63101D01*
X97131Y-63101D01*
X97156Y-63089D01*
X97174Y-63065D01*
X97182Y-63042D01*
X97191Y-62994D01*
X97191Y-62958D01*
X97182Y-62911D01*
X97174Y-62887D01*
X97156Y-62863D01*
X97131Y-62851D01*
X97114Y-62851D01*
X97088Y-62863D01*
X97079Y-62875D01*
X96908Y-63101D02*
X97011Y-63101D01*
X96959Y-63101D02*
X96959Y-62851D01*
X96976Y-62887D01*
X96994Y-62911D01*
X97011Y-62923D01*
X92215Y-68113D02*
X92275Y-67980D01*
X92318Y-68113D02*
X92318Y-67833D01*
X92250Y-67833D01*
X92232Y-67847D01*
X92224Y-67860D01*
X92215Y-67887D01*
X92215Y-67927D01*
X92224Y-67953D01*
X92232Y-67967D01*
X92250Y-67980D01*
X92318Y-67980D01*
X92130Y-68113D02*
X92095Y-68113D01*
X92078Y-68100D01*
X92070Y-68087D01*
X92052Y-68047D01*
X92044Y-67993D01*
X92044Y-67887D01*
X92052Y-67860D01*
X92061Y-67847D01*
X92078Y-67833D01*
X92112Y-67833D01*
X92130Y-67847D01*
X92138Y-67860D01*
X92147Y-67887D01*
X92147Y-67953D01*
X92138Y-67980D01*
X92130Y-67993D01*
X92112Y-68007D01*
X92078Y-68007D01*
X92061Y-67993D01*
X92052Y-67980D01*
X92044Y-67953D01*
X91890Y-67833D02*
X91924Y-67833D01*
X91941Y-67847D01*
X91950Y-67860D01*
X91967Y-67900D01*
X91976Y-67953D01*
X91976Y-68060D01*
X91967Y-68087D01*
X91959Y-68100D01*
X91941Y-68113D01*
X91907Y-68113D01*
X91890Y-68100D01*
X91881Y-68087D01*
X91873Y-68060D01*
X91873Y-67993D01*
X91881Y-67967D01*
X91890Y-67953D01*
X91907Y-67940D01*
X91941Y-67940D01*
X91959Y-67953D01*
X91967Y-67967D01*
X91976Y-67993D01*
X93262Y-66750D02*
X93236Y-66763D01*
X93193Y-66763D01*
X93176Y-66750D01*
X93167Y-66737D01*
X93159Y-66710D01*
X93159Y-66683D01*
X93167Y-66657D01*
X93176Y-66643D01*
X93193Y-66630D01*
X93227Y-66617D01*
X93245Y-66603D01*
X93253Y-66590D01*
X93262Y-66563D01*
X93262Y-66537D01*
X93253Y-66510D01*
X93245Y-66497D01*
X93227Y-66483D01*
X93185Y-66483D01*
X93159Y-66497D01*
X93082Y-66763D02*
X93082Y-66483D01*
X93014Y-66483D01*
X92996Y-66497D01*
X92988Y-66510D01*
X92979Y-66537D01*
X92979Y-66577D01*
X92988Y-66603D01*
X92996Y-66617D01*
X93014Y-66630D01*
X93082Y-66630D01*
X92825Y-66577D02*
X92825Y-66763D01*
X92868Y-66470D02*
X92911Y-66670D01*
X92799Y-66670D01*
X92697Y-66483D02*
X92680Y-66483D01*
X92663Y-66497D01*
X92654Y-66510D01*
X92645Y-66537D01*
X92637Y-66590D01*
X92637Y-66657D01*
X92645Y-66710D01*
X92654Y-66737D01*
X92663Y-66750D01*
X92680Y-66763D01*
X92697Y-66763D01*
X92714Y-66750D01*
X92723Y-66737D01*
X92731Y-66710D01*
X92740Y-66657D01*
X92740Y-66590D01*
X92731Y-66537D01*
X92723Y-66510D01*
X92714Y-66497D01*
X92697Y-66483D01*
G54D11*
X92992Y-63143D02*
X92992Y-62543D01*
X92649Y-63143D02*
X92906Y-62800D01*
X92649Y-62543D02*
X92992Y-62886D01*
X92106Y-63143D02*
X92392Y-63143D01*
X92392Y-62543D01*
X91735Y-62543D02*
X91735Y-62971D01*
X91763Y-63057D01*
X91820Y-63114D01*
X91906Y-63143D01*
X91963Y-63143D01*
X91449Y-62914D02*
X90992Y-62914D01*
X90392Y-63143D02*
X90735Y-63143D01*
X90563Y-63143D02*
X90563Y-62543D01*
X90620Y-62629D01*
X90678Y-62686D01*
X90735Y-62714D01*
X90164Y-62600D02*
X90135Y-62571D01*
X90078Y-62543D01*
X89935Y-62543D01*
X89878Y-62571D01*
X89849Y-62600D01*
X89821Y-62657D01*
X89821Y-62714D01*
X89849Y-62800D01*
X90192Y-63143D01*
X89821Y-63143D01*
X89621Y-62543D02*
X89250Y-62543D01*
X89450Y-62771D01*
X89364Y-62771D01*
X89307Y-62800D01*
X89278Y-62829D01*
X89250Y-62886D01*
X89250Y-63029D01*
X89278Y-63086D01*
X89307Y-63114D01*
X89364Y-63143D01*
X89536Y-63143D01*
X89593Y-63114D01*
X89621Y-63086D01*
X88879Y-62543D02*
X88822Y-62543D01*
X88765Y-62571D01*
X88736Y-62600D01*
X88707Y-62657D01*
X88679Y-62771D01*
X88679Y-62914D01*
X88707Y-63029D01*
X88736Y-63086D01*
X88765Y-63114D01*
X88822Y-63143D01*
X88879Y-63143D01*
X88936Y-63114D01*
X88965Y-63086D01*
X88993Y-63029D01*
X89022Y-62914D01*
X89022Y-62771D01*
X88993Y-62657D01*
X88965Y-62600D01*
X88936Y-62571D01*
X88879Y-62543D01*
G54D14*
X95279Y-62563D02*
X95339Y-62430D01*
X95382Y-62563D02*
X95382Y-62283D01*
X95314Y-62283D01*
X95296Y-62297D01*
X95288Y-62310D01*
X95279Y-62337D01*
X95279Y-62377D01*
X95288Y-62403D01*
X95296Y-62417D01*
X95314Y-62430D01*
X95382Y-62430D01*
X95125Y-62377D02*
X95125Y-62563D01*
X95168Y-62270D02*
X95211Y-62470D01*
X95099Y-62470D01*
X93979Y-62563D02*
X94039Y-62430D01*
X94082Y-62563D02*
X94082Y-62283D01*
X94014Y-62283D01*
X93996Y-62297D01*
X93988Y-62310D01*
X93979Y-62337D01*
X93979Y-62377D01*
X93988Y-62403D01*
X93996Y-62417D01*
X94014Y-62430D01*
X94082Y-62430D01*
X93816Y-62283D02*
X93902Y-62283D01*
X93911Y-62417D01*
X93902Y-62403D01*
X93885Y-62390D01*
X93842Y-62390D01*
X93825Y-62403D01*
X93816Y-62417D01*
X93808Y-62443D01*
X93808Y-62510D01*
X93816Y-62537D01*
X93825Y-62550D01*
X93842Y-62563D01*
X93885Y-62563D01*
X93902Y-62550D01*
X93911Y-62537D01*
X92063Y-60971D02*
X91930Y-60911D01*
X92063Y-60868D02*
X91783Y-60868D01*
X91783Y-60936D01*
X91797Y-60954D01*
X91810Y-60962D01*
X91837Y-60971D01*
X91877Y-60971D01*
X91903Y-60962D01*
X91917Y-60954D01*
X91930Y-60936D01*
X91930Y-60868D01*
X91783Y-61125D02*
X91783Y-61091D01*
X91797Y-61074D01*
X91810Y-61065D01*
X91850Y-61048D01*
X91903Y-61039D01*
X92010Y-61039D01*
X92037Y-61048D01*
X92050Y-61056D01*
X92063Y-61074D01*
X92063Y-61108D01*
X92050Y-61125D01*
X92037Y-61134D01*
X92010Y-61142D01*
X91943Y-61142D01*
X91917Y-61134D01*
X91903Y-61125D01*
X91890Y-61108D01*
X91890Y-61074D01*
X91903Y-61056D01*
X91917Y-61048D01*
X91943Y-61039D01*
X81979Y-65963D02*
X82039Y-65830D01*
X82082Y-65963D02*
X82082Y-65683D01*
X82014Y-65683D01*
X81996Y-65697D01*
X81988Y-65710D01*
X81979Y-65737D01*
X81979Y-65777D01*
X81988Y-65803D01*
X81996Y-65817D01*
X82014Y-65830D01*
X82082Y-65830D01*
X81911Y-65710D02*
X81902Y-65697D01*
X81885Y-65683D01*
X81842Y-65683D01*
X81825Y-65697D01*
X81816Y-65710D01*
X81808Y-65737D01*
X81808Y-65763D01*
X81816Y-65803D01*
X81919Y-65963D01*
X81808Y-65963D01*
X88129Y-66163D02*
X88189Y-66030D01*
X88232Y-66163D02*
X88232Y-65883D01*
X88164Y-65883D01*
X88146Y-65897D01*
X88138Y-65910D01*
X88129Y-65937D01*
X88129Y-65977D01*
X88138Y-66003D01*
X88146Y-66017D01*
X88164Y-66030D01*
X88232Y-66030D01*
X87958Y-66163D02*
X88061Y-66163D01*
X88009Y-66163D02*
X88009Y-65883D01*
X88026Y-65923D01*
X88044Y-65950D01*
X88061Y-65963D01*
M02*
