G04 (created by PCBNEW-RS274X (2011-12-28 BZR 3254)-stable) date 17/03/2012 11:59:27*
G01*
G70*
G90*
%MOIN*%
G04 Gerber Fmt 3.4, Leading zero omitted, Abs format*
%FSLAX34Y34*%
G04 APERTURE LIST*
%ADD10C,0.006000*%
%ADD11C,0.007500*%
%ADD12C,0.005000*%
%ADD13C,0.015000*%
%ADD14C,0.004500*%
G04 APERTURE END LIST*
G54D10*
G54D11*
X99121Y-60962D02*
X98949Y-60962D01*
X99035Y-60962D02*
X99035Y-60562D01*
X99006Y-60619D01*
X98978Y-60657D01*
X98949Y-60676D01*
X99235Y-60600D02*
X99249Y-60581D01*
X99278Y-60562D01*
X99349Y-60562D01*
X99378Y-60581D01*
X99392Y-60600D01*
X99407Y-60638D01*
X99407Y-60676D01*
X99392Y-60733D01*
X99221Y-60962D01*
X99407Y-60962D01*
X99593Y-60562D02*
X99621Y-60562D01*
X99650Y-60581D01*
X99664Y-60600D01*
X99678Y-60638D01*
X99693Y-60714D01*
X99693Y-60810D01*
X99678Y-60886D01*
X99664Y-60924D01*
X99650Y-60943D01*
X99621Y-60962D01*
X99593Y-60962D01*
X99564Y-60943D01*
X99550Y-60924D01*
X99535Y-60886D01*
X99521Y-60810D01*
X99521Y-60714D01*
X99535Y-60638D01*
X99550Y-60600D01*
X99564Y-60581D01*
X99593Y-60562D01*
X99979Y-60962D02*
X99807Y-60962D01*
X99893Y-60962D02*
X99893Y-60562D01*
X99864Y-60619D01*
X99836Y-60657D01*
X99807Y-60676D01*
X100165Y-60562D02*
X100193Y-60562D01*
X100222Y-60581D01*
X100236Y-60600D01*
X100250Y-60638D01*
X100265Y-60714D01*
X100265Y-60810D01*
X100250Y-60886D01*
X100236Y-60924D01*
X100222Y-60943D01*
X100193Y-60962D01*
X100165Y-60962D01*
X100136Y-60943D01*
X100122Y-60924D01*
X100107Y-60886D01*
X100093Y-60810D01*
X100093Y-60714D01*
X100107Y-60638D01*
X100122Y-60600D01*
X100136Y-60581D01*
X100165Y-60562D01*
X100379Y-60600D02*
X100393Y-60581D01*
X100422Y-60562D01*
X100493Y-60562D01*
X100522Y-60581D01*
X100536Y-60600D01*
X100551Y-60638D01*
X100551Y-60676D01*
X100536Y-60733D01*
X100365Y-60962D01*
X100551Y-60962D01*
G54D12*
X89750Y-64500D02*
X89750Y-63300D01*
X89750Y-63300D02*
X90050Y-63300D01*
X90050Y-63300D02*
X90050Y-64500D01*
X90050Y-64500D02*
X89750Y-64500D01*
X89750Y-63200D02*
X89750Y-62000D01*
X89750Y-62000D02*
X90050Y-62000D01*
X90050Y-62000D02*
X90050Y-63200D01*
X90050Y-63200D02*
X89750Y-63200D01*
X95250Y-61650D02*
X94550Y-61650D01*
X94550Y-61650D02*
X94550Y-60450D01*
X94550Y-60450D02*
X95250Y-60450D01*
X95250Y-60450D02*
X95250Y-61650D01*
X85550Y-60450D02*
X86250Y-60450D01*
X86250Y-60450D02*
X86250Y-61650D01*
X86250Y-61650D02*
X85550Y-61650D01*
X85550Y-61650D02*
X85550Y-60450D01*
X95920Y-61700D02*
X95918Y-61713D01*
X95914Y-61726D01*
X95908Y-61738D01*
X95899Y-61749D01*
X95889Y-61758D01*
X95877Y-61764D01*
X95864Y-61768D01*
X95850Y-61769D01*
X95837Y-61768D01*
X95824Y-61764D01*
X95812Y-61758D01*
X95802Y-61750D01*
X95793Y-61739D01*
X95786Y-61727D01*
X95782Y-61714D01*
X95781Y-61700D01*
X95782Y-61688D01*
X95785Y-61675D01*
X95792Y-61663D01*
X95800Y-61652D01*
X95811Y-61643D01*
X95822Y-61636D01*
X95835Y-61632D01*
X95849Y-61631D01*
X95862Y-61632D01*
X95875Y-61635D01*
X95887Y-61641D01*
X95898Y-61650D01*
X95907Y-61660D01*
X95913Y-61672D01*
X95918Y-61685D01*
X95919Y-61699D01*
X95920Y-61700D01*
X97350Y-61650D02*
X98100Y-61650D01*
X98100Y-61650D02*
X98100Y-60450D01*
X98100Y-60450D02*
X97350Y-60450D01*
X96700Y-60450D02*
X95900Y-60450D01*
X95900Y-60450D02*
X95900Y-61650D01*
X95900Y-61650D02*
X96700Y-61650D01*
X85020Y-60400D02*
X85018Y-60413D01*
X85014Y-60426D01*
X85008Y-60438D01*
X84999Y-60449D01*
X84989Y-60458D01*
X84977Y-60464D01*
X84964Y-60468D01*
X84950Y-60469D01*
X84937Y-60468D01*
X84924Y-60464D01*
X84912Y-60458D01*
X84902Y-60450D01*
X84893Y-60439D01*
X84886Y-60427D01*
X84882Y-60414D01*
X84881Y-60400D01*
X84882Y-60388D01*
X84885Y-60375D01*
X84892Y-60363D01*
X84900Y-60352D01*
X84911Y-60343D01*
X84922Y-60336D01*
X84935Y-60332D01*
X84949Y-60331D01*
X84962Y-60332D01*
X84975Y-60335D01*
X84987Y-60341D01*
X84998Y-60350D01*
X85007Y-60360D01*
X85013Y-60372D01*
X85018Y-60385D01*
X85019Y-60399D01*
X85020Y-60400D01*
X83450Y-60450D02*
X82700Y-60450D01*
X82700Y-60450D02*
X82700Y-61650D01*
X82700Y-61650D02*
X83450Y-61650D01*
X84100Y-61650D02*
X84900Y-61650D01*
X84900Y-61650D02*
X84900Y-60450D01*
X84900Y-60450D02*
X84100Y-60450D01*
X93550Y-59500D02*
X93050Y-59500D01*
X93050Y-59500D02*
X93050Y-60200D01*
X93050Y-60200D02*
X93550Y-60200D01*
X93950Y-59500D02*
X94450Y-59500D01*
X94450Y-59500D02*
X94450Y-60200D01*
X94450Y-60200D02*
X93950Y-60200D01*
X81400Y-67200D02*
X81400Y-66700D01*
X81400Y-66700D02*
X80700Y-66700D01*
X80700Y-66700D02*
X80700Y-67200D01*
X81400Y-67600D02*
X81400Y-68100D01*
X81400Y-68100D02*
X80700Y-68100D01*
X80700Y-68100D02*
X80700Y-67600D01*
X93350Y-64350D02*
X93350Y-63150D01*
X93350Y-63150D02*
X93950Y-63150D01*
X93950Y-63150D02*
X93950Y-64350D01*
X93950Y-64350D02*
X93350Y-64350D01*
X92500Y-64350D02*
X92500Y-63150D01*
X92500Y-63150D02*
X93100Y-63150D01*
X93100Y-63150D02*
X93100Y-64350D01*
X93100Y-64350D02*
X92500Y-64350D01*
X91650Y-64350D02*
X91650Y-63150D01*
X91650Y-63150D02*
X92250Y-63150D01*
X92250Y-63150D02*
X92250Y-64350D01*
X92250Y-64350D02*
X91650Y-64350D01*
X90800Y-64350D02*
X90800Y-63150D01*
X90800Y-63150D02*
X91400Y-63150D01*
X91400Y-63150D02*
X91400Y-64350D01*
X91400Y-64350D02*
X90800Y-64350D01*
X93600Y-68850D02*
X92400Y-68850D01*
X92400Y-68850D02*
X92400Y-68250D01*
X92400Y-68250D02*
X93600Y-68250D01*
X93600Y-68250D02*
X93600Y-68850D01*
X93600Y-68100D02*
X92400Y-68100D01*
X92400Y-68100D02*
X92400Y-67500D01*
X92400Y-67500D02*
X93600Y-67500D01*
X93600Y-67500D02*
X93600Y-68100D01*
X93600Y-65850D02*
X92400Y-65850D01*
X92400Y-65850D02*
X92400Y-65250D01*
X92400Y-65250D02*
X93600Y-65250D01*
X93600Y-65250D02*
X93600Y-65850D01*
X93600Y-65100D02*
X92400Y-65100D01*
X92400Y-65100D02*
X92400Y-64500D01*
X92400Y-64500D02*
X93600Y-64500D01*
X93600Y-64500D02*
X93600Y-65100D01*
X93600Y-66600D02*
X92400Y-66600D01*
X92400Y-66600D02*
X92400Y-66000D01*
X92400Y-66000D02*
X93600Y-66000D01*
X93600Y-66000D02*
X93600Y-66600D01*
X93600Y-67350D02*
X92400Y-67350D01*
X92400Y-67350D02*
X92400Y-66750D01*
X92400Y-66750D02*
X93600Y-66750D01*
X93600Y-66750D02*
X93600Y-67350D01*
X91800Y-66900D02*
X91800Y-68100D01*
X91800Y-68100D02*
X91200Y-68100D01*
X91200Y-68100D02*
X91200Y-66900D01*
X91200Y-66900D02*
X91800Y-66900D01*
X82550Y-63300D02*
X81350Y-63300D01*
X81350Y-63300D02*
X81350Y-62700D01*
X81350Y-62700D02*
X82550Y-62700D01*
X82550Y-62700D02*
X82550Y-63300D01*
X89150Y-64700D02*
X87950Y-64700D01*
X87950Y-64700D02*
X87950Y-64100D01*
X87950Y-64100D02*
X89150Y-64100D01*
X89150Y-64100D02*
X89150Y-64700D01*
X87950Y-63350D02*
X89150Y-63350D01*
X89150Y-63350D02*
X89150Y-63950D01*
X89150Y-63950D02*
X87950Y-63950D01*
X87950Y-63950D02*
X87950Y-63350D01*
X90450Y-68100D02*
X90450Y-66900D01*
X90450Y-66900D02*
X91050Y-66900D01*
X91050Y-66900D02*
X91050Y-68100D01*
X91050Y-68100D02*
X90450Y-68100D01*
X85650Y-68100D02*
X85650Y-66900D01*
X85650Y-66900D02*
X86250Y-66900D01*
X86250Y-66900D02*
X86250Y-68100D01*
X86250Y-68100D02*
X85650Y-68100D01*
X83650Y-68100D02*
X83650Y-66900D01*
X83650Y-66900D02*
X84250Y-66900D01*
X84250Y-66900D02*
X84250Y-68100D01*
X84250Y-68100D02*
X83650Y-68100D01*
X84650Y-68100D02*
X84650Y-66900D01*
X84650Y-66900D02*
X85250Y-66900D01*
X85250Y-66900D02*
X85250Y-68100D01*
X85250Y-68100D02*
X84650Y-68100D01*
X86650Y-68100D02*
X86650Y-66900D01*
X86650Y-66900D02*
X87250Y-66900D01*
X87250Y-66900D02*
X87250Y-68100D01*
X87250Y-68100D02*
X86650Y-68100D01*
X87650Y-68100D02*
X87650Y-66900D01*
X87650Y-66900D02*
X88250Y-66900D01*
X88250Y-66900D02*
X88250Y-68100D01*
X88250Y-68100D02*
X87650Y-68100D01*
X88650Y-68100D02*
X88650Y-66900D01*
X88650Y-66900D02*
X89250Y-66900D01*
X89250Y-66900D02*
X89250Y-68100D01*
X89250Y-68100D02*
X88650Y-68100D01*
X89650Y-68100D02*
X89650Y-66900D01*
X89650Y-66900D02*
X90250Y-66900D01*
X90250Y-66900D02*
X90250Y-68100D01*
X90250Y-68100D02*
X89650Y-68100D01*
X82650Y-68100D02*
X82650Y-66900D01*
X82650Y-66900D02*
X83250Y-66900D01*
X83250Y-66900D02*
X83250Y-68100D01*
X83250Y-68100D02*
X82650Y-68100D01*
X81650Y-68100D02*
X81650Y-66900D01*
X81650Y-66900D02*
X82250Y-66900D01*
X82250Y-66900D02*
X82250Y-68100D01*
X82250Y-68100D02*
X81650Y-68100D01*
X87950Y-62600D02*
X89150Y-62600D01*
X89150Y-62600D02*
X89150Y-63200D01*
X89150Y-63200D02*
X87950Y-63200D01*
X87950Y-63200D02*
X87950Y-62600D01*
X96750Y-64350D02*
X96750Y-63150D01*
X96750Y-63150D02*
X97350Y-63150D01*
X97350Y-63150D02*
X97350Y-64350D01*
X97350Y-64350D02*
X96750Y-64350D01*
X95900Y-64350D02*
X95900Y-63150D01*
X95900Y-63150D02*
X96500Y-63150D01*
X96500Y-63150D02*
X96500Y-64350D01*
X96500Y-64350D02*
X95900Y-64350D01*
X95050Y-64350D02*
X95050Y-63150D01*
X95050Y-63150D02*
X95650Y-63150D01*
X95650Y-63150D02*
X95650Y-64350D01*
X95650Y-64350D02*
X95050Y-64350D01*
X94200Y-64350D02*
X94200Y-63150D01*
X94200Y-63150D02*
X94800Y-63150D01*
X94800Y-63150D02*
X94800Y-64350D01*
X94800Y-64350D02*
X94200Y-64350D01*
X87950Y-61850D02*
X89150Y-61850D01*
X89150Y-61850D02*
X89150Y-62450D01*
X89150Y-62450D02*
X87950Y-62450D01*
X87950Y-62450D02*
X87950Y-61850D01*
X92400Y-69000D02*
X93600Y-69000D01*
X93600Y-69000D02*
X93600Y-69600D01*
X93600Y-69600D02*
X92400Y-69600D01*
X92400Y-69600D02*
X92400Y-69000D01*
X81400Y-60450D02*
X82600Y-60450D01*
X82600Y-60450D02*
X82600Y-61050D01*
X82600Y-61050D02*
X81400Y-61050D01*
X81400Y-61050D02*
X81400Y-60450D01*
X81300Y-61050D02*
X80100Y-61050D01*
X80100Y-61050D02*
X80100Y-60450D01*
X80100Y-60450D02*
X81300Y-60450D01*
X81300Y-60450D02*
X81300Y-61050D01*
X100200Y-61400D02*
X100200Y-62600D01*
X100200Y-62600D02*
X99600Y-62600D01*
X99600Y-62600D02*
X99600Y-61400D01*
X99600Y-61400D02*
X100200Y-61400D01*
X87450Y-60450D02*
X88850Y-60450D01*
X87450Y-61350D02*
X88850Y-61350D01*
X88600Y-61350D02*
X88599Y-61359D01*
X88596Y-61369D01*
X88591Y-61377D01*
X88585Y-61385D01*
X88577Y-61391D01*
X88569Y-61396D01*
X88560Y-61398D01*
X88550Y-61399D01*
X88541Y-61399D01*
X88532Y-61396D01*
X88523Y-61391D01*
X88516Y-61385D01*
X88509Y-61378D01*
X88505Y-61369D01*
X88502Y-61360D01*
X88501Y-61350D01*
X88501Y-61341D01*
X88504Y-61332D01*
X88508Y-61323D01*
X88515Y-61316D01*
X88522Y-61309D01*
X88530Y-61305D01*
X88540Y-61302D01*
X88549Y-61301D01*
X88558Y-61301D01*
X88568Y-61304D01*
X88576Y-61308D01*
X88584Y-61314D01*
X88590Y-61322D01*
X88595Y-61330D01*
X88598Y-61339D01*
X88599Y-61349D01*
X88600Y-61350D01*
X88850Y-61350D02*
X88850Y-60450D01*
X87450Y-61350D02*
X87450Y-60450D01*
G54D13*
X81450Y-68200D02*
X91450Y-68200D01*
X91450Y-70200D02*
X81450Y-70200D01*
X81450Y-68200D02*
X81450Y-70200D01*
X91450Y-70200D02*
X91450Y-68200D01*
X91300Y-60200D02*
X91300Y-59800D01*
X92000Y-57300D02*
X92000Y-60200D01*
X88800Y-60200D02*
X88800Y-57300D01*
X88800Y-57300D02*
X88100Y-57300D01*
X92000Y-57300D02*
X92700Y-57300D01*
X92000Y-60200D02*
X91300Y-60200D01*
X91300Y-59800D02*
X89500Y-59800D01*
X89500Y-59800D02*
X89500Y-60200D01*
X89500Y-60200D02*
X88800Y-60200D01*
G54D12*
X89450Y-65700D02*
X89350Y-65600D01*
X89350Y-65600D02*
X89350Y-64900D01*
X89350Y-64900D02*
X89450Y-64800D01*
X91450Y-65700D02*
X91450Y-64800D01*
X91450Y-64800D02*
X90800Y-64800D01*
X90100Y-65700D02*
X89450Y-65700D01*
X89450Y-65700D02*
X89450Y-64800D01*
X89450Y-64800D02*
X90100Y-64800D01*
X90800Y-65700D02*
X91450Y-65700D01*
X81050Y-61350D02*
X80950Y-61250D01*
X80950Y-61250D02*
X80450Y-61250D01*
X80450Y-61250D02*
X80350Y-61350D01*
X81050Y-61750D02*
X81050Y-61350D01*
X81050Y-61350D02*
X80350Y-61350D01*
X80350Y-61350D02*
X80350Y-61750D01*
X81050Y-62150D02*
X81050Y-62550D01*
X81050Y-62550D02*
X80350Y-62550D01*
X80350Y-62550D02*
X80350Y-62150D01*
X81050Y-62800D02*
X80950Y-62700D01*
X80950Y-62700D02*
X80450Y-62700D01*
X80450Y-62700D02*
X80350Y-62800D01*
X81050Y-63200D02*
X81050Y-62800D01*
X81050Y-62800D02*
X80350Y-62800D01*
X80350Y-62800D02*
X80350Y-63200D01*
X81050Y-63600D02*
X81050Y-64000D01*
X81050Y-64000D02*
X80350Y-64000D01*
X80350Y-64000D02*
X80350Y-63600D01*
X90750Y-63000D02*
X90850Y-63100D01*
X90850Y-63100D02*
X91350Y-63100D01*
X91350Y-63100D02*
X91450Y-63000D01*
X90750Y-62600D02*
X90750Y-63000D01*
X90750Y-63000D02*
X91450Y-63000D01*
X91450Y-63000D02*
X91450Y-62600D01*
X90750Y-62200D02*
X90750Y-61800D01*
X90750Y-61800D02*
X91450Y-61800D01*
X91450Y-61800D02*
X91450Y-62200D01*
X91600Y-63000D02*
X91700Y-63100D01*
X91700Y-63100D02*
X92200Y-63100D01*
X92200Y-63100D02*
X92300Y-63000D01*
X91600Y-62600D02*
X91600Y-63000D01*
X91600Y-63000D02*
X92300Y-63000D01*
X92300Y-63000D02*
X92300Y-62600D01*
X91600Y-62200D02*
X91600Y-61800D01*
X91600Y-61800D02*
X92300Y-61800D01*
X92300Y-61800D02*
X92300Y-62200D01*
X92450Y-63000D02*
X92550Y-63100D01*
X92550Y-63100D02*
X93050Y-63100D01*
X93050Y-63100D02*
X93150Y-63000D01*
X92450Y-62600D02*
X92450Y-63000D01*
X92450Y-63000D02*
X93150Y-63000D01*
X93150Y-63000D02*
X93150Y-62600D01*
X92450Y-62200D02*
X92450Y-61800D01*
X92450Y-61800D02*
X93150Y-61800D01*
X93150Y-61800D02*
X93150Y-62200D01*
X93300Y-63000D02*
X93400Y-63100D01*
X93400Y-63100D02*
X93900Y-63100D01*
X93900Y-63100D02*
X94000Y-63000D01*
X93300Y-62600D02*
X93300Y-63000D01*
X93300Y-63000D02*
X94000Y-63000D01*
X94000Y-63000D02*
X94000Y-62600D01*
X93300Y-62200D02*
X93300Y-61800D01*
X93300Y-61800D02*
X94000Y-61800D01*
X94000Y-61800D02*
X94000Y-62200D01*
X94150Y-63000D02*
X94250Y-63100D01*
X94250Y-63100D02*
X94750Y-63100D01*
X94750Y-63100D02*
X94850Y-63000D01*
X94150Y-62600D02*
X94150Y-63000D01*
X94150Y-63000D02*
X94850Y-63000D01*
X94850Y-63000D02*
X94850Y-62600D01*
X94150Y-62200D02*
X94150Y-61800D01*
X94150Y-61800D02*
X94850Y-61800D01*
X94850Y-61800D02*
X94850Y-62200D01*
X95000Y-63000D02*
X95100Y-63100D01*
X95100Y-63100D02*
X95600Y-63100D01*
X95600Y-63100D02*
X95700Y-63000D01*
X95000Y-62600D02*
X95000Y-63000D01*
X95000Y-63000D02*
X95700Y-63000D01*
X95700Y-63000D02*
X95700Y-62600D01*
X95000Y-62200D02*
X95000Y-61800D01*
X95000Y-61800D02*
X95700Y-61800D01*
X95700Y-61800D02*
X95700Y-62200D01*
X95850Y-63000D02*
X95950Y-63100D01*
X95950Y-63100D02*
X96450Y-63100D01*
X96450Y-63100D02*
X96550Y-63000D01*
X95850Y-62600D02*
X95850Y-63000D01*
X95850Y-63000D02*
X96550Y-63000D01*
X96550Y-63000D02*
X96550Y-62600D01*
X95850Y-62200D02*
X95850Y-61800D01*
X95850Y-61800D02*
X96550Y-61800D01*
X96550Y-61800D02*
X96550Y-62200D01*
X96700Y-63000D02*
X96800Y-63100D01*
X96800Y-63100D02*
X97300Y-63100D01*
X97300Y-63100D02*
X97400Y-63000D01*
X96700Y-62600D02*
X96700Y-63000D01*
X96700Y-63000D02*
X97400Y-63000D01*
X97400Y-63000D02*
X97400Y-62600D01*
X96700Y-62200D02*
X96700Y-61800D01*
X96700Y-61800D02*
X97400Y-61800D01*
X97400Y-61800D02*
X97400Y-62200D01*
X80350Y-65100D02*
X80348Y-65119D01*
X80342Y-65138D01*
X80333Y-65155D01*
X80320Y-65170D01*
X80305Y-65182D01*
X80288Y-65192D01*
X80270Y-65197D01*
X80250Y-65199D01*
X80232Y-65198D01*
X80213Y-65192D01*
X80196Y-65183D01*
X80181Y-65171D01*
X80168Y-65156D01*
X80159Y-65139D01*
X80153Y-65120D01*
X80151Y-65101D01*
X80152Y-65082D01*
X80158Y-65064D01*
X80166Y-65046D01*
X80179Y-65031D01*
X80193Y-65018D01*
X80210Y-65009D01*
X80229Y-65003D01*
X80248Y-65001D01*
X80267Y-65002D01*
X80286Y-65007D01*
X80303Y-65016D01*
X80318Y-65028D01*
X80331Y-65043D01*
X80341Y-65060D01*
X80347Y-65078D01*
X80349Y-65098D01*
X80350Y-65100D01*
X80300Y-65100D02*
X80299Y-65109D01*
X80296Y-65119D01*
X80291Y-65127D01*
X80285Y-65135D01*
X80277Y-65141D01*
X80269Y-65146D01*
X80260Y-65148D01*
X80250Y-65149D01*
X80241Y-65149D01*
X80232Y-65146D01*
X80223Y-65141D01*
X80216Y-65135D01*
X80209Y-65128D01*
X80205Y-65119D01*
X80202Y-65110D01*
X80201Y-65100D01*
X80201Y-65091D01*
X80204Y-65082D01*
X80208Y-65073D01*
X80215Y-65066D01*
X80222Y-65059D01*
X80230Y-65055D01*
X80240Y-65052D01*
X80249Y-65051D01*
X80258Y-65051D01*
X80268Y-65054D01*
X80276Y-65058D01*
X80284Y-65064D01*
X80290Y-65072D01*
X80295Y-65080D01*
X80298Y-65089D01*
X80299Y-65099D01*
X80300Y-65100D01*
X80350Y-64200D02*
X80350Y-65400D01*
X80350Y-65400D02*
X82550Y-65400D01*
X82550Y-64200D02*
X82550Y-65400D01*
X80350Y-64200D02*
X82550Y-64200D01*
X82550Y-64050D02*
X81350Y-64050D01*
X81350Y-64050D02*
X81350Y-63450D01*
X81350Y-63450D02*
X82550Y-63450D01*
X82550Y-63450D02*
X82550Y-64050D01*
X100300Y-63300D02*
X100300Y-62900D01*
X100300Y-62900D02*
X97700Y-62900D01*
X97700Y-62900D02*
X97700Y-63300D01*
X100300Y-63900D02*
X100300Y-64300D01*
X100300Y-64300D02*
X97700Y-64300D01*
X97700Y-64300D02*
X97700Y-63900D01*
X94020Y-60400D02*
X94018Y-60413D01*
X94014Y-60426D01*
X94008Y-60438D01*
X93999Y-60449D01*
X93989Y-60458D01*
X93977Y-60464D01*
X93964Y-60468D01*
X93950Y-60469D01*
X93937Y-60468D01*
X93924Y-60464D01*
X93912Y-60458D01*
X93902Y-60450D01*
X93893Y-60439D01*
X93886Y-60427D01*
X93882Y-60414D01*
X93881Y-60400D01*
X93882Y-60388D01*
X93885Y-60375D01*
X93892Y-60363D01*
X93900Y-60352D01*
X93911Y-60343D01*
X93922Y-60336D01*
X93935Y-60332D01*
X93949Y-60331D01*
X93962Y-60332D01*
X93975Y-60335D01*
X93987Y-60341D01*
X93998Y-60350D01*
X94007Y-60360D01*
X94013Y-60372D01*
X94018Y-60385D01*
X94019Y-60399D01*
X94020Y-60400D01*
X92450Y-60450D02*
X91700Y-60450D01*
X91700Y-60450D02*
X91700Y-61650D01*
X91700Y-61650D02*
X92450Y-61650D01*
X93100Y-61650D02*
X93900Y-61650D01*
X93900Y-61650D02*
X93900Y-60450D01*
X93900Y-60450D02*
X93100Y-60450D01*
X94180Y-70118D02*
X97050Y-70118D01*
X97050Y-70118D02*
X97444Y-70570D01*
X99865Y-70570D02*
X97444Y-70570D01*
X99865Y-65397D02*
X99865Y-70570D01*
X99404Y-65397D02*
X99865Y-65397D01*
X99404Y-65137D02*
X99404Y-65397D01*
X94318Y-65137D02*
X99404Y-65137D01*
X94318Y-65397D02*
X94318Y-65137D01*
X94180Y-65397D02*
X94318Y-65397D01*
X94180Y-70118D02*
X94180Y-65397D01*
X98448Y-68996D02*
X98444Y-69034D01*
X98433Y-69071D01*
X98415Y-69105D01*
X98390Y-69134D01*
X98361Y-69159D01*
X98327Y-69177D01*
X98290Y-69188D01*
X98252Y-69192D01*
X98215Y-69189D01*
X98178Y-69178D01*
X98144Y-69160D01*
X98114Y-69136D01*
X98089Y-69107D01*
X98070Y-69073D01*
X98059Y-69036D01*
X98055Y-68998D01*
X98058Y-68961D01*
X98068Y-68924D01*
X98086Y-68890D01*
X98110Y-68860D01*
X98139Y-68835D01*
X98173Y-68816D01*
X98209Y-68804D01*
X98247Y-68800D01*
X98285Y-68802D01*
X98322Y-68813D01*
X98356Y-68830D01*
X98386Y-68854D01*
X98411Y-68883D01*
X98430Y-68916D01*
X98443Y-68953D01*
X98447Y-68991D01*
X98448Y-68996D01*
X95298Y-68996D02*
X95294Y-69034D01*
X95283Y-69071D01*
X95265Y-69105D01*
X95240Y-69134D01*
X95211Y-69159D01*
X95177Y-69177D01*
X95140Y-69188D01*
X95102Y-69192D01*
X95065Y-69189D01*
X95028Y-69178D01*
X94994Y-69160D01*
X94964Y-69136D01*
X94939Y-69107D01*
X94920Y-69073D01*
X94909Y-69036D01*
X94905Y-68998D01*
X94908Y-68961D01*
X94918Y-68924D01*
X94936Y-68890D01*
X94960Y-68860D01*
X94989Y-68835D01*
X95023Y-68816D01*
X95059Y-68804D01*
X95097Y-68800D01*
X95135Y-68802D01*
X95172Y-68813D01*
X95206Y-68830D01*
X95236Y-68854D01*
X95261Y-68883D01*
X95280Y-68916D01*
X95293Y-68953D01*
X95297Y-68991D01*
X95298Y-68996D01*
G54D13*
X94700Y-69100D02*
X94700Y-70100D01*
X94700Y-70100D02*
X98700Y-70100D01*
X98700Y-70100D02*
X98700Y-69100D01*
X98700Y-69100D02*
X94700Y-69100D01*
G54D12*
X86850Y-59800D02*
X86848Y-59819D01*
X86842Y-59838D01*
X86833Y-59855D01*
X86820Y-59870D01*
X86805Y-59882D01*
X86788Y-59892D01*
X86770Y-59897D01*
X86750Y-59899D01*
X86732Y-59898D01*
X86713Y-59892D01*
X86696Y-59883D01*
X86681Y-59871D01*
X86668Y-59856D01*
X86659Y-59839D01*
X86653Y-59820D01*
X86651Y-59801D01*
X86652Y-59782D01*
X86658Y-59764D01*
X86666Y-59746D01*
X86679Y-59731D01*
X86693Y-59718D01*
X86710Y-59709D01*
X86729Y-59703D01*
X86748Y-59701D01*
X86767Y-59702D01*
X86786Y-59707D01*
X86803Y-59716D01*
X86818Y-59728D01*
X86831Y-59743D01*
X86841Y-59760D01*
X86847Y-59778D01*
X86849Y-59798D01*
X86850Y-59800D01*
X87950Y-57600D02*
X87950Y-59800D01*
X87950Y-59800D02*
X86750Y-59800D01*
X86750Y-59800D02*
X86750Y-57600D01*
X86750Y-57600D02*
X87950Y-57600D01*
X89300Y-61250D02*
X90500Y-61250D01*
X90500Y-61250D02*
X90500Y-61850D01*
X90500Y-61850D02*
X89300Y-61850D01*
X89300Y-61850D02*
X89300Y-61250D01*
X91600Y-69850D02*
X91700Y-69950D01*
X91700Y-69950D02*
X92200Y-69950D01*
X92200Y-69950D02*
X92300Y-69850D01*
X91600Y-69450D02*
X91600Y-69850D01*
X91600Y-69850D02*
X92300Y-69850D01*
X92300Y-69850D02*
X92300Y-69450D01*
X91600Y-69050D02*
X91600Y-68650D01*
X91600Y-68650D02*
X92300Y-68650D01*
X92300Y-68650D02*
X92300Y-69050D01*
G54D14*
X90248Y-63625D02*
X90231Y-63613D01*
X90214Y-63589D01*
X90188Y-63554D01*
X90171Y-63542D01*
X90154Y-63542D01*
X90162Y-63601D02*
X90145Y-63589D01*
X90128Y-63565D01*
X90119Y-63518D01*
X90119Y-63435D01*
X90128Y-63387D01*
X90145Y-63363D01*
X90162Y-63351D01*
X90196Y-63351D01*
X90214Y-63363D01*
X90231Y-63387D01*
X90239Y-63435D01*
X90239Y-63518D01*
X90231Y-63565D01*
X90214Y-63589D01*
X90196Y-63601D01*
X90162Y-63601D01*
X90325Y-63601D02*
X90360Y-63601D01*
X90377Y-63589D01*
X90385Y-63577D01*
X90403Y-63542D01*
X90411Y-63494D01*
X90411Y-63399D01*
X90403Y-63375D01*
X90394Y-63363D01*
X90377Y-63351D01*
X90343Y-63351D01*
X90325Y-63363D01*
X90317Y-63375D01*
X90308Y-63399D01*
X90308Y-63458D01*
X90317Y-63482D01*
X90325Y-63494D01*
X90343Y-63506D01*
X90377Y-63506D01*
X90394Y-63494D01*
X90403Y-63482D01*
X90411Y-63458D01*
X90522Y-63351D02*
X90539Y-63351D01*
X90556Y-63363D01*
X90565Y-63375D01*
X90574Y-63399D01*
X90582Y-63446D01*
X90582Y-63506D01*
X90574Y-63554D01*
X90565Y-63577D01*
X90556Y-63589D01*
X90539Y-63601D01*
X90522Y-63601D01*
X90505Y-63589D01*
X90496Y-63577D01*
X90488Y-63554D01*
X90479Y-63506D01*
X90479Y-63446D01*
X90488Y-63399D01*
X90496Y-63375D01*
X90505Y-63363D01*
X90522Y-63351D01*
X90248Y-62325D02*
X90231Y-62313D01*
X90214Y-62289D01*
X90188Y-62254D01*
X90171Y-62242D01*
X90154Y-62242D01*
X90162Y-62301D02*
X90145Y-62289D01*
X90128Y-62265D01*
X90119Y-62218D01*
X90119Y-62135D01*
X90128Y-62087D01*
X90145Y-62063D01*
X90162Y-62051D01*
X90196Y-62051D01*
X90214Y-62063D01*
X90231Y-62087D01*
X90239Y-62135D01*
X90239Y-62218D01*
X90231Y-62265D01*
X90214Y-62289D01*
X90196Y-62301D01*
X90162Y-62301D01*
X90394Y-62135D02*
X90394Y-62301D01*
X90351Y-62039D02*
X90308Y-62218D01*
X90420Y-62218D01*
X90522Y-62051D02*
X90539Y-62051D01*
X90556Y-62063D01*
X90565Y-62075D01*
X90574Y-62099D01*
X90582Y-62146D01*
X90582Y-62206D01*
X90574Y-62254D01*
X90565Y-62277D01*
X90556Y-62289D01*
X90539Y-62301D01*
X90522Y-62301D01*
X90505Y-62289D01*
X90496Y-62277D01*
X90488Y-62254D01*
X90479Y-62206D01*
X90479Y-62146D01*
X90488Y-62099D01*
X90496Y-62075D01*
X90505Y-62063D01*
X90522Y-62051D01*
X94678Y-60101D02*
X94678Y-60304D01*
X94686Y-60327D01*
X94695Y-60339D01*
X94712Y-60351D01*
X94746Y-60351D01*
X94764Y-60339D01*
X94772Y-60327D01*
X94781Y-60304D01*
X94781Y-60101D01*
X94858Y-60125D02*
X94867Y-60113D01*
X94884Y-60101D01*
X94927Y-60101D01*
X94944Y-60113D01*
X94953Y-60125D01*
X94961Y-60149D01*
X94961Y-60173D01*
X94953Y-60208D01*
X94850Y-60351D01*
X94961Y-60351D01*
X95072Y-60101D02*
X95089Y-60101D01*
X95106Y-60113D01*
X95115Y-60125D01*
X95124Y-60149D01*
X95132Y-60196D01*
X95132Y-60256D01*
X95124Y-60304D01*
X95115Y-60327D01*
X95106Y-60339D01*
X95089Y-60351D01*
X95072Y-60351D01*
X95055Y-60339D01*
X95046Y-60327D01*
X95038Y-60304D01*
X95029Y-60256D01*
X95029Y-60196D01*
X95038Y-60149D01*
X95046Y-60125D01*
X95055Y-60113D01*
X95072Y-60101D01*
X85763Y-60083D02*
X85763Y-60310D01*
X85771Y-60337D01*
X85780Y-60350D01*
X85797Y-60363D01*
X85831Y-60363D01*
X85849Y-60350D01*
X85857Y-60337D01*
X85866Y-60310D01*
X85866Y-60083D01*
X85986Y-60083D02*
X86003Y-60083D01*
X86020Y-60097D01*
X86029Y-60110D01*
X86038Y-60137D01*
X86046Y-60190D01*
X86046Y-60257D01*
X86038Y-60310D01*
X86029Y-60337D01*
X86020Y-60350D01*
X86003Y-60363D01*
X85986Y-60363D01*
X85969Y-60350D01*
X85960Y-60337D01*
X85952Y-60310D01*
X85943Y-60257D01*
X85943Y-60190D01*
X85952Y-60137D01*
X85960Y-60110D01*
X85969Y-60097D01*
X85986Y-60083D01*
X98427Y-60715D02*
X98439Y-60724D01*
X98451Y-60750D01*
X98451Y-60767D01*
X98439Y-60792D01*
X98415Y-60810D01*
X98392Y-60818D01*
X98344Y-60827D01*
X98308Y-60827D01*
X98261Y-60818D01*
X98237Y-60810D01*
X98213Y-60792D01*
X98201Y-60767D01*
X98201Y-60750D01*
X98213Y-60724D01*
X98225Y-60715D01*
X98225Y-60647D02*
X98213Y-60638D01*
X98201Y-60621D01*
X98201Y-60578D01*
X98213Y-60561D01*
X98225Y-60552D01*
X98249Y-60544D01*
X98273Y-60544D01*
X98308Y-60552D01*
X98451Y-60655D01*
X98451Y-60544D01*
X98201Y-60433D02*
X98201Y-60416D01*
X98213Y-60399D01*
X98225Y-60390D01*
X98249Y-60381D01*
X98296Y-60373D01*
X98356Y-60373D01*
X98404Y-60381D01*
X98427Y-60390D01*
X98439Y-60399D01*
X98451Y-60416D01*
X98451Y-60433D01*
X98439Y-60450D01*
X98427Y-60459D01*
X98404Y-60467D01*
X98356Y-60476D01*
X98296Y-60476D01*
X98249Y-60467D01*
X98225Y-60459D01*
X98213Y-60450D01*
X98201Y-60433D01*
X84721Y-61987D02*
X84712Y-62000D01*
X84686Y-62013D01*
X84669Y-62013D01*
X84644Y-62000D01*
X84626Y-61973D01*
X84618Y-61947D01*
X84609Y-61893D01*
X84609Y-61853D01*
X84618Y-61800D01*
X84626Y-61773D01*
X84644Y-61747D01*
X84669Y-61733D01*
X84686Y-61733D01*
X84712Y-61747D01*
X84721Y-61760D01*
X84832Y-61733D02*
X84849Y-61733D01*
X84866Y-61747D01*
X84875Y-61760D01*
X84884Y-61787D01*
X84892Y-61840D01*
X84892Y-61907D01*
X84884Y-61960D01*
X84875Y-61987D01*
X84866Y-62000D01*
X84849Y-62013D01*
X84832Y-62013D01*
X84815Y-62000D01*
X84806Y-61987D01*
X84798Y-61960D01*
X84789Y-61907D01*
X84789Y-61840D01*
X84798Y-61787D01*
X84806Y-61760D01*
X84815Y-61747D01*
X84832Y-61733D01*
X93605Y-59267D02*
X93545Y-59267D01*
X93545Y-59413D02*
X93545Y-59133D01*
X93631Y-59133D01*
X93793Y-59413D02*
X93690Y-59413D01*
X93742Y-59413D02*
X93742Y-59133D01*
X93725Y-59173D01*
X93707Y-59200D01*
X93690Y-59213D01*
X93904Y-59133D02*
X93921Y-59133D01*
X93938Y-59147D01*
X93947Y-59160D01*
X93956Y-59187D01*
X93964Y-59240D01*
X93964Y-59307D01*
X93956Y-59360D01*
X93947Y-59387D01*
X93938Y-59400D01*
X93921Y-59413D01*
X93904Y-59413D01*
X93887Y-59400D01*
X93878Y-59387D01*
X93870Y-59360D01*
X93861Y-59307D01*
X93861Y-59240D01*
X93870Y-59187D01*
X93878Y-59160D01*
X93887Y-59147D01*
X93904Y-59133D01*
X80455Y-68317D02*
X80395Y-68317D01*
X80395Y-68463D02*
X80395Y-68183D01*
X80481Y-68183D01*
X80557Y-68463D02*
X80592Y-68463D01*
X80609Y-68450D01*
X80617Y-68437D01*
X80635Y-68397D01*
X80643Y-68343D01*
X80643Y-68237D01*
X80635Y-68210D01*
X80626Y-68197D01*
X80609Y-68183D01*
X80575Y-68183D01*
X80557Y-68197D01*
X80549Y-68210D01*
X80540Y-68237D01*
X80540Y-68303D01*
X80549Y-68330D01*
X80557Y-68343D01*
X80575Y-68357D01*
X80609Y-68357D01*
X80626Y-68343D01*
X80635Y-68330D01*
X80643Y-68303D01*
X80754Y-68183D02*
X80771Y-68183D01*
X80788Y-68197D01*
X80797Y-68210D01*
X80806Y-68237D01*
X80814Y-68290D01*
X80814Y-68357D01*
X80806Y-68410D01*
X80797Y-68437D01*
X80788Y-68450D01*
X80771Y-68463D01*
X80754Y-68463D01*
X80737Y-68450D01*
X80728Y-68437D01*
X80720Y-68410D01*
X80711Y-68357D01*
X80711Y-68290D01*
X80720Y-68237D01*
X80728Y-68210D01*
X80737Y-68197D01*
X80754Y-68183D01*
X93963Y-68165D02*
X93830Y-68225D01*
X93963Y-68268D02*
X93683Y-68268D01*
X93683Y-68200D01*
X93697Y-68182D01*
X93710Y-68174D01*
X93737Y-68165D01*
X93777Y-68165D01*
X93803Y-68174D01*
X93817Y-68182D01*
X93830Y-68200D01*
X93830Y-68268D01*
X93710Y-68097D02*
X93697Y-68088D01*
X93683Y-68071D01*
X93683Y-68028D01*
X93697Y-68011D01*
X93710Y-68002D01*
X93737Y-67994D01*
X93763Y-67994D01*
X93803Y-68002D01*
X93963Y-68105D01*
X93963Y-67994D01*
X93683Y-67831D02*
X93683Y-67917D01*
X93817Y-67926D01*
X93803Y-67917D01*
X93790Y-67900D01*
X93790Y-67857D01*
X93803Y-67840D01*
X93817Y-67831D01*
X93843Y-67823D01*
X93910Y-67823D01*
X93937Y-67831D01*
X93950Y-67840D01*
X93963Y-67857D01*
X93963Y-67900D01*
X93950Y-67917D01*
X93937Y-67926D01*
X93963Y-67565D02*
X93830Y-67625D01*
X93963Y-67668D02*
X93683Y-67668D01*
X93683Y-67600D01*
X93697Y-67582D01*
X93710Y-67574D01*
X93737Y-67565D01*
X93777Y-67565D01*
X93803Y-67574D01*
X93817Y-67582D01*
X93830Y-67600D01*
X93830Y-67668D01*
X93710Y-67497D02*
X93697Y-67488D01*
X93683Y-67471D01*
X93683Y-67428D01*
X93697Y-67411D01*
X93710Y-67402D01*
X93737Y-67394D01*
X93763Y-67394D01*
X93803Y-67402D01*
X93963Y-67505D01*
X93963Y-67394D01*
X93777Y-67240D02*
X93963Y-67240D01*
X93670Y-67283D02*
X93870Y-67326D01*
X93870Y-67214D01*
X92313Y-65665D02*
X92180Y-65725D01*
X92313Y-65768D02*
X92033Y-65768D01*
X92033Y-65700D01*
X92047Y-65682D01*
X92060Y-65674D01*
X92087Y-65665D01*
X92127Y-65665D01*
X92153Y-65674D01*
X92167Y-65682D01*
X92180Y-65700D01*
X92180Y-65768D01*
X92060Y-65597D02*
X92047Y-65588D01*
X92033Y-65571D01*
X92033Y-65528D01*
X92047Y-65511D01*
X92060Y-65502D01*
X92087Y-65494D01*
X92113Y-65494D01*
X92153Y-65502D01*
X92313Y-65605D01*
X92313Y-65494D01*
X92033Y-65434D02*
X92033Y-65323D01*
X92140Y-65383D01*
X92140Y-65357D01*
X92153Y-65340D01*
X92167Y-65331D01*
X92193Y-65323D01*
X92260Y-65323D01*
X92287Y-65331D01*
X92300Y-65340D01*
X92313Y-65357D01*
X92313Y-65409D01*
X92300Y-65426D01*
X92287Y-65434D01*
X92313Y-64965D02*
X92180Y-65025D01*
X92313Y-65068D02*
X92033Y-65068D01*
X92033Y-65000D01*
X92047Y-64982D01*
X92060Y-64974D01*
X92087Y-64965D01*
X92127Y-64965D01*
X92153Y-64974D01*
X92167Y-64982D01*
X92180Y-65000D01*
X92180Y-65068D01*
X92060Y-64897D02*
X92047Y-64888D01*
X92033Y-64871D01*
X92033Y-64828D01*
X92047Y-64811D01*
X92060Y-64802D01*
X92087Y-64794D01*
X92113Y-64794D01*
X92153Y-64802D01*
X92313Y-64905D01*
X92313Y-64794D01*
X92060Y-64726D02*
X92047Y-64717D01*
X92033Y-64700D01*
X92033Y-64657D01*
X92047Y-64640D01*
X92060Y-64631D01*
X92087Y-64623D01*
X92113Y-64623D01*
X92153Y-64631D01*
X92313Y-64734D01*
X92313Y-64623D01*
X92313Y-66365D02*
X92180Y-66425D01*
X92313Y-66468D02*
X92033Y-66468D01*
X92033Y-66400D01*
X92047Y-66382D01*
X92060Y-66374D01*
X92087Y-66365D01*
X92127Y-66365D01*
X92153Y-66374D01*
X92167Y-66382D01*
X92180Y-66400D01*
X92180Y-66468D01*
X92060Y-66297D02*
X92047Y-66288D01*
X92033Y-66271D01*
X92033Y-66228D01*
X92047Y-66211D01*
X92060Y-66202D01*
X92087Y-66194D01*
X92113Y-66194D01*
X92153Y-66202D01*
X92313Y-66305D01*
X92313Y-66194D01*
X92313Y-66023D02*
X92313Y-66126D01*
X92313Y-66074D02*
X92033Y-66074D01*
X92073Y-66091D01*
X92100Y-66109D01*
X92113Y-66126D01*
X92313Y-66915D02*
X92180Y-66975D01*
X92313Y-67018D02*
X92033Y-67018D01*
X92033Y-66950D01*
X92047Y-66932D01*
X92060Y-66924D01*
X92087Y-66915D01*
X92127Y-66915D01*
X92153Y-66924D01*
X92167Y-66932D01*
X92180Y-66950D01*
X92180Y-67018D01*
X92060Y-66847D02*
X92047Y-66838D01*
X92033Y-66821D01*
X92033Y-66778D01*
X92047Y-66761D01*
X92060Y-66752D01*
X92087Y-66744D01*
X92113Y-66744D01*
X92153Y-66752D01*
X92313Y-66855D01*
X92313Y-66744D01*
X92033Y-66633D02*
X92033Y-66616D01*
X92047Y-66599D01*
X92060Y-66590D01*
X92087Y-66581D01*
X92140Y-66573D01*
X92207Y-66573D01*
X92260Y-66581D01*
X92287Y-66590D01*
X92300Y-66599D01*
X92313Y-66616D01*
X92313Y-66633D01*
X92300Y-66650D01*
X92287Y-66659D01*
X92260Y-66667D01*
X92207Y-66676D01*
X92140Y-66676D01*
X92087Y-66667D01*
X92060Y-66659D01*
X92047Y-66650D01*
X92033Y-66633D01*
X91385Y-66813D02*
X91325Y-66680D01*
X91282Y-66813D02*
X91282Y-66533D01*
X91350Y-66533D01*
X91368Y-66547D01*
X91376Y-66560D01*
X91385Y-66587D01*
X91385Y-66627D01*
X91376Y-66653D01*
X91368Y-66667D01*
X91350Y-66680D01*
X91282Y-66680D01*
X91556Y-66813D02*
X91453Y-66813D01*
X91505Y-66813D02*
X91505Y-66533D01*
X91488Y-66573D01*
X91470Y-66600D01*
X91453Y-66613D01*
X91659Y-66653D02*
X91641Y-66640D01*
X91633Y-66627D01*
X91624Y-66600D01*
X91624Y-66587D01*
X91633Y-66560D01*
X91641Y-66547D01*
X91659Y-66533D01*
X91693Y-66533D01*
X91710Y-66547D01*
X91719Y-66560D01*
X91727Y-66587D01*
X91727Y-66600D01*
X91719Y-66627D01*
X91710Y-66640D01*
X91693Y-66653D01*
X91659Y-66653D01*
X91641Y-66667D01*
X91633Y-66680D01*
X91624Y-66707D01*
X91624Y-66760D01*
X91633Y-66787D01*
X91641Y-66800D01*
X91659Y-66813D01*
X91693Y-66813D01*
X91710Y-66800D01*
X91719Y-66787D01*
X91727Y-66760D01*
X91727Y-66707D01*
X91719Y-66680D01*
X91710Y-66667D01*
X91693Y-66653D01*
X82913Y-63115D02*
X82780Y-63175D01*
X82913Y-63218D02*
X82633Y-63218D01*
X82633Y-63150D01*
X82647Y-63132D01*
X82660Y-63124D01*
X82687Y-63115D01*
X82727Y-63115D01*
X82753Y-63124D01*
X82767Y-63132D01*
X82780Y-63150D01*
X82780Y-63218D01*
X82913Y-62944D02*
X82913Y-63047D01*
X82913Y-62995D02*
X82633Y-62995D01*
X82673Y-63012D01*
X82700Y-63030D01*
X82713Y-63047D01*
X82660Y-62876D02*
X82647Y-62867D01*
X82633Y-62850D01*
X82633Y-62807D01*
X82647Y-62790D01*
X82660Y-62781D01*
X82687Y-62773D01*
X82713Y-62773D01*
X82753Y-62781D01*
X82913Y-62884D01*
X82913Y-62773D01*
X87863Y-64515D02*
X87730Y-64575D01*
X87863Y-64618D02*
X87583Y-64618D01*
X87583Y-64550D01*
X87597Y-64532D01*
X87610Y-64524D01*
X87637Y-64515D01*
X87677Y-64515D01*
X87703Y-64524D01*
X87717Y-64532D01*
X87730Y-64550D01*
X87730Y-64618D01*
X87863Y-64430D02*
X87863Y-64395D01*
X87850Y-64378D01*
X87837Y-64370D01*
X87797Y-64352D01*
X87743Y-64344D01*
X87637Y-64344D01*
X87610Y-64352D01*
X87597Y-64361D01*
X87583Y-64378D01*
X87583Y-64412D01*
X87597Y-64430D01*
X87610Y-64438D01*
X87637Y-64447D01*
X87703Y-64447D01*
X87730Y-64438D01*
X87743Y-64430D01*
X87757Y-64412D01*
X87757Y-64378D01*
X87743Y-64361D01*
X87730Y-64352D01*
X87703Y-64344D01*
X87583Y-64181D02*
X87583Y-64267D01*
X87717Y-64276D01*
X87703Y-64267D01*
X87690Y-64250D01*
X87690Y-64207D01*
X87703Y-64190D01*
X87717Y-64181D01*
X87743Y-64173D01*
X87810Y-64173D01*
X87837Y-64181D01*
X87850Y-64190D01*
X87863Y-64207D01*
X87863Y-64250D01*
X87850Y-64267D01*
X87837Y-64276D01*
X87863Y-63765D02*
X87730Y-63825D01*
X87863Y-63868D02*
X87583Y-63868D01*
X87583Y-63800D01*
X87597Y-63782D01*
X87610Y-63774D01*
X87637Y-63765D01*
X87677Y-63765D01*
X87703Y-63774D01*
X87717Y-63782D01*
X87730Y-63800D01*
X87730Y-63868D01*
X87863Y-63680D02*
X87863Y-63645D01*
X87850Y-63628D01*
X87837Y-63620D01*
X87797Y-63602D01*
X87743Y-63594D01*
X87637Y-63594D01*
X87610Y-63602D01*
X87597Y-63611D01*
X87583Y-63628D01*
X87583Y-63662D01*
X87597Y-63680D01*
X87610Y-63688D01*
X87637Y-63697D01*
X87703Y-63697D01*
X87730Y-63688D01*
X87743Y-63680D01*
X87757Y-63662D01*
X87757Y-63628D01*
X87743Y-63611D01*
X87730Y-63602D01*
X87703Y-63594D01*
X87677Y-63440D02*
X87863Y-63440D01*
X87570Y-63483D02*
X87770Y-63526D01*
X87770Y-63414D01*
X90635Y-66813D02*
X90575Y-66680D01*
X90532Y-66813D02*
X90532Y-66533D01*
X90600Y-66533D01*
X90618Y-66547D01*
X90626Y-66560D01*
X90635Y-66587D01*
X90635Y-66627D01*
X90626Y-66653D01*
X90618Y-66667D01*
X90600Y-66680D01*
X90532Y-66680D01*
X90720Y-66813D02*
X90755Y-66813D01*
X90772Y-66800D01*
X90780Y-66787D01*
X90798Y-66747D01*
X90806Y-66693D01*
X90806Y-66587D01*
X90798Y-66560D01*
X90789Y-66547D01*
X90772Y-66533D01*
X90738Y-66533D01*
X90720Y-66547D01*
X90712Y-66560D01*
X90703Y-66587D01*
X90703Y-66653D01*
X90712Y-66680D01*
X90720Y-66693D01*
X90738Y-66707D01*
X90772Y-66707D01*
X90789Y-66693D01*
X90798Y-66680D01*
X90806Y-66653D01*
X90977Y-66813D02*
X90874Y-66813D01*
X90926Y-66813D02*
X90926Y-66533D01*
X90909Y-66573D01*
X90891Y-66600D01*
X90874Y-66613D01*
X87863Y-63015D02*
X87730Y-63075D01*
X87863Y-63118D02*
X87583Y-63118D01*
X87583Y-63050D01*
X87597Y-63032D01*
X87610Y-63024D01*
X87637Y-63015D01*
X87677Y-63015D01*
X87703Y-63024D01*
X87717Y-63032D01*
X87730Y-63050D01*
X87730Y-63118D01*
X87677Y-62861D02*
X87863Y-62861D01*
X87570Y-62904D02*
X87770Y-62947D01*
X87770Y-62835D01*
X87583Y-62733D02*
X87583Y-62716D01*
X87597Y-62699D01*
X87610Y-62690D01*
X87637Y-62681D01*
X87690Y-62673D01*
X87757Y-62673D01*
X87810Y-62681D01*
X87837Y-62690D01*
X87850Y-62699D01*
X87863Y-62716D01*
X87863Y-62733D01*
X87850Y-62750D01*
X87837Y-62759D01*
X87810Y-62767D01*
X87757Y-62776D01*
X87690Y-62776D01*
X87637Y-62767D01*
X87610Y-62759D01*
X87597Y-62750D01*
X87583Y-62733D01*
X87837Y-62179D02*
X87850Y-62188D01*
X87863Y-62214D01*
X87863Y-62231D01*
X87850Y-62256D01*
X87823Y-62274D01*
X87797Y-62282D01*
X87743Y-62291D01*
X87703Y-62291D01*
X87650Y-62282D01*
X87623Y-62274D01*
X87597Y-62256D01*
X87583Y-62231D01*
X87583Y-62214D01*
X87597Y-62188D01*
X87610Y-62179D01*
X87583Y-62025D02*
X87583Y-62059D01*
X87597Y-62076D01*
X87610Y-62085D01*
X87650Y-62102D01*
X87703Y-62111D01*
X87810Y-62111D01*
X87837Y-62102D01*
X87850Y-62094D01*
X87863Y-62076D01*
X87863Y-62042D01*
X87850Y-62025D01*
X87837Y-62016D01*
X87810Y-62008D01*
X87743Y-62008D01*
X87717Y-62016D01*
X87703Y-62025D01*
X87690Y-62042D01*
X87690Y-62076D01*
X87703Y-62094D01*
X87717Y-62102D01*
X87743Y-62111D01*
X92885Y-69937D02*
X92876Y-69950D01*
X92850Y-69963D01*
X92833Y-69963D01*
X92808Y-69950D01*
X92790Y-69923D01*
X92782Y-69897D01*
X92773Y-69843D01*
X92773Y-69803D01*
X92782Y-69750D01*
X92790Y-69723D01*
X92808Y-69697D01*
X92833Y-69683D01*
X92850Y-69683D01*
X92876Y-69697D01*
X92885Y-69710D01*
X92953Y-69710D02*
X92962Y-69697D01*
X92979Y-69683D01*
X93022Y-69683D01*
X93039Y-69697D01*
X93048Y-69710D01*
X93056Y-69737D01*
X93056Y-69763D01*
X93048Y-69803D01*
X92945Y-69963D01*
X93056Y-69963D01*
X93124Y-69710D02*
X93133Y-69697D01*
X93150Y-69683D01*
X93193Y-69683D01*
X93210Y-69697D01*
X93219Y-69710D01*
X93227Y-69737D01*
X93227Y-69763D01*
X93219Y-69803D01*
X93116Y-69963D01*
X93227Y-69963D01*
X82421Y-61387D02*
X82412Y-61400D01*
X82386Y-61413D01*
X82369Y-61413D01*
X82344Y-61400D01*
X82326Y-61373D01*
X82318Y-61347D01*
X82309Y-61293D01*
X82309Y-61253D01*
X82318Y-61200D01*
X82326Y-61173D01*
X82344Y-61147D01*
X82369Y-61133D01*
X82386Y-61133D01*
X82412Y-61147D01*
X82421Y-61160D01*
X82575Y-61227D02*
X82575Y-61413D01*
X82532Y-61120D02*
X82489Y-61320D01*
X82601Y-61320D01*
X81235Y-61413D02*
X81175Y-61280D01*
X81132Y-61413D02*
X81132Y-61133D01*
X81200Y-61133D01*
X81218Y-61147D01*
X81226Y-61160D01*
X81235Y-61187D01*
X81235Y-61227D01*
X81226Y-61253D01*
X81218Y-61267D01*
X81200Y-61280D01*
X81132Y-61280D01*
X81406Y-61413D02*
X81303Y-61413D01*
X81355Y-61413D02*
X81355Y-61133D01*
X81338Y-61173D01*
X81320Y-61200D01*
X81303Y-61213D01*
X81577Y-61413D02*
X81474Y-61413D01*
X81526Y-61413D02*
X81526Y-61133D01*
X81509Y-61173D01*
X81491Y-61200D01*
X81474Y-61213D01*
X100563Y-62115D02*
X100430Y-62175D01*
X100563Y-62218D02*
X100283Y-62218D01*
X100283Y-62150D01*
X100297Y-62132D01*
X100310Y-62124D01*
X100337Y-62115D01*
X100377Y-62115D01*
X100403Y-62124D01*
X100417Y-62132D01*
X100430Y-62150D01*
X100430Y-62218D01*
X100563Y-61944D02*
X100563Y-62047D01*
X100563Y-61995D02*
X100283Y-61995D01*
X100323Y-62012D01*
X100350Y-62030D01*
X100363Y-62047D01*
X100283Y-61833D02*
X100283Y-61816D01*
X100297Y-61799D01*
X100310Y-61790D01*
X100337Y-61781D01*
X100390Y-61773D01*
X100457Y-61773D01*
X100510Y-61781D01*
X100537Y-61790D01*
X100550Y-61799D01*
X100563Y-61816D01*
X100563Y-61833D01*
X100550Y-61850D01*
X100537Y-61859D01*
X100510Y-61867D01*
X100457Y-61876D01*
X100390Y-61876D01*
X100337Y-61867D01*
X100310Y-61859D01*
X100297Y-61850D01*
X100283Y-61833D01*
X86983Y-61122D02*
X87210Y-61122D01*
X87237Y-61114D01*
X87250Y-61105D01*
X87263Y-61088D01*
X87263Y-61054D01*
X87250Y-61036D01*
X87237Y-61028D01*
X87210Y-61019D01*
X86983Y-61019D01*
X87263Y-60839D02*
X87263Y-60942D01*
X87263Y-60890D02*
X86983Y-60890D01*
X87023Y-60907D01*
X87050Y-60925D01*
X87063Y-60942D01*
X86983Y-60728D02*
X86983Y-60711D01*
X86997Y-60694D01*
X87010Y-60685D01*
X87037Y-60676D01*
X87090Y-60668D01*
X87157Y-60668D01*
X87210Y-60676D01*
X87237Y-60685D01*
X87250Y-60694D01*
X87263Y-60711D01*
X87263Y-60728D01*
X87250Y-60745D01*
X87237Y-60754D01*
X87210Y-60762D01*
X87157Y-60771D01*
X87090Y-60771D01*
X87037Y-60762D01*
X87010Y-60754D01*
X86997Y-60745D01*
X86983Y-60728D01*
X81301Y-69418D02*
X81051Y-69418D01*
X81051Y-69350D01*
X81063Y-69332D01*
X81075Y-69324D01*
X81099Y-69315D01*
X81135Y-69315D01*
X81158Y-69324D01*
X81170Y-69332D01*
X81182Y-69350D01*
X81182Y-69418D01*
X81301Y-69230D02*
X81301Y-69195D01*
X81289Y-69178D01*
X81277Y-69170D01*
X81242Y-69152D01*
X81194Y-69144D01*
X81099Y-69144D01*
X81075Y-69152D01*
X81063Y-69161D01*
X81051Y-69178D01*
X81051Y-69212D01*
X81063Y-69230D01*
X81075Y-69238D01*
X81099Y-69247D01*
X81158Y-69247D01*
X81182Y-69238D01*
X81194Y-69230D01*
X81206Y-69212D01*
X81206Y-69178D01*
X81194Y-69161D01*
X81182Y-69152D01*
X81158Y-69144D01*
X81051Y-69033D02*
X81051Y-69016D01*
X81063Y-68999D01*
X81075Y-68990D01*
X81099Y-68981D01*
X81146Y-68973D01*
X81206Y-68973D01*
X81254Y-68981D01*
X81277Y-68990D01*
X81289Y-68999D01*
X81301Y-69016D01*
X81301Y-69033D01*
X81289Y-69050D01*
X81277Y-69059D01*
X81254Y-69067D01*
X81206Y-69076D01*
X81146Y-69076D01*
X81099Y-69067D01*
X81075Y-69059D01*
X81063Y-69050D01*
X81051Y-69033D01*
X92413Y-58768D02*
X92133Y-58768D01*
X92133Y-58700D01*
X92147Y-58682D01*
X92160Y-58674D01*
X92187Y-58665D01*
X92227Y-58665D01*
X92253Y-58674D01*
X92267Y-58682D01*
X92280Y-58700D01*
X92280Y-58768D01*
X92413Y-58494D02*
X92413Y-58597D01*
X92413Y-58545D02*
X92133Y-58545D01*
X92173Y-58562D01*
X92200Y-58580D01*
X92213Y-58597D01*
X92133Y-58383D02*
X92133Y-58366D01*
X92147Y-58349D01*
X92160Y-58340D01*
X92187Y-58331D01*
X92240Y-58323D01*
X92307Y-58323D01*
X92360Y-58331D01*
X92387Y-58340D01*
X92400Y-58349D01*
X92413Y-58366D01*
X92413Y-58383D01*
X92400Y-58400D01*
X92387Y-58409D01*
X92360Y-58417D01*
X92307Y-58426D01*
X92240Y-58426D01*
X92187Y-58417D01*
X92160Y-58409D01*
X92147Y-58400D01*
X92133Y-58383D01*
X91813Y-65268D02*
X91533Y-65268D01*
X91533Y-65225D01*
X91547Y-65200D01*
X91573Y-65182D01*
X91600Y-65174D01*
X91653Y-65165D01*
X91693Y-65165D01*
X91747Y-65174D01*
X91773Y-65182D01*
X91800Y-65200D01*
X91813Y-65225D01*
X91813Y-65268D01*
X91813Y-65080D02*
X91813Y-65045D01*
X91800Y-65028D01*
X91787Y-65020D01*
X91747Y-65002D01*
X91693Y-64994D01*
X91587Y-64994D01*
X91560Y-65002D01*
X91547Y-65011D01*
X91533Y-65028D01*
X91533Y-65062D01*
X91547Y-65080D01*
X91560Y-65088D01*
X91587Y-65097D01*
X91653Y-65097D01*
X91680Y-65088D01*
X91693Y-65080D01*
X91707Y-65062D01*
X91707Y-65028D01*
X91693Y-65011D01*
X91680Y-65002D01*
X91653Y-64994D01*
X91533Y-64883D02*
X91533Y-64866D01*
X91547Y-64849D01*
X91560Y-64840D01*
X91587Y-64831D01*
X91640Y-64823D01*
X91707Y-64823D01*
X91760Y-64831D01*
X91787Y-64840D01*
X91800Y-64849D01*
X91813Y-64866D01*
X91813Y-64883D01*
X91800Y-64900D01*
X91787Y-64909D01*
X91760Y-64917D01*
X91707Y-64926D01*
X91640Y-64926D01*
X91587Y-64917D01*
X91560Y-64909D01*
X91547Y-64900D01*
X91533Y-64883D01*
X80301Y-62168D02*
X80051Y-62168D01*
X80051Y-62125D01*
X80063Y-62100D01*
X80087Y-62082D01*
X80111Y-62074D01*
X80158Y-62065D01*
X80194Y-62065D01*
X80242Y-62074D01*
X80265Y-62082D01*
X80289Y-62100D01*
X80301Y-62125D01*
X80301Y-62168D01*
X80301Y-61894D02*
X80301Y-61997D01*
X80301Y-61945D02*
X80051Y-61945D01*
X80087Y-61962D01*
X80111Y-61980D01*
X80123Y-61997D01*
X80051Y-61783D02*
X80051Y-61766D01*
X80063Y-61749D01*
X80075Y-61740D01*
X80099Y-61731D01*
X80146Y-61723D01*
X80206Y-61723D01*
X80254Y-61731D01*
X80277Y-61740D01*
X80289Y-61749D01*
X80301Y-61766D01*
X80301Y-61783D01*
X80289Y-61800D01*
X80277Y-61809D01*
X80254Y-61817D01*
X80206Y-61826D01*
X80146Y-61826D01*
X80099Y-61817D01*
X80075Y-61809D01*
X80063Y-61800D01*
X80051Y-61783D01*
X80301Y-63618D02*
X80051Y-63618D01*
X80051Y-63575D01*
X80063Y-63550D01*
X80087Y-63532D01*
X80111Y-63524D01*
X80158Y-63515D01*
X80194Y-63515D01*
X80242Y-63524D01*
X80265Y-63532D01*
X80289Y-63550D01*
X80301Y-63575D01*
X80301Y-63618D01*
X80301Y-63344D02*
X80301Y-63447D01*
X80301Y-63395D02*
X80051Y-63395D01*
X80087Y-63412D01*
X80111Y-63430D01*
X80123Y-63447D01*
X80301Y-63173D02*
X80301Y-63276D01*
X80301Y-63224D02*
X80051Y-63224D01*
X80087Y-63241D01*
X80111Y-63259D01*
X80123Y-63276D01*
X82887Y-63779D02*
X82900Y-63788D01*
X82913Y-63814D01*
X82913Y-63831D01*
X82900Y-63856D01*
X82873Y-63874D01*
X82847Y-63882D01*
X82793Y-63891D01*
X82753Y-63891D01*
X82700Y-63882D01*
X82673Y-63874D01*
X82647Y-63856D01*
X82633Y-63831D01*
X82633Y-63814D01*
X82647Y-63788D01*
X82660Y-63779D01*
X82660Y-63711D02*
X82647Y-63702D01*
X82633Y-63685D01*
X82633Y-63642D01*
X82647Y-63625D01*
X82660Y-63616D01*
X82687Y-63608D01*
X82713Y-63608D01*
X82753Y-63616D01*
X82913Y-63719D01*
X82913Y-63608D01*
X98675Y-64639D02*
X98701Y-64651D01*
X98744Y-64651D01*
X98761Y-64639D01*
X98770Y-64627D01*
X98778Y-64604D01*
X98778Y-64580D01*
X98770Y-64556D01*
X98761Y-64544D01*
X98744Y-64532D01*
X98710Y-64520D01*
X98692Y-64508D01*
X98684Y-64496D01*
X98675Y-64473D01*
X98675Y-64449D01*
X98684Y-64425D01*
X98692Y-64413D01*
X98710Y-64401D01*
X98752Y-64401D01*
X98778Y-64413D01*
X98838Y-64401D02*
X98881Y-64651D01*
X98915Y-64473D01*
X98949Y-64651D01*
X98992Y-64401D01*
X99155Y-64651D02*
X99052Y-64651D01*
X99104Y-64651D02*
X99104Y-64401D01*
X99087Y-64437D01*
X99069Y-64461D01*
X99052Y-64473D01*
X99266Y-64401D02*
X99283Y-64401D01*
X99300Y-64413D01*
X99309Y-64425D01*
X99318Y-64449D01*
X99326Y-64496D01*
X99326Y-64556D01*
X99318Y-64604D01*
X99309Y-64627D01*
X99300Y-64639D01*
X99283Y-64651D01*
X99266Y-64651D01*
X99249Y-64639D01*
X99240Y-64627D01*
X99232Y-64604D01*
X99223Y-64556D01*
X99223Y-64496D01*
X99232Y-64449D01*
X99240Y-64425D01*
X99249Y-64413D01*
X99266Y-64401D01*
X91577Y-61279D02*
X91589Y-61288D01*
X91601Y-61314D01*
X91601Y-61331D01*
X91589Y-61356D01*
X91565Y-61374D01*
X91542Y-61382D01*
X91494Y-61391D01*
X91458Y-61391D01*
X91411Y-61382D01*
X91387Y-61374D01*
X91363Y-61356D01*
X91351Y-61331D01*
X91351Y-61314D01*
X91363Y-61288D01*
X91375Y-61279D01*
X91601Y-61108D02*
X91601Y-61211D01*
X91601Y-61159D02*
X91351Y-61159D01*
X91387Y-61176D01*
X91411Y-61194D01*
X91423Y-61211D01*
X94101Y-69868D02*
X93851Y-69868D01*
X93851Y-69800D01*
X93863Y-69782D01*
X93875Y-69774D01*
X93899Y-69765D01*
X93935Y-69765D01*
X93958Y-69774D01*
X93970Y-69782D01*
X93982Y-69800D01*
X93982Y-69868D01*
X93875Y-69697D02*
X93863Y-69688D01*
X93851Y-69671D01*
X93851Y-69628D01*
X93863Y-69611D01*
X93875Y-69602D01*
X93899Y-69594D01*
X93923Y-69594D01*
X93958Y-69602D01*
X94101Y-69705D01*
X94101Y-69594D01*
X93851Y-69483D02*
X93851Y-69466D01*
X93863Y-69449D01*
X93875Y-69440D01*
X93899Y-69431D01*
X93946Y-69423D01*
X94006Y-69423D01*
X94054Y-69431D01*
X94077Y-69440D01*
X94089Y-69449D01*
X94101Y-69466D01*
X94101Y-69483D01*
X94089Y-69500D01*
X94077Y-69509D01*
X94054Y-69517D01*
X94006Y-69526D01*
X93946Y-69526D01*
X93899Y-69517D01*
X93875Y-69509D01*
X93863Y-69500D01*
X93851Y-69483D01*
X99101Y-69818D02*
X98851Y-69818D01*
X98851Y-69750D01*
X98863Y-69732D01*
X98875Y-69724D01*
X98899Y-69715D01*
X98935Y-69715D01*
X98958Y-69724D01*
X98970Y-69732D01*
X98982Y-69750D01*
X98982Y-69818D01*
X98851Y-69552D02*
X98851Y-69638D01*
X98970Y-69647D01*
X98958Y-69638D01*
X98946Y-69621D01*
X98946Y-69578D01*
X98958Y-69561D01*
X98970Y-69552D01*
X98994Y-69544D01*
X99054Y-69544D01*
X99077Y-69552D01*
X99089Y-69561D01*
X99101Y-69578D01*
X99101Y-69621D01*
X99089Y-69638D01*
X99077Y-69647D01*
X98851Y-69433D02*
X98851Y-69416D01*
X98863Y-69399D01*
X98875Y-69390D01*
X98899Y-69381D01*
X98946Y-69373D01*
X99006Y-69373D01*
X99054Y-69381D01*
X99077Y-69390D01*
X99089Y-69399D01*
X99101Y-69416D01*
X99101Y-69433D01*
X99089Y-69450D01*
X99077Y-69459D01*
X99054Y-69467D01*
X99006Y-69476D01*
X98946Y-69476D01*
X98899Y-69467D01*
X98875Y-69459D01*
X98863Y-69450D01*
X98851Y-69433D01*
X86663Y-59715D02*
X86663Y-59801D01*
X86383Y-59801D01*
X86663Y-59561D02*
X86663Y-59664D01*
X86663Y-59612D02*
X86383Y-59612D01*
X86423Y-59629D01*
X86450Y-59647D01*
X86463Y-59664D01*
X86383Y-59450D02*
X86383Y-59433D01*
X86397Y-59416D01*
X86410Y-59407D01*
X86437Y-59398D01*
X86490Y-59390D01*
X86557Y-59390D01*
X86610Y-59398D01*
X86637Y-59407D01*
X86650Y-59416D01*
X86663Y-59433D01*
X86663Y-59450D01*
X86650Y-59467D01*
X86637Y-59476D01*
X86610Y-59484D01*
X86557Y-59493D01*
X86490Y-59493D01*
X86437Y-59484D01*
X86410Y-59476D01*
X86397Y-59467D01*
X86383Y-59450D01*
X89213Y-61665D02*
X89080Y-61725D01*
X89213Y-61768D02*
X88933Y-61768D01*
X88933Y-61700D01*
X88947Y-61682D01*
X88960Y-61674D01*
X88987Y-61665D01*
X89027Y-61665D01*
X89053Y-61674D01*
X89067Y-61682D01*
X89080Y-61700D01*
X89080Y-61768D01*
X89027Y-61511D02*
X89213Y-61511D01*
X88920Y-61554D02*
X89120Y-61597D01*
X89120Y-61485D01*
X89213Y-61323D02*
X89213Y-61426D01*
X89213Y-61374D02*
X88933Y-61374D01*
X88973Y-61391D01*
X89000Y-61409D01*
X89013Y-61426D01*
X91882Y-68563D02*
X91882Y-68283D01*
X91925Y-68283D01*
X91950Y-68297D01*
X91968Y-68323D01*
X91976Y-68350D01*
X91985Y-68403D01*
X91985Y-68443D01*
X91976Y-68497D01*
X91968Y-68523D01*
X91950Y-68550D01*
X91925Y-68563D01*
X91882Y-68563D01*
X92070Y-68563D02*
X92105Y-68563D01*
X92122Y-68550D01*
X92130Y-68537D01*
X92148Y-68497D01*
X92156Y-68443D01*
X92156Y-68337D01*
X92148Y-68310D01*
X92139Y-68297D01*
X92122Y-68283D01*
X92088Y-68283D01*
X92070Y-68297D01*
X92062Y-68310D01*
X92053Y-68337D01*
X92053Y-68403D01*
X92062Y-68430D01*
X92070Y-68443D01*
X92088Y-68457D01*
X92122Y-68457D01*
X92139Y-68443D01*
X92148Y-68430D01*
X92156Y-68403D01*
X92327Y-68563D02*
X92224Y-68563D01*
X92276Y-68563D02*
X92276Y-68283D01*
X92259Y-68323D01*
X92241Y-68350D01*
X92224Y-68363D01*
M02*
