M48
;DRILL file {PCBnew (2010-05-05 BZR 2356)-stable} date 13/06/2010 13:10:10
;FORMAT={-.-/ absolute / inch / decimal}
R,T
VER,1
FMAT,2
INCH,TZ
TCST,OFF
ICI,OFF
ATC,ON
T1C0.015
T2C0.030
T3C0.035
T4C0.040
%
M47
G05
M72
T1
X5.220Y-4.355
X5.225Y-4.025
X5.260Y-4.340
X5.270Y-4.450
X5.300Y-4.340
X5.360Y-4.020
X5.425Y-4.140
X5.430Y-4.080
X5.435Y-4.260
X5.435Y-4.320
X5.477Y-4.020
X5.485Y-4.375
X5.500Y-4.235
X5.510Y-4.435
X5.523Y-4.095
X5.535Y-4.290
X5.545Y-4.350
X5.545Y-4.390
X5.575Y-4.270
X5.600Y-4.205
X5.605Y-4.365
X5.610Y-4.325
X5.615Y-4.430
X5.640Y-4.205
X5.640Y-4.302
X5.640Y-4.385
X5.660Y-4.430
X5.675Y-4.092
X5.685Y-4.510
X5.715Y-4.160
X5.735Y-4.510
X5.755Y-4.165
X5.780Y-4.195
X5.810Y-4.220
X5.815Y-4.040
X5.820Y-4.440
X5.840Y-4.160
X5.840Y-4.280
X5.840Y-4.365
X5.840Y-4.405
X5.840Y-4.495
T3
X5.170Y-4.125
X5.170Y-4.225
X5.170Y-4.305
X5.170Y-4.405
T2
X5.020Y-4.175G85X5.080Y-4.175
G05
X5.020Y-4.355G85X5.080Y-4.355
G05
T4
X5.050Y-4.040G85X5.110Y-4.040
G05
X5.050Y-4.490G85X5.110Y-4.490
G05
T0
M30
