G04 (created by PCBNEW-RS274X (2012-01-19 BZR 3256)-stable) date 08/08/2012 10:54:58*
G01*
G70*
G90*
%MOIN*%
G04 Gerber Fmt 3.4, Leading zero omitted, Abs format*
%FSLAX34Y34*%
G04 APERTURE LIST*
%ADD10C,0.006000*%
%ADD11C,0.012000*%
%ADD12C,0.015000*%
G04 APERTURE END LIST*
G54D10*
G54D11*
X76072Y-31685D02*
X76187Y-31685D01*
X76244Y-31647D01*
X76272Y-31609D01*
X76330Y-31494D01*
X76358Y-31342D01*
X76358Y-31037D01*
X76330Y-30961D01*
X76301Y-30923D01*
X76244Y-30885D01*
X76130Y-30885D01*
X76072Y-30923D01*
X76044Y-30961D01*
X76015Y-31037D01*
X76015Y-31228D01*
X76044Y-31304D01*
X76072Y-31342D01*
X76130Y-31380D01*
X76244Y-31380D01*
X76301Y-31342D01*
X76330Y-31304D01*
X76358Y-31228D01*
X76929Y-31685D02*
X76586Y-31685D01*
X76758Y-31685D02*
X76758Y-30885D01*
X76701Y-30999D01*
X76643Y-31075D01*
X76586Y-31113D01*
X77186Y-31609D02*
X77214Y-31647D01*
X77186Y-31685D01*
X77157Y-31647D01*
X77186Y-31609D01*
X77186Y-31685D01*
X77729Y-31151D02*
X77729Y-31685D01*
X77586Y-30847D02*
X77443Y-31418D01*
X77815Y-31418D01*
X78300Y-31151D02*
X78300Y-31685D01*
X78157Y-30847D02*
X78014Y-31418D01*
X78386Y-31418D01*
X78728Y-30885D02*
X78785Y-30885D01*
X78842Y-30923D01*
X78871Y-30961D01*
X78900Y-31037D01*
X78928Y-31190D01*
X78928Y-31380D01*
X78900Y-31532D01*
X78871Y-31609D01*
X78842Y-31647D01*
X78785Y-31685D01*
X78728Y-31685D01*
X78671Y-31647D01*
X78642Y-31609D01*
X78614Y-31532D01*
X78585Y-31380D01*
X78585Y-31190D01*
X78614Y-31037D01*
X78642Y-30961D01*
X78671Y-30923D01*
X78728Y-30885D01*
X79642Y-31685D02*
X79642Y-31151D01*
X79642Y-31228D02*
X79670Y-31190D01*
X79728Y-31151D01*
X79813Y-31151D01*
X79870Y-31190D01*
X79899Y-31266D01*
X79899Y-31685D01*
X79899Y-31266D02*
X79928Y-31190D01*
X79985Y-31151D01*
X80070Y-31151D01*
X80128Y-31190D01*
X80156Y-31266D01*
X80156Y-31685D01*
X80442Y-31685D02*
X80442Y-31151D01*
X80442Y-31228D02*
X80470Y-31190D01*
X80528Y-31151D01*
X80613Y-31151D01*
X80670Y-31190D01*
X80699Y-31266D01*
X80699Y-31685D01*
X80699Y-31266D02*
X80728Y-31190D01*
X80785Y-31151D01*
X80870Y-31151D01*
X80928Y-31190D01*
X80956Y-31266D01*
X80956Y-31685D01*
X60500Y-32001D02*
X96500Y-32001D01*
X60500Y-32500D02*
X60500Y-30721D01*
X96500Y-32500D02*
X96500Y-30721D01*
X96500Y-32001D02*
X96057Y-32231D01*
X96500Y-32001D02*
X96057Y-31771D01*
X60500Y-32001D02*
X60943Y-32231D01*
X60500Y-32001D02*
X60943Y-31771D01*
G54D12*
X96500Y-32500D02*
X60500Y-32500D01*
X60500Y-60500D02*
X96500Y-60500D01*
G54D11*
X98115Y-43987D02*
X98115Y-44387D01*
X97315Y-44130D01*
X97315Y-44929D02*
X97315Y-44586D01*
X97315Y-44758D02*
X98115Y-44758D01*
X98001Y-44701D01*
X97925Y-44643D01*
X97887Y-44586D01*
X97391Y-45186D02*
X97353Y-45214D01*
X97315Y-45186D01*
X97353Y-45157D01*
X97391Y-45186D01*
X97315Y-45186D01*
X97315Y-45786D02*
X97315Y-45443D01*
X97315Y-45615D02*
X98115Y-45615D01*
X98001Y-45558D01*
X97925Y-45500D01*
X97887Y-45443D01*
X98039Y-46014D02*
X98077Y-46043D01*
X98115Y-46100D01*
X98115Y-46243D01*
X98077Y-46300D01*
X98039Y-46329D01*
X97963Y-46357D01*
X97887Y-46357D01*
X97772Y-46329D01*
X97315Y-45986D01*
X97315Y-46357D01*
X98115Y-46728D02*
X98115Y-46785D01*
X98077Y-46842D01*
X98039Y-46871D01*
X97963Y-46900D01*
X97810Y-46928D01*
X97620Y-46928D01*
X97468Y-46900D01*
X97391Y-46871D01*
X97353Y-46842D01*
X97315Y-46785D01*
X97315Y-46728D01*
X97353Y-46671D01*
X97391Y-46642D01*
X97468Y-46614D01*
X97620Y-46585D01*
X97810Y-46585D01*
X97963Y-46614D01*
X98039Y-46642D01*
X98077Y-46671D01*
X98115Y-46728D01*
X97315Y-47642D02*
X97849Y-47642D01*
X97772Y-47642D02*
X97810Y-47670D01*
X97849Y-47728D01*
X97849Y-47813D01*
X97810Y-47870D01*
X97734Y-47899D01*
X97315Y-47899D01*
X97734Y-47899D02*
X97810Y-47928D01*
X97849Y-47985D01*
X97849Y-48070D01*
X97810Y-48128D01*
X97734Y-48156D01*
X97315Y-48156D01*
X97315Y-48442D02*
X97849Y-48442D01*
X97772Y-48442D02*
X97810Y-48470D01*
X97849Y-48528D01*
X97849Y-48613D01*
X97810Y-48670D01*
X97734Y-48699D01*
X97315Y-48699D01*
X97734Y-48699D02*
X97810Y-48728D01*
X97849Y-48785D01*
X97849Y-48870D01*
X97810Y-48928D01*
X97734Y-48956D01*
X97315Y-48956D01*
X96999Y-32500D02*
X96999Y-60500D01*
X96500Y-32500D02*
X98279Y-32500D01*
X96500Y-60500D02*
X98279Y-60500D01*
X96999Y-60500D02*
X96769Y-60057D01*
X96999Y-60500D02*
X97229Y-60057D01*
X96999Y-32500D02*
X96769Y-32943D01*
X96999Y-32500D02*
X97229Y-32943D01*
G54D12*
X60500Y-32500D02*
X60500Y-60500D01*
X96500Y-60500D02*
X96500Y-32500D01*
M02*
