G04 (created by PCBNEW-RS274X (2012-01-19 BZR 3256)-stable) date 12/09/2012 14:41:23*
G01*
G70*
G90*
%MOIN*%
G04 Gerber Fmt 3.4, Leading zero omitted, Abs format*
%FSLAX34Y34*%
G04 APERTURE LIST*
%ADD10C,0.006000*%
%ADD11C,0.010000*%
%ADD12C,0.015000*%
%ADD13C,0.005000*%
%ADD14C,0.012000*%
%ADD15C,0.008000*%
%ADD16C,0.000100*%
G04 APERTURE END LIST*
G54D10*
G54D11*
X43533Y-30345D02*
X42833Y-30345D01*
X42833Y-30226D01*
X42867Y-30154D01*
X42933Y-30107D01*
X43000Y-30083D01*
X43133Y-30059D01*
X43233Y-30059D01*
X43367Y-30083D01*
X43433Y-30107D01*
X43500Y-30154D01*
X43533Y-30226D01*
X43533Y-30345D01*
X43167Y-29678D02*
X43167Y-29845D01*
X43533Y-29845D02*
X42833Y-29845D01*
X42833Y-29607D01*
G54D12*
X43900Y-29000D02*
X43900Y-37500D01*
X43900Y-07000D02*
X43900Y-22000D01*
G54D11*
X42883Y-16257D02*
X42883Y-15972D01*
X43583Y-16115D02*
X42883Y-16115D01*
X43217Y-15638D02*
X43217Y-15805D01*
X43583Y-15805D02*
X42883Y-15805D01*
X42883Y-15567D01*
X28298Y-24583D02*
X28464Y-25283D01*
X28631Y-24583D01*
X28774Y-25250D02*
X28846Y-25283D01*
X28965Y-25283D01*
X29012Y-25250D01*
X29036Y-25217D01*
X29060Y-25150D01*
X29060Y-25083D01*
X29036Y-25017D01*
X29012Y-24983D01*
X28965Y-24950D01*
X28869Y-24917D01*
X28822Y-24883D01*
X28798Y-24850D01*
X28774Y-24783D01*
X28774Y-24717D01*
X28798Y-24650D01*
X28822Y-24617D01*
X28869Y-24583D01*
X28989Y-24583D01*
X29060Y-24617D01*
X29441Y-24917D02*
X29274Y-24917D01*
X29274Y-25283D02*
X29274Y-24583D01*
X29512Y-24583D01*
X30084Y-24917D02*
X30251Y-24917D01*
X30322Y-25283D02*
X30084Y-25283D01*
X30084Y-24583D01*
X30322Y-24583D01*
X30536Y-25283D02*
X30536Y-24817D01*
X30536Y-24883D02*
X30560Y-24850D01*
X30607Y-24817D01*
X30679Y-24817D01*
X30727Y-24850D01*
X30750Y-24917D01*
X30750Y-25283D01*
X30750Y-24917D02*
X30774Y-24850D01*
X30822Y-24817D01*
X30893Y-24817D01*
X30941Y-24850D01*
X30965Y-24917D01*
X30965Y-25283D01*
X31203Y-25283D02*
X31203Y-24583D01*
X31203Y-24850D02*
X31251Y-24817D01*
X31346Y-24817D01*
X31394Y-24850D01*
X31417Y-24883D01*
X31441Y-24950D01*
X31441Y-25150D01*
X31417Y-25217D01*
X31394Y-25250D01*
X31346Y-25283D01*
X31251Y-25283D01*
X31203Y-25250D01*
X31846Y-25250D02*
X31798Y-25283D01*
X31703Y-25283D01*
X31655Y-25250D01*
X31631Y-25183D01*
X31631Y-24917D01*
X31655Y-24850D01*
X31703Y-24817D01*
X31798Y-24817D01*
X31846Y-24850D01*
X31869Y-24917D01*
X31869Y-24983D01*
X31631Y-25050D01*
X32298Y-25283D02*
X32298Y-24583D01*
X32298Y-25250D02*
X32251Y-25283D01*
X32155Y-25283D01*
X32108Y-25250D01*
X32084Y-25217D01*
X32060Y-25150D01*
X32060Y-24950D01*
X32084Y-24883D01*
X32108Y-24850D01*
X32155Y-24817D01*
X32251Y-24817D01*
X32298Y-24850D01*
X32750Y-25283D02*
X32750Y-24583D01*
X32750Y-25250D02*
X32703Y-25283D01*
X32607Y-25283D01*
X32560Y-25250D01*
X32536Y-25217D01*
X32512Y-25150D01*
X32512Y-24950D01*
X32536Y-24883D01*
X32560Y-24850D01*
X32607Y-24817D01*
X32703Y-24817D01*
X32750Y-24850D01*
X33179Y-25250D02*
X33131Y-25283D01*
X33036Y-25283D01*
X32988Y-25250D01*
X32964Y-25183D01*
X32964Y-24917D01*
X32988Y-24850D01*
X33036Y-24817D01*
X33131Y-24817D01*
X33179Y-24850D01*
X33202Y-24917D01*
X33202Y-24983D01*
X32964Y-25050D01*
X33631Y-25283D02*
X33631Y-24583D01*
X33631Y-25250D02*
X33584Y-25283D01*
X33488Y-25283D01*
X33441Y-25250D01*
X33417Y-25217D01*
X33393Y-25150D01*
X33393Y-24950D01*
X33417Y-24883D01*
X33441Y-24850D01*
X33488Y-24817D01*
X33584Y-24817D01*
X33631Y-24850D01*
X27452Y-25897D02*
X27548Y-26363D01*
X27643Y-26030D01*
X27738Y-26363D01*
X27833Y-25897D01*
X27976Y-25897D02*
X28072Y-26363D01*
X28167Y-26030D01*
X28262Y-26363D01*
X28357Y-25897D01*
X28500Y-25897D02*
X28596Y-26363D01*
X28691Y-26030D01*
X28786Y-26363D01*
X28881Y-25897D01*
X29072Y-26297D02*
X29096Y-26330D01*
X29072Y-26363D01*
X29048Y-26330D01*
X29072Y-26297D01*
X29072Y-26363D01*
X29239Y-25663D02*
X29405Y-26363D01*
X29572Y-25663D01*
X29930Y-26330D02*
X29882Y-26363D01*
X29787Y-26363D01*
X29739Y-26330D01*
X29715Y-26263D01*
X29715Y-25997D01*
X29739Y-25930D01*
X29787Y-25897D01*
X29882Y-25897D01*
X29930Y-25930D01*
X29953Y-25997D01*
X29953Y-26063D01*
X29715Y-26130D01*
X30168Y-26363D02*
X30168Y-25897D01*
X30168Y-26030D02*
X30192Y-25963D01*
X30216Y-25930D01*
X30263Y-25897D01*
X30311Y-25897D01*
X30454Y-26330D02*
X30502Y-26363D01*
X30597Y-26363D01*
X30645Y-26330D01*
X30669Y-26263D01*
X30669Y-26230D01*
X30645Y-26163D01*
X30597Y-26130D01*
X30526Y-26130D01*
X30478Y-26097D01*
X30454Y-26030D01*
X30454Y-25997D01*
X30478Y-25930D01*
X30526Y-25897D01*
X30597Y-25897D01*
X30645Y-25930D01*
X31097Y-26363D02*
X31097Y-25997D01*
X31074Y-25930D01*
X31026Y-25897D01*
X30931Y-25897D01*
X30883Y-25930D01*
X31097Y-26330D02*
X31050Y-26363D01*
X30931Y-26363D01*
X30883Y-26330D01*
X30859Y-26263D01*
X30859Y-26197D01*
X30883Y-26130D01*
X30931Y-26097D01*
X31050Y-26097D01*
X31097Y-26063D01*
X31406Y-26363D02*
X31359Y-26330D01*
X31335Y-26263D01*
X31335Y-25663D01*
X31668Y-26363D02*
X31621Y-26330D01*
X31597Y-26297D01*
X31573Y-26230D01*
X31573Y-26030D01*
X31597Y-25963D01*
X31621Y-25930D01*
X31668Y-25897D01*
X31740Y-25897D01*
X31788Y-25930D01*
X31811Y-25963D01*
X31835Y-26030D01*
X31835Y-26230D01*
X31811Y-26297D01*
X31788Y-26330D01*
X31740Y-26363D01*
X31668Y-26363D01*
X32120Y-26363D02*
X32073Y-26330D01*
X32049Y-26297D01*
X32025Y-26230D01*
X32025Y-26030D01*
X32049Y-25963D01*
X32073Y-25930D01*
X32120Y-25897D01*
X32192Y-25897D01*
X32240Y-25930D01*
X32263Y-25963D01*
X32287Y-26030D01*
X32287Y-26230D01*
X32263Y-26297D01*
X32240Y-26330D01*
X32192Y-26363D01*
X32120Y-26363D01*
X32501Y-25897D02*
X32501Y-26363D01*
X32501Y-25963D02*
X32525Y-25930D01*
X32572Y-25897D01*
X32644Y-25897D01*
X32692Y-25930D01*
X32715Y-25997D01*
X32715Y-26363D01*
X32953Y-26297D02*
X32977Y-26330D01*
X32953Y-26363D01*
X32929Y-26330D01*
X32953Y-26297D01*
X32953Y-26363D01*
X33405Y-26330D02*
X33358Y-26363D01*
X33262Y-26363D01*
X33215Y-26330D01*
X33191Y-26297D01*
X33167Y-26230D01*
X33167Y-26030D01*
X33191Y-25963D01*
X33215Y-25930D01*
X33262Y-25897D01*
X33358Y-25897D01*
X33405Y-25930D01*
X33691Y-26363D02*
X33644Y-26330D01*
X33620Y-26297D01*
X33596Y-26230D01*
X33596Y-26030D01*
X33620Y-25963D01*
X33644Y-25930D01*
X33691Y-25897D01*
X33763Y-25897D01*
X33811Y-25930D01*
X33834Y-25963D01*
X33858Y-26030D01*
X33858Y-26230D01*
X33834Y-26297D01*
X33811Y-26330D01*
X33763Y-26363D01*
X33691Y-26363D01*
X34072Y-26363D02*
X34072Y-25897D01*
X34072Y-25963D02*
X34096Y-25930D01*
X34143Y-25897D01*
X34215Y-25897D01*
X34263Y-25930D01*
X34286Y-25997D01*
X34286Y-26363D01*
X34286Y-25997D02*
X34310Y-25930D01*
X34358Y-25897D01*
X34429Y-25897D01*
X34477Y-25930D01*
X34501Y-25997D01*
X34501Y-26363D01*
X28953Y-27890D02*
X28977Y-27857D01*
X29025Y-27823D01*
X29144Y-27823D01*
X29191Y-27857D01*
X29215Y-27890D01*
X29239Y-27957D01*
X29239Y-28023D01*
X29215Y-28123D01*
X28929Y-28523D01*
X29239Y-28523D01*
X29548Y-27823D02*
X29596Y-27823D01*
X29644Y-27857D01*
X29667Y-27890D01*
X29691Y-27957D01*
X29715Y-28090D01*
X29715Y-28257D01*
X29691Y-28390D01*
X29667Y-28457D01*
X29644Y-28490D01*
X29596Y-28523D01*
X29548Y-28523D01*
X29501Y-28490D01*
X29477Y-28457D01*
X29453Y-28390D01*
X29429Y-28257D01*
X29429Y-28090D01*
X29453Y-27957D01*
X29477Y-27890D01*
X29501Y-27857D01*
X29548Y-27823D01*
X30191Y-28523D02*
X29905Y-28523D01*
X30048Y-28523D02*
X30048Y-27823D01*
X30000Y-27923D01*
X29953Y-27990D01*
X29905Y-28023D01*
X30381Y-27890D02*
X30405Y-27857D01*
X30453Y-27823D01*
X30572Y-27823D01*
X30619Y-27857D01*
X30643Y-27890D01*
X30667Y-27957D01*
X30667Y-28023D01*
X30643Y-28123D01*
X30357Y-28523D01*
X30667Y-28523D01*
X30881Y-28457D02*
X30905Y-28490D01*
X30881Y-28523D01*
X30857Y-28490D01*
X30881Y-28457D01*
X30881Y-28523D01*
X31214Y-27823D02*
X31262Y-27823D01*
X31310Y-27857D01*
X31333Y-27890D01*
X31357Y-27957D01*
X31381Y-28090D01*
X31381Y-28257D01*
X31357Y-28390D01*
X31333Y-28457D01*
X31310Y-28490D01*
X31262Y-28523D01*
X31214Y-28523D01*
X31167Y-28490D01*
X31143Y-28457D01*
X31119Y-28390D01*
X31095Y-28257D01*
X31095Y-28090D01*
X31119Y-27957D01*
X31143Y-27890D01*
X31167Y-27857D01*
X31214Y-27823D01*
X31666Y-28123D02*
X31619Y-28090D01*
X31595Y-28057D01*
X31571Y-27990D01*
X31571Y-27957D01*
X31595Y-27890D01*
X31619Y-27857D01*
X31666Y-27823D01*
X31762Y-27823D01*
X31809Y-27857D01*
X31833Y-27890D01*
X31857Y-27957D01*
X31857Y-27990D01*
X31833Y-28057D01*
X31809Y-28090D01*
X31762Y-28123D01*
X31666Y-28123D01*
X31619Y-28157D01*
X31595Y-28190D01*
X31571Y-28257D01*
X31571Y-28390D01*
X31595Y-28457D01*
X31619Y-28490D01*
X31666Y-28523D01*
X31762Y-28523D01*
X31809Y-28490D01*
X31833Y-28457D01*
X31857Y-28390D01*
X31857Y-28257D01*
X31833Y-28190D01*
X31809Y-28157D01*
X31762Y-28123D01*
X32071Y-28457D02*
X32095Y-28490D01*
X32071Y-28523D01*
X32047Y-28490D01*
X32071Y-28457D01*
X32071Y-28523D01*
X32261Y-27823D02*
X32571Y-27823D01*
X32404Y-28090D01*
X32476Y-28090D01*
X32523Y-28123D01*
X32547Y-28157D01*
X32571Y-28223D01*
X32571Y-28390D01*
X32547Y-28457D01*
X32523Y-28490D01*
X32476Y-28523D01*
X32333Y-28523D01*
X32285Y-28490D01*
X32261Y-28457D01*
X33047Y-28523D02*
X32761Y-28523D01*
X32904Y-28523D02*
X32904Y-27823D01*
X32856Y-27923D01*
X32809Y-27990D01*
X32761Y-28023D01*
X28680Y-29237D02*
X28751Y-29270D01*
X28775Y-29303D01*
X28799Y-29370D01*
X28799Y-29470D01*
X28775Y-29537D01*
X28751Y-29570D01*
X28704Y-29603D01*
X28513Y-29603D01*
X28513Y-28903D01*
X28680Y-28903D01*
X28727Y-28937D01*
X28751Y-28970D01*
X28775Y-29037D01*
X28775Y-29103D01*
X28751Y-29170D01*
X28727Y-29203D01*
X28680Y-29237D01*
X28513Y-29237D01*
X28965Y-29137D02*
X29084Y-29603D01*
X29204Y-29137D02*
X29084Y-29603D01*
X29037Y-29770D01*
X29013Y-29803D01*
X28965Y-29837D01*
X29751Y-29570D02*
X29823Y-29603D01*
X29942Y-29603D01*
X29989Y-29570D01*
X30013Y-29537D01*
X30037Y-29470D01*
X30037Y-29403D01*
X30013Y-29337D01*
X29989Y-29303D01*
X29942Y-29270D01*
X29846Y-29237D01*
X29799Y-29203D01*
X29775Y-29170D01*
X29751Y-29103D01*
X29751Y-29037D01*
X29775Y-28970D01*
X29799Y-28937D01*
X29846Y-28903D01*
X29966Y-28903D01*
X30037Y-28937D01*
X30251Y-29603D02*
X30251Y-29137D01*
X30251Y-28903D02*
X30227Y-28937D01*
X30251Y-28970D01*
X30275Y-28937D01*
X30251Y-28903D01*
X30251Y-28970D01*
X30489Y-29603D02*
X30489Y-29137D01*
X30489Y-29203D02*
X30513Y-29170D01*
X30560Y-29137D01*
X30632Y-29137D01*
X30680Y-29170D01*
X30703Y-29237D01*
X30703Y-29603D01*
X30703Y-29237D02*
X30727Y-29170D01*
X30775Y-29137D01*
X30846Y-29137D01*
X30894Y-29170D01*
X30918Y-29237D01*
X30918Y-29603D01*
X31227Y-29603D02*
X31180Y-29570D01*
X31156Y-29537D01*
X31132Y-29470D01*
X31132Y-29270D01*
X31156Y-29203D01*
X31180Y-29170D01*
X31227Y-29137D01*
X31299Y-29137D01*
X31347Y-29170D01*
X31370Y-29203D01*
X31394Y-29270D01*
X31394Y-29470D01*
X31370Y-29537D01*
X31347Y-29570D01*
X31299Y-29603D01*
X31227Y-29603D01*
X31608Y-29137D02*
X31608Y-29603D01*
X31608Y-29203D02*
X31632Y-29170D01*
X31679Y-29137D01*
X31751Y-29137D01*
X31799Y-29170D01*
X31822Y-29237D01*
X31822Y-29603D01*
X32393Y-29670D02*
X32346Y-29637D01*
X32298Y-29570D01*
X32227Y-29470D01*
X32179Y-29437D01*
X32131Y-29437D01*
X32155Y-29603D02*
X32108Y-29570D01*
X32060Y-29503D01*
X32036Y-29370D01*
X32036Y-29137D01*
X32060Y-29003D01*
X32108Y-28937D01*
X32155Y-28903D01*
X32251Y-28903D01*
X32298Y-28937D01*
X32346Y-29003D01*
X32370Y-29137D01*
X32370Y-29370D01*
X32346Y-29503D01*
X32298Y-29570D01*
X32251Y-29603D01*
X32155Y-29603D01*
X32584Y-29603D02*
X32584Y-29137D01*
X32584Y-28903D02*
X32560Y-28937D01*
X32584Y-28970D01*
X32608Y-28937D01*
X32584Y-28903D01*
X32584Y-28970D01*
X33036Y-29603D02*
X33036Y-29237D01*
X33013Y-29170D01*
X32965Y-29137D01*
X32870Y-29137D01*
X32822Y-29170D01*
X33036Y-29570D02*
X32989Y-29603D01*
X32870Y-29603D01*
X32822Y-29570D01*
X32798Y-29503D01*
X32798Y-29437D01*
X32822Y-29370D01*
X32870Y-29337D01*
X32989Y-29337D01*
X33036Y-29303D01*
X33274Y-29137D02*
X33274Y-29603D01*
X33274Y-29203D02*
X33298Y-29170D01*
X33345Y-29137D01*
X33417Y-29137D01*
X33465Y-29170D01*
X33488Y-29237D01*
X33488Y-29603D01*
X44750Y-37500D02*
X44783Y-37428D01*
X44783Y-37309D01*
X44750Y-37262D01*
X44717Y-37238D01*
X44650Y-37214D01*
X44583Y-37214D01*
X44517Y-37238D01*
X44483Y-37262D01*
X44450Y-37309D01*
X44417Y-37405D01*
X44383Y-37452D01*
X44350Y-37476D01*
X44283Y-37500D01*
X44217Y-37500D01*
X44150Y-37476D01*
X44117Y-37452D01*
X44083Y-37405D01*
X44083Y-37285D01*
X44117Y-37214D01*
X44783Y-37000D02*
X44083Y-37000D01*
X44083Y-36809D01*
X44117Y-36762D01*
X44150Y-36738D01*
X44217Y-36714D01*
X44317Y-36714D01*
X44383Y-36738D01*
X44417Y-36762D01*
X44450Y-36809D01*
X44450Y-37000D01*
X44783Y-36500D02*
X44083Y-36500D01*
X44083Y-36167D02*
X44083Y-36119D01*
X44117Y-36071D01*
X44150Y-36048D01*
X44217Y-36024D01*
X44350Y-36000D01*
X44517Y-36000D01*
X44650Y-36024D01*
X44717Y-36048D01*
X44750Y-36071D01*
X44783Y-36119D01*
X44783Y-36167D01*
X44750Y-36214D01*
X44717Y-36238D01*
X44650Y-36262D01*
X44517Y-36286D01*
X44350Y-36286D01*
X44217Y-36262D01*
X44150Y-36238D01*
X44117Y-36214D01*
X44083Y-36167D01*
X44750Y-30500D02*
X44783Y-30428D01*
X44783Y-30309D01*
X44750Y-30262D01*
X44717Y-30238D01*
X44650Y-30214D01*
X44583Y-30214D01*
X44517Y-30238D01*
X44483Y-30262D01*
X44450Y-30309D01*
X44417Y-30405D01*
X44383Y-30452D01*
X44350Y-30476D01*
X44283Y-30500D01*
X44217Y-30500D01*
X44150Y-30476D01*
X44117Y-30452D01*
X44083Y-30405D01*
X44083Y-30285D01*
X44117Y-30214D01*
X44783Y-30000D02*
X44083Y-30000D01*
X44083Y-29809D01*
X44117Y-29762D01*
X44150Y-29738D01*
X44217Y-29714D01*
X44317Y-29714D01*
X44383Y-29738D01*
X44417Y-29762D01*
X44450Y-29809D01*
X44450Y-30000D01*
X44783Y-29500D02*
X44083Y-29500D01*
X44783Y-29000D02*
X44783Y-29286D01*
X44783Y-29143D02*
X44083Y-29143D01*
X44183Y-29191D01*
X44250Y-29238D01*
X44283Y-29286D01*
X13533Y-19369D02*
X12833Y-19369D01*
X13533Y-19083D01*
X12833Y-19083D01*
X13333Y-18869D02*
X13333Y-18631D01*
X13533Y-18916D02*
X12833Y-18750D01*
X13533Y-18583D01*
X13533Y-18416D02*
X12833Y-18416D01*
X13533Y-18130D01*
X12833Y-18130D01*
X13533Y-17892D02*
X12833Y-17892D01*
X12833Y-17773D01*
X12867Y-17701D01*
X12933Y-17654D01*
X13000Y-17630D01*
X13133Y-17606D01*
X13233Y-17606D01*
X13367Y-17630D01*
X13433Y-17654D01*
X13500Y-17701D01*
X13533Y-17773D01*
X13533Y-17892D01*
X13500Y-24143D02*
X13533Y-24071D01*
X13533Y-23952D01*
X13500Y-23905D01*
X13467Y-23881D01*
X13400Y-23857D01*
X13333Y-23857D01*
X13267Y-23881D01*
X13233Y-23905D01*
X13200Y-23952D01*
X13167Y-24048D01*
X13133Y-24095D01*
X13100Y-24119D01*
X13033Y-24143D01*
X12967Y-24143D01*
X12900Y-24119D01*
X12867Y-24095D01*
X12833Y-24048D01*
X12833Y-23928D01*
X12867Y-23857D01*
X13533Y-23357D02*
X13200Y-23524D01*
X13533Y-23643D02*
X12833Y-23643D01*
X12833Y-23452D01*
X12867Y-23405D01*
X12900Y-23381D01*
X12967Y-23357D01*
X13067Y-23357D01*
X13133Y-23381D01*
X13167Y-23405D01*
X13200Y-23452D01*
X13200Y-23643D01*
X13333Y-23167D02*
X13333Y-22929D01*
X13533Y-23214D02*
X12833Y-23048D01*
X13533Y-22881D01*
X13533Y-22714D02*
X12833Y-22714D01*
X13333Y-22547D01*
X12833Y-22381D01*
X13533Y-22381D01*
X13533Y-28905D02*
X12833Y-28905D01*
X13533Y-28619D01*
X12833Y-28619D01*
X12833Y-28286D02*
X12833Y-28190D01*
X12867Y-28143D01*
X12933Y-28095D01*
X13067Y-28071D01*
X13300Y-28071D01*
X13433Y-28095D01*
X13500Y-28143D01*
X13533Y-28190D01*
X13533Y-28286D01*
X13500Y-28333D01*
X13433Y-28381D01*
X13300Y-28405D01*
X13067Y-28405D01*
X12933Y-28381D01*
X12867Y-28333D01*
X12833Y-28286D01*
X13533Y-27571D02*
X13200Y-27738D01*
X13533Y-27857D02*
X12833Y-27857D01*
X12833Y-27666D01*
X12867Y-27619D01*
X12900Y-27595D01*
X12967Y-27571D01*
X13067Y-27571D01*
X13133Y-27595D01*
X13167Y-27619D01*
X13200Y-27666D01*
X13200Y-27857D01*
X36727Y-23517D02*
X36703Y-23550D01*
X36632Y-23583D01*
X36584Y-23583D01*
X36512Y-23550D01*
X36465Y-23483D01*
X36441Y-23417D01*
X36417Y-23283D01*
X36417Y-23183D01*
X36441Y-23050D01*
X36465Y-22983D01*
X36512Y-22917D01*
X36584Y-22883D01*
X36632Y-22883D01*
X36703Y-22917D01*
X36727Y-22950D01*
X37179Y-23583D02*
X36941Y-23583D01*
X36941Y-22883D01*
X37346Y-23217D02*
X37513Y-23217D01*
X37584Y-23583D02*
X37346Y-23583D01*
X37346Y-22883D01*
X37584Y-22883D01*
X38052Y-23383D02*
X38290Y-23383D01*
X38005Y-23583D02*
X38171Y-22883D01*
X38338Y-23583D01*
X38743Y-23583D02*
X38505Y-23583D01*
X38505Y-22883D01*
X38910Y-23217D02*
X39077Y-23217D01*
X39148Y-23583D02*
X38910Y-23583D01*
X38910Y-22883D01*
X39148Y-22883D01*
X44750Y-22024D02*
X44783Y-21952D01*
X44783Y-21833D01*
X44750Y-21786D01*
X44717Y-21762D01*
X44650Y-21738D01*
X44583Y-21738D01*
X44517Y-21762D01*
X44483Y-21786D01*
X44450Y-21833D01*
X44417Y-21929D01*
X44383Y-21976D01*
X44350Y-22000D01*
X44283Y-22024D01*
X44217Y-22024D01*
X44150Y-22000D01*
X44117Y-21976D01*
X44083Y-21929D01*
X44083Y-21809D01*
X44117Y-21738D01*
X44783Y-21524D02*
X44083Y-21524D01*
X44083Y-21405D01*
X44117Y-21333D01*
X44183Y-21286D01*
X44250Y-21262D01*
X44383Y-21238D01*
X44483Y-21238D01*
X44617Y-21262D01*
X44683Y-21286D01*
X44750Y-21333D01*
X44783Y-21405D01*
X44783Y-21524D01*
X44783Y-21024D02*
X44083Y-21024D01*
X44083Y-20691D02*
X44083Y-20595D01*
X44117Y-20548D01*
X44183Y-20500D01*
X44317Y-20476D01*
X44550Y-20476D01*
X44683Y-20500D01*
X44750Y-20548D01*
X44783Y-20595D01*
X44783Y-20691D01*
X44750Y-20738D01*
X44683Y-20786D01*
X44550Y-20810D01*
X44317Y-20810D01*
X44183Y-20786D01*
X44117Y-20738D01*
X44083Y-20691D01*
X44750Y-15500D02*
X44783Y-15428D01*
X44783Y-15309D01*
X44750Y-15262D01*
X44717Y-15238D01*
X44650Y-15214D01*
X44583Y-15214D01*
X44517Y-15238D01*
X44483Y-15262D01*
X44450Y-15309D01*
X44417Y-15405D01*
X44383Y-15452D01*
X44350Y-15476D01*
X44283Y-15500D01*
X44217Y-15500D01*
X44150Y-15476D01*
X44117Y-15452D01*
X44083Y-15405D01*
X44083Y-15285D01*
X44117Y-15214D01*
X44783Y-15000D02*
X44083Y-15000D01*
X44083Y-14809D01*
X44117Y-14762D01*
X44150Y-14738D01*
X44217Y-14714D01*
X44317Y-14714D01*
X44383Y-14738D01*
X44417Y-14762D01*
X44450Y-14809D01*
X44450Y-15000D01*
X44783Y-14500D02*
X44083Y-14500D01*
X44083Y-14167D02*
X44083Y-14119D01*
X44117Y-14071D01*
X44150Y-14048D01*
X44217Y-14024D01*
X44350Y-14000D01*
X44517Y-14000D01*
X44650Y-14024D01*
X44717Y-14048D01*
X44750Y-14071D01*
X44783Y-14119D01*
X44783Y-14167D01*
X44750Y-14214D01*
X44717Y-14238D01*
X44650Y-14262D01*
X44517Y-14286D01*
X44350Y-14286D01*
X44217Y-14262D01*
X44150Y-14238D01*
X44117Y-14214D01*
X44083Y-14167D01*
X44750Y-11000D02*
X44783Y-10928D01*
X44783Y-10809D01*
X44750Y-10762D01*
X44717Y-10738D01*
X44650Y-10714D01*
X44583Y-10714D01*
X44517Y-10738D01*
X44483Y-10762D01*
X44450Y-10809D01*
X44417Y-10905D01*
X44383Y-10952D01*
X44350Y-10976D01*
X44283Y-11000D01*
X44217Y-11000D01*
X44150Y-10976D01*
X44117Y-10952D01*
X44083Y-10905D01*
X44083Y-10785D01*
X44117Y-10714D01*
X44783Y-10500D02*
X44083Y-10500D01*
X44083Y-10309D01*
X44117Y-10262D01*
X44150Y-10238D01*
X44217Y-10214D01*
X44317Y-10214D01*
X44383Y-10238D01*
X44417Y-10262D01*
X44450Y-10309D01*
X44450Y-10500D01*
X44783Y-10000D02*
X44083Y-10000D01*
X44783Y-09500D02*
X44783Y-09786D01*
X44783Y-09643D02*
X44083Y-09643D01*
X44183Y-09691D01*
X44250Y-09738D01*
X44283Y-09786D01*
X16600Y-27800D02*
X16600Y-22200D01*
X23600Y-22200D02*
X23600Y-27800D01*
X16600Y-22200D02*
X23600Y-22200D01*
X23600Y-27800D02*
X16600Y-27800D01*
X17100Y-22600D02*
X17098Y-22619D01*
X17092Y-22638D01*
X17083Y-22655D01*
X17070Y-22670D01*
X17055Y-22682D01*
X17038Y-22692D01*
X17020Y-22697D01*
X17000Y-22699D01*
X16982Y-22698D01*
X16963Y-22692D01*
X16946Y-22683D01*
X16931Y-22671D01*
X16918Y-22656D01*
X16909Y-22639D01*
X16903Y-22620D01*
X16901Y-22601D01*
X16902Y-22582D01*
X16908Y-22564D01*
X16916Y-22546D01*
X16929Y-22531D01*
X16943Y-22518D01*
X16960Y-22509D01*
X16979Y-22503D01*
X16998Y-22501D01*
X17017Y-22502D01*
X17036Y-22507D01*
X17053Y-22516D01*
X17068Y-22528D01*
X17081Y-22543D01*
X17091Y-22560D01*
X17097Y-22578D01*
X17099Y-22598D01*
X17100Y-22600D01*
X27500Y-15100D02*
X27500Y-19900D01*
X34500Y-19900D02*
X34500Y-15100D01*
X34500Y-15100D02*
X27500Y-15100D01*
X34500Y-19900D02*
X27500Y-19900D01*
X34200Y-19500D02*
X34198Y-19519D01*
X34192Y-19538D01*
X34183Y-19555D01*
X34170Y-19570D01*
X34155Y-19582D01*
X34138Y-19592D01*
X34120Y-19597D01*
X34100Y-19599D01*
X34082Y-19598D01*
X34063Y-19592D01*
X34046Y-19583D01*
X34031Y-19571D01*
X34018Y-19556D01*
X34009Y-19539D01*
X34003Y-19520D01*
X34001Y-19501D01*
X34002Y-19482D01*
X34008Y-19464D01*
X34016Y-19446D01*
X34029Y-19431D01*
X34043Y-19418D01*
X34060Y-19409D01*
X34079Y-19403D01*
X34098Y-19401D01*
X34117Y-19402D01*
X34136Y-19407D01*
X34153Y-19416D01*
X34168Y-19428D01*
X34181Y-19443D01*
X34191Y-19460D01*
X34197Y-19478D01*
X34199Y-19498D01*
X34200Y-19500D01*
G54D13*
X37500Y-26300D02*
X38000Y-26300D01*
X38000Y-26300D02*
X38000Y-25600D01*
X38000Y-25600D02*
X37500Y-25600D01*
X37100Y-26300D02*
X36600Y-26300D01*
X36600Y-26300D02*
X36600Y-25600D01*
X36600Y-25600D02*
X37100Y-25600D01*
G54D14*
X47000Y-16000D02*
X47000Y-22000D01*
X47000Y-22000D02*
X45000Y-22000D01*
X45000Y-22000D02*
X45000Y-16000D01*
X45000Y-16000D02*
X47000Y-16000D01*
X47000Y-11500D02*
X47000Y-15500D01*
X47000Y-15500D02*
X45000Y-15500D01*
X45000Y-15500D02*
X45000Y-11500D01*
X45000Y-11500D02*
X47000Y-11500D01*
X47000Y-07000D02*
X47000Y-11000D01*
X47000Y-11000D02*
X45000Y-11000D01*
X45000Y-11000D02*
X45000Y-07000D01*
X45000Y-07000D02*
X47000Y-07000D01*
G54D15*
X41600Y-20400D02*
X42800Y-20400D01*
X42800Y-20400D02*
X42800Y-17600D01*
X42800Y-17600D02*
X41600Y-17600D01*
X40400Y-20400D02*
X40100Y-20400D01*
X40100Y-20400D02*
X39200Y-19800D01*
X39200Y-19800D02*
X39200Y-18200D01*
X39200Y-18200D02*
X40100Y-17600D01*
X40100Y-17600D02*
X40400Y-17600D01*
G54D13*
X42220Y-15850D02*
X42218Y-15863D01*
X42214Y-15876D01*
X42208Y-15888D01*
X42199Y-15899D01*
X42189Y-15908D01*
X42177Y-15914D01*
X42164Y-15918D01*
X42150Y-15919D01*
X42137Y-15918D01*
X42124Y-15914D01*
X42112Y-15908D01*
X42102Y-15900D01*
X42093Y-15889D01*
X42086Y-15877D01*
X42082Y-15864D01*
X42081Y-15850D01*
X42082Y-15838D01*
X42085Y-15825D01*
X42092Y-15813D01*
X42100Y-15802D01*
X42111Y-15793D01*
X42122Y-15786D01*
X42135Y-15782D01*
X42149Y-15781D01*
X42162Y-15782D01*
X42175Y-15785D01*
X42187Y-15791D01*
X42198Y-15800D01*
X42207Y-15810D01*
X42213Y-15822D01*
X42218Y-15835D01*
X42219Y-15849D01*
X42220Y-15850D01*
X40650Y-15900D02*
X39900Y-15900D01*
X39900Y-15900D02*
X39900Y-17100D01*
X39900Y-17100D02*
X40650Y-17100D01*
X41300Y-17100D02*
X42100Y-17100D01*
X42100Y-17100D02*
X42100Y-15900D01*
X42100Y-15900D02*
X41300Y-15900D01*
X42220Y-20850D02*
X42218Y-20863D01*
X42214Y-20876D01*
X42208Y-20888D01*
X42199Y-20899D01*
X42189Y-20908D01*
X42177Y-20914D01*
X42164Y-20918D01*
X42150Y-20919D01*
X42137Y-20918D01*
X42124Y-20914D01*
X42112Y-20908D01*
X42102Y-20900D01*
X42093Y-20889D01*
X42086Y-20877D01*
X42082Y-20864D01*
X42081Y-20850D01*
X42082Y-20838D01*
X42085Y-20825D01*
X42092Y-20813D01*
X42100Y-20802D01*
X42111Y-20793D01*
X42122Y-20786D01*
X42135Y-20782D01*
X42149Y-20781D01*
X42162Y-20782D01*
X42175Y-20785D01*
X42187Y-20791D01*
X42198Y-20800D01*
X42207Y-20810D01*
X42213Y-20822D01*
X42218Y-20835D01*
X42219Y-20849D01*
X42220Y-20850D01*
X40650Y-20900D02*
X39900Y-20900D01*
X39900Y-20900D02*
X39900Y-22100D01*
X39900Y-22100D02*
X40650Y-22100D01*
X41300Y-22100D02*
X42100Y-22100D01*
X42100Y-22100D02*
X42100Y-20900D01*
X42100Y-20900D02*
X41300Y-20900D01*
X24750Y-17900D02*
X24750Y-18400D01*
X24750Y-18400D02*
X25450Y-18400D01*
X25450Y-18400D02*
X25450Y-17900D01*
X24750Y-17500D02*
X24750Y-17000D01*
X24750Y-17000D02*
X25450Y-17000D01*
X25450Y-17000D02*
X25450Y-17500D01*
X35650Y-17800D02*
X35650Y-18300D01*
X35650Y-18300D02*
X36350Y-18300D01*
X36350Y-18300D02*
X36350Y-17800D01*
X35650Y-17400D02*
X35650Y-16900D01*
X35650Y-16900D02*
X36350Y-16900D01*
X36350Y-16900D02*
X36350Y-17400D01*
X25750Y-17900D02*
X25750Y-18400D01*
X25750Y-18400D02*
X26450Y-18400D01*
X26450Y-18400D02*
X26450Y-17900D01*
X25750Y-17500D02*
X25750Y-17000D01*
X25750Y-17000D02*
X26450Y-17000D01*
X26450Y-17000D02*
X26450Y-17500D01*
X37100Y-24100D02*
X36600Y-24100D01*
X36600Y-24100D02*
X36600Y-24800D01*
X36600Y-24800D02*
X37100Y-24800D01*
X37500Y-24100D02*
X38000Y-24100D01*
X38000Y-24100D02*
X38000Y-24800D01*
X38000Y-24800D02*
X37500Y-24800D01*
X25550Y-28000D02*
X25550Y-28500D01*
X25550Y-28500D02*
X26250Y-28500D01*
X26250Y-28500D02*
X26250Y-28000D01*
X25550Y-27600D02*
X25550Y-27100D01*
X25550Y-27100D02*
X26250Y-27100D01*
X26250Y-27100D02*
X26250Y-27600D01*
X15450Y-17500D02*
X15450Y-17000D01*
X15450Y-17000D02*
X14750Y-17000D01*
X14750Y-17000D02*
X14750Y-17500D01*
X15450Y-17900D02*
X15450Y-18400D01*
X15450Y-18400D02*
X14750Y-18400D01*
X14750Y-18400D02*
X14750Y-17900D01*
X24650Y-28000D02*
X24650Y-28500D01*
X24650Y-28500D02*
X25350Y-28500D01*
X25350Y-28500D02*
X25350Y-28000D01*
X24650Y-27600D02*
X24650Y-27100D01*
X24650Y-27100D02*
X25350Y-27100D01*
X25350Y-27100D02*
X25350Y-27600D01*
X14700Y-24250D02*
X14200Y-24250D01*
X14200Y-24250D02*
X14200Y-24950D01*
X14200Y-24950D02*
X14700Y-24950D01*
X15100Y-24250D02*
X15600Y-24250D01*
X15600Y-24250D02*
X15600Y-24950D01*
X15600Y-24950D02*
X15100Y-24950D01*
X25850Y-22100D02*
X25850Y-21600D01*
X25850Y-21600D02*
X25150Y-21600D01*
X25150Y-21600D02*
X25150Y-22100D01*
X25850Y-22500D02*
X25850Y-23000D01*
X25850Y-23000D02*
X25150Y-23000D01*
X25150Y-23000D02*
X25150Y-22500D01*
X35650Y-19500D02*
X35650Y-20000D01*
X35650Y-20000D02*
X36350Y-20000D01*
X36350Y-20000D02*
X36350Y-19500D01*
X35650Y-19100D02*
X35650Y-18600D01*
X35650Y-18600D02*
X36350Y-18600D01*
X36350Y-18600D02*
X36350Y-19100D01*
X25150Y-24200D02*
X25150Y-24700D01*
X25150Y-24700D02*
X25850Y-24700D01*
X25850Y-24700D02*
X25850Y-24200D01*
X25150Y-23800D02*
X25150Y-23300D01*
X25150Y-23300D02*
X25850Y-23300D01*
X25850Y-23300D02*
X25850Y-23800D01*
G54D11*
X23600Y-19900D02*
X23600Y-15100D01*
X16600Y-15100D02*
X16600Y-19900D01*
X16600Y-19900D02*
X23600Y-19900D01*
X16600Y-15100D02*
X23600Y-15100D01*
X17100Y-15500D02*
X17098Y-15519D01*
X17092Y-15538D01*
X17083Y-15555D01*
X17070Y-15570D01*
X17055Y-15582D01*
X17038Y-15592D01*
X17020Y-15597D01*
X17000Y-15599D01*
X16982Y-15598D01*
X16963Y-15592D01*
X16946Y-15583D01*
X16931Y-15571D01*
X16918Y-15556D01*
X16909Y-15539D01*
X16903Y-15520D01*
X16901Y-15501D01*
X16902Y-15482D01*
X16908Y-15464D01*
X16916Y-15446D01*
X16929Y-15431D01*
X16943Y-15418D01*
X16960Y-15409D01*
X16979Y-15403D01*
X16998Y-15401D01*
X17017Y-15402D01*
X17036Y-15407D01*
X17053Y-15416D01*
X17068Y-15428D01*
X17081Y-15443D01*
X17091Y-15460D01*
X17097Y-15478D01*
X17099Y-15498D01*
X17100Y-15500D01*
G54D13*
X40950Y-23600D02*
X41450Y-23600D01*
X41450Y-23600D02*
X41450Y-22900D01*
X41450Y-22900D02*
X40950Y-22900D01*
X40550Y-23600D02*
X40050Y-23600D01*
X40050Y-23600D02*
X40050Y-22900D01*
X40050Y-22900D02*
X40550Y-22900D01*
X14700Y-25050D02*
X14200Y-25050D01*
X14200Y-25050D02*
X14200Y-25750D01*
X14200Y-25750D02*
X14700Y-25750D01*
X15100Y-25050D02*
X15600Y-25050D01*
X15600Y-25050D02*
X15600Y-25750D01*
X15600Y-25750D02*
X15100Y-25750D01*
X23950Y-29100D02*
X24450Y-29100D01*
X24450Y-29100D02*
X24450Y-28400D01*
X24450Y-28400D02*
X23950Y-28400D01*
X23550Y-29100D02*
X23050Y-29100D01*
X23050Y-29100D02*
X23050Y-28400D01*
X23050Y-28400D02*
X23550Y-28400D01*
X15450Y-15900D02*
X15450Y-15400D01*
X15450Y-15400D02*
X14750Y-15400D01*
X14750Y-15400D02*
X14750Y-15900D01*
X15450Y-16300D02*
X15450Y-16800D01*
X15450Y-16800D02*
X14750Y-16800D01*
X14750Y-16800D02*
X14750Y-16300D01*
G54D14*
X12500Y-25000D02*
X12500Y-29000D01*
X12500Y-29000D02*
X10500Y-29000D01*
X10500Y-29000D02*
X10500Y-25000D01*
X10500Y-25000D02*
X12500Y-25000D01*
X12500Y-20250D02*
X12500Y-24250D01*
X12500Y-24250D02*
X10500Y-24250D01*
X10500Y-24250D02*
X10500Y-20250D01*
X10500Y-20250D02*
X12500Y-20250D01*
X12500Y-15500D02*
X12500Y-19500D01*
X12500Y-19500D02*
X10500Y-19500D01*
X10500Y-19500D02*
X10500Y-15500D01*
X10500Y-15500D02*
X12500Y-15500D01*
X47000Y-33500D02*
X47000Y-37500D01*
X47000Y-37500D02*
X45000Y-37500D01*
X45000Y-37500D02*
X45000Y-33500D01*
X45000Y-33500D02*
X47000Y-33500D01*
X47000Y-29000D02*
X47000Y-33000D01*
X47000Y-33000D02*
X45000Y-33000D01*
X45000Y-33000D02*
X45000Y-29000D01*
X45000Y-29000D02*
X47000Y-29000D01*
G54D10*
X37000Y-21500D02*
X37000Y-22500D01*
X37000Y-22500D02*
X35000Y-22500D01*
X35000Y-22500D02*
X35000Y-21500D01*
X35000Y-21500D02*
X37000Y-21500D01*
G54D13*
X47768Y-28370D02*
X47768Y-25500D01*
X47768Y-25500D02*
X48220Y-25106D01*
X48220Y-22685D02*
X48220Y-25106D01*
X43047Y-22685D02*
X48220Y-22685D01*
X43047Y-23146D02*
X43047Y-22685D01*
X42787Y-23146D02*
X43047Y-23146D01*
X42787Y-28232D02*
X42787Y-23146D01*
X43047Y-28232D02*
X42787Y-28232D01*
X43047Y-28370D02*
X43047Y-28232D01*
X47768Y-28370D02*
X43047Y-28370D01*
X38200Y-26450D02*
X38200Y-28450D01*
X38200Y-28450D02*
X36400Y-28450D01*
X36400Y-28450D02*
X36400Y-26450D01*
X36400Y-26450D02*
X38200Y-26450D01*
X37600Y-26450D02*
X37600Y-26650D01*
X37600Y-26650D02*
X37100Y-26650D01*
X37100Y-26650D02*
X37100Y-26450D01*
X36350Y-15500D02*
X36350Y-15000D01*
X36350Y-15000D02*
X35650Y-15000D01*
X35650Y-15000D02*
X35650Y-15500D01*
X36350Y-15900D02*
X36350Y-16400D01*
X36350Y-16400D02*
X35650Y-16400D01*
X35650Y-16400D02*
X35650Y-15900D01*
X35700Y-21100D02*
X36200Y-21100D01*
X36200Y-21100D02*
X36200Y-20400D01*
X36200Y-20400D02*
X35700Y-20400D01*
X35300Y-21100D02*
X34800Y-21100D01*
X34800Y-21100D02*
X34800Y-20400D01*
X34800Y-20400D02*
X35300Y-20400D01*
X37500Y-25550D02*
X38000Y-25550D01*
X38000Y-25550D02*
X38000Y-24850D01*
X38000Y-24850D02*
X37500Y-24850D01*
X37100Y-25550D02*
X36600Y-25550D01*
X36600Y-25550D02*
X36600Y-24850D01*
X36600Y-24850D02*
X37100Y-24850D01*
X40950Y-28850D02*
X41450Y-28850D01*
X41450Y-28850D02*
X41450Y-28150D01*
X41450Y-28150D02*
X40950Y-28150D01*
X40550Y-28850D02*
X40050Y-28850D01*
X40050Y-28850D02*
X40050Y-28150D01*
X40050Y-28150D02*
X40550Y-28150D01*
X40950Y-24350D02*
X41450Y-24350D01*
X41450Y-24350D02*
X41450Y-23650D01*
X41450Y-23650D02*
X40950Y-23650D01*
X40550Y-24350D02*
X40050Y-24350D01*
X40050Y-24350D02*
X40050Y-23650D01*
X40050Y-23650D02*
X40550Y-23650D01*
X40950Y-25100D02*
X41450Y-25100D01*
X41450Y-25100D02*
X41450Y-24400D01*
X41450Y-24400D02*
X40950Y-24400D01*
X40550Y-25100D02*
X40050Y-25100D01*
X40050Y-25100D02*
X40050Y-24400D01*
X40050Y-24400D02*
X40550Y-24400D01*
X40950Y-25850D02*
X41450Y-25850D01*
X41450Y-25850D02*
X41450Y-25150D01*
X41450Y-25150D02*
X40950Y-25150D01*
X40550Y-25850D02*
X40050Y-25850D01*
X40050Y-25850D02*
X40050Y-25150D01*
X40050Y-25150D02*
X40550Y-25150D01*
X40950Y-26600D02*
X41450Y-26600D01*
X41450Y-26600D02*
X41450Y-25900D01*
X41450Y-25900D02*
X40950Y-25900D01*
X40550Y-26600D02*
X40050Y-26600D01*
X40050Y-26600D02*
X40050Y-25900D01*
X40050Y-25900D02*
X40550Y-25900D01*
X40950Y-27350D02*
X41450Y-27350D01*
X41450Y-27350D02*
X41450Y-26650D01*
X41450Y-26650D02*
X40950Y-26650D01*
X40550Y-27350D02*
X40050Y-27350D01*
X40050Y-27350D02*
X40050Y-26650D01*
X40050Y-26650D02*
X40550Y-26650D01*
X40950Y-28100D02*
X41450Y-28100D01*
X41450Y-28100D02*
X41450Y-27400D01*
X41450Y-27400D02*
X40950Y-27400D01*
X40550Y-28100D02*
X40050Y-28100D01*
X40050Y-28100D02*
X40050Y-27400D01*
X40050Y-27400D02*
X40550Y-27400D01*
G54D16*
G36*
X32066Y-23566D02*
X32066Y-21434D01*
X29934Y-21434D01*
X29934Y-23566D01*
X30365Y-23566D01*
X30365Y-23466D01*
X30361Y-23466D01*
X30160Y-23462D01*
X30058Y-23446D01*
X30021Y-23413D01*
X30019Y-23403D01*
X30011Y-23288D01*
X30006Y-23073D01*
X30002Y-22784D01*
X30000Y-22448D01*
X30001Y-22286D01*
X30002Y-21963D01*
X30007Y-21746D01*
X30016Y-21615D01*
X30029Y-21551D01*
X30049Y-21534D01*
X30085Y-21540D01*
X30125Y-21580D01*
X30150Y-21676D01*
X30161Y-21847D01*
X30161Y-22111D01*
X30152Y-22490D01*
X30143Y-22843D01*
X30142Y-23104D01*
X30149Y-23252D01*
X30164Y-23300D01*
X30178Y-23264D01*
X30191Y-23119D01*
X30198Y-22855D01*
X30200Y-22467D01*
X30200Y-22412D01*
X30202Y-22077D01*
X30206Y-21853D01*
X30215Y-21717D01*
X30229Y-21651D01*
X30249Y-21634D01*
X30268Y-21635D01*
X30312Y-21665D01*
X30341Y-21748D01*
X30357Y-21905D01*
X30362Y-22154D01*
X30360Y-22516D01*
X30358Y-22786D01*
X30358Y-23035D01*
X30361Y-23203D01*
X30367Y-23264D01*
X30372Y-23259D01*
X30435Y-23180D01*
X30556Y-23017D01*
X30722Y-22791D01*
X30917Y-22522D01*
X30998Y-22412D01*
X31197Y-22139D01*
X31342Y-21950D01*
X31447Y-21828D01*
X31527Y-21754D01*
X31598Y-21709D01*
X31669Y-21680D01*
X31817Y-21642D01*
X31945Y-21631D01*
X32000Y-21654D01*
X31993Y-21665D01*
X31930Y-21760D01*
X31811Y-21931D01*
X31652Y-22157D01*
X31469Y-22414D01*
X31277Y-22680D01*
X31095Y-22933D01*
X30937Y-23151D01*
X30818Y-23311D01*
X30756Y-23391D01*
X30735Y-23413D01*
X30673Y-23448D01*
X30564Y-23463D01*
X30365Y-23466D01*
X30365Y-23566D01*
X32066Y-23566D01*
X32066Y-23566D01*
G37*
G54D12*
X43500Y-10000D02*
X11500Y-10000D01*
X11500Y-10000D02*
X11500Y-08000D01*
X11500Y-08000D02*
X43500Y-08000D01*
X43500Y-08000D02*
X43500Y-10000D01*
X43500Y-13500D02*
X11500Y-13500D01*
X11500Y-13500D02*
X11500Y-11500D01*
X11500Y-11500D02*
X43500Y-11500D01*
X43500Y-11500D02*
X43500Y-13500D01*
X11500Y-31000D02*
X43500Y-31000D01*
X43500Y-31000D02*
X43500Y-33000D01*
X43500Y-33000D02*
X11500Y-33000D01*
X11500Y-33000D02*
X11500Y-31000D01*
X11500Y-34500D02*
X43500Y-34500D01*
X43500Y-34500D02*
X43500Y-36500D01*
X43500Y-36500D02*
X11500Y-36500D01*
X11500Y-36500D02*
X11500Y-34500D01*
G54D14*
X16543Y-21393D02*
X16543Y-21879D01*
X16571Y-21936D01*
X16600Y-21964D01*
X16657Y-21993D01*
X16771Y-21993D01*
X16829Y-21964D01*
X16857Y-21936D01*
X16886Y-21879D01*
X16886Y-21393D01*
X17286Y-21393D02*
X17343Y-21393D01*
X17400Y-21421D01*
X17429Y-21450D01*
X17458Y-21507D01*
X17486Y-21621D01*
X17486Y-21764D01*
X17458Y-21879D01*
X17429Y-21936D01*
X17400Y-21964D01*
X17343Y-21993D01*
X17286Y-21993D01*
X17229Y-21964D01*
X17200Y-21936D01*
X17172Y-21879D01*
X17143Y-21764D01*
X17143Y-21621D01*
X17172Y-21507D01*
X17200Y-21450D01*
X17229Y-21421D01*
X17286Y-21393D01*
X32793Y-20143D02*
X32793Y-20629D01*
X32821Y-20686D01*
X32850Y-20714D01*
X32907Y-20743D01*
X33021Y-20743D01*
X33079Y-20714D01*
X33107Y-20686D01*
X33136Y-20629D01*
X33136Y-20143D01*
X33393Y-20200D02*
X33422Y-20171D01*
X33479Y-20143D01*
X33622Y-20143D01*
X33679Y-20171D01*
X33708Y-20200D01*
X33736Y-20257D01*
X33736Y-20314D01*
X33708Y-20400D01*
X33365Y-20743D01*
X33736Y-20743D01*
G54D13*
X38401Y-26111D02*
X38282Y-26194D01*
X38401Y-26253D02*
X38151Y-26253D01*
X38151Y-26158D01*
X38163Y-26134D01*
X38175Y-26123D01*
X38199Y-26111D01*
X38235Y-26111D01*
X38258Y-26123D01*
X38270Y-26134D01*
X38282Y-26158D01*
X38282Y-26253D01*
X38401Y-25873D02*
X38401Y-26015D01*
X38401Y-25944D02*
X38151Y-25944D01*
X38187Y-25968D01*
X38211Y-25992D01*
X38223Y-26015D01*
X38151Y-25718D02*
X38151Y-25694D01*
X38163Y-25670D01*
X38175Y-25658D01*
X38199Y-25646D01*
X38246Y-25635D01*
X38306Y-25635D01*
X38354Y-25646D01*
X38377Y-25658D01*
X38389Y-25670D01*
X38401Y-25694D01*
X38401Y-25718D01*
X38389Y-25742D01*
X38377Y-25754D01*
X38354Y-25765D01*
X38306Y-25777D01*
X38246Y-25777D01*
X38199Y-25765D01*
X38175Y-25754D01*
X38163Y-25742D01*
X38151Y-25718D01*
G54D11*
X44762Y-19486D02*
X44362Y-19486D01*
X44362Y-19333D01*
X44381Y-19295D01*
X44400Y-19276D01*
X44438Y-19257D01*
X44495Y-19257D01*
X44533Y-19276D01*
X44552Y-19295D01*
X44571Y-19333D01*
X44571Y-19486D01*
X44762Y-18876D02*
X44762Y-19105D01*
X44762Y-18991D02*
X44362Y-18991D01*
X44419Y-19029D01*
X44457Y-19067D01*
X44476Y-19105D01*
X44362Y-18743D02*
X44362Y-18495D01*
X44514Y-18629D01*
X44514Y-18571D01*
X44533Y-18533D01*
X44552Y-18514D01*
X44590Y-18495D01*
X44686Y-18495D01*
X44724Y-18514D01*
X44743Y-18533D01*
X44762Y-18571D01*
X44762Y-18686D01*
X44743Y-18724D01*
X44724Y-18743D01*
G54D15*
X44662Y-12486D02*
X44262Y-12486D01*
X44262Y-12333D01*
X44281Y-12295D01*
X44300Y-12276D01*
X44338Y-12257D01*
X44395Y-12257D01*
X44433Y-12276D01*
X44452Y-12295D01*
X44471Y-12333D01*
X44471Y-12486D01*
X44662Y-11876D02*
X44662Y-12105D01*
X44662Y-11991D02*
X44262Y-11991D01*
X44319Y-12029D01*
X44357Y-12067D01*
X44376Y-12105D01*
X44662Y-11495D02*
X44662Y-11724D01*
X44662Y-11610D02*
X44262Y-11610D01*
X44319Y-11648D01*
X44357Y-11686D01*
X44376Y-11724D01*
X44662Y-07986D02*
X44262Y-07986D01*
X44262Y-07833D01*
X44281Y-07795D01*
X44300Y-07776D01*
X44338Y-07757D01*
X44395Y-07757D01*
X44433Y-07776D01*
X44452Y-07795D01*
X44471Y-07833D01*
X44471Y-07986D01*
X44662Y-07376D02*
X44662Y-07605D01*
X44662Y-07491D02*
X44262Y-07491D01*
X44319Y-07529D01*
X44357Y-07567D01*
X44376Y-07605D01*
X44300Y-07224D02*
X44281Y-07205D01*
X44262Y-07167D01*
X44262Y-07071D01*
X44281Y-07033D01*
X44300Y-07014D01*
X44338Y-06995D01*
X44376Y-06995D01*
X44433Y-07014D01*
X44662Y-07243D01*
X44662Y-06995D01*
X43012Y-19305D02*
X43336Y-19305D01*
X43374Y-19286D01*
X43393Y-19267D01*
X43412Y-19229D01*
X43412Y-19152D01*
X43393Y-19114D01*
X43374Y-19095D01*
X43336Y-19076D01*
X43012Y-19076D01*
X43145Y-18714D02*
X43412Y-18714D01*
X42993Y-18810D02*
X43279Y-18905D01*
X43279Y-18657D01*
G54D13*
X42593Y-16550D02*
X42607Y-16564D01*
X42621Y-16607D01*
X42621Y-16636D01*
X42607Y-16679D01*
X42579Y-16707D01*
X42550Y-16722D01*
X42493Y-16736D01*
X42450Y-16736D01*
X42393Y-16722D01*
X42364Y-16707D01*
X42336Y-16679D01*
X42321Y-16636D01*
X42321Y-16607D01*
X42336Y-16564D01*
X42350Y-16550D01*
X42450Y-16379D02*
X42436Y-16407D01*
X42421Y-16422D01*
X42393Y-16436D01*
X42379Y-16436D01*
X42350Y-16422D01*
X42336Y-16407D01*
X42321Y-16379D01*
X42321Y-16322D01*
X42336Y-16293D01*
X42350Y-16279D01*
X42379Y-16264D01*
X42393Y-16264D01*
X42421Y-16279D01*
X42436Y-16293D01*
X42450Y-16322D01*
X42450Y-16379D01*
X42464Y-16407D01*
X42479Y-16422D01*
X42507Y-16436D01*
X42564Y-16436D01*
X42593Y-16422D01*
X42607Y-16407D01*
X42621Y-16379D01*
X42621Y-16322D01*
X42607Y-16293D01*
X42593Y-16279D01*
X42564Y-16264D01*
X42507Y-16264D01*
X42479Y-16279D01*
X42464Y-16293D01*
X42450Y-16322D01*
X42593Y-21550D02*
X42607Y-21564D01*
X42621Y-21607D01*
X42621Y-21636D01*
X42607Y-21679D01*
X42579Y-21707D01*
X42550Y-21722D01*
X42493Y-21736D01*
X42450Y-21736D01*
X42393Y-21722D01*
X42364Y-21707D01*
X42336Y-21679D01*
X42321Y-21636D01*
X42321Y-21607D01*
X42336Y-21564D01*
X42350Y-21550D01*
X42621Y-21407D02*
X42621Y-21350D01*
X42607Y-21322D01*
X42593Y-21307D01*
X42550Y-21279D01*
X42493Y-21264D01*
X42379Y-21264D01*
X42350Y-21279D01*
X42336Y-21293D01*
X42321Y-21322D01*
X42321Y-21379D01*
X42336Y-21407D01*
X42350Y-21422D01*
X42379Y-21436D01*
X42450Y-21436D01*
X42479Y-21422D01*
X42493Y-21407D01*
X42507Y-21379D01*
X42507Y-21322D01*
X42493Y-21293D01*
X42479Y-21279D01*
X42450Y-21264D01*
X25058Y-18777D02*
X25046Y-18789D01*
X25011Y-18801D01*
X24987Y-18801D01*
X24951Y-18789D01*
X24927Y-18765D01*
X24916Y-18742D01*
X24904Y-18694D01*
X24904Y-18658D01*
X24916Y-18611D01*
X24927Y-18587D01*
X24951Y-18563D01*
X24987Y-18551D01*
X25011Y-18551D01*
X25046Y-18563D01*
X25058Y-18575D01*
X25142Y-18551D02*
X25296Y-18551D01*
X25213Y-18646D01*
X25249Y-18646D01*
X25273Y-18658D01*
X25285Y-18670D01*
X25296Y-18694D01*
X25296Y-18754D01*
X25285Y-18777D01*
X25273Y-18789D01*
X25249Y-18801D01*
X25177Y-18801D01*
X25154Y-18789D01*
X25142Y-18777D01*
X36677Y-17642D02*
X36689Y-17654D01*
X36701Y-17689D01*
X36701Y-17713D01*
X36689Y-17749D01*
X36665Y-17773D01*
X36642Y-17784D01*
X36594Y-17796D01*
X36558Y-17796D01*
X36511Y-17784D01*
X36487Y-17773D01*
X36463Y-17749D01*
X36451Y-17713D01*
X36451Y-17689D01*
X36463Y-17654D01*
X36475Y-17642D01*
X36535Y-17427D02*
X36701Y-17427D01*
X36439Y-17487D02*
X36618Y-17546D01*
X36618Y-17392D01*
X26058Y-18777D02*
X26046Y-18789D01*
X26011Y-18801D01*
X25987Y-18801D01*
X25951Y-18789D01*
X25927Y-18765D01*
X25916Y-18742D01*
X25904Y-18694D01*
X25904Y-18658D01*
X25916Y-18611D01*
X25927Y-18587D01*
X25951Y-18563D01*
X25987Y-18551D01*
X26011Y-18551D01*
X26046Y-18563D01*
X26058Y-18575D01*
X26285Y-18551D02*
X26166Y-18551D01*
X26154Y-18670D01*
X26166Y-18658D01*
X26189Y-18646D01*
X26249Y-18646D01*
X26273Y-18658D01*
X26285Y-18670D01*
X26296Y-18694D01*
X26296Y-18754D01*
X26285Y-18777D01*
X26273Y-18789D01*
X26249Y-18801D01*
X26189Y-18801D01*
X26166Y-18789D01*
X26154Y-18777D01*
X38377Y-24492D02*
X38389Y-24504D01*
X38401Y-24539D01*
X38401Y-24563D01*
X38389Y-24599D01*
X38365Y-24623D01*
X38342Y-24634D01*
X38294Y-24646D01*
X38258Y-24646D01*
X38211Y-24634D01*
X38187Y-24623D01*
X38163Y-24599D01*
X38151Y-24563D01*
X38151Y-24539D01*
X38163Y-24504D01*
X38175Y-24492D01*
X38151Y-24277D02*
X38151Y-24325D01*
X38163Y-24349D01*
X38175Y-24361D01*
X38211Y-24384D01*
X38258Y-24396D01*
X38354Y-24396D01*
X38377Y-24384D01*
X38389Y-24373D01*
X38401Y-24349D01*
X38401Y-24301D01*
X38389Y-24277D01*
X38377Y-24265D01*
X38354Y-24254D01*
X38294Y-24254D01*
X38270Y-24265D01*
X38258Y-24277D01*
X38246Y-24301D01*
X38246Y-24349D01*
X38258Y-24373D01*
X38270Y-24384D01*
X38294Y-24396D01*
X25858Y-28877D02*
X25846Y-28889D01*
X25811Y-28901D01*
X25787Y-28901D01*
X25751Y-28889D01*
X25727Y-28865D01*
X25716Y-28842D01*
X25704Y-28794D01*
X25704Y-28758D01*
X25716Y-28711D01*
X25727Y-28687D01*
X25751Y-28663D01*
X25787Y-28651D01*
X25811Y-28651D01*
X25846Y-28663D01*
X25858Y-28675D01*
X26013Y-28651D02*
X26037Y-28651D01*
X26061Y-28663D01*
X26073Y-28675D01*
X26085Y-28699D01*
X26096Y-28746D01*
X26096Y-28806D01*
X26085Y-28854D01*
X26073Y-28877D01*
X26061Y-28889D01*
X26037Y-28901D01*
X26013Y-28901D01*
X25989Y-28889D01*
X25977Y-28877D01*
X25966Y-28854D01*
X25954Y-28806D01*
X25954Y-28746D01*
X25966Y-28699D01*
X25977Y-28675D01*
X25989Y-28663D01*
X26013Y-28651D01*
X14577Y-17742D02*
X14589Y-17754D01*
X14601Y-17789D01*
X14601Y-17813D01*
X14589Y-17849D01*
X14565Y-17873D01*
X14542Y-17884D01*
X14494Y-17896D01*
X14458Y-17896D01*
X14411Y-17884D01*
X14387Y-17873D01*
X14363Y-17849D01*
X14351Y-17813D01*
X14351Y-17789D01*
X14363Y-17754D01*
X14375Y-17742D01*
X14375Y-17646D02*
X14363Y-17634D01*
X14351Y-17611D01*
X14351Y-17551D01*
X14363Y-17527D01*
X14375Y-17515D01*
X14399Y-17504D01*
X14423Y-17504D01*
X14458Y-17515D01*
X14601Y-17658D01*
X14601Y-17504D01*
X24958Y-28901D02*
X24875Y-28782D01*
X24816Y-28901D02*
X24816Y-28651D01*
X24911Y-28651D01*
X24935Y-28663D01*
X24946Y-28675D01*
X24958Y-28699D01*
X24958Y-28735D01*
X24946Y-28758D01*
X24935Y-28770D01*
X24911Y-28782D01*
X24816Y-28782D01*
X25113Y-28651D02*
X25137Y-28651D01*
X25161Y-28663D01*
X25173Y-28675D01*
X25185Y-28699D01*
X25196Y-28746D01*
X25196Y-28806D01*
X25185Y-28854D01*
X25173Y-28877D01*
X25161Y-28889D01*
X25137Y-28901D01*
X25113Y-28901D01*
X25089Y-28889D01*
X25077Y-28877D01*
X25066Y-28854D01*
X25054Y-28806D01*
X25054Y-28746D01*
X25066Y-28699D01*
X25077Y-28675D01*
X25089Y-28663D01*
X25113Y-28651D01*
X14001Y-24642D02*
X13882Y-24725D01*
X14001Y-24784D02*
X13751Y-24784D01*
X13751Y-24689D01*
X13763Y-24665D01*
X13775Y-24654D01*
X13799Y-24642D01*
X13835Y-24642D01*
X13858Y-24654D01*
X13870Y-24665D01*
X13882Y-24689D01*
X13882Y-24784D01*
X14001Y-24404D02*
X14001Y-24546D01*
X14001Y-24475D02*
X13751Y-24475D01*
X13787Y-24499D01*
X13811Y-24523D01*
X13823Y-24546D01*
X26201Y-22342D02*
X26082Y-22425D01*
X26201Y-22484D02*
X25951Y-22484D01*
X25951Y-22389D01*
X25963Y-22365D01*
X25975Y-22354D01*
X25999Y-22342D01*
X26035Y-22342D01*
X26058Y-22354D01*
X26070Y-22365D01*
X26082Y-22389D01*
X26082Y-22484D01*
X25975Y-22246D02*
X25963Y-22234D01*
X25951Y-22211D01*
X25951Y-22151D01*
X25963Y-22127D01*
X25975Y-22115D01*
X25999Y-22104D01*
X26023Y-22104D01*
X26058Y-22115D01*
X26201Y-22258D01*
X26201Y-22104D01*
X36701Y-19342D02*
X36582Y-19425D01*
X36701Y-19484D02*
X36451Y-19484D01*
X36451Y-19389D01*
X36463Y-19365D01*
X36475Y-19354D01*
X36499Y-19342D01*
X36535Y-19342D01*
X36558Y-19354D01*
X36570Y-19365D01*
X36582Y-19389D01*
X36582Y-19484D01*
X36451Y-19127D02*
X36451Y-19175D01*
X36463Y-19199D01*
X36475Y-19211D01*
X36511Y-19234D01*
X36558Y-19246D01*
X36654Y-19246D01*
X36677Y-19234D01*
X36689Y-19223D01*
X36701Y-19199D01*
X36701Y-19151D01*
X36689Y-19127D01*
X36677Y-19115D01*
X36654Y-19104D01*
X36594Y-19104D01*
X36570Y-19115D01*
X36558Y-19127D01*
X36546Y-19151D01*
X36546Y-19199D01*
X36558Y-19223D01*
X36570Y-19234D01*
X36594Y-19246D01*
X26177Y-24042D02*
X26189Y-24054D01*
X26201Y-24089D01*
X26201Y-24113D01*
X26189Y-24149D01*
X26165Y-24173D01*
X26142Y-24184D01*
X26094Y-24196D01*
X26058Y-24196D01*
X26011Y-24184D01*
X25987Y-24173D01*
X25963Y-24149D01*
X25951Y-24113D01*
X25951Y-24089D01*
X25963Y-24054D01*
X25975Y-24042D01*
X26201Y-23804D02*
X26201Y-23946D01*
X26201Y-23875D02*
X25951Y-23875D01*
X25987Y-23899D01*
X26011Y-23923D01*
X26023Y-23946D01*
G54D14*
X14543Y-14643D02*
X14543Y-15129D01*
X14571Y-15186D01*
X14600Y-15214D01*
X14657Y-15243D01*
X14771Y-15243D01*
X14829Y-15214D01*
X14857Y-15186D01*
X14886Y-15129D01*
X14886Y-14643D01*
X15486Y-15243D02*
X15143Y-15243D01*
X15315Y-15243D02*
X15315Y-14643D01*
X15258Y-14729D01*
X15200Y-14786D01*
X15143Y-14814D01*
G54D13*
X39877Y-23411D02*
X39889Y-23423D01*
X39901Y-23458D01*
X39901Y-23482D01*
X39889Y-23518D01*
X39865Y-23542D01*
X39842Y-23553D01*
X39794Y-23565D01*
X39758Y-23565D01*
X39711Y-23553D01*
X39687Y-23542D01*
X39663Y-23518D01*
X39651Y-23482D01*
X39651Y-23458D01*
X39663Y-23423D01*
X39675Y-23411D01*
X39901Y-23173D02*
X39901Y-23315D01*
X39901Y-23244D02*
X39651Y-23244D01*
X39687Y-23268D01*
X39711Y-23292D01*
X39723Y-23315D01*
X39651Y-23018D02*
X39651Y-22994D01*
X39663Y-22970D01*
X39675Y-22958D01*
X39699Y-22946D01*
X39746Y-22935D01*
X39806Y-22935D01*
X39854Y-22946D01*
X39877Y-22958D01*
X39889Y-22970D01*
X39901Y-22994D01*
X39901Y-23018D01*
X39889Y-23042D01*
X39877Y-23054D01*
X39854Y-23065D01*
X39806Y-23077D01*
X39746Y-23077D01*
X39699Y-23065D01*
X39675Y-23054D01*
X39663Y-23042D01*
X39651Y-23018D01*
X14001Y-25442D02*
X13882Y-25525D01*
X14001Y-25584D02*
X13751Y-25584D01*
X13751Y-25489D01*
X13763Y-25465D01*
X13775Y-25454D01*
X13799Y-25442D01*
X13835Y-25442D01*
X13858Y-25454D01*
X13870Y-25465D01*
X13882Y-25489D01*
X13882Y-25584D01*
X13751Y-25358D02*
X13751Y-25204D01*
X13846Y-25287D01*
X13846Y-25251D01*
X13858Y-25227D01*
X13870Y-25215D01*
X13894Y-25204D01*
X13954Y-25204D01*
X13977Y-25215D01*
X13989Y-25227D01*
X14001Y-25251D01*
X14001Y-25323D01*
X13989Y-25346D01*
X13977Y-25358D01*
X23708Y-29501D02*
X23625Y-29382D01*
X23566Y-29501D02*
X23566Y-29251D01*
X23661Y-29251D01*
X23685Y-29263D01*
X23696Y-29275D01*
X23708Y-29299D01*
X23708Y-29335D01*
X23696Y-29358D01*
X23685Y-29370D01*
X23661Y-29382D01*
X23566Y-29382D01*
X23923Y-29335D02*
X23923Y-29501D01*
X23863Y-29239D02*
X23804Y-29418D01*
X23958Y-29418D01*
X14601Y-16142D02*
X14482Y-16225D01*
X14601Y-16284D02*
X14351Y-16284D01*
X14351Y-16189D01*
X14363Y-16165D01*
X14375Y-16154D01*
X14399Y-16142D01*
X14435Y-16142D01*
X14458Y-16154D01*
X14470Y-16165D01*
X14482Y-16189D01*
X14482Y-16284D01*
X14351Y-15915D02*
X14351Y-16034D01*
X14470Y-16046D01*
X14458Y-16034D01*
X14446Y-16011D01*
X14446Y-15951D01*
X14458Y-15927D01*
X14470Y-15915D01*
X14494Y-15904D01*
X14554Y-15904D01*
X14577Y-15915D01*
X14589Y-15927D01*
X14601Y-15951D01*
X14601Y-16011D01*
X14589Y-16034D01*
X14577Y-16046D01*
G54D15*
X13162Y-25986D02*
X12762Y-25986D01*
X12762Y-25833D01*
X12781Y-25795D01*
X12800Y-25776D01*
X12838Y-25757D01*
X12895Y-25757D01*
X12933Y-25776D01*
X12952Y-25795D01*
X12971Y-25833D01*
X12971Y-25986D01*
X12762Y-25510D02*
X12762Y-25471D01*
X12781Y-25433D01*
X12800Y-25414D01*
X12838Y-25395D01*
X12914Y-25376D01*
X13010Y-25376D01*
X13086Y-25395D01*
X13124Y-25414D01*
X13143Y-25433D01*
X13162Y-25471D01*
X13162Y-25510D01*
X13143Y-25548D01*
X13124Y-25567D01*
X13086Y-25586D01*
X13010Y-25605D01*
X12914Y-25605D01*
X12838Y-25586D01*
X12800Y-25567D01*
X12781Y-25548D01*
X12762Y-25510D01*
X13162Y-24995D02*
X13162Y-25224D01*
X13162Y-25110D02*
X12762Y-25110D01*
X12819Y-25148D01*
X12857Y-25186D01*
X12876Y-25224D01*
X13162Y-21236D02*
X12762Y-21236D01*
X12762Y-21083D01*
X12781Y-21045D01*
X12800Y-21026D01*
X12838Y-21007D01*
X12895Y-21007D01*
X12933Y-21026D01*
X12952Y-21045D01*
X12971Y-21083D01*
X12971Y-21236D01*
X12762Y-20760D02*
X12762Y-20721D01*
X12781Y-20683D01*
X12800Y-20664D01*
X12838Y-20645D01*
X12914Y-20626D01*
X13010Y-20626D01*
X13086Y-20645D01*
X13124Y-20664D01*
X13143Y-20683D01*
X13162Y-20721D01*
X13162Y-20760D01*
X13143Y-20798D01*
X13124Y-20817D01*
X13086Y-20836D01*
X13010Y-20855D01*
X12914Y-20855D01*
X12838Y-20836D01*
X12800Y-20817D01*
X12781Y-20798D01*
X12762Y-20760D01*
X12800Y-20474D02*
X12781Y-20455D01*
X12762Y-20417D01*
X12762Y-20321D01*
X12781Y-20283D01*
X12800Y-20264D01*
X12838Y-20245D01*
X12876Y-20245D01*
X12933Y-20264D01*
X13162Y-20493D01*
X13162Y-20245D01*
X13162Y-16486D02*
X12762Y-16486D01*
X12762Y-16333D01*
X12781Y-16295D01*
X12800Y-16276D01*
X12838Y-16257D01*
X12895Y-16257D01*
X12933Y-16276D01*
X12952Y-16295D01*
X12971Y-16333D01*
X12971Y-16486D01*
X12762Y-16010D02*
X12762Y-15971D01*
X12781Y-15933D01*
X12800Y-15914D01*
X12838Y-15895D01*
X12914Y-15876D01*
X13010Y-15876D01*
X13086Y-15895D01*
X13124Y-15914D01*
X13143Y-15933D01*
X13162Y-15971D01*
X13162Y-16010D01*
X13143Y-16048D01*
X13124Y-16067D01*
X13086Y-16086D01*
X13010Y-16105D01*
X12914Y-16105D01*
X12838Y-16086D01*
X12800Y-16067D01*
X12781Y-16048D01*
X12762Y-16010D01*
X12762Y-15743D02*
X12762Y-15495D01*
X12914Y-15629D01*
X12914Y-15571D01*
X12933Y-15533D01*
X12952Y-15514D01*
X12990Y-15495D01*
X13086Y-15495D01*
X13124Y-15514D01*
X13143Y-15533D01*
X13162Y-15571D01*
X13162Y-15686D01*
X13143Y-15724D01*
X13124Y-15743D01*
X44862Y-34486D02*
X44462Y-34486D01*
X44462Y-34333D01*
X44481Y-34295D01*
X44500Y-34276D01*
X44538Y-34257D01*
X44595Y-34257D01*
X44633Y-34276D01*
X44652Y-34295D01*
X44671Y-34333D01*
X44671Y-34486D01*
X44500Y-34105D02*
X44481Y-34086D01*
X44462Y-34048D01*
X44462Y-33952D01*
X44481Y-33914D01*
X44500Y-33895D01*
X44538Y-33876D01*
X44576Y-33876D01*
X44633Y-33895D01*
X44862Y-34124D01*
X44862Y-33876D01*
X44862Y-33495D02*
X44862Y-33724D01*
X44862Y-33610D02*
X44462Y-33610D01*
X44519Y-33648D01*
X44557Y-33686D01*
X44576Y-33724D01*
X44862Y-32986D02*
X44462Y-32986D01*
X44462Y-32833D01*
X44481Y-32795D01*
X44500Y-32776D01*
X44538Y-32757D01*
X44595Y-32757D01*
X44633Y-32776D01*
X44652Y-32795D01*
X44671Y-32833D01*
X44671Y-32986D01*
X44500Y-32605D02*
X44481Y-32586D01*
X44462Y-32548D01*
X44462Y-32452D01*
X44481Y-32414D01*
X44500Y-32395D01*
X44538Y-32376D01*
X44576Y-32376D01*
X44633Y-32395D01*
X44862Y-32624D01*
X44862Y-32376D01*
X44500Y-32224D02*
X44481Y-32205D01*
X44462Y-32167D01*
X44462Y-32071D01*
X44481Y-32033D01*
X44500Y-32014D01*
X44538Y-31995D01*
X44576Y-31995D01*
X44633Y-32014D01*
X44862Y-32243D01*
X44862Y-31995D01*
G54D10*
X34135Y-22121D02*
X34135Y-21821D01*
X34250Y-21821D01*
X34278Y-21836D01*
X34293Y-21850D01*
X34307Y-21879D01*
X34307Y-21921D01*
X34293Y-21950D01*
X34278Y-21964D01*
X34250Y-21979D01*
X34135Y-21979D01*
X34493Y-21821D02*
X34521Y-21821D01*
X34550Y-21836D01*
X34564Y-21850D01*
X34578Y-21879D01*
X34593Y-21936D01*
X34593Y-22007D01*
X34578Y-22064D01*
X34564Y-22093D01*
X34550Y-22107D01*
X34521Y-22121D01*
X34493Y-22121D01*
X34464Y-22107D01*
X34450Y-22093D01*
X34435Y-22064D01*
X34421Y-22007D01*
X34421Y-21936D01*
X34435Y-21879D01*
X34450Y-21850D01*
X34464Y-21836D01*
X34493Y-21821D01*
X34850Y-21921D02*
X34850Y-22121D01*
X34779Y-21807D02*
X34707Y-22021D01*
X34893Y-22021D01*
G54D13*
X42643Y-24242D02*
X42043Y-24242D01*
X42043Y-24014D01*
X42071Y-23956D01*
X42100Y-23928D01*
X42157Y-23899D01*
X42243Y-23899D01*
X42300Y-23928D01*
X42329Y-23956D01*
X42357Y-24014D01*
X42357Y-24242D01*
X42043Y-23528D02*
X42043Y-23471D01*
X42071Y-23414D01*
X42100Y-23385D01*
X42157Y-23356D01*
X42271Y-23328D01*
X42414Y-23328D01*
X42529Y-23356D01*
X42586Y-23385D01*
X42614Y-23414D01*
X42643Y-23471D01*
X42643Y-23528D01*
X42614Y-23585D01*
X42586Y-23614D01*
X42529Y-23642D01*
X42414Y-23671D01*
X42271Y-23671D01*
X42157Y-23642D01*
X42100Y-23614D01*
X42071Y-23585D01*
X42043Y-23528D01*
X36995Y-28682D02*
X36995Y-29046D01*
X37014Y-29089D01*
X37033Y-29111D01*
X37071Y-29132D01*
X37148Y-29132D01*
X37186Y-29111D01*
X37205Y-29089D01*
X37224Y-29046D01*
X37224Y-28682D01*
X37376Y-28682D02*
X37624Y-28682D01*
X37490Y-28854D01*
X37548Y-28854D01*
X37586Y-28875D01*
X37605Y-28896D01*
X37624Y-28939D01*
X37624Y-29046D01*
X37605Y-29089D01*
X37586Y-29111D01*
X37548Y-29132D01*
X37433Y-29132D01*
X37395Y-29111D01*
X37376Y-29089D01*
X36701Y-15742D02*
X36582Y-15825D01*
X36701Y-15884D02*
X36451Y-15884D01*
X36451Y-15789D01*
X36463Y-15765D01*
X36475Y-15754D01*
X36499Y-15742D01*
X36535Y-15742D01*
X36558Y-15754D01*
X36570Y-15765D01*
X36582Y-15789D01*
X36582Y-15884D01*
X36451Y-15658D02*
X36451Y-15492D01*
X36701Y-15599D01*
X36601Y-20792D02*
X36482Y-20875D01*
X36601Y-20934D02*
X36351Y-20934D01*
X36351Y-20839D01*
X36363Y-20815D01*
X36375Y-20804D01*
X36399Y-20792D01*
X36435Y-20792D01*
X36458Y-20804D01*
X36470Y-20815D01*
X36482Y-20839D01*
X36482Y-20934D01*
X36458Y-20649D02*
X36446Y-20673D01*
X36435Y-20684D01*
X36411Y-20696D01*
X36399Y-20696D01*
X36375Y-20684D01*
X36363Y-20673D01*
X36351Y-20649D01*
X36351Y-20601D01*
X36363Y-20577D01*
X36375Y-20565D01*
X36399Y-20554D01*
X36411Y-20554D01*
X36435Y-20565D01*
X36446Y-20577D01*
X36458Y-20601D01*
X36458Y-20649D01*
X36470Y-20673D01*
X36482Y-20684D01*
X36506Y-20696D01*
X36554Y-20696D01*
X36577Y-20684D01*
X36589Y-20673D01*
X36601Y-20649D01*
X36601Y-20601D01*
X36589Y-20577D01*
X36577Y-20565D01*
X36554Y-20554D01*
X36506Y-20554D01*
X36482Y-20565D01*
X36470Y-20577D01*
X36458Y-20601D01*
X38401Y-25242D02*
X38282Y-25325D01*
X38401Y-25384D02*
X38151Y-25384D01*
X38151Y-25289D01*
X38163Y-25265D01*
X38175Y-25254D01*
X38199Y-25242D01*
X38235Y-25242D01*
X38258Y-25254D01*
X38270Y-25265D01*
X38282Y-25289D01*
X38282Y-25384D01*
X38401Y-25123D02*
X38401Y-25075D01*
X38389Y-25051D01*
X38377Y-25039D01*
X38342Y-25015D01*
X38294Y-25004D01*
X38199Y-25004D01*
X38175Y-25015D01*
X38163Y-25027D01*
X38151Y-25051D01*
X38151Y-25099D01*
X38163Y-25123D01*
X38175Y-25134D01*
X38199Y-25146D01*
X38258Y-25146D01*
X38282Y-25134D01*
X38294Y-25123D01*
X38306Y-25099D01*
X38306Y-25051D01*
X38294Y-25027D01*
X38282Y-25015D01*
X38258Y-25004D01*
X41851Y-28661D02*
X41732Y-28744D01*
X41851Y-28803D02*
X41601Y-28803D01*
X41601Y-28708D01*
X41613Y-28684D01*
X41625Y-28673D01*
X41649Y-28661D01*
X41685Y-28661D01*
X41708Y-28673D01*
X41720Y-28684D01*
X41732Y-28708D01*
X41732Y-28803D01*
X41625Y-28565D02*
X41613Y-28553D01*
X41601Y-28530D01*
X41601Y-28470D01*
X41613Y-28446D01*
X41625Y-28434D01*
X41649Y-28423D01*
X41673Y-28423D01*
X41708Y-28434D01*
X41851Y-28577D01*
X41851Y-28423D01*
X41601Y-28268D02*
X41601Y-28244D01*
X41613Y-28220D01*
X41625Y-28208D01*
X41649Y-28196D01*
X41696Y-28185D01*
X41756Y-28185D01*
X41804Y-28196D01*
X41827Y-28208D01*
X41839Y-28220D01*
X41851Y-28244D01*
X41851Y-28268D01*
X41839Y-28292D01*
X41827Y-28304D01*
X41804Y-28315D01*
X41756Y-28327D01*
X41696Y-28327D01*
X41649Y-28315D01*
X41625Y-28304D01*
X41613Y-28292D01*
X41601Y-28268D01*
X41851Y-24161D02*
X41732Y-24244D01*
X41851Y-24303D02*
X41601Y-24303D01*
X41601Y-24208D01*
X41613Y-24184D01*
X41625Y-24173D01*
X41649Y-24161D01*
X41685Y-24161D01*
X41708Y-24173D01*
X41720Y-24184D01*
X41732Y-24208D01*
X41732Y-24303D01*
X41625Y-24065D02*
X41613Y-24053D01*
X41601Y-24030D01*
X41601Y-23970D01*
X41613Y-23946D01*
X41625Y-23934D01*
X41649Y-23923D01*
X41673Y-23923D01*
X41708Y-23934D01*
X41851Y-24077D01*
X41851Y-23923D01*
X41851Y-23685D02*
X41851Y-23827D01*
X41851Y-23756D02*
X41601Y-23756D01*
X41637Y-23780D01*
X41661Y-23804D01*
X41673Y-23827D01*
X39851Y-24911D02*
X39732Y-24994D01*
X39851Y-25053D02*
X39601Y-25053D01*
X39601Y-24958D01*
X39613Y-24934D01*
X39625Y-24923D01*
X39649Y-24911D01*
X39685Y-24911D01*
X39708Y-24923D01*
X39720Y-24934D01*
X39732Y-24958D01*
X39732Y-25053D01*
X39625Y-24815D02*
X39613Y-24803D01*
X39601Y-24780D01*
X39601Y-24720D01*
X39613Y-24696D01*
X39625Y-24684D01*
X39649Y-24673D01*
X39673Y-24673D01*
X39708Y-24684D01*
X39851Y-24827D01*
X39851Y-24673D01*
X39625Y-24577D02*
X39613Y-24565D01*
X39601Y-24542D01*
X39601Y-24482D01*
X39613Y-24458D01*
X39625Y-24446D01*
X39649Y-24435D01*
X39673Y-24435D01*
X39708Y-24446D01*
X39851Y-24589D01*
X39851Y-24435D01*
X41851Y-25411D02*
X41732Y-25494D01*
X41851Y-25553D02*
X41601Y-25553D01*
X41601Y-25458D01*
X41613Y-25434D01*
X41625Y-25423D01*
X41649Y-25411D01*
X41685Y-25411D01*
X41708Y-25423D01*
X41720Y-25434D01*
X41732Y-25458D01*
X41732Y-25553D01*
X41625Y-25315D02*
X41613Y-25303D01*
X41601Y-25280D01*
X41601Y-25220D01*
X41613Y-25196D01*
X41625Y-25184D01*
X41649Y-25173D01*
X41673Y-25173D01*
X41708Y-25184D01*
X41851Y-25327D01*
X41851Y-25173D01*
X41601Y-25089D02*
X41601Y-24935D01*
X41696Y-25018D01*
X41696Y-24982D01*
X41708Y-24958D01*
X41720Y-24946D01*
X41744Y-24935D01*
X41804Y-24935D01*
X41827Y-24946D01*
X41839Y-24958D01*
X41851Y-24982D01*
X41851Y-25054D01*
X41839Y-25077D01*
X41827Y-25089D01*
X39851Y-26411D02*
X39732Y-26494D01*
X39851Y-26553D02*
X39601Y-26553D01*
X39601Y-26458D01*
X39613Y-26434D01*
X39625Y-26423D01*
X39649Y-26411D01*
X39685Y-26411D01*
X39708Y-26423D01*
X39720Y-26434D01*
X39732Y-26458D01*
X39732Y-26553D01*
X39625Y-26315D02*
X39613Y-26303D01*
X39601Y-26280D01*
X39601Y-26220D01*
X39613Y-26196D01*
X39625Y-26184D01*
X39649Y-26173D01*
X39673Y-26173D01*
X39708Y-26184D01*
X39851Y-26327D01*
X39851Y-26173D01*
X39685Y-25958D02*
X39851Y-25958D01*
X39589Y-26018D02*
X39768Y-26077D01*
X39768Y-25923D01*
X41851Y-27411D02*
X41732Y-27494D01*
X41851Y-27553D02*
X41601Y-27553D01*
X41601Y-27458D01*
X41613Y-27434D01*
X41625Y-27423D01*
X41649Y-27411D01*
X41685Y-27411D01*
X41708Y-27423D01*
X41720Y-27434D01*
X41732Y-27458D01*
X41732Y-27553D01*
X41625Y-27315D02*
X41613Y-27303D01*
X41601Y-27280D01*
X41601Y-27220D01*
X41613Y-27196D01*
X41625Y-27184D01*
X41649Y-27173D01*
X41673Y-27173D01*
X41708Y-27184D01*
X41851Y-27327D01*
X41851Y-27173D01*
X41601Y-26946D02*
X41601Y-27065D01*
X41720Y-27077D01*
X41708Y-27065D01*
X41696Y-27042D01*
X41696Y-26982D01*
X41708Y-26958D01*
X41720Y-26946D01*
X41744Y-26935D01*
X41804Y-26935D01*
X41827Y-26946D01*
X41839Y-26958D01*
X41851Y-26982D01*
X41851Y-27042D01*
X41839Y-27065D01*
X41827Y-27077D01*
X39851Y-27911D02*
X39732Y-27994D01*
X39851Y-28053D02*
X39601Y-28053D01*
X39601Y-27958D01*
X39613Y-27934D01*
X39625Y-27923D01*
X39649Y-27911D01*
X39685Y-27911D01*
X39708Y-27923D01*
X39720Y-27934D01*
X39732Y-27958D01*
X39732Y-28053D01*
X39625Y-27815D02*
X39613Y-27803D01*
X39601Y-27780D01*
X39601Y-27720D01*
X39613Y-27696D01*
X39625Y-27684D01*
X39649Y-27673D01*
X39673Y-27673D01*
X39708Y-27684D01*
X39851Y-27827D01*
X39851Y-27673D01*
X39601Y-27458D02*
X39601Y-27506D01*
X39613Y-27530D01*
X39625Y-27542D01*
X39661Y-27565D01*
X39708Y-27577D01*
X39804Y-27577D01*
X39827Y-27565D01*
X39839Y-27554D01*
X39851Y-27530D01*
X39851Y-27482D01*
X39839Y-27458D01*
X39827Y-27446D01*
X39804Y-27435D01*
X39744Y-27435D01*
X39720Y-27446D01*
X39708Y-27458D01*
X39696Y-27482D01*
X39696Y-27530D01*
X39708Y-27554D01*
X39720Y-27565D01*
X39744Y-27577D01*
G54D14*
X11243Y-09442D02*
X10643Y-09442D01*
X10643Y-09214D01*
X10671Y-09156D01*
X10700Y-09128D01*
X10757Y-09099D01*
X10843Y-09099D01*
X10900Y-09128D01*
X10929Y-09156D01*
X10957Y-09214D01*
X10957Y-09442D01*
X11243Y-08528D02*
X11243Y-08871D01*
X11243Y-08699D02*
X10643Y-08699D01*
X10729Y-08756D01*
X10786Y-08814D01*
X10814Y-08871D01*
X11243Y-13228D02*
X10643Y-13228D01*
X10643Y-13000D01*
X10671Y-12942D01*
X10700Y-12914D01*
X10757Y-12885D01*
X10843Y-12885D01*
X10900Y-12914D01*
X10929Y-12942D01*
X10957Y-13000D01*
X10957Y-13228D01*
X10700Y-12657D02*
X10671Y-12628D01*
X10643Y-12571D01*
X10643Y-12428D01*
X10671Y-12371D01*
X10700Y-12342D01*
X10757Y-12314D01*
X10814Y-12314D01*
X10900Y-12342D01*
X11243Y-12685D01*
X11243Y-12314D01*
X10643Y-11943D02*
X10643Y-11886D01*
X10671Y-11829D01*
X10700Y-11800D01*
X10757Y-11771D01*
X10871Y-11743D01*
X11014Y-11743D01*
X11129Y-11771D01*
X11186Y-11800D01*
X11214Y-11829D01*
X11243Y-11886D01*
X11243Y-11943D01*
X11214Y-12000D01*
X11186Y-12029D01*
X11129Y-12057D01*
X11014Y-12086D01*
X10871Y-12086D01*
X10757Y-12057D01*
X10700Y-12029D01*
X10671Y-12000D01*
X10643Y-11943D01*
X11243Y-32442D02*
X10643Y-32442D01*
X10643Y-32214D01*
X10671Y-32156D01*
X10700Y-32128D01*
X10757Y-32099D01*
X10843Y-32099D01*
X10900Y-32128D01*
X10929Y-32156D01*
X10957Y-32214D01*
X10957Y-32442D01*
X10700Y-31871D02*
X10671Y-31842D01*
X10643Y-31785D01*
X10643Y-31642D01*
X10671Y-31585D01*
X10700Y-31556D01*
X10757Y-31528D01*
X10814Y-31528D01*
X10900Y-31556D01*
X11243Y-31899D01*
X11243Y-31528D01*
X11243Y-36228D02*
X10643Y-36228D01*
X10643Y-36000D01*
X10671Y-35942D01*
X10700Y-35914D01*
X10757Y-35885D01*
X10843Y-35885D01*
X10900Y-35914D01*
X10929Y-35942D01*
X10957Y-36000D01*
X10957Y-36228D01*
X10643Y-35685D02*
X10643Y-35314D01*
X10871Y-35514D01*
X10871Y-35428D01*
X10900Y-35371D01*
X10929Y-35342D01*
X10986Y-35314D01*
X11129Y-35314D01*
X11186Y-35342D01*
X11214Y-35371D01*
X11243Y-35428D01*
X11243Y-35600D01*
X11214Y-35657D01*
X11186Y-35685D01*
X10643Y-34943D02*
X10643Y-34886D01*
X10671Y-34829D01*
X10700Y-34800D01*
X10757Y-34771D01*
X10871Y-34743D01*
X11014Y-34743D01*
X11129Y-34771D01*
X11186Y-34800D01*
X11214Y-34829D01*
X11243Y-34886D01*
X11243Y-34943D01*
X11214Y-35000D01*
X11186Y-35029D01*
X11129Y-35057D01*
X11014Y-35086D01*
X10871Y-35086D01*
X10757Y-35057D01*
X10700Y-35029D01*
X10671Y-35000D01*
X10643Y-34943D01*
M02*
