G04 (created by PCBNEW-RS274X (2012-01-19 BZR 3256)-stable) date 13/09/2012 15:52:14*
G01*
G70*
G90*
%MOIN*%
G04 Gerber Fmt 3.4, Leading zero omitted, Abs format*
%FSLAX34Y34*%
G04 APERTURE LIST*
%ADD10C,0.006000*%
%ADD11R,0.060000X0.060000*%
%ADD12C,0.060000*%
%ADD13C,0.025000*%
%ADD14C,0.008000*%
%ADD15C,0.020000*%
%ADD16C,0.010000*%
G04 APERTURE END LIST*
G54D10*
G54D11*
X45500Y-16000D03*
G54D12*
X46500Y-16000D03*
X45500Y-17000D03*
X46500Y-17000D03*
X45500Y-18000D03*
X46500Y-18000D03*
X45500Y-19000D03*
X46500Y-19000D03*
X45500Y-20000D03*
X46500Y-20000D03*
X45500Y-21000D03*
X46500Y-21000D03*
G54D11*
X45500Y-11500D03*
G54D12*
X46500Y-11500D03*
X45500Y-12500D03*
X46500Y-12500D03*
X45500Y-13500D03*
X46500Y-13500D03*
X45500Y-14500D03*
X46500Y-14500D03*
G54D11*
X45500Y-07000D03*
G54D12*
X46500Y-07000D03*
X45500Y-08000D03*
X46500Y-08000D03*
X45500Y-09000D03*
X46500Y-09000D03*
X45500Y-10000D03*
X46500Y-10000D03*
G54D11*
X11000Y-25250D03*
G54D12*
X12000Y-25250D03*
X11000Y-26250D03*
X12000Y-26250D03*
X11000Y-27250D03*
X12000Y-27250D03*
X11000Y-28250D03*
X12000Y-28250D03*
G54D11*
X11000Y-20500D03*
G54D12*
X12000Y-20500D03*
X11000Y-21500D03*
X12000Y-21500D03*
X11000Y-22500D03*
X12000Y-22500D03*
X11000Y-23500D03*
X12000Y-23500D03*
G54D11*
X11000Y-15750D03*
G54D12*
X12000Y-15750D03*
X11000Y-16750D03*
X12000Y-16750D03*
X11000Y-17750D03*
X12000Y-17750D03*
X11000Y-18750D03*
X12000Y-18750D03*
G54D11*
X45500Y-34000D03*
G54D12*
X46500Y-34000D03*
X45500Y-35000D03*
X46500Y-35000D03*
X45500Y-36000D03*
X46500Y-36000D03*
X45500Y-37000D03*
X46500Y-37000D03*
G54D11*
X45500Y-29500D03*
G54D12*
X46500Y-29500D03*
X45500Y-30500D03*
X46500Y-30500D03*
X45500Y-31500D03*
X46500Y-31500D03*
X45500Y-32500D03*
X46500Y-32500D03*
G54D11*
X36500Y-22000D03*
G54D12*
X35500Y-22000D03*
G54D11*
X43000Y-10000D03*
G54D12*
X43000Y-11000D03*
X42000Y-10000D03*
X42000Y-11000D03*
X41000Y-10000D03*
X41000Y-11000D03*
X40000Y-10000D03*
X40000Y-11000D03*
X39000Y-10000D03*
X39000Y-11000D03*
X38000Y-10000D03*
X38000Y-11000D03*
X37000Y-10000D03*
X37000Y-11000D03*
X36000Y-10000D03*
X36000Y-11000D03*
X35000Y-10000D03*
X35000Y-11000D03*
X34000Y-10000D03*
X34000Y-11000D03*
X33000Y-10000D03*
X33000Y-11000D03*
X32000Y-10000D03*
X32000Y-11000D03*
X31000Y-10000D03*
X31000Y-11000D03*
X30000Y-10000D03*
X30000Y-11000D03*
X29000Y-10000D03*
X29000Y-11000D03*
X28000Y-10000D03*
X28000Y-11000D03*
X27000Y-10000D03*
X27000Y-11000D03*
X26000Y-10000D03*
X26000Y-11000D03*
X25000Y-10000D03*
X25000Y-11000D03*
X24000Y-10000D03*
X24000Y-11000D03*
X23000Y-10000D03*
X23000Y-11000D03*
X22000Y-10000D03*
X22000Y-11000D03*
X21000Y-10000D03*
X21000Y-11000D03*
X20000Y-10000D03*
X20000Y-11000D03*
X19000Y-10000D03*
X19000Y-11000D03*
X18000Y-10000D03*
X18000Y-11000D03*
X17000Y-10000D03*
X17000Y-11000D03*
X16000Y-10000D03*
X16000Y-11000D03*
X15000Y-10000D03*
X15000Y-11000D03*
X14000Y-10000D03*
X14000Y-11000D03*
X13000Y-10000D03*
X13000Y-11000D03*
X12000Y-10000D03*
X12000Y-11000D03*
G54D11*
X12000Y-34000D03*
G54D12*
X12000Y-33000D03*
X13000Y-34000D03*
X13000Y-33000D03*
X14000Y-34000D03*
X14000Y-33000D03*
X15000Y-34000D03*
X15000Y-33000D03*
X16000Y-34000D03*
X16000Y-33000D03*
X17000Y-34000D03*
X17000Y-33000D03*
X18000Y-34000D03*
X18000Y-33000D03*
X19000Y-34000D03*
X19000Y-33000D03*
X20000Y-34000D03*
X20000Y-33000D03*
X21000Y-34000D03*
X21000Y-33000D03*
X22000Y-34000D03*
X22000Y-33000D03*
X23000Y-34000D03*
X23000Y-33000D03*
X24000Y-34000D03*
X24000Y-33000D03*
X25000Y-34000D03*
X25000Y-33000D03*
X26000Y-34000D03*
X26000Y-33000D03*
X27000Y-34000D03*
X27000Y-33000D03*
X28000Y-34000D03*
X28000Y-33000D03*
X29000Y-34000D03*
X29000Y-33000D03*
X30000Y-34000D03*
X30000Y-33000D03*
X31000Y-34000D03*
X31000Y-33000D03*
X32000Y-34000D03*
X32000Y-33000D03*
X33000Y-34000D03*
X33000Y-33000D03*
X34000Y-34000D03*
X34000Y-33000D03*
X35000Y-34000D03*
X35000Y-33000D03*
X36000Y-34000D03*
X36000Y-33000D03*
X37000Y-34000D03*
X37000Y-33000D03*
X38000Y-34000D03*
X38000Y-33000D03*
X39000Y-34000D03*
X39000Y-33000D03*
X40000Y-34000D03*
X40000Y-33000D03*
X41000Y-34000D03*
X41000Y-33000D03*
X42000Y-34000D03*
X42000Y-33000D03*
X43000Y-34000D03*
X43000Y-33000D03*
G54D13*
X40400Y-30100D03*
X43300Y-31000D03*
X20900Y-29400D03*
X16800Y-20000D03*
X17100Y-19800D03*
X20800Y-31500D03*
X17900Y-26300D03*
X17400Y-20000D03*
X17800Y-20000D03*
X17900Y-25900D03*
X17900Y-25500D03*
X18200Y-20000D03*
X17500Y-25000D03*
X17500Y-25400D03*
X19000Y-17700D03*
X21500Y-25900D03*
X28700Y-16100D03*
X28400Y-16300D03*
X19200Y-18000D03*
X21500Y-25500D03*
X25500Y-25500D03*
X23000Y-17900D03*
X23300Y-17700D03*
X25500Y-25100D03*
X23300Y-17300D03*
X25000Y-24500D03*
X23000Y-17100D03*
X24800Y-24100D03*
X23000Y-16700D03*
X24800Y-23700D03*
X23300Y-16500D03*
X25000Y-23400D03*
X28100Y-16500D03*
X21500Y-25100D03*
X19400Y-18300D03*
X19600Y-18600D03*
X27800Y-16700D03*
X21500Y-24700D03*
X28700Y-18500D03*
X21500Y-24300D03*
X19800Y-18900D03*
X20000Y-19200D03*
X21500Y-23900D03*
X28400Y-18700D03*
X28100Y-18900D03*
X20200Y-19500D03*
X21500Y-23500D03*
X27800Y-19100D03*
X21900Y-23500D03*
X20400Y-19800D03*
X25500Y-26300D03*
X22400Y-18300D03*
X25500Y-25900D03*
X22700Y-18100D03*
X27900Y-15300D03*
X26100Y-14300D03*
X24700Y-16600D03*
X28200Y-32200D03*
X25500Y-26700D03*
X22400Y-17900D03*
X20900Y-29000D03*
X25100Y-16600D03*
X17100Y-25400D03*
X22800Y-28500D03*
X16900Y-24800D03*
X24200Y-32200D03*
X18600Y-20000D03*
X26100Y-14700D03*
X14500Y-16600D03*
X41900Y-11800D03*
X44700Y-36000D03*
X44500Y-35000D03*
X44300Y-34000D03*
X43900Y-31500D03*
X43700Y-30500D03*
X44100Y-32500D03*
X43500Y-29500D03*
X40325Y-25625D03*
X41725Y-25625D03*
X42500Y-20700D03*
X21000Y-19000D03*
X41700Y-26500D03*
X23400Y-31600D03*
X25600Y-17200D03*
X13900Y-29900D03*
X32400Y-15500D03*
X18700Y-16100D03*
X26100Y-23400D03*
X34200Y-17300D03*
X15100Y-18700D03*
X42100Y-28400D03*
X39200Y-28300D03*
X34200Y-17700D03*
X14400Y-17300D03*
X14400Y-25000D03*
X25500Y-21000D03*
X36000Y-20300D03*
X36000Y-14800D03*
X25600Y-18200D03*
G54D14*
X42400Y-30100D02*
X40400Y-30100D01*
X43300Y-31000D02*
X42400Y-30100D01*
X46000Y-34500D02*
X46500Y-35000D01*
X46500Y-30500D02*
X46000Y-31000D01*
X46000Y-31000D02*
X46000Y-34500D01*
X47000Y-30000D02*
X46500Y-29500D01*
X46500Y-34000D02*
X47000Y-33500D01*
X47000Y-33500D02*
X47000Y-30000D01*
X19100Y-32500D02*
X12800Y-32500D01*
X20900Y-30700D02*
X19100Y-32500D01*
X12800Y-32500D02*
X12500Y-32800D01*
X20900Y-29400D02*
X20900Y-30700D01*
X12500Y-32800D02*
X12500Y-33500D01*
X12500Y-33500D02*
X12000Y-34000D01*
X19600Y-26800D02*
X21200Y-28400D01*
X16900Y-26800D02*
X19600Y-26800D01*
X19000Y-32900D02*
X19000Y-33000D01*
X15800Y-24300D02*
X15800Y-25700D01*
X16900Y-26800D02*
X15800Y-25700D01*
X16800Y-20000D02*
X16800Y-23300D01*
X16800Y-20000D02*
X16800Y-20000D01*
X21200Y-30700D02*
X19000Y-32900D01*
X21200Y-28400D02*
X21200Y-30700D01*
X16800Y-23300D02*
X15800Y-24300D01*
X19500Y-33500D02*
X19500Y-32800D01*
X19700Y-26600D02*
X17000Y-26600D01*
X16000Y-25600D02*
X17000Y-26600D01*
X21400Y-28300D02*
X21400Y-30900D01*
X19700Y-26600D02*
X21400Y-28300D01*
X19500Y-32800D02*
X20800Y-31500D01*
X17100Y-19800D02*
X17100Y-23300D01*
X17100Y-23300D02*
X16000Y-24400D01*
X21400Y-30900D02*
X20800Y-31500D01*
X16000Y-24400D02*
X16000Y-25600D01*
X20000Y-34000D02*
X19500Y-33500D01*
X17900Y-26300D02*
X17000Y-26300D01*
X19700Y-26300D02*
X21600Y-28200D01*
X16200Y-25500D02*
X16200Y-24500D01*
X20000Y-32700D02*
X20000Y-33000D01*
X17400Y-20000D02*
X17400Y-23300D01*
X17900Y-26300D02*
X19700Y-26300D01*
X17400Y-23300D02*
X16200Y-24500D01*
X21600Y-31100D02*
X20000Y-32700D01*
X17000Y-26300D02*
X16200Y-25500D01*
X21600Y-28200D02*
X21600Y-31100D01*
X17800Y-20000D02*
X17800Y-23200D01*
X17800Y-23200D02*
X16400Y-24600D01*
X16400Y-24600D02*
X16400Y-25400D01*
X20500Y-32800D02*
X20500Y-33500D01*
X21800Y-31500D02*
X20500Y-32800D01*
X16400Y-25400D02*
X16900Y-25900D01*
X20500Y-33500D02*
X21000Y-34000D01*
X21800Y-28100D02*
X21800Y-31500D01*
X16900Y-25900D02*
X17900Y-25900D01*
X19600Y-25900D02*
X21800Y-28100D01*
X17900Y-25900D02*
X19600Y-25900D01*
X18200Y-20000D02*
X18200Y-23100D01*
X17900Y-25500D02*
X19500Y-25500D01*
X16600Y-24700D02*
X16600Y-25300D01*
X22000Y-32000D02*
X21000Y-33000D01*
X16600Y-25300D02*
X17000Y-25700D01*
X18200Y-23100D02*
X16600Y-24700D01*
X17900Y-25500D02*
X17700Y-25700D01*
X17700Y-25700D02*
X17000Y-25700D01*
X22000Y-28000D02*
X22000Y-32000D01*
X19500Y-25500D02*
X22000Y-28000D01*
X19600Y-25000D02*
X22500Y-27900D01*
X22500Y-27900D02*
X22500Y-33500D01*
X17500Y-25000D02*
X19600Y-25000D01*
X22500Y-33500D02*
X22000Y-34000D01*
X17700Y-25200D02*
X19500Y-25200D01*
X22200Y-32800D02*
X22000Y-33000D01*
X22200Y-27900D02*
X22200Y-32800D01*
X17500Y-25400D02*
X17700Y-25200D01*
X22200Y-27900D02*
X19500Y-25200D01*
X19000Y-17700D02*
X19500Y-17700D01*
X21500Y-25900D02*
X24500Y-28900D01*
X25800Y-14800D02*
X27000Y-16000D01*
X18900Y-23300D02*
X21500Y-25900D01*
X24500Y-28900D02*
X24500Y-33500D01*
X27000Y-16000D02*
X28600Y-16000D01*
X22400Y-14800D02*
X25800Y-14800D01*
X28600Y-16000D02*
X28700Y-16100D01*
X18900Y-17800D02*
X19000Y-17700D01*
X19500Y-17700D02*
X22400Y-14800D01*
X18900Y-17800D02*
X18900Y-23300D01*
X24500Y-33500D02*
X25000Y-34000D01*
X19000Y-17700D02*
X18900Y-17800D01*
X25000Y-33000D02*
X25000Y-29000D01*
X19100Y-23100D02*
X21500Y-25500D01*
X22500Y-15000D02*
X25700Y-15000D01*
X28300Y-16200D02*
X28400Y-16300D01*
X19200Y-18000D02*
X19500Y-18000D01*
X19500Y-18000D02*
X22500Y-15000D01*
X19100Y-18100D02*
X19100Y-23100D01*
X19200Y-18000D02*
X19100Y-18100D01*
X26900Y-16200D02*
X28300Y-16200D01*
X25000Y-29000D02*
X21500Y-25500D01*
X25700Y-15000D02*
X26900Y-16200D01*
X29500Y-33500D02*
X30000Y-34000D01*
X25500Y-25500D02*
X29500Y-29500D01*
X25200Y-25500D02*
X25500Y-25500D01*
X29500Y-29500D02*
X29500Y-33500D01*
X23000Y-17900D02*
X23000Y-23300D01*
X23000Y-23300D02*
X25200Y-25500D01*
X30000Y-33000D02*
X30000Y-29600D01*
X30000Y-29600D02*
X25500Y-25100D01*
X25100Y-25100D02*
X23300Y-23300D01*
X25500Y-25100D02*
X25100Y-25100D01*
X23300Y-23300D02*
X23300Y-17700D01*
X23600Y-23300D02*
X24800Y-24500D01*
X23600Y-17600D02*
X23600Y-23300D01*
X25300Y-24500D02*
X30500Y-29700D01*
X24800Y-24500D02*
X25000Y-24500D01*
X30500Y-33500D02*
X31000Y-34000D01*
X25000Y-24500D02*
X25300Y-24500D01*
X23300Y-17300D02*
X23600Y-17600D01*
X30500Y-29700D02*
X30500Y-33500D01*
X23400Y-17000D02*
X23800Y-17400D01*
X25200Y-24100D02*
X24800Y-24100D01*
X23000Y-17100D02*
X23100Y-17000D01*
X24800Y-24100D02*
X24700Y-24100D01*
X25200Y-24100D02*
X31000Y-29900D01*
X24700Y-24100D02*
X23800Y-23200D01*
X23800Y-17400D02*
X23800Y-23200D01*
X31000Y-33000D02*
X31000Y-29900D01*
X23100Y-17000D02*
X23400Y-17000D01*
X23000Y-16700D02*
X23100Y-16800D01*
X25100Y-23700D02*
X31500Y-30100D01*
X23100Y-16800D02*
X23500Y-16800D01*
X24000Y-17300D02*
X24000Y-22900D01*
X24800Y-23700D02*
X24000Y-22900D01*
X23500Y-16800D02*
X24000Y-17300D01*
X31500Y-33500D02*
X32000Y-34000D01*
X24800Y-23700D02*
X25100Y-23700D01*
X31500Y-30100D02*
X31500Y-33500D01*
X24200Y-17200D02*
X24200Y-22600D01*
X23500Y-16500D02*
X24200Y-17200D01*
X25100Y-23400D02*
X32000Y-30300D01*
X25000Y-23400D02*
X24200Y-22600D01*
X32000Y-33000D02*
X32000Y-30300D01*
X23300Y-16500D02*
X23500Y-16500D01*
X25100Y-23400D02*
X25000Y-23400D01*
X26800Y-16400D02*
X28000Y-16400D01*
X21500Y-25100D02*
X25500Y-29100D01*
X28000Y-16400D02*
X28100Y-16500D01*
X19500Y-18300D02*
X22600Y-15200D01*
X19400Y-18300D02*
X19500Y-18300D01*
X19300Y-18400D02*
X19300Y-22900D01*
X25500Y-29100D02*
X25500Y-33500D01*
X22600Y-15200D02*
X25600Y-15200D01*
X19400Y-18300D02*
X19300Y-18400D01*
X19300Y-22900D02*
X21500Y-25100D01*
X25500Y-33500D02*
X26000Y-34000D01*
X25600Y-15200D02*
X26800Y-16400D01*
X26800Y-16700D02*
X27800Y-16700D01*
X22700Y-15400D02*
X25500Y-15400D01*
X26000Y-29200D02*
X21500Y-24700D01*
X19600Y-18600D02*
X19700Y-18500D01*
X19700Y-18500D02*
X19700Y-18400D01*
X19500Y-18700D02*
X19500Y-22700D01*
X19700Y-18400D02*
X22700Y-15400D01*
X19500Y-22700D02*
X21500Y-24700D01*
X26000Y-33000D02*
X26000Y-29200D01*
X19600Y-18600D02*
X19500Y-18700D01*
X25500Y-15400D02*
X26800Y-16700D01*
X19700Y-19000D02*
X19700Y-22500D01*
X22800Y-15600D02*
X25400Y-15600D01*
X26500Y-33500D02*
X27000Y-34000D01*
X21500Y-24300D02*
X26500Y-29300D01*
X19800Y-18900D02*
X19900Y-18800D01*
X25400Y-15600D02*
X28200Y-18400D01*
X26500Y-29300D02*
X26500Y-33500D01*
X19800Y-18900D02*
X19700Y-19000D01*
X19900Y-18800D02*
X19900Y-18500D01*
X19700Y-22500D02*
X21500Y-24300D01*
X28200Y-18400D02*
X28600Y-18400D01*
X19900Y-18500D02*
X22800Y-15600D01*
X28600Y-18400D02*
X28700Y-18500D01*
X20100Y-19100D02*
X20100Y-18600D01*
X27000Y-33000D02*
X27000Y-29400D01*
X28300Y-18600D02*
X28400Y-18700D01*
X25300Y-15800D02*
X28100Y-18600D01*
X22900Y-15800D02*
X25300Y-15800D01*
X20100Y-18600D02*
X22900Y-15800D01*
X19900Y-19300D02*
X19900Y-22300D01*
X20000Y-19200D02*
X20100Y-19100D01*
X20000Y-19200D02*
X19900Y-19300D01*
X19900Y-22300D02*
X21500Y-23900D01*
X28100Y-18600D02*
X28300Y-18600D01*
X27000Y-29400D02*
X21500Y-23900D01*
X20200Y-19500D02*
X20300Y-19400D01*
X21500Y-23500D02*
X27500Y-29500D01*
X25200Y-16000D02*
X23000Y-16000D01*
X25200Y-16000D02*
X28100Y-18900D01*
X20300Y-18700D02*
X23000Y-16000D01*
X20100Y-22100D02*
X20100Y-19600D01*
X20100Y-19600D02*
X20200Y-19500D01*
X27500Y-33500D02*
X28000Y-34000D01*
X21500Y-23500D02*
X20100Y-22100D01*
X20300Y-19400D02*
X20300Y-18700D01*
X20200Y-19500D02*
X20100Y-19600D01*
X27500Y-29500D02*
X27500Y-33500D01*
X27900Y-29500D02*
X27900Y-32900D01*
X27800Y-18900D02*
X27800Y-19100D01*
X25100Y-16200D02*
X27800Y-18900D01*
X20500Y-18800D02*
X23100Y-16200D01*
X20400Y-22000D02*
X20400Y-19800D01*
X20400Y-19800D02*
X20500Y-19700D01*
X23100Y-16200D02*
X25100Y-16200D01*
X21900Y-23500D02*
X27900Y-29500D01*
X21900Y-23500D02*
X20400Y-22000D01*
X20500Y-19700D02*
X20500Y-18800D01*
X27900Y-32900D02*
X28000Y-33000D01*
X28500Y-33500D02*
X28500Y-29300D01*
X28500Y-29300D02*
X25500Y-26300D01*
X22400Y-23300D02*
X25400Y-26300D01*
X25400Y-26300D02*
X25500Y-26300D01*
X29000Y-34000D02*
X28500Y-33500D01*
X25400Y-26300D02*
X25500Y-26300D01*
X25400Y-26300D02*
X25500Y-26300D01*
X22400Y-18300D02*
X22400Y-23300D01*
X25500Y-25900D02*
X25300Y-25900D01*
X22700Y-18100D02*
X22700Y-23300D01*
X22700Y-23300D02*
X25300Y-25900D01*
X29000Y-33000D02*
X29000Y-29400D01*
X29000Y-29400D02*
X25500Y-25900D01*
X25300Y-25900D02*
X25500Y-25900D01*
X27100Y-15300D02*
X27900Y-15300D01*
X26100Y-14300D02*
X27100Y-15300D01*
X12500Y-25750D02*
X12000Y-26250D01*
X12000Y-21500D02*
X12500Y-22000D01*
X12500Y-22000D02*
X12500Y-25750D01*
X11500Y-21000D02*
X11500Y-24750D01*
X12000Y-20500D02*
X11500Y-21000D01*
X11500Y-24750D02*
X12000Y-25250D01*
X24400Y-16900D02*
X24400Y-22400D01*
X32200Y-32000D02*
X32200Y-30200D01*
X34500Y-32500D02*
X32700Y-32500D01*
X32700Y-32500D02*
X32200Y-32000D01*
X24700Y-16600D02*
X24400Y-16900D01*
X35000Y-33000D02*
X34500Y-32500D01*
X24400Y-22400D02*
X32200Y-30200D01*
X22100Y-18200D02*
X22100Y-23300D01*
X22400Y-17900D02*
X22100Y-18200D01*
X25500Y-26700D02*
X28200Y-29400D01*
X22100Y-23300D02*
X25500Y-26700D01*
X28200Y-29400D02*
X28200Y-32200D01*
X11000Y-28250D02*
X11750Y-29000D01*
X11750Y-29000D02*
X20900Y-29000D01*
X24600Y-22300D02*
X32400Y-30100D01*
X35000Y-32300D02*
X35500Y-32800D01*
X32400Y-30100D02*
X32400Y-31900D01*
X35500Y-33500D02*
X36000Y-34000D01*
X32800Y-32300D02*
X35000Y-32300D01*
X24600Y-17100D02*
X24600Y-22300D01*
X32400Y-31900D02*
X32800Y-32300D01*
X25100Y-16600D02*
X24600Y-17100D01*
X35500Y-32800D02*
X35500Y-33500D01*
X19600Y-24700D02*
X22800Y-27900D01*
X22800Y-27900D02*
X22800Y-28500D01*
X17400Y-24700D02*
X19600Y-24700D01*
X17100Y-25000D02*
X17400Y-24700D01*
X17100Y-25400D02*
X17100Y-25000D01*
X18600Y-23100D02*
X18600Y-20000D01*
X26100Y-14700D02*
X26000Y-14600D01*
X18600Y-17700D02*
X18900Y-17400D01*
X19700Y-24500D02*
X17200Y-24500D01*
X18600Y-20000D02*
X18600Y-17700D01*
X26000Y-14600D02*
X22300Y-14600D01*
X18600Y-20000D02*
X18600Y-20000D01*
X19500Y-17400D02*
X22300Y-14600D01*
X16900Y-24800D02*
X18600Y-23100D01*
X24200Y-29000D02*
X19700Y-24500D01*
X24200Y-32200D02*
X24200Y-29000D01*
X17200Y-24500D02*
X16900Y-24800D01*
X18900Y-17400D02*
X19500Y-17400D01*
X14500Y-16600D02*
X12500Y-18600D01*
X12500Y-18600D02*
X12500Y-19000D01*
X12500Y-19000D02*
X11000Y-20500D01*
X33500Y-11200D02*
X33800Y-11500D01*
X45700Y-16500D02*
X46000Y-16800D01*
X33800Y-11500D02*
X42000Y-11500D01*
X45000Y-16400D02*
X45100Y-16500D01*
X46000Y-18500D02*
X45500Y-19000D01*
X33000Y-10000D02*
X33500Y-10500D01*
X45100Y-16500D02*
X45700Y-16500D01*
X33500Y-10500D02*
X33500Y-11200D01*
X42000Y-11500D02*
X45000Y-14500D01*
X45000Y-14500D02*
X45000Y-16400D01*
X46000Y-16800D02*
X46000Y-18500D01*
X41400Y-11700D02*
X44600Y-14900D01*
X44600Y-14900D02*
X44600Y-16800D01*
X33000Y-11000D02*
X33700Y-11700D01*
X45500Y-18000D02*
X45500Y-17700D01*
X33700Y-11700D02*
X41400Y-11700D01*
X45500Y-17700D02*
X44600Y-16800D01*
X32500Y-11200D02*
X33200Y-11900D01*
X32000Y-10000D02*
X32500Y-10500D01*
X41300Y-11900D02*
X44400Y-15000D01*
X44400Y-15000D02*
X44400Y-18600D01*
X33200Y-11900D02*
X41300Y-11900D01*
X45500Y-19700D02*
X44400Y-18600D01*
X32500Y-10500D02*
X32500Y-11200D01*
X45500Y-20000D02*
X45500Y-19700D01*
X33100Y-12100D02*
X41200Y-12100D01*
X45500Y-20700D02*
X44200Y-19400D01*
X45500Y-21000D02*
X45500Y-20700D01*
X44200Y-15100D02*
X44200Y-19400D01*
X41200Y-12100D02*
X44200Y-15100D01*
X32000Y-11000D02*
X33100Y-12100D01*
X45500Y-17000D02*
X45300Y-17000D01*
X44800Y-14700D02*
X44800Y-16500D01*
X41900Y-11800D02*
X44800Y-14700D01*
X45300Y-17000D02*
X44800Y-16500D01*
X41000Y-11000D02*
X41500Y-10500D01*
X41838Y-09462D02*
X44038Y-09462D01*
X41500Y-10500D02*
X41500Y-09800D01*
X44038Y-09462D02*
X45500Y-08000D01*
X41500Y-09800D02*
X41838Y-09462D01*
X43200Y-09300D02*
X45500Y-07000D01*
X41700Y-09300D02*
X43200Y-09300D01*
X41000Y-10000D02*
X41700Y-09300D01*
X47200Y-12200D02*
X47200Y-18300D01*
X47000Y-07500D02*
X47000Y-11000D01*
X47000Y-11000D02*
X46500Y-11500D01*
X46500Y-07000D02*
X47000Y-07500D01*
X47200Y-18300D02*
X46500Y-19000D01*
X46500Y-11500D02*
X47200Y-12200D01*
X46000Y-12000D02*
X46500Y-12500D01*
X46500Y-18000D02*
X47000Y-17500D01*
X47000Y-13000D02*
X46500Y-12500D01*
X46000Y-08500D02*
X46000Y-12000D01*
X46500Y-08000D02*
X46000Y-08500D01*
X47000Y-17500D02*
X47000Y-13000D01*
G54D15*
X41725Y-25625D02*
X40325Y-25625D01*
G54D10*
G36*
X22977Y-17500D02*
X22967Y-17525D01*
X22926Y-17525D01*
X22788Y-17582D01*
X22700Y-17670D01*
X22613Y-17583D01*
X22475Y-17525D01*
X22326Y-17525D01*
X22188Y-17582D01*
X22083Y-17687D01*
X22025Y-17825D01*
X22025Y-17865D01*
X21895Y-17995D01*
X21832Y-18089D01*
X21810Y-18200D01*
X21810Y-23000D01*
X20690Y-21880D01*
X20690Y-20040D01*
X20717Y-20013D01*
X20775Y-19875D01*
X20775Y-19775D01*
X20790Y-19700D01*
X20790Y-18920D01*
X22625Y-17085D01*
X22625Y-17174D01*
X22682Y-17312D01*
X22787Y-17417D01*
X22925Y-17475D01*
X22966Y-17475D01*
X22977Y-17500D01*
X22977Y-17500D01*
G37*
G54D16*
X22977Y-17500D02*
X22967Y-17525D01*
X22926Y-17525D01*
X22788Y-17582D01*
X22700Y-17670D01*
X22613Y-17583D01*
X22475Y-17525D01*
X22326Y-17525D01*
X22188Y-17582D01*
X22083Y-17687D01*
X22025Y-17825D01*
X22025Y-17865D01*
X21895Y-17995D01*
X21832Y-18089D01*
X21810Y-18200D01*
X21810Y-23000D01*
X20690Y-21880D01*
X20690Y-20040D01*
X20717Y-20013D01*
X20775Y-19875D01*
X20775Y-19775D01*
X20790Y-19700D01*
X20790Y-18920D01*
X22625Y-17085D01*
X22625Y-17174D01*
X22682Y-17312D01*
X22787Y-17417D01*
X22925Y-17475D01*
X22966Y-17475D01*
X22977Y-17500D01*
G54D10*
G36*
X23921Y-32451D02*
X23891Y-32451D01*
X23689Y-32535D01*
X23535Y-32689D01*
X23500Y-32773D01*
X23465Y-32689D01*
X23311Y-32535D01*
X23109Y-32451D01*
X22891Y-32451D01*
X22790Y-32493D01*
X22790Y-28875D01*
X22874Y-28875D01*
X23012Y-28818D01*
X23117Y-28713D01*
X23175Y-28575D01*
X23175Y-28426D01*
X23146Y-28356D01*
X23910Y-29120D01*
X23910Y-31960D01*
X23883Y-31987D01*
X23825Y-32125D01*
X23825Y-32274D01*
X23882Y-32412D01*
X23921Y-32451D01*
X23921Y-32451D01*
G37*
G54D16*
X23921Y-32451D02*
X23891Y-32451D01*
X23689Y-32535D01*
X23535Y-32689D01*
X23500Y-32773D01*
X23465Y-32689D01*
X23311Y-32535D01*
X23109Y-32451D01*
X22891Y-32451D01*
X22790Y-32493D01*
X22790Y-28875D01*
X22874Y-28875D01*
X23012Y-28818D01*
X23117Y-28713D01*
X23175Y-28575D01*
X23175Y-28426D01*
X23146Y-28356D01*
X23910Y-29120D01*
X23910Y-31960D01*
X23883Y-31987D01*
X23825Y-32125D01*
X23825Y-32274D01*
X23882Y-32412D01*
X23921Y-32451D01*
G54D10*
G36*
X47175Y-37675D02*
X46999Y-37675D01*
X43549Y-37675D01*
X43549Y-34109D01*
X43549Y-33891D01*
X43543Y-33876D01*
X43543Y-33079D01*
X43532Y-32866D01*
X43472Y-32719D01*
X43378Y-32692D01*
X43308Y-32762D01*
X43308Y-32622D01*
X43281Y-32528D01*
X43079Y-32457D01*
X42866Y-32468D01*
X42719Y-32528D01*
X42692Y-32622D01*
X43000Y-32929D01*
X43308Y-32622D01*
X43308Y-32762D01*
X43071Y-33000D01*
X43378Y-33308D01*
X43472Y-33281D01*
X43543Y-33079D01*
X43543Y-33876D01*
X43465Y-33689D01*
X43311Y-33535D01*
X43219Y-33497D01*
X43281Y-33472D01*
X43308Y-33378D01*
X43000Y-33071D01*
X42692Y-33378D01*
X42719Y-33472D01*
X42784Y-33495D01*
X42689Y-33535D01*
X42535Y-33689D01*
X42500Y-33773D01*
X42465Y-33689D01*
X42311Y-33535D01*
X42226Y-33500D01*
X42311Y-33465D01*
X42465Y-33311D01*
X42502Y-33219D01*
X42528Y-33281D01*
X42622Y-33308D01*
X42929Y-33000D01*
X42622Y-32692D01*
X42528Y-32719D01*
X42504Y-32784D01*
X42465Y-32689D01*
X42311Y-32535D01*
X42109Y-32451D01*
X41891Y-32451D01*
X41689Y-32535D01*
X41535Y-32689D01*
X41500Y-32773D01*
X41465Y-32689D01*
X41311Y-32535D01*
X41109Y-32451D01*
X40891Y-32451D01*
X40689Y-32535D01*
X40535Y-32689D01*
X40500Y-32773D01*
X40465Y-32689D01*
X40311Y-32535D01*
X40109Y-32451D01*
X39891Y-32451D01*
X39689Y-32535D01*
X39575Y-32649D01*
X39575Y-28375D01*
X39575Y-28226D01*
X39518Y-28088D01*
X39413Y-27983D01*
X39275Y-27925D01*
X39126Y-27925D01*
X38988Y-27982D01*
X38883Y-28087D01*
X38825Y-28225D01*
X38825Y-28374D01*
X38882Y-28512D01*
X38987Y-28617D01*
X39125Y-28675D01*
X39274Y-28675D01*
X39412Y-28618D01*
X39517Y-28513D01*
X39575Y-28375D01*
X39575Y-32649D01*
X39535Y-32689D01*
X39500Y-32773D01*
X39465Y-32689D01*
X39311Y-32535D01*
X39109Y-32451D01*
X38891Y-32451D01*
X38689Y-32535D01*
X38535Y-32689D01*
X38500Y-32773D01*
X38465Y-32689D01*
X38311Y-32535D01*
X38109Y-32451D01*
X37891Y-32451D01*
X37689Y-32535D01*
X37535Y-32689D01*
X37500Y-32773D01*
X37465Y-32689D01*
X37311Y-32535D01*
X37109Y-32451D01*
X37049Y-32451D01*
X37049Y-22350D01*
X37049Y-22251D01*
X37049Y-21651D01*
X37011Y-21559D01*
X36941Y-21489D01*
X36850Y-21451D01*
X36751Y-21451D01*
X36375Y-21451D01*
X36375Y-20375D01*
X36375Y-20226D01*
X36375Y-14875D01*
X36375Y-14726D01*
X36318Y-14588D01*
X36213Y-14483D01*
X36075Y-14425D01*
X35926Y-14425D01*
X35788Y-14482D01*
X35683Y-14587D01*
X35625Y-14725D01*
X35625Y-14874D01*
X35682Y-15012D01*
X35787Y-15117D01*
X35925Y-15175D01*
X36074Y-15175D01*
X36212Y-15118D01*
X36317Y-15013D01*
X36375Y-14875D01*
X36375Y-20226D01*
X36318Y-20088D01*
X36213Y-19983D01*
X36075Y-19925D01*
X35926Y-19925D01*
X35788Y-19982D01*
X35683Y-20087D01*
X35625Y-20225D01*
X35625Y-20374D01*
X35682Y-20512D01*
X35787Y-20617D01*
X35925Y-20675D01*
X36074Y-20675D01*
X36212Y-20618D01*
X36317Y-20513D01*
X36375Y-20375D01*
X36375Y-21451D01*
X36151Y-21451D01*
X36059Y-21489D01*
X35989Y-21559D01*
X35951Y-21650D01*
X35951Y-21675D01*
X35811Y-21535D01*
X35609Y-21451D01*
X35391Y-21451D01*
X35189Y-21535D01*
X35035Y-21689D01*
X34951Y-21891D01*
X34951Y-22109D01*
X35035Y-22311D01*
X35189Y-22465D01*
X35391Y-22549D01*
X35609Y-22549D01*
X35811Y-22465D01*
X35951Y-22325D01*
X35951Y-22349D01*
X35989Y-22441D01*
X36059Y-22511D01*
X36150Y-22549D01*
X36249Y-22549D01*
X36849Y-22549D01*
X36941Y-22511D01*
X37011Y-22441D01*
X37049Y-22350D01*
X37049Y-32451D01*
X36891Y-32451D01*
X36689Y-32535D01*
X36535Y-32689D01*
X36500Y-32773D01*
X36465Y-32689D01*
X36311Y-32535D01*
X36109Y-32451D01*
X35891Y-32451D01*
X35689Y-32535D01*
X35667Y-32557D01*
X35205Y-32095D01*
X35111Y-32032D01*
X35000Y-32010D01*
X34575Y-32010D01*
X34575Y-17775D01*
X34575Y-17626D01*
X34518Y-17488D01*
X34413Y-17383D01*
X34275Y-17325D01*
X34126Y-17325D01*
X33988Y-17382D01*
X33883Y-17487D01*
X33825Y-17625D01*
X33825Y-17774D01*
X33882Y-17912D01*
X33987Y-18017D01*
X34125Y-18075D01*
X34274Y-18075D01*
X34412Y-18018D01*
X34517Y-17913D01*
X34575Y-17775D01*
X34575Y-32010D01*
X32920Y-32010D01*
X32690Y-31779D01*
X32690Y-30100D01*
X32689Y-30099D01*
X32668Y-29989D01*
X32667Y-29988D01*
X32605Y-29895D01*
X32604Y-29894D01*
X25975Y-23265D01*
X25975Y-18275D01*
X25975Y-18126D01*
X25918Y-17988D01*
X25813Y-17883D01*
X25675Y-17825D01*
X25526Y-17825D01*
X25388Y-17882D01*
X25283Y-17987D01*
X25225Y-18125D01*
X25225Y-18274D01*
X25282Y-18412D01*
X25387Y-18517D01*
X25525Y-18575D01*
X25674Y-18575D01*
X25812Y-18518D01*
X25917Y-18413D01*
X25975Y-18275D01*
X25975Y-23265D01*
X25875Y-23165D01*
X25875Y-21075D01*
X25875Y-20926D01*
X25818Y-20788D01*
X25713Y-20683D01*
X25575Y-20625D01*
X25426Y-20625D01*
X25288Y-20682D01*
X25183Y-20787D01*
X25125Y-20925D01*
X25125Y-21074D01*
X25182Y-21212D01*
X25287Y-21317D01*
X25425Y-21375D01*
X25574Y-21375D01*
X25712Y-21318D01*
X25817Y-21213D01*
X25875Y-21075D01*
X25875Y-23165D01*
X24890Y-22180D01*
X24890Y-17220D01*
X25135Y-16975D01*
X25174Y-16975D01*
X25312Y-16918D01*
X25360Y-16870D01*
X27451Y-18961D01*
X27425Y-19025D01*
X27425Y-19174D01*
X27482Y-19312D01*
X27587Y-19417D01*
X27725Y-19475D01*
X27874Y-19475D01*
X28012Y-19418D01*
X28117Y-19313D01*
X28132Y-19275D01*
X28174Y-19275D01*
X28312Y-19218D01*
X28417Y-19113D01*
X28432Y-19075D01*
X28474Y-19075D01*
X28612Y-19018D01*
X28717Y-18913D01*
X28732Y-18875D01*
X28774Y-18875D01*
X28912Y-18818D01*
X29017Y-18713D01*
X29075Y-18575D01*
X29075Y-18426D01*
X29018Y-18288D01*
X28913Y-18183D01*
X28775Y-18125D01*
X28675Y-18125D01*
X28600Y-18110D01*
X28320Y-18110D01*
X27200Y-16990D01*
X27560Y-16990D01*
X27587Y-17017D01*
X27725Y-17075D01*
X27874Y-17075D01*
X28012Y-17018D01*
X28117Y-16913D01*
X28132Y-16875D01*
X28174Y-16875D01*
X28312Y-16818D01*
X28417Y-16713D01*
X28432Y-16675D01*
X28474Y-16675D01*
X28612Y-16618D01*
X28717Y-16513D01*
X28732Y-16475D01*
X28774Y-16475D01*
X28912Y-16418D01*
X29017Y-16313D01*
X29075Y-16175D01*
X29075Y-16026D01*
X29018Y-15888D01*
X28913Y-15783D01*
X28775Y-15725D01*
X28675Y-15725D01*
X28600Y-15710D01*
X27120Y-15710D01*
X26955Y-15545D01*
X26989Y-15568D01*
X27100Y-15590D01*
X27660Y-15590D01*
X27687Y-15617D01*
X27825Y-15675D01*
X27974Y-15675D01*
X28112Y-15618D01*
X28217Y-15513D01*
X28275Y-15375D01*
X28275Y-15226D01*
X28218Y-15088D01*
X28113Y-14983D01*
X27975Y-14925D01*
X27826Y-14925D01*
X27688Y-14982D01*
X27660Y-15010D01*
X27220Y-15010D01*
X26475Y-14265D01*
X26475Y-14226D01*
X26418Y-14088D01*
X26313Y-13983D01*
X26175Y-13925D01*
X26026Y-13925D01*
X25888Y-13982D01*
X25783Y-14087D01*
X25725Y-14225D01*
X25725Y-14310D01*
X22300Y-14310D01*
X22189Y-14332D01*
X22095Y-14395D01*
X22094Y-14395D01*
X22094Y-14396D01*
X19380Y-17110D01*
X18900Y-17110D01*
X18789Y-17132D01*
X18695Y-17195D01*
X18395Y-17495D01*
X18332Y-17589D01*
X18310Y-17700D01*
X18310Y-19639D01*
X18275Y-19625D01*
X18126Y-19625D01*
X17999Y-19677D01*
X17875Y-19625D01*
X17726Y-19625D01*
X17599Y-19677D01*
X17475Y-19625D01*
X17433Y-19625D01*
X17418Y-19588D01*
X17313Y-19483D01*
X17175Y-19425D01*
X17026Y-19425D01*
X16888Y-19482D01*
X16783Y-19587D01*
X16767Y-19625D01*
X16726Y-19625D01*
X16588Y-19682D01*
X16483Y-19787D01*
X16425Y-19925D01*
X16425Y-20074D01*
X16482Y-20212D01*
X16510Y-20240D01*
X16510Y-23180D01*
X16308Y-23382D01*
X16308Y-11378D01*
X16000Y-11071D01*
X15929Y-11141D01*
X15929Y-11000D01*
X15622Y-10692D01*
X15528Y-10719D01*
X15504Y-10784D01*
X15465Y-10689D01*
X15311Y-10535D01*
X15226Y-10500D01*
X15311Y-10465D01*
X15465Y-10311D01*
X15502Y-10219D01*
X15528Y-10281D01*
X15622Y-10308D01*
X15929Y-10000D01*
X15622Y-09692D01*
X15528Y-09719D01*
X15504Y-09784D01*
X15465Y-09689D01*
X15311Y-09535D01*
X15109Y-09451D01*
X14891Y-09451D01*
X14689Y-09535D01*
X14535Y-09689D01*
X14500Y-09773D01*
X14465Y-09689D01*
X14311Y-09535D01*
X14109Y-09451D01*
X13891Y-09451D01*
X13689Y-09535D01*
X13535Y-09689D01*
X13500Y-09773D01*
X13465Y-09689D01*
X13311Y-09535D01*
X13109Y-09451D01*
X12891Y-09451D01*
X12689Y-09535D01*
X12535Y-09689D01*
X12500Y-09773D01*
X12465Y-09689D01*
X12311Y-09535D01*
X12109Y-09451D01*
X11891Y-09451D01*
X11689Y-09535D01*
X11535Y-09689D01*
X11451Y-09891D01*
X11451Y-10109D01*
X11535Y-10311D01*
X11689Y-10465D01*
X11773Y-10500D01*
X11689Y-10535D01*
X11535Y-10689D01*
X11451Y-10891D01*
X11451Y-11109D01*
X11535Y-11311D01*
X11689Y-11465D01*
X11891Y-11549D01*
X12109Y-11549D01*
X12311Y-11465D01*
X12465Y-11311D01*
X12500Y-11226D01*
X12535Y-11311D01*
X12689Y-11465D01*
X12891Y-11549D01*
X13109Y-11549D01*
X13311Y-11465D01*
X13465Y-11311D01*
X13500Y-11226D01*
X13535Y-11311D01*
X13689Y-11465D01*
X13891Y-11549D01*
X14109Y-11549D01*
X14311Y-11465D01*
X14465Y-11311D01*
X14500Y-11226D01*
X14535Y-11311D01*
X14689Y-11465D01*
X14891Y-11549D01*
X15109Y-11549D01*
X15311Y-11465D01*
X15465Y-11311D01*
X15502Y-11219D01*
X15528Y-11281D01*
X15622Y-11308D01*
X15929Y-11000D01*
X15929Y-11141D01*
X15692Y-11378D01*
X15719Y-11472D01*
X15921Y-11543D01*
X16134Y-11532D01*
X16281Y-11472D01*
X16308Y-11378D01*
X16308Y-23382D01*
X15595Y-24095D01*
X15532Y-24189D01*
X15510Y-24300D01*
X15510Y-25700D01*
X15532Y-25811D01*
X15595Y-25905D01*
X16694Y-27005D01*
X16695Y-27005D01*
X16789Y-27068D01*
X16900Y-27090D01*
X19479Y-27090D01*
X20910Y-28520D01*
X20910Y-28625D01*
X20826Y-28625D01*
X20688Y-28682D01*
X20660Y-28710D01*
X14775Y-28710D01*
X14775Y-25075D01*
X14775Y-24926D01*
X14718Y-24788D01*
X14613Y-24683D01*
X14475Y-24625D01*
X14326Y-24625D01*
X14188Y-24682D01*
X14083Y-24787D01*
X14025Y-24925D01*
X14025Y-25074D01*
X14082Y-25212D01*
X14187Y-25317D01*
X14325Y-25375D01*
X14474Y-25375D01*
X14612Y-25318D01*
X14717Y-25213D01*
X14775Y-25075D01*
X14775Y-28710D01*
X12316Y-28710D01*
X12465Y-28561D01*
X12549Y-28359D01*
X12549Y-28141D01*
X12465Y-27939D01*
X12311Y-27785D01*
X12226Y-27750D01*
X12311Y-27715D01*
X12465Y-27561D01*
X12549Y-27359D01*
X12549Y-27141D01*
X12465Y-26939D01*
X12311Y-26785D01*
X12226Y-26750D01*
X12311Y-26715D01*
X12465Y-26561D01*
X12549Y-26359D01*
X12549Y-26141D01*
X12540Y-26119D01*
X12705Y-25955D01*
X12768Y-25861D01*
X12790Y-25750D01*
X12790Y-22000D01*
X12768Y-21889D01*
X12705Y-21795D01*
X12540Y-21630D01*
X12549Y-21609D01*
X12549Y-21391D01*
X12465Y-21189D01*
X12311Y-21035D01*
X12226Y-21000D01*
X12311Y-20965D01*
X12465Y-20811D01*
X12549Y-20609D01*
X12549Y-20391D01*
X12465Y-20189D01*
X12311Y-20035D01*
X12109Y-19951D01*
X11959Y-19951D01*
X12705Y-19205D01*
X12768Y-19111D01*
X12790Y-19000D01*
X12790Y-18720D01*
X14057Y-17452D01*
X14082Y-17512D01*
X14187Y-17617D01*
X14325Y-17675D01*
X14474Y-17675D01*
X14612Y-17618D01*
X14717Y-17513D01*
X14775Y-17375D01*
X14775Y-17226D01*
X14718Y-17088D01*
X14613Y-16983D01*
X14584Y-16970D01*
X14712Y-16918D01*
X14817Y-16813D01*
X14875Y-16675D01*
X14875Y-16526D01*
X14818Y-16388D01*
X14713Y-16283D01*
X14575Y-16225D01*
X14426Y-16225D01*
X14288Y-16282D01*
X14183Y-16387D01*
X14125Y-16525D01*
X14125Y-16565D01*
X12358Y-18332D01*
X12311Y-18285D01*
X12226Y-18250D01*
X12311Y-18215D01*
X12465Y-18061D01*
X12549Y-17859D01*
X12549Y-17641D01*
X12465Y-17439D01*
X12311Y-17285D01*
X12226Y-17250D01*
X12311Y-17215D01*
X12465Y-17061D01*
X12549Y-16859D01*
X12549Y-16641D01*
X12465Y-16439D01*
X12311Y-16285D01*
X12226Y-16250D01*
X12311Y-16215D01*
X12465Y-16061D01*
X12549Y-15859D01*
X12549Y-15641D01*
X12465Y-15439D01*
X12311Y-15285D01*
X12109Y-15201D01*
X11891Y-15201D01*
X11689Y-15285D01*
X11549Y-15425D01*
X11549Y-15401D01*
X11511Y-15309D01*
X11441Y-15239D01*
X11350Y-15201D01*
X11251Y-15201D01*
X10651Y-15201D01*
X10559Y-15239D01*
X10489Y-15309D01*
X10451Y-15400D01*
X10451Y-15499D01*
X10451Y-16099D01*
X10489Y-16191D01*
X10559Y-16261D01*
X10650Y-16299D01*
X10675Y-16299D01*
X10535Y-16439D01*
X10451Y-16641D01*
X10451Y-16859D01*
X10535Y-17061D01*
X10689Y-17215D01*
X10773Y-17250D01*
X10689Y-17285D01*
X10535Y-17439D01*
X10451Y-17641D01*
X10451Y-17859D01*
X10535Y-18061D01*
X10689Y-18215D01*
X10773Y-18250D01*
X10689Y-18285D01*
X10535Y-18439D01*
X10451Y-18641D01*
X10451Y-18859D01*
X10535Y-19061D01*
X10689Y-19215D01*
X10891Y-19299D01*
X11109Y-19299D01*
X11311Y-19215D01*
X11465Y-19061D01*
X11500Y-18976D01*
X11535Y-19061D01*
X11689Y-19215D01*
X11820Y-19269D01*
X11139Y-19951D01*
X10651Y-19951D01*
X10559Y-19989D01*
X10489Y-20059D01*
X10451Y-20150D01*
X10451Y-20249D01*
X10451Y-20849D01*
X10489Y-20941D01*
X10559Y-21011D01*
X10650Y-21049D01*
X10675Y-21049D01*
X10535Y-21189D01*
X10451Y-21391D01*
X10451Y-21609D01*
X10535Y-21811D01*
X10689Y-21965D01*
X10773Y-22000D01*
X10689Y-22035D01*
X10535Y-22189D01*
X10451Y-22391D01*
X10451Y-22609D01*
X10535Y-22811D01*
X10689Y-22965D01*
X10773Y-23000D01*
X10689Y-23035D01*
X10535Y-23189D01*
X10451Y-23391D01*
X10451Y-23609D01*
X10535Y-23811D01*
X10689Y-23965D01*
X10891Y-24049D01*
X11109Y-24049D01*
X11210Y-24007D01*
X11210Y-24701D01*
X10651Y-24701D01*
X10559Y-24739D01*
X10489Y-24809D01*
X10451Y-24900D01*
X10451Y-24999D01*
X10451Y-25599D01*
X10489Y-25691D01*
X10559Y-25761D01*
X10650Y-25799D01*
X10675Y-25799D01*
X10535Y-25939D01*
X10451Y-26141D01*
X10451Y-26359D01*
X10535Y-26561D01*
X10689Y-26715D01*
X10773Y-26750D01*
X10689Y-26785D01*
X10535Y-26939D01*
X10451Y-27141D01*
X10451Y-27359D01*
X10535Y-27561D01*
X10689Y-27715D01*
X10773Y-27750D01*
X10689Y-27785D01*
X10535Y-27939D01*
X10451Y-28141D01*
X10451Y-28359D01*
X10535Y-28561D01*
X10689Y-28715D01*
X10891Y-28799D01*
X11109Y-28799D01*
X11129Y-28790D01*
X11544Y-29205D01*
X11545Y-29205D01*
X11639Y-29268D01*
X11750Y-29290D01*
X20539Y-29290D01*
X20525Y-29325D01*
X20525Y-29474D01*
X20582Y-29612D01*
X20610Y-29640D01*
X20610Y-30580D01*
X18980Y-32210D01*
X12800Y-32210D01*
X12689Y-32232D01*
X12595Y-32295D01*
X12333Y-32557D01*
X12311Y-32535D01*
X12109Y-32451D01*
X11891Y-32451D01*
X11689Y-32535D01*
X11535Y-32689D01*
X11451Y-32891D01*
X11451Y-33109D01*
X11535Y-33311D01*
X11675Y-33451D01*
X11651Y-33451D01*
X11559Y-33489D01*
X11489Y-33559D01*
X11451Y-33650D01*
X11451Y-33749D01*
X11451Y-34349D01*
X11489Y-34441D01*
X11559Y-34511D01*
X11650Y-34549D01*
X11749Y-34549D01*
X12349Y-34549D01*
X12441Y-34511D01*
X12511Y-34441D01*
X12549Y-34350D01*
X12549Y-34325D01*
X12689Y-34465D01*
X12891Y-34549D01*
X13109Y-34549D01*
X13311Y-34465D01*
X13465Y-34311D01*
X13500Y-34226D01*
X13535Y-34311D01*
X13689Y-34465D01*
X13891Y-34549D01*
X14109Y-34549D01*
X14311Y-34465D01*
X14465Y-34311D01*
X14500Y-34226D01*
X14535Y-34311D01*
X14689Y-34465D01*
X14891Y-34549D01*
X15109Y-34549D01*
X15311Y-34465D01*
X15465Y-34311D01*
X15500Y-34226D01*
X15535Y-34311D01*
X15689Y-34465D01*
X15891Y-34549D01*
X16109Y-34549D01*
X16311Y-34465D01*
X16465Y-34311D01*
X16500Y-34226D01*
X16535Y-34311D01*
X16689Y-34465D01*
X16891Y-34549D01*
X17109Y-34549D01*
X17311Y-34465D01*
X17465Y-34311D01*
X17500Y-34226D01*
X17535Y-34311D01*
X17689Y-34465D01*
X17891Y-34549D01*
X18109Y-34549D01*
X18311Y-34465D01*
X18465Y-34311D01*
X18500Y-34226D01*
X18535Y-34311D01*
X18689Y-34465D01*
X18891Y-34549D01*
X19109Y-34549D01*
X19311Y-34465D01*
X19465Y-34311D01*
X19500Y-34226D01*
X19535Y-34311D01*
X19689Y-34465D01*
X19891Y-34549D01*
X20109Y-34549D01*
X20311Y-34465D01*
X20465Y-34311D01*
X20500Y-34226D01*
X20535Y-34311D01*
X20689Y-34465D01*
X20891Y-34549D01*
X21109Y-34549D01*
X21311Y-34465D01*
X21465Y-34311D01*
X21500Y-34226D01*
X21535Y-34311D01*
X21689Y-34465D01*
X21891Y-34549D01*
X22109Y-34549D01*
X22311Y-34465D01*
X22465Y-34311D01*
X22500Y-34226D01*
X22535Y-34311D01*
X22689Y-34465D01*
X22891Y-34549D01*
X23109Y-34549D01*
X23311Y-34465D01*
X23465Y-34311D01*
X23500Y-34226D01*
X23535Y-34311D01*
X23689Y-34465D01*
X23891Y-34549D01*
X24109Y-34549D01*
X24311Y-34465D01*
X24465Y-34311D01*
X24500Y-34226D01*
X24535Y-34311D01*
X24689Y-34465D01*
X24891Y-34549D01*
X25109Y-34549D01*
X25311Y-34465D01*
X25465Y-34311D01*
X25500Y-34226D01*
X25535Y-34311D01*
X25689Y-34465D01*
X25891Y-34549D01*
X26109Y-34549D01*
X26311Y-34465D01*
X26465Y-34311D01*
X26500Y-34226D01*
X26535Y-34311D01*
X26689Y-34465D01*
X26891Y-34549D01*
X27109Y-34549D01*
X27311Y-34465D01*
X27465Y-34311D01*
X27500Y-34226D01*
X27535Y-34311D01*
X27689Y-34465D01*
X27891Y-34549D01*
X28109Y-34549D01*
X28311Y-34465D01*
X28465Y-34311D01*
X28500Y-34226D01*
X28535Y-34311D01*
X28689Y-34465D01*
X28891Y-34549D01*
X29109Y-34549D01*
X29311Y-34465D01*
X29465Y-34311D01*
X29500Y-34226D01*
X29535Y-34311D01*
X29689Y-34465D01*
X29891Y-34549D01*
X30109Y-34549D01*
X30311Y-34465D01*
X30465Y-34311D01*
X30500Y-34226D01*
X30535Y-34311D01*
X30689Y-34465D01*
X30891Y-34549D01*
X31109Y-34549D01*
X31311Y-34465D01*
X31465Y-34311D01*
X31500Y-34226D01*
X31535Y-34311D01*
X31689Y-34465D01*
X31891Y-34549D01*
X32109Y-34549D01*
X32311Y-34465D01*
X32465Y-34311D01*
X32500Y-34226D01*
X32535Y-34311D01*
X32689Y-34465D01*
X32891Y-34549D01*
X33109Y-34549D01*
X33311Y-34465D01*
X33465Y-34311D01*
X33500Y-34226D01*
X33535Y-34311D01*
X33689Y-34465D01*
X33891Y-34549D01*
X34109Y-34549D01*
X34311Y-34465D01*
X34465Y-34311D01*
X34500Y-34226D01*
X34535Y-34311D01*
X34689Y-34465D01*
X34891Y-34549D01*
X35109Y-34549D01*
X35311Y-34465D01*
X35465Y-34311D01*
X35500Y-34226D01*
X35535Y-34311D01*
X35689Y-34465D01*
X35891Y-34549D01*
X36109Y-34549D01*
X36311Y-34465D01*
X36465Y-34311D01*
X36500Y-34226D01*
X36535Y-34311D01*
X36689Y-34465D01*
X36891Y-34549D01*
X37109Y-34549D01*
X37311Y-34465D01*
X37465Y-34311D01*
X37500Y-34226D01*
X37535Y-34311D01*
X37689Y-34465D01*
X37891Y-34549D01*
X38109Y-34549D01*
X38311Y-34465D01*
X38465Y-34311D01*
X38500Y-34226D01*
X38535Y-34311D01*
X38689Y-34465D01*
X38891Y-34549D01*
X39109Y-34549D01*
X39311Y-34465D01*
X39465Y-34311D01*
X39500Y-34226D01*
X39535Y-34311D01*
X39689Y-34465D01*
X39891Y-34549D01*
X40109Y-34549D01*
X40311Y-34465D01*
X40465Y-34311D01*
X40500Y-34226D01*
X40535Y-34311D01*
X40689Y-34465D01*
X40891Y-34549D01*
X41109Y-34549D01*
X41311Y-34465D01*
X41465Y-34311D01*
X41500Y-34226D01*
X41535Y-34311D01*
X41689Y-34465D01*
X41891Y-34549D01*
X42109Y-34549D01*
X42311Y-34465D01*
X42465Y-34311D01*
X42500Y-34226D01*
X42535Y-34311D01*
X42689Y-34465D01*
X42891Y-34549D01*
X43109Y-34549D01*
X43311Y-34465D01*
X43465Y-34311D01*
X43549Y-34109D01*
X43549Y-37675D01*
X10325Y-37675D01*
X10325Y-06325D01*
X47175Y-06325D01*
X47175Y-07265D01*
X47040Y-07130D01*
X47049Y-07109D01*
X47049Y-06891D01*
X46965Y-06689D01*
X46811Y-06535D01*
X46609Y-06451D01*
X46391Y-06451D01*
X46189Y-06535D01*
X46049Y-06675D01*
X46049Y-06651D01*
X46011Y-06559D01*
X45941Y-06489D01*
X45850Y-06451D01*
X45751Y-06451D01*
X45151Y-06451D01*
X45059Y-06489D01*
X44989Y-06559D01*
X44951Y-06650D01*
X44951Y-06749D01*
X44951Y-07138D01*
X43079Y-09010D01*
X41700Y-09010D01*
X41589Y-09032D01*
X41495Y-09095D01*
X41494Y-09095D01*
X41494Y-09096D01*
X41130Y-09459D01*
X41109Y-09451D01*
X40891Y-09451D01*
X40689Y-09535D01*
X40535Y-09689D01*
X40500Y-09773D01*
X40465Y-09689D01*
X40311Y-09535D01*
X40109Y-09451D01*
X39891Y-09451D01*
X39689Y-09535D01*
X39535Y-09689D01*
X39500Y-09773D01*
X39465Y-09689D01*
X39311Y-09535D01*
X39109Y-09451D01*
X38891Y-09451D01*
X38689Y-09535D01*
X38535Y-09689D01*
X38500Y-09773D01*
X38465Y-09689D01*
X38311Y-09535D01*
X38109Y-09451D01*
X37891Y-09451D01*
X37689Y-09535D01*
X37535Y-09689D01*
X37500Y-09773D01*
X37465Y-09689D01*
X37311Y-09535D01*
X37109Y-09451D01*
X36891Y-09451D01*
X36689Y-09535D01*
X36535Y-09689D01*
X36500Y-09773D01*
X36465Y-09689D01*
X36311Y-09535D01*
X36109Y-09451D01*
X35891Y-09451D01*
X35689Y-09535D01*
X35535Y-09689D01*
X35500Y-09773D01*
X35465Y-09689D01*
X35311Y-09535D01*
X35109Y-09451D01*
X34891Y-09451D01*
X34689Y-09535D01*
X34535Y-09689D01*
X34500Y-09773D01*
X34465Y-09689D01*
X34311Y-09535D01*
X34109Y-09451D01*
X33891Y-09451D01*
X33689Y-09535D01*
X33535Y-09689D01*
X33500Y-09773D01*
X33465Y-09689D01*
X33311Y-09535D01*
X33109Y-09451D01*
X32891Y-09451D01*
X32689Y-09535D01*
X32535Y-09689D01*
X32500Y-09773D01*
X32465Y-09689D01*
X32311Y-09535D01*
X32109Y-09451D01*
X31891Y-09451D01*
X31689Y-09535D01*
X31535Y-09689D01*
X31500Y-09773D01*
X31465Y-09689D01*
X31311Y-09535D01*
X31109Y-09451D01*
X30891Y-09451D01*
X30689Y-09535D01*
X30535Y-09689D01*
X30500Y-09773D01*
X30465Y-09689D01*
X30311Y-09535D01*
X30109Y-09451D01*
X29891Y-09451D01*
X29689Y-09535D01*
X29535Y-09689D01*
X29500Y-09773D01*
X29465Y-09689D01*
X29311Y-09535D01*
X29109Y-09451D01*
X28891Y-09451D01*
X28689Y-09535D01*
X28535Y-09689D01*
X28500Y-09773D01*
X28465Y-09689D01*
X28311Y-09535D01*
X28109Y-09451D01*
X27891Y-09451D01*
X27689Y-09535D01*
X27535Y-09689D01*
X27500Y-09773D01*
X27465Y-09689D01*
X27311Y-09535D01*
X27109Y-09451D01*
X26891Y-09451D01*
X26689Y-09535D01*
X26535Y-09689D01*
X26500Y-09773D01*
X26465Y-09689D01*
X26311Y-09535D01*
X26109Y-09451D01*
X25891Y-09451D01*
X25689Y-09535D01*
X25535Y-09689D01*
X25500Y-09773D01*
X25465Y-09689D01*
X25311Y-09535D01*
X25109Y-09451D01*
X24891Y-09451D01*
X24689Y-09535D01*
X24535Y-09689D01*
X24500Y-09773D01*
X24465Y-09689D01*
X24311Y-09535D01*
X24109Y-09451D01*
X23891Y-09451D01*
X23689Y-09535D01*
X23535Y-09689D01*
X23500Y-09773D01*
X23465Y-09689D01*
X23311Y-09535D01*
X23109Y-09451D01*
X22891Y-09451D01*
X22689Y-09535D01*
X22535Y-09689D01*
X22500Y-09773D01*
X22465Y-09689D01*
X22311Y-09535D01*
X22109Y-09451D01*
X21891Y-09451D01*
X21689Y-09535D01*
X21535Y-09689D01*
X21500Y-09773D01*
X21465Y-09689D01*
X21311Y-09535D01*
X21109Y-09451D01*
X20891Y-09451D01*
X20689Y-09535D01*
X20535Y-09689D01*
X20500Y-09773D01*
X20465Y-09689D01*
X20311Y-09535D01*
X20109Y-09451D01*
X19891Y-09451D01*
X19689Y-09535D01*
X19535Y-09689D01*
X19500Y-09773D01*
X19465Y-09689D01*
X19311Y-09535D01*
X19109Y-09451D01*
X18891Y-09451D01*
X18689Y-09535D01*
X18535Y-09689D01*
X18500Y-09773D01*
X18465Y-09689D01*
X18311Y-09535D01*
X18109Y-09451D01*
X17891Y-09451D01*
X17689Y-09535D01*
X17535Y-09689D01*
X17500Y-09773D01*
X17465Y-09689D01*
X17311Y-09535D01*
X17109Y-09451D01*
X16891Y-09451D01*
X16689Y-09535D01*
X16535Y-09689D01*
X16497Y-09780D01*
X16472Y-09719D01*
X16378Y-09692D01*
X16308Y-09762D01*
X16308Y-09622D01*
X16281Y-09528D01*
X16079Y-09457D01*
X15866Y-09468D01*
X15719Y-09528D01*
X15692Y-09622D01*
X16000Y-09929D01*
X16308Y-09622D01*
X16308Y-09762D01*
X16071Y-10000D01*
X16378Y-10308D01*
X16472Y-10281D01*
X16495Y-10215D01*
X16535Y-10311D01*
X16689Y-10465D01*
X16773Y-10500D01*
X16689Y-10535D01*
X16535Y-10689D01*
X16497Y-10780D01*
X16472Y-10719D01*
X16378Y-10692D01*
X16308Y-10762D01*
X16308Y-10622D01*
X16281Y-10528D01*
X16207Y-10502D01*
X16281Y-10472D01*
X16308Y-10378D01*
X16000Y-10071D01*
X15692Y-10378D01*
X15719Y-10472D01*
X15792Y-10497D01*
X15719Y-10528D01*
X15692Y-10622D01*
X16000Y-10929D01*
X16308Y-10622D01*
X16308Y-10762D01*
X16071Y-11000D01*
X16378Y-11308D01*
X16472Y-11281D01*
X16495Y-11215D01*
X16535Y-11311D01*
X16689Y-11465D01*
X16891Y-11549D01*
X17109Y-11549D01*
X17311Y-11465D01*
X17465Y-11311D01*
X17500Y-11226D01*
X17535Y-11311D01*
X17689Y-11465D01*
X17891Y-11549D01*
X18109Y-11549D01*
X18311Y-11465D01*
X18465Y-11311D01*
X18500Y-11226D01*
X18535Y-11311D01*
X18689Y-11465D01*
X18891Y-11549D01*
X19109Y-11549D01*
X19311Y-11465D01*
X19465Y-11311D01*
X19500Y-11226D01*
X19535Y-11311D01*
X19689Y-11465D01*
X19891Y-11549D01*
X20109Y-11549D01*
X20311Y-11465D01*
X20465Y-11311D01*
X20500Y-11226D01*
X20535Y-11311D01*
X20689Y-11465D01*
X20891Y-11549D01*
X21109Y-11549D01*
X21311Y-11465D01*
X21465Y-11311D01*
X21500Y-11226D01*
X21535Y-11311D01*
X21689Y-11465D01*
X21891Y-11549D01*
X22109Y-11549D01*
X22311Y-11465D01*
X22465Y-11311D01*
X22500Y-11226D01*
X22535Y-11311D01*
X22689Y-11465D01*
X22891Y-11549D01*
X23109Y-11549D01*
X23311Y-11465D01*
X23465Y-11311D01*
X23500Y-11226D01*
X23535Y-11311D01*
X23689Y-11465D01*
X23891Y-11549D01*
X24109Y-11549D01*
X24311Y-11465D01*
X24465Y-11311D01*
X24500Y-11226D01*
X24535Y-11311D01*
X24689Y-11465D01*
X24891Y-11549D01*
X25109Y-11549D01*
X25311Y-11465D01*
X25465Y-11311D01*
X25500Y-11226D01*
X25535Y-11311D01*
X25689Y-11465D01*
X25891Y-11549D01*
X26109Y-11549D01*
X26311Y-11465D01*
X26465Y-11311D01*
X26500Y-11226D01*
X26535Y-11311D01*
X26689Y-11465D01*
X26891Y-11549D01*
X27109Y-11549D01*
X27311Y-11465D01*
X27465Y-11311D01*
X27500Y-11226D01*
X27535Y-11311D01*
X27689Y-11465D01*
X27891Y-11549D01*
X28109Y-11549D01*
X28311Y-11465D01*
X28465Y-11311D01*
X28500Y-11226D01*
X28535Y-11311D01*
X28689Y-11465D01*
X28891Y-11549D01*
X29109Y-11549D01*
X29311Y-11465D01*
X29465Y-11311D01*
X29500Y-11226D01*
X29535Y-11311D01*
X29689Y-11465D01*
X29891Y-11549D01*
X30109Y-11549D01*
X30311Y-11465D01*
X30465Y-11311D01*
X30500Y-11226D01*
X30535Y-11311D01*
X30689Y-11465D01*
X30891Y-11549D01*
X31109Y-11549D01*
X31311Y-11465D01*
X31465Y-11311D01*
X31500Y-11226D01*
X31535Y-11311D01*
X31689Y-11465D01*
X31891Y-11549D01*
X32109Y-11549D01*
X32129Y-11540D01*
X32894Y-12305D01*
X32895Y-12305D01*
X32989Y-12368D01*
X33100Y-12390D01*
X41079Y-12390D01*
X43910Y-15220D01*
X43910Y-19400D01*
X43932Y-19511D01*
X43995Y-19605D01*
X45057Y-20667D01*
X45035Y-20689D01*
X44951Y-20891D01*
X44951Y-21109D01*
X45035Y-21311D01*
X45189Y-21465D01*
X45391Y-21549D01*
X45609Y-21549D01*
X45811Y-21465D01*
X45965Y-21311D01*
X46000Y-21226D01*
X46035Y-21311D01*
X46189Y-21465D01*
X46391Y-21549D01*
X46609Y-21549D01*
X46811Y-21465D01*
X46965Y-21311D01*
X47049Y-21109D01*
X47049Y-20891D01*
X46965Y-20689D01*
X46811Y-20535D01*
X46726Y-20500D01*
X46811Y-20465D01*
X46965Y-20311D01*
X47049Y-20109D01*
X47049Y-19891D01*
X46965Y-19689D01*
X46811Y-19535D01*
X46726Y-19500D01*
X46811Y-19465D01*
X46965Y-19311D01*
X47049Y-19109D01*
X47049Y-18891D01*
X47040Y-18869D01*
X47175Y-18735D01*
X47175Y-29765D01*
X47040Y-29630D01*
X47049Y-29609D01*
X47049Y-29391D01*
X46999Y-29270D01*
X46999Y-27550D01*
X46999Y-26848D01*
X46999Y-24400D01*
X46999Y-23698D01*
X46293Y-23698D01*
X46293Y-24400D01*
X46999Y-24400D01*
X46999Y-26848D01*
X46293Y-26848D01*
X46293Y-27550D01*
X46999Y-27550D01*
X46999Y-29270D01*
X46965Y-29189D01*
X46811Y-29035D01*
X46609Y-28951D01*
X46391Y-28951D01*
X46189Y-29035D01*
X46049Y-29175D01*
X46049Y-29151D01*
X46011Y-29059D01*
X45941Y-28989D01*
X45850Y-28951D01*
X45751Y-28951D01*
X45151Y-28951D01*
X45059Y-28989D01*
X44989Y-29059D01*
X44951Y-29150D01*
X44951Y-29249D01*
X44951Y-29849D01*
X44989Y-29941D01*
X45059Y-30011D01*
X45150Y-30049D01*
X45175Y-30049D01*
X45035Y-30189D01*
X44951Y-30391D01*
X44951Y-30609D01*
X45035Y-30811D01*
X45189Y-30965D01*
X45273Y-31000D01*
X45189Y-31035D01*
X45035Y-31189D01*
X44951Y-31391D01*
X44951Y-31609D01*
X45035Y-31811D01*
X45189Y-31965D01*
X45273Y-32000D01*
X45189Y-32035D01*
X45035Y-32189D01*
X44951Y-32391D01*
X44951Y-32609D01*
X45035Y-32811D01*
X45189Y-32965D01*
X45391Y-33049D01*
X45609Y-33049D01*
X45710Y-33007D01*
X45710Y-33451D01*
X45151Y-33451D01*
X45059Y-33489D01*
X44989Y-33559D01*
X44951Y-33650D01*
X44951Y-33749D01*
X44951Y-34349D01*
X44989Y-34441D01*
X45059Y-34511D01*
X45150Y-34549D01*
X45175Y-34549D01*
X45035Y-34689D01*
X44951Y-34891D01*
X44951Y-35109D01*
X45035Y-35311D01*
X45189Y-35465D01*
X45273Y-35500D01*
X45189Y-35535D01*
X45035Y-35689D01*
X45000Y-35770D01*
X44913Y-35683D01*
X44875Y-35667D01*
X44875Y-35075D01*
X44875Y-34926D01*
X44818Y-34788D01*
X44713Y-34683D01*
X44675Y-34667D01*
X44675Y-34075D01*
X44675Y-33926D01*
X44618Y-33788D01*
X44513Y-33683D01*
X44475Y-33667D01*
X44475Y-32575D01*
X44475Y-32426D01*
X44418Y-32288D01*
X44313Y-32183D01*
X44275Y-32167D01*
X44275Y-31575D01*
X44275Y-31426D01*
X44218Y-31288D01*
X44113Y-31183D01*
X44075Y-31167D01*
X44075Y-30575D01*
X44075Y-30426D01*
X44018Y-30288D01*
X43913Y-30183D01*
X43875Y-30167D01*
X43875Y-29575D01*
X43875Y-29426D01*
X43818Y-29288D01*
X43713Y-29183D01*
X43575Y-29125D01*
X43426Y-29125D01*
X43288Y-29182D01*
X43183Y-29287D01*
X43125Y-29425D01*
X43125Y-29574D01*
X43182Y-29712D01*
X43287Y-29817D01*
X43425Y-29875D01*
X43574Y-29875D01*
X43712Y-29818D01*
X43817Y-29713D01*
X43875Y-29575D01*
X43875Y-30167D01*
X43775Y-30125D01*
X43626Y-30125D01*
X43488Y-30182D01*
X43383Y-30287D01*
X43325Y-30425D01*
X43325Y-30574D01*
X43346Y-30625D01*
X43335Y-30625D01*
X42605Y-29895D01*
X42511Y-29832D01*
X42400Y-29810D01*
X42100Y-29810D01*
X42100Y-25700D01*
X42100Y-25551D01*
X42043Y-25413D01*
X41938Y-25308D01*
X41800Y-25250D01*
X41651Y-25250D01*
X41590Y-25275D01*
X40459Y-25275D01*
X40400Y-25250D01*
X40251Y-25250D01*
X40113Y-25307D01*
X40008Y-25412D01*
X39950Y-25550D01*
X39950Y-25699D01*
X40007Y-25837D01*
X40112Y-25942D01*
X40250Y-26000D01*
X40399Y-26000D01*
X40459Y-25975D01*
X41590Y-25975D01*
X41650Y-26000D01*
X41799Y-26000D01*
X41937Y-25943D01*
X42042Y-25838D01*
X42100Y-25700D01*
X42100Y-29810D01*
X40640Y-29810D01*
X40613Y-29783D01*
X40475Y-29725D01*
X40326Y-29725D01*
X40188Y-29782D01*
X40083Y-29887D01*
X40025Y-30025D01*
X40025Y-30174D01*
X40082Y-30312D01*
X40187Y-30417D01*
X40325Y-30475D01*
X40474Y-30475D01*
X40612Y-30418D01*
X40640Y-30390D01*
X42279Y-30390D01*
X42925Y-31035D01*
X42925Y-31074D01*
X42982Y-31212D01*
X43087Y-31317D01*
X43225Y-31375D01*
X43374Y-31375D01*
X43512Y-31318D01*
X43617Y-31213D01*
X43675Y-31075D01*
X43675Y-30926D01*
X43653Y-30875D01*
X43774Y-30875D01*
X43912Y-30818D01*
X44017Y-30713D01*
X44075Y-30575D01*
X44075Y-31167D01*
X43975Y-31125D01*
X43826Y-31125D01*
X43688Y-31182D01*
X43583Y-31287D01*
X43525Y-31425D01*
X43525Y-31574D01*
X43582Y-31712D01*
X43687Y-31817D01*
X43825Y-31875D01*
X43974Y-31875D01*
X44112Y-31818D01*
X44217Y-31713D01*
X44275Y-31575D01*
X44275Y-32167D01*
X44175Y-32125D01*
X44026Y-32125D01*
X43888Y-32182D01*
X43783Y-32287D01*
X43725Y-32425D01*
X43725Y-32574D01*
X43782Y-32712D01*
X43887Y-32817D01*
X44025Y-32875D01*
X44174Y-32875D01*
X44312Y-32818D01*
X44417Y-32713D01*
X44475Y-32575D01*
X44475Y-33667D01*
X44375Y-33625D01*
X44226Y-33625D01*
X44088Y-33682D01*
X43983Y-33787D01*
X43925Y-33925D01*
X43925Y-34074D01*
X43982Y-34212D01*
X44087Y-34317D01*
X44225Y-34375D01*
X44374Y-34375D01*
X44512Y-34318D01*
X44617Y-34213D01*
X44675Y-34075D01*
X44675Y-34667D01*
X44575Y-34625D01*
X44426Y-34625D01*
X44288Y-34682D01*
X44183Y-34787D01*
X44125Y-34925D01*
X44125Y-35074D01*
X44182Y-35212D01*
X44287Y-35317D01*
X44425Y-35375D01*
X44574Y-35375D01*
X44712Y-35318D01*
X44817Y-35213D01*
X44875Y-35075D01*
X44875Y-35667D01*
X44775Y-35625D01*
X44626Y-35625D01*
X44488Y-35682D01*
X44383Y-35787D01*
X44325Y-35925D01*
X44325Y-36074D01*
X44382Y-36212D01*
X44487Y-36317D01*
X44625Y-36375D01*
X44774Y-36375D01*
X44912Y-36318D01*
X45000Y-36229D01*
X45035Y-36311D01*
X45189Y-36465D01*
X45273Y-36500D01*
X45189Y-36535D01*
X45035Y-36689D01*
X44951Y-36891D01*
X44951Y-37109D01*
X45035Y-37311D01*
X45189Y-37465D01*
X45391Y-37549D01*
X45609Y-37549D01*
X45811Y-37465D01*
X45965Y-37311D01*
X46000Y-37226D01*
X46035Y-37311D01*
X46189Y-37465D01*
X46391Y-37549D01*
X46609Y-37549D01*
X46811Y-37465D01*
X46965Y-37311D01*
X46999Y-37229D01*
X47049Y-37109D01*
X47049Y-36891D01*
X46999Y-36770D01*
X46965Y-36689D01*
X46811Y-36535D01*
X46726Y-36500D01*
X46811Y-36465D01*
X46965Y-36311D01*
X46999Y-36229D01*
X47049Y-36109D01*
X47049Y-35891D01*
X46999Y-35770D01*
X46965Y-35689D01*
X46811Y-35535D01*
X46726Y-35500D01*
X46811Y-35465D01*
X46965Y-35311D01*
X46999Y-35229D01*
X47049Y-35109D01*
X47049Y-34891D01*
X46999Y-34770D01*
X46965Y-34689D01*
X46811Y-34535D01*
X46726Y-34500D01*
X46811Y-34465D01*
X46965Y-34311D01*
X46999Y-34229D01*
X47049Y-34109D01*
X47049Y-33891D01*
X47040Y-33869D01*
X47175Y-33735D01*
X47175Y-37675D01*
X47175Y-37675D01*
G37*
G54D16*
X47175Y-37675D02*
X46999Y-37675D01*
X43549Y-37675D01*
X43549Y-34109D01*
X43549Y-33891D01*
X43543Y-33876D01*
X43543Y-33079D01*
X43532Y-32866D01*
X43472Y-32719D01*
X43378Y-32692D01*
X43308Y-32762D01*
X43308Y-32622D01*
X43281Y-32528D01*
X43079Y-32457D01*
X42866Y-32468D01*
X42719Y-32528D01*
X42692Y-32622D01*
X43000Y-32929D01*
X43308Y-32622D01*
X43308Y-32762D01*
X43071Y-33000D01*
X43378Y-33308D01*
X43472Y-33281D01*
X43543Y-33079D01*
X43543Y-33876D01*
X43465Y-33689D01*
X43311Y-33535D01*
X43219Y-33497D01*
X43281Y-33472D01*
X43308Y-33378D01*
X43000Y-33071D01*
X42692Y-33378D01*
X42719Y-33472D01*
X42784Y-33495D01*
X42689Y-33535D01*
X42535Y-33689D01*
X42500Y-33773D01*
X42465Y-33689D01*
X42311Y-33535D01*
X42226Y-33500D01*
X42311Y-33465D01*
X42465Y-33311D01*
X42502Y-33219D01*
X42528Y-33281D01*
X42622Y-33308D01*
X42929Y-33000D01*
X42622Y-32692D01*
X42528Y-32719D01*
X42504Y-32784D01*
X42465Y-32689D01*
X42311Y-32535D01*
X42109Y-32451D01*
X41891Y-32451D01*
X41689Y-32535D01*
X41535Y-32689D01*
X41500Y-32773D01*
X41465Y-32689D01*
X41311Y-32535D01*
X41109Y-32451D01*
X40891Y-32451D01*
X40689Y-32535D01*
X40535Y-32689D01*
X40500Y-32773D01*
X40465Y-32689D01*
X40311Y-32535D01*
X40109Y-32451D01*
X39891Y-32451D01*
X39689Y-32535D01*
X39575Y-32649D01*
X39575Y-28375D01*
X39575Y-28226D01*
X39518Y-28088D01*
X39413Y-27983D01*
X39275Y-27925D01*
X39126Y-27925D01*
X38988Y-27982D01*
X38883Y-28087D01*
X38825Y-28225D01*
X38825Y-28374D01*
X38882Y-28512D01*
X38987Y-28617D01*
X39125Y-28675D01*
X39274Y-28675D01*
X39412Y-28618D01*
X39517Y-28513D01*
X39575Y-28375D01*
X39575Y-32649D01*
X39535Y-32689D01*
X39500Y-32773D01*
X39465Y-32689D01*
X39311Y-32535D01*
X39109Y-32451D01*
X38891Y-32451D01*
X38689Y-32535D01*
X38535Y-32689D01*
X38500Y-32773D01*
X38465Y-32689D01*
X38311Y-32535D01*
X38109Y-32451D01*
X37891Y-32451D01*
X37689Y-32535D01*
X37535Y-32689D01*
X37500Y-32773D01*
X37465Y-32689D01*
X37311Y-32535D01*
X37109Y-32451D01*
X37049Y-32451D01*
X37049Y-22350D01*
X37049Y-22251D01*
X37049Y-21651D01*
X37011Y-21559D01*
X36941Y-21489D01*
X36850Y-21451D01*
X36751Y-21451D01*
X36375Y-21451D01*
X36375Y-20375D01*
X36375Y-20226D01*
X36375Y-14875D01*
X36375Y-14726D01*
X36318Y-14588D01*
X36213Y-14483D01*
X36075Y-14425D01*
X35926Y-14425D01*
X35788Y-14482D01*
X35683Y-14587D01*
X35625Y-14725D01*
X35625Y-14874D01*
X35682Y-15012D01*
X35787Y-15117D01*
X35925Y-15175D01*
X36074Y-15175D01*
X36212Y-15118D01*
X36317Y-15013D01*
X36375Y-14875D01*
X36375Y-20226D01*
X36318Y-20088D01*
X36213Y-19983D01*
X36075Y-19925D01*
X35926Y-19925D01*
X35788Y-19982D01*
X35683Y-20087D01*
X35625Y-20225D01*
X35625Y-20374D01*
X35682Y-20512D01*
X35787Y-20617D01*
X35925Y-20675D01*
X36074Y-20675D01*
X36212Y-20618D01*
X36317Y-20513D01*
X36375Y-20375D01*
X36375Y-21451D01*
X36151Y-21451D01*
X36059Y-21489D01*
X35989Y-21559D01*
X35951Y-21650D01*
X35951Y-21675D01*
X35811Y-21535D01*
X35609Y-21451D01*
X35391Y-21451D01*
X35189Y-21535D01*
X35035Y-21689D01*
X34951Y-21891D01*
X34951Y-22109D01*
X35035Y-22311D01*
X35189Y-22465D01*
X35391Y-22549D01*
X35609Y-22549D01*
X35811Y-22465D01*
X35951Y-22325D01*
X35951Y-22349D01*
X35989Y-22441D01*
X36059Y-22511D01*
X36150Y-22549D01*
X36249Y-22549D01*
X36849Y-22549D01*
X36941Y-22511D01*
X37011Y-22441D01*
X37049Y-22350D01*
X37049Y-32451D01*
X36891Y-32451D01*
X36689Y-32535D01*
X36535Y-32689D01*
X36500Y-32773D01*
X36465Y-32689D01*
X36311Y-32535D01*
X36109Y-32451D01*
X35891Y-32451D01*
X35689Y-32535D01*
X35667Y-32557D01*
X35205Y-32095D01*
X35111Y-32032D01*
X35000Y-32010D01*
X34575Y-32010D01*
X34575Y-17775D01*
X34575Y-17626D01*
X34518Y-17488D01*
X34413Y-17383D01*
X34275Y-17325D01*
X34126Y-17325D01*
X33988Y-17382D01*
X33883Y-17487D01*
X33825Y-17625D01*
X33825Y-17774D01*
X33882Y-17912D01*
X33987Y-18017D01*
X34125Y-18075D01*
X34274Y-18075D01*
X34412Y-18018D01*
X34517Y-17913D01*
X34575Y-17775D01*
X34575Y-32010D01*
X32920Y-32010D01*
X32690Y-31779D01*
X32690Y-30100D01*
X32689Y-30099D01*
X32668Y-29989D01*
X32667Y-29988D01*
X32605Y-29895D01*
X32604Y-29894D01*
X25975Y-23265D01*
X25975Y-18275D01*
X25975Y-18126D01*
X25918Y-17988D01*
X25813Y-17883D01*
X25675Y-17825D01*
X25526Y-17825D01*
X25388Y-17882D01*
X25283Y-17987D01*
X25225Y-18125D01*
X25225Y-18274D01*
X25282Y-18412D01*
X25387Y-18517D01*
X25525Y-18575D01*
X25674Y-18575D01*
X25812Y-18518D01*
X25917Y-18413D01*
X25975Y-18275D01*
X25975Y-23265D01*
X25875Y-23165D01*
X25875Y-21075D01*
X25875Y-20926D01*
X25818Y-20788D01*
X25713Y-20683D01*
X25575Y-20625D01*
X25426Y-20625D01*
X25288Y-20682D01*
X25183Y-20787D01*
X25125Y-20925D01*
X25125Y-21074D01*
X25182Y-21212D01*
X25287Y-21317D01*
X25425Y-21375D01*
X25574Y-21375D01*
X25712Y-21318D01*
X25817Y-21213D01*
X25875Y-21075D01*
X25875Y-23165D01*
X24890Y-22180D01*
X24890Y-17220D01*
X25135Y-16975D01*
X25174Y-16975D01*
X25312Y-16918D01*
X25360Y-16870D01*
X27451Y-18961D01*
X27425Y-19025D01*
X27425Y-19174D01*
X27482Y-19312D01*
X27587Y-19417D01*
X27725Y-19475D01*
X27874Y-19475D01*
X28012Y-19418D01*
X28117Y-19313D01*
X28132Y-19275D01*
X28174Y-19275D01*
X28312Y-19218D01*
X28417Y-19113D01*
X28432Y-19075D01*
X28474Y-19075D01*
X28612Y-19018D01*
X28717Y-18913D01*
X28732Y-18875D01*
X28774Y-18875D01*
X28912Y-18818D01*
X29017Y-18713D01*
X29075Y-18575D01*
X29075Y-18426D01*
X29018Y-18288D01*
X28913Y-18183D01*
X28775Y-18125D01*
X28675Y-18125D01*
X28600Y-18110D01*
X28320Y-18110D01*
X27200Y-16990D01*
X27560Y-16990D01*
X27587Y-17017D01*
X27725Y-17075D01*
X27874Y-17075D01*
X28012Y-17018D01*
X28117Y-16913D01*
X28132Y-16875D01*
X28174Y-16875D01*
X28312Y-16818D01*
X28417Y-16713D01*
X28432Y-16675D01*
X28474Y-16675D01*
X28612Y-16618D01*
X28717Y-16513D01*
X28732Y-16475D01*
X28774Y-16475D01*
X28912Y-16418D01*
X29017Y-16313D01*
X29075Y-16175D01*
X29075Y-16026D01*
X29018Y-15888D01*
X28913Y-15783D01*
X28775Y-15725D01*
X28675Y-15725D01*
X28600Y-15710D01*
X27120Y-15710D01*
X26955Y-15545D01*
X26989Y-15568D01*
X27100Y-15590D01*
X27660Y-15590D01*
X27687Y-15617D01*
X27825Y-15675D01*
X27974Y-15675D01*
X28112Y-15618D01*
X28217Y-15513D01*
X28275Y-15375D01*
X28275Y-15226D01*
X28218Y-15088D01*
X28113Y-14983D01*
X27975Y-14925D01*
X27826Y-14925D01*
X27688Y-14982D01*
X27660Y-15010D01*
X27220Y-15010D01*
X26475Y-14265D01*
X26475Y-14226D01*
X26418Y-14088D01*
X26313Y-13983D01*
X26175Y-13925D01*
X26026Y-13925D01*
X25888Y-13982D01*
X25783Y-14087D01*
X25725Y-14225D01*
X25725Y-14310D01*
X22300Y-14310D01*
X22189Y-14332D01*
X22095Y-14395D01*
X22094Y-14395D01*
X22094Y-14396D01*
X19380Y-17110D01*
X18900Y-17110D01*
X18789Y-17132D01*
X18695Y-17195D01*
X18395Y-17495D01*
X18332Y-17589D01*
X18310Y-17700D01*
X18310Y-19639D01*
X18275Y-19625D01*
X18126Y-19625D01*
X17999Y-19677D01*
X17875Y-19625D01*
X17726Y-19625D01*
X17599Y-19677D01*
X17475Y-19625D01*
X17433Y-19625D01*
X17418Y-19588D01*
X17313Y-19483D01*
X17175Y-19425D01*
X17026Y-19425D01*
X16888Y-19482D01*
X16783Y-19587D01*
X16767Y-19625D01*
X16726Y-19625D01*
X16588Y-19682D01*
X16483Y-19787D01*
X16425Y-19925D01*
X16425Y-20074D01*
X16482Y-20212D01*
X16510Y-20240D01*
X16510Y-23180D01*
X16308Y-23382D01*
X16308Y-11378D01*
X16000Y-11071D01*
X15929Y-11141D01*
X15929Y-11000D01*
X15622Y-10692D01*
X15528Y-10719D01*
X15504Y-10784D01*
X15465Y-10689D01*
X15311Y-10535D01*
X15226Y-10500D01*
X15311Y-10465D01*
X15465Y-10311D01*
X15502Y-10219D01*
X15528Y-10281D01*
X15622Y-10308D01*
X15929Y-10000D01*
X15622Y-09692D01*
X15528Y-09719D01*
X15504Y-09784D01*
X15465Y-09689D01*
X15311Y-09535D01*
X15109Y-09451D01*
X14891Y-09451D01*
X14689Y-09535D01*
X14535Y-09689D01*
X14500Y-09773D01*
X14465Y-09689D01*
X14311Y-09535D01*
X14109Y-09451D01*
X13891Y-09451D01*
X13689Y-09535D01*
X13535Y-09689D01*
X13500Y-09773D01*
X13465Y-09689D01*
X13311Y-09535D01*
X13109Y-09451D01*
X12891Y-09451D01*
X12689Y-09535D01*
X12535Y-09689D01*
X12500Y-09773D01*
X12465Y-09689D01*
X12311Y-09535D01*
X12109Y-09451D01*
X11891Y-09451D01*
X11689Y-09535D01*
X11535Y-09689D01*
X11451Y-09891D01*
X11451Y-10109D01*
X11535Y-10311D01*
X11689Y-10465D01*
X11773Y-10500D01*
X11689Y-10535D01*
X11535Y-10689D01*
X11451Y-10891D01*
X11451Y-11109D01*
X11535Y-11311D01*
X11689Y-11465D01*
X11891Y-11549D01*
X12109Y-11549D01*
X12311Y-11465D01*
X12465Y-11311D01*
X12500Y-11226D01*
X12535Y-11311D01*
X12689Y-11465D01*
X12891Y-11549D01*
X13109Y-11549D01*
X13311Y-11465D01*
X13465Y-11311D01*
X13500Y-11226D01*
X13535Y-11311D01*
X13689Y-11465D01*
X13891Y-11549D01*
X14109Y-11549D01*
X14311Y-11465D01*
X14465Y-11311D01*
X14500Y-11226D01*
X14535Y-11311D01*
X14689Y-11465D01*
X14891Y-11549D01*
X15109Y-11549D01*
X15311Y-11465D01*
X15465Y-11311D01*
X15502Y-11219D01*
X15528Y-11281D01*
X15622Y-11308D01*
X15929Y-11000D01*
X15929Y-11141D01*
X15692Y-11378D01*
X15719Y-11472D01*
X15921Y-11543D01*
X16134Y-11532D01*
X16281Y-11472D01*
X16308Y-11378D01*
X16308Y-23382D01*
X15595Y-24095D01*
X15532Y-24189D01*
X15510Y-24300D01*
X15510Y-25700D01*
X15532Y-25811D01*
X15595Y-25905D01*
X16694Y-27005D01*
X16695Y-27005D01*
X16789Y-27068D01*
X16900Y-27090D01*
X19479Y-27090D01*
X20910Y-28520D01*
X20910Y-28625D01*
X20826Y-28625D01*
X20688Y-28682D01*
X20660Y-28710D01*
X14775Y-28710D01*
X14775Y-25075D01*
X14775Y-24926D01*
X14718Y-24788D01*
X14613Y-24683D01*
X14475Y-24625D01*
X14326Y-24625D01*
X14188Y-24682D01*
X14083Y-24787D01*
X14025Y-24925D01*
X14025Y-25074D01*
X14082Y-25212D01*
X14187Y-25317D01*
X14325Y-25375D01*
X14474Y-25375D01*
X14612Y-25318D01*
X14717Y-25213D01*
X14775Y-25075D01*
X14775Y-28710D01*
X12316Y-28710D01*
X12465Y-28561D01*
X12549Y-28359D01*
X12549Y-28141D01*
X12465Y-27939D01*
X12311Y-27785D01*
X12226Y-27750D01*
X12311Y-27715D01*
X12465Y-27561D01*
X12549Y-27359D01*
X12549Y-27141D01*
X12465Y-26939D01*
X12311Y-26785D01*
X12226Y-26750D01*
X12311Y-26715D01*
X12465Y-26561D01*
X12549Y-26359D01*
X12549Y-26141D01*
X12540Y-26119D01*
X12705Y-25955D01*
X12768Y-25861D01*
X12790Y-25750D01*
X12790Y-22000D01*
X12768Y-21889D01*
X12705Y-21795D01*
X12540Y-21630D01*
X12549Y-21609D01*
X12549Y-21391D01*
X12465Y-21189D01*
X12311Y-21035D01*
X12226Y-21000D01*
X12311Y-20965D01*
X12465Y-20811D01*
X12549Y-20609D01*
X12549Y-20391D01*
X12465Y-20189D01*
X12311Y-20035D01*
X12109Y-19951D01*
X11959Y-19951D01*
X12705Y-19205D01*
X12768Y-19111D01*
X12790Y-19000D01*
X12790Y-18720D01*
X14057Y-17452D01*
X14082Y-17512D01*
X14187Y-17617D01*
X14325Y-17675D01*
X14474Y-17675D01*
X14612Y-17618D01*
X14717Y-17513D01*
X14775Y-17375D01*
X14775Y-17226D01*
X14718Y-17088D01*
X14613Y-16983D01*
X14584Y-16970D01*
X14712Y-16918D01*
X14817Y-16813D01*
X14875Y-16675D01*
X14875Y-16526D01*
X14818Y-16388D01*
X14713Y-16283D01*
X14575Y-16225D01*
X14426Y-16225D01*
X14288Y-16282D01*
X14183Y-16387D01*
X14125Y-16525D01*
X14125Y-16565D01*
X12358Y-18332D01*
X12311Y-18285D01*
X12226Y-18250D01*
X12311Y-18215D01*
X12465Y-18061D01*
X12549Y-17859D01*
X12549Y-17641D01*
X12465Y-17439D01*
X12311Y-17285D01*
X12226Y-17250D01*
X12311Y-17215D01*
X12465Y-17061D01*
X12549Y-16859D01*
X12549Y-16641D01*
X12465Y-16439D01*
X12311Y-16285D01*
X12226Y-16250D01*
X12311Y-16215D01*
X12465Y-16061D01*
X12549Y-15859D01*
X12549Y-15641D01*
X12465Y-15439D01*
X12311Y-15285D01*
X12109Y-15201D01*
X11891Y-15201D01*
X11689Y-15285D01*
X11549Y-15425D01*
X11549Y-15401D01*
X11511Y-15309D01*
X11441Y-15239D01*
X11350Y-15201D01*
X11251Y-15201D01*
X10651Y-15201D01*
X10559Y-15239D01*
X10489Y-15309D01*
X10451Y-15400D01*
X10451Y-15499D01*
X10451Y-16099D01*
X10489Y-16191D01*
X10559Y-16261D01*
X10650Y-16299D01*
X10675Y-16299D01*
X10535Y-16439D01*
X10451Y-16641D01*
X10451Y-16859D01*
X10535Y-17061D01*
X10689Y-17215D01*
X10773Y-17250D01*
X10689Y-17285D01*
X10535Y-17439D01*
X10451Y-17641D01*
X10451Y-17859D01*
X10535Y-18061D01*
X10689Y-18215D01*
X10773Y-18250D01*
X10689Y-18285D01*
X10535Y-18439D01*
X10451Y-18641D01*
X10451Y-18859D01*
X10535Y-19061D01*
X10689Y-19215D01*
X10891Y-19299D01*
X11109Y-19299D01*
X11311Y-19215D01*
X11465Y-19061D01*
X11500Y-18976D01*
X11535Y-19061D01*
X11689Y-19215D01*
X11820Y-19269D01*
X11139Y-19951D01*
X10651Y-19951D01*
X10559Y-19989D01*
X10489Y-20059D01*
X10451Y-20150D01*
X10451Y-20249D01*
X10451Y-20849D01*
X10489Y-20941D01*
X10559Y-21011D01*
X10650Y-21049D01*
X10675Y-21049D01*
X10535Y-21189D01*
X10451Y-21391D01*
X10451Y-21609D01*
X10535Y-21811D01*
X10689Y-21965D01*
X10773Y-22000D01*
X10689Y-22035D01*
X10535Y-22189D01*
X10451Y-22391D01*
X10451Y-22609D01*
X10535Y-22811D01*
X10689Y-22965D01*
X10773Y-23000D01*
X10689Y-23035D01*
X10535Y-23189D01*
X10451Y-23391D01*
X10451Y-23609D01*
X10535Y-23811D01*
X10689Y-23965D01*
X10891Y-24049D01*
X11109Y-24049D01*
X11210Y-24007D01*
X11210Y-24701D01*
X10651Y-24701D01*
X10559Y-24739D01*
X10489Y-24809D01*
X10451Y-24900D01*
X10451Y-24999D01*
X10451Y-25599D01*
X10489Y-25691D01*
X10559Y-25761D01*
X10650Y-25799D01*
X10675Y-25799D01*
X10535Y-25939D01*
X10451Y-26141D01*
X10451Y-26359D01*
X10535Y-26561D01*
X10689Y-26715D01*
X10773Y-26750D01*
X10689Y-26785D01*
X10535Y-26939D01*
X10451Y-27141D01*
X10451Y-27359D01*
X10535Y-27561D01*
X10689Y-27715D01*
X10773Y-27750D01*
X10689Y-27785D01*
X10535Y-27939D01*
X10451Y-28141D01*
X10451Y-28359D01*
X10535Y-28561D01*
X10689Y-28715D01*
X10891Y-28799D01*
X11109Y-28799D01*
X11129Y-28790D01*
X11544Y-29205D01*
X11545Y-29205D01*
X11639Y-29268D01*
X11750Y-29290D01*
X20539Y-29290D01*
X20525Y-29325D01*
X20525Y-29474D01*
X20582Y-29612D01*
X20610Y-29640D01*
X20610Y-30580D01*
X18980Y-32210D01*
X12800Y-32210D01*
X12689Y-32232D01*
X12595Y-32295D01*
X12333Y-32557D01*
X12311Y-32535D01*
X12109Y-32451D01*
X11891Y-32451D01*
X11689Y-32535D01*
X11535Y-32689D01*
X11451Y-32891D01*
X11451Y-33109D01*
X11535Y-33311D01*
X11675Y-33451D01*
X11651Y-33451D01*
X11559Y-33489D01*
X11489Y-33559D01*
X11451Y-33650D01*
X11451Y-33749D01*
X11451Y-34349D01*
X11489Y-34441D01*
X11559Y-34511D01*
X11650Y-34549D01*
X11749Y-34549D01*
X12349Y-34549D01*
X12441Y-34511D01*
X12511Y-34441D01*
X12549Y-34350D01*
X12549Y-34325D01*
X12689Y-34465D01*
X12891Y-34549D01*
X13109Y-34549D01*
X13311Y-34465D01*
X13465Y-34311D01*
X13500Y-34226D01*
X13535Y-34311D01*
X13689Y-34465D01*
X13891Y-34549D01*
X14109Y-34549D01*
X14311Y-34465D01*
X14465Y-34311D01*
X14500Y-34226D01*
X14535Y-34311D01*
X14689Y-34465D01*
X14891Y-34549D01*
X15109Y-34549D01*
X15311Y-34465D01*
X15465Y-34311D01*
X15500Y-34226D01*
X15535Y-34311D01*
X15689Y-34465D01*
X15891Y-34549D01*
X16109Y-34549D01*
X16311Y-34465D01*
X16465Y-34311D01*
X16500Y-34226D01*
X16535Y-34311D01*
X16689Y-34465D01*
X16891Y-34549D01*
X17109Y-34549D01*
X17311Y-34465D01*
X17465Y-34311D01*
X17500Y-34226D01*
X17535Y-34311D01*
X17689Y-34465D01*
X17891Y-34549D01*
X18109Y-34549D01*
X18311Y-34465D01*
X18465Y-34311D01*
X18500Y-34226D01*
X18535Y-34311D01*
X18689Y-34465D01*
X18891Y-34549D01*
X19109Y-34549D01*
X19311Y-34465D01*
X19465Y-34311D01*
X19500Y-34226D01*
X19535Y-34311D01*
X19689Y-34465D01*
X19891Y-34549D01*
X20109Y-34549D01*
X20311Y-34465D01*
X20465Y-34311D01*
X20500Y-34226D01*
X20535Y-34311D01*
X20689Y-34465D01*
X20891Y-34549D01*
X21109Y-34549D01*
X21311Y-34465D01*
X21465Y-34311D01*
X21500Y-34226D01*
X21535Y-34311D01*
X21689Y-34465D01*
X21891Y-34549D01*
X22109Y-34549D01*
X22311Y-34465D01*
X22465Y-34311D01*
X22500Y-34226D01*
X22535Y-34311D01*
X22689Y-34465D01*
X22891Y-34549D01*
X23109Y-34549D01*
X23311Y-34465D01*
X23465Y-34311D01*
X23500Y-34226D01*
X23535Y-34311D01*
X23689Y-34465D01*
X23891Y-34549D01*
X24109Y-34549D01*
X24311Y-34465D01*
X24465Y-34311D01*
X24500Y-34226D01*
X24535Y-34311D01*
X24689Y-34465D01*
X24891Y-34549D01*
X25109Y-34549D01*
X25311Y-34465D01*
X25465Y-34311D01*
X25500Y-34226D01*
X25535Y-34311D01*
X25689Y-34465D01*
X25891Y-34549D01*
X26109Y-34549D01*
X26311Y-34465D01*
X26465Y-34311D01*
X26500Y-34226D01*
X26535Y-34311D01*
X26689Y-34465D01*
X26891Y-34549D01*
X27109Y-34549D01*
X27311Y-34465D01*
X27465Y-34311D01*
X27500Y-34226D01*
X27535Y-34311D01*
X27689Y-34465D01*
X27891Y-34549D01*
X28109Y-34549D01*
X28311Y-34465D01*
X28465Y-34311D01*
X28500Y-34226D01*
X28535Y-34311D01*
X28689Y-34465D01*
X28891Y-34549D01*
X29109Y-34549D01*
X29311Y-34465D01*
X29465Y-34311D01*
X29500Y-34226D01*
X29535Y-34311D01*
X29689Y-34465D01*
X29891Y-34549D01*
X30109Y-34549D01*
X30311Y-34465D01*
X30465Y-34311D01*
X30500Y-34226D01*
X30535Y-34311D01*
X30689Y-34465D01*
X30891Y-34549D01*
X31109Y-34549D01*
X31311Y-34465D01*
X31465Y-34311D01*
X31500Y-34226D01*
X31535Y-34311D01*
X31689Y-34465D01*
X31891Y-34549D01*
X32109Y-34549D01*
X32311Y-34465D01*
X32465Y-34311D01*
X32500Y-34226D01*
X32535Y-34311D01*
X32689Y-34465D01*
X32891Y-34549D01*
X33109Y-34549D01*
X33311Y-34465D01*
X33465Y-34311D01*
X33500Y-34226D01*
X33535Y-34311D01*
X33689Y-34465D01*
X33891Y-34549D01*
X34109Y-34549D01*
X34311Y-34465D01*
X34465Y-34311D01*
X34500Y-34226D01*
X34535Y-34311D01*
X34689Y-34465D01*
X34891Y-34549D01*
X35109Y-34549D01*
X35311Y-34465D01*
X35465Y-34311D01*
X35500Y-34226D01*
X35535Y-34311D01*
X35689Y-34465D01*
X35891Y-34549D01*
X36109Y-34549D01*
X36311Y-34465D01*
X36465Y-34311D01*
X36500Y-34226D01*
X36535Y-34311D01*
X36689Y-34465D01*
X36891Y-34549D01*
X37109Y-34549D01*
X37311Y-34465D01*
X37465Y-34311D01*
X37500Y-34226D01*
X37535Y-34311D01*
X37689Y-34465D01*
X37891Y-34549D01*
X38109Y-34549D01*
X38311Y-34465D01*
X38465Y-34311D01*
X38500Y-34226D01*
X38535Y-34311D01*
X38689Y-34465D01*
X38891Y-34549D01*
X39109Y-34549D01*
X39311Y-34465D01*
X39465Y-34311D01*
X39500Y-34226D01*
X39535Y-34311D01*
X39689Y-34465D01*
X39891Y-34549D01*
X40109Y-34549D01*
X40311Y-34465D01*
X40465Y-34311D01*
X40500Y-34226D01*
X40535Y-34311D01*
X40689Y-34465D01*
X40891Y-34549D01*
X41109Y-34549D01*
X41311Y-34465D01*
X41465Y-34311D01*
X41500Y-34226D01*
X41535Y-34311D01*
X41689Y-34465D01*
X41891Y-34549D01*
X42109Y-34549D01*
X42311Y-34465D01*
X42465Y-34311D01*
X42500Y-34226D01*
X42535Y-34311D01*
X42689Y-34465D01*
X42891Y-34549D01*
X43109Y-34549D01*
X43311Y-34465D01*
X43465Y-34311D01*
X43549Y-34109D01*
X43549Y-37675D01*
X10325Y-37675D01*
X10325Y-06325D01*
X47175Y-06325D01*
X47175Y-07265D01*
X47040Y-07130D01*
X47049Y-07109D01*
X47049Y-06891D01*
X46965Y-06689D01*
X46811Y-06535D01*
X46609Y-06451D01*
X46391Y-06451D01*
X46189Y-06535D01*
X46049Y-06675D01*
X46049Y-06651D01*
X46011Y-06559D01*
X45941Y-06489D01*
X45850Y-06451D01*
X45751Y-06451D01*
X45151Y-06451D01*
X45059Y-06489D01*
X44989Y-06559D01*
X44951Y-06650D01*
X44951Y-06749D01*
X44951Y-07138D01*
X43079Y-09010D01*
X41700Y-09010D01*
X41589Y-09032D01*
X41495Y-09095D01*
X41494Y-09095D01*
X41494Y-09096D01*
X41130Y-09459D01*
X41109Y-09451D01*
X40891Y-09451D01*
X40689Y-09535D01*
X40535Y-09689D01*
X40500Y-09773D01*
X40465Y-09689D01*
X40311Y-09535D01*
X40109Y-09451D01*
X39891Y-09451D01*
X39689Y-09535D01*
X39535Y-09689D01*
X39500Y-09773D01*
X39465Y-09689D01*
X39311Y-09535D01*
X39109Y-09451D01*
X38891Y-09451D01*
X38689Y-09535D01*
X38535Y-09689D01*
X38500Y-09773D01*
X38465Y-09689D01*
X38311Y-09535D01*
X38109Y-09451D01*
X37891Y-09451D01*
X37689Y-09535D01*
X37535Y-09689D01*
X37500Y-09773D01*
X37465Y-09689D01*
X37311Y-09535D01*
X37109Y-09451D01*
X36891Y-09451D01*
X36689Y-09535D01*
X36535Y-09689D01*
X36500Y-09773D01*
X36465Y-09689D01*
X36311Y-09535D01*
X36109Y-09451D01*
X35891Y-09451D01*
X35689Y-09535D01*
X35535Y-09689D01*
X35500Y-09773D01*
X35465Y-09689D01*
X35311Y-09535D01*
X35109Y-09451D01*
X34891Y-09451D01*
X34689Y-09535D01*
X34535Y-09689D01*
X34500Y-09773D01*
X34465Y-09689D01*
X34311Y-09535D01*
X34109Y-09451D01*
X33891Y-09451D01*
X33689Y-09535D01*
X33535Y-09689D01*
X33500Y-09773D01*
X33465Y-09689D01*
X33311Y-09535D01*
X33109Y-09451D01*
X32891Y-09451D01*
X32689Y-09535D01*
X32535Y-09689D01*
X32500Y-09773D01*
X32465Y-09689D01*
X32311Y-09535D01*
X32109Y-09451D01*
X31891Y-09451D01*
X31689Y-09535D01*
X31535Y-09689D01*
X31500Y-09773D01*
X31465Y-09689D01*
X31311Y-09535D01*
X31109Y-09451D01*
X30891Y-09451D01*
X30689Y-09535D01*
X30535Y-09689D01*
X30500Y-09773D01*
X30465Y-09689D01*
X30311Y-09535D01*
X30109Y-09451D01*
X29891Y-09451D01*
X29689Y-09535D01*
X29535Y-09689D01*
X29500Y-09773D01*
X29465Y-09689D01*
X29311Y-09535D01*
X29109Y-09451D01*
X28891Y-09451D01*
X28689Y-09535D01*
X28535Y-09689D01*
X28500Y-09773D01*
X28465Y-09689D01*
X28311Y-09535D01*
X28109Y-09451D01*
X27891Y-09451D01*
X27689Y-09535D01*
X27535Y-09689D01*
X27500Y-09773D01*
X27465Y-09689D01*
X27311Y-09535D01*
X27109Y-09451D01*
X26891Y-09451D01*
X26689Y-09535D01*
X26535Y-09689D01*
X26500Y-09773D01*
X26465Y-09689D01*
X26311Y-09535D01*
X26109Y-09451D01*
X25891Y-09451D01*
X25689Y-09535D01*
X25535Y-09689D01*
X25500Y-09773D01*
X25465Y-09689D01*
X25311Y-09535D01*
X25109Y-09451D01*
X24891Y-09451D01*
X24689Y-09535D01*
X24535Y-09689D01*
X24500Y-09773D01*
X24465Y-09689D01*
X24311Y-09535D01*
X24109Y-09451D01*
X23891Y-09451D01*
X23689Y-09535D01*
X23535Y-09689D01*
X23500Y-09773D01*
X23465Y-09689D01*
X23311Y-09535D01*
X23109Y-09451D01*
X22891Y-09451D01*
X22689Y-09535D01*
X22535Y-09689D01*
X22500Y-09773D01*
X22465Y-09689D01*
X22311Y-09535D01*
X22109Y-09451D01*
X21891Y-09451D01*
X21689Y-09535D01*
X21535Y-09689D01*
X21500Y-09773D01*
X21465Y-09689D01*
X21311Y-09535D01*
X21109Y-09451D01*
X20891Y-09451D01*
X20689Y-09535D01*
X20535Y-09689D01*
X20500Y-09773D01*
X20465Y-09689D01*
X20311Y-09535D01*
X20109Y-09451D01*
X19891Y-09451D01*
X19689Y-09535D01*
X19535Y-09689D01*
X19500Y-09773D01*
X19465Y-09689D01*
X19311Y-09535D01*
X19109Y-09451D01*
X18891Y-09451D01*
X18689Y-09535D01*
X18535Y-09689D01*
X18500Y-09773D01*
X18465Y-09689D01*
X18311Y-09535D01*
X18109Y-09451D01*
X17891Y-09451D01*
X17689Y-09535D01*
X17535Y-09689D01*
X17500Y-09773D01*
X17465Y-09689D01*
X17311Y-09535D01*
X17109Y-09451D01*
X16891Y-09451D01*
X16689Y-09535D01*
X16535Y-09689D01*
X16497Y-09780D01*
X16472Y-09719D01*
X16378Y-09692D01*
X16308Y-09762D01*
X16308Y-09622D01*
X16281Y-09528D01*
X16079Y-09457D01*
X15866Y-09468D01*
X15719Y-09528D01*
X15692Y-09622D01*
X16000Y-09929D01*
X16308Y-09622D01*
X16308Y-09762D01*
X16071Y-10000D01*
X16378Y-10308D01*
X16472Y-10281D01*
X16495Y-10215D01*
X16535Y-10311D01*
X16689Y-10465D01*
X16773Y-10500D01*
X16689Y-10535D01*
X16535Y-10689D01*
X16497Y-10780D01*
X16472Y-10719D01*
X16378Y-10692D01*
X16308Y-10762D01*
X16308Y-10622D01*
X16281Y-10528D01*
X16207Y-10502D01*
X16281Y-10472D01*
X16308Y-10378D01*
X16000Y-10071D01*
X15692Y-10378D01*
X15719Y-10472D01*
X15792Y-10497D01*
X15719Y-10528D01*
X15692Y-10622D01*
X16000Y-10929D01*
X16308Y-10622D01*
X16308Y-10762D01*
X16071Y-11000D01*
X16378Y-11308D01*
X16472Y-11281D01*
X16495Y-11215D01*
X16535Y-11311D01*
X16689Y-11465D01*
X16891Y-11549D01*
X17109Y-11549D01*
X17311Y-11465D01*
X17465Y-11311D01*
X17500Y-11226D01*
X17535Y-11311D01*
X17689Y-11465D01*
X17891Y-11549D01*
X18109Y-11549D01*
X18311Y-11465D01*
X18465Y-11311D01*
X18500Y-11226D01*
X18535Y-11311D01*
X18689Y-11465D01*
X18891Y-11549D01*
X19109Y-11549D01*
X19311Y-11465D01*
X19465Y-11311D01*
X19500Y-11226D01*
X19535Y-11311D01*
X19689Y-11465D01*
X19891Y-11549D01*
X20109Y-11549D01*
X20311Y-11465D01*
X20465Y-11311D01*
X20500Y-11226D01*
X20535Y-11311D01*
X20689Y-11465D01*
X20891Y-11549D01*
X21109Y-11549D01*
X21311Y-11465D01*
X21465Y-11311D01*
X21500Y-11226D01*
X21535Y-11311D01*
X21689Y-11465D01*
X21891Y-11549D01*
X22109Y-11549D01*
X22311Y-11465D01*
X22465Y-11311D01*
X22500Y-11226D01*
X22535Y-11311D01*
X22689Y-11465D01*
X22891Y-11549D01*
X23109Y-11549D01*
X23311Y-11465D01*
X23465Y-11311D01*
X23500Y-11226D01*
X23535Y-11311D01*
X23689Y-11465D01*
X23891Y-11549D01*
X24109Y-11549D01*
X24311Y-11465D01*
X24465Y-11311D01*
X24500Y-11226D01*
X24535Y-11311D01*
X24689Y-11465D01*
X24891Y-11549D01*
X25109Y-11549D01*
X25311Y-11465D01*
X25465Y-11311D01*
X25500Y-11226D01*
X25535Y-11311D01*
X25689Y-11465D01*
X25891Y-11549D01*
X26109Y-11549D01*
X26311Y-11465D01*
X26465Y-11311D01*
X26500Y-11226D01*
X26535Y-11311D01*
X26689Y-11465D01*
X26891Y-11549D01*
X27109Y-11549D01*
X27311Y-11465D01*
X27465Y-11311D01*
X27500Y-11226D01*
X27535Y-11311D01*
X27689Y-11465D01*
X27891Y-11549D01*
X28109Y-11549D01*
X28311Y-11465D01*
X28465Y-11311D01*
X28500Y-11226D01*
X28535Y-11311D01*
X28689Y-11465D01*
X28891Y-11549D01*
X29109Y-11549D01*
X29311Y-11465D01*
X29465Y-11311D01*
X29500Y-11226D01*
X29535Y-11311D01*
X29689Y-11465D01*
X29891Y-11549D01*
X30109Y-11549D01*
X30311Y-11465D01*
X30465Y-11311D01*
X30500Y-11226D01*
X30535Y-11311D01*
X30689Y-11465D01*
X30891Y-11549D01*
X31109Y-11549D01*
X31311Y-11465D01*
X31465Y-11311D01*
X31500Y-11226D01*
X31535Y-11311D01*
X31689Y-11465D01*
X31891Y-11549D01*
X32109Y-11549D01*
X32129Y-11540D01*
X32894Y-12305D01*
X32895Y-12305D01*
X32989Y-12368D01*
X33100Y-12390D01*
X41079Y-12390D01*
X43910Y-15220D01*
X43910Y-19400D01*
X43932Y-19511D01*
X43995Y-19605D01*
X45057Y-20667D01*
X45035Y-20689D01*
X44951Y-20891D01*
X44951Y-21109D01*
X45035Y-21311D01*
X45189Y-21465D01*
X45391Y-21549D01*
X45609Y-21549D01*
X45811Y-21465D01*
X45965Y-21311D01*
X46000Y-21226D01*
X46035Y-21311D01*
X46189Y-21465D01*
X46391Y-21549D01*
X46609Y-21549D01*
X46811Y-21465D01*
X46965Y-21311D01*
X47049Y-21109D01*
X47049Y-20891D01*
X46965Y-20689D01*
X46811Y-20535D01*
X46726Y-20500D01*
X46811Y-20465D01*
X46965Y-20311D01*
X47049Y-20109D01*
X47049Y-19891D01*
X46965Y-19689D01*
X46811Y-19535D01*
X46726Y-19500D01*
X46811Y-19465D01*
X46965Y-19311D01*
X47049Y-19109D01*
X47049Y-18891D01*
X47040Y-18869D01*
X47175Y-18735D01*
X47175Y-29765D01*
X47040Y-29630D01*
X47049Y-29609D01*
X47049Y-29391D01*
X46999Y-29270D01*
X46999Y-27550D01*
X46999Y-26848D01*
X46999Y-24400D01*
X46999Y-23698D01*
X46293Y-23698D01*
X46293Y-24400D01*
X46999Y-24400D01*
X46999Y-26848D01*
X46293Y-26848D01*
X46293Y-27550D01*
X46999Y-27550D01*
X46999Y-29270D01*
X46965Y-29189D01*
X46811Y-29035D01*
X46609Y-28951D01*
X46391Y-28951D01*
X46189Y-29035D01*
X46049Y-29175D01*
X46049Y-29151D01*
X46011Y-29059D01*
X45941Y-28989D01*
X45850Y-28951D01*
X45751Y-28951D01*
X45151Y-28951D01*
X45059Y-28989D01*
X44989Y-29059D01*
X44951Y-29150D01*
X44951Y-29249D01*
X44951Y-29849D01*
X44989Y-29941D01*
X45059Y-30011D01*
X45150Y-30049D01*
X45175Y-30049D01*
X45035Y-30189D01*
X44951Y-30391D01*
X44951Y-30609D01*
X45035Y-30811D01*
X45189Y-30965D01*
X45273Y-31000D01*
X45189Y-31035D01*
X45035Y-31189D01*
X44951Y-31391D01*
X44951Y-31609D01*
X45035Y-31811D01*
X45189Y-31965D01*
X45273Y-32000D01*
X45189Y-32035D01*
X45035Y-32189D01*
X44951Y-32391D01*
X44951Y-32609D01*
X45035Y-32811D01*
X45189Y-32965D01*
X45391Y-33049D01*
X45609Y-33049D01*
X45710Y-33007D01*
X45710Y-33451D01*
X45151Y-33451D01*
X45059Y-33489D01*
X44989Y-33559D01*
X44951Y-33650D01*
X44951Y-33749D01*
X44951Y-34349D01*
X44989Y-34441D01*
X45059Y-34511D01*
X45150Y-34549D01*
X45175Y-34549D01*
X45035Y-34689D01*
X44951Y-34891D01*
X44951Y-35109D01*
X45035Y-35311D01*
X45189Y-35465D01*
X45273Y-35500D01*
X45189Y-35535D01*
X45035Y-35689D01*
X45000Y-35770D01*
X44913Y-35683D01*
X44875Y-35667D01*
X44875Y-35075D01*
X44875Y-34926D01*
X44818Y-34788D01*
X44713Y-34683D01*
X44675Y-34667D01*
X44675Y-34075D01*
X44675Y-33926D01*
X44618Y-33788D01*
X44513Y-33683D01*
X44475Y-33667D01*
X44475Y-32575D01*
X44475Y-32426D01*
X44418Y-32288D01*
X44313Y-32183D01*
X44275Y-32167D01*
X44275Y-31575D01*
X44275Y-31426D01*
X44218Y-31288D01*
X44113Y-31183D01*
X44075Y-31167D01*
X44075Y-30575D01*
X44075Y-30426D01*
X44018Y-30288D01*
X43913Y-30183D01*
X43875Y-30167D01*
X43875Y-29575D01*
X43875Y-29426D01*
X43818Y-29288D01*
X43713Y-29183D01*
X43575Y-29125D01*
X43426Y-29125D01*
X43288Y-29182D01*
X43183Y-29287D01*
X43125Y-29425D01*
X43125Y-29574D01*
X43182Y-29712D01*
X43287Y-29817D01*
X43425Y-29875D01*
X43574Y-29875D01*
X43712Y-29818D01*
X43817Y-29713D01*
X43875Y-29575D01*
X43875Y-30167D01*
X43775Y-30125D01*
X43626Y-30125D01*
X43488Y-30182D01*
X43383Y-30287D01*
X43325Y-30425D01*
X43325Y-30574D01*
X43346Y-30625D01*
X43335Y-30625D01*
X42605Y-29895D01*
X42511Y-29832D01*
X42400Y-29810D01*
X42100Y-29810D01*
X42100Y-25700D01*
X42100Y-25551D01*
X42043Y-25413D01*
X41938Y-25308D01*
X41800Y-25250D01*
X41651Y-25250D01*
X41590Y-25275D01*
X40459Y-25275D01*
X40400Y-25250D01*
X40251Y-25250D01*
X40113Y-25307D01*
X40008Y-25412D01*
X39950Y-25550D01*
X39950Y-25699D01*
X40007Y-25837D01*
X40112Y-25942D01*
X40250Y-26000D01*
X40399Y-26000D01*
X40459Y-25975D01*
X41590Y-25975D01*
X41650Y-26000D01*
X41799Y-26000D01*
X41937Y-25943D01*
X42042Y-25838D01*
X42100Y-25700D01*
X42100Y-29810D01*
X40640Y-29810D01*
X40613Y-29783D01*
X40475Y-29725D01*
X40326Y-29725D01*
X40188Y-29782D01*
X40083Y-29887D01*
X40025Y-30025D01*
X40025Y-30174D01*
X40082Y-30312D01*
X40187Y-30417D01*
X40325Y-30475D01*
X40474Y-30475D01*
X40612Y-30418D01*
X40640Y-30390D01*
X42279Y-30390D01*
X42925Y-31035D01*
X42925Y-31074D01*
X42982Y-31212D01*
X43087Y-31317D01*
X43225Y-31375D01*
X43374Y-31375D01*
X43512Y-31318D01*
X43617Y-31213D01*
X43675Y-31075D01*
X43675Y-30926D01*
X43653Y-30875D01*
X43774Y-30875D01*
X43912Y-30818D01*
X44017Y-30713D01*
X44075Y-30575D01*
X44075Y-31167D01*
X43975Y-31125D01*
X43826Y-31125D01*
X43688Y-31182D01*
X43583Y-31287D01*
X43525Y-31425D01*
X43525Y-31574D01*
X43582Y-31712D01*
X43687Y-31817D01*
X43825Y-31875D01*
X43974Y-31875D01*
X44112Y-31818D01*
X44217Y-31713D01*
X44275Y-31575D01*
X44275Y-32167D01*
X44175Y-32125D01*
X44026Y-32125D01*
X43888Y-32182D01*
X43783Y-32287D01*
X43725Y-32425D01*
X43725Y-32574D01*
X43782Y-32712D01*
X43887Y-32817D01*
X44025Y-32875D01*
X44174Y-32875D01*
X44312Y-32818D01*
X44417Y-32713D01*
X44475Y-32575D01*
X44475Y-33667D01*
X44375Y-33625D01*
X44226Y-33625D01*
X44088Y-33682D01*
X43983Y-33787D01*
X43925Y-33925D01*
X43925Y-34074D01*
X43982Y-34212D01*
X44087Y-34317D01*
X44225Y-34375D01*
X44374Y-34375D01*
X44512Y-34318D01*
X44617Y-34213D01*
X44675Y-34075D01*
X44675Y-34667D01*
X44575Y-34625D01*
X44426Y-34625D01*
X44288Y-34682D01*
X44183Y-34787D01*
X44125Y-34925D01*
X44125Y-35074D01*
X44182Y-35212D01*
X44287Y-35317D01*
X44425Y-35375D01*
X44574Y-35375D01*
X44712Y-35318D01*
X44817Y-35213D01*
X44875Y-35075D01*
X44875Y-35667D01*
X44775Y-35625D01*
X44626Y-35625D01*
X44488Y-35682D01*
X44383Y-35787D01*
X44325Y-35925D01*
X44325Y-36074D01*
X44382Y-36212D01*
X44487Y-36317D01*
X44625Y-36375D01*
X44774Y-36375D01*
X44912Y-36318D01*
X45000Y-36229D01*
X45035Y-36311D01*
X45189Y-36465D01*
X45273Y-36500D01*
X45189Y-36535D01*
X45035Y-36689D01*
X44951Y-36891D01*
X44951Y-37109D01*
X45035Y-37311D01*
X45189Y-37465D01*
X45391Y-37549D01*
X45609Y-37549D01*
X45811Y-37465D01*
X45965Y-37311D01*
X46000Y-37226D01*
X46035Y-37311D01*
X46189Y-37465D01*
X46391Y-37549D01*
X46609Y-37549D01*
X46811Y-37465D01*
X46965Y-37311D01*
X46999Y-37229D01*
X47049Y-37109D01*
X47049Y-36891D01*
X46999Y-36770D01*
X46965Y-36689D01*
X46811Y-36535D01*
X46726Y-36500D01*
X46811Y-36465D01*
X46965Y-36311D01*
X46999Y-36229D01*
X47049Y-36109D01*
X47049Y-35891D01*
X46999Y-35770D01*
X46965Y-35689D01*
X46811Y-35535D01*
X46726Y-35500D01*
X46811Y-35465D01*
X46965Y-35311D01*
X46999Y-35229D01*
X47049Y-35109D01*
X47049Y-34891D01*
X46999Y-34770D01*
X46965Y-34689D01*
X46811Y-34535D01*
X46726Y-34500D01*
X46811Y-34465D01*
X46965Y-34311D01*
X46999Y-34229D01*
X47049Y-34109D01*
X47049Y-33891D01*
X47040Y-33869D01*
X47175Y-33735D01*
X47175Y-37675D01*
M02*
