G04 (created by PCBNEW-RS274X (2012-01-19 BZR 3256)-stable) date 12/09/2012 14:41:23*
G01*
G70*
G90*
%MOIN*%
G04 Gerber Fmt 3.4, Leading zero omitted, Abs format*
%FSLAX34Y34*%
G04 APERTURE LIST*
%ADD10C,0.006000*%
%ADD11R,0.060000X0.060000*%
%ADD12C,0.060000*%
%ADD13C,0.025000*%
%ADD14C,0.020000*%
%ADD15C,0.010000*%
G04 APERTURE END LIST*
G54D10*
G54D11*
X45500Y-16500D03*
G54D12*
X46500Y-16500D03*
X45500Y-17500D03*
X46500Y-17500D03*
X45500Y-18500D03*
X46500Y-18500D03*
X45500Y-19500D03*
X46500Y-19500D03*
X45500Y-20500D03*
X46500Y-20500D03*
X45500Y-21500D03*
X46500Y-21500D03*
G54D11*
X45500Y-12000D03*
G54D12*
X46500Y-12000D03*
X45500Y-13000D03*
X46500Y-13000D03*
X45500Y-14000D03*
X46500Y-14000D03*
X45500Y-15000D03*
X46500Y-15000D03*
G54D11*
X45500Y-07500D03*
G54D12*
X46500Y-07500D03*
X45500Y-08500D03*
X46500Y-08500D03*
X45500Y-09500D03*
X46500Y-09500D03*
X45500Y-10500D03*
X46500Y-10500D03*
G54D11*
X11000Y-25500D03*
G54D12*
X12000Y-25500D03*
X11000Y-26500D03*
X12000Y-26500D03*
X11000Y-27500D03*
X12000Y-27500D03*
X11000Y-28500D03*
X12000Y-28500D03*
G54D11*
X11000Y-20750D03*
G54D12*
X12000Y-20750D03*
X11000Y-21750D03*
X12000Y-21750D03*
X11000Y-22750D03*
X12000Y-22750D03*
X11000Y-23750D03*
X12000Y-23750D03*
G54D11*
X11000Y-16000D03*
G54D12*
X12000Y-16000D03*
X11000Y-17000D03*
X12000Y-17000D03*
X11000Y-18000D03*
X12000Y-18000D03*
X11000Y-19000D03*
X12000Y-19000D03*
G54D11*
X45500Y-34000D03*
G54D12*
X46500Y-34000D03*
X45500Y-35000D03*
X46500Y-35000D03*
X45500Y-36000D03*
X46500Y-36000D03*
X45500Y-37000D03*
X46500Y-37000D03*
G54D11*
X45500Y-29500D03*
G54D12*
X46500Y-29500D03*
X45500Y-30500D03*
X46500Y-30500D03*
X45500Y-31500D03*
X46500Y-31500D03*
X45500Y-32500D03*
X46500Y-32500D03*
G54D11*
X36500Y-22000D03*
G54D12*
X35500Y-22000D03*
G54D11*
X43000Y-08500D03*
G54D12*
X43000Y-09500D03*
X42000Y-08500D03*
X42000Y-09500D03*
X41000Y-08500D03*
X41000Y-09500D03*
X40000Y-08500D03*
X40000Y-09500D03*
X39000Y-08500D03*
X39000Y-09500D03*
X38000Y-08500D03*
X38000Y-09500D03*
X37000Y-08500D03*
X37000Y-09500D03*
X36000Y-08500D03*
X36000Y-09500D03*
X35000Y-08500D03*
X35000Y-09500D03*
X34000Y-08500D03*
X34000Y-09500D03*
X33000Y-08500D03*
X33000Y-09500D03*
X32000Y-08500D03*
X32000Y-09500D03*
X31000Y-08500D03*
X31000Y-09500D03*
X30000Y-08500D03*
X30000Y-09500D03*
X29000Y-08500D03*
X29000Y-09500D03*
X28000Y-08500D03*
X28000Y-09500D03*
X27000Y-08500D03*
X27000Y-09500D03*
X26000Y-08500D03*
X26000Y-09500D03*
X25000Y-08500D03*
X25000Y-09500D03*
X24000Y-08500D03*
X24000Y-09500D03*
X23000Y-08500D03*
X23000Y-09500D03*
X22000Y-08500D03*
X22000Y-09500D03*
X21000Y-08500D03*
X21000Y-09500D03*
X20000Y-08500D03*
X20000Y-09500D03*
X19000Y-08500D03*
X19000Y-09500D03*
X18000Y-08500D03*
X18000Y-09500D03*
X17000Y-08500D03*
X17000Y-09500D03*
X16000Y-08500D03*
X16000Y-09500D03*
X15000Y-08500D03*
X15000Y-09500D03*
X14000Y-08500D03*
X14000Y-09500D03*
X13000Y-08500D03*
X13000Y-09500D03*
X12000Y-08500D03*
X12000Y-09500D03*
G54D11*
X43000Y-12000D03*
G54D12*
X43000Y-13000D03*
X42000Y-12000D03*
X42000Y-13000D03*
X41000Y-12000D03*
X41000Y-13000D03*
X40000Y-12000D03*
X40000Y-13000D03*
X39000Y-12000D03*
X39000Y-13000D03*
X38000Y-12000D03*
X38000Y-13000D03*
X37000Y-12000D03*
X37000Y-13000D03*
X36000Y-12000D03*
X36000Y-13000D03*
X35000Y-12000D03*
X35000Y-13000D03*
X34000Y-12000D03*
X34000Y-13000D03*
X33000Y-12000D03*
X33000Y-13000D03*
X32000Y-12000D03*
X32000Y-13000D03*
X31000Y-12000D03*
X31000Y-13000D03*
X30000Y-12000D03*
X30000Y-13000D03*
X29000Y-12000D03*
X29000Y-13000D03*
X28000Y-12000D03*
X28000Y-13000D03*
X27000Y-12000D03*
X27000Y-13000D03*
X26000Y-12000D03*
X26000Y-13000D03*
X25000Y-12000D03*
X25000Y-13000D03*
X24000Y-12000D03*
X24000Y-13000D03*
X23000Y-12000D03*
X23000Y-13000D03*
X22000Y-12000D03*
X22000Y-13000D03*
X21000Y-12000D03*
X21000Y-13000D03*
X20000Y-12000D03*
X20000Y-13000D03*
X19000Y-12000D03*
X19000Y-13000D03*
X18000Y-12000D03*
X18000Y-13000D03*
X17000Y-12000D03*
X17000Y-13000D03*
X16000Y-12000D03*
X16000Y-13000D03*
X15000Y-12000D03*
X15000Y-13000D03*
X14000Y-12000D03*
X14000Y-13000D03*
X13000Y-12000D03*
X13000Y-13000D03*
X12000Y-12000D03*
X12000Y-13000D03*
G54D11*
X12000Y-32500D03*
G54D12*
X12000Y-31500D03*
X13000Y-32500D03*
X13000Y-31500D03*
X14000Y-32500D03*
X14000Y-31500D03*
X15000Y-32500D03*
X15000Y-31500D03*
X16000Y-32500D03*
X16000Y-31500D03*
X17000Y-32500D03*
X17000Y-31500D03*
X18000Y-32500D03*
X18000Y-31500D03*
X19000Y-32500D03*
X19000Y-31500D03*
X20000Y-32500D03*
X20000Y-31500D03*
X21000Y-32500D03*
X21000Y-31500D03*
X22000Y-32500D03*
X22000Y-31500D03*
X23000Y-32500D03*
X23000Y-31500D03*
X24000Y-32500D03*
X24000Y-31500D03*
X25000Y-32500D03*
X25000Y-31500D03*
X26000Y-32500D03*
X26000Y-31500D03*
X27000Y-32500D03*
X27000Y-31500D03*
X28000Y-32500D03*
X28000Y-31500D03*
X29000Y-32500D03*
X29000Y-31500D03*
X30000Y-32500D03*
X30000Y-31500D03*
X31000Y-32500D03*
X31000Y-31500D03*
X32000Y-32500D03*
X32000Y-31500D03*
X33000Y-32500D03*
X33000Y-31500D03*
X34000Y-32500D03*
X34000Y-31500D03*
X35000Y-32500D03*
X35000Y-31500D03*
X36000Y-32500D03*
X36000Y-31500D03*
X37000Y-32500D03*
X37000Y-31500D03*
X38000Y-32500D03*
X38000Y-31500D03*
X39000Y-32500D03*
X39000Y-31500D03*
X40000Y-32500D03*
X40000Y-31500D03*
X41000Y-32500D03*
X41000Y-31500D03*
X42000Y-32500D03*
X42000Y-31500D03*
X43000Y-32500D03*
X43000Y-31500D03*
G54D11*
X12000Y-36000D03*
G54D12*
X12000Y-35000D03*
X13000Y-36000D03*
X13000Y-35000D03*
X14000Y-36000D03*
X14000Y-35000D03*
X15000Y-36000D03*
X15000Y-35000D03*
X16000Y-36000D03*
X16000Y-35000D03*
X17000Y-36000D03*
X17000Y-35000D03*
X18000Y-36000D03*
X18000Y-35000D03*
X19000Y-36000D03*
X19000Y-35000D03*
X20000Y-36000D03*
X20000Y-35000D03*
X21000Y-36000D03*
X21000Y-35000D03*
X22000Y-36000D03*
X22000Y-35000D03*
X23000Y-36000D03*
X23000Y-35000D03*
X24000Y-36000D03*
X24000Y-35000D03*
X25000Y-36000D03*
X25000Y-35000D03*
X26000Y-36000D03*
X26000Y-35000D03*
X27000Y-36000D03*
X27000Y-35000D03*
X28000Y-36000D03*
X28000Y-35000D03*
X29000Y-36000D03*
X29000Y-35000D03*
X30000Y-36000D03*
X30000Y-35000D03*
X31000Y-36000D03*
X31000Y-35000D03*
X32000Y-36000D03*
X32000Y-35000D03*
X33000Y-36000D03*
X33000Y-35000D03*
X34000Y-36000D03*
X34000Y-35000D03*
X35000Y-36000D03*
X35000Y-35000D03*
X36000Y-36000D03*
X36000Y-35000D03*
X37000Y-36000D03*
X37000Y-35000D03*
X38000Y-36000D03*
X38000Y-35000D03*
X39000Y-36000D03*
X39000Y-35000D03*
X40000Y-36000D03*
X40000Y-35000D03*
X41000Y-36000D03*
X41000Y-35000D03*
X42000Y-36000D03*
X42000Y-35000D03*
X43000Y-36000D03*
X43000Y-35000D03*
G54D13*
X36700Y-26700D03*
X36700Y-27500D03*
X20900Y-29400D03*
X16800Y-20000D03*
X21000Y-30100D03*
X17100Y-19800D03*
X17400Y-20000D03*
X17900Y-26300D03*
X17900Y-25900D03*
X17800Y-20000D03*
X17900Y-25500D03*
X18200Y-20000D03*
X17500Y-25000D03*
X17500Y-25400D03*
X19000Y-17700D03*
X28700Y-16100D03*
X21500Y-25900D03*
X19200Y-18000D03*
X21500Y-25500D03*
X28400Y-16300D03*
X25500Y-25500D03*
X23000Y-17900D03*
X23300Y-17700D03*
X25500Y-25100D03*
X23300Y-17300D03*
X25000Y-24500D03*
X23000Y-17100D03*
X24800Y-24100D03*
X24800Y-23700D03*
X23000Y-16700D03*
X25000Y-23400D03*
X23300Y-16500D03*
X28100Y-16500D03*
X21500Y-25100D03*
X19400Y-18300D03*
X27800Y-16700D03*
X19600Y-18600D03*
X21500Y-24700D03*
X21500Y-24300D03*
X28700Y-18500D03*
X19800Y-18900D03*
X28400Y-18700D03*
X21500Y-23900D03*
X20000Y-19200D03*
X20200Y-19500D03*
X21500Y-23500D03*
X28100Y-18900D03*
X21900Y-23500D03*
X20400Y-19800D03*
X27800Y-19100D03*
X22400Y-18300D03*
X25500Y-26300D03*
X25500Y-25900D03*
X22700Y-18100D03*
X26100Y-14300D03*
X27900Y-15300D03*
X24700Y-16600D03*
X22400Y-17900D03*
X28150Y-30700D03*
X25500Y-26700D03*
X20900Y-29000D03*
X25100Y-16600D03*
X22900Y-28900D03*
X17100Y-25400D03*
X23300Y-30400D03*
X26100Y-14700D03*
X23700Y-30700D03*
X18600Y-20000D03*
X16900Y-24800D03*
X14500Y-16600D03*
X42000Y-13800D03*
X44700Y-36000D03*
X44500Y-35000D03*
X44300Y-34000D03*
X43900Y-31500D03*
X43700Y-30500D03*
X44100Y-32500D03*
X43500Y-29500D03*
X41725Y-25875D03*
X40325Y-25875D03*
X42500Y-20700D03*
X21100Y-18800D03*
X42100Y-28600D03*
X18200Y-15900D03*
X25600Y-17200D03*
X26100Y-23400D03*
X15100Y-18700D03*
X41800Y-26800D03*
X32400Y-15500D03*
X34200Y-17300D03*
X14000Y-29500D03*
X39200Y-26700D03*
X36000Y-20300D03*
X25500Y-21000D03*
X25600Y-18200D03*
X36000Y-14800D03*
X14400Y-17300D03*
X34200Y-17700D03*
X14400Y-25000D03*
G54D14*
X41800Y-26800D02*
X42500Y-26100D01*
X42500Y-26100D02*
X42500Y-20700D01*
X25700Y-17300D02*
X25600Y-17200D01*
X16000Y-13000D02*
X18200Y-15200D01*
X43000Y-31500D02*
X42100Y-30600D01*
X15400Y-18700D02*
X15100Y-18700D01*
X21100Y-18800D02*
X18200Y-15900D01*
X16700Y-20600D02*
X15100Y-19000D01*
X15100Y-18700D02*
X15100Y-28400D01*
X41800Y-26800D02*
X42100Y-27100D01*
X42100Y-27100D02*
X42100Y-28600D01*
X34200Y-17300D02*
X32400Y-15500D01*
X22200Y-20600D02*
X16700Y-20600D01*
X25600Y-17200D02*
X22200Y-20600D01*
X15100Y-28400D02*
X14000Y-29500D01*
X34200Y-17300D02*
X25700Y-17300D01*
X25000Y-17800D02*
X25600Y-17200D01*
X42100Y-30600D02*
X42100Y-28600D01*
X25000Y-22300D02*
X25000Y-17800D01*
X26100Y-23400D02*
X25000Y-22300D01*
X15100Y-19000D02*
X15100Y-18700D01*
X18200Y-15200D02*
X18200Y-15900D01*
X18200Y-15900D02*
X15400Y-18700D01*
G54D10*
G36*
X47175Y-37675D02*
X47049Y-37675D01*
X47049Y-37109D01*
X47049Y-36891D01*
X46999Y-36770D01*
X46965Y-36689D01*
X46811Y-36535D01*
X46726Y-36500D01*
X46811Y-36465D01*
X46965Y-36311D01*
X46999Y-36229D01*
X47049Y-36109D01*
X47049Y-35891D01*
X46999Y-35770D01*
X46965Y-35689D01*
X46811Y-35535D01*
X46726Y-35500D01*
X46811Y-35465D01*
X46965Y-35311D01*
X46999Y-35229D01*
X47049Y-35109D01*
X47049Y-34891D01*
X46999Y-34770D01*
X46965Y-34689D01*
X46811Y-34535D01*
X46726Y-34500D01*
X46811Y-34465D01*
X46965Y-34311D01*
X46999Y-34229D01*
X47049Y-34109D01*
X47049Y-33891D01*
X47049Y-32609D01*
X47049Y-32391D01*
X46999Y-32270D01*
X46965Y-32189D01*
X46811Y-32035D01*
X46726Y-32000D01*
X46811Y-31965D01*
X46965Y-31811D01*
X46999Y-31729D01*
X47049Y-31609D01*
X47049Y-31391D01*
X46999Y-31270D01*
X46965Y-31189D01*
X46811Y-31035D01*
X46726Y-31000D01*
X46811Y-30965D01*
X46965Y-30811D01*
X46999Y-30729D01*
X47049Y-30609D01*
X47049Y-30391D01*
X46999Y-30270D01*
X46965Y-30189D01*
X46811Y-30035D01*
X46726Y-30000D01*
X46811Y-29965D01*
X46965Y-29811D01*
X46999Y-29729D01*
X47049Y-29609D01*
X47049Y-29391D01*
X47049Y-21609D01*
X47049Y-21391D01*
X46965Y-21189D01*
X46811Y-21035D01*
X46726Y-21000D01*
X46811Y-20965D01*
X46965Y-20811D01*
X47049Y-20609D01*
X47049Y-20391D01*
X46965Y-20189D01*
X46811Y-20035D01*
X46726Y-20000D01*
X46811Y-19965D01*
X46965Y-19811D01*
X47049Y-19609D01*
X47049Y-19391D01*
X46965Y-19189D01*
X46811Y-19035D01*
X46726Y-19000D01*
X46811Y-18965D01*
X46965Y-18811D01*
X47049Y-18609D01*
X47049Y-18391D01*
X46965Y-18189D01*
X46811Y-18035D01*
X46726Y-18000D01*
X46811Y-17965D01*
X46965Y-17811D01*
X47049Y-17609D01*
X47049Y-17391D01*
X46965Y-17189D01*
X46811Y-17035D01*
X46726Y-17000D01*
X46811Y-16965D01*
X46965Y-16811D01*
X47049Y-16609D01*
X47049Y-16391D01*
X47049Y-15109D01*
X47049Y-14891D01*
X46965Y-14689D01*
X46811Y-14535D01*
X46726Y-14500D01*
X46811Y-14465D01*
X46965Y-14311D01*
X47049Y-14109D01*
X47049Y-13891D01*
X46965Y-13689D01*
X46811Y-13535D01*
X46726Y-13500D01*
X46811Y-13465D01*
X46965Y-13311D01*
X47049Y-13109D01*
X47049Y-12891D01*
X46965Y-12689D01*
X46811Y-12535D01*
X46726Y-12500D01*
X46811Y-12465D01*
X46965Y-12311D01*
X47049Y-12109D01*
X47049Y-11891D01*
X47049Y-10609D01*
X47049Y-10391D01*
X46965Y-10189D01*
X46811Y-10035D01*
X46726Y-10000D01*
X46811Y-09965D01*
X46965Y-09811D01*
X47049Y-09609D01*
X47049Y-09391D01*
X46965Y-09189D01*
X46811Y-09035D01*
X46726Y-09000D01*
X46811Y-08965D01*
X46965Y-08811D01*
X47049Y-08609D01*
X47049Y-08391D01*
X46965Y-08189D01*
X46811Y-08035D01*
X46726Y-08000D01*
X46811Y-07965D01*
X46965Y-07811D01*
X47049Y-07609D01*
X47049Y-07391D01*
X46965Y-07189D01*
X46811Y-07035D01*
X46609Y-06951D01*
X46391Y-06951D01*
X46189Y-07035D01*
X46049Y-07175D01*
X46049Y-07151D01*
X46011Y-07059D01*
X45941Y-06989D01*
X45850Y-06951D01*
X45751Y-06951D01*
X45151Y-06951D01*
X45059Y-06989D01*
X44989Y-07059D01*
X44951Y-07150D01*
X44951Y-07249D01*
X44951Y-07849D01*
X44989Y-07941D01*
X45059Y-08011D01*
X45150Y-08049D01*
X45175Y-08049D01*
X45035Y-08189D01*
X44951Y-08391D01*
X44951Y-08609D01*
X45035Y-08811D01*
X45189Y-08965D01*
X45273Y-09000D01*
X45189Y-09035D01*
X45035Y-09189D01*
X44951Y-09391D01*
X44951Y-09609D01*
X45035Y-09811D01*
X45189Y-09965D01*
X45273Y-10000D01*
X45189Y-10035D01*
X45035Y-10189D01*
X44951Y-10391D01*
X44951Y-10609D01*
X45035Y-10811D01*
X45189Y-10965D01*
X45391Y-11049D01*
X45609Y-11049D01*
X45811Y-10965D01*
X45965Y-10811D01*
X46000Y-10726D01*
X46035Y-10811D01*
X46189Y-10965D01*
X46391Y-11049D01*
X46609Y-11049D01*
X46811Y-10965D01*
X46965Y-10811D01*
X47049Y-10609D01*
X47049Y-11891D01*
X46965Y-11689D01*
X46811Y-11535D01*
X46609Y-11451D01*
X46391Y-11451D01*
X46189Y-11535D01*
X46049Y-11675D01*
X46049Y-11651D01*
X46011Y-11559D01*
X45941Y-11489D01*
X45850Y-11451D01*
X45751Y-11451D01*
X45151Y-11451D01*
X45059Y-11489D01*
X44989Y-11559D01*
X44951Y-11650D01*
X44951Y-11749D01*
X44951Y-12349D01*
X44989Y-12441D01*
X45059Y-12511D01*
X45150Y-12549D01*
X45175Y-12549D01*
X45035Y-12689D01*
X44951Y-12891D01*
X44951Y-13109D01*
X45035Y-13311D01*
X45189Y-13465D01*
X45273Y-13500D01*
X45189Y-13535D01*
X45035Y-13689D01*
X44951Y-13891D01*
X44951Y-14109D01*
X45035Y-14311D01*
X45189Y-14465D01*
X45273Y-14500D01*
X45189Y-14535D01*
X45035Y-14689D01*
X44951Y-14891D01*
X44951Y-15109D01*
X45035Y-15311D01*
X45189Y-15465D01*
X45391Y-15549D01*
X45609Y-15549D01*
X45811Y-15465D01*
X45965Y-15311D01*
X46000Y-15226D01*
X46035Y-15311D01*
X46189Y-15465D01*
X46391Y-15549D01*
X46609Y-15549D01*
X46811Y-15465D01*
X46965Y-15311D01*
X47049Y-15109D01*
X47049Y-16391D01*
X46965Y-16189D01*
X46811Y-16035D01*
X46609Y-15951D01*
X46391Y-15951D01*
X46189Y-16035D01*
X46049Y-16175D01*
X46049Y-16151D01*
X46011Y-16059D01*
X45941Y-15989D01*
X45850Y-15951D01*
X45751Y-15951D01*
X45151Y-15951D01*
X45059Y-15989D01*
X44989Y-16059D01*
X44951Y-16150D01*
X44951Y-16249D01*
X44951Y-16849D01*
X44989Y-16941D01*
X45059Y-17011D01*
X45150Y-17049D01*
X45175Y-17049D01*
X45035Y-17189D01*
X44951Y-17391D01*
X44951Y-17609D01*
X45035Y-17811D01*
X45189Y-17965D01*
X45273Y-18000D01*
X45189Y-18035D01*
X45035Y-18189D01*
X44951Y-18391D01*
X44951Y-18609D01*
X45035Y-18811D01*
X45189Y-18965D01*
X45273Y-19000D01*
X45189Y-19035D01*
X45035Y-19189D01*
X44951Y-19391D01*
X44951Y-19609D01*
X45035Y-19811D01*
X45189Y-19965D01*
X45273Y-20000D01*
X45189Y-20035D01*
X45035Y-20189D01*
X44951Y-20391D01*
X44951Y-20609D01*
X45035Y-20811D01*
X45189Y-20965D01*
X45273Y-21000D01*
X45189Y-21035D01*
X45035Y-21189D01*
X44951Y-21391D01*
X44951Y-21609D01*
X45035Y-21811D01*
X45189Y-21965D01*
X45391Y-22049D01*
X45609Y-22049D01*
X45811Y-21965D01*
X45965Y-21811D01*
X46000Y-21726D01*
X46035Y-21811D01*
X46189Y-21965D01*
X46391Y-22049D01*
X46609Y-22049D01*
X46811Y-21965D01*
X46965Y-21811D01*
X47049Y-21609D01*
X47049Y-29391D01*
X46999Y-29270D01*
X46999Y-27802D01*
X46999Y-27096D01*
X46999Y-24652D01*
X46999Y-23946D01*
X46293Y-23946D01*
X46293Y-24652D01*
X46999Y-24652D01*
X46999Y-27096D01*
X46293Y-27096D01*
X46293Y-27802D01*
X46999Y-27802D01*
X46999Y-29270D01*
X46965Y-29189D01*
X46811Y-29035D01*
X46609Y-28951D01*
X46391Y-28951D01*
X46189Y-29035D01*
X46049Y-29175D01*
X46049Y-29151D01*
X46011Y-29059D01*
X45941Y-28989D01*
X45850Y-28951D01*
X45751Y-28951D01*
X45151Y-28951D01*
X45059Y-28989D01*
X44989Y-29059D01*
X44951Y-29150D01*
X44951Y-29249D01*
X44951Y-29849D01*
X44989Y-29941D01*
X45059Y-30011D01*
X45150Y-30049D01*
X45175Y-30049D01*
X45035Y-30189D01*
X44951Y-30391D01*
X44951Y-30609D01*
X45035Y-30811D01*
X45189Y-30965D01*
X45273Y-31000D01*
X45189Y-31035D01*
X45035Y-31189D01*
X44951Y-31391D01*
X44951Y-31609D01*
X45035Y-31811D01*
X45189Y-31965D01*
X45273Y-32000D01*
X45189Y-32035D01*
X45035Y-32189D01*
X44951Y-32391D01*
X44951Y-32609D01*
X45035Y-32811D01*
X45189Y-32965D01*
X45391Y-33049D01*
X45609Y-33049D01*
X45811Y-32965D01*
X45965Y-32811D01*
X46000Y-32726D01*
X46035Y-32811D01*
X46189Y-32965D01*
X46391Y-33049D01*
X46609Y-33049D01*
X46811Y-32965D01*
X46965Y-32811D01*
X46999Y-32729D01*
X47049Y-32609D01*
X47049Y-33891D01*
X46999Y-33770D01*
X46965Y-33689D01*
X46811Y-33535D01*
X46609Y-33451D01*
X46391Y-33451D01*
X46189Y-33535D01*
X46049Y-33675D01*
X46049Y-33651D01*
X46011Y-33559D01*
X45941Y-33489D01*
X45850Y-33451D01*
X45751Y-33451D01*
X45151Y-33451D01*
X45059Y-33489D01*
X44989Y-33559D01*
X44951Y-33650D01*
X44951Y-33749D01*
X44951Y-34349D01*
X44989Y-34441D01*
X45059Y-34511D01*
X45150Y-34549D01*
X45175Y-34549D01*
X45035Y-34689D01*
X44951Y-34891D01*
X44951Y-35109D01*
X45035Y-35311D01*
X45189Y-35465D01*
X45273Y-35500D01*
X45189Y-35535D01*
X45035Y-35689D01*
X45000Y-35770D01*
X44913Y-35683D01*
X44875Y-35667D01*
X44875Y-35075D01*
X44875Y-34926D01*
X44818Y-34788D01*
X44713Y-34683D01*
X44675Y-34667D01*
X44675Y-34075D01*
X44675Y-33926D01*
X44618Y-33788D01*
X44513Y-33683D01*
X44475Y-33667D01*
X44475Y-32575D01*
X44475Y-32426D01*
X44418Y-32288D01*
X44313Y-32183D01*
X44275Y-32167D01*
X44275Y-31575D01*
X44275Y-31426D01*
X44218Y-31288D01*
X44113Y-31183D01*
X44075Y-31167D01*
X44075Y-30575D01*
X44075Y-30426D01*
X44018Y-30288D01*
X43913Y-30183D01*
X43875Y-30167D01*
X43875Y-29575D01*
X43875Y-29426D01*
X43818Y-29288D01*
X43713Y-29183D01*
X43575Y-29125D01*
X43549Y-29125D01*
X43549Y-13109D01*
X43549Y-12891D01*
X43465Y-12689D01*
X43325Y-12549D01*
X43349Y-12549D01*
X43441Y-12511D01*
X43511Y-12441D01*
X43549Y-12350D01*
X43549Y-12251D01*
X43549Y-11651D01*
X43549Y-09609D01*
X43549Y-09391D01*
X43465Y-09189D01*
X43325Y-09049D01*
X43349Y-09049D01*
X43441Y-09011D01*
X43511Y-08941D01*
X43549Y-08850D01*
X43549Y-08751D01*
X43549Y-08151D01*
X43511Y-08059D01*
X43441Y-07989D01*
X43350Y-07951D01*
X43251Y-07951D01*
X42651Y-07951D01*
X42559Y-07989D01*
X42489Y-08059D01*
X42451Y-08150D01*
X42451Y-08175D01*
X42311Y-08035D01*
X42109Y-07951D01*
X41891Y-07951D01*
X41689Y-08035D01*
X41535Y-08189D01*
X41500Y-08273D01*
X41465Y-08189D01*
X41311Y-08035D01*
X41109Y-07951D01*
X40891Y-07951D01*
X40689Y-08035D01*
X40535Y-08189D01*
X40500Y-08273D01*
X40465Y-08189D01*
X40311Y-08035D01*
X40109Y-07951D01*
X39891Y-07951D01*
X39689Y-08035D01*
X39535Y-08189D01*
X39500Y-08273D01*
X39465Y-08189D01*
X39311Y-08035D01*
X39109Y-07951D01*
X38891Y-07951D01*
X38689Y-08035D01*
X38535Y-08189D01*
X38500Y-08273D01*
X38465Y-08189D01*
X38311Y-08035D01*
X38109Y-07951D01*
X37891Y-07951D01*
X37689Y-08035D01*
X37535Y-08189D01*
X37500Y-08273D01*
X37465Y-08189D01*
X37311Y-08035D01*
X37109Y-07951D01*
X36891Y-07951D01*
X36689Y-08035D01*
X36535Y-08189D01*
X36500Y-08273D01*
X36465Y-08189D01*
X36311Y-08035D01*
X36109Y-07951D01*
X35891Y-07951D01*
X35689Y-08035D01*
X35535Y-08189D01*
X35500Y-08273D01*
X35465Y-08189D01*
X35311Y-08035D01*
X35109Y-07951D01*
X34891Y-07951D01*
X34689Y-08035D01*
X34535Y-08189D01*
X34500Y-08273D01*
X34465Y-08189D01*
X34311Y-08035D01*
X34109Y-07951D01*
X33891Y-07951D01*
X33689Y-08035D01*
X33535Y-08189D01*
X33500Y-08273D01*
X33465Y-08189D01*
X33311Y-08035D01*
X33109Y-07951D01*
X32891Y-07951D01*
X32689Y-08035D01*
X32535Y-08189D01*
X32500Y-08273D01*
X32465Y-08189D01*
X32311Y-08035D01*
X32109Y-07951D01*
X31891Y-07951D01*
X31689Y-08035D01*
X31535Y-08189D01*
X31500Y-08273D01*
X31465Y-08189D01*
X31311Y-08035D01*
X31109Y-07951D01*
X30891Y-07951D01*
X30689Y-08035D01*
X30535Y-08189D01*
X30500Y-08273D01*
X30465Y-08189D01*
X30311Y-08035D01*
X30109Y-07951D01*
X29891Y-07951D01*
X29689Y-08035D01*
X29535Y-08189D01*
X29500Y-08273D01*
X29465Y-08189D01*
X29311Y-08035D01*
X29109Y-07951D01*
X28891Y-07951D01*
X28689Y-08035D01*
X28535Y-08189D01*
X28500Y-08273D01*
X28465Y-08189D01*
X28311Y-08035D01*
X28109Y-07951D01*
X27891Y-07951D01*
X27689Y-08035D01*
X27535Y-08189D01*
X27500Y-08273D01*
X27465Y-08189D01*
X27311Y-08035D01*
X27109Y-07951D01*
X26891Y-07951D01*
X26689Y-08035D01*
X26535Y-08189D01*
X26500Y-08273D01*
X26465Y-08189D01*
X26311Y-08035D01*
X26109Y-07951D01*
X25891Y-07951D01*
X25689Y-08035D01*
X25535Y-08189D01*
X25500Y-08273D01*
X25465Y-08189D01*
X25311Y-08035D01*
X25109Y-07951D01*
X24891Y-07951D01*
X24689Y-08035D01*
X24535Y-08189D01*
X24500Y-08273D01*
X24465Y-08189D01*
X24311Y-08035D01*
X24109Y-07951D01*
X23891Y-07951D01*
X23689Y-08035D01*
X23535Y-08189D01*
X23500Y-08273D01*
X23465Y-08189D01*
X23311Y-08035D01*
X23109Y-07951D01*
X22891Y-07951D01*
X22689Y-08035D01*
X22535Y-08189D01*
X22500Y-08273D01*
X22465Y-08189D01*
X22311Y-08035D01*
X22109Y-07951D01*
X21891Y-07951D01*
X21689Y-08035D01*
X21535Y-08189D01*
X21500Y-08273D01*
X21465Y-08189D01*
X21311Y-08035D01*
X21109Y-07951D01*
X20891Y-07951D01*
X20689Y-08035D01*
X20535Y-08189D01*
X20500Y-08273D01*
X20465Y-08189D01*
X20311Y-08035D01*
X20109Y-07951D01*
X19891Y-07951D01*
X19689Y-08035D01*
X19535Y-08189D01*
X19500Y-08273D01*
X19465Y-08189D01*
X19311Y-08035D01*
X19109Y-07951D01*
X18891Y-07951D01*
X18689Y-08035D01*
X18535Y-08189D01*
X18500Y-08273D01*
X18465Y-08189D01*
X18311Y-08035D01*
X18109Y-07951D01*
X17891Y-07951D01*
X17689Y-08035D01*
X17535Y-08189D01*
X17500Y-08273D01*
X17465Y-08189D01*
X17311Y-08035D01*
X17109Y-07951D01*
X16891Y-07951D01*
X16689Y-08035D01*
X16535Y-08189D01*
X16497Y-08280D01*
X16472Y-08219D01*
X16378Y-08192D01*
X16308Y-08262D01*
X16308Y-08122D01*
X16281Y-08028D01*
X16079Y-07957D01*
X15866Y-07968D01*
X15719Y-08028D01*
X15692Y-08122D01*
X16000Y-08429D01*
X16308Y-08122D01*
X16308Y-08262D01*
X16071Y-08500D01*
X16378Y-08808D01*
X16472Y-08781D01*
X16495Y-08715D01*
X16535Y-08811D01*
X16689Y-08965D01*
X16773Y-09000D01*
X16689Y-09035D01*
X16535Y-09189D01*
X16497Y-09280D01*
X16472Y-09219D01*
X16378Y-09192D01*
X16308Y-09262D01*
X16308Y-09122D01*
X16281Y-09028D01*
X16207Y-09002D01*
X16281Y-08972D01*
X16308Y-08878D01*
X16000Y-08571D01*
X15692Y-08878D01*
X15719Y-08972D01*
X15792Y-08997D01*
X15719Y-09028D01*
X15692Y-09122D01*
X16000Y-09429D01*
X16308Y-09122D01*
X16308Y-09262D01*
X16071Y-09500D01*
X16378Y-09808D01*
X16472Y-09781D01*
X16495Y-09715D01*
X16535Y-09811D01*
X16689Y-09965D01*
X16891Y-10049D01*
X17109Y-10049D01*
X17311Y-09965D01*
X17465Y-09811D01*
X17500Y-09726D01*
X17535Y-09811D01*
X17689Y-09965D01*
X17891Y-10049D01*
X18109Y-10049D01*
X18311Y-09965D01*
X18465Y-09811D01*
X18500Y-09726D01*
X18535Y-09811D01*
X18689Y-09965D01*
X18891Y-10049D01*
X19109Y-10049D01*
X19311Y-09965D01*
X19465Y-09811D01*
X19500Y-09726D01*
X19535Y-09811D01*
X19689Y-09965D01*
X19891Y-10049D01*
X20109Y-10049D01*
X20311Y-09965D01*
X20465Y-09811D01*
X20500Y-09726D01*
X20535Y-09811D01*
X20689Y-09965D01*
X20891Y-10049D01*
X21109Y-10049D01*
X21311Y-09965D01*
X21465Y-09811D01*
X21500Y-09726D01*
X21535Y-09811D01*
X21689Y-09965D01*
X21891Y-10049D01*
X22109Y-10049D01*
X22311Y-09965D01*
X22465Y-09811D01*
X22500Y-09726D01*
X22535Y-09811D01*
X22689Y-09965D01*
X22891Y-10049D01*
X23109Y-10049D01*
X23311Y-09965D01*
X23465Y-09811D01*
X23500Y-09726D01*
X23535Y-09811D01*
X23689Y-09965D01*
X23891Y-10049D01*
X24109Y-10049D01*
X24311Y-09965D01*
X24465Y-09811D01*
X24500Y-09726D01*
X24535Y-09811D01*
X24689Y-09965D01*
X24891Y-10049D01*
X25109Y-10049D01*
X25311Y-09965D01*
X25465Y-09811D01*
X25500Y-09726D01*
X25535Y-09811D01*
X25689Y-09965D01*
X25891Y-10049D01*
X26109Y-10049D01*
X26311Y-09965D01*
X26465Y-09811D01*
X26500Y-09726D01*
X26535Y-09811D01*
X26689Y-09965D01*
X26891Y-10049D01*
X27109Y-10049D01*
X27311Y-09965D01*
X27465Y-09811D01*
X27500Y-09726D01*
X27535Y-09811D01*
X27689Y-09965D01*
X27891Y-10049D01*
X28109Y-10049D01*
X28311Y-09965D01*
X28465Y-09811D01*
X28500Y-09726D01*
X28535Y-09811D01*
X28689Y-09965D01*
X28891Y-10049D01*
X29109Y-10049D01*
X29311Y-09965D01*
X29465Y-09811D01*
X29500Y-09726D01*
X29535Y-09811D01*
X29689Y-09965D01*
X29891Y-10049D01*
X30109Y-10049D01*
X30311Y-09965D01*
X30465Y-09811D01*
X30500Y-09726D01*
X30535Y-09811D01*
X30689Y-09965D01*
X30891Y-10049D01*
X31109Y-10049D01*
X31311Y-09965D01*
X31465Y-09811D01*
X31500Y-09726D01*
X31535Y-09811D01*
X31689Y-09965D01*
X31891Y-10049D01*
X32109Y-10049D01*
X32311Y-09965D01*
X32465Y-09811D01*
X32500Y-09726D01*
X32535Y-09811D01*
X32689Y-09965D01*
X32891Y-10049D01*
X33109Y-10049D01*
X33311Y-09965D01*
X33465Y-09811D01*
X33500Y-09726D01*
X33535Y-09811D01*
X33689Y-09965D01*
X33891Y-10049D01*
X34109Y-10049D01*
X34311Y-09965D01*
X34465Y-09811D01*
X34500Y-09726D01*
X34535Y-09811D01*
X34689Y-09965D01*
X34891Y-10049D01*
X35109Y-10049D01*
X35311Y-09965D01*
X35465Y-09811D01*
X35500Y-09726D01*
X35535Y-09811D01*
X35689Y-09965D01*
X35891Y-10049D01*
X36109Y-10049D01*
X36311Y-09965D01*
X36465Y-09811D01*
X36500Y-09726D01*
X36535Y-09811D01*
X36689Y-09965D01*
X36891Y-10049D01*
X37109Y-10049D01*
X37311Y-09965D01*
X37465Y-09811D01*
X37500Y-09726D01*
X37535Y-09811D01*
X37689Y-09965D01*
X37891Y-10049D01*
X38109Y-10049D01*
X38311Y-09965D01*
X38465Y-09811D01*
X38500Y-09726D01*
X38535Y-09811D01*
X38689Y-09965D01*
X38891Y-10049D01*
X39109Y-10049D01*
X39311Y-09965D01*
X39465Y-09811D01*
X39500Y-09726D01*
X39535Y-09811D01*
X39689Y-09965D01*
X39891Y-10049D01*
X40109Y-10049D01*
X40311Y-09965D01*
X40465Y-09811D01*
X40500Y-09726D01*
X40535Y-09811D01*
X40689Y-09965D01*
X40891Y-10049D01*
X41109Y-10049D01*
X41311Y-09965D01*
X41465Y-09811D01*
X41500Y-09726D01*
X41535Y-09811D01*
X41689Y-09965D01*
X41891Y-10049D01*
X42109Y-10049D01*
X42311Y-09965D01*
X42465Y-09811D01*
X42500Y-09726D01*
X42535Y-09811D01*
X42689Y-09965D01*
X42891Y-10049D01*
X43109Y-10049D01*
X43311Y-09965D01*
X43465Y-09811D01*
X43549Y-09609D01*
X43549Y-11651D01*
X43511Y-11559D01*
X43441Y-11489D01*
X43350Y-11451D01*
X43251Y-11451D01*
X42651Y-11451D01*
X42559Y-11489D01*
X42489Y-11559D01*
X42451Y-11650D01*
X42451Y-11675D01*
X42311Y-11535D01*
X42109Y-11451D01*
X41891Y-11451D01*
X41689Y-11535D01*
X41535Y-11689D01*
X41500Y-11773D01*
X41465Y-11689D01*
X41311Y-11535D01*
X41109Y-11451D01*
X40891Y-11451D01*
X40689Y-11535D01*
X40535Y-11689D01*
X40500Y-11773D01*
X40465Y-11689D01*
X40311Y-11535D01*
X40109Y-11451D01*
X39891Y-11451D01*
X39689Y-11535D01*
X39535Y-11689D01*
X39500Y-11773D01*
X39465Y-11689D01*
X39311Y-11535D01*
X39109Y-11451D01*
X38891Y-11451D01*
X38689Y-11535D01*
X38535Y-11689D01*
X38500Y-11773D01*
X38465Y-11689D01*
X38311Y-11535D01*
X38109Y-11451D01*
X37891Y-11451D01*
X37689Y-11535D01*
X37535Y-11689D01*
X37500Y-11773D01*
X37465Y-11689D01*
X37311Y-11535D01*
X37109Y-11451D01*
X36891Y-11451D01*
X36689Y-11535D01*
X36535Y-11689D01*
X36500Y-11773D01*
X36465Y-11689D01*
X36311Y-11535D01*
X36109Y-11451D01*
X35891Y-11451D01*
X35689Y-11535D01*
X35535Y-11689D01*
X35500Y-11773D01*
X35465Y-11689D01*
X35311Y-11535D01*
X35109Y-11451D01*
X34891Y-11451D01*
X34689Y-11535D01*
X34535Y-11689D01*
X34500Y-11773D01*
X34465Y-11689D01*
X34311Y-11535D01*
X34109Y-11451D01*
X33891Y-11451D01*
X33689Y-11535D01*
X33535Y-11689D01*
X33500Y-11773D01*
X33465Y-11689D01*
X33311Y-11535D01*
X33109Y-11451D01*
X32891Y-11451D01*
X32689Y-11535D01*
X32535Y-11689D01*
X32500Y-11773D01*
X32465Y-11689D01*
X32311Y-11535D01*
X32109Y-11451D01*
X31891Y-11451D01*
X31689Y-11535D01*
X31535Y-11689D01*
X31500Y-11773D01*
X31465Y-11689D01*
X31311Y-11535D01*
X31109Y-11451D01*
X30891Y-11451D01*
X30689Y-11535D01*
X30535Y-11689D01*
X30500Y-11773D01*
X30465Y-11689D01*
X30311Y-11535D01*
X30109Y-11451D01*
X29891Y-11451D01*
X29689Y-11535D01*
X29535Y-11689D01*
X29500Y-11773D01*
X29465Y-11689D01*
X29311Y-11535D01*
X29109Y-11451D01*
X28891Y-11451D01*
X28689Y-11535D01*
X28535Y-11689D01*
X28500Y-11773D01*
X28465Y-11689D01*
X28311Y-11535D01*
X28109Y-11451D01*
X27891Y-11451D01*
X27689Y-11535D01*
X27535Y-11689D01*
X27500Y-11773D01*
X27465Y-11689D01*
X27311Y-11535D01*
X27109Y-11451D01*
X26891Y-11451D01*
X26689Y-11535D01*
X26535Y-11689D01*
X26500Y-11773D01*
X26465Y-11689D01*
X26311Y-11535D01*
X26109Y-11451D01*
X25891Y-11451D01*
X25689Y-11535D01*
X25535Y-11689D01*
X25500Y-11773D01*
X25465Y-11689D01*
X25311Y-11535D01*
X25109Y-11451D01*
X24891Y-11451D01*
X24689Y-11535D01*
X24535Y-11689D01*
X24500Y-11773D01*
X24465Y-11689D01*
X24311Y-11535D01*
X24109Y-11451D01*
X23891Y-11451D01*
X23689Y-11535D01*
X23535Y-11689D01*
X23500Y-11773D01*
X23465Y-11689D01*
X23311Y-11535D01*
X23109Y-11451D01*
X22891Y-11451D01*
X22689Y-11535D01*
X22535Y-11689D01*
X22500Y-11773D01*
X22465Y-11689D01*
X22311Y-11535D01*
X22109Y-11451D01*
X21891Y-11451D01*
X21689Y-11535D01*
X21535Y-11689D01*
X21500Y-11773D01*
X21465Y-11689D01*
X21311Y-11535D01*
X21109Y-11451D01*
X20891Y-11451D01*
X20689Y-11535D01*
X20535Y-11689D01*
X20500Y-11773D01*
X20465Y-11689D01*
X20311Y-11535D01*
X20109Y-11451D01*
X19891Y-11451D01*
X19689Y-11535D01*
X19535Y-11689D01*
X19500Y-11773D01*
X19465Y-11689D01*
X19311Y-11535D01*
X19109Y-11451D01*
X18891Y-11451D01*
X18689Y-11535D01*
X18535Y-11689D01*
X18500Y-11773D01*
X18465Y-11689D01*
X18311Y-11535D01*
X18109Y-11451D01*
X17891Y-11451D01*
X17689Y-11535D01*
X17535Y-11689D01*
X17500Y-11773D01*
X17465Y-11689D01*
X17311Y-11535D01*
X17109Y-11451D01*
X16891Y-11451D01*
X16689Y-11535D01*
X16535Y-11689D01*
X16497Y-11780D01*
X16472Y-11719D01*
X16378Y-11692D01*
X16308Y-11762D01*
X16308Y-11622D01*
X16308Y-09878D01*
X16000Y-09571D01*
X15692Y-09878D01*
X15719Y-09972D01*
X15921Y-10043D01*
X16134Y-10032D01*
X16281Y-09972D01*
X16308Y-09878D01*
X16308Y-11622D01*
X16281Y-11528D01*
X16079Y-11457D01*
X15866Y-11468D01*
X15719Y-11528D01*
X15692Y-11622D01*
X16000Y-11929D01*
X16308Y-11622D01*
X16308Y-11762D01*
X16071Y-12000D01*
X16378Y-12308D01*
X16472Y-12281D01*
X16495Y-12215D01*
X16535Y-12311D01*
X16689Y-12465D01*
X16773Y-12500D01*
X16689Y-12535D01*
X16535Y-12689D01*
X16497Y-12780D01*
X16472Y-12719D01*
X16378Y-12692D01*
X16308Y-12762D01*
X16308Y-12622D01*
X16281Y-12528D01*
X16207Y-12502D01*
X16281Y-12472D01*
X16308Y-12378D01*
X16000Y-12071D01*
X15692Y-12378D01*
X15719Y-12472D01*
X15792Y-12497D01*
X15719Y-12528D01*
X15692Y-12622D01*
X16000Y-12929D01*
X16308Y-12622D01*
X16308Y-12762D01*
X16071Y-13000D01*
X16378Y-13308D01*
X16472Y-13281D01*
X16495Y-13215D01*
X16535Y-13311D01*
X16689Y-13465D01*
X16891Y-13549D01*
X17109Y-13549D01*
X17311Y-13465D01*
X17465Y-13311D01*
X17500Y-13226D01*
X17535Y-13311D01*
X17689Y-13465D01*
X17891Y-13549D01*
X18109Y-13549D01*
X18311Y-13465D01*
X18465Y-13311D01*
X18500Y-13226D01*
X18535Y-13311D01*
X18689Y-13465D01*
X18891Y-13549D01*
X19109Y-13549D01*
X19311Y-13465D01*
X19465Y-13311D01*
X19500Y-13226D01*
X19535Y-13311D01*
X19689Y-13465D01*
X19891Y-13549D01*
X20109Y-13549D01*
X20311Y-13465D01*
X20465Y-13311D01*
X20500Y-13226D01*
X20535Y-13311D01*
X20689Y-13465D01*
X20891Y-13549D01*
X21109Y-13549D01*
X21311Y-13465D01*
X21465Y-13311D01*
X21500Y-13226D01*
X21535Y-13311D01*
X21689Y-13465D01*
X21891Y-13549D01*
X22109Y-13549D01*
X22311Y-13465D01*
X22465Y-13311D01*
X22500Y-13226D01*
X22535Y-13311D01*
X22689Y-13465D01*
X22891Y-13549D01*
X23109Y-13549D01*
X23311Y-13465D01*
X23465Y-13311D01*
X23500Y-13226D01*
X23535Y-13311D01*
X23689Y-13465D01*
X23891Y-13549D01*
X24109Y-13549D01*
X24311Y-13465D01*
X24465Y-13311D01*
X24500Y-13226D01*
X24535Y-13311D01*
X24689Y-13465D01*
X24891Y-13549D01*
X25109Y-13549D01*
X25311Y-13465D01*
X25465Y-13311D01*
X25500Y-13226D01*
X25535Y-13311D01*
X25689Y-13465D01*
X25891Y-13549D01*
X26109Y-13549D01*
X26311Y-13465D01*
X26465Y-13311D01*
X26500Y-13226D01*
X26535Y-13311D01*
X26689Y-13465D01*
X26891Y-13549D01*
X27109Y-13549D01*
X27311Y-13465D01*
X27465Y-13311D01*
X27500Y-13226D01*
X27535Y-13311D01*
X27689Y-13465D01*
X27891Y-13549D01*
X28109Y-13549D01*
X28311Y-13465D01*
X28465Y-13311D01*
X28500Y-13226D01*
X28535Y-13311D01*
X28689Y-13465D01*
X28891Y-13549D01*
X29109Y-13549D01*
X29311Y-13465D01*
X29465Y-13311D01*
X29500Y-13226D01*
X29535Y-13311D01*
X29689Y-13465D01*
X29891Y-13549D01*
X30109Y-13549D01*
X30311Y-13465D01*
X30465Y-13311D01*
X30500Y-13226D01*
X30535Y-13311D01*
X30689Y-13465D01*
X30891Y-13549D01*
X31109Y-13549D01*
X31311Y-13465D01*
X31465Y-13311D01*
X31500Y-13226D01*
X31535Y-13311D01*
X31689Y-13465D01*
X31891Y-13549D01*
X32109Y-13549D01*
X32311Y-13465D01*
X32465Y-13311D01*
X32500Y-13226D01*
X32535Y-13311D01*
X32689Y-13465D01*
X32891Y-13549D01*
X33109Y-13549D01*
X33311Y-13465D01*
X33465Y-13311D01*
X33500Y-13226D01*
X33535Y-13311D01*
X33689Y-13465D01*
X33891Y-13549D01*
X34109Y-13549D01*
X34311Y-13465D01*
X34465Y-13311D01*
X34500Y-13226D01*
X34535Y-13311D01*
X34689Y-13465D01*
X34891Y-13549D01*
X35109Y-13549D01*
X35311Y-13465D01*
X35465Y-13311D01*
X35500Y-13226D01*
X35535Y-13311D01*
X35689Y-13465D01*
X35891Y-13549D01*
X36109Y-13549D01*
X36311Y-13465D01*
X36465Y-13311D01*
X36500Y-13226D01*
X36535Y-13311D01*
X36689Y-13465D01*
X36891Y-13549D01*
X37109Y-13549D01*
X37311Y-13465D01*
X37465Y-13311D01*
X37500Y-13226D01*
X37535Y-13311D01*
X37689Y-13465D01*
X37891Y-13549D01*
X38109Y-13549D01*
X38311Y-13465D01*
X38465Y-13311D01*
X38500Y-13226D01*
X38535Y-13311D01*
X38689Y-13465D01*
X38891Y-13549D01*
X39109Y-13549D01*
X39311Y-13465D01*
X39465Y-13311D01*
X39500Y-13226D01*
X39535Y-13311D01*
X39689Y-13465D01*
X39891Y-13549D01*
X40109Y-13549D01*
X40311Y-13465D01*
X40465Y-13311D01*
X40500Y-13226D01*
X40535Y-13311D01*
X40689Y-13465D01*
X40891Y-13549D01*
X41109Y-13549D01*
X41311Y-13465D01*
X41465Y-13311D01*
X41500Y-13226D01*
X41535Y-13311D01*
X41689Y-13465D01*
X41770Y-13499D01*
X41683Y-13587D01*
X41625Y-13725D01*
X41625Y-13874D01*
X41682Y-14012D01*
X41787Y-14117D01*
X41925Y-14175D01*
X42074Y-14175D01*
X42212Y-14118D01*
X42317Y-14013D01*
X42375Y-13875D01*
X42375Y-13726D01*
X42318Y-13588D01*
X42229Y-13499D01*
X42311Y-13465D01*
X42465Y-13311D01*
X42500Y-13226D01*
X42535Y-13311D01*
X42689Y-13465D01*
X42891Y-13549D01*
X43109Y-13549D01*
X43311Y-13465D01*
X43465Y-13311D01*
X43549Y-13109D01*
X43549Y-29125D01*
X43426Y-29125D01*
X43288Y-29182D01*
X43183Y-29287D01*
X43125Y-29425D01*
X43125Y-29574D01*
X43182Y-29712D01*
X43287Y-29817D01*
X43425Y-29875D01*
X43574Y-29875D01*
X43712Y-29818D01*
X43817Y-29713D01*
X43875Y-29575D01*
X43875Y-30167D01*
X43775Y-30125D01*
X43626Y-30125D01*
X43488Y-30182D01*
X43383Y-30287D01*
X43325Y-30425D01*
X43325Y-30574D01*
X43382Y-30712D01*
X43487Y-30817D01*
X43625Y-30875D01*
X43774Y-30875D01*
X43912Y-30818D01*
X44017Y-30713D01*
X44075Y-30575D01*
X44075Y-31167D01*
X43975Y-31125D01*
X43826Y-31125D01*
X43688Y-31182D01*
X43583Y-31287D01*
X43533Y-31403D01*
X43532Y-31366D01*
X43472Y-31219D01*
X43378Y-31192D01*
X43308Y-31262D01*
X43308Y-31122D01*
X43281Y-31028D01*
X43079Y-30957D01*
X42866Y-30968D01*
X42719Y-31028D01*
X42692Y-31122D01*
X43000Y-31429D01*
X43308Y-31122D01*
X43308Y-31262D01*
X43071Y-31500D01*
X43378Y-31808D01*
X43472Y-31781D01*
X43535Y-31599D01*
X43582Y-31712D01*
X43687Y-31817D01*
X43825Y-31875D01*
X43974Y-31875D01*
X44112Y-31818D01*
X44217Y-31713D01*
X44275Y-31575D01*
X44275Y-32167D01*
X44175Y-32125D01*
X44026Y-32125D01*
X43888Y-32182D01*
X43783Y-32287D01*
X43725Y-32425D01*
X43725Y-32574D01*
X43782Y-32712D01*
X43887Y-32817D01*
X44025Y-32875D01*
X44174Y-32875D01*
X44312Y-32818D01*
X44417Y-32713D01*
X44475Y-32575D01*
X44475Y-33667D01*
X44375Y-33625D01*
X44226Y-33625D01*
X44088Y-33682D01*
X43983Y-33787D01*
X43925Y-33925D01*
X43925Y-34074D01*
X43982Y-34212D01*
X44087Y-34317D01*
X44225Y-34375D01*
X44374Y-34375D01*
X44512Y-34318D01*
X44617Y-34213D01*
X44675Y-34075D01*
X44675Y-34667D01*
X44575Y-34625D01*
X44426Y-34625D01*
X44288Y-34682D01*
X44183Y-34787D01*
X44125Y-34925D01*
X44125Y-35074D01*
X44182Y-35212D01*
X44287Y-35317D01*
X44425Y-35375D01*
X44574Y-35375D01*
X44712Y-35318D01*
X44817Y-35213D01*
X44875Y-35075D01*
X44875Y-35667D01*
X44775Y-35625D01*
X44626Y-35625D01*
X44488Y-35682D01*
X44383Y-35787D01*
X44325Y-35925D01*
X44325Y-36074D01*
X44382Y-36212D01*
X44487Y-36317D01*
X44625Y-36375D01*
X44774Y-36375D01*
X44912Y-36318D01*
X45000Y-36229D01*
X45035Y-36311D01*
X45189Y-36465D01*
X45273Y-36500D01*
X45189Y-36535D01*
X45035Y-36689D01*
X44951Y-36891D01*
X44951Y-37109D01*
X45035Y-37311D01*
X45189Y-37465D01*
X45391Y-37549D01*
X45609Y-37549D01*
X45811Y-37465D01*
X45965Y-37311D01*
X46000Y-37226D01*
X46035Y-37311D01*
X46189Y-37465D01*
X46391Y-37549D01*
X46609Y-37549D01*
X46811Y-37465D01*
X46965Y-37311D01*
X46999Y-37229D01*
X47049Y-37109D01*
X47049Y-37675D01*
X46999Y-37675D01*
X12050Y-37675D01*
X12050Y-36549D01*
X12349Y-36549D01*
X12441Y-36511D01*
X12511Y-36441D01*
X12549Y-36350D01*
X12549Y-36325D01*
X12689Y-36465D01*
X12891Y-36549D01*
X13109Y-36549D01*
X13311Y-36465D01*
X13465Y-36311D01*
X13500Y-36226D01*
X13535Y-36311D01*
X13689Y-36465D01*
X13891Y-36549D01*
X14109Y-36549D01*
X14311Y-36465D01*
X14465Y-36311D01*
X14500Y-36226D01*
X14535Y-36311D01*
X14689Y-36465D01*
X14891Y-36549D01*
X15109Y-36549D01*
X15311Y-36465D01*
X15465Y-36311D01*
X15500Y-36226D01*
X15535Y-36311D01*
X15689Y-36465D01*
X15891Y-36549D01*
X16109Y-36549D01*
X16311Y-36465D01*
X16465Y-36311D01*
X16500Y-36226D01*
X16535Y-36311D01*
X16689Y-36465D01*
X16891Y-36549D01*
X17109Y-36549D01*
X17311Y-36465D01*
X17465Y-36311D01*
X17500Y-36226D01*
X17535Y-36311D01*
X17689Y-36465D01*
X17891Y-36549D01*
X18109Y-36549D01*
X18311Y-36465D01*
X18465Y-36311D01*
X18500Y-36226D01*
X18535Y-36311D01*
X18689Y-36465D01*
X18891Y-36549D01*
X19109Y-36549D01*
X19311Y-36465D01*
X19465Y-36311D01*
X19500Y-36226D01*
X19535Y-36311D01*
X19689Y-36465D01*
X19891Y-36549D01*
X20109Y-36549D01*
X20311Y-36465D01*
X20465Y-36311D01*
X20500Y-36226D01*
X20535Y-36311D01*
X20689Y-36465D01*
X20891Y-36549D01*
X21109Y-36549D01*
X21311Y-36465D01*
X21465Y-36311D01*
X21500Y-36226D01*
X21535Y-36311D01*
X21689Y-36465D01*
X21891Y-36549D01*
X22109Y-36549D01*
X22311Y-36465D01*
X22465Y-36311D01*
X22500Y-36226D01*
X22535Y-36311D01*
X22689Y-36465D01*
X22891Y-36549D01*
X23109Y-36549D01*
X23311Y-36465D01*
X23465Y-36311D01*
X23500Y-36226D01*
X23535Y-36311D01*
X23689Y-36465D01*
X23891Y-36549D01*
X24109Y-36549D01*
X24311Y-36465D01*
X24465Y-36311D01*
X24500Y-36226D01*
X24535Y-36311D01*
X24689Y-36465D01*
X24891Y-36549D01*
X25109Y-36549D01*
X25311Y-36465D01*
X25465Y-36311D01*
X25500Y-36226D01*
X25535Y-36311D01*
X25689Y-36465D01*
X25891Y-36549D01*
X26109Y-36549D01*
X26311Y-36465D01*
X26465Y-36311D01*
X26500Y-36226D01*
X26535Y-36311D01*
X26689Y-36465D01*
X26891Y-36549D01*
X27109Y-36549D01*
X27311Y-36465D01*
X27465Y-36311D01*
X27500Y-36226D01*
X27535Y-36311D01*
X27689Y-36465D01*
X27891Y-36549D01*
X28109Y-36549D01*
X28311Y-36465D01*
X28465Y-36311D01*
X28500Y-36226D01*
X28535Y-36311D01*
X28689Y-36465D01*
X28891Y-36549D01*
X29109Y-36549D01*
X29311Y-36465D01*
X29465Y-36311D01*
X29500Y-36226D01*
X29535Y-36311D01*
X29689Y-36465D01*
X29891Y-36549D01*
X30109Y-36549D01*
X30311Y-36465D01*
X30465Y-36311D01*
X30500Y-36226D01*
X30535Y-36311D01*
X30689Y-36465D01*
X30891Y-36549D01*
X31109Y-36549D01*
X31311Y-36465D01*
X31465Y-36311D01*
X31500Y-36226D01*
X31535Y-36311D01*
X31689Y-36465D01*
X31891Y-36549D01*
X32109Y-36549D01*
X32311Y-36465D01*
X32465Y-36311D01*
X32500Y-36226D01*
X32535Y-36311D01*
X32689Y-36465D01*
X32891Y-36549D01*
X33109Y-36549D01*
X33311Y-36465D01*
X33465Y-36311D01*
X33500Y-36226D01*
X33535Y-36311D01*
X33689Y-36465D01*
X33891Y-36549D01*
X34109Y-36549D01*
X34311Y-36465D01*
X34465Y-36311D01*
X34500Y-36226D01*
X34535Y-36311D01*
X34689Y-36465D01*
X34891Y-36549D01*
X35109Y-36549D01*
X35311Y-36465D01*
X35465Y-36311D01*
X35500Y-36226D01*
X35535Y-36311D01*
X35689Y-36465D01*
X35891Y-36549D01*
X36109Y-36549D01*
X36311Y-36465D01*
X36465Y-36311D01*
X36500Y-36226D01*
X36535Y-36311D01*
X36689Y-36465D01*
X36891Y-36549D01*
X37109Y-36549D01*
X37311Y-36465D01*
X37465Y-36311D01*
X37500Y-36226D01*
X37535Y-36311D01*
X37689Y-36465D01*
X37891Y-36549D01*
X38109Y-36549D01*
X38311Y-36465D01*
X38465Y-36311D01*
X38500Y-36226D01*
X38535Y-36311D01*
X38689Y-36465D01*
X38891Y-36549D01*
X39109Y-36549D01*
X39311Y-36465D01*
X39465Y-36311D01*
X39500Y-36226D01*
X39535Y-36311D01*
X39689Y-36465D01*
X39891Y-36549D01*
X40109Y-36549D01*
X40311Y-36465D01*
X40465Y-36311D01*
X40500Y-36226D01*
X40535Y-36311D01*
X40689Y-36465D01*
X40891Y-36549D01*
X41109Y-36549D01*
X41311Y-36465D01*
X41465Y-36311D01*
X41500Y-36226D01*
X41535Y-36311D01*
X41689Y-36465D01*
X41891Y-36549D01*
X42109Y-36549D01*
X42311Y-36465D01*
X42465Y-36311D01*
X42500Y-36226D01*
X42535Y-36311D01*
X42689Y-36465D01*
X42891Y-36549D01*
X43109Y-36549D01*
X43311Y-36465D01*
X43465Y-36311D01*
X43549Y-36109D01*
X43549Y-35891D01*
X43543Y-35876D01*
X43543Y-35079D01*
X43532Y-34866D01*
X43472Y-34719D01*
X43378Y-34692D01*
X43308Y-34762D01*
X43308Y-34622D01*
X43281Y-34528D01*
X43079Y-34457D01*
X42866Y-34468D01*
X42719Y-34528D01*
X42692Y-34622D01*
X43000Y-34929D01*
X43308Y-34622D01*
X43308Y-34762D01*
X43071Y-35000D01*
X43378Y-35308D01*
X43472Y-35281D01*
X43543Y-35079D01*
X43543Y-35876D01*
X43465Y-35689D01*
X43311Y-35535D01*
X43219Y-35497D01*
X43281Y-35472D01*
X43308Y-35378D01*
X43000Y-35071D01*
X42692Y-35378D01*
X42719Y-35472D01*
X42784Y-35495D01*
X42689Y-35535D01*
X42535Y-35689D01*
X42500Y-35773D01*
X42465Y-35689D01*
X42311Y-35535D01*
X42226Y-35500D01*
X42311Y-35465D01*
X42465Y-35311D01*
X42502Y-35219D01*
X42528Y-35281D01*
X42622Y-35308D01*
X42929Y-35000D01*
X42622Y-34692D01*
X42528Y-34719D01*
X42504Y-34784D01*
X42465Y-34689D01*
X42311Y-34535D01*
X42109Y-34451D01*
X41891Y-34451D01*
X41689Y-34535D01*
X41535Y-34689D01*
X41500Y-34773D01*
X41465Y-34689D01*
X41311Y-34535D01*
X41109Y-34451D01*
X40891Y-34451D01*
X40689Y-34535D01*
X40535Y-34689D01*
X40500Y-34773D01*
X40465Y-34689D01*
X40311Y-34535D01*
X40109Y-34451D01*
X39891Y-34451D01*
X39689Y-34535D01*
X39535Y-34689D01*
X39500Y-34773D01*
X39465Y-34689D01*
X39311Y-34535D01*
X39109Y-34451D01*
X38891Y-34451D01*
X38689Y-34535D01*
X38535Y-34689D01*
X38500Y-34773D01*
X38465Y-34689D01*
X38311Y-34535D01*
X38109Y-34451D01*
X37891Y-34451D01*
X37689Y-34535D01*
X37535Y-34689D01*
X37500Y-34773D01*
X37465Y-34689D01*
X37311Y-34535D01*
X37109Y-34451D01*
X36891Y-34451D01*
X36689Y-34535D01*
X36535Y-34689D01*
X36500Y-34773D01*
X36465Y-34689D01*
X36311Y-34535D01*
X36109Y-34451D01*
X35891Y-34451D01*
X35689Y-34535D01*
X35535Y-34689D01*
X35500Y-34773D01*
X35465Y-34689D01*
X35311Y-34535D01*
X35109Y-34451D01*
X34891Y-34451D01*
X34689Y-34535D01*
X34535Y-34689D01*
X34500Y-34773D01*
X34465Y-34689D01*
X34311Y-34535D01*
X34109Y-34451D01*
X33891Y-34451D01*
X33689Y-34535D01*
X33535Y-34689D01*
X33500Y-34773D01*
X33465Y-34689D01*
X33311Y-34535D01*
X33109Y-34451D01*
X32891Y-34451D01*
X32689Y-34535D01*
X32535Y-34689D01*
X32500Y-34773D01*
X32465Y-34689D01*
X32311Y-34535D01*
X32109Y-34451D01*
X31891Y-34451D01*
X31689Y-34535D01*
X31535Y-34689D01*
X31500Y-34773D01*
X31465Y-34689D01*
X31311Y-34535D01*
X31109Y-34451D01*
X30891Y-34451D01*
X30689Y-34535D01*
X30535Y-34689D01*
X30500Y-34773D01*
X30465Y-34689D01*
X30311Y-34535D01*
X30109Y-34451D01*
X29891Y-34451D01*
X29689Y-34535D01*
X29535Y-34689D01*
X29500Y-34773D01*
X29465Y-34689D01*
X29311Y-34535D01*
X29109Y-34451D01*
X28891Y-34451D01*
X28689Y-34535D01*
X28535Y-34689D01*
X28500Y-34773D01*
X28465Y-34689D01*
X28311Y-34535D01*
X28109Y-34451D01*
X27891Y-34451D01*
X27689Y-34535D01*
X27535Y-34689D01*
X27500Y-34773D01*
X27465Y-34689D01*
X27311Y-34535D01*
X27109Y-34451D01*
X26891Y-34451D01*
X26689Y-34535D01*
X26535Y-34689D01*
X26500Y-34773D01*
X26465Y-34689D01*
X26311Y-34535D01*
X26109Y-34451D01*
X25891Y-34451D01*
X25689Y-34535D01*
X25535Y-34689D01*
X25500Y-34773D01*
X25465Y-34689D01*
X25311Y-34535D01*
X25109Y-34451D01*
X24891Y-34451D01*
X24689Y-34535D01*
X24535Y-34689D01*
X24500Y-34773D01*
X24465Y-34689D01*
X24311Y-34535D01*
X24109Y-34451D01*
X23891Y-34451D01*
X23689Y-34535D01*
X23535Y-34689D01*
X23500Y-34773D01*
X23465Y-34689D01*
X23311Y-34535D01*
X23109Y-34451D01*
X22891Y-34451D01*
X22689Y-34535D01*
X22535Y-34689D01*
X22500Y-34773D01*
X22465Y-34689D01*
X22311Y-34535D01*
X22109Y-34451D01*
X21891Y-34451D01*
X21689Y-34535D01*
X21535Y-34689D01*
X21500Y-34773D01*
X21465Y-34689D01*
X21311Y-34535D01*
X21109Y-34451D01*
X20891Y-34451D01*
X20689Y-34535D01*
X20535Y-34689D01*
X20500Y-34773D01*
X20465Y-34689D01*
X20311Y-34535D01*
X20109Y-34451D01*
X19891Y-34451D01*
X19689Y-34535D01*
X19535Y-34689D01*
X19500Y-34773D01*
X19465Y-34689D01*
X19311Y-34535D01*
X19109Y-34451D01*
X18891Y-34451D01*
X18689Y-34535D01*
X18535Y-34689D01*
X18500Y-34773D01*
X18465Y-34689D01*
X18311Y-34535D01*
X18109Y-34451D01*
X17891Y-34451D01*
X17689Y-34535D01*
X17535Y-34689D01*
X17500Y-34773D01*
X17465Y-34689D01*
X17311Y-34535D01*
X17109Y-34451D01*
X16891Y-34451D01*
X16689Y-34535D01*
X16535Y-34689D01*
X16500Y-34773D01*
X16465Y-34689D01*
X16311Y-34535D01*
X16109Y-34451D01*
X15891Y-34451D01*
X15689Y-34535D01*
X15535Y-34689D01*
X15500Y-34773D01*
X15465Y-34689D01*
X15311Y-34535D01*
X15109Y-34451D01*
X14891Y-34451D01*
X14689Y-34535D01*
X14535Y-34689D01*
X14500Y-34773D01*
X14465Y-34689D01*
X14311Y-34535D01*
X14109Y-34451D01*
X13891Y-34451D01*
X13689Y-34535D01*
X13535Y-34689D01*
X13500Y-34773D01*
X13465Y-34689D01*
X13311Y-34535D01*
X13109Y-34451D01*
X12891Y-34451D01*
X12689Y-34535D01*
X12535Y-34689D01*
X12500Y-34773D01*
X12465Y-34689D01*
X12311Y-34535D01*
X12109Y-34451D01*
X12050Y-34451D01*
X12050Y-33049D01*
X12349Y-33049D01*
X12441Y-33011D01*
X12511Y-32941D01*
X12549Y-32850D01*
X12549Y-32825D01*
X12689Y-32965D01*
X12891Y-33049D01*
X13109Y-33049D01*
X13311Y-32965D01*
X13465Y-32811D01*
X13500Y-32726D01*
X13535Y-32811D01*
X13689Y-32965D01*
X13891Y-33049D01*
X14109Y-33049D01*
X14311Y-32965D01*
X14465Y-32811D01*
X14500Y-32726D01*
X14535Y-32811D01*
X14689Y-32965D01*
X14891Y-33049D01*
X15109Y-33049D01*
X15311Y-32965D01*
X15465Y-32811D01*
X15500Y-32726D01*
X15535Y-32811D01*
X15689Y-32965D01*
X15891Y-33049D01*
X16109Y-33049D01*
X16311Y-32965D01*
X16465Y-32811D01*
X16500Y-32726D01*
X16535Y-32811D01*
X16689Y-32965D01*
X16891Y-33049D01*
X17109Y-33049D01*
X17311Y-32965D01*
X17465Y-32811D01*
X17500Y-32726D01*
X17535Y-32811D01*
X17689Y-32965D01*
X17891Y-33049D01*
X18109Y-33049D01*
X18311Y-32965D01*
X18465Y-32811D01*
X18500Y-32726D01*
X18535Y-32811D01*
X18689Y-32965D01*
X18891Y-33049D01*
X19109Y-33049D01*
X19311Y-32965D01*
X19465Y-32811D01*
X19500Y-32726D01*
X19535Y-32811D01*
X19689Y-32965D01*
X19891Y-33049D01*
X20109Y-33049D01*
X20311Y-32965D01*
X20465Y-32811D01*
X20500Y-32726D01*
X20535Y-32811D01*
X20689Y-32965D01*
X20891Y-33049D01*
X21109Y-33049D01*
X21311Y-32965D01*
X21465Y-32811D01*
X21500Y-32726D01*
X21535Y-32811D01*
X21689Y-32965D01*
X21891Y-33049D01*
X22109Y-33049D01*
X22311Y-32965D01*
X22465Y-32811D01*
X22500Y-32726D01*
X22535Y-32811D01*
X22689Y-32965D01*
X22891Y-33049D01*
X23109Y-33049D01*
X23311Y-32965D01*
X23465Y-32811D01*
X23500Y-32726D01*
X23535Y-32811D01*
X23689Y-32965D01*
X23891Y-33049D01*
X24109Y-33049D01*
X24311Y-32965D01*
X24465Y-32811D01*
X24500Y-32726D01*
X24535Y-32811D01*
X24689Y-32965D01*
X24891Y-33049D01*
X25109Y-33049D01*
X25311Y-32965D01*
X25465Y-32811D01*
X25500Y-32726D01*
X25535Y-32811D01*
X25689Y-32965D01*
X25891Y-33049D01*
X26109Y-33049D01*
X26311Y-32965D01*
X26465Y-32811D01*
X26500Y-32726D01*
X26535Y-32811D01*
X26689Y-32965D01*
X26891Y-33049D01*
X27109Y-33049D01*
X27311Y-32965D01*
X27465Y-32811D01*
X27500Y-32726D01*
X27535Y-32811D01*
X27689Y-32965D01*
X27891Y-33049D01*
X28109Y-33049D01*
X28311Y-32965D01*
X28465Y-32811D01*
X28500Y-32726D01*
X28535Y-32811D01*
X28689Y-32965D01*
X28891Y-33049D01*
X29109Y-33049D01*
X29311Y-32965D01*
X29465Y-32811D01*
X29500Y-32726D01*
X29535Y-32811D01*
X29689Y-32965D01*
X29891Y-33049D01*
X30109Y-33049D01*
X30311Y-32965D01*
X30465Y-32811D01*
X30500Y-32726D01*
X30535Y-32811D01*
X30689Y-32965D01*
X30891Y-33049D01*
X31109Y-33049D01*
X31311Y-32965D01*
X31465Y-32811D01*
X31500Y-32726D01*
X31535Y-32811D01*
X31689Y-32965D01*
X31891Y-33049D01*
X32109Y-33049D01*
X32311Y-32965D01*
X32465Y-32811D01*
X32500Y-32726D01*
X32535Y-32811D01*
X32689Y-32965D01*
X32891Y-33049D01*
X33109Y-33049D01*
X33311Y-32965D01*
X33465Y-32811D01*
X33500Y-32726D01*
X33535Y-32811D01*
X33689Y-32965D01*
X33891Y-33049D01*
X34109Y-33049D01*
X34311Y-32965D01*
X34465Y-32811D01*
X34500Y-32726D01*
X34535Y-32811D01*
X34689Y-32965D01*
X34891Y-33049D01*
X35109Y-33049D01*
X35311Y-32965D01*
X35465Y-32811D01*
X35500Y-32726D01*
X35535Y-32811D01*
X35689Y-32965D01*
X35891Y-33049D01*
X36109Y-33049D01*
X36311Y-32965D01*
X36465Y-32811D01*
X36500Y-32726D01*
X36535Y-32811D01*
X36689Y-32965D01*
X36891Y-33049D01*
X37109Y-33049D01*
X37311Y-32965D01*
X37465Y-32811D01*
X37500Y-32726D01*
X37535Y-32811D01*
X37689Y-32965D01*
X37891Y-33049D01*
X38109Y-33049D01*
X38311Y-32965D01*
X38465Y-32811D01*
X38500Y-32726D01*
X38535Y-32811D01*
X38689Y-32965D01*
X38891Y-33049D01*
X39109Y-33049D01*
X39311Y-32965D01*
X39465Y-32811D01*
X39500Y-32726D01*
X39535Y-32811D01*
X39689Y-32965D01*
X39891Y-33049D01*
X40109Y-33049D01*
X40311Y-32965D01*
X40465Y-32811D01*
X40500Y-32726D01*
X40535Y-32811D01*
X40689Y-32965D01*
X40891Y-33049D01*
X41109Y-33049D01*
X41311Y-32965D01*
X41465Y-32811D01*
X41500Y-32726D01*
X41535Y-32811D01*
X41689Y-32965D01*
X41891Y-33049D01*
X42109Y-33049D01*
X42311Y-32965D01*
X42465Y-32811D01*
X42500Y-32726D01*
X42535Y-32811D01*
X42689Y-32965D01*
X42891Y-33049D01*
X43109Y-33049D01*
X43311Y-32965D01*
X43465Y-32811D01*
X43549Y-32609D01*
X43549Y-32391D01*
X43465Y-32189D01*
X43311Y-32035D01*
X43219Y-31997D01*
X43281Y-31972D01*
X43308Y-31878D01*
X43000Y-31571D01*
X42692Y-31878D01*
X42719Y-31972D01*
X42784Y-31995D01*
X42689Y-32035D01*
X42535Y-32189D01*
X42500Y-32273D01*
X42465Y-32189D01*
X42311Y-32035D01*
X42226Y-32000D01*
X42311Y-31965D01*
X42465Y-31811D01*
X42502Y-31719D01*
X42528Y-31781D01*
X42622Y-31808D01*
X42929Y-31500D01*
X42622Y-31192D01*
X42528Y-31219D01*
X42504Y-31284D01*
X42465Y-31189D01*
X42311Y-31035D01*
X42109Y-30951D01*
X42100Y-30951D01*
X42100Y-25950D01*
X42100Y-25801D01*
X42043Y-25663D01*
X41938Y-25558D01*
X41800Y-25500D01*
X41651Y-25500D01*
X41513Y-25557D01*
X41408Y-25662D01*
X41350Y-25800D01*
X41350Y-25949D01*
X41407Y-26087D01*
X41512Y-26192D01*
X41650Y-26250D01*
X41799Y-26250D01*
X41937Y-26193D01*
X42042Y-26088D01*
X42100Y-25950D01*
X42100Y-30951D01*
X41891Y-30951D01*
X41689Y-31035D01*
X41535Y-31189D01*
X41500Y-31273D01*
X41465Y-31189D01*
X41311Y-31035D01*
X41109Y-30951D01*
X40891Y-30951D01*
X40700Y-31030D01*
X40700Y-25950D01*
X40700Y-25801D01*
X40643Y-25663D01*
X40538Y-25558D01*
X40400Y-25500D01*
X40251Y-25500D01*
X40113Y-25557D01*
X40008Y-25662D01*
X39950Y-25800D01*
X39950Y-25949D01*
X40007Y-26087D01*
X40112Y-26192D01*
X40250Y-26250D01*
X40399Y-26250D01*
X40537Y-26193D01*
X40642Y-26088D01*
X40700Y-25950D01*
X40700Y-31030D01*
X40689Y-31035D01*
X40535Y-31189D01*
X40500Y-31273D01*
X40465Y-31189D01*
X40311Y-31035D01*
X40109Y-30951D01*
X39891Y-30951D01*
X39689Y-31035D01*
X39575Y-31149D01*
X39575Y-26775D01*
X39575Y-26626D01*
X39518Y-26488D01*
X39413Y-26383D01*
X39275Y-26325D01*
X39126Y-26325D01*
X38988Y-26382D01*
X38883Y-26487D01*
X38825Y-26625D01*
X38825Y-26774D01*
X38882Y-26912D01*
X38987Y-27017D01*
X39125Y-27075D01*
X39274Y-27075D01*
X39412Y-27018D01*
X39517Y-26913D01*
X39575Y-26775D01*
X39575Y-31149D01*
X39535Y-31189D01*
X39500Y-31273D01*
X39465Y-31189D01*
X39311Y-31035D01*
X39109Y-30951D01*
X38891Y-30951D01*
X38689Y-31035D01*
X38535Y-31189D01*
X38500Y-31273D01*
X38465Y-31189D01*
X38311Y-31035D01*
X38109Y-30951D01*
X37891Y-30951D01*
X37689Y-31035D01*
X37535Y-31189D01*
X37500Y-31273D01*
X37465Y-31189D01*
X37311Y-31035D01*
X37109Y-30951D01*
X37075Y-30951D01*
X37075Y-27575D01*
X37075Y-27426D01*
X37075Y-26775D01*
X37075Y-26626D01*
X37049Y-26563D01*
X37049Y-22350D01*
X37049Y-22251D01*
X37049Y-21651D01*
X37011Y-21559D01*
X36941Y-21489D01*
X36850Y-21451D01*
X36751Y-21451D01*
X36375Y-21451D01*
X36375Y-20375D01*
X36375Y-20226D01*
X36375Y-14875D01*
X36375Y-14726D01*
X36318Y-14588D01*
X36213Y-14483D01*
X36075Y-14425D01*
X35926Y-14425D01*
X35788Y-14482D01*
X35683Y-14587D01*
X35625Y-14725D01*
X35625Y-14874D01*
X35682Y-15012D01*
X35787Y-15117D01*
X35925Y-15175D01*
X36074Y-15175D01*
X36212Y-15118D01*
X36317Y-15013D01*
X36375Y-14875D01*
X36375Y-20226D01*
X36318Y-20088D01*
X36213Y-19983D01*
X36075Y-19925D01*
X35926Y-19925D01*
X35788Y-19982D01*
X35683Y-20087D01*
X35625Y-20225D01*
X35625Y-20374D01*
X35682Y-20512D01*
X35787Y-20617D01*
X35925Y-20675D01*
X36074Y-20675D01*
X36212Y-20618D01*
X36317Y-20513D01*
X36375Y-20375D01*
X36375Y-21451D01*
X36151Y-21451D01*
X36059Y-21489D01*
X35989Y-21559D01*
X35951Y-21650D01*
X35951Y-21675D01*
X35811Y-21535D01*
X35609Y-21451D01*
X35391Y-21451D01*
X35189Y-21535D01*
X35035Y-21689D01*
X34951Y-21891D01*
X34951Y-22109D01*
X35035Y-22311D01*
X35189Y-22465D01*
X35391Y-22549D01*
X35609Y-22549D01*
X35811Y-22465D01*
X35951Y-22325D01*
X35951Y-22349D01*
X35989Y-22441D01*
X36059Y-22511D01*
X36150Y-22549D01*
X36249Y-22549D01*
X36849Y-22549D01*
X36941Y-22511D01*
X37011Y-22441D01*
X37049Y-22350D01*
X37049Y-26563D01*
X37018Y-26488D01*
X36913Y-26383D01*
X36775Y-26325D01*
X36626Y-26325D01*
X36488Y-26382D01*
X36383Y-26487D01*
X36325Y-26625D01*
X36325Y-26774D01*
X36382Y-26912D01*
X36487Y-27017D01*
X36625Y-27075D01*
X36774Y-27075D01*
X36912Y-27018D01*
X37017Y-26913D01*
X37075Y-26775D01*
X37075Y-27426D01*
X37018Y-27288D01*
X36913Y-27183D01*
X36775Y-27125D01*
X36626Y-27125D01*
X36488Y-27182D01*
X36383Y-27287D01*
X36325Y-27425D01*
X36325Y-27574D01*
X36382Y-27712D01*
X36487Y-27817D01*
X36625Y-27875D01*
X36774Y-27875D01*
X36912Y-27818D01*
X37017Y-27713D01*
X37075Y-27575D01*
X37075Y-30951D01*
X36891Y-30951D01*
X36689Y-31035D01*
X36535Y-31189D01*
X36500Y-31273D01*
X36465Y-31189D01*
X36311Y-31035D01*
X36109Y-30951D01*
X35891Y-30951D01*
X35689Y-31035D01*
X35535Y-31189D01*
X35500Y-31273D01*
X35465Y-31189D01*
X35311Y-31035D01*
X35109Y-30951D01*
X34891Y-30951D01*
X34689Y-31035D01*
X34575Y-31149D01*
X34575Y-17775D01*
X34575Y-17626D01*
X34518Y-17488D01*
X34413Y-17383D01*
X34275Y-17325D01*
X34126Y-17325D01*
X33988Y-17382D01*
X33883Y-17487D01*
X33825Y-17625D01*
X33825Y-17774D01*
X33882Y-17912D01*
X33987Y-18017D01*
X34125Y-18075D01*
X34274Y-18075D01*
X34412Y-18018D01*
X34517Y-17913D01*
X34575Y-17775D01*
X34575Y-31149D01*
X34535Y-31189D01*
X34500Y-31273D01*
X34465Y-31189D01*
X34311Y-31035D01*
X34109Y-30951D01*
X33891Y-30951D01*
X33689Y-31035D01*
X33535Y-31189D01*
X33500Y-31273D01*
X33465Y-31189D01*
X33311Y-31035D01*
X33109Y-30951D01*
X32891Y-30951D01*
X32689Y-31035D01*
X32535Y-31189D01*
X32500Y-31273D01*
X32465Y-31189D01*
X32311Y-31035D01*
X32109Y-30951D01*
X31891Y-30951D01*
X31689Y-31035D01*
X31535Y-31189D01*
X31500Y-31273D01*
X31465Y-31189D01*
X31311Y-31035D01*
X31109Y-30951D01*
X30891Y-30951D01*
X30689Y-31035D01*
X30535Y-31189D01*
X30500Y-31273D01*
X30465Y-31189D01*
X30311Y-31035D01*
X30109Y-30951D01*
X29891Y-30951D01*
X29689Y-31035D01*
X29535Y-31189D01*
X29500Y-31273D01*
X29465Y-31189D01*
X29311Y-31035D01*
X29109Y-30951D01*
X29075Y-30951D01*
X29075Y-18575D01*
X29075Y-18426D01*
X29075Y-16175D01*
X29075Y-16026D01*
X29018Y-15888D01*
X28913Y-15783D01*
X28775Y-15725D01*
X28626Y-15725D01*
X28488Y-15782D01*
X28383Y-15887D01*
X28367Y-15925D01*
X28326Y-15925D01*
X28275Y-15946D01*
X28275Y-15375D01*
X28275Y-15226D01*
X28218Y-15088D01*
X28113Y-14983D01*
X27975Y-14925D01*
X27826Y-14925D01*
X27688Y-14982D01*
X27583Y-15087D01*
X27525Y-15225D01*
X27525Y-15374D01*
X27582Y-15512D01*
X27687Y-15617D01*
X27825Y-15675D01*
X27974Y-15675D01*
X28112Y-15618D01*
X28217Y-15513D01*
X28275Y-15375D01*
X28275Y-15946D01*
X28188Y-15982D01*
X28083Y-16087D01*
X28067Y-16125D01*
X28026Y-16125D01*
X27888Y-16182D01*
X27783Y-16287D01*
X27767Y-16325D01*
X27726Y-16325D01*
X27588Y-16382D01*
X27483Y-16487D01*
X27425Y-16625D01*
X27425Y-16774D01*
X27482Y-16912D01*
X27587Y-17017D01*
X27725Y-17075D01*
X27874Y-17075D01*
X28012Y-17018D01*
X28117Y-16913D01*
X28132Y-16875D01*
X28174Y-16875D01*
X28312Y-16818D01*
X28417Y-16713D01*
X28432Y-16675D01*
X28474Y-16675D01*
X28612Y-16618D01*
X28717Y-16513D01*
X28732Y-16475D01*
X28774Y-16475D01*
X28912Y-16418D01*
X29017Y-16313D01*
X29075Y-16175D01*
X29075Y-18426D01*
X29018Y-18288D01*
X28913Y-18183D01*
X28775Y-18125D01*
X28626Y-18125D01*
X28488Y-18182D01*
X28383Y-18287D01*
X28367Y-18325D01*
X28326Y-18325D01*
X28188Y-18382D01*
X28083Y-18487D01*
X28067Y-18525D01*
X28026Y-18525D01*
X27888Y-18582D01*
X27783Y-18687D01*
X27767Y-18725D01*
X27726Y-18725D01*
X27588Y-18782D01*
X27483Y-18887D01*
X27425Y-19025D01*
X27425Y-19174D01*
X27482Y-19312D01*
X27587Y-19417D01*
X27725Y-19475D01*
X27874Y-19475D01*
X28012Y-19418D01*
X28117Y-19313D01*
X28132Y-19275D01*
X28174Y-19275D01*
X28312Y-19218D01*
X28417Y-19113D01*
X28432Y-19075D01*
X28474Y-19075D01*
X28612Y-19018D01*
X28717Y-18913D01*
X28732Y-18875D01*
X28774Y-18875D01*
X28912Y-18818D01*
X29017Y-18713D01*
X29075Y-18575D01*
X29075Y-30951D01*
X28891Y-30951D01*
X28689Y-31035D01*
X28535Y-31189D01*
X28500Y-31273D01*
X28465Y-31189D01*
X28313Y-31037D01*
X28362Y-31018D01*
X28467Y-30913D01*
X28525Y-30775D01*
X28525Y-30626D01*
X28468Y-30488D01*
X28363Y-30383D01*
X28225Y-30325D01*
X28076Y-30325D01*
X27938Y-30382D01*
X27833Y-30487D01*
X27775Y-30625D01*
X27775Y-30774D01*
X27832Y-30912D01*
X27876Y-30956D01*
X27689Y-31035D01*
X27535Y-31189D01*
X27500Y-31273D01*
X27465Y-31189D01*
X27311Y-31035D01*
X27109Y-30951D01*
X26891Y-30951D01*
X26689Y-31035D01*
X26535Y-31189D01*
X26500Y-31273D01*
X26475Y-31213D01*
X26475Y-14775D01*
X26475Y-14626D01*
X26422Y-14499D01*
X26475Y-14375D01*
X26475Y-14226D01*
X26418Y-14088D01*
X26313Y-13983D01*
X26175Y-13925D01*
X26026Y-13925D01*
X25888Y-13982D01*
X25783Y-14087D01*
X25725Y-14225D01*
X25725Y-14374D01*
X25777Y-14500D01*
X25725Y-14625D01*
X25725Y-14774D01*
X25782Y-14912D01*
X25887Y-15017D01*
X26025Y-15075D01*
X26174Y-15075D01*
X26312Y-15018D01*
X26417Y-14913D01*
X26475Y-14775D01*
X26475Y-31213D01*
X26465Y-31189D01*
X26311Y-31035D01*
X26109Y-30951D01*
X25975Y-30951D01*
X25975Y-18275D01*
X25975Y-18126D01*
X25918Y-17988D01*
X25813Y-17883D01*
X25675Y-17825D01*
X25526Y-17825D01*
X25475Y-17846D01*
X25475Y-16675D01*
X25475Y-16526D01*
X25418Y-16388D01*
X25313Y-16283D01*
X25175Y-16225D01*
X25026Y-16225D01*
X24899Y-16277D01*
X24775Y-16225D01*
X24626Y-16225D01*
X24488Y-16282D01*
X24383Y-16387D01*
X24325Y-16525D01*
X24325Y-16674D01*
X24382Y-16812D01*
X24487Y-16917D01*
X24625Y-16975D01*
X24774Y-16975D01*
X24900Y-16922D01*
X25025Y-16975D01*
X25174Y-16975D01*
X25312Y-16918D01*
X25417Y-16813D01*
X25475Y-16675D01*
X25475Y-17846D01*
X25388Y-17882D01*
X25283Y-17987D01*
X25225Y-18125D01*
X25225Y-18274D01*
X25282Y-18412D01*
X25387Y-18517D01*
X25525Y-18575D01*
X25674Y-18575D01*
X25812Y-18518D01*
X25917Y-18413D01*
X25975Y-18275D01*
X25975Y-30951D01*
X25891Y-30951D01*
X25875Y-30957D01*
X25875Y-26775D01*
X25875Y-26626D01*
X25822Y-26499D01*
X25875Y-26375D01*
X25875Y-26226D01*
X25822Y-26099D01*
X25875Y-25975D01*
X25875Y-25826D01*
X25822Y-25699D01*
X25875Y-25575D01*
X25875Y-25426D01*
X25822Y-25299D01*
X25875Y-25175D01*
X25875Y-25026D01*
X25875Y-21075D01*
X25875Y-20926D01*
X25818Y-20788D01*
X25713Y-20683D01*
X25575Y-20625D01*
X25426Y-20625D01*
X25288Y-20682D01*
X25183Y-20787D01*
X25125Y-20925D01*
X25125Y-21074D01*
X25182Y-21212D01*
X25287Y-21317D01*
X25425Y-21375D01*
X25574Y-21375D01*
X25712Y-21318D01*
X25817Y-21213D01*
X25875Y-21075D01*
X25875Y-25026D01*
X25818Y-24888D01*
X25713Y-24783D01*
X25575Y-24725D01*
X25426Y-24725D01*
X25375Y-24746D01*
X25375Y-24575D01*
X25375Y-24426D01*
X25318Y-24288D01*
X25213Y-24183D01*
X25175Y-24167D01*
X25175Y-24026D01*
X25122Y-23899D01*
X25175Y-23775D01*
X25175Y-23733D01*
X25212Y-23718D01*
X25317Y-23613D01*
X25375Y-23475D01*
X25375Y-23326D01*
X25318Y-23188D01*
X25213Y-23083D01*
X25075Y-23025D01*
X24926Y-23025D01*
X24788Y-23082D01*
X24683Y-23187D01*
X24625Y-23325D01*
X24625Y-23366D01*
X24588Y-23382D01*
X24483Y-23487D01*
X24425Y-23625D01*
X24425Y-23774D01*
X24477Y-23900D01*
X24425Y-24025D01*
X24425Y-24174D01*
X24482Y-24312D01*
X24587Y-24417D01*
X24625Y-24432D01*
X24625Y-24574D01*
X24682Y-24712D01*
X24787Y-24817D01*
X24925Y-24875D01*
X25074Y-24875D01*
X25212Y-24818D01*
X25317Y-24713D01*
X25375Y-24575D01*
X25375Y-24746D01*
X25288Y-24782D01*
X25183Y-24887D01*
X25125Y-25025D01*
X25125Y-25174D01*
X25177Y-25300D01*
X25125Y-25425D01*
X25125Y-25574D01*
X25177Y-25700D01*
X25125Y-25825D01*
X25125Y-25974D01*
X25177Y-26100D01*
X25125Y-26225D01*
X25125Y-26374D01*
X25177Y-26500D01*
X25125Y-26625D01*
X25125Y-26774D01*
X25182Y-26912D01*
X25287Y-27017D01*
X25425Y-27075D01*
X25574Y-27075D01*
X25712Y-27018D01*
X25817Y-26913D01*
X25875Y-26775D01*
X25875Y-30957D01*
X25689Y-31035D01*
X25535Y-31189D01*
X25500Y-31273D01*
X25465Y-31189D01*
X25311Y-31035D01*
X25109Y-30951D01*
X24891Y-30951D01*
X24689Y-31035D01*
X24535Y-31189D01*
X24500Y-31273D01*
X24465Y-31189D01*
X24311Y-31035D01*
X24109Y-30951D01*
X23979Y-30951D01*
X24017Y-30913D01*
X24075Y-30775D01*
X24075Y-30626D01*
X24018Y-30488D01*
X23913Y-30383D01*
X23775Y-30325D01*
X23675Y-30325D01*
X23675Y-17775D01*
X23675Y-17626D01*
X23622Y-17499D01*
X23675Y-17375D01*
X23675Y-17226D01*
X23618Y-17088D01*
X23513Y-16983D01*
X23375Y-16925D01*
X23333Y-16925D01*
X23322Y-16899D01*
X23332Y-16875D01*
X23374Y-16875D01*
X23512Y-16818D01*
X23617Y-16713D01*
X23675Y-16575D01*
X23675Y-16426D01*
X23618Y-16288D01*
X23513Y-16183D01*
X23375Y-16125D01*
X23226Y-16125D01*
X23088Y-16182D01*
X22983Y-16287D01*
X22967Y-16325D01*
X22926Y-16325D01*
X22788Y-16382D01*
X22683Y-16487D01*
X22625Y-16625D01*
X22625Y-16774D01*
X22677Y-16900D01*
X22625Y-17025D01*
X22625Y-17174D01*
X22682Y-17312D01*
X22787Y-17417D01*
X22925Y-17475D01*
X22966Y-17475D01*
X22977Y-17500D01*
X22967Y-17525D01*
X22926Y-17525D01*
X22788Y-17582D01*
X22700Y-17670D01*
X22613Y-17583D01*
X22475Y-17525D01*
X22326Y-17525D01*
X22188Y-17582D01*
X22083Y-17687D01*
X22025Y-17825D01*
X22025Y-17974D01*
X22077Y-18100D01*
X22025Y-18225D01*
X22025Y-18374D01*
X22082Y-18512D01*
X22187Y-18617D01*
X22325Y-18675D01*
X22474Y-18675D01*
X22612Y-18618D01*
X22717Y-18513D01*
X22732Y-18475D01*
X22774Y-18475D01*
X22912Y-18418D01*
X23017Y-18313D01*
X23032Y-18275D01*
X23074Y-18275D01*
X23212Y-18218D01*
X23317Y-18113D01*
X23332Y-18075D01*
X23374Y-18075D01*
X23512Y-18018D01*
X23617Y-17913D01*
X23675Y-17775D01*
X23675Y-30325D01*
X23674Y-30325D01*
X23618Y-30188D01*
X23513Y-30083D01*
X23375Y-30025D01*
X23275Y-30025D01*
X23275Y-28975D01*
X23275Y-28826D01*
X23218Y-28688D01*
X23113Y-28583D01*
X22975Y-28525D01*
X22826Y-28525D01*
X22688Y-28582D01*
X22583Y-28687D01*
X22525Y-28825D01*
X22525Y-28974D01*
X22582Y-29112D01*
X22687Y-29217D01*
X22825Y-29275D01*
X22974Y-29275D01*
X23112Y-29218D01*
X23217Y-29113D01*
X23275Y-28975D01*
X23275Y-30025D01*
X23226Y-30025D01*
X23088Y-30082D01*
X22983Y-30187D01*
X22925Y-30325D01*
X22925Y-30474D01*
X22982Y-30612D01*
X23087Y-30717D01*
X23225Y-30775D01*
X23325Y-30775D01*
X23382Y-30912D01*
X23487Y-31017D01*
X23625Y-31075D01*
X23649Y-31075D01*
X23535Y-31189D01*
X23500Y-31273D01*
X23465Y-31189D01*
X23311Y-31035D01*
X23109Y-30951D01*
X22891Y-30951D01*
X22689Y-31035D01*
X22535Y-31189D01*
X22500Y-31273D01*
X22465Y-31189D01*
X22311Y-31035D01*
X22275Y-31020D01*
X22275Y-23575D01*
X22275Y-23426D01*
X22218Y-23288D01*
X22113Y-23183D01*
X21975Y-23125D01*
X21826Y-23125D01*
X21699Y-23177D01*
X21575Y-23125D01*
X21426Y-23125D01*
X21288Y-23182D01*
X21183Y-23287D01*
X21125Y-23425D01*
X21125Y-23574D01*
X21177Y-23700D01*
X21125Y-23825D01*
X21125Y-23974D01*
X21177Y-24100D01*
X21125Y-24225D01*
X21125Y-24374D01*
X21177Y-24500D01*
X21125Y-24625D01*
X21125Y-24774D01*
X21177Y-24900D01*
X21125Y-25025D01*
X21125Y-25174D01*
X21177Y-25300D01*
X21125Y-25425D01*
X21125Y-25574D01*
X21177Y-25700D01*
X21125Y-25825D01*
X21125Y-25974D01*
X21182Y-26112D01*
X21287Y-26217D01*
X21425Y-26275D01*
X21574Y-26275D01*
X21712Y-26218D01*
X21817Y-26113D01*
X21875Y-25975D01*
X21875Y-25826D01*
X21822Y-25699D01*
X21875Y-25575D01*
X21875Y-25426D01*
X21822Y-25299D01*
X21875Y-25175D01*
X21875Y-25026D01*
X21822Y-24899D01*
X21875Y-24775D01*
X21875Y-24626D01*
X21822Y-24499D01*
X21875Y-24375D01*
X21875Y-24226D01*
X21822Y-24099D01*
X21875Y-23975D01*
X21875Y-23875D01*
X21974Y-23875D01*
X22112Y-23818D01*
X22217Y-23713D01*
X22275Y-23575D01*
X22275Y-31020D01*
X22109Y-30951D01*
X21891Y-30951D01*
X21689Y-31035D01*
X21535Y-31189D01*
X21500Y-31273D01*
X21465Y-31189D01*
X21375Y-31099D01*
X21375Y-30175D01*
X21375Y-30026D01*
X21318Y-29888D01*
X21213Y-29783D01*
X21084Y-29729D01*
X21112Y-29718D01*
X21217Y-29613D01*
X21275Y-29475D01*
X21275Y-29326D01*
X21222Y-29199D01*
X21275Y-29075D01*
X21275Y-28926D01*
X21218Y-28788D01*
X21113Y-28683D01*
X20975Y-28625D01*
X20826Y-28625D01*
X20775Y-28646D01*
X20775Y-19875D01*
X20775Y-19726D01*
X20718Y-19588D01*
X20613Y-19483D01*
X20575Y-19467D01*
X20575Y-19426D01*
X20518Y-19288D01*
X20413Y-19183D01*
X20375Y-19167D01*
X20375Y-19126D01*
X20318Y-18988D01*
X20213Y-18883D01*
X20175Y-18867D01*
X20175Y-18826D01*
X20118Y-18688D01*
X20013Y-18583D01*
X19975Y-18567D01*
X19975Y-18526D01*
X19918Y-18388D01*
X19813Y-18283D01*
X19775Y-18267D01*
X19775Y-18226D01*
X19718Y-18088D01*
X19613Y-17983D01*
X19575Y-17967D01*
X19575Y-17926D01*
X19518Y-17788D01*
X19413Y-17683D01*
X19375Y-17667D01*
X19375Y-17626D01*
X19318Y-17488D01*
X19213Y-17383D01*
X19075Y-17325D01*
X18926Y-17325D01*
X18788Y-17382D01*
X18683Y-17487D01*
X18625Y-17625D01*
X18625Y-17774D01*
X18682Y-17912D01*
X18787Y-18017D01*
X18825Y-18032D01*
X18825Y-18074D01*
X18882Y-18212D01*
X18987Y-18317D01*
X19025Y-18332D01*
X19025Y-18374D01*
X19082Y-18512D01*
X19187Y-18617D01*
X19225Y-18632D01*
X19225Y-18674D01*
X19282Y-18812D01*
X19387Y-18917D01*
X19425Y-18932D01*
X19425Y-18974D01*
X19482Y-19112D01*
X19587Y-19217D01*
X19625Y-19232D01*
X19625Y-19274D01*
X19682Y-19412D01*
X19787Y-19517D01*
X19825Y-19532D01*
X19825Y-19574D01*
X19882Y-19712D01*
X19987Y-19817D01*
X20025Y-19832D01*
X20025Y-19874D01*
X20082Y-20012D01*
X20187Y-20117D01*
X20325Y-20175D01*
X20474Y-20175D01*
X20612Y-20118D01*
X20717Y-20013D01*
X20775Y-19875D01*
X20775Y-28646D01*
X20688Y-28682D01*
X20583Y-28787D01*
X20525Y-28925D01*
X20525Y-29074D01*
X20577Y-29200D01*
X20525Y-29325D01*
X20525Y-29474D01*
X20582Y-29612D01*
X20687Y-29717D01*
X20815Y-29770D01*
X20788Y-29782D01*
X20683Y-29887D01*
X20625Y-30025D01*
X20625Y-30174D01*
X20682Y-30312D01*
X20787Y-30417D01*
X20925Y-30475D01*
X21074Y-30475D01*
X21212Y-30418D01*
X21317Y-30313D01*
X21375Y-30175D01*
X21375Y-31099D01*
X21311Y-31035D01*
X21109Y-30951D01*
X20891Y-30951D01*
X20689Y-31035D01*
X20535Y-31189D01*
X20500Y-31273D01*
X20465Y-31189D01*
X20311Y-31035D01*
X20109Y-30951D01*
X19891Y-30951D01*
X19689Y-31035D01*
X19535Y-31189D01*
X19500Y-31273D01*
X19465Y-31189D01*
X19311Y-31035D01*
X19109Y-30951D01*
X18975Y-30951D01*
X18975Y-20075D01*
X18975Y-19926D01*
X18918Y-19788D01*
X18813Y-19683D01*
X18675Y-19625D01*
X18526Y-19625D01*
X18399Y-19677D01*
X18275Y-19625D01*
X18126Y-19625D01*
X17999Y-19677D01*
X17875Y-19625D01*
X17726Y-19625D01*
X17599Y-19677D01*
X17475Y-19625D01*
X17433Y-19625D01*
X17418Y-19588D01*
X17313Y-19483D01*
X17175Y-19425D01*
X17026Y-19425D01*
X16888Y-19482D01*
X16783Y-19587D01*
X16767Y-19625D01*
X16726Y-19625D01*
X16588Y-19682D01*
X16483Y-19787D01*
X16425Y-19925D01*
X16425Y-20074D01*
X16482Y-20212D01*
X16587Y-20317D01*
X16725Y-20375D01*
X16874Y-20375D01*
X17012Y-20318D01*
X17100Y-20230D01*
X17187Y-20317D01*
X17325Y-20375D01*
X17474Y-20375D01*
X17600Y-20322D01*
X17725Y-20375D01*
X17874Y-20375D01*
X18000Y-20322D01*
X18125Y-20375D01*
X18274Y-20375D01*
X18400Y-20322D01*
X18525Y-20375D01*
X18674Y-20375D01*
X18812Y-20318D01*
X18917Y-20213D01*
X18975Y-20075D01*
X18975Y-30951D01*
X18891Y-30951D01*
X18689Y-31035D01*
X18535Y-31189D01*
X18500Y-31273D01*
X18465Y-31189D01*
X18311Y-31035D01*
X18275Y-31020D01*
X18275Y-26375D01*
X18275Y-26226D01*
X18222Y-26099D01*
X18275Y-25975D01*
X18275Y-25826D01*
X18222Y-25699D01*
X18275Y-25575D01*
X18275Y-25426D01*
X18218Y-25288D01*
X18113Y-25183D01*
X17975Y-25125D01*
X17853Y-25125D01*
X17875Y-25075D01*
X17875Y-24926D01*
X17818Y-24788D01*
X17713Y-24683D01*
X17575Y-24625D01*
X17426Y-24625D01*
X17288Y-24682D01*
X17265Y-24704D01*
X17218Y-24588D01*
X17113Y-24483D01*
X16975Y-24425D01*
X16826Y-24425D01*
X16688Y-24482D01*
X16583Y-24587D01*
X16525Y-24725D01*
X16525Y-24874D01*
X16582Y-25012D01*
X16687Y-25117D01*
X16803Y-25166D01*
X16783Y-25187D01*
X16725Y-25325D01*
X16725Y-25474D01*
X16782Y-25612D01*
X16887Y-25717D01*
X17025Y-25775D01*
X17174Y-25775D01*
X17300Y-25722D01*
X17425Y-25775D01*
X17546Y-25775D01*
X17525Y-25825D01*
X17525Y-25974D01*
X17577Y-26100D01*
X17525Y-26225D01*
X17525Y-26374D01*
X17582Y-26512D01*
X17687Y-26617D01*
X17825Y-26675D01*
X17974Y-26675D01*
X18112Y-26618D01*
X18217Y-26513D01*
X18275Y-26375D01*
X18275Y-31020D01*
X18109Y-30951D01*
X17891Y-30951D01*
X17689Y-31035D01*
X17535Y-31189D01*
X17500Y-31273D01*
X17465Y-31189D01*
X17311Y-31035D01*
X17109Y-30951D01*
X16891Y-30951D01*
X16689Y-31035D01*
X16535Y-31189D01*
X16500Y-31273D01*
X16465Y-31189D01*
X16311Y-31035D01*
X16308Y-31033D01*
X16308Y-13378D01*
X16000Y-13071D01*
X15692Y-13378D01*
X15719Y-13472D01*
X15921Y-13543D01*
X16134Y-13532D01*
X16281Y-13472D01*
X16308Y-13378D01*
X16308Y-31033D01*
X16109Y-30951D01*
X15891Y-30951D01*
X15689Y-31035D01*
X15535Y-31189D01*
X15500Y-31273D01*
X15465Y-31189D01*
X15311Y-31035D01*
X15109Y-30951D01*
X14891Y-30951D01*
X14875Y-30957D01*
X14875Y-16675D01*
X14875Y-16526D01*
X14818Y-16388D01*
X14713Y-16283D01*
X14575Y-16225D01*
X14426Y-16225D01*
X14288Y-16282D01*
X14183Y-16387D01*
X14125Y-16525D01*
X14125Y-16674D01*
X14182Y-16812D01*
X14287Y-16917D01*
X14315Y-16929D01*
X14188Y-16982D01*
X14083Y-17087D01*
X14025Y-17225D01*
X14025Y-17374D01*
X14082Y-17512D01*
X14187Y-17617D01*
X14325Y-17675D01*
X14474Y-17675D01*
X14612Y-17618D01*
X14717Y-17513D01*
X14775Y-17375D01*
X14775Y-17226D01*
X14718Y-17088D01*
X14613Y-16983D01*
X14584Y-16970D01*
X14712Y-16918D01*
X14817Y-16813D01*
X14875Y-16675D01*
X14875Y-30957D01*
X14775Y-30999D01*
X14775Y-25075D01*
X14775Y-24926D01*
X14718Y-24788D01*
X14613Y-24683D01*
X14475Y-24625D01*
X14326Y-24625D01*
X14188Y-24682D01*
X14083Y-24787D01*
X14025Y-24925D01*
X14025Y-25074D01*
X14082Y-25212D01*
X14187Y-25317D01*
X14325Y-25375D01*
X14474Y-25375D01*
X14612Y-25318D01*
X14717Y-25213D01*
X14775Y-25075D01*
X14775Y-30999D01*
X14689Y-31035D01*
X14535Y-31189D01*
X14500Y-31273D01*
X14465Y-31189D01*
X14311Y-31035D01*
X14109Y-30951D01*
X13891Y-30951D01*
X13689Y-31035D01*
X13535Y-31189D01*
X13500Y-31273D01*
X13465Y-31189D01*
X13311Y-31035D01*
X13109Y-30951D01*
X12891Y-30951D01*
X12689Y-31035D01*
X12535Y-31189D01*
X12500Y-31273D01*
X12465Y-31189D01*
X12311Y-31035D01*
X12109Y-30951D01*
X12050Y-30951D01*
X12050Y-29049D01*
X12109Y-29049D01*
X12311Y-28965D01*
X12465Y-28811D01*
X12549Y-28609D01*
X12549Y-28391D01*
X12465Y-28189D01*
X12311Y-28035D01*
X12226Y-28000D01*
X12311Y-27965D01*
X12465Y-27811D01*
X12549Y-27609D01*
X12549Y-27391D01*
X12465Y-27189D01*
X12311Y-27035D01*
X12226Y-27000D01*
X12311Y-26965D01*
X12465Y-26811D01*
X12549Y-26609D01*
X12549Y-26391D01*
X12465Y-26189D01*
X12311Y-26035D01*
X12226Y-26000D01*
X12311Y-25965D01*
X12465Y-25811D01*
X12549Y-25609D01*
X12549Y-25391D01*
X12465Y-25189D01*
X12311Y-25035D01*
X12109Y-24951D01*
X12050Y-24951D01*
X12050Y-24299D01*
X12109Y-24299D01*
X12311Y-24215D01*
X12465Y-24061D01*
X12549Y-23859D01*
X12549Y-23641D01*
X12465Y-23439D01*
X12311Y-23285D01*
X12226Y-23250D01*
X12311Y-23215D01*
X12465Y-23061D01*
X12549Y-22859D01*
X12549Y-22641D01*
X12465Y-22439D01*
X12311Y-22285D01*
X12226Y-22250D01*
X12311Y-22215D01*
X12465Y-22061D01*
X12549Y-21859D01*
X12549Y-21641D01*
X12465Y-21439D01*
X12311Y-21285D01*
X12226Y-21250D01*
X12311Y-21215D01*
X12465Y-21061D01*
X12549Y-20859D01*
X12549Y-20641D01*
X12465Y-20439D01*
X12311Y-20285D01*
X12109Y-20201D01*
X12050Y-20201D01*
X12050Y-19549D01*
X12109Y-19549D01*
X12311Y-19465D01*
X12465Y-19311D01*
X12549Y-19109D01*
X12549Y-18891D01*
X12465Y-18689D01*
X12311Y-18535D01*
X12226Y-18500D01*
X12311Y-18465D01*
X12465Y-18311D01*
X12549Y-18109D01*
X12549Y-17891D01*
X12465Y-17689D01*
X12311Y-17535D01*
X12226Y-17500D01*
X12311Y-17465D01*
X12465Y-17311D01*
X12549Y-17109D01*
X12549Y-16891D01*
X12465Y-16689D01*
X12311Y-16535D01*
X12226Y-16500D01*
X12311Y-16465D01*
X12465Y-16311D01*
X12549Y-16109D01*
X12549Y-15891D01*
X12465Y-15689D01*
X12311Y-15535D01*
X12109Y-15451D01*
X12050Y-15451D01*
X12050Y-13549D01*
X12109Y-13549D01*
X12311Y-13465D01*
X12465Y-13311D01*
X12500Y-13226D01*
X12535Y-13311D01*
X12689Y-13465D01*
X12891Y-13549D01*
X13109Y-13549D01*
X13311Y-13465D01*
X13465Y-13311D01*
X13500Y-13226D01*
X13535Y-13311D01*
X13689Y-13465D01*
X13891Y-13549D01*
X14109Y-13549D01*
X14311Y-13465D01*
X14465Y-13311D01*
X14500Y-13226D01*
X14535Y-13311D01*
X14689Y-13465D01*
X14891Y-13549D01*
X15109Y-13549D01*
X15311Y-13465D01*
X15465Y-13311D01*
X15502Y-13219D01*
X15528Y-13281D01*
X15622Y-13308D01*
X15929Y-13000D01*
X15622Y-12692D01*
X15528Y-12719D01*
X15504Y-12784D01*
X15465Y-12689D01*
X15311Y-12535D01*
X15226Y-12500D01*
X15311Y-12465D01*
X15465Y-12311D01*
X15502Y-12219D01*
X15528Y-12281D01*
X15622Y-12308D01*
X15929Y-12000D01*
X15622Y-11692D01*
X15528Y-11719D01*
X15504Y-11784D01*
X15465Y-11689D01*
X15311Y-11535D01*
X15109Y-11451D01*
X14891Y-11451D01*
X14689Y-11535D01*
X14535Y-11689D01*
X14500Y-11773D01*
X14465Y-11689D01*
X14311Y-11535D01*
X14109Y-11451D01*
X13891Y-11451D01*
X13689Y-11535D01*
X13535Y-11689D01*
X13500Y-11773D01*
X13465Y-11689D01*
X13311Y-11535D01*
X13109Y-11451D01*
X12891Y-11451D01*
X12689Y-11535D01*
X12535Y-11689D01*
X12500Y-11773D01*
X12465Y-11689D01*
X12311Y-11535D01*
X12109Y-11451D01*
X12050Y-11451D01*
X12050Y-10049D01*
X12109Y-10049D01*
X12311Y-09965D01*
X12465Y-09811D01*
X12500Y-09726D01*
X12535Y-09811D01*
X12689Y-09965D01*
X12891Y-10049D01*
X13109Y-10049D01*
X13311Y-09965D01*
X13465Y-09811D01*
X13500Y-09726D01*
X13535Y-09811D01*
X13689Y-09965D01*
X13891Y-10049D01*
X14109Y-10049D01*
X14311Y-09965D01*
X14465Y-09811D01*
X14500Y-09726D01*
X14535Y-09811D01*
X14689Y-09965D01*
X14891Y-10049D01*
X15109Y-10049D01*
X15311Y-09965D01*
X15465Y-09811D01*
X15502Y-09719D01*
X15528Y-09781D01*
X15622Y-09808D01*
X15929Y-09500D01*
X15622Y-09192D01*
X15528Y-09219D01*
X15504Y-09284D01*
X15465Y-09189D01*
X15311Y-09035D01*
X15226Y-09000D01*
X15311Y-08965D01*
X15465Y-08811D01*
X15502Y-08719D01*
X15528Y-08781D01*
X15622Y-08808D01*
X15929Y-08500D01*
X15622Y-08192D01*
X15528Y-08219D01*
X15504Y-08284D01*
X15465Y-08189D01*
X15311Y-08035D01*
X15109Y-07951D01*
X14891Y-07951D01*
X14689Y-08035D01*
X14535Y-08189D01*
X14500Y-08273D01*
X14465Y-08189D01*
X14311Y-08035D01*
X14109Y-07951D01*
X13891Y-07951D01*
X13689Y-08035D01*
X13535Y-08189D01*
X13500Y-08273D01*
X13465Y-08189D01*
X13311Y-08035D01*
X13109Y-07951D01*
X12891Y-07951D01*
X12689Y-08035D01*
X12535Y-08189D01*
X12500Y-08273D01*
X12465Y-08189D01*
X12311Y-08035D01*
X12109Y-07951D01*
X12050Y-07951D01*
X12050Y-06825D01*
X47175Y-06825D01*
X47175Y-37675D01*
X47175Y-37675D01*
G37*
G54D15*
X47175Y-37675D02*
X47049Y-37675D01*
X47049Y-37109D01*
X47049Y-36891D01*
X46999Y-36770D01*
X46965Y-36689D01*
X46811Y-36535D01*
X46726Y-36500D01*
X46811Y-36465D01*
X46965Y-36311D01*
X46999Y-36229D01*
X47049Y-36109D01*
X47049Y-35891D01*
X46999Y-35770D01*
X46965Y-35689D01*
X46811Y-35535D01*
X46726Y-35500D01*
X46811Y-35465D01*
X46965Y-35311D01*
X46999Y-35229D01*
X47049Y-35109D01*
X47049Y-34891D01*
X46999Y-34770D01*
X46965Y-34689D01*
X46811Y-34535D01*
X46726Y-34500D01*
X46811Y-34465D01*
X46965Y-34311D01*
X46999Y-34229D01*
X47049Y-34109D01*
X47049Y-33891D01*
X47049Y-32609D01*
X47049Y-32391D01*
X46999Y-32270D01*
X46965Y-32189D01*
X46811Y-32035D01*
X46726Y-32000D01*
X46811Y-31965D01*
X46965Y-31811D01*
X46999Y-31729D01*
X47049Y-31609D01*
X47049Y-31391D01*
X46999Y-31270D01*
X46965Y-31189D01*
X46811Y-31035D01*
X46726Y-31000D01*
X46811Y-30965D01*
X46965Y-30811D01*
X46999Y-30729D01*
X47049Y-30609D01*
X47049Y-30391D01*
X46999Y-30270D01*
X46965Y-30189D01*
X46811Y-30035D01*
X46726Y-30000D01*
X46811Y-29965D01*
X46965Y-29811D01*
X46999Y-29729D01*
X47049Y-29609D01*
X47049Y-29391D01*
X47049Y-21609D01*
X47049Y-21391D01*
X46965Y-21189D01*
X46811Y-21035D01*
X46726Y-21000D01*
X46811Y-20965D01*
X46965Y-20811D01*
X47049Y-20609D01*
X47049Y-20391D01*
X46965Y-20189D01*
X46811Y-20035D01*
X46726Y-20000D01*
X46811Y-19965D01*
X46965Y-19811D01*
X47049Y-19609D01*
X47049Y-19391D01*
X46965Y-19189D01*
X46811Y-19035D01*
X46726Y-19000D01*
X46811Y-18965D01*
X46965Y-18811D01*
X47049Y-18609D01*
X47049Y-18391D01*
X46965Y-18189D01*
X46811Y-18035D01*
X46726Y-18000D01*
X46811Y-17965D01*
X46965Y-17811D01*
X47049Y-17609D01*
X47049Y-17391D01*
X46965Y-17189D01*
X46811Y-17035D01*
X46726Y-17000D01*
X46811Y-16965D01*
X46965Y-16811D01*
X47049Y-16609D01*
X47049Y-16391D01*
X47049Y-15109D01*
X47049Y-14891D01*
X46965Y-14689D01*
X46811Y-14535D01*
X46726Y-14500D01*
X46811Y-14465D01*
X46965Y-14311D01*
X47049Y-14109D01*
X47049Y-13891D01*
X46965Y-13689D01*
X46811Y-13535D01*
X46726Y-13500D01*
X46811Y-13465D01*
X46965Y-13311D01*
X47049Y-13109D01*
X47049Y-12891D01*
X46965Y-12689D01*
X46811Y-12535D01*
X46726Y-12500D01*
X46811Y-12465D01*
X46965Y-12311D01*
X47049Y-12109D01*
X47049Y-11891D01*
X47049Y-10609D01*
X47049Y-10391D01*
X46965Y-10189D01*
X46811Y-10035D01*
X46726Y-10000D01*
X46811Y-09965D01*
X46965Y-09811D01*
X47049Y-09609D01*
X47049Y-09391D01*
X46965Y-09189D01*
X46811Y-09035D01*
X46726Y-09000D01*
X46811Y-08965D01*
X46965Y-08811D01*
X47049Y-08609D01*
X47049Y-08391D01*
X46965Y-08189D01*
X46811Y-08035D01*
X46726Y-08000D01*
X46811Y-07965D01*
X46965Y-07811D01*
X47049Y-07609D01*
X47049Y-07391D01*
X46965Y-07189D01*
X46811Y-07035D01*
X46609Y-06951D01*
X46391Y-06951D01*
X46189Y-07035D01*
X46049Y-07175D01*
X46049Y-07151D01*
X46011Y-07059D01*
X45941Y-06989D01*
X45850Y-06951D01*
X45751Y-06951D01*
X45151Y-06951D01*
X45059Y-06989D01*
X44989Y-07059D01*
X44951Y-07150D01*
X44951Y-07249D01*
X44951Y-07849D01*
X44989Y-07941D01*
X45059Y-08011D01*
X45150Y-08049D01*
X45175Y-08049D01*
X45035Y-08189D01*
X44951Y-08391D01*
X44951Y-08609D01*
X45035Y-08811D01*
X45189Y-08965D01*
X45273Y-09000D01*
X45189Y-09035D01*
X45035Y-09189D01*
X44951Y-09391D01*
X44951Y-09609D01*
X45035Y-09811D01*
X45189Y-09965D01*
X45273Y-10000D01*
X45189Y-10035D01*
X45035Y-10189D01*
X44951Y-10391D01*
X44951Y-10609D01*
X45035Y-10811D01*
X45189Y-10965D01*
X45391Y-11049D01*
X45609Y-11049D01*
X45811Y-10965D01*
X45965Y-10811D01*
X46000Y-10726D01*
X46035Y-10811D01*
X46189Y-10965D01*
X46391Y-11049D01*
X46609Y-11049D01*
X46811Y-10965D01*
X46965Y-10811D01*
X47049Y-10609D01*
X47049Y-11891D01*
X46965Y-11689D01*
X46811Y-11535D01*
X46609Y-11451D01*
X46391Y-11451D01*
X46189Y-11535D01*
X46049Y-11675D01*
X46049Y-11651D01*
X46011Y-11559D01*
X45941Y-11489D01*
X45850Y-11451D01*
X45751Y-11451D01*
X45151Y-11451D01*
X45059Y-11489D01*
X44989Y-11559D01*
X44951Y-11650D01*
X44951Y-11749D01*
X44951Y-12349D01*
X44989Y-12441D01*
X45059Y-12511D01*
X45150Y-12549D01*
X45175Y-12549D01*
X45035Y-12689D01*
X44951Y-12891D01*
X44951Y-13109D01*
X45035Y-13311D01*
X45189Y-13465D01*
X45273Y-13500D01*
X45189Y-13535D01*
X45035Y-13689D01*
X44951Y-13891D01*
X44951Y-14109D01*
X45035Y-14311D01*
X45189Y-14465D01*
X45273Y-14500D01*
X45189Y-14535D01*
X45035Y-14689D01*
X44951Y-14891D01*
X44951Y-15109D01*
X45035Y-15311D01*
X45189Y-15465D01*
X45391Y-15549D01*
X45609Y-15549D01*
X45811Y-15465D01*
X45965Y-15311D01*
X46000Y-15226D01*
X46035Y-15311D01*
X46189Y-15465D01*
X46391Y-15549D01*
X46609Y-15549D01*
X46811Y-15465D01*
X46965Y-15311D01*
X47049Y-15109D01*
X47049Y-16391D01*
X46965Y-16189D01*
X46811Y-16035D01*
X46609Y-15951D01*
X46391Y-15951D01*
X46189Y-16035D01*
X46049Y-16175D01*
X46049Y-16151D01*
X46011Y-16059D01*
X45941Y-15989D01*
X45850Y-15951D01*
X45751Y-15951D01*
X45151Y-15951D01*
X45059Y-15989D01*
X44989Y-16059D01*
X44951Y-16150D01*
X44951Y-16249D01*
X44951Y-16849D01*
X44989Y-16941D01*
X45059Y-17011D01*
X45150Y-17049D01*
X45175Y-17049D01*
X45035Y-17189D01*
X44951Y-17391D01*
X44951Y-17609D01*
X45035Y-17811D01*
X45189Y-17965D01*
X45273Y-18000D01*
X45189Y-18035D01*
X45035Y-18189D01*
X44951Y-18391D01*
X44951Y-18609D01*
X45035Y-18811D01*
X45189Y-18965D01*
X45273Y-19000D01*
X45189Y-19035D01*
X45035Y-19189D01*
X44951Y-19391D01*
X44951Y-19609D01*
X45035Y-19811D01*
X45189Y-19965D01*
X45273Y-20000D01*
X45189Y-20035D01*
X45035Y-20189D01*
X44951Y-20391D01*
X44951Y-20609D01*
X45035Y-20811D01*
X45189Y-20965D01*
X45273Y-21000D01*
X45189Y-21035D01*
X45035Y-21189D01*
X44951Y-21391D01*
X44951Y-21609D01*
X45035Y-21811D01*
X45189Y-21965D01*
X45391Y-22049D01*
X45609Y-22049D01*
X45811Y-21965D01*
X45965Y-21811D01*
X46000Y-21726D01*
X46035Y-21811D01*
X46189Y-21965D01*
X46391Y-22049D01*
X46609Y-22049D01*
X46811Y-21965D01*
X46965Y-21811D01*
X47049Y-21609D01*
X47049Y-29391D01*
X46999Y-29270D01*
X46999Y-27802D01*
X46999Y-27096D01*
X46999Y-24652D01*
X46999Y-23946D01*
X46293Y-23946D01*
X46293Y-24652D01*
X46999Y-24652D01*
X46999Y-27096D01*
X46293Y-27096D01*
X46293Y-27802D01*
X46999Y-27802D01*
X46999Y-29270D01*
X46965Y-29189D01*
X46811Y-29035D01*
X46609Y-28951D01*
X46391Y-28951D01*
X46189Y-29035D01*
X46049Y-29175D01*
X46049Y-29151D01*
X46011Y-29059D01*
X45941Y-28989D01*
X45850Y-28951D01*
X45751Y-28951D01*
X45151Y-28951D01*
X45059Y-28989D01*
X44989Y-29059D01*
X44951Y-29150D01*
X44951Y-29249D01*
X44951Y-29849D01*
X44989Y-29941D01*
X45059Y-30011D01*
X45150Y-30049D01*
X45175Y-30049D01*
X45035Y-30189D01*
X44951Y-30391D01*
X44951Y-30609D01*
X45035Y-30811D01*
X45189Y-30965D01*
X45273Y-31000D01*
X45189Y-31035D01*
X45035Y-31189D01*
X44951Y-31391D01*
X44951Y-31609D01*
X45035Y-31811D01*
X45189Y-31965D01*
X45273Y-32000D01*
X45189Y-32035D01*
X45035Y-32189D01*
X44951Y-32391D01*
X44951Y-32609D01*
X45035Y-32811D01*
X45189Y-32965D01*
X45391Y-33049D01*
X45609Y-33049D01*
X45811Y-32965D01*
X45965Y-32811D01*
X46000Y-32726D01*
X46035Y-32811D01*
X46189Y-32965D01*
X46391Y-33049D01*
X46609Y-33049D01*
X46811Y-32965D01*
X46965Y-32811D01*
X46999Y-32729D01*
X47049Y-32609D01*
X47049Y-33891D01*
X46999Y-33770D01*
X46965Y-33689D01*
X46811Y-33535D01*
X46609Y-33451D01*
X46391Y-33451D01*
X46189Y-33535D01*
X46049Y-33675D01*
X46049Y-33651D01*
X46011Y-33559D01*
X45941Y-33489D01*
X45850Y-33451D01*
X45751Y-33451D01*
X45151Y-33451D01*
X45059Y-33489D01*
X44989Y-33559D01*
X44951Y-33650D01*
X44951Y-33749D01*
X44951Y-34349D01*
X44989Y-34441D01*
X45059Y-34511D01*
X45150Y-34549D01*
X45175Y-34549D01*
X45035Y-34689D01*
X44951Y-34891D01*
X44951Y-35109D01*
X45035Y-35311D01*
X45189Y-35465D01*
X45273Y-35500D01*
X45189Y-35535D01*
X45035Y-35689D01*
X45000Y-35770D01*
X44913Y-35683D01*
X44875Y-35667D01*
X44875Y-35075D01*
X44875Y-34926D01*
X44818Y-34788D01*
X44713Y-34683D01*
X44675Y-34667D01*
X44675Y-34075D01*
X44675Y-33926D01*
X44618Y-33788D01*
X44513Y-33683D01*
X44475Y-33667D01*
X44475Y-32575D01*
X44475Y-32426D01*
X44418Y-32288D01*
X44313Y-32183D01*
X44275Y-32167D01*
X44275Y-31575D01*
X44275Y-31426D01*
X44218Y-31288D01*
X44113Y-31183D01*
X44075Y-31167D01*
X44075Y-30575D01*
X44075Y-30426D01*
X44018Y-30288D01*
X43913Y-30183D01*
X43875Y-30167D01*
X43875Y-29575D01*
X43875Y-29426D01*
X43818Y-29288D01*
X43713Y-29183D01*
X43575Y-29125D01*
X43549Y-29125D01*
X43549Y-13109D01*
X43549Y-12891D01*
X43465Y-12689D01*
X43325Y-12549D01*
X43349Y-12549D01*
X43441Y-12511D01*
X43511Y-12441D01*
X43549Y-12350D01*
X43549Y-12251D01*
X43549Y-11651D01*
X43549Y-09609D01*
X43549Y-09391D01*
X43465Y-09189D01*
X43325Y-09049D01*
X43349Y-09049D01*
X43441Y-09011D01*
X43511Y-08941D01*
X43549Y-08850D01*
X43549Y-08751D01*
X43549Y-08151D01*
X43511Y-08059D01*
X43441Y-07989D01*
X43350Y-07951D01*
X43251Y-07951D01*
X42651Y-07951D01*
X42559Y-07989D01*
X42489Y-08059D01*
X42451Y-08150D01*
X42451Y-08175D01*
X42311Y-08035D01*
X42109Y-07951D01*
X41891Y-07951D01*
X41689Y-08035D01*
X41535Y-08189D01*
X41500Y-08273D01*
X41465Y-08189D01*
X41311Y-08035D01*
X41109Y-07951D01*
X40891Y-07951D01*
X40689Y-08035D01*
X40535Y-08189D01*
X40500Y-08273D01*
X40465Y-08189D01*
X40311Y-08035D01*
X40109Y-07951D01*
X39891Y-07951D01*
X39689Y-08035D01*
X39535Y-08189D01*
X39500Y-08273D01*
X39465Y-08189D01*
X39311Y-08035D01*
X39109Y-07951D01*
X38891Y-07951D01*
X38689Y-08035D01*
X38535Y-08189D01*
X38500Y-08273D01*
X38465Y-08189D01*
X38311Y-08035D01*
X38109Y-07951D01*
X37891Y-07951D01*
X37689Y-08035D01*
X37535Y-08189D01*
X37500Y-08273D01*
X37465Y-08189D01*
X37311Y-08035D01*
X37109Y-07951D01*
X36891Y-07951D01*
X36689Y-08035D01*
X36535Y-08189D01*
X36500Y-08273D01*
X36465Y-08189D01*
X36311Y-08035D01*
X36109Y-07951D01*
X35891Y-07951D01*
X35689Y-08035D01*
X35535Y-08189D01*
X35500Y-08273D01*
X35465Y-08189D01*
X35311Y-08035D01*
X35109Y-07951D01*
X34891Y-07951D01*
X34689Y-08035D01*
X34535Y-08189D01*
X34500Y-08273D01*
X34465Y-08189D01*
X34311Y-08035D01*
X34109Y-07951D01*
X33891Y-07951D01*
X33689Y-08035D01*
X33535Y-08189D01*
X33500Y-08273D01*
X33465Y-08189D01*
X33311Y-08035D01*
X33109Y-07951D01*
X32891Y-07951D01*
X32689Y-08035D01*
X32535Y-08189D01*
X32500Y-08273D01*
X32465Y-08189D01*
X32311Y-08035D01*
X32109Y-07951D01*
X31891Y-07951D01*
X31689Y-08035D01*
X31535Y-08189D01*
X31500Y-08273D01*
X31465Y-08189D01*
X31311Y-08035D01*
X31109Y-07951D01*
X30891Y-07951D01*
X30689Y-08035D01*
X30535Y-08189D01*
X30500Y-08273D01*
X30465Y-08189D01*
X30311Y-08035D01*
X30109Y-07951D01*
X29891Y-07951D01*
X29689Y-08035D01*
X29535Y-08189D01*
X29500Y-08273D01*
X29465Y-08189D01*
X29311Y-08035D01*
X29109Y-07951D01*
X28891Y-07951D01*
X28689Y-08035D01*
X28535Y-08189D01*
X28500Y-08273D01*
X28465Y-08189D01*
X28311Y-08035D01*
X28109Y-07951D01*
X27891Y-07951D01*
X27689Y-08035D01*
X27535Y-08189D01*
X27500Y-08273D01*
X27465Y-08189D01*
X27311Y-08035D01*
X27109Y-07951D01*
X26891Y-07951D01*
X26689Y-08035D01*
X26535Y-08189D01*
X26500Y-08273D01*
X26465Y-08189D01*
X26311Y-08035D01*
X26109Y-07951D01*
X25891Y-07951D01*
X25689Y-08035D01*
X25535Y-08189D01*
X25500Y-08273D01*
X25465Y-08189D01*
X25311Y-08035D01*
X25109Y-07951D01*
X24891Y-07951D01*
X24689Y-08035D01*
X24535Y-08189D01*
X24500Y-08273D01*
X24465Y-08189D01*
X24311Y-08035D01*
X24109Y-07951D01*
X23891Y-07951D01*
X23689Y-08035D01*
X23535Y-08189D01*
X23500Y-08273D01*
X23465Y-08189D01*
X23311Y-08035D01*
X23109Y-07951D01*
X22891Y-07951D01*
X22689Y-08035D01*
X22535Y-08189D01*
X22500Y-08273D01*
X22465Y-08189D01*
X22311Y-08035D01*
X22109Y-07951D01*
X21891Y-07951D01*
X21689Y-08035D01*
X21535Y-08189D01*
X21500Y-08273D01*
X21465Y-08189D01*
X21311Y-08035D01*
X21109Y-07951D01*
X20891Y-07951D01*
X20689Y-08035D01*
X20535Y-08189D01*
X20500Y-08273D01*
X20465Y-08189D01*
X20311Y-08035D01*
X20109Y-07951D01*
X19891Y-07951D01*
X19689Y-08035D01*
X19535Y-08189D01*
X19500Y-08273D01*
X19465Y-08189D01*
X19311Y-08035D01*
X19109Y-07951D01*
X18891Y-07951D01*
X18689Y-08035D01*
X18535Y-08189D01*
X18500Y-08273D01*
X18465Y-08189D01*
X18311Y-08035D01*
X18109Y-07951D01*
X17891Y-07951D01*
X17689Y-08035D01*
X17535Y-08189D01*
X17500Y-08273D01*
X17465Y-08189D01*
X17311Y-08035D01*
X17109Y-07951D01*
X16891Y-07951D01*
X16689Y-08035D01*
X16535Y-08189D01*
X16497Y-08280D01*
X16472Y-08219D01*
X16378Y-08192D01*
X16308Y-08262D01*
X16308Y-08122D01*
X16281Y-08028D01*
X16079Y-07957D01*
X15866Y-07968D01*
X15719Y-08028D01*
X15692Y-08122D01*
X16000Y-08429D01*
X16308Y-08122D01*
X16308Y-08262D01*
X16071Y-08500D01*
X16378Y-08808D01*
X16472Y-08781D01*
X16495Y-08715D01*
X16535Y-08811D01*
X16689Y-08965D01*
X16773Y-09000D01*
X16689Y-09035D01*
X16535Y-09189D01*
X16497Y-09280D01*
X16472Y-09219D01*
X16378Y-09192D01*
X16308Y-09262D01*
X16308Y-09122D01*
X16281Y-09028D01*
X16207Y-09002D01*
X16281Y-08972D01*
X16308Y-08878D01*
X16000Y-08571D01*
X15692Y-08878D01*
X15719Y-08972D01*
X15792Y-08997D01*
X15719Y-09028D01*
X15692Y-09122D01*
X16000Y-09429D01*
X16308Y-09122D01*
X16308Y-09262D01*
X16071Y-09500D01*
X16378Y-09808D01*
X16472Y-09781D01*
X16495Y-09715D01*
X16535Y-09811D01*
X16689Y-09965D01*
X16891Y-10049D01*
X17109Y-10049D01*
X17311Y-09965D01*
X17465Y-09811D01*
X17500Y-09726D01*
X17535Y-09811D01*
X17689Y-09965D01*
X17891Y-10049D01*
X18109Y-10049D01*
X18311Y-09965D01*
X18465Y-09811D01*
X18500Y-09726D01*
X18535Y-09811D01*
X18689Y-09965D01*
X18891Y-10049D01*
X19109Y-10049D01*
X19311Y-09965D01*
X19465Y-09811D01*
X19500Y-09726D01*
X19535Y-09811D01*
X19689Y-09965D01*
X19891Y-10049D01*
X20109Y-10049D01*
X20311Y-09965D01*
X20465Y-09811D01*
X20500Y-09726D01*
X20535Y-09811D01*
X20689Y-09965D01*
X20891Y-10049D01*
X21109Y-10049D01*
X21311Y-09965D01*
X21465Y-09811D01*
X21500Y-09726D01*
X21535Y-09811D01*
X21689Y-09965D01*
X21891Y-10049D01*
X22109Y-10049D01*
X22311Y-09965D01*
X22465Y-09811D01*
X22500Y-09726D01*
X22535Y-09811D01*
X22689Y-09965D01*
X22891Y-10049D01*
X23109Y-10049D01*
X23311Y-09965D01*
X23465Y-09811D01*
X23500Y-09726D01*
X23535Y-09811D01*
X23689Y-09965D01*
X23891Y-10049D01*
X24109Y-10049D01*
X24311Y-09965D01*
X24465Y-09811D01*
X24500Y-09726D01*
X24535Y-09811D01*
X24689Y-09965D01*
X24891Y-10049D01*
X25109Y-10049D01*
X25311Y-09965D01*
X25465Y-09811D01*
X25500Y-09726D01*
X25535Y-09811D01*
X25689Y-09965D01*
X25891Y-10049D01*
X26109Y-10049D01*
X26311Y-09965D01*
X26465Y-09811D01*
X26500Y-09726D01*
X26535Y-09811D01*
X26689Y-09965D01*
X26891Y-10049D01*
X27109Y-10049D01*
X27311Y-09965D01*
X27465Y-09811D01*
X27500Y-09726D01*
X27535Y-09811D01*
X27689Y-09965D01*
X27891Y-10049D01*
X28109Y-10049D01*
X28311Y-09965D01*
X28465Y-09811D01*
X28500Y-09726D01*
X28535Y-09811D01*
X28689Y-09965D01*
X28891Y-10049D01*
X29109Y-10049D01*
X29311Y-09965D01*
X29465Y-09811D01*
X29500Y-09726D01*
X29535Y-09811D01*
X29689Y-09965D01*
X29891Y-10049D01*
X30109Y-10049D01*
X30311Y-09965D01*
X30465Y-09811D01*
X30500Y-09726D01*
X30535Y-09811D01*
X30689Y-09965D01*
X30891Y-10049D01*
X31109Y-10049D01*
X31311Y-09965D01*
X31465Y-09811D01*
X31500Y-09726D01*
X31535Y-09811D01*
X31689Y-09965D01*
X31891Y-10049D01*
X32109Y-10049D01*
X32311Y-09965D01*
X32465Y-09811D01*
X32500Y-09726D01*
X32535Y-09811D01*
X32689Y-09965D01*
X32891Y-10049D01*
X33109Y-10049D01*
X33311Y-09965D01*
X33465Y-09811D01*
X33500Y-09726D01*
X33535Y-09811D01*
X33689Y-09965D01*
X33891Y-10049D01*
X34109Y-10049D01*
X34311Y-09965D01*
X34465Y-09811D01*
X34500Y-09726D01*
X34535Y-09811D01*
X34689Y-09965D01*
X34891Y-10049D01*
X35109Y-10049D01*
X35311Y-09965D01*
X35465Y-09811D01*
X35500Y-09726D01*
X35535Y-09811D01*
X35689Y-09965D01*
X35891Y-10049D01*
X36109Y-10049D01*
X36311Y-09965D01*
X36465Y-09811D01*
X36500Y-09726D01*
X36535Y-09811D01*
X36689Y-09965D01*
X36891Y-10049D01*
X37109Y-10049D01*
X37311Y-09965D01*
X37465Y-09811D01*
X37500Y-09726D01*
X37535Y-09811D01*
X37689Y-09965D01*
X37891Y-10049D01*
X38109Y-10049D01*
X38311Y-09965D01*
X38465Y-09811D01*
X38500Y-09726D01*
X38535Y-09811D01*
X38689Y-09965D01*
X38891Y-10049D01*
X39109Y-10049D01*
X39311Y-09965D01*
X39465Y-09811D01*
X39500Y-09726D01*
X39535Y-09811D01*
X39689Y-09965D01*
X39891Y-10049D01*
X40109Y-10049D01*
X40311Y-09965D01*
X40465Y-09811D01*
X40500Y-09726D01*
X40535Y-09811D01*
X40689Y-09965D01*
X40891Y-10049D01*
X41109Y-10049D01*
X41311Y-09965D01*
X41465Y-09811D01*
X41500Y-09726D01*
X41535Y-09811D01*
X41689Y-09965D01*
X41891Y-10049D01*
X42109Y-10049D01*
X42311Y-09965D01*
X42465Y-09811D01*
X42500Y-09726D01*
X42535Y-09811D01*
X42689Y-09965D01*
X42891Y-10049D01*
X43109Y-10049D01*
X43311Y-09965D01*
X43465Y-09811D01*
X43549Y-09609D01*
X43549Y-11651D01*
X43511Y-11559D01*
X43441Y-11489D01*
X43350Y-11451D01*
X43251Y-11451D01*
X42651Y-11451D01*
X42559Y-11489D01*
X42489Y-11559D01*
X42451Y-11650D01*
X42451Y-11675D01*
X42311Y-11535D01*
X42109Y-11451D01*
X41891Y-11451D01*
X41689Y-11535D01*
X41535Y-11689D01*
X41500Y-11773D01*
X41465Y-11689D01*
X41311Y-11535D01*
X41109Y-11451D01*
X40891Y-11451D01*
X40689Y-11535D01*
X40535Y-11689D01*
X40500Y-11773D01*
X40465Y-11689D01*
X40311Y-11535D01*
X40109Y-11451D01*
X39891Y-11451D01*
X39689Y-11535D01*
X39535Y-11689D01*
X39500Y-11773D01*
X39465Y-11689D01*
X39311Y-11535D01*
X39109Y-11451D01*
X38891Y-11451D01*
X38689Y-11535D01*
X38535Y-11689D01*
X38500Y-11773D01*
X38465Y-11689D01*
X38311Y-11535D01*
X38109Y-11451D01*
X37891Y-11451D01*
X37689Y-11535D01*
X37535Y-11689D01*
X37500Y-11773D01*
X37465Y-11689D01*
X37311Y-11535D01*
X37109Y-11451D01*
X36891Y-11451D01*
X36689Y-11535D01*
X36535Y-11689D01*
X36500Y-11773D01*
X36465Y-11689D01*
X36311Y-11535D01*
X36109Y-11451D01*
X35891Y-11451D01*
X35689Y-11535D01*
X35535Y-11689D01*
X35500Y-11773D01*
X35465Y-11689D01*
X35311Y-11535D01*
X35109Y-11451D01*
X34891Y-11451D01*
X34689Y-11535D01*
X34535Y-11689D01*
X34500Y-11773D01*
X34465Y-11689D01*
X34311Y-11535D01*
X34109Y-11451D01*
X33891Y-11451D01*
X33689Y-11535D01*
X33535Y-11689D01*
X33500Y-11773D01*
X33465Y-11689D01*
X33311Y-11535D01*
X33109Y-11451D01*
X32891Y-11451D01*
X32689Y-11535D01*
X32535Y-11689D01*
X32500Y-11773D01*
X32465Y-11689D01*
X32311Y-11535D01*
X32109Y-11451D01*
X31891Y-11451D01*
X31689Y-11535D01*
X31535Y-11689D01*
X31500Y-11773D01*
X31465Y-11689D01*
X31311Y-11535D01*
X31109Y-11451D01*
X30891Y-11451D01*
X30689Y-11535D01*
X30535Y-11689D01*
X30500Y-11773D01*
X30465Y-11689D01*
X30311Y-11535D01*
X30109Y-11451D01*
X29891Y-11451D01*
X29689Y-11535D01*
X29535Y-11689D01*
X29500Y-11773D01*
X29465Y-11689D01*
X29311Y-11535D01*
X29109Y-11451D01*
X28891Y-11451D01*
X28689Y-11535D01*
X28535Y-11689D01*
X28500Y-11773D01*
X28465Y-11689D01*
X28311Y-11535D01*
X28109Y-11451D01*
X27891Y-11451D01*
X27689Y-11535D01*
X27535Y-11689D01*
X27500Y-11773D01*
X27465Y-11689D01*
X27311Y-11535D01*
X27109Y-11451D01*
X26891Y-11451D01*
X26689Y-11535D01*
X26535Y-11689D01*
X26500Y-11773D01*
X26465Y-11689D01*
X26311Y-11535D01*
X26109Y-11451D01*
X25891Y-11451D01*
X25689Y-11535D01*
X25535Y-11689D01*
X25500Y-11773D01*
X25465Y-11689D01*
X25311Y-11535D01*
X25109Y-11451D01*
X24891Y-11451D01*
X24689Y-11535D01*
X24535Y-11689D01*
X24500Y-11773D01*
X24465Y-11689D01*
X24311Y-11535D01*
X24109Y-11451D01*
X23891Y-11451D01*
X23689Y-11535D01*
X23535Y-11689D01*
X23500Y-11773D01*
X23465Y-11689D01*
X23311Y-11535D01*
X23109Y-11451D01*
X22891Y-11451D01*
X22689Y-11535D01*
X22535Y-11689D01*
X22500Y-11773D01*
X22465Y-11689D01*
X22311Y-11535D01*
X22109Y-11451D01*
X21891Y-11451D01*
X21689Y-11535D01*
X21535Y-11689D01*
X21500Y-11773D01*
X21465Y-11689D01*
X21311Y-11535D01*
X21109Y-11451D01*
X20891Y-11451D01*
X20689Y-11535D01*
X20535Y-11689D01*
X20500Y-11773D01*
X20465Y-11689D01*
X20311Y-11535D01*
X20109Y-11451D01*
X19891Y-11451D01*
X19689Y-11535D01*
X19535Y-11689D01*
X19500Y-11773D01*
X19465Y-11689D01*
X19311Y-11535D01*
X19109Y-11451D01*
X18891Y-11451D01*
X18689Y-11535D01*
X18535Y-11689D01*
X18500Y-11773D01*
X18465Y-11689D01*
X18311Y-11535D01*
X18109Y-11451D01*
X17891Y-11451D01*
X17689Y-11535D01*
X17535Y-11689D01*
X17500Y-11773D01*
X17465Y-11689D01*
X17311Y-11535D01*
X17109Y-11451D01*
X16891Y-11451D01*
X16689Y-11535D01*
X16535Y-11689D01*
X16497Y-11780D01*
X16472Y-11719D01*
X16378Y-11692D01*
X16308Y-11762D01*
X16308Y-11622D01*
X16308Y-09878D01*
X16000Y-09571D01*
X15692Y-09878D01*
X15719Y-09972D01*
X15921Y-10043D01*
X16134Y-10032D01*
X16281Y-09972D01*
X16308Y-09878D01*
X16308Y-11622D01*
X16281Y-11528D01*
X16079Y-11457D01*
X15866Y-11468D01*
X15719Y-11528D01*
X15692Y-11622D01*
X16000Y-11929D01*
X16308Y-11622D01*
X16308Y-11762D01*
X16071Y-12000D01*
X16378Y-12308D01*
X16472Y-12281D01*
X16495Y-12215D01*
X16535Y-12311D01*
X16689Y-12465D01*
X16773Y-12500D01*
X16689Y-12535D01*
X16535Y-12689D01*
X16497Y-12780D01*
X16472Y-12719D01*
X16378Y-12692D01*
X16308Y-12762D01*
X16308Y-12622D01*
X16281Y-12528D01*
X16207Y-12502D01*
X16281Y-12472D01*
X16308Y-12378D01*
X16000Y-12071D01*
X15692Y-12378D01*
X15719Y-12472D01*
X15792Y-12497D01*
X15719Y-12528D01*
X15692Y-12622D01*
X16000Y-12929D01*
X16308Y-12622D01*
X16308Y-12762D01*
X16071Y-13000D01*
X16378Y-13308D01*
X16472Y-13281D01*
X16495Y-13215D01*
X16535Y-13311D01*
X16689Y-13465D01*
X16891Y-13549D01*
X17109Y-13549D01*
X17311Y-13465D01*
X17465Y-13311D01*
X17500Y-13226D01*
X17535Y-13311D01*
X17689Y-13465D01*
X17891Y-13549D01*
X18109Y-13549D01*
X18311Y-13465D01*
X18465Y-13311D01*
X18500Y-13226D01*
X18535Y-13311D01*
X18689Y-13465D01*
X18891Y-13549D01*
X19109Y-13549D01*
X19311Y-13465D01*
X19465Y-13311D01*
X19500Y-13226D01*
X19535Y-13311D01*
X19689Y-13465D01*
X19891Y-13549D01*
X20109Y-13549D01*
X20311Y-13465D01*
X20465Y-13311D01*
X20500Y-13226D01*
X20535Y-13311D01*
X20689Y-13465D01*
X20891Y-13549D01*
X21109Y-13549D01*
X21311Y-13465D01*
X21465Y-13311D01*
X21500Y-13226D01*
X21535Y-13311D01*
X21689Y-13465D01*
X21891Y-13549D01*
X22109Y-13549D01*
X22311Y-13465D01*
X22465Y-13311D01*
X22500Y-13226D01*
X22535Y-13311D01*
X22689Y-13465D01*
X22891Y-13549D01*
X23109Y-13549D01*
X23311Y-13465D01*
X23465Y-13311D01*
X23500Y-13226D01*
X23535Y-13311D01*
X23689Y-13465D01*
X23891Y-13549D01*
X24109Y-13549D01*
X24311Y-13465D01*
X24465Y-13311D01*
X24500Y-13226D01*
X24535Y-13311D01*
X24689Y-13465D01*
X24891Y-13549D01*
X25109Y-13549D01*
X25311Y-13465D01*
X25465Y-13311D01*
X25500Y-13226D01*
X25535Y-13311D01*
X25689Y-13465D01*
X25891Y-13549D01*
X26109Y-13549D01*
X26311Y-13465D01*
X26465Y-13311D01*
X26500Y-13226D01*
X26535Y-13311D01*
X26689Y-13465D01*
X26891Y-13549D01*
X27109Y-13549D01*
X27311Y-13465D01*
X27465Y-13311D01*
X27500Y-13226D01*
X27535Y-13311D01*
X27689Y-13465D01*
X27891Y-13549D01*
X28109Y-13549D01*
X28311Y-13465D01*
X28465Y-13311D01*
X28500Y-13226D01*
X28535Y-13311D01*
X28689Y-13465D01*
X28891Y-13549D01*
X29109Y-13549D01*
X29311Y-13465D01*
X29465Y-13311D01*
X29500Y-13226D01*
X29535Y-13311D01*
X29689Y-13465D01*
X29891Y-13549D01*
X30109Y-13549D01*
X30311Y-13465D01*
X30465Y-13311D01*
X30500Y-13226D01*
X30535Y-13311D01*
X30689Y-13465D01*
X30891Y-13549D01*
X31109Y-13549D01*
X31311Y-13465D01*
X31465Y-13311D01*
X31500Y-13226D01*
X31535Y-13311D01*
X31689Y-13465D01*
X31891Y-13549D01*
X32109Y-13549D01*
X32311Y-13465D01*
X32465Y-13311D01*
X32500Y-13226D01*
X32535Y-13311D01*
X32689Y-13465D01*
X32891Y-13549D01*
X33109Y-13549D01*
X33311Y-13465D01*
X33465Y-13311D01*
X33500Y-13226D01*
X33535Y-13311D01*
X33689Y-13465D01*
X33891Y-13549D01*
X34109Y-13549D01*
X34311Y-13465D01*
X34465Y-13311D01*
X34500Y-13226D01*
X34535Y-13311D01*
X34689Y-13465D01*
X34891Y-13549D01*
X35109Y-13549D01*
X35311Y-13465D01*
X35465Y-13311D01*
X35500Y-13226D01*
X35535Y-13311D01*
X35689Y-13465D01*
X35891Y-13549D01*
X36109Y-13549D01*
X36311Y-13465D01*
X36465Y-13311D01*
X36500Y-13226D01*
X36535Y-13311D01*
X36689Y-13465D01*
X36891Y-13549D01*
X37109Y-13549D01*
X37311Y-13465D01*
X37465Y-13311D01*
X37500Y-13226D01*
X37535Y-13311D01*
X37689Y-13465D01*
X37891Y-13549D01*
X38109Y-13549D01*
X38311Y-13465D01*
X38465Y-13311D01*
X38500Y-13226D01*
X38535Y-13311D01*
X38689Y-13465D01*
X38891Y-13549D01*
X39109Y-13549D01*
X39311Y-13465D01*
X39465Y-13311D01*
X39500Y-13226D01*
X39535Y-13311D01*
X39689Y-13465D01*
X39891Y-13549D01*
X40109Y-13549D01*
X40311Y-13465D01*
X40465Y-13311D01*
X40500Y-13226D01*
X40535Y-13311D01*
X40689Y-13465D01*
X40891Y-13549D01*
X41109Y-13549D01*
X41311Y-13465D01*
X41465Y-13311D01*
X41500Y-13226D01*
X41535Y-13311D01*
X41689Y-13465D01*
X41770Y-13499D01*
X41683Y-13587D01*
X41625Y-13725D01*
X41625Y-13874D01*
X41682Y-14012D01*
X41787Y-14117D01*
X41925Y-14175D01*
X42074Y-14175D01*
X42212Y-14118D01*
X42317Y-14013D01*
X42375Y-13875D01*
X42375Y-13726D01*
X42318Y-13588D01*
X42229Y-13499D01*
X42311Y-13465D01*
X42465Y-13311D01*
X42500Y-13226D01*
X42535Y-13311D01*
X42689Y-13465D01*
X42891Y-13549D01*
X43109Y-13549D01*
X43311Y-13465D01*
X43465Y-13311D01*
X43549Y-13109D01*
X43549Y-29125D01*
X43426Y-29125D01*
X43288Y-29182D01*
X43183Y-29287D01*
X43125Y-29425D01*
X43125Y-29574D01*
X43182Y-29712D01*
X43287Y-29817D01*
X43425Y-29875D01*
X43574Y-29875D01*
X43712Y-29818D01*
X43817Y-29713D01*
X43875Y-29575D01*
X43875Y-30167D01*
X43775Y-30125D01*
X43626Y-30125D01*
X43488Y-30182D01*
X43383Y-30287D01*
X43325Y-30425D01*
X43325Y-30574D01*
X43382Y-30712D01*
X43487Y-30817D01*
X43625Y-30875D01*
X43774Y-30875D01*
X43912Y-30818D01*
X44017Y-30713D01*
X44075Y-30575D01*
X44075Y-31167D01*
X43975Y-31125D01*
X43826Y-31125D01*
X43688Y-31182D01*
X43583Y-31287D01*
X43533Y-31403D01*
X43532Y-31366D01*
X43472Y-31219D01*
X43378Y-31192D01*
X43308Y-31262D01*
X43308Y-31122D01*
X43281Y-31028D01*
X43079Y-30957D01*
X42866Y-30968D01*
X42719Y-31028D01*
X42692Y-31122D01*
X43000Y-31429D01*
X43308Y-31122D01*
X43308Y-31262D01*
X43071Y-31500D01*
X43378Y-31808D01*
X43472Y-31781D01*
X43535Y-31599D01*
X43582Y-31712D01*
X43687Y-31817D01*
X43825Y-31875D01*
X43974Y-31875D01*
X44112Y-31818D01*
X44217Y-31713D01*
X44275Y-31575D01*
X44275Y-32167D01*
X44175Y-32125D01*
X44026Y-32125D01*
X43888Y-32182D01*
X43783Y-32287D01*
X43725Y-32425D01*
X43725Y-32574D01*
X43782Y-32712D01*
X43887Y-32817D01*
X44025Y-32875D01*
X44174Y-32875D01*
X44312Y-32818D01*
X44417Y-32713D01*
X44475Y-32575D01*
X44475Y-33667D01*
X44375Y-33625D01*
X44226Y-33625D01*
X44088Y-33682D01*
X43983Y-33787D01*
X43925Y-33925D01*
X43925Y-34074D01*
X43982Y-34212D01*
X44087Y-34317D01*
X44225Y-34375D01*
X44374Y-34375D01*
X44512Y-34318D01*
X44617Y-34213D01*
X44675Y-34075D01*
X44675Y-34667D01*
X44575Y-34625D01*
X44426Y-34625D01*
X44288Y-34682D01*
X44183Y-34787D01*
X44125Y-34925D01*
X44125Y-35074D01*
X44182Y-35212D01*
X44287Y-35317D01*
X44425Y-35375D01*
X44574Y-35375D01*
X44712Y-35318D01*
X44817Y-35213D01*
X44875Y-35075D01*
X44875Y-35667D01*
X44775Y-35625D01*
X44626Y-35625D01*
X44488Y-35682D01*
X44383Y-35787D01*
X44325Y-35925D01*
X44325Y-36074D01*
X44382Y-36212D01*
X44487Y-36317D01*
X44625Y-36375D01*
X44774Y-36375D01*
X44912Y-36318D01*
X45000Y-36229D01*
X45035Y-36311D01*
X45189Y-36465D01*
X45273Y-36500D01*
X45189Y-36535D01*
X45035Y-36689D01*
X44951Y-36891D01*
X44951Y-37109D01*
X45035Y-37311D01*
X45189Y-37465D01*
X45391Y-37549D01*
X45609Y-37549D01*
X45811Y-37465D01*
X45965Y-37311D01*
X46000Y-37226D01*
X46035Y-37311D01*
X46189Y-37465D01*
X46391Y-37549D01*
X46609Y-37549D01*
X46811Y-37465D01*
X46965Y-37311D01*
X46999Y-37229D01*
X47049Y-37109D01*
X47049Y-37675D01*
X46999Y-37675D01*
X12050Y-37675D01*
X12050Y-36549D01*
X12349Y-36549D01*
X12441Y-36511D01*
X12511Y-36441D01*
X12549Y-36350D01*
X12549Y-36325D01*
X12689Y-36465D01*
X12891Y-36549D01*
X13109Y-36549D01*
X13311Y-36465D01*
X13465Y-36311D01*
X13500Y-36226D01*
X13535Y-36311D01*
X13689Y-36465D01*
X13891Y-36549D01*
X14109Y-36549D01*
X14311Y-36465D01*
X14465Y-36311D01*
X14500Y-36226D01*
X14535Y-36311D01*
X14689Y-36465D01*
X14891Y-36549D01*
X15109Y-36549D01*
X15311Y-36465D01*
X15465Y-36311D01*
X15500Y-36226D01*
X15535Y-36311D01*
X15689Y-36465D01*
X15891Y-36549D01*
X16109Y-36549D01*
X16311Y-36465D01*
X16465Y-36311D01*
X16500Y-36226D01*
X16535Y-36311D01*
X16689Y-36465D01*
X16891Y-36549D01*
X17109Y-36549D01*
X17311Y-36465D01*
X17465Y-36311D01*
X17500Y-36226D01*
X17535Y-36311D01*
X17689Y-36465D01*
X17891Y-36549D01*
X18109Y-36549D01*
X18311Y-36465D01*
X18465Y-36311D01*
X18500Y-36226D01*
X18535Y-36311D01*
X18689Y-36465D01*
X18891Y-36549D01*
X19109Y-36549D01*
X19311Y-36465D01*
X19465Y-36311D01*
X19500Y-36226D01*
X19535Y-36311D01*
X19689Y-36465D01*
X19891Y-36549D01*
X20109Y-36549D01*
X20311Y-36465D01*
X20465Y-36311D01*
X20500Y-36226D01*
X20535Y-36311D01*
X20689Y-36465D01*
X20891Y-36549D01*
X21109Y-36549D01*
X21311Y-36465D01*
X21465Y-36311D01*
X21500Y-36226D01*
X21535Y-36311D01*
X21689Y-36465D01*
X21891Y-36549D01*
X22109Y-36549D01*
X22311Y-36465D01*
X22465Y-36311D01*
X22500Y-36226D01*
X22535Y-36311D01*
X22689Y-36465D01*
X22891Y-36549D01*
X23109Y-36549D01*
X23311Y-36465D01*
X23465Y-36311D01*
X23500Y-36226D01*
X23535Y-36311D01*
X23689Y-36465D01*
X23891Y-36549D01*
X24109Y-36549D01*
X24311Y-36465D01*
X24465Y-36311D01*
X24500Y-36226D01*
X24535Y-36311D01*
X24689Y-36465D01*
X24891Y-36549D01*
X25109Y-36549D01*
X25311Y-36465D01*
X25465Y-36311D01*
X25500Y-36226D01*
X25535Y-36311D01*
X25689Y-36465D01*
X25891Y-36549D01*
X26109Y-36549D01*
X26311Y-36465D01*
X26465Y-36311D01*
X26500Y-36226D01*
X26535Y-36311D01*
X26689Y-36465D01*
X26891Y-36549D01*
X27109Y-36549D01*
X27311Y-36465D01*
X27465Y-36311D01*
X27500Y-36226D01*
X27535Y-36311D01*
X27689Y-36465D01*
X27891Y-36549D01*
X28109Y-36549D01*
X28311Y-36465D01*
X28465Y-36311D01*
X28500Y-36226D01*
X28535Y-36311D01*
X28689Y-36465D01*
X28891Y-36549D01*
X29109Y-36549D01*
X29311Y-36465D01*
X29465Y-36311D01*
X29500Y-36226D01*
X29535Y-36311D01*
X29689Y-36465D01*
X29891Y-36549D01*
X30109Y-36549D01*
X30311Y-36465D01*
X30465Y-36311D01*
X30500Y-36226D01*
X30535Y-36311D01*
X30689Y-36465D01*
X30891Y-36549D01*
X31109Y-36549D01*
X31311Y-36465D01*
X31465Y-36311D01*
X31500Y-36226D01*
X31535Y-36311D01*
X31689Y-36465D01*
X31891Y-36549D01*
X32109Y-36549D01*
X32311Y-36465D01*
X32465Y-36311D01*
X32500Y-36226D01*
X32535Y-36311D01*
X32689Y-36465D01*
X32891Y-36549D01*
X33109Y-36549D01*
X33311Y-36465D01*
X33465Y-36311D01*
X33500Y-36226D01*
X33535Y-36311D01*
X33689Y-36465D01*
X33891Y-36549D01*
X34109Y-36549D01*
X34311Y-36465D01*
X34465Y-36311D01*
X34500Y-36226D01*
X34535Y-36311D01*
X34689Y-36465D01*
X34891Y-36549D01*
X35109Y-36549D01*
X35311Y-36465D01*
X35465Y-36311D01*
X35500Y-36226D01*
X35535Y-36311D01*
X35689Y-36465D01*
X35891Y-36549D01*
X36109Y-36549D01*
X36311Y-36465D01*
X36465Y-36311D01*
X36500Y-36226D01*
X36535Y-36311D01*
X36689Y-36465D01*
X36891Y-36549D01*
X37109Y-36549D01*
X37311Y-36465D01*
X37465Y-36311D01*
X37500Y-36226D01*
X37535Y-36311D01*
X37689Y-36465D01*
X37891Y-36549D01*
X38109Y-36549D01*
X38311Y-36465D01*
X38465Y-36311D01*
X38500Y-36226D01*
X38535Y-36311D01*
X38689Y-36465D01*
X38891Y-36549D01*
X39109Y-36549D01*
X39311Y-36465D01*
X39465Y-36311D01*
X39500Y-36226D01*
X39535Y-36311D01*
X39689Y-36465D01*
X39891Y-36549D01*
X40109Y-36549D01*
X40311Y-36465D01*
X40465Y-36311D01*
X40500Y-36226D01*
X40535Y-36311D01*
X40689Y-36465D01*
X40891Y-36549D01*
X41109Y-36549D01*
X41311Y-36465D01*
X41465Y-36311D01*
X41500Y-36226D01*
X41535Y-36311D01*
X41689Y-36465D01*
X41891Y-36549D01*
X42109Y-36549D01*
X42311Y-36465D01*
X42465Y-36311D01*
X42500Y-36226D01*
X42535Y-36311D01*
X42689Y-36465D01*
X42891Y-36549D01*
X43109Y-36549D01*
X43311Y-36465D01*
X43465Y-36311D01*
X43549Y-36109D01*
X43549Y-35891D01*
X43543Y-35876D01*
X43543Y-35079D01*
X43532Y-34866D01*
X43472Y-34719D01*
X43378Y-34692D01*
X43308Y-34762D01*
X43308Y-34622D01*
X43281Y-34528D01*
X43079Y-34457D01*
X42866Y-34468D01*
X42719Y-34528D01*
X42692Y-34622D01*
X43000Y-34929D01*
X43308Y-34622D01*
X43308Y-34762D01*
X43071Y-35000D01*
X43378Y-35308D01*
X43472Y-35281D01*
X43543Y-35079D01*
X43543Y-35876D01*
X43465Y-35689D01*
X43311Y-35535D01*
X43219Y-35497D01*
X43281Y-35472D01*
X43308Y-35378D01*
X43000Y-35071D01*
X42692Y-35378D01*
X42719Y-35472D01*
X42784Y-35495D01*
X42689Y-35535D01*
X42535Y-35689D01*
X42500Y-35773D01*
X42465Y-35689D01*
X42311Y-35535D01*
X42226Y-35500D01*
X42311Y-35465D01*
X42465Y-35311D01*
X42502Y-35219D01*
X42528Y-35281D01*
X42622Y-35308D01*
X42929Y-35000D01*
X42622Y-34692D01*
X42528Y-34719D01*
X42504Y-34784D01*
X42465Y-34689D01*
X42311Y-34535D01*
X42109Y-34451D01*
X41891Y-34451D01*
X41689Y-34535D01*
X41535Y-34689D01*
X41500Y-34773D01*
X41465Y-34689D01*
X41311Y-34535D01*
X41109Y-34451D01*
X40891Y-34451D01*
X40689Y-34535D01*
X40535Y-34689D01*
X40500Y-34773D01*
X40465Y-34689D01*
X40311Y-34535D01*
X40109Y-34451D01*
X39891Y-34451D01*
X39689Y-34535D01*
X39535Y-34689D01*
X39500Y-34773D01*
X39465Y-34689D01*
X39311Y-34535D01*
X39109Y-34451D01*
X38891Y-34451D01*
X38689Y-34535D01*
X38535Y-34689D01*
X38500Y-34773D01*
X38465Y-34689D01*
X38311Y-34535D01*
X38109Y-34451D01*
X37891Y-34451D01*
X37689Y-34535D01*
X37535Y-34689D01*
X37500Y-34773D01*
X37465Y-34689D01*
X37311Y-34535D01*
X37109Y-34451D01*
X36891Y-34451D01*
X36689Y-34535D01*
X36535Y-34689D01*
X36500Y-34773D01*
X36465Y-34689D01*
X36311Y-34535D01*
X36109Y-34451D01*
X35891Y-34451D01*
X35689Y-34535D01*
X35535Y-34689D01*
X35500Y-34773D01*
X35465Y-34689D01*
X35311Y-34535D01*
X35109Y-34451D01*
X34891Y-34451D01*
X34689Y-34535D01*
X34535Y-34689D01*
X34500Y-34773D01*
X34465Y-34689D01*
X34311Y-34535D01*
X34109Y-34451D01*
X33891Y-34451D01*
X33689Y-34535D01*
X33535Y-34689D01*
X33500Y-34773D01*
X33465Y-34689D01*
X33311Y-34535D01*
X33109Y-34451D01*
X32891Y-34451D01*
X32689Y-34535D01*
X32535Y-34689D01*
X32500Y-34773D01*
X32465Y-34689D01*
X32311Y-34535D01*
X32109Y-34451D01*
X31891Y-34451D01*
X31689Y-34535D01*
X31535Y-34689D01*
X31500Y-34773D01*
X31465Y-34689D01*
X31311Y-34535D01*
X31109Y-34451D01*
X30891Y-34451D01*
X30689Y-34535D01*
X30535Y-34689D01*
X30500Y-34773D01*
X30465Y-34689D01*
X30311Y-34535D01*
X30109Y-34451D01*
X29891Y-34451D01*
X29689Y-34535D01*
X29535Y-34689D01*
X29500Y-34773D01*
X29465Y-34689D01*
X29311Y-34535D01*
X29109Y-34451D01*
X28891Y-34451D01*
X28689Y-34535D01*
X28535Y-34689D01*
X28500Y-34773D01*
X28465Y-34689D01*
X28311Y-34535D01*
X28109Y-34451D01*
X27891Y-34451D01*
X27689Y-34535D01*
X27535Y-34689D01*
X27500Y-34773D01*
X27465Y-34689D01*
X27311Y-34535D01*
X27109Y-34451D01*
X26891Y-34451D01*
X26689Y-34535D01*
X26535Y-34689D01*
X26500Y-34773D01*
X26465Y-34689D01*
X26311Y-34535D01*
X26109Y-34451D01*
X25891Y-34451D01*
X25689Y-34535D01*
X25535Y-34689D01*
X25500Y-34773D01*
X25465Y-34689D01*
X25311Y-34535D01*
X25109Y-34451D01*
X24891Y-34451D01*
X24689Y-34535D01*
X24535Y-34689D01*
X24500Y-34773D01*
X24465Y-34689D01*
X24311Y-34535D01*
X24109Y-34451D01*
X23891Y-34451D01*
X23689Y-34535D01*
X23535Y-34689D01*
X23500Y-34773D01*
X23465Y-34689D01*
X23311Y-34535D01*
X23109Y-34451D01*
X22891Y-34451D01*
X22689Y-34535D01*
X22535Y-34689D01*
X22500Y-34773D01*
X22465Y-34689D01*
X22311Y-34535D01*
X22109Y-34451D01*
X21891Y-34451D01*
X21689Y-34535D01*
X21535Y-34689D01*
X21500Y-34773D01*
X21465Y-34689D01*
X21311Y-34535D01*
X21109Y-34451D01*
X20891Y-34451D01*
X20689Y-34535D01*
X20535Y-34689D01*
X20500Y-34773D01*
X20465Y-34689D01*
X20311Y-34535D01*
X20109Y-34451D01*
X19891Y-34451D01*
X19689Y-34535D01*
X19535Y-34689D01*
X19500Y-34773D01*
X19465Y-34689D01*
X19311Y-34535D01*
X19109Y-34451D01*
X18891Y-34451D01*
X18689Y-34535D01*
X18535Y-34689D01*
X18500Y-34773D01*
X18465Y-34689D01*
X18311Y-34535D01*
X18109Y-34451D01*
X17891Y-34451D01*
X17689Y-34535D01*
X17535Y-34689D01*
X17500Y-34773D01*
X17465Y-34689D01*
X17311Y-34535D01*
X17109Y-34451D01*
X16891Y-34451D01*
X16689Y-34535D01*
X16535Y-34689D01*
X16500Y-34773D01*
X16465Y-34689D01*
X16311Y-34535D01*
X16109Y-34451D01*
X15891Y-34451D01*
X15689Y-34535D01*
X15535Y-34689D01*
X15500Y-34773D01*
X15465Y-34689D01*
X15311Y-34535D01*
X15109Y-34451D01*
X14891Y-34451D01*
X14689Y-34535D01*
X14535Y-34689D01*
X14500Y-34773D01*
X14465Y-34689D01*
X14311Y-34535D01*
X14109Y-34451D01*
X13891Y-34451D01*
X13689Y-34535D01*
X13535Y-34689D01*
X13500Y-34773D01*
X13465Y-34689D01*
X13311Y-34535D01*
X13109Y-34451D01*
X12891Y-34451D01*
X12689Y-34535D01*
X12535Y-34689D01*
X12500Y-34773D01*
X12465Y-34689D01*
X12311Y-34535D01*
X12109Y-34451D01*
X12050Y-34451D01*
X12050Y-33049D01*
X12349Y-33049D01*
X12441Y-33011D01*
X12511Y-32941D01*
X12549Y-32850D01*
X12549Y-32825D01*
X12689Y-32965D01*
X12891Y-33049D01*
X13109Y-33049D01*
X13311Y-32965D01*
X13465Y-32811D01*
X13500Y-32726D01*
X13535Y-32811D01*
X13689Y-32965D01*
X13891Y-33049D01*
X14109Y-33049D01*
X14311Y-32965D01*
X14465Y-32811D01*
X14500Y-32726D01*
X14535Y-32811D01*
X14689Y-32965D01*
X14891Y-33049D01*
X15109Y-33049D01*
X15311Y-32965D01*
X15465Y-32811D01*
X15500Y-32726D01*
X15535Y-32811D01*
X15689Y-32965D01*
X15891Y-33049D01*
X16109Y-33049D01*
X16311Y-32965D01*
X16465Y-32811D01*
X16500Y-32726D01*
X16535Y-32811D01*
X16689Y-32965D01*
X16891Y-33049D01*
X17109Y-33049D01*
X17311Y-32965D01*
X17465Y-32811D01*
X17500Y-32726D01*
X17535Y-32811D01*
X17689Y-32965D01*
X17891Y-33049D01*
X18109Y-33049D01*
X18311Y-32965D01*
X18465Y-32811D01*
X18500Y-32726D01*
X18535Y-32811D01*
X18689Y-32965D01*
X18891Y-33049D01*
X19109Y-33049D01*
X19311Y-32965D01*
X19465Y-32811D01*
X19500Y-32726D01*
X19535Y-32811D01*
X19689Y-32965D01*
X19891Y-33049D01*
X20109Y-33049D01*
X20311Y-32965D01*
X20465Y-32811D01*
X20500Y-32726D01*
X20535Y-32811D01*
X20689Y-32965D01*
X20891Y-33049D01*
X21109Y-33049D01*
X21311Y-32965D01*
X21465Y-32811D01*
X21500Y-32726D01*
X21535Y-32811D01*
X21689Y-32965D01*
X21891Y-33049D01*
X22109Y-33049D01*
X22311Y-32965D01*
X22465Y-32811D01*
X22500Y-32726D01*
X22535Y-32811D01*
X22689Y-32965D01*
X22891Y-33049D01*
X23109Y-33049D01*
X23311Y-32965D01*
X23465Y-32811D01*
X23500Y-32726D01*
X23535Y-32811D01*
X23689Y-32965D01*
X23891Y-33049D01*
X24109Y-33049D01*
X24311Y-32965D01*
X24465Y-32811D01*
X24500Y-32726D01*
X24535Y-32811D01*
X24689Y-32965D01*
X24891Y-33049D01*
X25109Y-33049D01*
X25311Y-32965D01*
X25465Y-32811D01*
X25500Y-32726D01*
X25535Y-32811D01*
X25689Y-32965D01*
X25891Y-33049D01*
X26109Y-33049D01*
X26311Y-32965D01*
X26465Y-32811D01*
X26500Y-32726D01*
X26535Y-32811D01*
X26689Y-32965D01*
X26891Y-33049D01*
X27109Y-33049D01*
X27311Y-32965D01*
X27465Y-32811D01*
X27500Y-32726D01*
X27535Y-32811D01*
X27689Y-32965D01*
X27891Y-33049D01*
X28109Y-33049D01*
X28311Y-32965D01*
X28465Y-32811D01*
X28500Y-32726D01*
X28535Y-32811D01*
X28689Y-32965D01*
X28891Y-33049D01*
X29109Y-33049D01*
X29311Y-32965D01*
X29465Y-32811D01*
X29500Y-32726D01*
X29535Y-32811D01*
X29689Y-32965D01*
X29891Y-33049D01*
X30109Y-33049D01*
X30311Y-32965D01*
X30465Y-32811D01*
X30500Y-32726D01*
X30535Y-32811D01*
X30689Y-32965D01*
X30891Y-33049D01*
X31109Y-33049D01*
X31311Y-32965D01*
X31465Y-32811D01*
X31500Y-32726D01*
X31535Y-32811D01*
X31689Y-32965D01*
X31891Y-33049D01*
X32109Y-33049D01*
X32311Y-32965D01*
X32465Y-32811D01*
X32500Y-32726D01*
X32535Y-32811D01*
X32689Y-32965D01*
X32891Y-33049D01*
X33109Y-33049D01*
X33311Y-32965D01*
X33465Y-32811D01*
X33500Y-32726D01*
X33535Y-32811D01*
X33689Y-32965D01*
X33891Y-33049D01*
X34109Y-33049D01*
X34311Y-32965D01*
X34465Y-32811D01*
X34500Y-32726D01*
X34535Y-32811D01*
X34689Y-32965D01*
X34891Y-33049D01*
X35109Y-33049D01*
X35311Y-32965D01*
X35465Y-32811D01*
X35500Y-32726D01*
X35535Y-32811D01*
X35689Y-32965D01*
X35891Y-33049D01*
X36109Y-33049D01*
X36311Y-32965D01*
X36465Y-32811D01*
X36500Y-32726D01*
X36535Y-32811D01*
X36689Y-32965D01*
X36891Y-33049D01*
X37109Y-33049D01*
X37311Y-32965D01*
X37465Y-32811D01*
X37500Y-32726D01*
X37535Y-32811D01*
X37689Y-32965D01*
X37891Y-33049D01*
X38109Y-33049D01*
X38311Y-32965D01*
X38465Y-32811D01*
X38500Y-32726D01*
X38535Y-32811D01*
X38689Y-32965D01*
X38891Y-33049D01*
X39109Y-33049D01*
X39311Y-32965D01*
X39465Y-32811D01*
X39500Y-32726D01*
X39535Y-32811D01*
X39689Y-32965D01*
X39891Y-33049D01*
X40109Y-33049D01*
X40311Y-32965D01*
X40465Y-32811D01*
X40500Y-32726D01*
X40535Y-32811D01*
X40689Y-32965D01*
X40891Y-33049D01*
X41109Y-33049D01*
X41311Y-32965D01*
X41465Y-32811D01*
X41500Y-32726D01*
X41535Y-32811D01*
X41689Y-32965D01*
X41891Y-33049D01*
X42109Y-33049D01*
X42311Y-32965D01*
X42465Y-32811D01*
X42500Y-32726D01*
X42535Y-32811D01*
X42689Y-32965D01*
X42891Y-33049D01*
X43109Y-33049D01*
X43311Y-32965D01*
X43465Y-32811D01*
X43549Y-32609D01*
X43549Y-32391D01*
X43465Y-32189D01*
X43311Y-32035D01*
X43219Y-31997D01*
X43281Y-31972D01*
X43308Y-31878D01*
X43000Y-31571D01*
X42692Y-31878D01*
X42719Y-31972D01*
X42784Y-31995D01*
X42689Y-32035D01*
X42535Y-32189D01*
X42500Y-32273D01*
X42465Y-32189D01*
X42311Y-32035D01*
X42226Y-32000D01*
X42311Y-31965D01*
X42465Y-31811D01*
X42502Y-31719D01*
X42528Y-31781D01*
X42622Y-31808D01*
X42929Y-31500D01*
X42622Y-31192D01*
X42528Y-31219D01*
X42504Y-31284D01*
X42465Y-31189D01*
X42311Y-31035D01*
X42109Y-30951D01*
X42100Y-30951D01*
X42100Y-25950D01*
X42100Y-25801D01*
X42043Y-25663D01*
X41938Y-25558D01*
X41800Y-25500D01*
X41651Y-25500D01*
X41513Y-25557D01*
X41408Y-25662D01*
X41350Y-25800D01*
X41350Y-25949D01*
X41407Y-26087D01*
X41512Y-26192D01*
X41650Y-26250D01*
X41799Y-26250D01*
X41937Y-26193D01*
X42042Y-26088D01*
X42100Y-25950D01*
X42100Y-30951D01*
X41891Y-30951D01*
X41689Y-31035D01*
X41535Y-31189D01*
X41500Y-31273D01*
X41465Y-31189D01*
X41311Y-31035D01*
X41109Y-30951D01*
X40891Y-30951D01*
X40700Y-31030D01*
X40700Y-25950D01*
X40700Y-25801D01*
X40643Y-25663D01*
X40538Y-25558D01*
X40400Y-25500D01*
X40251Y-25500D01*
X40113Y-25557D01*
X40008Y-25662D01*
X39950Y-25800D01*
X39950Y-25949D01*
X40007Y-26087D01*
X40112Y-26192D01*
X40250Y-26250D01*
X40399Y-26250D01*
X40537Y-26193D01*
X40642Y-26088D01*
X40700Y-25950D01*
X40700Y-31030D01*
X40689Y-31035D01*
X40535Y-31189D01*
X40500Y-31273D01*
X40465Y-31189D01*
X40311Y-31035D01*
X40109Y-30951D01*
X39891Y-30951D01*
X39689Y-31035D01*
X39575Y-31149D01*
X39575Y-26775D01*
X39575Y-26626D01*
X39518Y-26488D01*
X39413Y-26383D01*
X39275Y-26325D01*
X39126Y-26325D01*
X38988Y-26382D01*
X38883Y-26487D01*
X38825Y-26625D01*
X38825Y-26774D01*
X38882Y-26912D01*
X38987Y-27017D01*
X39125Y-27075D01*
X39274Y-27075D01*
X39412Y-27018D01*
X39517Y-26913D01*
X39575Y-26775D01*
X39575Y-31149D01*
X39535Y-31189D01*
X39500Y-31273D01*
X39465Y-31189D01*
X39311Y-31035D01*
X39109Y-30951D01*
X38891Y-30951D01*
X38689Y-31035D01*
X38535Y-31189D01*
X38500Y-31273D01*
X38465Y-31189D01*
X38311Y-31035D01*
X38109Y-30951D01*
X37891Y-30951D01*
X37689Y-31035D01*
X37535Y-31189D01*
X37500Y-31273D01*
X37465Y-31189D01*
X37311Y-31035D01*
X37109Y-30951D01*
X37075Y-30951D01*
X37075Y-27575D01*
X37075Y-27426D01*
X37075Y-26775D01*
X37075Y-26626D01*
X37049Y-26563D01*
X37049Y-22350D01*
X37049Y-22251D01*
X37049Y-21651D01*
X37011Y-21559D01*
X36941Y-21489D01*
X36850Y-21451D01*
X36751Y-21451D01*
X36375Y-21451D01*
X36375Y-20375D01*
X36375Y-20226D01*
X36375Y-14875D01*
X36375Y-14726D01*
X36318Y-14588D01*
X36213Y-14483D01*
X36075Y-14425D01*
X35926Y-14425D01*
X35788Y-14482D01*
X35683Y-14587D01*
X35625Y-14725D01*
X35625Y-14874D01*
X35682Y-15012D01*
X35787Y-15117D01*
X35925Y-15175D01*
X36074Y-15175D01*
X36212Y-15118D01*
X36317Y-15013D01*
X36375Y-14875D01*
X36375Y-20226D01*
X36318Y-20088D01*
X36213Y-19983D01*
X36075Y-19925D01*
X35926Y-19925D01*
X35788Y-19982D01*
X35683Y-20087D01*
X35625Y-20225D01*
X35625Y-20374D01*
X35682Y-20512D01*
X35787Y-20617D01*
X35925Y-20675D01*
X36074Y-20675D01*
X36212Y-20618D01*
X36317Y-20513D01*
X36375Y-20375D01*
X36375Y-21451D01*
X36151Y-21451D01*
X36059Y-21489D01*
X35989Y-21559D01*
X35951Y-21650D01*
X35951Y-21675D01*
X35811Y-21535D01*
X35609Y-21451D01*
X35391Y-21451D01*
X35189Y-21535D01*
X35035Y-21689D01*
X34951Y-21891D01*
X34951Y-22109D01*
X35035Y-22311D01*
X35189Y-22465D01*
X35391Y-22549D01*
X35609Y-22549D01*
X35811Y-22465D01*
X35951Y-22325D01*
X35951Y-22349D01*
X35989Y-22441D01*
X36059Y-22511D01*
X36150Y-22549D01*
X36249Y-22549D01*
X36849Y-22549D01*
X36941Y-22511D01*
X37011Y-22441D01*
X37049Y-22350D01*
X37049Y-26563D01*
X37018Y-26488D01*
X36913Y-26383D01*
X36775Y-26325D01*
X36626Y-26325D01*
X36488Y-26382D01*
X36383Y-26487D01*
X36325Y-26625D01*
X36325Y-26774D01*
X36382Y-26912D01*
X36487Y-27017D01*
X36625Y-27075D01*
X36774Y-27075D01*
X36912Y-27018D01*
X37017Y-26913D01*
X37075Y-26775D01*
X37075Y-27426D01*
X37018Y-27288D01*
X36913Y-27183D01*
X36775Y-27125D01*
X36626Y-27125D01*
X36488Y-27182D01*
X36383Y-27287D01*
X36325Y-27425D01*
X36325Y-27574D01*
X36382Y-27712D01*
X36487Y-27817D01*
X36625Y-27875D01*
X36774Y-27875D01*
X36912Y-27818D01*
X37017Y-27713D01*
X37075Y-27575D01*
X37075Y-30951D01*
X36891Y-30951D01*
X36689Y-31035D01*
X36535Y-31189D01*
X36500Y-31273D01*
X36465Y-31189D01*
X36311Y-31035D01*
X36109Y-30951D01*
X35891Y-30951D01*
X35689Y-31035D01*
X35535Y-31189D01*
X35500Y-31273D01*
X35465Y-31189D01*
X35311Y-31035D01*
X35109Y-30951D01*
X34891Y-30951D01*
X34689Y-31035D01*
X34575Y-31149D01*
X34575Y-17775D01*
X34575Y-17626D01*
X34518Y-17488D01*
X34413Y-17383D01*
X34275Y-17325D01*
X34126Y-17325D01*
X33988Y-17382D01*
X33883Y-17487D01*
X33825Y-17625D01*
X33825Y-17774D01*
X33882Y-17912D01*
X33987Y-18017D01*
X34125Y-18075D01*
X34274Y-18075D01*
X34412Y-18018D01*
X34517Y-17913D01*
X34575Y-17775D01*
X34575Y-31149D01*
X34535Y-31189D01*
X34500Y-31273D01*
X34465Y-31189D01*
X34311Y-31035D01*
X34109Y-30951D01*
X33891Y-30951D01*
X33689Y-31035D01*
X33535Y-31189D01*
X33500Y-31273D01*
X33465Y-31189D01*
X33311Y-31035D01*
X33109Y-30951D01*
X32891Y-30951D01*
X32689Y-31035D01*
X32535Y-31189D01*
X32500Y-31273D01*
X32465Y-31189D01*
X32311Y-31035D01*
X32109Y-30951D01*
X31891Y-30951D01*
X31689Y-31035D01*
X31535Y-31189D01*
X31500Y-31273D01*
X31465Y-31189D01*
X31311Y-31035D01*
X31109Y-30951D01*
X30891Y-30951D01*
X30689Y-31035D01*
X30535Y-31189D01*
X30500Y-31273D01*
X30465Y-31189D01*
X30311Y-31035D01*
X30109Y-30951D01*
X29891Y-30951D01*
X29689Y-31035D01*
X29535Y-31189D01*
X29500Y-31273D01*
X29465Y-31189D01*
X29311Y-31035D01*
X29109Y-30951D01*
X29075Y-30951D01*
X29075Y-18575D01*
X29075Y-18426D01*
X29075Y-16175D01*
X29075Y-16026D01*
X29018Y-15888D01*
X28913Y-15783D01*
X28775Y-15725D01*
X28626Y-15725D01*
X28488Y-15782D01*
X28383Y-15887D01*
X28367Y-15925D01*
X28326Y-15925D01*
X28275Y-15946D01*
X28275Y-15375D01*
X28275Y-15226D01*
X28218Y-15088D01*
X28113Y-14983D01*
X27975Y-14925D01*
X27826Y-14925D01*
X27688Y-14982D01*
X27583Y-15087D01*
X27525Y-15225D01*
X27525Y-15374D01*
X27582Y-15512D01*
X27687Y-15617D01*
X27825Y-15675D01*
X27974Y-15675D01*
X28112Y-15618D01*
X28217Y-15513D01*
X28275Y-15375D01*
X28275Y-15946D01*
X28188Y-15982D01*
X28083Y-16087D01*
X28067Y-16125D01*
X28026Y-16125D01*
X27888Y-16182D01*
X27783Y-16287D01*
X27767Y-16325D01*
X27726Y-16325D01*
X27588Y-16382D01*
X27483Y-16487D01*
X27425Y-16625D01*
X27425Y-16774D01*
X27482Y-16912D01*
X27587Y-17017D01*
X27725Y-17075D01*
X27874Y-17075D01*
X28012Y-17018D01*
X28117Y-16913D01*
X28132Y-16875D01*
X28174Y-16875D01*
X28312Y-16818D01*
X28417Y-16713D01*
X28432Y-16675D01*
X28474Y-16675D01*
X28612Y-16618D01*
X28717Y-16513D01*
X28732Y-16475D01*
X28774Y-16475D01*
X28912Y-16418D01*
X29017Y-16313D01*
X29075Y-16175D01*
X29075Y-18426D01*
X29018Y-18288D01*
X28913Y-18183D01*
X28775Y-18125D01*
X28626Y-18125D01*
X28488Y-18182D01*
X28383Y-18287D01*
X28367Y-18325D01*
X28326Y-18325D01*
X28188Y-18382D01*
X28083Y-18487D01*
X28067Y-18525D01*
X28026Y-18525D01*
X27888Y-18582D01*
X27783Y-18687D01*
X27767Y-18725D01*
X27726Y-18725D01*
X27588Y-18782D01*
X27483Y-18887D01*
X27425Y-19025D01*
X27425Y-19174D01*
X27482Y-19312D01*
X27587Y-19417D01*
X27725Y-19475D01*
X27874Y-19475D01*
X28012Y-19418D01*
X28117Y-19313D01*
X28132Y-19275D01*
X28174Y-19275D01*
X28312Y-19218D01*
X28417Y-19113D01*
X28432Y-19075D01*
X28474Y-19075D01*
X28612Y-19018D01*
X28717Y-18913D01*
X28732Y-18875D01*
X28774Y-18875D01*
X28912Y-18818D01*
X29017Y-18713D01*
X29075Y-18575D01*
X29075Y-30951D01*
X28891Y-30951D01*
X28689Y-31035D01*
X28535Y-31189D01*
X28500Y-31273D01*
X28465Y-31189D01*
X28313Y-31037D01*
X28362Y-31018D01*
X28467Y-30913D01*
X28525Y-30775D01*
X28525Y-30626D01*
X28468Y-30488D01*
X28363Y-30383D01*
X28225Y-30325D01*
X28076Y-30325D01*
X27938Y-30382D01*
X27833Y-30487D01*
X27775Y-30625D01*
X27775Y-30774D01*
X27832Y-30912D01*
X27876Y-30956D01*
X27689Y-31035D01*
X27535Y-31189D01*
X27500Y-31273D01*
X27465Y-31189D01*
X27311Y-31035D01*
X27109Y-30951D01*
X26891Y-30951D01*
X26689Y-31035D01*
X26535Y-31189D01*
X26500Y-31273D01*
X26475Y-31213D01*
X26475Y-14775D01*
X26475Y-14626D01*
X26422Y-14499D01*
X26475Y-14375D01*
X26475Y-14226D01*
X26418Y-14088D01*
X26313Y-13983D01*
X26175Y-13925D01*
X26026Y-13925D01*
X25888Y-13982D01*
X25783Y-14087D01*
X25725Y-14225D01*
X25725Y-14374D01*
X25777Y-14500D01*
X25725Y-14625D01*
X25725Y-14774D01*
X25782Y-14912D01*
X25887Y-15017D01*
X26025Y-15075D01*
X26174Y-15075D01*
X26312Y-15018D01*
X26417Y-14913D01*
X26475Y-14775D01*
X26475Y-31213D01*
X26465Y-31189D01*
X26311Y-31035D01*
X26109Y-30951D01*
X25975Y-30951D01*
X25975Y-18275D01*
X25975Y-18126D01*
X25918Y-17988D01*
X25813Y-17883D01*
X25675Y-17825D01*
X25526Y-17825D01*
X25475Y-17846D01*
X25475Y-16675D01*
X25475Y-16526D01*
X25418Y-16388D01*
X25313Y-16283D01*
X25175Y-16225D01*
X25026Y-16225D01*
X24899Y-16277D01*
X24775Y-16225D01*
X24626Y-16225D01*
X24488Y-16282D01*
X24383Y-16387D01*
X24325Y-16525D01*
X24325Y-16674D01*
X24382Y-16812D01*
X24487Y-16917D01*
X24625Y-16975D01*
X24774Y-16975D01*
X24900Y-16922D01*
X25025Y-16975D01*
X25174Y-16975D01*
X25312Y-16918D01*
X25417Y-16813D01*
X25475Y-16675D01*
X25475Y-17846D01*
X25388Y-17882D01*
X25283Y-17987D01*
X25225Y-18125D01*
X25225Y-18274D01*
X25282Y-18412D01*
X25387Y-18517D01*
X25525Y-18575D01*
X25674Y-18575D01*
X25812Y-18518D01*
X25917Y-18413D01*
X25975Y-18275D01*
X25975Y-30951D01*
X25891Y-30951D01*
X25875Y-30957D01*
X25875Y-26775D01*
X25875Y-26626D01*
X25822Y-26499D01*
X25875Y-26375D01*
X25875Y-26226D01*
X25822Y-26099D01*
X25875Y-25975D01*
X25875Y-25826D01*
X25822Y-25699D01*
X25875Y-25575D01*
X25875Y-25426D01*
X25822Y-25299D01*
X25875Y-25175D01*
X25875Y-25026D01*
X25875Y-21075D01*
X25875Y-20926D01*
X25818Y-20788D01*
X25713Y-20683D01*
X25575Y-20625D01*
X25426Y-20625D01*
X25288Y-20682D01*
X25183Y-20787D01*
X25125Y-20925D01*
X25125Y-21074D01*
X25182Y-21212D01*
X25287Y-21317D01*
X25425Y-21375D01*
X25574Y-21375D01*
X25712Y-21318D01*
X25817Y-21213D01*
X25875Y-21075D01*
X25875Y-25026D01*
X25818Y-24888D01*
X25713Y-24783D01*
X25575Y-24725D01*
X25426Y-24725D01*
X25375Y-24746D01*
X25375Y-24575D01*
X25375Y-24426D01*
X25318Y-24288D01*
X25213Y-24183D01*
X25175Y-24167D01*
X25175Y-24026D01*
X25122Y-23899D01*
X25175Y-23775D01*
X25175Y-23733D01*
X25212Y-23718D01*
X25317Y-23613D01*
X25375Y-23475D01*
X25375Y-23326D01*
X25318Y-23188D01*
X25213Y-23083D01*
X25075Y-23025D01*
X24926Y-23025D01*
X24788Y-23082D01*
X24683Y-23187D01*
X24625Y-23325D01*
X24625Y-23366D01*
X24588Y-23382D01*
X24483Y-23487D01*
X24425Y-23625D01*
X24425Y-23774D01*
X24477Y-23900D01*
X24425Y-24025D01*
X24425Y-24174D01*
X24482Y-24312D01*
X24587Y-24417D01*
X24625Y-24432D01*
X24625Y-24574D01*
X24682Y-24712D01*
X24787Y-24817D01*
X24925Y-24875D01*
X25074Y-24875D01*
X25212Y-24818D01*
X25317Y-24713D01*
X25375Y-24575D01*
X25375Y-24746D01*
X25288Y-24782D01*
X25183Y-24887D01*
X25125Y-25025D01*
X25125Y-25174D01*
X25177Y-25300D01*
X25125Y-25425D01*
X25125Y-25574D01*
X25177Y-25700D01*
X25125Y-25825D01*
X25125Y-25974D01*
X25177Y-26100D01*
X25125Y-26225D01*
X25125Y-26374D01*
X25177Y-26500D01*
X25125Y-26625D01*
X25125Y-26774D01*
X25182Y-26912D01*
X25287Y-27017D01*
X25425Y-27075D01*
X25574Y-27075D01*
X25712Y-27018D01*
X25817Y-26913D01*
X25875Y-26775D01*
X25875Y-30957D01*
X25689Y-31035D01*
X25535Y-31189D01*
X25500Y-31273D01*
X25465Y-31189D01*
X25311Y-31035D01*
X25109Y-30951D01*
X24891Y-30951D01*
X24689Y-31035D01*
X24535Y-31189D01*
X24500Y-31273D01*
X24465Y-31189D01*
X24311Y-31035D01*
X24109Y-30951D01*
X23979Y-30951D01*
X24017Y-30913D01*
X24075Y-30775D01*
X24075Y-30626D01*
X24018Y-30488D01*
X23913Y-30383D01*
X23775Y-30325D01*
X23675Y-30325D01*
X23675Y-17775D01*
X23675Y-17626D01*
X23622Y-17499D01*
X23675Y-17375D01*
X23675Y-17226D01*
X23618Y-17088D01*
X23513Y-16983D01*
X23375Y-16925D01*
X23333Y-16925D01*
X23322Y-16899D01*
X23332Y-16875D01*
X23374Y-16875D01*
X23512Y-16818D01*
X23617Y-16713D01*
X23675Y-16575D01*
X23675Y-16426D01*
X23618Y-16288D01*
X23513Y-16183D01*
X23375Y-16125D01*
X23226Y-16125D01*
X23088Y-16182D01*
X22983Y-16287D01*
X22967Y-16325D01*
X22926Y-16325D01*
X22788Y-16382D01*
X22683Y-16487D01*
X22625Y-16625D01*
X22625Y-16774D01*
X22677Y-16900D01*
X22625Y-17025D01*
X22625Y-17174D01*
X22682Y-17312D01*
X22787Y-17417D01*
X22925Y-17475D01*
X22966Y-17475D01*
X22977Y-17500D01*
X22967Y-17525D01*
X22926Y-17525D01*
X22788Y-17582D01*
X22700Y-17670D01*
X22613Y-17583D01*
X22475Y-17525D01*
X22326Y-17525D01*
X22188Y-17582D01*
X22083Y-17687D01*
X22025Y-17825D01*
X22025Y-17974D01*
X22077Y-18100D01*
X22025Y-18225D01*
X22025Y-18374D01*
X22082Y-18512D01*
X22187Y-18617D01*
X22325Y-18675D01*
X22474Y-18675D01*
X22612Y-18618D01*
X22717Y-18513D01*
X22732Y-18475D01*
X22774Y-18475D01*
X22912Y-18418D01*
X23017Y-18313D01*
X23032Y-18275D01*
X23074Y-18275D01*
X23212Y-18218D01*
X23317Y-18113D01*
X23332Y-18075D01*
X23374Y-18075D01*
X23512Y-18018D01*
X23617Y-17913D01*
X23675Y-17775D01*
X23675Y-30325D01*
X23674Y-30325D01*
X23618Y-30188D01*
X23513Y-30083D01*
X23375Y-30025D01*
X23275Y-30025D01*
X23275Y-28975D01*
X23275Y-28826D01*
X23218Y-28688D01*
X23113Y-28583D01*
X22975Y-28525D01*
X22826Y-28525D01*
X22688Y-28582D01*
X22583Y-28687D01*
X22525Y-28825D01*
X22525Y-28974D01*
X22582Y-29112D01*
X22687Y-29217D01*
X22825Y-29275D01*
X22974Y-29275D01*
X23112Y-29218D01*
X23217Y-29113D01*
X23275Y-28975D01*
X23275Y-30025D01*
X23226Y-30025D01*
X23088Y-30082D01*
X22983Y-30187D01*
X22925Y-30325D01*
X22925Y-30474D01*
X22982Y-30612D01*
X23087Y-30717D01*
X23225Y-30775D01*
X23325Y-30775D01*
X23382Y-30912D01*
X23487Y-31017D01*
X23625Y-31075D01*
X23649Y-31075D01*
X23535Y-31189D01*
X23500Y-31273D01*
X23465Y-31189D01*
X23311Y-31035D01*
X23109Y-30951D01*
X22891Y-30951D01*
X22689Y-31035D01*
X22535Y-31189D01*
X22500Y-31273D01*
X22465Y-31189D01*
X22311Y-31035D01*
X22275Y-31020D01*
X22275Y-23575D01*
X22275Y-23426D01*
X22218Y-23288D01*
X22113Y-23183D01*
X21975Y-23125D01*
X21826Y-23125D01*
X21699Y-23177D01*
X21575Y-23125D01*
X21426Y-23125D01*
X21288Y-23182D01*
X21183Y-23287D01*
X21125Y-23425D01*
X21125Y-23574D01*
X21177Y-23700D01*
X21125Y-23825D01*
X21125Y-23974D01*
X21177Y-24100D01*
X21125Y-24225D01*
X21125Y-24374D01*
X21177Y-24500D01*
X21125Y-24625D01*
X21125Y-24774D01*
X21177Y-24900D01*
X21125Y-25025D01*
X21125Y-25174D01*
X21177Y-25300D01*
X21125Y-25425D01*
X21125Y-25574D01*
X21177Y-25700D01*
X21125Y-25825D01*
X21125Y-25974D01*
X21182Y-26112D01*
X21287Y-26217D01*
X21425Y-26275D01*
X21574Y-26275D01*
X21712Y-26218D01*
X21817Y-26113D01*
X21875Y-25975D01*
X21875Y-25826D01*
X21822Y-25699D01*
X21875Y-25575D01*
X21875Y-25426D01*
X21822Y-25299D01*
X21875Y-25175D01*
X21875Y-25026D01*
X21822Y-24899D01*
X21875Y-24775D01*
X21875Y-24626D01*
X21822Y-24499D01*
X21875Y-24375D01*
X21875Y-24226D01*
X21822Y-24099D01*
X21875Y-23975D01*
X21875Y-23875D01*
X21974Y-23875D01*
X22112Y-23818D01*
X22217Y-23713D01*
X22275Y-23575D01*
X22275Y-31020D01*
X22109Y-30951D01*
X21891Y-30951D01*
X21689Y-31035D01*
X21535Y-31189D01*
X21500Y-31273D01*
X21465Y-31189D01*
X21375Y-31099D01*
X21375Y-30175D01*
X21375Y-30026D01*
X21318Y-29888D01*
X21213Y-29783D01*
X21084Y-29729D01*
X21112Y-29718D01*
X21217Y-29613D01*
X21275Y-29475D01*
X21275Y-29326D01*
X21222Y-29199D01*
X21275Y-29075D01*
X21275Y-28926D01*
X21218Y-28788D01*
X21113Y-28683D01*
X20975Y-28625D01*
X20826Y-28625D01*
X20775Y-28646D01*
X20775Y-19875D01*
X20775Y-19726D01*
X20718Y-19588D01*
X20613Y-19483D01*
X20575Y-19467D01*
X20575Y-19426D01*
X20518Y-19288D01*
X20413Y-19183D01*
X20375Y-19167D01*
X20375Y-19126D01*
X20318Y-18988D01*
X20213Y-18883D01*
X20175Y-18867D01*
X20175Y-18826D01*
X20118Y-18688D01*
X20013Y-18583D01*
X19975Y-18567D01*
X19975Y-18526D01*
X19918Y-18388D01*
X19813Y-18283D01*
X19775Y-18267D01*
X19775Y-18226D01*
X19718Y-18088D01*
X19613Y-17983D01*
X19575Y-17967D01*
X19575Y-17926D01*
X19518Y-17788D01*
X19413Y-17683D01*
X19375Y-17667D01*
X19375Y-17626D01*
X19318Y-17488D01*
X19213Y-17383D01*
X19075Y-17325D01*
X18926Y-17325D01*
X18788Y-17382D01*
X18683Y-17487D01*
X18625Y-17625D01*
X18625Y-17774D01*
X18682Y-17912D01*
X18787Y-18017D01*
X18825Y-18032D01*
X18825Y-18074D01*
X18882Y-18212D01*
X18987Y-18317D01*
X19025Y-18332D01*
X19025Y-18374D01*
X19082Y-18512D01*
X19187Y-18617D01*
X19225Y-18632D01*
X19225Y-18674D01*
X19282Y-18812D01*
X19387Y-18917D01*
X19425Y-18932D01*
X19425Y-18974D01*
X19482Y-19112D01*
X19587Y-19217D01*
X19625Y-19232D01*
X19625Y-19274D01*
X19682Y-19412D01*
X19787Y-19517D01*
X19825Y-19532D01*
X19825Y-19574D01*
X19882Y-19712D01*
X19987Y-19817D01*
X20025Y-19832D01*
X20025Y-19874D01*
X20082Y-20012D01*
X20187Y-20117D01*
X20325Y-20175D01*
X20474Y-20175D01*
X20612Y-20118D01*
X20717Y-20013D01*
X20775Y-19875D01*
X20775Y-28646D01*
X20688Y-28682D01*
X20583Y-28787D01*
X20525Y-28925D01*
X20525Y-29074D01*
X20577Y-29200D01*
X20525Y-29325D01*
X20525Y-29474D01*
X20582Y-29612D01*
X20687Y-29717D01*
X20815Y-29770D01*
X20788Y-29782D01*
X20683Y-29887D01*
X20625Y-30025D01*
X20625Y-30174D01*
X20682Y-30312D01*
X20787Y-30417D01*
X20925Y-30475D01*
X21074Y-30475D01*
X21212Y-30418D01*
X21317Y-30313D01*
X21375Y-30175D01*
X21375Y-31099D01*
X21311Y-31035D01*
X21109Y-30951D01*
X20891Y-30951D01*
X20689Y-31035D01*
X20535Y-31189D01*
X20500Y-31273D01*
X20465Y-31189D01*
X20311Y-31035D01*
X20109Y-30951D01*
X19891Y-30951D01*
X19689Y-31035D01*
X19535Y-31189D01*
X19500Y-31273D01*
X19465Y-31189D01*
X19311Y-31035D01*
X19109Y-30951D01*
X18975Y-30951D01*
X18975Y-20075D01*
X18975Y-19926D01*
X18918Y-19788D01*
X18813Y-19683D01*
X18675Y-19625D01*
X18526Y-19625D01*
X18399Y-19677D01*
X18275Y-19625D01*
X18126Y-19625D01*
X17999Y-19677D01*
X17875Y-19625D01*
X17726Y-19625D01*
X17599Y-19677D01*
X17475Y-19625D01*
X17433Y-19625D01*
X17418Y-19588D01*
X17313Y-19483D01*
X17175Y-19425D01*
X17026Y-19425D01*
X16888Y-19482D01*
X16783Y-19587D01*
X16767Y-19625D01*
X16726Y-19625D01*
X16588Y-19682D01*
X16483Y-19787D01*
X16425Y-19925D01*
X16425Y-20074D01*
X16482Y-20212D01*
X16587Y-20317D01*
X16725Y-20375D01*
X16874Y-20375D01*
X17012Y-20318D01*
X17100Y-20230D01*
X17187Y-20317D01*
X17325Y-20375D01*
X17474Y-20375D01*
X17600Y-20322D01*
X17725Y-20375D01*
X17874Y-20375D01*
X18000Y-20322D01*
X18125Y-20375D01*
X18274Y-20375D01*
X18400Y-20322D01*
X18525Y-20375D01*
X18674Y-20375D01*
X18812Y-20318D01*
X18917Y-20213D01*
X18975Y-20075D01*
X18975Y-30951D01*
X18891Y-30951D01*
X18689Y-31035D01*
X18535Y-31189D01*
X18500Y-31273D01*
X18465Y-31189D01*
X18311Y-31035D01*
X18275Y-31020D01*
X18275Y-26375D01*
X18275Y-26226D01*
X18222Y-26099D01*
X18275Y-25975D01*
X18275Y-25826D01*
X18222Y-25699D01*
X18275Y-25575D01*
X18275Y-25426D01*
X18218Y-25288D01*
X18113Y-25183D01*
X17975Y-25125D01*
X17853Y-25125D01*
X17875Y-25075D01*
X17875Y-24926D01*
X17818Y-24788D01*
X17713Y-24683D01*
X17575Y-24625D01*
X17426Y-24625D01*
X17288Y-24682D01*
X17265Y-24704D01*
X17218Y-24588D01*
X17113Y-24483D01*
X16975Y-24425D01*
X16826Y-24425D01*
X16688Y-24482D01*
X16583Y-24587D01*
X16525Y-24725D01*
X16525Y-24874D01*
X16582Y-25012D01*
X16687Y-25117D01*
X16803Y-25166D01*
X16783Y-25187D01*
X16725Y-25325D01*
X16725Y-25474D01*
X16782Y-25612D01*
X16887Y-25717D01*
X17025Y-25775D01*
X17174Y-25775D01*
X17300Y-25722D01*
X17425Y-25775D01*
X17546Y-25775D01*
X17525Y-25825D01*
X17525Y-25974D01*
X17577Y-26100D01*
X17525Y-26225D01*
X17525Y-26374D01*
X17582Y-26512D01*
X17687Y-26617D01*
X17825Y-26675D01*
X17974Y-26675D01*
X18112Y-26618D01*
X18217Y-26513D01*
X18275Y-26375D01*
X18275Y-31020D01*
X18109Y-30951D01*
X17891Y-30951D01*
X17689Y-31035D01*
X17535Y-31189D01*
X17500Y-31273D01*
X17465Y-31189D01*
X17311Y-31035D01*
X17109Y-30951D01*
X16891Y-30951D01*
X16689Y-31035D01*
X16535Y-31189D01*
X16500Y-31273D01*
X16465Y-31189D01*
X16311Y-31035D01*
X16308Y-31033D01*
X16308Y-13378D01*
X16000Y-13071D01*
X15692Y-13378D01*
X15719Y-13472D01*
X15921Y-13543D01*
X16134Y-13532D01*
X16281Y-13472D01*
X16308Y-13378D01*
X16308Y-31033D01*
X16109Y-30951D01*
X15891Y-30951D01*
X15689Y-31035D01*
X15535Y-31189D01*
X15500Y-31273D01*
X15465Y-31189D01*
X15311Y-31035D01*
X15109Y-30951D01*
X14891Y-30951D01*
X14875Y-30957D01*
X14875Y-16675D01*
X14875Y-16526D01*
X14818Y-16388D01*
X14713Y-16283D01*
X14575Y-16225D01*
X14426Y-16225D01*
X14288Y-16282D01*
X14183Y-16387D01*
X14125Y-16525D01*
X14125Y-16674D01*
X14182Y-16812D01*
X14287Y-16917D01*
X14315Y-16929D01*
X14188Y-16982D01*
X14083Y-17087D01*
X14025Y-17225D01*
X14025Y-17374D01*
X14082Y-17512D01*
X14187Y-17617D01*
X14325Y-17675D01*
X14474Y-17675D01*
X14612Y-17618D01*
X14717Y-17513D01*
X14775Y-17375D01*
X14775Y-17226D01*
X14718Y-17088D01*
X14613Y-16983D01*
X14584Y-16970D01*
X14712Y-16918D01*
X14817Y-16813D01*
X14875Y-16675D01*
X14875Y-30957D01*
X14775Y-30999D01*
X14775Y-25075D01*
X14775Y-24926D01*
X14718Y-24788D01*
X14613Y-24683D01*
X14475Y-24625D01*
X14326Y-24625D01*
X14188Y-24682D01*
X14083Y-24787D01*
X14025Y-24925D01*
X14025Y-25074D01*
X14082Y-25212D01*
X14187Y-25317D01*
X14325Y-25375D01*
X14474Y-25375D01*
X14612Y-25318D01*
X14717Y-25213D01*
X14775Y-25075D01*
X14775Y-30999D01*
X14689Y-31035D01*
X14535Y-31189D01*
X14500Y-31273D01*
X14465Y-31189D01*
X14311Y-31035D01*
X14109Y-30951D01*
X13891Y-30951D01*
X13689Y-31035D01*
X13535Y-31189D01*
X13500Y-31273D01*
X13465Y-31189D01*
X13311Y-31035D01*
X13109Y-30951D01*
X12891Y-30951D01*
X12689Y-31035D01*
X12535Y-31189D01*
X12500Y-31273D01*
X12465Y-31189D01*
X12311Y-31035D01*
X12109Y-30951D01*
X12050Y-30951D01*
X12050Y-29049D01*
X12109Y-29049D01*
X12311Y-28965D01*
X12465Y-28811D01*
X12549Y-28609D01*
X12549Y-28391D01*
X12465Y-28189D01*
X12311Y-28035D01*
X12226Y-28000D01*
X12311Y-27965D01*
X12465Y-27811D01*
X12549Y-27609D01*
X12549Y-27391D01*
X12465Y-27189D01*
X12311Y-27035D01*
X12226Y-27000D01*
X12311Y-26965D01*
X12465Y-26811D01*
X12549Y-26609D01*
X12549Y-26391D01*
X12465Y-26189D01*
X12311Y-26035D01*
X12226Y-26000D01*
X12311Y-25965D01*
X12465Y-25811D01*
X12549Y-25609D01*
X12549Y-25391D01*
X12465Y-25189D01*
X12311Y-25035D01*
X12109Y-24951D01*
X12050Y-24951D01*
X12050Y-24299D01*
X12109Y-24299D01*
X12311Y-24215D01*
X12465Y-24061D01*
X12549Y-23859D01*
X12549Y-23641D01*
X12465Y-23439D01*
X12311Y-23285D01*
X12226Y-23250D01*
X12311Y-23215D01*
X12465Y-23061D01*
X12549Y-22859D01*
X12549Y-22641D01*
X12465Y-22439D01*
X12311Y-22285D01*
X12226Y-22250D01*
X12311Y-22215D01*
X12465Y-22061D01*
X12549Y-21859D01*
X12549Y-21641D01*
X12465Y-21439D01*
X12311Y-21285D01*
X12226Y-21250D01*
X12311Y-21215D01*
X12465Y-21061D01*
X12549Y-20859D01*
X12549Y-20641D01*
X12465Y-20439D01*
X12311Y-20285D01*
X12109Y-20201D01*
X12050Y-20201D01*
X12050Y-19549D01*
X12109Y-19549D01*
X12311Y-19465D01*
X12465Y-19311D01*
X12549Y-19109D01*
X12549Y-18891D01*
X12465Y-18689D01*
X12311Y-18535D01*
X12226Y-18500D01*
X12311Y-18465D01*
X12465Y-18311D01*
X12549Y-18109D01*
X12549Y-17891D01*
X12465Y-17689D01*
X12311Y-17535D01*
X12226Y-17500D01*
X12311Y-17465D01*
X12465Y-17311D01*
X12549Y-17109D01*
X12549Y-16891D01*
X12465Y-16689D01*
X12311Y-16535D01*
X12226Y-16500D01*
X12311Y-16465D01*
X12465Y-16311D01*
X12549Y-16109D01*
X12549Y-15891D01*
X12465Y-15689D01*
X12311Y-15535D01*
X12109Y-15451D01*
X12050Y-15451D01*
X12050Y-13549D01*
X12109Y-13549D01*
X12311Y-13465D01*
X12465Y-13311D01*
X12500Y-13226D01*
X12535Y-13311D01*
X12689Y-13465D01*
X12891Y-13549D01*
X13109Y-13549D01*
X13311Y-13465D01*
X13465Y-13311D01*
X13500Y-13226D01*
X13535Y-13311D01*
X13689Y-13465D01*
X13891Y-13549D01*
X14109Y-13549D01*
X14311Y-13465D01*
X14465Y-13311D01*
X14500Y-13226D01*
X14535Y-13311D01*
X14689Y-13465D01*
X14891Y-13549D01*
X15109Y-13549D01*
X15311Y-13465D01*
X15465Y-13311D01*
X15502Y-13219D01*
X15528Y-13281D01*
X15622Y-13308D01*
X15929Y-13000D01*
X15622Y-12692D01*
X15528Y-12719D01*
X15504Y-12784D01*
X15465Y-12689D01*
X15311Y-12535D01*
X15226Y-12500D01*
X15311Y-12465D01*
X15465Y-12311D01*
X15502Y-12219D01*
X15528Y-12281D01*
X15622Y-12308D01*
X15929Y-12000D01*
X15622Y-11692D01*
X15528Y-11719D01*
X15504Y-11784D01*
X15465Y-11689D01*
X15311Y-11535D01*
X15109Y-11451D01*
X14891Y-11451D01*
X14689Y-11535D01*
X14535Y-11689D01*
X14500Y-11773D01*
X14465Y-11689D01*
X14311Y-11535D01*
X14109Y-11451D01*
X13891Y-11451D01*
X13689Y-11535D01*
X13535Y-11689D01*
X13500Y-11773D01*
X13465Y-11689D01*
X13311Y-11535D01*
X13109Y-11451D01*
X12891Y-11451D01*
X12689Y-11535D01*
X12535Y-11689D01*
X12500Y-11773D01*
X12465Y-11689D01*
X12311Y-11535D01*
X12109Y-11451D01*
X12050Y-11451D01*
X12050Y-10049D01*
X12109Y-10049D01*
X12311Y-09965D01*
X12465Y-09811D01*
X12500Y-09726D01*
X12535Y-09811D01*
X12689Y-09965D01*
X12891Y-10049D01*
X13109Y-10049D01*
X13311Y-09965D01*
X13465Y-09811D01*
X13500Y-09726D01*
X13535Y-09811D01*
X13689Y-09965D01*
X13891Y-10049D01*
X14109Y-10049D01*
X14311Y-09965D01*
X14465Y-09811D01*
X14500Y-09726D01*
X14535Y-09811D01*
X14689Y-09965D01*
X14891Y-10049D01*
X15109Y-10049D01*
X15311Y-09965D01*
X15465Y-09811D01*
X15502Y-09719D01*
X15528Y-09781D01*
X15622Y-09808D01*
X15929Y-09500D01*
X15622Y-09192D01*
X15528Y-09219D01*
X15504Y-09284D01*
X15465Y-09189D01*
X15311Y-09035D01*
X15226Y-09000D01*
X15311Y-08965D01*
X15465Y-08811D01*
X15502Y-08719D01*
X15528Y-08781D01*
X15622Y-08808D01*
X15929Y-08500D01*
X15622Y-08192D01*
X15528Y-08219D01*
X15504Y-08284D01*
X15465Y-08189D01*
X15311Y-08035D01*
X15109Y-07951D01*
X14891Y-07951D01*
X14689Y-08035D01*
X14535Y-08189D01*
X14500Y-08273D01*
X14465Y-08189D01*
X14311Y-08035D01*
X14109Y-07951D01*
X13891Y-07951D01*
X13689Y-08035D01*
X13535Y-08189D01*
X13500Y-08273D01*
X13465Y-08189D01*
X13311Y-08035D01*
X13109Y-07951D01*
X12891Y-07951D01*
X12689Y-08035D01*
X12535Y-08189D01*
X12500Y-08273D01*
X12465Y-08189D01*
X12311Y-08035D01*
X12109Y-07951D01*
X12050Y-07951D01*
X12050Y-06825D01*
X47175Y-06825D01*
X47175Y-37675D01*
M02*
