M48
;DRILL file {Pcbnew (2012-01-19 BZR 3256)-stable} date 14/09/2012 00:22:46
;FORMAT={-:-/ absolute / inch / decimal}
FMAT,2
INCH,TZ
T1C0.015
T2C0.032
T3C0.040
%
G90
G05
M72
T1
X1.390Y2.990
X1.440Y1.730
X1.440Y2.500
X1.450Y1.660
X1.510Y1.870
X1.680Y2.000
X1.690Y2.480
X1.710Y1.980
X1.710Y2.540
X1.740Y2.000
X1.750Y2.500
X1.750Y2.540
X1.780Y2.000
X1.790Y2.550
X1.790Y2.590
X1.790Y2.630
X1.820Y2.000
X1.860Y2.000
X1.870Y1.610
X1.900Y1.770
X1.920Y1.800
X1.940Y1.830
X1.960Y1.860
X1.980Y1.890
X2.000Y1.920
X2.020Y1.950
X2.040Y1.980
X2.080Y3.150
X2.090Y2.900
X2.090Y2.940
X2.100Y1.900
X2.150Y2.350
X2.150Y2.390
X2.150Y2.430
X2.150Y2.470
X2.150Y2.510
X2.150Y2.550
X2.150Y2.590
X2.190Y2.350
X2.240Y1.790
X2.240Y1.830
X2.270Y1.810
X2.280Y2.850
X2.300Y1.670
X2.300Y1.710
X2.300Y1.790
X2.330Y1.650
X2.330Y1.730
X2.330Y1.770
X2.340Y3.160
X2.420Y3.220
X2.470Y1.660
X2.480Y2.370
X2.480Y2.410
X2.500Y2.340
X2.500Y2.450
X2.510Y1.660
X2.550Y2.100
X2.550Y2.510
X2.550Y2.550
X2.550Y2.590
X2.550Y2.630
X2.550Y2.670
X2.560Y1.720
X2.560Y1.820
X2.610Y1.430
X2.610Y1.470
X2.610Y2.340
X2.780Y1.670
X2.780Y1.910
X2.790Y1.530
X2.810Y1.650
X2.810Y1.890
X2.820Y3.220
X2.840Y1.630
X2.840Y1.870
X2.870Y1.610
X2.870Y1.850
X3.240Y1.550
X3.420Y1.730
X3.420Y1.770
X3.600Y1.480
X3.600Y2.030
X3.920Y2.830
X4.032Y2.563
X4.040Y3.010
X4.170Y2.650
X4.173Y2.563
X4.190Y1.180
X4.210Y2.840
X4.250Y2.070
X4.330Y3.100
X4.350Y2.950
X4.370Y3.050
X4.390Y3.150
X4.410Y3.250
X4.430Y3.400
X4.450Y3.500
X4.470Y3.600
T2
X1.200Y1.000
X1.200Y1.100
X1.200Y3.300
X1.200Y3.400
X1.300Y1.000
X1.300Y1.100
X1.300Y3.300
X1.300Y3.400
X1.400Y1.000
X1.400Y1.100
X1.400Y3.300
X1.400Y3.400
X1.500Y1.000
X1.500Y1.100
X1.500Y3.300
X1.500Y3.400
X1.600Y1.000
X1.600Y1.100
X1.600Y3.300
X1.600Y3.400
X1.700Y1.000
X1.700Y1.100
X1.700Y3.300
X1.700Y3.400
X1.800Y1.000
X1.800Y1.100
X1.800Y3.300
X1.800Y3.400
X1.900Y1.000
X1.900Y1.100
X1.900Y3.300
X1.900Y3.400
X2.000Y1.000
X2.000Y1.100
X2.000Y3.300
X2.000Y3.400
X2.100Y1.000
X2.100Y1.100
X2.100Y3.300
X2.100Y3.400
X2.200Y1.000
X2.200Y1.100
X2.200Y3.300
X2.200Y3.400
X2.300Y1.000
X2.300Y1.100
X2.300Y3.300
X2.300Y3.400
X2.400Y1.000
X2.400Y1.100
X2.400Y3.300
X2.400Y3.400
X2.500Y1.000
X2.500Y1.100
X2.500Y3.300
X2.500Y3.400
X2.600Y1.000
X2.600Y1.100
X2.600Y3.300
X2.600Y3.400
X2.700Y1.000
X2.700Y1.100
X2.700Y3.300
X2.700Y3.400
X2.800Y1.000
X2.800Y1.100
X2.800Y3.300
X2.800Y3.400
X2.900Y1.000
X2.900Y1.100
X2.900Y3.300
X2.900Y3.400
X3.000Y1.000
X3.000Y1.100
X3.000Y3.300
X3.000Y3.400
X3.100Y1.000
X3.100Y1.100
X3.100Y3.300
X3.100Y3.400
X3.200Y1.000
X3.200Y1.100
X3.200Y3.300
X3.200Y3.400
X3.300Y1.000
X3.300Y1.100
X3.300Y3.300
X3.300Y3.400
X3.400Y1.000
X3.400Y1.100
X3.400Y3.300
X3.400Y3.400
X3.500Y1.000
X3.500Y1.100
X3.500Y3.300
X3.500Y3.400
X3.600Y1.000
X3.600Y1.100
X3.600Y3.300
X3.600Y3.400
X3.700Y1.000
X3.700Y1.100
X3.700Y3.300
X3.700Y3.400
X3.800Y1.000
X3.800Y1.100
X3.800Y3.300
X3.800Y3.400
X3.900Y1.000
X3.900Y1.100
X3.900Y3.300
X3.900Y3.400
X4.000Y1.000
X4.000Y1.100
X4.000Y3.300
X4.000Y3.400
X4.100Y1.000
X4.100Y1.100
X4.100Y3.300
X4.100Y3.400
X4.200Y1.000
X4.200Y1.100
X4.200Y3.300
X4.200Y3.400
X4.300Y1.000
X4.300Y1.100
X4.300Y3.300
X4.300Y3.400
T3
X1.100Y1.575
X1.100Y1.675
X1.100Y1.775
X1.100Y1.875
X1.100Y2.050
X1.100Y2.150
X1.100Y2.250
X1.100Y2.350
X1.100Y2.525
X1.100Y2.625
X1.100Y2.725
X1.100Y2.825
X1.200Y1.575
X1.200Y1.675
X1.200Y1.775
X1.200Y1.875
X1.200Y2.050
X1.200Y2.150
X1.200Y2.250
X1.200Y2.350
X1.200Y2.525
X1.200Y2.625
X1.200Y2.725
X1.200Y2.825
X3.550Y2.200
X3.650Y2.200
X4.550Y0.700
X4.550Y0.800
X4.550Y0.900
X4.550Y1.000
X4.550Y1.150
X4.550Y1.250
X4.550Y1.350
X4.550Y1.450
X4.550Y1.600
X4.550Y1.700
X4.550Y1.800
X4.550Y1.900
X4.550Y2.000
X4.550Y2.100
X4.550Y2.950
X4.550Y3.050
X4.550Y3.150
X4.550Y3.250
X4.550Y3.400
X4.550Y3.500
X4.550Y3.600
X4.550Y3.700
X4.650Y0.700
X4.650Y0.800
X4.650Y0.900
X4.650Y1.000
X4.650Y1.150
X4.650Y1.250
X4.650Y1.350
X4.650Y1.450
X4.650Y1.600
X4.650Y1.700
X4.650Y1.800
X4.650Y1.900
X4.650Y2.000
X4.650Y2.100
X4.650Y2.950
X4.650Y3.050
X4.650Y3.150
X4.650Y3.250
X4.650Y3.400
X4.650Y3.500
X4.650Y3.600
X4.650Y3.700
T0
M30
