G04 (created by PCBNEW-RS274X (2012-01-19 BZR 3256)-stable) date 13/09/2012 22:37:39*
G01*
G70*
G90*
%MOIN*%
G04 Gerber Fmt 3.4, Leading zero omitted, Abs format*
%FSLAX34Y34*%
G04 APERTURE LIST*
%ADD10C,0.006000*%
%ADD11R,0.060000X0.060000*%
%ADD12C,0.060000*%
%ADD13C,0.025000*%
%ADD14C,0.008000*%
%ADD15C,0.020000*%
%ADD16C,0.010000*%
G04 APERTURE END LIST*
G54D10*
G54D11*
X45500Y-16000D03*
G54D12*
X46500Y-16000D03*
X45500Y-17000D03*
X46500Y-17000D03*
X45500Y-18000D03*
X46500Y-18000D03*
X45500Y-19000D03*
X46500Y-19000D03*
X45500Y-20000D03*
X46500Y-20000D03*
X45500Y-21000D03*
X46500Y-21000D03*
G54D11*
X45500Y-11500D03*
G54D12*
X46500Y-11500D03*
X45500Y-12500D03*
X46500Y-12500D03*
X45500Y-13500D03*
X46500Y-13500D03*
X45500Y-14500D03*
X46500Y-14500D03*
G54D11*
X45500Y-07000D03*
G54D12*
X46500Y-07000D03*
X45500Y-08000D03*
X46500Y-08000D03*
X45500Y-09000D03*
X46500Y-09000D03*
X45500Y-10000D03*
X46500Y-10000D03*
G54D11*
X11000Y-25250D03*
G54D12*
X12000Y-25250D03*
X11000Y-26250D03*
X12000Y-26250D03*
X11000Y-27250D03*
X12000Y-27250D03*
X11000Y-28250D03*
X12000Y-28250D03*
G54D11*
X11000Y-20500D03*
G54D12*
X12000Y-20500D03*
X11000Y-21500D03*
X12000Y-21500D03*
X11000Y-22500D03*
X12000Y-22500D03*
X11000Y-23500D03*
X12000Y-23500D03*
G54D11*
X11000Y-15750D03*
G54D12*
X12000Y-15750D03*
X11000Y-16750D03*
X12000Y-16750D03*
X11000Y-17750D03*
X12000Y-17750D03*
X11000Y-18750D03*
X12000Y-18750D03*
G54D11*
X45500Y-34000D03*
G54D12*
X46500Y-34000D03*
X45500Y-35000D03*
X46500Y-35000D03*
X45500Y-36000D03*
X46500Y-36000D03*
X45500Y-37000D03*
X46500Y-37000D03*
G54D11*
X45500Y-29500D03*
G54D12*
X46500Y-29500D03*
X45500Y-30500D03*
X46500Y-30500D03*
X45500Y-31500D03*
X46500Y-31500D03*
X45500Y-32500D03*
X46500Y-32500D03*
G54D11*
X36500Y-22000D03*
G54D12*
X35500Y-22000D03*
G54D11*
X43000Y-10000D03*
G54D12*
X43000Y-11000D03*
X42000Y-10000D03*
X42000Y-11000D03*
X41000Y-10000D03*
X41000Y-11000D03*
X40000Y-10000D03*
X40000Y-11000D03*
X39000Y-10000D03*
X39000Y-11000D03*
X38000Y-10000D03*
X38000Y-11000D03*
X37000Y-10000D03*
X37000Y-11000D03*
X36000Y-10000D03*
X36000Y-11000D03*
X35000Y-10000D03*
X35000Y-11000D03*
X34000Y-10000D03*
X34000Y-11000D03*
X33000Y-10000D03*
X33000Y-11000D03*
X32000Y-10000D03*
X32000Y-11000D03*
X31000Y-10000D03*
X31000Y-11000D03*
X30000Y-10000D03*
X30000Y-11000D03*
X29000Y-10000D03*
X29000Y-11000D03*
X28000Y-10000D03*
X28000Y-11000D03*
X27000Y-10000D03*
X27000Y-11000D03*
X26000Y-10000D03*
X26000Y-11000D03*
X25000Y-10000D03*
X25000Y-11000D03*
X24000Y-10000D03*
X24000Y-11000D03*
X23000Y-10000D03*
X23000Y-11000D03*
X22000Y-10000D03*
X22000Y-11000D03*
X21000Y-10000D03*
X21000Y-11000D03*
X20000Y-10000D03*
X20000Y-11000D03*
X19000Y-10000D03*
X19000Y-11000D03*
X18000Y-10000D03*
X18000Y-11000D03*
X17000Y-10000D03*
X17000Y-11000D03*
X16000Y-10000D03*
X16000Y-11000D03*
X15000Y-10000D03*
X15000Y-11000D03*
X14000Y-10000D03*
X14000Y-11000D03*
X13000Y-10000D03*
X13000Y-11000D03*
X12000Y-10000D03*
X12000Y-11000D03*
G54D11*
X12000Y-34000D03*
G54D12*
X12000Y-33000D03*
X13000Y-34000D03*
X13000Y-33000D03*
X14000Y-34000D03*
X14000Y-33000D03*
X15000Y-34000D03*
X15000Y-33000D03*
X16000Y-34000D03*
X16000Y-33000D03*
X17000Y-34000D03*
X17000Y-33000D03*
X18000Y-34000D03*
X18000Y-33000D03*
X19000Y-34000D03*
X19000Y-33000D03*
X20000Y-34000D03*
X20000Y-33000D03*
X21000Y-34000D03*
X21000Y-33000D03*
X22000Y-34000D03*
X22000Y-33000D03*
X23000Y-34000D03*
X23000Y-33000D03*
X24000Y-34000D03*
X24000Y-33000D03*
X25000Y-34000D03*
X25000Y-33000D03*
X26000Y-34000D03*
X26000Y-33000D03*
X27000Y-34000D03*
X27000Y-33000D03*
X28000Y-34000D03*
X28000Y-33000D03*
X29000Y-34000D03*
X29000Y-33000D03*
X30000Y-34000D03*
X30000Y-33000D03*
X31000Y-34000D03*
X31000Y-33000D03*
X32000Y-34000D03*
X32000Y-33000D03*
X33000Y-34000D03*
X33000Y-33000D03*
X34000Y-34000D03*
X34000Y-33000D03*
X35000Y-34000D03*
X35000Y-33000D03*
X36000Y-34000D03*
X36000Y-33000D03*
X37000Y-34000D03*
X37000Y-33000D03*
X38000Y-34000D03*
X38000Y-33000D03*
X39000Y-34000D03*
X39000Y-33000D03*
X40000Y-34000D03*
X40000Y-33000D03*
X41000Y-34000D03*
X41000Y-33000D03*
X42000Y-34000D03*
X42000Y-33000D03*
X43000Y-34000D03*
X43000Y-33000D03*
G54D13*
X40400Y-30100D03*
X43300Y-31000D03*
X20900Y-29400D03*
X16800Y-20000D03*
X20800Y-31500D03*
X17100Y-19800D03*
X17900Y-26300D03*
X17400Y-20000D03*
X17800Y-20000D03*
X17900Y-25900D03*
X18200Y-20000D03*
X17900Y-25500D03*
X17500Y-25000D03*
X17500Y-25400D03*
X28700Y-16100D03*
X21500Y-25900D03*
X19000Y-17700D03*
X21500Y-25500D03*
X19200Y-18000D03*
X28400Y-16300D03*
X25500Y-25500D03*
X23000Y-17900D03*
X25500Y-25100D03*
X23300Y-17700D03*
X25000Y-24500D03*
X23300Y-17300D03*
X23000Y-17100D03*
X24800Y-24100D03*
X24800Y-23700D03*
X23000Y-16700D03*
X23300Y-16500D03*
X25000Y-23400D03*
X21500Y-25100D03*
X19400Y-18300D03*
X28100Y-16500D03*
X19600Y-18600D03*
X27800Y-16700D03*
X21500Y-24700D03*
X19800Y-18900D03*
X28700Y-18500D03*
X21500Y-24300D03*
X20000Y-19200D03*
X28400Y-18700D03*
X21500Y-23900D03*
X28100Y-18900D03*
X20200Y-19500D03*
X21500Y-23500D03*
X27800Y-19100D03*
X21900Y-23500D03*
X20400Y-19800D03*
X25500Y-26300D03*
X22400Y-18300D03*
X25500Y-25900D03*
X22700Y-18100D03*
X27900Y-15300D03*
X26100Y-14300D03*
X24700Y-16600D03*
X25500Y-26700D03*
X28200Y-32200D03*
X22400Y-17900D03*
X20900Y-29000D03*
X25100Y-16600D03*
X22800Y-28500D03*
X17100Y-25400D03*
X24200Y-32200D03*
X16900Y-24800D03*
X26100Y-14700D03*
X18600Y-20000D03*
X14500Y-16600D03*
X41900Y-11800D03*
X44700Y-36000D03*
X44500Y-35000D03*
X44300Y-34000D03*
X43900Y-31500D03*
X43700Y-30500D03*
X44100Y-32500D03*
X43500Y-29500D03*
X40325Y-25625D03*
X41725Y-25625D03*
X41700Y-26500D03*
X21000Y-19000D03*
X42500Y-20700D03*
X23400Y-31600D03*
X25600Y-17200D03*
X26100Y-23400D03*
X13900Y-29900D03*
X32400Y-15500D03*
X18700Y-16100D03*
X34200Y-17300D03*
X15100Y-18700D03*
X42100Y-28400D03*
X34200Y-17700D03*
X39200Y-28300D03*
X14400Y-17300D03*
X14400Y-25000D03*
X25500Y-21000D03*
X36000Y-20300D03*
X36000Y-14800D03*
X25600Y-18200D03*
G54D14*
X36500Y-32800D02*
X34700Y-31000D01*
X37000Y-34000D02*
X36500Y-33500D01*
X36500Y-33500D02*
X36500Y-32800D01*
X12000Y-28250D02*
X13850Y-28250D01*
X13850Y-28250D02*
X16600Y-31000D01*
X34700Y-31000D02*
X16600Y-31000D01*
X16700Y-30800D02*
X34800Y-30800D01*
X13150Y-27250D02*
X16700Y-30800D01*
X12000Y-27250D02*
X13150Y-27250D01*
X34800Y-30800D02*
X37000Y-33000D01*
X37500Y-33500D02*
X38000Y-34000D01*
X35300Y-30600D02*
X37500Y-32800D01*
X37500Y-32800D02*
X37500Y-33500D01*
X12000Y-26250D02*
X12450Y-26250D01*
X12450Y-26250D02*
X16800Y-30600D01*
X16800Y-30600D02*
X35300Y-30600D01*
X12000Y-25250D02*
X12000Y-25500D01*
X35400Y-30400D02*
X16900Y-30400D01*
X35400Y-30400D02*
X38000Y-33000D01*
X12000Y-25500D02*
X16900Y-30400D01*
X40500Y-34200D02*
X40200Y-34500D01*
X40500Y-32800D02*
X40500Y-34200D01*
X40200Y-34500D02*
X35500Y-34500D01*
X35500Y-34500D02*
X35000Y-34000D01*
X22800Y-28500D02*
X24100Y-29800D01*
X24100Y-29800D02*
X37500Y-29800D01*
X37500Y-29800D02*
X40500Y-32800D01*
X17000Y-30200D02*
X36900Y-30200D01*
X39500Y-33500D02*
X40000Y-34000D01*
X39500Y-32800D02*
X39500Y-33500D01*
X36900Y-30200D02*
X39500Y-32800D01*
X12500Y-25700D02*
X17000Y-30200D01*
X12500Y-25700D02*
X12500Y-17250D01*
X12500Y-17250D02*
X12000Y-16750D01*
X17100Y-30000D02*
X37000Y-30000D01*
X37000Y-30000D02*
X40000Y-33000D01*
X12700Y-25600D02*
X12700Y-16450D01*
X12700Y-16450D02*
X12000Y-15750D01*
X12700Y-25600D02*
X17100Y-30000D01*
X44800Y-14200D02*
X44800Y-35900D01*
X44800Y-35900D02*
X44700Y-36000D01*
X45500Y-13500D02*
X44800Y-14200D01*
X45500Y-12500D02*
X44600Y-13400D01*
X44600Y-34900D02*
X44500Y-35000D01*
X44600Y-13400D02*
X44600Y-34900D01*
X45500Y-14500D02*
X45000Y-15000D01*
X45000Y-36500D02*
X45500Y-37000D01*
X45000Y-15000D02*
X45000Y-36500D01*
X44400Y-12600D02*
X44400Y-33900D01*
X45500Y-11500D02*
X44400Y-12600D01*
X44400Y-33900D02*
X44300Y-34000D01*
X44000Y-31400D02*
X43900Y-31500D01*
X45500Y-09000D02*
X44000Y-10500D01*
X44000Y-10500D02*
X44000Y-31400D01*
X43700Y-30500D02*
X43800Y-30400D01*
X43800Y-30400D02*
X43800Y-09700D01*
X43800Y-09700D02*
X45500Y-08000D01*
X44200Y-32400D02*
X44100Y-32500D01*
X45500Y-10000D02*
X44200Y-11300D01*
X44200Y-11300D02*
X44200Y-32400D01*
X43600Y-29400D02*
X43600Y-08900D01*
X43500Y-29500D02*
X43600Y-29400D01*
X43600Y-08900D02*
X45500Y-07000D01*
G54D15*
X43600Y-33400D02*
X43000Y-34000D01*
X14400Y-25000D02*
X17800Y-21600D01*
X36000Y-20300D02*
X36000Y-14800D01*
X22200Y-21600D02*
X25600Y-18200D01*
X43600Y-32700D02*
X43600Y-33400D01*
X39200Y-28300D02*
X43600Y-32700D01*
X34200Y-18500D02*
X36000Y-20300D01*
X34200Y-17700D02*
X34200Y-18500D01*
X26100Y-17700D02*
X25600Y-18200D01*
X25600Y-20900D02*
X25600Y-18200D01*
X14400Y-25000D02*
X14400Y-17300D01*
X17800Y-21600D02*
X22200Y-21600D01*
X22000Y-14500D02*
X25600Y-18100D01*
X22000Y-11000D02*
X22000Y-14500D01*
X25600Y-18100D02*
X25600Y-18200D01*
X34200Y-17700D02*
X26100Y-17700D01*
X25500Y-21000D02*
X25600Y-20900D01*
G54D10*
G36*
X47175Y-37675D02*
X47049Y-37675D01*
X47049Y-37109D01*
X47049Y-36891D01*
X46999Y-36770D01*
X46965Y-36689D01*
X46811Y-36535D01*
X46726Y-36500D01*
X46811Y-36465D01*
X46965Y-36311D01*
X46999Y-36229D01*
X47049Y-36109D01*
X47049Y-35891D01*
X46999Y-35770D01*
X46965Y-35689D01*
X46811Y-35535D01*
X46726Y-35500D01*
X46811Y-35465D01*
X46965Y-35311D01*
X46999Y-35229D01*
X47049Y-35109D01*
X47049Y-34891D01*
X46999Y-34770D01*
X46965Y-34689D01*
X46811Y-34535D01*
X46726Y-34500D01*
X46811Y-34465D01*
X46965Y-34311D01*
X46999Y-34229D01*
X47049Y-34109D01*
X47049Y-33891D01*
X46999Y-33770D01*
X46965Y-33689D01*
X46811Y-33535D01*
X46609Y-33451D01*
X46391Y-33451D01*
X46189Y-33535D01*
X46049Y-33675D01*
X46049Y-33651D01*
X46011Y-33559D01*
X45941Y-33489D01*
X45850Y-33451D01*
X45751Y-33451D01*
X45290Y-33451D01*
X45290Y-33007D01*
X45391Y-33049D01*
X45609Y-33049D01*
X45811Y-32965D01*
X45965Y-32811D01*
X46000Y-32726D01*
X46035Y-32811D01*
X46189Y-32965D01*
X46391Y-33049D01*
X46609Y-33049D01*
X46811Y-32965D01*
X46965Y-32811D01*
X46999Y-32729D01*
X47049Y-32609D01*
X47049Y-32391D01*
X46999Y-32270D01*
X46965Y-32189D01*
X46811Y-32035D01*
X46726Y-32000D01*
X46811Y-31965D01*
X46965Y-31811D01*
X46999Y-31729D01*
X47049Y-31609D01*
X47049Y-31391D01*
X46999Y-31270D01*
X46965Y-31189D01*
X46811Y-31035D01*
X46726Y-31000D01*
X46811Y-30965D01*
X46965Y-30811D01*
X46999Y-30729D01*
X47049Y-30609D01*
X47049Y-30391D01*
X46999Y-30270D01*
X46965Y-30189D01*
X46811Y-30035D01*
X46726Y-30000D01*
X46811Y-29965D01*
X46965Y-29811D01*
X46999Y-29729D01*
X47049Y-29609D01*
X47049Y-29391D01*
X46999Y-29270D01*
X46999Y-27550D01*
X46999Y-26848D01*
X46999Y-24400D01*
X46999Y-23698D01*
X46293Y-23698D01*
X46293Y-24400D01*
X46999Y-24400D01*
X46999Y-26848D01*
X46293Y-26848D01*
X46293Y-27550D01*
X46999Y-27550D01*
X46999Y-29270D01*
X46965Y-29189D01*
X46811Y-29035D01*
X46609Y-28951D01*
X46391Y-28951D01*
X46189Y-29035D01*
X46049Y-29175D01*
X46049Y-29151D01*
X46011Y-29059D01*
X45941Y-28989D01*
X45850Y-28951D01*
X45751Y-28951D01*
X45290Y-28951D01*
X45290Y-21507D01*
X45391Y-21549D01*
X45609Y-21549D01*
X45811Y-21465D01*
X45965Y-21311D01*
X46000Y-21226D01*
X46035Y-21311D01*
X46189Y-21465D01*
X46391Y-21549D01*
X46609Y-21549D01*
X46811Y-21465D01*
X46965Y-21311D01*
X47049Y-21109D01*
X47049Y-20891D01*
X46965Y-20689D01*
X46811Y-20535D01*
X46726Y-20500D01*
X46811Y-20465D01*
X46965Y-20311D01*
X47049Y-20109D01*
X47049Y-19891D01*
X46965Y-19689D01*
X46811Y-19535D01*
X46726Y-19500D01*
X46811Y-19465D01*
X46965Y-19311D01*
X47049Y-19109D01*
X47049Y-18891D01*
X46965Y-18689D01*
X46811Y-18535D01*
X46726Y-18500D01*
X46811Y-18465D01*
X46965Y-18311D01*
X47049Y-18109D01*
X47049Y-17891D01*
X46965Y-17689D01*
X46811Y-17535D01*
X46726Y-17500D01*
X46811Y-17465D01*
X46965Y-17311D01*
X47049Y-17109D01*
X47049Y-16891D01*
X46965Y-16689D01*
X46811Y-16535D01*
X46726Y-16500D01*
X46811Y-16465D01*
X46965Y-16311D01*
X47049Y-16109D01*
X47049Y-15891D01*
X46965Y-15689D01*
X46811Y-15535D01*
X46609Y-15451D01*
X46391Y-15451D01*
X46189Y-15535D01*
X46049Y-15675D01*
X46049Y-15651D01*
X46011Y-15559D01*
X45941Y-15489D01*
X45850Y-15451D01*
X45751Y-15451D01*
X45290Y-15451D01*
X45290Y-15120D01*
X45369Y-15040D01*
X45391Y-15049D01*
X45609Y-15049D01*
X45811Y-14965D01*
X45965Y-14811D01*
X46000Y-14726D01*
X46035Y-14811D01*
X46189Y-14965D01*
X46391Y-15049D01*
X46609Y-15049D01*
X46811Y-14965D01*
X46965Y-14811D01*
X47049Y-14609D01*
X47049Y-14391D01*
X46965Y-14189D01*
X46811Y-14035D01*
X46726Y-14000D01*
X46811Y-13965D01*
X46965Y-13811D01*
X47049Y-13609D01*
X47049Y-13391D01*
X46965Y-13189D01*
X46811Y-13035D01*
X46726Y-13000D01*
X46811Y-12965D01*
X46965Y-12811D01*
X47049Y-12609D01*
X47049Y-12391D01*
X46965Y-12189D01*
X46811Y-12035D01*
X46726Y-12000D01*
X46811Y-11965D01*
X46965Y-11811D01*
X47049Y-11609D01*
X47049Y-11391D01*
X46965Y-11189D01*
X46811Y-11035D01*
X46609Y-10951D01*
X46391Y-10951D01*
X46189Y-11035D01*
X46049Y-11175D01*
X46049Y-11151D01*
X46011Y-11059D01*
X45941Y-10989D01*
X45850Y-10951D01*
X45751Y-10951D01*
X45151Y-10951D01*
X45059Y-10989D01*
X44989Y-11059D01*
X44951Y-11150D01*
X44951Y-11249D01*
X44951Y-11638D01*
X44490Y-12099D01*
X44490Y-11420D01*
X45369Y-10540D01*
X45391Y-10549D01*
X45609Y-10549D01*
X45811Y-10465D01*
X45965Y-10311D01*
X46000Y-10226D01*
X46035Y-10311D01*
X46189Y-10465D01*
X46391Y-10549D01*
X46609Y-10549D01*
X46811Y-10465D01*
X46965Y-10311D01*
X47049Y-10109D01*
X47049Y-09891D01*
X46965Y-09689D01*
X46811Y-09535D01*
X46726Y-09500D01*
X46811Y-09465D01*
X46965Y-09311D01*
X47049Y-09109D01*
X47049Y-08891D01*
X46965Y-08689D01*
X46811Y-08535D01*
X46726Y-08500D01*
X46811Y-08465D01*
X46965Y-08311D01*
X47049Y-08109D01*
X47049Y-07891D01*
X46965Y-07689D01*
X46811Y-07535D01*
X46726Y-07500D01*
X46811Y-07465D01*
X46965Y-07311D01*
X47049Y-07109D01*
X47049Y-06891D01*
X46965Y-06689D01*
X46811Y-06535D01*
X46609Y-06451D01*
X46391Y-06451D01*
X46189Y-06535D01*
X46049Y-06675D01*
X46049Y-06651D01*
X46011Y-06559D01*
X45941Y-06489D01*
X45850Y-06451D01*
X45751Y-06451D01*
X45151Y-06451D01*
X45059Y-06489D01*
X44989Y-06559D01*
X44951Y-06650D01*
X44951Y-06749D01*
X44951Y-07139D01*
X43395Y-08695D01*
X43332Y-08789D01*
X43310Y-08900D01*
X43310Y-09451D01*
X43251Y-09451D01*
X42651Y-09451D01*
X42559Y-09489D01*
X42489Y-09559D01*
X42451Y-09650D01*
X42451Y-09675D01*
X42311Y-09535D01*
X42109Y-09451D01*
X41891Y-09451D01*
X41689Y-09535D01*
X41535Y-09689D01*
X41500Y-09773D01*
X41465Y-09689D01*
X41311Y-09535D01*
X41109Y-09451D01*
X40891Y-09451D01*
X40689Y-09535D01*
X40535Y-09689D01*
X40500Y-09773D01*
X40465Y-09689D01*
X40311Y-09535D01*
X40109Y-09451D01*
X39891Y-09451D01*
X39689Y-09535D01*
X39535Y-09689D01*
X39500Y-09773D01*
X39465Y-09689D01*
X39311Y-09535D01*
X39109Y-09451D01*
X38891Y-09451D01*
X38689Y-09535D01*
X38535Y-09689D01*
X38500Y-09773D01*
X38465Y-09689D01*
X38311Y-09535D01*
X38109Y-09451D01*
X37891Y-09451D01*
X37689Y-09535D01*
X37535Y-09689D01*
X37500Y-09773D01*
X37465Y-09689D01*
X37311Y-09535D01*
X37109Y-09451D01*
X36891Y-09451D01*
X36689Y-09535D01*
X36535Y-09689D01*
X36500Y-09773D01*
X36465Y-09689D01*
X36311Y-09535D01*
X36109Y-09451D01*
X35891Y-09451D01*
X35689Y-09535D01*
X35535Y-09689D01*
X35500Y-09773D01*
X35465Y-09689D01*
X35311Y-09535D01*
X35109Y-09451D01*
X34891Y-09451D01*
X34689Y-09535D01*
X34535Y-09689D01*
X34500Y-09773D01*
X34465Y-09689D01*
X34311Y-09535D01*
X34109Y-09451D01*
X33891Y-09451D01*
X33689Y-09535D01*
X33535Y-09689D01*
X33500Y-09773D01*
X33465Y-09689D01*
X33311Y-09535D01*
X33109Y-09451D01*
X32891Y-09451D01*
X32689Y-09535D01*
X32535Y-09689D01*
X32500Y-09773D01*
X32465Y-09689D01*
X32311Y-09535D01*
X32109Y-09451D01*
X31891Y-09451D01*
X31689Y-09535D01*
X31535Y-09689D01*
X31500Y-09773D01*
X31465Y-09689D01*
X31311Y-09535D01*
X31109Y-09451D01*
X30891Y-09451D01*
X30689Y-09535D01*
X30535Y-09689D01*
X30500Y-09773D01*
X30465Y-09689D01*
X30311Y-09535D01*
X30109Y-09451D01*
X29891Y-09451D01*
X29689Y-09535D01*
X29535Y-09689D01*
X29500Y-09773D01*
X29465Y-09689D01*
X29311Y-09535D01*
X29109Y-09451D01*
X28891Y-09451D01*
X28689Y-09535D01*
X28535Y-09689D01*
X28500Y-09773D01*
X28465Y-09689D01*
X28311Y-09535D01*
X28109Y-09451D01*
X27891Y-09451D01*
X27689Y-09535D01*
X27535Y-09689D01*
X27500Y-09773D01*
X27465Y-09689D01*
X27311Y-09535D01*
X27109Y-09451D01*
X26891Y-09451D01*
X26689Y-09535D01*
X26535Y-09689D01*
X26500Y-09773D01*
X26465Y-09689D01*
X26311Y-09535D01*
X26109Y-09451D01*
X25891Y-09451D01*
X25689Y-09535D01*
X25535Y-09689D01*
X25500Y-09773D01*
X25465Y-09689D01*
X25311Y-09535D01*
X25109Y-09451D01*
X24891Y-09451D01*
X24689Y-09535D01*
X24535Y-09689D01*
X24500Y-09773D01*
X24465Y-09689D01*
X24311Y-09535D01*
X24109Y-09451D01*
X23891Y-09451D01*
X23689Y-09535D01*
X23535Y-09689D01*
X23500Y-09773D01*
X23465Y-09689D01*
X23311Y-09535D01*
X23109Y-09451D01*
X22891Y-09451D01*
X22689Y-09535D01*
X22535Y-09689D01*
X22500Y-09773D01*
X22465Y-09689D01*
X22311Y-09535D01*
X22109Y-09451D01*
X21891Y-09451D01*
X21689Y-09535D01*
X21535Y-09689D01*
X21500Y-09773D01*
X21465Y-09689D01*
X21311Y-09535D01*
X21109Y-09451D01*
X20891Y-09451D01*
X20689Y-09535D01*
X20535Y-09689D01*
X20500Y-09773D01*
X20465Y-09689D01*
X20311Y-09535D01*
X20109Y-09451D01*
X19891Y-09451D01*
X19689Y-09535D01*
X19535Y-09689D01*
X19500Y-09773D01*
X19465Y-09689D01*
X19311Y-09535D01*
X19109Y-09451D01*
X18891Y-09451D01*
X18689Y-09535D01*
X18535Y-09689D01*
X18500Y-09773D01*
X18465Y-09689D01*
X18311Y-09535D01*
X18109Y-09451D01*
X17891Y-09451D01*
X17689Y-09535D01*
X17535Y-09689D01*
X17500Y-09773D01*
X17465Y-09689D01*
X17311Y-09535D01*
X17109Y-09451D01*
X16891Y-09451D01*
X16689Y-09535D01*
X16535Y-09689D01*
X16500Y-09773D01*
X16465Y-09689D01*
X16311Y-09535D01*
X16109Y-09451D01*
X15891Y-09451D01*
X15689Y-09535D01*
X15535Y-09689D01*
X15500Y-09773D01*
X15465Y-09689D01*
X15311Y-09535D01*
X15109Y-09451D01*
X14891Y-09451D01*
X14689Y-09535D01*
X14535Y-09689D01*
X14500Y-09773D01*
X14465Y-09689D01*
X14311Y-09535D01*
X14109Y-09451D01*
X13891Y-09451D01*
X13689Y-09535D01*
X13535Y-09689D01*
X13500Y-09773D01*
X13465Y-09689D01*
X13311Y-09535D01*
X13109Y-09451D01*
X12891Y-09451D01*
X12689Y-09535D01*
X12535Y-09689D01*
X12500Y-09773D01*
X12465Y-09689D01*
X12311Y-09535D01*
X12109Y-09451D01*
X11891Y-09451D01*
X11689Y-09535D01*
X11535Y-09689D01*
X11451Y-09891D01*
X11451Y-10109D01*
X11535Y-10311D01*
X11689Y-10465D01*
X11773Y-10500D01*
X11689Y-10535D01*
X11535Y-10689D01*
X11451Y-10891D01*
X11451Y-11109D01*
X11535Y-11311D01*
X11689Y-11465D01*
X11891Y-11549D01*
X12109Y-11549D01*
X12311Y-11465D01*
X12465Y-11311D01*
X12500Y-11226D01*
X12535Y-11311D01*
X12689Y-11465D01*
X12891Y-11549D01*
X13109Y-11549D01*
X13311Y-11465D01*
X13465Y-11311D01*
X13500Y-11226D01*
X13535Y-11311D01*
X13689Y-11465D01*
X13891Y-11549D01*
X14109Y-11549D01*
X14311Y-11465D01*
X14465Y-11311D01*
X14500Y-11226D01*
X14535Y-11311D01*
X14689Y-11465D01*
X14891Y-11549D01*
X15109Y-11549D01*
X15311Y-11465D01*
X15465Y-11311D01*
X15500Y-11226D01*
X15535Y-11311D01*
X15689Y-11465D01*
X15891Y-11549D01*
X16109Y-11549D01*
X16311Y-11465D01*
X16465Y-11311D01*
X16500Y-11226D01*
X16535Y-11311D01*
X16689Y-11465D01*
X16891Y-11549D01*
X17109Y-11549D01*
X17311Y-11465D01*
X17465Y-11311D01*
X17500Y-11226D01*
X17535Y-11311D01*
X17689Y-11465D01*
X17891Y-11549D01*
X18109Y-11549D01*
X18311Y-11465D01*
X18465Y-11311D01*
X18500Y-11226D01*
X18535Y-11311D01*
X18689Y-11465D01*
X18891Y-11549D01*
X19109Y-11549D01*
X19311Y-11465D01*
X19465Y-11311D01*
X19500Y-11226D01*
X19535Y-11311D01*
X19689Y-11465D01*
X19891Y-11549D01*
X20109Y-11549D01*
X20311Y-11465D01*
X20465Y-11311D01*
X20500Y-11226D01*
X20535Y-11311D01*
X20689Y-11465D01*
X20891Y-11549D01*
X21109Y-11549D01*
X21311Y-11465D01*
X21465Y-11311D01*
X21502Y-11219D01*
X21528Y-11281D01*
X21622Y-11308D01*
X21929Y-11000D01*
X21622Y-10692D01*
X21528Y-10719D01*
X21504Y-10784D01*
X21465Y-10689D01*
X21311Y-10535D01*
X21226Y-10500D01*
X21311Y-10465D01*
X21465Y-10311D01*
X21500Y-10226D01*
X21535Y-10311D01*
X21689Y-10465D01*
X21780Y-10502D01*
X21719Y-10528D01*
X21692Y-10622D01*
X22000Y-10929D01*
X22308Y-10622D01*
X22281Y-10528D01*
X22215Y-10504D01*
X22311Y-10465D01*
X22465Y-10311D01*
X22500Y-10226D01*
X22535Y-10311D01*
X22689Y-10465D01*
X22773Y-10500D01*
X22689Y-10535D01*
X22535Y-10689D01*
X22497Y-10780D01*
X22472Y-10719D01*
X22378Y-10692D01*
X22071Y-11000D01*
X22378Y-11308D01*
X22472Y-11281D01*
X22495Y-11215D01*
X22535Y-11311D01*
X22689Y-11465D01*
X22891Y-11549D01*
X23109Y-11549D01*
X23311Y-11465D01*
X23465Y-11311D01*
X23500Y-11226D01*
X23535Y-11311D01*
X23689Y-11465D01*
X23891Y-11549D01*
X24109Y-11549D01*
X24311Y-11465D01*
X24465Y-11311D01*
X24500Y-11226D01*
X24535Y-11311D01*
X24689Y-11465D01*
X24891Y-11549D01*
X25109Y-11549D01*
X25311Y-11465D01*
X25465Y-11311D01*
X25500Y-11226D01*
X25535Y-11311D01*
X25689Y-11465D01*
X25891Y-11549D01*
X26109Y-11549D01*
X26311Y-11465D01*
X26465Y-11311D01*
X26500Y-11226D01*
X26535Y-11311D01*
X26689Y-11465D01*
X26891Y-11549D01*
X27109Y-11549D01*
X27311Y-11465D01*
X27465Y-11311D01*
X27500Y-11226D01*
X27535Y-11311D01*
X27689Y-11465D01*
X27891Y-11549D01*
X28109Y-11549D01*
X28311Y-11465D01*
X28465Y-11311D01*
X28500Y-11226D01*
X28535Y-11311D01*
X28689Y-11465D01*
X28891Y-11549D01*
X29109Y-11549D01*
X29311Y-11465D01*
X29465Y-11311D01*
X29500Y-11226D01*
X29535Y-11311D01*
X29689Y-11465D01*
X29891Y-11549D01*
X30109Y-11549D01*
X30311Y-11465D01*
X30465Y-11311D01*
X30500Y-11226D01*
X30535Y-11311D01*
X30689Y-11465D01*
X30891Y-11549D01*
X31109Y-11549D01*
X31311Y-11465D01*
X31465Y-11311D01*
X31500Y-11226D01*
X31535Y-11311D01*
X31689Y-11465D01*
X31891Y-11549D01*
X32109Y-11549D01*
X32311Y-11465D01*
X32465Y-11311D01*
X32500Y-11226D01*
X32535Y-11311D01*
X32689Y-11465D01*
X32891Y-11549D01*
X33109Y-11549D01*
X33311Y-11465D01*
X33465Y-11311D01*
X33500Y-11226D01*
X33535Y-11311D01*
X33689Y-11465D01*
X33891Y-11549D01*
X34109Y-11549D01*
X34311Y-11465D01*
X34465Y-11311D01*
X34500Y-11226D01*
X34535Y-11311D01*
X34689Y-11465D01*
X34891Y-11549D01*
X35109Y-11549D01*
X35311Y-11465D01*
X35465Y-11311D01*
X35500Y-11226D01*
X35535Y-11311D01*
X35689Y-11465D01*
X35891Y-11549D01*
X36109Y-11549D01*
X36311Y-11465D01*
X36465Y-11311D01*
X36500Y-11226D01*
X36535Y-11311D01*
X36689Y-11465D01*
X36891Y-11549D01*
X37109Y-11549D01*
X37311Y-11465D01*
X37465Y-11311D01*
X37500Y-11226D01*
X37535Y-11311D01*
X37689Y-11465D01*
X37891Y-11549D01*
X38109Y-11549D01*
X38311Y-11465D01*
X38465Y-11311D01*
X38500Y-11226D01*
X38535Y-11311D01*
X38689Y-11465D01*
X38891Y-11549D01*
X39109Y-11549D01*
X39311Y-11465D01*
X39465Y-11311D01*
X39500Y-11226D01*
X39535Y-11311D01*
X39689Y-11465D01*
X39891Y-11549D01*
X40109Y-11549D01*
X40311Y-11465D01*
X40465Y-11311D01*
X40500Y-11226D01*
X40535Y-11311D01*
X40689Y-11465D01*
X40891Y-11549D01*
X41109Y-11549D01*
X41311Y-11465D01*
X41465Y-11311D01*
X41500Y-11226D01*
X41535Y-11311D01*
X41689Y-11465D01*
X41709Y-11473D01*
X41688Y-11482D01*
X41583Y-11587D01*
X41525Y-11725D01*
X41525Y-11874D01*
X41582Y-12012D01*
X41687Y-12117D01*
X41825Y-12175D01*
X41974Y-12175D01*
X42112Y-12118D01*
X42217Y-12013D01*
X42275Y-11875D01*
X42275Y-11726D01*
X42218Y-11588D01*
X42158Y-11528D01*
X42311Y-11465D01*
X42465Y-11311D01*
X42500Y-11226D01*
X42535Y-11311D01*
X42689Y-11465D01*
X42891Y-11549D01*
X43109Y-11549D01*
X43310Y-11465D01*
X43310Y-29172D01*
X43288Y-29182D01*
X43183Y-29287D01*
X43125Y-29425D01*
X43125Y-29574D01*
X43182Y-29712D01*
X43287Y-29817D01*
X43425Y-29875D01*
X43510Y-29875D01*
X43510Y-30172D01*
X43488Y-30182D01*
X43383Y-30287D01*
X43325Y-30425D01*
X43325Y-30574D01*
X43346Y-30625D01*
X43226Y-30625D01*
X43088Y-30682D01*
X42983Y-30787D01*
X42925Y-30925D01*
X42925Y-31074D01*
X42982Y-31212D01*
X43087Y-31317D01*
X43225Y-31375D01*
X43374Y-31375D01*
X43512Y-31318D01*
X43617Y-31213D01*
X43675Y-31075D01*
X43675Y-30926D01*
X43653Y-30875D01*
X43710Y-30875D01*
X43710Y-31172D01*
X43688Y-31182D01*
X43583Y-31287D01*
X43525Y-31425D01*
X43525Y-31574D01*
X43582Y-31712D01*
X43687Y-31817D01*
X43825Y-31875D01*
X43910Y-31875D01*
X43910Y-32172D01*
X43888Y-32182D01*
X43783Y-32287D01*
X43725Y-32425D01*
X43725Y-32574D01*
X43782Y-32712D01*
X43887Y-32817D01*
X44025Y-32875D01*
X44110Y-32875D01*
X44110Y-33672D01*
X44088Y-33682D01*
X43983Y-33787D01*
X43925Y-33925D01*
X43925Y-34074D01*
X43982Y-34212D01*
X44087Y-34317D01*
X44225Y-34375D01*
X44310Y-34375D01*
X44310Y-34672D01*
X44288Y-34682D01*
X44183Y-34787D01*
X44125Y-34925D01*
X44125Y-35074D01*
X44182Y-35212D01*
X44287Y-35317D01*
X44425Y-35375D01*
X44510Y-35375D01*
X44510Y-35672D01*
X44488Y-35682D01*
X44383Y-35787D01*
X44325Y-35925D01*
X44325Y-36074D01*
X44382Y-36212D01*
X44487Y-36317D01*
X44625Y-36375D01*
X44710Y-36375D01*
X44710Y-36500D01*
X44732Y-36611D01*
X44795Y-36705D01*
X44959Y-36869D01*
X44951Y-36891D01*
X44951Y-37109D01*
X45035Y-37311D01*
X45189Y-37465D01*
X45391Y-37549D01*
X45609Y-37549D01*
X45811Y-37465D01*
X45965Y-37311D01*
X46000Y-37226D01*
X46035Y-37311D01*
X46189Y-37465D01*
X46391Y-37549D01*
X46609Y-37549D01*
X46811Y-37465D01*
X46965Y-37311D01*
X46999Y-37229D01*
X47049Y-37109D01*
X47049Y-37675D01*
X46999Y-37675D01*
X43549Y-37675D01*
X43549Y-33109D01*
X43549Y-32891D01*
X43465Y-32689D01*
X43311Y-32535D01*
X43109Y-32451D01*
X42891Y-32451D01*
X42875Y-32457D01*
X42875Y-20775D01*
X42875Y-20626D01*
X42818Y-20488D01*
X42713Y-20383D01*
X42575Y-20325D01*
X42426Y-20325D01*
X42288Y-20382D01*
X42183Y-20487D01*
X42125Y-20625D01*
X42125Y-20774D01*
X42182Y-20912D01*
X42287Y-21017D01*
X42425Y-21075D01*
X42574Y-21075D01*
X42712Y-21018D01*
X42817Y-20913D01*
X42875Y-20775D01*
X42875Y-32457D01*
X42689Y-32535D01*
X42535Y-32689D01*
X42500Y-32773D01*
X42475Y-32713D01*
X42475Y-28475D01*
X42475Y-28326D01*
X42418Y-28188D01*
X42313Y-28083D01*
X42175Y-28025D01*
X42100Y-28025D01*
X42100Y-25700D01*
X42100Y-25551D01*
X42043Y-25413D01*
X41938Y-25308D01*
X41800Y-25250D01*
X41651Y-25250D01*
X41513Y-25307D01*
X41408Y-25412D01*
X41350Y-25550D01*
X41350Y-25699D01*
X41407Y-25837D01*
X41512Y-25942D01*
X41650Y-26000D01*
X41799Y-26000D01*
X41937Y-25943D01*
X42042Y-25838D01*
X42100Y-25700D01*
X42100Y-28025D01*
X42075Y-28025D01*
X42075Y-26575D01*
X42075Y-26426D01*
X42018Y-26288D01*
X41913Y-26183D01*
X41775Y-26125D01*
X41626Y-26125D01*
X41488Y-26182D01*
X41383Y-26287D01*
X41325Y-26425D01*
X41325Y-26574D01*
X41382Y-26712D01*
X41487Y-26817D01*
X41625Y-26875D01*
X41774Y-26875D01*
X41912Y-26818D01*
X42017Y-26713D01*
X42075Y-26575D01*
X42075Y-28025D01*
X42026Y-28025D01*
X41888Y-28082D01*
X41783Y-28187D01*
X41725Y-28325D01*
X41725Y-28474D01*
X41782Y-28612D01*
X41887Y-28717D01*
X42025Y-28775D01*
X42174Y-28775D01*
X42312Y-28718D01*
X42417Y-28613D01*
X42475Y-28475D01*
X42475Y-32713D01*
X42465Y-32689D01*
X42311Y-32535D01*
X42109Y-32451D01*
X41891Y-32451D01*
X41689Y-32535D01*
X41535Y-32689D01*
X41500Y-32773D01*
X41465Y-32689D01*
X41311Y-32535D01*
X41109Y-32451D01*
X40891Y-32451D01*
X40775Y-32499D01*
X40775Y-30175D01*
X40775Y-30026D01*
X40718Y-29888D01*
X40700Y-29870D01*
X40700Y-25700D01*
X40700Y-25551D01*
X40643Y-25413D01*
X40538Y-25308D01*
X40400Y-25250D01*
X40251Y-25250D01*
X40113Y-25307D01*
X40008Y-25412D01*
X39950Y-25550D01*
X39950Y-25699D01*
X40007Y-25837D01*
X40112Y-25942D01*
X40250Y-26000D01*
X40399Y-26000D01*
X40537Y-25943D01*
X40642Y-25838D01*
X40700Y-25700D01*
X40700Y-29870D01*
X40613Y-29783D01*
X40475Y-29725D01*
X40326Y-29725D01*
X40188Y-29782D01*
X40083Y-29887D01*
X40025Y-30025D01*
X40025Y-30174D01*
X40082Y-30312D01*
X40187Y-30417D01*
X40325Y-30475D01*
X40474Y-30475D01*
X40612Y-30418D01*
X40717Y-30313D01*
X40775Y-30175D01*
X40775Y-32499D01*
X40689Y-32535D01*
X40667Y-32556D01*
X37705Y-29595D01*
X37611Y-29532D01*
X37500Y-29510D01*
X37049Y-29510D01*
X37049Y-22350D01*
X37049Y-22251D01*
X37049Y-21651D01*
X37011Y-21559D01*
X36941Y-21489D01*
X36850Y-21451D01*
X36751Y-21451D01*
X36151Y-21451D01*
X36059Y-21489D01*
X35989Y-21559D01*
X35951Y-21650D01*
X35951Y-21675D01*
X35811Y-21535D01*
X35609Y-21451D01*
X35391Y-21451D01*
X35189Y-21535D01*
X35035Y-21689D01*
X34951Y-21891D01*
X34951Y-22109D01*
X35035Y-22311D01*
X35189Y-22465D01*
X35391Y-22549D01*
X35609Y-22549D01*
X35811Y-22465D01*
X35951Y-22325D01*
X35951Y-22349D01*
X35989Y-22441D01*
X36059Y-22511D01*
X36150Y-22549D01*
X36249Y-22549D01*
X36849Y-22549D01*
X36941Y-22511D01*
X37011Y-22441D01*
X37049Y-22350D01*
X37049Y-29510D01*
X34575Y-29510D01*
X34575Y-17375D01*
X34575Y-17226D01*
X34518Y-17088D01*
X34413Y-16983D01*
X34275Y-16925D01*
X34126Y-16925D01*
X33988Y-16982D01*
X33883Y-17087D01*
X33825Y-17225D01*
X33825Y-17374D01*
X33882Y-17512D01*
X33987Y-17617D01*
X34125Y-17675D01*
X34274Y-17675D01*
X34412Y-17618D01*
X34517Y-17513D01*
X34575Y-17375D01*
X34575Y-29510D01*
X32775Y-29510D01*
X32775Y-15575D01*
X32775Y-15426D01*
X32718Y-15288D01*
X32613Y-15183D01*
X32475Y-15125D01*
X32326Y-15125D01*
X32188Y-15182D01*
X32083Y-15287D01*
X32025Y-15425D01*
X32025Y-15574D01*
X32082Y-15712D01*
X32187Y-15817D01*
X32325Y-15875D01*
X32474Y-15875D01*
X32612Y-15818D01*
X32717Y-15713D01*
X32775Y-15575D01*
X32775Y-29510D01*
X29075Y-29510D01*
X29075Y-18575D01*
X29075Y-18426D01*
X29075Y-16175D01*
X29075Y-16026D01*
X29018Y-15888D01*
X28913Y-15783D01*
X28775Y-15725D01*
X28626Y-15725D01*
X28488Y-15782D01*
X28383Y-15887D01*
X28367Y-15925D01*
X28326Y-15925D01*
X28275Y-15946D01*
X28275Y-15375D01*
X28275Y-15226D01*
X28218Y-15088D01*
X28113Y-14983D01*
X27975Y-14925D01*
X27826Y-14925D01*
X27688Y-14982D01*
X27583Y-15087D01*
X27525Y-15225D01*
X27525Y-15374D01*
X27582Y-15512D01*
X27687Y-15617D01*
X27825Y-15675D01*
X27974Y-15675D01*
X28112Y-15618D01*
X28217Y-15513D01*
X28275Y-15375D01*
X28275Y-15946D01*
X28188Y-15982D01*
X28083Y-16087D01*
X28067Y-16125D01*
X28026Y-16125D01*
X27888Y-16182D01*
X27783Y-16287D01*
X27767Y-16325D01*
X27726Y-16325D01*
X27588Y-16382D01*
X27483Y-16487D01*
X27425Y-16625D01*
X27425Y-16774D01*
X27482Y-16912D01*
X27587Y-17017D01*
X27725Y-17075D01*
X27874Y-17075D01*
X28012Y-17018D01*
X28117Y-16913D01*
X28132Y-16875D01*
X28174Y-16875D01*
X28312Y-16818D01*
X28417Y-16713D01*
X28432Y-16675D01*
X28474Y-16675D01*
X28612Y-16618D01*
X28717Y-16513D01*
X28732Y-16475D01*
X28774Y-16475D01*
X28912Y-16418D01*
X29017Y-16313D01*
X29075Y-16175D01*
X29075Y-18426D01*
X29018Y-18288D01*
X28913Y-18183D01*
X28775Y-18125D01*
X28626Y-18125D01*
X28488Y-18182D01*
X28383Y-18287D01*
X28367Y-18325D01*
X28326Y-18325D01*
X28188Y-18382D01*
X28083Y-18487D01*
X28067Y-18525D01*
X28026Y-18525D01*
X27888Y-18582D01*
X27783Y-18687D01*
X27767Y-18725D01*
X27726Y-18725D01*
X27588Y-18782D01*
X27483Y-18887D01*
X27425Y-19025D01*
X27425Y-19174D01*
X27482Y-19312D01*
X27587Y-19417D01*
X27725Y-19475D01*
X27874Y-19475D01*
X28012Y-19418D01*
X28117Y-19313D01*
X28132Y-19275D01*
X28174Y-19275D01*
X28312Y-19218D01*
X28417Y-19113D01*
X28432Y-19075D01*
X28474Y-19075D01*
X28612Y-19018D01*
X28717Y-18913D01*
X28732Y-18875D01*
X28774Y-18875D01*
X28912Y-18818D01*
X29017Y-18713D01*
X29075Y-18575D01*
X29075Y-29510D01*
X26475Y-29510D01*
X26475Y-23475D01*
X26475Y-23326D01*
X26475Y-14775D01*
X26475Y-14626D01*
X26422Y-14499D01*
X26475Y-14375D01*
X26475Y-14226D01*
X26418Y-14088D01*
X26313Y-13983D01*
X26175Y-13925D01*
X26026Y-13925D01*
X25888Y-13982D01*
X25783Y-14087D01*
X25725Y-14225D01*
X25725Y-14374D01*
X25777Y-14500D01*
X25725Y-14625D01*
X25725Y-14774D01*
X25782Y-14912D01*
X25887Y-15017D01*
X26025Y-15075D01*
X26174Y-15075D01*
X26312Y-15018D01*
X26417Y-14913D01*
X26475Y-14775D01*
X26475Y-23326D01*
X26418Y-23188D01*
X26313Y-23083D01*
X26175Y-23025D01*
X26026Y-23025D01*
X25975Y-23046D01*
X25975Y-17275D01*
X25975Y-17126D01*
X25918Y-16988D01*
X25813Y-16883D01*
X25675Y-16825D01*
X25526Y-16825D01*
X25475Y-16846D01*
X25475Y-16675D01*
X25475Y-16526D01*
X25418Y-16388D01*
X25313Y-16283D01*
X25175Y-16225D01*
X25026Y-16225D01*
X24899Y-16277D01*
X24775Y-16225D01*
X24626Y-16225D01*
X24488Y-16282D01*
X24383Y-16387D01*
X24325Y-16525D01*
X24325Y-16674D01*
X24382Y-16812D01*
X24487Y-16917D01*
X24625Y-16975D01*
X24774Y-16975D01*
X24900Y-16922D01*
X25025Y-16975D01*
X25174Y-16975D01*
X25312Y-16918D01*
X25417Y-16813D01*
X25475Y-16675D01*
X25475Y-16846D01*
X25388Y-16882D01*
X25283Y-16987D01*
X25225Y-17125D01*
X25225Y-17274D01*
X25282Y-17412D01*
X25387Y-17517D01*
X25525Y-17575D01*
X25674Y-17575D01*
X25812Y-17518D01*
X25917Y-17413D01*
X25975Y-17275D01*
X25975Y-23046D01*
X25888Y-23082D01*
X25783Y-23187D01*
X25725Y-23325D01*
X25725Y-23474D01*
X25782Y-23612D01*
X25887Y-23717D01*
X26025Y-23775D01*
X26174Y-23775D01*
X26312Y-23718D01*
X26417Y-23613D01*
X26475Y-23475D01*
X26475Y-29510D01*
X25875Y-29510D01*
X25875Y-26775D01*
X25875Y-26626D01*
X25822Y-26499D01*
X25875Y-26375D01*
X25875Y-26226D01*
X25822Y-26099D01*
X25875Y-25975D01*
X25875Y-25826D01*
X25822Y-25699D01*
X25875Y-25575D01*
X25875Y-25426D01*
X25822Y-25299D01*
X25875Y-25175D01*
X25875Y-25026D01*
X25818Y-24888D01*
X25713Y-24783D01*
X25575Y-24725D01*
X25426Y-24725D01*
X25375Y-24746D01*
X25375Y-24575D01*
X25375Y-24426D01*
X25318Y-24288D01*
X25213Y-24183D01*
X25175Y-24167D01*
X25175Y-24026D01*
X25122Y-23899D01*
X25175Y-23775D01*
X25175Y-23733D01*
X25212Y-23718D01*
X25317Y-23613D01*
X25375Y-23475D01*
X25375Y-23326D01*
X25318Y-23188D01*
X25213Y-23083D01*
X25075Y-23025D01*
X24926Y-23025D01*
X24788Y-23082D01*
X24683Y-23187D01*
X24625Y-23325D01*
X24625Y-23366D01*
X24588Y-23382D01*
X24483Y-23487D01*
X24425Y-23625D01*
X24425Y-23774D01*
X24477Y-23900D01*
X24425Y-24025D01*
X24425Y-24174D01*
X24482Y-24312D01*
X24587Y-24417D01*
X24625Y-24432D01*
X24625Y-24574D01*
X24682Y-24712D01*
X24787Y-24817D01*
X24925Y-24875D01*
X25074Y-24875D01*
X25212Y-24818D01*
X25317Y-24713D01*
X25375Y-24575D01*
X25375Y-24746D01*
X25288Y-24782D01*
X25183Y-24887D01*
X25125Y-25025D01*
X25125Y-25174D01*
X25177Y-25300D01*
X25125Y-25425D01*
X25125Y-25574D01*
X25177Y-25700D01*
X25125Y-25825D01*
X25125Y-25974D01*
X25177Y-26100D01*
X25125Y-26225D01*
X25125Y-26374D01*
X25177Y-26500D01*
X25125Y-26625D01*
X25125Y-26774D01*
X25182Y-26912D01*
X25287Y-27017D01*
X25425Y-27075D01*
X25574Y-27075D01*
X25712Y-27018D01*
X25817Y-26913D01*
X25875Y-26775D01*
X25875Y-29510D01*
X24220Y-29510D01*
X23675Y-28965D01*
X23675Y-17775D01*
X23675Y-17626D01*
X23622Y-17499D01*
X23675Y-17375D01*
X23675Y-17226D01*
X23618Y-17088D01*
X23513Y-16983D01*
X23375Y-16925D01*
X23333Y-16925D01*
X23322Y-16899D01*
X23332Y-16875D01*
X23374Y-16875D01*
X23512Y-16818D01*
X23617Y-16713D01*
X23675Y-16575D01*
X23675Y-16426D01*
X23618Y-16288D01*
X23513Y-16183D01*
X23375Y-16125D01*
X23226Y-16125D01*
X23088Y-16182D01*
X22983Y-16287D01*
X22967Y-16325D01*
X22926Y-16325D01*
X22788Y-16382D01*
X22683Y-16487D01*
X22625Y-16625D01*
X22625Y-16774D01*
X22677Y-16900D01*
X22625Y-17025D01*
X22625Y-17174D01*
X22682Y-17312D01*
X22787Y-17417D01*
X22925Y-17475D01*
X22966Y-17475D01*
X22977Y-17500D01*
X22967Y-17525D01*
X22926Y-17525D01*
X22788Y-17582D01*
X22700Y-17670D01*
X22613Y-17583D01*
X22475Y-17525D01*
X22326Y-17525D01*
X22308Y-17532D01*
X22308Y-11378D01*
X22000Y-11071D01*
X21692Y-11378D01*
X21719Y-11472D01*
X21921Y-11543D01*
X22134Y-11532D01*
X22281Y-11472D01*
X22308Y-11378D01*
X22308Y-17532D01*
X22188Y-17582D01*
X22083Y-17687D01*
X22025Y-17825D01*
X22025Y-17974D01*
X22077Y-18100D01*
X22025Y-18225D01*
X22025Y-18374D01*
X22082Y-18512D01*
X22187Y-18617D01*
X22325Y-18675D01*
X22474Y-18675D01*
X22612Y-18618D01*
X22717Y-18513D01*
X22732Y-18475D01*
X22774Y-18475D01*
X22912Y-18418D01*
X23017Y-18313D01*
X23032Y-18275D01*
X23074Y-18275D01*
X23212Y-18218D01*
X23317Y-18113D01*
X23332Y-18075D01*
X23374Y-18075D01*
X23512Y-18018D01*
X23617Y-17913D01*
X23675Y-17775D01*
X23675Y-28965D01*
X23175Y-28465D01*
X23175Y-28426D01*
X23118Y-28288D01*
X23013Y-28183D01*
X22875Y-28125D01*
X22726Y-28125D01*
X22588Y-28182D01*
X22483Y-28287D01*
X22425Y-28425D01*
X22425Y-28574D01*
X22482Y-28712D01*
X22587Y-28817D01*
X22725Y-28875D01*
X22765Y-28875D01*
X23600Y-29710D01*
X22275Y-29710D01*
X22275Y-23575D01*
X22275Y-23426D01*
X22218Y-23288D01*
X22113Y-23183D01*
X21975Y-23125D01*
X21826Y-23125D01*
X21699Y-23177D01*
X21575Y-23125D01*
X21426Y-23125D01*
X21375Y-23146D01*
X21375Y-19075D01*
X21375Y-18926D01*
X21318Y-18788D01*
X21213Y-18683D01*
X21075Y-18625D01*
X20926Y-18625D01*
X20788Y-18682D01*
X20683Y-18787D01*
X20625Y-18925D01*
X20625Y-19074D01*
X20682Y-19212D01*
X20787Y-19317D01*
X20925Y-19375D01*
X21074Y-19375D01*
X21212Y-19318D01*
X21317Y-19213D01*
X21375Y-19075D01*
X21375Y-23146D01*
X21288Y-23182D01*
X21183Y-23287D01*
X21125Y-23425D01*
X21125Y-23574D01*
X21177Y-23700D01*
X21125Y-23825D01*
X21125Y-23974D01*
X21177Y-24100D01*
X21125Y-24225D01*
X21125Y-24374D01*
X21177Y-24500D01*
X21125Y-24625D01*
X21125Y-24774D01*
X21177Y-24900D01*
X21125Y-25025D01*
X21125Y-25174D01*
X21177Y-25300D01*
X21125Y-25425D01*
X21125Y-25574D01*
X21177Y-25700D01*
X21125Y-25825D01*
X21125Y-25974D01*
X21182Y-26112D01*
X21287Y-26217D01*
X21425Y-26275D01*
X21574Y-26275D01*
X21712Y-26218D01*
X21817Y-26113D01*
X21875Y-25975D01*
X21875Y-25826D01*
X21822Y-25699D01*
X21875Y-25575D01*
X21875Y-25426D01*
X21822Y-25299D01*
X21875Y-25175D01*
X21875Y-25026D01*
X21822Y-24899D01*
X21875Y-24775D01*
X21875Y-24626D01*
X21822Y-24499D01*
X21875Y-24375D01*
X21875Y-24226D01*
X21822Y-24099D01*
X21875Y-23975D01*
X21875Y-23875D01*
X21974Y-23875D01*
X22112Y-23818D01*
X22217Y-23713D01*
X22275Y-23575D01*
X22275Y-29710D01*
X21120Y-29710D01*
X21217Y-29613D01*
X21275Y-29475D01*
X21275Y-29326D01*
X21222Y-29199D01*
X21275Y-29075D01*
X21275Y-28926D01*
X21218Y-28788D01*
X21113Y-28683D01*
X20975Y-28625D01*
X20826Y-28625D01*
X20775Y-28646D01*
X20775Y-19875D01*
X20775Y-19726D01*
X20718Y-19588D01*
X20613Y-19483D01*
X20575Y-19467D01*
X20575Y-19426D01*
X20518Y-19288D01*
X20413Y-19183D01*
X20375Y-19167D01*
X20375Y-19126D01*
X20318Y-18988D01*
X20213Y-18883D01*
X20175Y-18867D01*
X20175Y-18826D01*
X20118Y-18688D01*
X20013Y-18583D01*
X19975Y-18567D01*
X19975Y-18526D01*
X19918Y-18388D01*
X19813Y-18283D01*
X19775Y-18267D01*
X19775Y-18226D01*
X19718Y-18088D01*
X19613Y-17983D01*
X19575Y-17967D01*
X19575Y-17926D01*
X19518Y-17788D01*
X19413Y-17683D01*
X19375Y-17667D01*
X19375Y-17626D01*
X19318Y-17488D01*
X19213Y-17383D01*
X19075Y-17325D01*
X19075Y-16175D01*
X19075Y-16026D01*
X19018Y-15888D01*
X18913Y-15783D01*
X18775Y-15725D01*
X18626Y-15725D01*
X18488Y-15782D01*
X18383Y-15887D01*
X18325Y-16025D01*
X18325Y-16174D01*
X18382Y-16312D01*
X18487Y-16417D01*
X18625Y-16475D01*
X18774Y-16475D01*
X18912Y-16418D01*
X19017Y-16313D01*
X19075Y-16175D01*
X19075Y-17325D01*
X18926Y-17325D01*
X18788Y-17382D01*
X18683Y-17487D01*
X18625Y-17625D01*
X18625Y-17774D01*
X18682Y-17912D01*
X18787Y-18017D01*
X18825Y-18032D01*
X18825Y-18074D01*
X18882Y-18212D01*
X18987Y-18317D01*
X19025Y-18332D01*
X19025Y-18374D01*
X19082Y-18512D01*
X19187Y-18617D01*
X19225Y-18632D01*
X19225Y-18674D01*
X19282Y-18812D01*
X19387Y-18917D01*
X19425Y-18932D01*
X19425Y-18974D01*
X19482Y-19112D01*
X19587Y-19217D01*
X19625Y-19232D01*
X19625Y-19274D01*
X19682Y-19412D01*
X19787Y-19517D01*
X19825Y-19532D01*
X19825Y-19574D01*
X19882Y-19712D01*
X19987Y-19817D01*
X20025Y-19832D01*
X20025Y-19874D01*
X20082Y-20012D01*
X20187Y-20117D01*
X20325Y-20175D01*
X20474Y-20175D01*
X20612Y-20118D01*
X20717Y-20013D01*
X20775Y-19875D01*
X20775Y-28646D01*
X20688Y-28682D01*
X20583Y-28787D01*
X20525Y-28925D01*
X20525Y-29074D01*
X20577Y-29200D01*
X20525Y-29325D01*
X20525Y-29474D01*
X20582Y-29612D01*
X20680Y-29710D01*
X18975Y-29710D01*
X18975Y-20075D01*
X18975Y-19926D01*
X18918Y-19788D01*
X18813Y-19683D01*
X18675Y-19625D01*
X18526Y-19625D01*
X18399Y-19677D01*
X18275Y-19625D01*
X18126Y-19625D01*
X17999Y-19677D01*
X17875Y-19625D01*
X17726Y-19625D01*
X17599Y-19677D01*
X17475Y-19625D01*
X17433Y-19625D01*
X17418Y-19588D01*
X17313Y-19483D01*
X17175Y-19425D01*
X17026Y-19425D01*
X16888Y-19482D01*
X16783Y-19587D01*
X16767Y-19625D01*
X16726Y-19625D01*
X16588Y-19682D01*
X16483Y-19787D01*
X16425Y-19925D01*
X16425Y-20074D01*
X16482Y-20212D01*
X16587Y-20317D01*
X16725Y-20375D01*
X16874Y-20375D01*
X17012Y-20318D01*
X17100Y-20230D01*
X17187Y-20317D01*
X17325Y-20375D01*
X17474Y-20375D01*
X17600Y-20322D01*
X17725Y-20375D01*
X17874Y-20375D01*
X18000Y-20322D01*
X18125Y-20375D01*
X18274Y-20375D01*
X18400Y-20322D01*
X18525Y-20375D01*
X18674Y-20375D01*
X18812Y-20318D01*
X18917Y-20213D01*
X18975Y-20075D01*
X18975Y-29710D01*
X18275Y-29710D01*
X18275Y-26375D01*
X18275Y-26226D01*
X18222Y-26099D01*
X18275Y-25975D01*
X18275Y-25826D01*
X18222Y-25699D01*
X18275Y-25575D01*
X18275Y-25426D01*
X18218Y-25288D01*
X18113Y-25183D01*
X17975Y-25125D01*
X17853Y-25125D01*
X17875Y-25075D01*
X17875Y-24926D01*
X17818Y-24788D01*
X17713Y-24683D01*
X17575Y-24625D01*
X17426Y-24625D01*
X17288Y-24682D01*
X17265Y-24704D01*
X17218Y-24588D01*
X17113Y-24483D01*
X16975Y-24425D01*
X16826Y-24425D01*
X16688Y-24482D01*
X16583Y-24587D01*
X16525Y-24725D01*
X16525Y-24874D01*
X16582Y-25012D01*
X16687Y-25117D01*
X16803Y-25166D01*
X16783Y-25187D01*
X16725Y-25325D01*
X16725Y-25474D01*
X16782Y-25612D01*
X16887Y-25717D01*
X17025Y-25775D01*
X17174Y-25775D01*
X17300Y-25722D01*
X17425Y-25775D01*
X17546Y-25775D01*
X17525Y-25825D01*
X17525Y-25974D01*
X17577Y-26100D01*
X17525Y-26225D01*
X17525Y-26374D01*
X17582Y-26512D01*
X17687Y-26617D01*
X17825Y-26675D01*
X17974Y-26675D01*
X18112Y-26618D01*
X18217Y-26513D01*
X18275Y-26375D01*
X18275Y-29710D01*
X17220Y-29710D01*
X15475Y-27965D01*
X15475Y-18775D01*
X15475Y-18626D01*
X15418Y-18488D01*
X15313Y-18383D01*
X15175Y-18325D01*
X15026Y-18325D01*
X14888Y-18382D01*
X14875Y-18395D01*
X14875Y-16675D01*
X14875Y-16526D01*
X14818Y-16388D01*
X14713Y-16283D01*
X14575Y-16225D01*
X14426Y-16225D01*
X14288Y-16282D01*
X14183Y-16387D01*
X14125Y-16525D01*
X14125Y-16674D01*
X14182Y-16812D01*
X14287Y-16917D01*
X14425Y-16975D01*
X14574Y-16975D01*
X14712Y-16918D01*
X14817Y-16813D01*
X14875Y-16675D01*
X14875Y-18395D01*
X14783Y-18487D01*
X14725Y-18625D01*
X14725Y-18774D01*
X14782Y-18912D01*
X14887Y-19017D01*
X15025Y-19075D01*
X15174Y-19075D01*
X15312Y-19018D01*
X15417Y-18913D01*
X15475Y-18775D01*
X15475Y-27965D01*
X12990Y-25480D01*
X12990Y-16450D01*
X12989Y-16449D01*
X12968Y-16339D01*
X12967Y-16338D01*
X12905Y-16245D01*
X12904Y-16244D01*
X12540Y-15880D01*
X12549Y-15859D01*
X12549Y-15641D01*
X12465Y-15439D01*
X12311Y-15285D01*
X12109Y-15201D01*
X11891Y-15201D01*
X11689Y-15285D01*
X11549Y-15425D01*
X11549Y-15401D01*
X11511Y-15309D01*
X11441Y-15239D01*
X11350Y-15201D01*
X11251Y-15201D01*
X10651Y-15201D01*
X10559Y-15239D01*
X10489Y-15309D01*
X10451Y-15400D01*
X10451Y-15499D01*
X10451Y-16099D01*
X10489Y-16191D01*
X10559Y-16261D01*
X10650Y-16299D01*
X10675Y-16299D01*
X10535Y-16439D01*
X10451Y-16641D01*
X10451Y-16859D01*
X10535Y-17061D01*
X10689Y-17215D01*
X10773Y-17250D01*
X10689Y-17285D01*
X10535Y-17439D01*
X10451Y-17641D01*
X10451Y-17859D01*
X10535Y-18061D01*
X10689Y-18215D01*
X10773Y-18250D01*
X10689Y-18285D01*
X10535Y-18439D01*
X10451Y-18641D01*
X10451Y-18859D01*
X10535Y-19061D01*
X10689Y-19215D01*
X10891Y-19299D01*
X11109Y-19299D01*
X11311Y-19215D01*
X11465Y-19061D01*
X11500Y-18976D01*
X11535Y-19061D01*
X11689Y-19215D01*
X11891Y-19299D01*
X12109Y-19299D01*
X12210Y-19257D01*
X12210Y-19993D01*
X12109Y-19951D01*
X11891Y-19951D01*
X11689Y-20035D01*
X11549Y-20175D01*
X11549Y-20151D01*
X11511Y-20059D01*
X11441Y-19989D01*
X11350Y-19951D01*
X11251Y-19951D01*
X10651Y-19951D01*
X10559Y-19989D01*
X10489Y-20059D01*
X10451Y-20150D01*
X10451Y-20249D01*
X10451Y-20849D01*
X10489Y-20941D01*
X10559Y-21011D01*
X10650Y-21049D01*
X10675Y-21049D01*
X10535Y-21189D01*
X10451Y-21391D01*
X10451Y-21609D01*
X10535Y-21811D01*
X10689Y-21965D01*
X10773Y-22000D01*
X10689Y-22035D01*
X10535Y-22189D01*
X10451Y-22391D01*
X10451Y-22609D01*
X10535Y-22811D01*
X10689Y-22965D01*
X10773Y-23000D01*
X10689Y-23035D01*
X10535Y-23189D01*
X10451Y-23391D01*
X10451Y-23609D01*
X10535Y-23811D01*
X10689Y-23965D01*
X10891Y-24049D01*
X11109Y-24049D01*
X11311Y-23965D01*
X11465Y-23811D01*
X11500Y-23726D01*
X11535Y-23811D01*
X11689Y-23965D01*
X11891Y-24049D01*
X12109Y-24049D01*
X12210Y-24007D01*
X12210Y-24743D01*
X12109Y-24701D01*
X11891Y-24701D01*
X11689Y-24785D01*
X11549Y-24925D01*
X11549Y-24901D01*
X11511Y-24809D01*
X11441Y-24739D01*
X11350Y-24701D01*
X11251Y-24701D01*
X10651Y-24701D01*
X10559Y-24739D01*
X10489Y-24809D01*
X10451Y-24900D01*
X10451Y-24999D01*
X10451Y-25599D01*
X10489Y-25691D01*
X10559Y-25761D01*
X10650Y-25799D01*
X10675Y-25799D01*
X10535Y-25939D01*
X10451Y-26141D01*
X10451Y-26359D01*
X10535Y-26561D01*
X10689Y-26715D01*
X10773Y-26750D01*
X10689Y-26785D01*
X10535Y-26939D01*
X10451Y-27141D01*
X10451Y-27359D01*
X10535Y-27561D01*
X10689Y-27715D01*
X10773Y-27750D01*
X10689Y-27785D01*
X10535Y-27939D01*
X10451Y-28141D01*
X10451Y-28359D01*
X10535Y-28561D01*
X10689Y-28715D01*
X10891Y-28799D01*
X11109Y-28799D01*
X11311Y-28715D01*
X11465Y-28561D01*
X11500Y-28476D01*
X11535Y-28561D01*
X11689Y-28715D01*
X11891Y-28799D01*
X12109Y-28799D01*
X12311Y-28715D01*
X12465Y-28561D01*
X12473Y-28540D01*
X13730Y-28540D01*
X16395Y-31205D01*
X16489Y-31268D01*
X16600Y-31290D01*
X20481Y-31290D01*
X20425Y-31425D01*
X20425Y-31574D01*
X20482Y-31712D01*
X20587Y-31817D01*
X20725Y-31875D01*
X20874Y-31875D01*
X21012Y-31818D01*
X21117Y-31713D01*
X21175Y-31575D01*
X21175Y-31426D01*
X21118Y-31290D01*
X23180Y-31290D01*
X23083Y-31387D01*
X23025Y-31525D01*
X23025Y-31674D01*
X23082Y-31812D01*
X23187Y-31917D01*
X23325Y-31975D01*
X23474Y-31975D01*
X23612Y-31918D01*
X23717Y-31813D01*
X23775Y-31675D01*
X23775Y-31526D01*
X23718Y-31388D01*
X23620Y-31290D01*
X34580Y-31290D01*
X35785Y-32495D01*
X35689Y-32535D01*
X35535Y-32689D01*
X35500Y-32773D01*
X35465Y-32689D01*
X35311Y-32535D01*
X35109Y-32451D01*
X34891Y-32451D01*
X34689Y-32535D01*
X34535Y-32689D01*
X34500Y-32773D01*
X34465Y-32689D01*
X34311Y-32535D01*
X34109Y-32451D01*
X33891Y-32451D01*
X33689Y-32535D01*
X33535Y-32689D01*
X33500Y-32773D01*
X33465Y-32689D01*
X33311Y-32535D01*
X33109Y-32451D01*
X32891Y-32451D01*
X32689Y-32535D01*
X32535Y-32689D01*
X32500Y-32773D01*
X32465Y-32689D01*
X32311Y-32535D01*
X32109Y-32451D01*
X31891Y-32451D01*
X31689Y-32535D01*
X31535Y-32689D01*
X31500Y-32773D01*
X31465Y-32689D01*
X31311Y-32535D01*
X31109Y-32451D01*
X30891Y-32451D01*
X30689Y-32535D01*
X30535Y-32689D01*
X30500Y-32773D01*
X30465Y-32689D01*
X30311Y-32535D01*
X30109Y-32451D01*
X29891Y-32451D01*
X29689Y-32535D01*
X29535Y-32689D01*
X29500Y-32773D01*
X29465Y-32689D01*
X29311Y-32535D01*
X29109Y-32451D01*
X28891Y-32451D01*
X28689Y-32535D01*
X28535Y-32689D01*
X28500Y-32773D01*
X28465Y-32689D01*
X28328Y-32552D01*
X28412Y-32518D01*
X28517Y-32413D01*
X28575Y-32275D01*
X28575Y-32126D01*
X28518Y-31988D01*
X28413Y-31883D01*
X28275Y-31825D01*
X28126Y-31825D01*
X27988Y-31882D01*
X27883Y-31987D01*
X27825Y-32125D01*
X27825Y-32274D01*
X27882Y-32412D01*
X27921Y-32451D01*
X27891Y-32451D01*
X27689Y-32535D01*
X27535Y-32689D01*
X27500Y-32773D01*
X27465Y-32689D01*
X27311Y-32535D01*
X27109Y-32451D01*
X26891Y-32451D01*
X26689Y-32535D01*
X26535Y-32689D01*
X26500Y-32773D01*
X26465Y-32689D01*
X26311Y-32535D01*
X26109Y-32451D01*
X25891Y-32451D01*
X25689Y-32535D01*
X25535Y-32689D01*
X25500Y-32773D01*
X25465Y-32689D01*
X25311Y-32535D01*
X25109Y-32451D01*
X24891Y-32451D01*
X24689Y-32535D01*
X24535Y-32689D01*
X24500Y-32773D01*
X24465Y-32689D01*
X24328Y-32552D01*
X24412Y-32518D01*
X24517Y-32413D01*
X24575Y-32275D01*
X24575Y-32126D01*
X24518Y-31988D01*
X24413Y-31883D01*
X24275Y-31825D01*
X24126Y-31825D01*
X23988Y-31882D01*
X23883Y-31987D01*
X23825Y-32125D01*
X23825Y-32274D01*
X23882Y-32412D01*
X23921Y-32451D01*
X23891Y-32451D01*
X23689Y-32535D01*
X23535Y-32689D01*
X23500Y-32773D01*
X23465Y-32689D01*
X23311Y-32535D01*
X23109Y-32451D01*
X22891Y-32451D01*
X22689Y-32535D01*
X22535Y-32689D01*
X22500Y-32773D01*
X22465Y-32689D01*
X22311Y-32535D01*
X22109Y-32451D01*
X21891Y-32451D01*
X21689Y-32535D01*
X21535Y-32689D01*
X21500Y-32773D01*
X21465Y-32689D01*
X21311Y-32535D01*
X21109Y-32451D01*
X20891Y-32451D01*
X20689Y-32535D01*
X20535Y-32689D01*
X20500Y-32773D01*
X20465Y-32689D01*
X20311Y-32535D01*
X20109Y-32451D01*
X19891Y-32451D01*
X19689Y-32535D01*
X19535Y-32689D01*
X19500Y-32773D01*
X19465Y-32689D01*
X19311Y-32535D01*
X19109Y-32451D01*
X18891Y-32451D01*
X18689Y-32535D01*
X18535Y-32689D01*
X18500Y-32773D01*
X18465Y-32689D01*
X18311Y-32535D01*
X18109Y-32451D01*
X17891Y-32451D01*
X17689Y-32535D01*
X17535Y-32689D01*
X17500Y-32773D01*
X17465Y-32689D01*
X17311Y-32535D01*
X17109Y-32451D01*
X16891Y-32451D01*
X16689Y-32535D01*
X16535Y-32689D01*
X16500Y-32773D01*
X16465Y-32689D01*
X16311Y-32535D01*
X16109Y-32451D01*
X15891Y-32451D01*
X15689Y-32535D01*
X15535Y-32689D01*
X15500Y-32773D01*
X15465Y-32689D01*
X15311Y-32535D01*
X15109Y-32451D01*
X14891Y-32451D01*
X14689Y-32535D01*
X14535Y-32689D01*
X14500Y-32773D01*
X14465Y-32689D01*
X14311Y-32535D01*
X14275Y-32520D01*
X14275Y-29975D01*
X14275Y-29826D01*
X14218Y-29688D01*
X14113Y-29583D01*
X13975Y-29525D01*
X13826Y-29525D01*
X13688Y-29582D01*
X13583Y-29687D01*
X13525Y-29825D01*
X13525Y-29974D01*
X13582Y-30112D01*
X13687Y-30217D01*
X13825Y-30275D01*
X13974Y-30275D01*
X14112Y-30218D01*
X14217Y-30113D01*
X14275Y-29975D01*
X14275Y-32520D01*
X14109Y-32451D01*
X13891Y-32451D01*
X13689Y-32535D01*
X13535Y-32689D01*
X13500Y-32773D01*
X13465Y-32689D01*
X13311Y-32535D01*
X13109Y-32451D01*
X12891Y-32451D01*
X12689Y-32535D01*
X12535Y-32689D01*
X12500Y-32773D01*
X12465Y-32689D01*
X12311Y-32535D01*
X12109Y-32451D01*
X11891Y-32451D01*
X11689Y-32535D01*
X11535Y-32689D01*
X11451Y-32891D01*
X11451Y-33109D01*
X11535Y-33311D01*
X11675Y-33451D01*
X11651Y-33451D01*
X11559Y-33489D01*
X11489Y-33559D01*
X11451Y-33650D01*
X11451Y-33749D01*
X11451Y-34349D01*
X11489Y-34441D01*
X11559Y-34511D01*
X11650Y-34549D01*
X11749Y-34549D01*
X12349Y-34549D01*
X12441Y-34511D01*
X12511Y-34441D01*
X12549Y-34350D01*
X12549Y-34325D01*
X12689Y-34465D01*
X12891Y-34549D01*
X13109Y-34549D01*
X13311Y-34465D01*
X13465Y-34311D01*
X13500Y-34226D01*
X13535Y-34311D01*
X13689Y-34465D01*
X13891Y-34549D01*
X14109Y-34549D01*
X14311Y-34465D01*
X14465Y-34311D01*
X14500Y-34226D01*
X14535Y-34311D01*
X14689Y-34465D01*
X14891Y-34549D01*
X15109Y-34549D01*
X15311Y-34465D01*
X15465Y-34311D01*
X15500Y-34226D01*
X15535Y-34311D01*
X15689Y-34465D01*
X15891Y-34549D01*
X16109Y-34549D01*
X16311Y-34465D01*
X16465Y-34311D01*
X16500Y-34226D01*
X16535Y-34311D01*
X16689Y-34465D01*
X16891Y-34549D01*
X17109Y-34549D01*
X17311Y-34465D01*
X17465Y-34311D01*
X17500Y-34226D01*
X17535Y-34311D01*
X17689Y-34465D01*
X17891Y-34549D01*
X18109Y-34549D01*
X18311Y-34465D01*
X18465Y-34311D01*
X18500Y-34226D01*
X18535Y-34311D01*
X18689Y-34465D01*
X18891Y-34549D01*
X19109Y-34549D01*
X19311Y-34465D01*
X19465Y-34311D01*
X19500Y-34226D01*
X19535Y-34311D01*
X19689Y-34465D01*
X19891Y-34549D01*
X20109Y-34549D01*
X20311Y-34465D01*
X20465Y-34311D01*
X20500Y-34226D01*
X20535Y-34311D01*
X20689Y-34465D01*
X20891Y-34549D01*
X21109Y-34549D01*
X21311Y-34465D01*
X21465Y-34311D01*
X21500Y-34226D01*
X21535Y-34311D01*
X21689Y-34465D01*
X21891Y-34549D01*
X22109Y-34549D01*
X22311Y-34465D01*
X22465Y-34311D01*
X22500Y-34226D01*
X22535Y-34311D01*
X22689Y-34465D01*
X22891Y-34549D01*
X23109Y-34549D01*
X23311Y-34465D01*
X23465Y-34311D01*
X23500Y-34226D01*
X23535Y-34311D01*
X23689Y-34465D01*
X23891Y-34549D01*
X24109Y-34549D01*
X24311Y-34465D01*
X24465Y-34311D01*
X24500Y-34226D01*
X24535Y-34311D01*
X24689Y-34465D01*
X24891Y-34549D01*
X25109Y-34549D01*
X25311Y-34465D01*
X25465Y-34311D01*
X25500Y-34226D01*
X25535Y-34311D01*
X25689Y-34465D01*
X25891Y-34549D01*
X26109Y-34549D01*
X26311Y-34465D01*
X26465Y-34311D01*
X26500Y-34226D01*
X26535Y-34311D01*
X26689Y-34465D01*
X26891Y-34549D01*
X27109Y-34549D01*
X27311Y-34465D01*
X27465Y-34311D01*
X27500Y-34226D01*
X27535Y-34311D01*
X27689Y-34465D01*
X27891Y-34549D01*
X28109Y-34549D01*
X28311Y-34465D01*
X28465Y-34311D01*
X28500Y-34226D01*
X28535Y-34311D01*
X28689Y-34465D01*
X28891Y-34549D01*
X29109Y-34549D01*
X29311Y-34465D01*
X29465Y-34311D01*
X29500Y-34226D01*
X29535Y-34311D01*
X29689Y-34465D01*
X29891Y-34549D01*
X30109Y-34549D01*
X30311Y-34465D01*
X30465Y-34311D01*
X30500Y-34226D01*
X30535Y-34311D01*
X30689Y-34465D01*
X30891Y-34549D01*
X31109Y-34549D01*
X31311Y-34465D01*
X31465Y-34311D01*
X31500Y-34226D01*
X31535Y-34311D01*
X31689Y-34465D01*
X31891Y-34549D01*
X32109Y-34549D01*
X32311Y-34465D01*
X32465Y-34311D01*
X32500Y-34226D01*
X32535Y-34311D01*
X32689Y-34465D01*
X32891Y-34549D01*
X33109Y-34549D01*
X33311Y-34465D01*
X33465Y-34311D01*
X33500Y-34226D01*
X33535Y-34311D01*
X33689Y-34465D01*
X33891Y-34549D01*
X34109Y-34549D01*
X34311Y-34465D01*
X34465Y-34311D01*
X34500Y-34226D01*
X34535Y-34311D01*
X34689Y-34465D01*
X34891Y-34549D01*
X35109Y-34549D01*
X35130Y-34540D01*
X35295Y-34705D01*
X35389Y-34768D01*
X35500Y-34790D01*
X40200Y-34790D01*
X40311Y-34768D01*
X40405Y-34705D01*
X40667Y-34443D01*
X40689Y-34465D01*
X40891Y-34549D01*
X41109Y-34549D01*
X41311Y-34465D01*
X41465Y-34311D01*
X41500Y-34226D01*
X41535Y-34311D01*
X41689Y-34465D01*
X41891Y-34549D01*
X42109Y-34549D01*
X42311Y-34465D01*
X42465Y-34311D01*
X42502Y-34219D01*
X42528Y-34281D01*
X42622Y-34308D01*
X42929Y-34000D01*
X42622Y-33692D01*
X42528Y-33719D01*
X42504Y-33784D01*
X42465Y-33689D01*
X42311Y-33535D01*
X42226Y-33500D01*
X42311Y-33465D01*
X42465Y-33311D01*
X42500Y-33226D01*
X42535Y-33311D01*
X42689Y-33465D01*
X42780Y-33502D01*
X42719Y-33528D01*
X42692Y-33622D01*
X43000Y-33929D01*
X43308Y-33622D01*
X43281Y-33528D01*
X43215Y-33504D01*
X43311Y-33465D01*
X43465Y-33311D01*
X43549Y-33109D01*
X43549Y-37675D01*
X43543Y-37675D01*
X43543Y-34079D01*
X43532Y-33866D01*
X43472Y-33719D01*
X43378Y-33692D01*
X43071Y-34000D01*
X43378Y-34308D01*
X43472Y-34281D01*
X43543Y-34079D01*
X43543Y-37675D01*
X43308Y-37675D01*
X43308Y-34378D01*
X43000Y-34071D01*
X42692Y-34378D01*
X42719Y-34472D01*
X42921Y-34543D01*
X43134Y-34532D01*
X43281Y-34472D01*
X43308Y-34378D01*
X43308Y-37675D01*
X10325Y-37675D01*
X10325Y-06325D01*
X47175Y-06325D01*
X47175Y-37675D01*
X47175Y-37675D01*
G37*
G54D16*
X47175Y-37675D02*
X47049Y-37675D01*
X47049Y-37109D01*
X47049Y-36891D01*
X46999Y-36770D01*
X46965Y-36689D01*
X46811Y-36535D01*
X46726Y-36500D01*
X46811Y-36465D01*
X46965Y-36311D01*
X46999Y-36229D01*
X47049Y-36109D01*
X47049Y-35891D01*
X46999Y-35770D01*
X46965Y-35689D01*
X46811Y-35535D01*
X46726Y-35500D01*
X46811Y-35465D01*
X46965Y-35311D01*
X46999Y-35229D01*
X47049Y-35109D01*
X47049Y-34891D01*
X46999Y-34770D01*
X46965Y-34689D01*
X46811Y-34535D01*
X46726Y-34500D01*
X46811Y-34465D01*
X46965Y-34311D01*
X46999Y-34229D01*
X47049Y-34109D01*
X47049Y-33891D01*
X46999Y-33770D01*
X46965Y-33689D01*
X46811Y-33535D01*
X46609Y-33451D01*
X46391Y-33451D01*
X46189Y-33535D01*
X46049Y-33675D01*
X46049Y-33651D01*
X46011Y-33559D01*
X45941Y-33489D01*
X45850Y-33451D01*
X45751Y-33451D01*
X45290Y-33451D01*
X45290Y-33007D01*
X45391Y-33049D01*
X45609Y-33049D01*
X45811Y-32965D01*
X45965Y-32811D01*
X46000Y-32726D01*
X46035Y-32811D01*
X46189Y-32965D01*
X46391Y-33049D01*
X46609Y-33049D01*
X46811Y-32965D01*
X46965Y-32811D01*
X46999Y-32729D01*
X47049Y-32609D01*
X47049Y-32391D01*
X46999Y-32270D01*
X46965Y-32189D01*
X46811Y-32035D01*
X46726Y-32000D01*
X46811Y-31965D01*
X46965Y-31811D01*
X46999Y-31729D01*
X47049Y-31609D01*
X47049Y-31391D01*
X46999Y-31270D01*
X46965Y-31189D01*
X46811Y-31035D01*
X46726Y-31000D01*
X46811Y-30965D01*
X46965Y-30811D01*
X46999Y-30729D01*
X47049Y-30609D01*
X47049Y-30391D01*
X46999Y-30270D01*
X46965Y-30189D01*
X46811Y-30035D01*
X46726Y-30000D01*
X46811Y-29965D01*
X46965Y-29811D01*
X46999Y-29729D01*
X47049Y-29609D01*
X47049Y-29391D01*
X46999Y-29270D01*
X46999Y-27550D01*
X46999Y-26848D01*
X46999Y-24400D01*
X46999Y-23698D01*
X46293Y-23698D01*
X46293Y-24400D01*
X46999Y-24400D01*
X46999Y-26848D01*
X46293Y-26848D01*
X46293Y-27550D01*
X46999Y-27550D01*
X46999Y-29270D01*
X46965Y-29189D01*
X46811Y-29035D01*
X46609Y-28951D01*
X46391Y-28951D01*
X46189Y-29035D01*
X46049Y-29175D01*
X46049Y-29151D01*
X46011Y-29059D01*
X45941Y-28989D01*
X45850Y-28951D01*
X45751Y-28951D01*
X45290Y-28951D01*
X45290Y-21507D01*
X45391Y-21549D01*
X45609Y-21549D01*
X45811Y-21465D01*
X45965Y-21311D01*
X46000Y-21226D01*
X46035Y-21311D01*
X46189Y-21465D01*
X46391Y-21549D01*
X46609Y-21549D01*
X46811Y-21465D01*
X46965Y-21311D01*
X47049Y-21109D01*
X47049Y-20891D01*
X46965Y-20689D01*
X46811Y-20535D01*
X46726Y-20500D01*
X46811Y-20465D01*
X46965Y-20311D01*
X47049Y-20109D01*
X47049Y-19891D01*
X46965Y-19689D01*
X46811Y-19535D01*
X46726Y-19500D01*
X46811Y-19465D01*
X46965Y-19311D01*
X47049Y-19109D01*
X47049Y-18891D01*
X46965Y-18689D01*
X46811Y-18535D01*
X46726Y-18500D01*
X46811Y-18465D01*
X46965Y-18311D01*
X47049Y-18109D01*
X47049Y-17891D01*
X46965Y-17689D01*
X46811Y-17535D01*
X46726Y-17500D01*
X46811Y-17465D01*
X46965Y-17311D01*
X47049Y-17109D01*
X47049Y-16891D01*
X46965Y-16689D01*
X46811Y-16535D01*
X46726Y-16500D01*
X46811Y-16465D01*
X46965Y-16311D01*
X47049Y-16109D01*
X47049Y-15891D01*
X46965Y-15689D01*
X46811Y-15535D01*
X46609Y-15451D01*
X46391Y-15451D01*
X46189Y-15535D01*
X46049Y-15675D01*
X46049Y-15651D01*
X46011Y-15559D01*
X45941Y-15489D01*
X45850Y-15451D01*
X45751Y-15451D01*
X45290Y-15451D01*
X45290Y-15120D01*
X45369Y-15040D01*
X45391Y-15049D01*
X45609Y-15049D01*
X45811Y-14965D01*
X45965Y-14811D01*
X46000Y-14726D01*
X46035Y-14811D01*
X46189Y-14965D01*
X46391Y-15049D01*
X46609Y-15049D01*
X46811Y-14965D01*
X46965Y-14811D01*
X47049Y-14609D01*
X47049Y-14391D01*
X46965Y-14189D01*
X46811Y-14035D01*
X46726Y-14000D01*
X46811Y-13965D01*
X46965Y-13811D01*
X47049Y-13609D01*
X47049Y-13391D01*
X46965Y-13189D01*
X46811Y-13035D01*
X46726Y-13000D01*
X46811Y-12965D01*
X46965Y-12811D01*
X47049Y-12609D01*
X47049Y-12391D01*
X46965Y-12189D01*
X46811Y-12035D01*
X46726Y-12000D01*
X46811Y-11965D01*
X46965Y-11811D01*
X47049Y-11609D01*
X47049Y-11391D01*
X46965Y-11189D01*
X46811Y-11035D01*
X46609Y-10951D01*
X46391Y-10951D01*
X46189Y-11035D01*
X46049Y-11175D01*
X46049Y-11151D01*
X46011Y-11059D01*
X45941Y-10989D01*
X45850Y-10951D01*
X45751Y-10951D01*
X45151Y-10951D01*
X45059Y-10989D01*
X44989Y-11059D01*
X44951Y-11150D01*
X44951Y-11249D01*
X44951Y-11638D01*
X44490Y-12099D01*
X44490Y-11420D01*
X45369Y-10540D01*
X45391Y-10549D01*
X45609Y-10549D01*
X45811Y-10465D01*
X45965Y-10311D01*
X46000Y-10226D01*
X46035Y-10311D01*
X46189Y-10465D01*
X46391Y-10549D01*
X46609Y-10549D01*
X46811Y-10465D01*
X46965Y-10311D01*
X47049Y-10109D01*
X47049Y-09891D01*
X46965Y-09689D01*
X46811Y-09535D01*
X46726Y-09500D01*
X46811Y-09465D01*
X46965Y-09311D01*
X47049Y-09109D01*
X47049Y-08891D01*
X46965Y-08689D01*
X46811Y-08535D01*
X46726Y-08500D01*
X46811Y-08465D01*
X46965Y-08311D01*
X47049Y-08109D01*
X47049Y-07891D01*
X46965Y-07689D01*
X46811Y-07535D01*
X46726Y-07500D01*
X46811Y-07465D01*
X46965Y-07311D01*
X47049Y-07109D01*
X47049Y-06891D01*
X46965Y-06689D01*
X46811Y-06535D01*
X46609Y-06451D01*
X46391Y-06451D01*
X46189Y-06535D01*
X46049Y-06675D01*
X46049Y-06651D01*
X46011Y-06559D01*
X45941Y-06489D01*
X45850Y-06451D01*
X45751Y-06451D01*
X45151Y-06451D01*
X45059Y-06489D01*
X44989Y-06559D01*
X44951Y-06650D01*
X44951Y-06749D01*
X44951Y-07139D01*
X43395Y-08695D01*
X43332Y-08789D01*
X43310Y-08900D01*
X43310Y-09451D01*
X43251Y-09451D01*
X42651Y-09451D01*
X42559Y-09489D01*
X42489Y-09559D01*
X42451Y-09650D01*
X42451Y-09675D01*
X42311Y-09535D01*
X42109Y-09451D01*
X41891Y-09451D01*
X41689Y-09535D01*
X41535Y-09689D01*
X41500Y-09773D01*
X41465Y-09689D01*
X41311Y-09535D01*
X41109Y-09451D01*
X40891Y-09451D01*
X40689Y-09535D01*
X40535Y-09689D01*
X40500Y-09773D01*
X40465Y-09689D01*
X40311Y-09535D01*
X40109Y-09451D01*
X39891Y-09451D01*
X39689Y-09535D01*
X39535Y-09689D01*
X39500Y-09773D01*
X39465Y-09689D01*
X39311Y-09535D01*
X39109Y-09451D01*
X38891Y-09451D01*
X38689Y-09535D01*
X38535Y-09689D01*
X38500Y-09773D01*
X38465Y-09689D01*
X38311Y-09535D01*
X38109Y-09451D01*
X37891Y-09451D01*
X37689Y-09535D01*
X37535Y-09689D01*
X37500Y-09773D01*
X37465Y-09689D01*
X37311Y-09535D01*
X37109Y-09451D01*
X36891Y-09451D01*
X36689Y-09535D01*
X36535Y-09689D01*
X36500Y-09773D01*
X36465Y-09689D01*
X36311Y-09535D01*
X36109Y-09451D01*
X35891Y-09451D01*
X35689Y-09535D01*
X35535Y-09689D01*
X35500Y-09773D01*
X35465Y-09689D01*
X35311Y-09535D01*
X35109Y-09451D01*
X34891Y-09451D01*
X34689Y-09535D01*
X34535Y-09689D01*
X34500Y-09773D01*
X34465Y-09689D01*
X34311Y-09535D01*
X34109Y-09451D01*
X33891Y-09451D01*
X33689Y-09535D01*
X33535Y-09689D01*
X33500Y-09773D01*
X33465Y-09689D01*
X33311Y-09535D01*
X33109Y-09451D01*
X32891Y-09451D01*
X32689Y-09535D01*
X32535Y-09689D01*
X32500Y-09773D01*
X32465Y-09689D01*
X32311Y-09535D01*
X32109Y-09451D01*
X31891Y-09451D01*
X31689Y-09535D01*
X31535Y-09689D01*
X31500Y-09773D01*
X31465Y-09689D01*
X31311Y-09535D01*
X31109Y-09451D01*
X30891Y-09451D01*
X30689Y-09535D01*
X30535Y-09689D01*
X30500Y-09773D01*
X30465Y-09689D01*
X30311Y-09535D01*
X30109Y-09451D01*
X29891Y-09451D01*
X29689Y-09535D01*
X29535Y-09689D01*
X29500Y-09773D01*
X29465Y-09689D01*
X29311Y-09535D01*
X29109Y-09451D01*
X28891Y-09451D01*
X28689Y-09535D01*
X28535Y-09689D01*
X28500Y-09773D01*
X28465Y-09689D01*
X28311Y-09535D01*
X28109Y-09451D01*
X27891Y-09451D01*
X27689Y-09535D01*
X27535Y-09689D01*
X27500Y-09773D01*
X27465Y-09689D01*
X27311Y-09535D01*
X27109Y-09451D01*
X26891Y-09451D01*
X26689Y-09535D01*
X26535Y-09689D01*
X26500Y-09773D01*
X26465Y-09689D01*
X26311Y-09535D01*
X26109Y-09451D01*
X25891Y-09451D01*
X25689Y-09535D01*
X25535Y-09689D01*
X25500Y-09773D01*
X25465Y-09689D01*
X25311Y-09535D01*
X25109Y-09451D01*
X24891Y-09451D01*
X24689Y-09535D01*
X24535Y-09689D01*
X24500Y-09773D01*
X24465Y-09689D01*
X24311Y-09535D01*
X24109Y-09451D01*
X23891Y-09451D01*
X23689Y-09535D01*
X23535Y-09689D01*
X23500Y-09773D01*
X23465Y-09689D01*
X23311Y-09535D01*
X23109Y-09451D01*
X22891Y-09451D01*
X22689Y-09535D01*
X22535Y-09689D01*
X22500Y-09773D01*
X22465Y-09689D01*
X22311Y-09535D01*
X22109Y-09451D01*
X21891Y-09451D01*
X21689Y-09535D01*
X21535Y-09689D01*
X21500Y-09773D01*
X21465Y-09689D01*
X21311Y-09535D01*
X21109Y-09451D01*
X20891Y-09451D01*
X20689Y-09535D01*
X20535Y-09689D01*
X20500Y-09773D01*
X20465Y-09689D01*
X20311Y-09535D01*
X20109Y-09451D01*
X19891Y-09451D01*
X19689Y-09535D01*
X19535Y-09689D01*
X19500Y-09773D01*
X19465Y-09689D01*
X19311Y-09535D01*
X19109Y-09451D01*
X18891Y-09451D01*
X18689Y-09535D01*
X18535Y-09689D01*
X18500Y-09773D01*
X18465Y-09689D01*
X18311Y-09535D01*
X18109Y-09451D01*
X17891Y-09451D01*
X17689Y-09535D01*
X17535Y-09689D01*
X17500Y-09773D01*
X17465Y-09689D01*
X17311Y-09535D01*
X17109Y-09451D01*
X16891Y-09451D01*
X16689Y-09535D01*
X16535Y-09689D01*
X16500Y-09773D01*
X16465Y-09689D01*
X16311Y-09535D01*
X16109Y-09451D01*
X15891Y-09451D01*
X15689Y-09535D01*
X15535Y-09689D01*
X15500Y-09773D01*
X15465Y-09689D01*
X15311Y-09535D01*
X15109Y-09451D01*
X14891Y-09451D01*
X14689Y-09535D01*
X14535Y-09689D01*
X14500Y-09773D01*
X14465Y-09689D01*
X14311Y-09535D01*
X14109Y-09451D01*
X13891Y-09451D01*
X13689Y-09535D01*
X13535Y-09689D01*
X13500Y-09773D01*
X13465Y-09689D01*
X13311Y-09535D01*
X13109Y-09451D01*
X12891Y-09451D01*
X12689Y-09535D01*
X12535Y-09689D01*
X12500Y-09773D01*
X12465Y-09689D01*
X12311Y-09535D01*
X12109Y-09451D01*
X11891Y-09451D01*
X11689Y-09535D01*
X11535Y-09689D01*
X11451Y-09891D01*
X11451Y-10109D01*
X11535Y-10311D01*
X11689Y-10465D01*
X11773Y-10500D01*
X11689Y-10535D01*
X11535Y-10689D01*
X11451Y-10891D01*
X11451Y-11109D01*
X11535Y-11311D01*
X11689Y-11465D01*
X11891Y-11549D01*
X12109Y-11549D01*
X12311Y-11465D01*
X12465Y-11311D01*
X12500Y-11226D01*
X12535Y-11311D01*
X12689Y-11465D01*
X12891Y-11549D01*
X13109Y-11549D01*
X13311Y-11465D01*
X13465Y-11311D01*
X13500Y-11226D01*
X13535Y-11311D01*
X13689Y-11465D01*
X13891Y-11549D01*
X14109Y-11549D01*
X14311Y-11465D01*
X14465Y-11311D01*
X14500Y-11226D01*
X14535Y-11311D01*
X14689Y-11465D01*
X14891Y-11549D01*
X15109Y-11549D01*
X15311Y-11465D01*
X15465Y-11311D01*
X15500Y-11226D01*
X15535Y-11311D01*
X15689Y-11465D01*
X15891Y-11549D01*
X16109Y-11549D01*
X16311Y-11465D01*
X16465Y-11311D01*
X16500Y-11226D01*
X16535Y-11311D01*
X16689Y-11465D01*
X16891Y-11549D01*
X17109Y-11549D01*
X17311Y-11465D01*
X17465Y-11311D01*
X17500Y-11226D01*
X17535Y-11311D01*
X17689Y-11465D01*
X17891Y-11549D01*
X18109Y-11549D01*
X18311Y-11465D01*
X18465Y-11311D01*
X18500Y-11226D01*
X18535Y-11311D01*
X18689Y-11465D01*
X18891Y-11549D01*
X19109Y-11549D01*
X19311Y-11465D01*
X19465Y-11311D01*
X19500Y-11226D01*
X19535Y-11311D01*
X19689Y-11465D01*
X19891Y-11549D01*
X20109Y-11549D01*
X20311Y-11465D01*
X20465Y-11311D01*
X20500Y-11226D01*
X20535Y-11311D01*
X20689Y-11465D01*
X20891Y-11549D01*
X21109Y-11549D01*
X21311Y-11465D01*
X21465Y-11311D01*
X21502Y-11219D01*
X21528Y-11281D01*
X21622Y-11308D01*
X21929Y-11000D01*
X21622Y-10692D01*
X21528Y-10719D01*
X21504Y-10784D01*
X21465Y-10689D01*
X21311Y-10535D01*
X21226Y-10500D01*
X21311Y-10465D01*
X21465Y-10311D01*
X21500Y-10226D01*
X21535Y-10311D01*
X21689Y-10465D01*
X21780Y-10502D01*
X21719Y-10528D01*
X21692Y-10622D01*
X22000Y-10929D01*
X22308Y-10622D01*
X22281Y-10528D01*
X22215Y-10504D01*
X22311Y-10465D01*
X22465Y-10311D01*
X22500Y-10226D01*
X22535Y-10311D01*
X22689Y-10465D01*
X22773Y-10500D01*
X22689Y-10535D01*
X22535Y-10689D01*
X22497Y-10780D01*
X22472Y-10719D01*
X22378Y-10692D01*
X22071Y-11000D01*
X22378Y-11308D01*
X22472Y-11281D01*
X22495Y-11215D01*
X22535Y-11311D01*
X22689Y-11465D01*
X22891Y-11549D01*
X23109Y-11549D01*
X23311Y-11465D01*
X23465Y-11311D01*
X23500Y-11226D01*
X23535Y-11311D01*
X23689Y-11465D01*
X23891Y-11549D01*
X24109Y-11549D01*
X24311Y-11465D01*
X24465Y-11311D01*
X24500Y-11226D01*
X24535Y-11311D01*
X24689Y-11465D01*
X24891Y-11549D01*
X25109Y-11549D01*
X25311Y-11465D01*
X25465Y-11311D01*
X25500Y-11226D01*
X25535Y-11311D01*
X25689Y-11465D01*
X25891Y-11549D01*
X26109Y-11549D01*
X26311Y-11465D01*
X26465Y-11311D01*
X26500Y-11226D01*
X26535Y-11311D01*
X26689Y-11465D01*
X26891Y-11549D01*
X27109Y-11549D01*
X27311Y-11465D01*
X27465Y-11311D01*
X27500Y-11226D01*
X27535Y-11311D01*
X27689Y-11465D01*
X27891Y-11549D01*
X28109Y-11549D01*
X28311Y-11465D01*
X28465Y-11311D01*
X28500Y-11226D01*
X28535Y-11311D01*
X28689Y-11465D01*
X28891Y-11549D01*
X29109Y-11549D01*
X29311Y-11465D01*
X29465Y-11311D01*
X29500Y-11226D01*
X29535Y-11311D01*
X29689Y-11465D01*
X29891Y-11549D01*
X30109Y-11549D01*
X30311Y-11465D01*
X30465Y-11311D01*
X30500Y-11226D01*
X30535Y-11311D01*
X30689Y-11465D01*
X30891Y-11549D01*
X31109Y-11549D01*
X31311Y-11465D01*
X31465Y-11311D01*
X31500Y-11226D01*
X31535Y-11311D01*
X31689Y-11465D01*
X31891Y-11549D01*
X32109Y-11549D01*
X32311Y-11465D01*
X32465Y-11311D01*
X32500Y-11226D01*
X32535Y-11311D01*
X32689Y-11465D01*
X32891Y-11549D01*
X33109Y-11549D01*
X33311Y-11465D01*
X33465Y-11311D01*
X33500Y-11226D01*
X33535Y-11311D01*
X33689Y-11465D01*
X33891Y-11549D01*
X34109Y-11549D01*
X34311Y-11465D01*
X34465Y-11311D01*
X34500Y-11226D01*
X34535Y-11311D01*
X34689Y-11465D01*
X34891Y-11549D01*
X35109Y-11549D01*
X35311Y-11465D01*
X35465Y-11311D01*
X35500Y-11226D01*
X35535Y-11311D01*
X35689Y-11465D01*
X35891Y-11549D01*
X36109Y-11549D01*
X36311Y-11465D01*
X36465Y-11311D01*
X36500Y-11226D01*
X36535Y-11311D01*
X36689Y-11465D01*
X36891Y-11549D01*
X37109Y-11549D01*
X37311Y-11465D01*
X37465Y-11311D01*
X37500Y-11226D01*
X37535Y-11311D01*
X37689Y-11465D01*
X37891Y-11549D01*
X38109Y-11549D01*
X38311Y-11465D01*
X38465Y-11311D01*
X38500Y-11226D01*
X38535Y-11311D01*
X38689Y-11465D01*
X38891Y-11549D01*
X39109Y-11549D01*
X39311Y-11465D01*
X39465Y-11311D01*
X39500Y-11226D01*
X39535Y-11311D01*
X39689Y-11465D01*
X39891Y-11549D01*
X40109Y-11549D01*
X40311Y-11465D01*
X40465Y-11311D01*
X40500Y-11226D01*
X40535Y-11311D01*
X40689Y-11465D01*
X40891Y-11549D01*
X41109Y-11549D01*
X41311Y-11465D01*
X41465Y-11311D01*
X41500Y-11226D01*
X41535Y-11311D01*
X41689Y-11465D01*
X41709Y-11473D01*
X41688Y-11482D01*
X41583Y-11587D01*
X41525Y-11725D01*
X41525Y-11874D01*
X41582Y-12012D01*
X41687Y-12117D01*
X41825Y-12175D01*
X41974Y-12175D01*
X42112Y-12118D01*
X42217Y-12013D01*
X42275Y-11875D01*
X42275Y-11726D01*
X42218Y-11588D01*
X42158Y-11528D01*
X42311Y-11465D01*
X42465Y-11311D01*
X42500Y-11226D01*
X42535Y-11311D01*
X42689Y-11465D01*
X42891Y-11549D01*
X43109Y-11549D01*
X43310Y-11465D01*
X43310Y-29172D01*
X43288Y-29182D01*
X43183Y-29287D01*
X43125Y-29425D01*
X43125Y-29574D01*
X43182Y-29712D01*
X43287Y-29817D01*
X43425Y-29875D01*
X43510Y-29875D01*
X43510Y-30172D01*
X43488Y-30182D01*
X43383Y-30287D01*
X43325Y-30425D01*
X43325Y-30574D01*
X43346Y-30625D01*
X43226Y-30625D01*
X43088Y-30682D01*
X42983Y-30787D01*
X42925Y-30925D01*
X42925Y-31074D01*
X42982Y-31212D01*
X43087Y-31317D01*
X43225Y-31375D01*
X43374Y-31375D01*
X43512Y-31318D01*
X43617Y-31213D01*
X43675Y-31075D01*
X43675Y-30926D01*
X43653Y-30875D01*
X43710Y-30875D01*
X43710Y-31172D01*
X43688Y-31182D01*
X43583Y-31287D01*
X43525Y-31425D01*
X43525Y-31574D01*
X43582Y-31712D01*
X43687Y-31817D01*
X43825Y-31875D01*
X43910Y-31875D01*
X43910Y-32172D01*
X43888Y-32182D01*
X43783Y-32287D01*
X43725Y-32425D01*
X43725Y-32574D01*
X43782Y-32712D01*
X43887Y-32817D01*
X44025Y-32875D01*
X44110Y-32875D01*
X44110Y-33672D01*
X44088Y-33682D01*
X43983Y-33787D01*
X43925Y-33925D01*
X43925Y-34074D01*
X43982Y-34212D01*
X44087Y-34317D01*
X44225Y-34375D01*
X44310Y-34375D01*
X44310Y-34672D01*
X44288Y-34682D01*
X44183Y-34787D01*
X44125Y-34925D01*
X44125Y-35074D01*
X44182Y-35212D01*
X44287Y-35317D01*
X44425Y-35375D01*
X44510Y-35375D01*
X44510Y-35672D01*
X44488Y-35682D01*
X44383Y-35787D01*
X44325Y-35925D01*
X44325Y-36074D01*
X44382Y-36212D01*
X44487Y-36317D01*
X44625Y-36375D01*
X44710Y-36375D01*
X44710Y-36500D01*
X44732Y-36611D01*
X44795Y-36705D01*
X44959Y-36869D01*
X44951Y-36891D01*
X44951Y-37109D01*
X45035Y-37311D01*
X45189Y-37465D01*
X45391Y-37549D01*
X45609Y-37549D01*
X45811Y-37465D01*
X45965Y-37311D01*
X46000Y-37226D01*
X46035Y-37311D01*
X46189Y-37465D01*
X46391Y-37549D01*
X46609Y-37549D01*
X46811Y-37465D01*
X46965Y-37311D01*
X46999Y-37229D01*
X47049Y-37109D01*
X47049Y-37675D01*
X46999Y-37675D01*
X43549Y-37675D01*
X43549Y-33109D01*
X43549Y-32891D01*
X43465Y-32689D01*
X43311Y-32535D01*
X43109Y-32451D01*
X42891Y-32451D01*
X42875Y-32457D01*
X42875Y-20775D01*
X42875Y-20626D01*
X42818Y-20488D01*
X42713Y-20383D01*
X42575Y-20325D01*
X42426Y-20325D01*
X42288Y-20382D01*
X42183Y-20487D01*
X42125Y-20625D01*
X42125Y-20774D01*
X42182Y-20912D01*
X42287Y-21017D01*
X42425Y-21075D01*
X42574Y-21075D01*
X42712Y-21018D01*
X42817Y-20913D01*
X42875Y-20775D01*
X42875Y-32457D01*
X42689Y-32535D01*
X42535Y-32689D01*
X42500Y-32773D01*
X42475Y-32713D01*
X42475Y-28475D01*
X42475Y-28326D01*
X42418Y-28188D01*
X42313Y-28083D01*
X42175Y-28025D01*
X42100Y-28025D01*
X42100Y-25700D01*
X42100Y-25551D01*
X42043Y-25413D01*
X41938Y-25308D01*
X41800Y-25250D01*
X41651Y-25250D01*
X41513Y-25307D01*
X41408Y-25412D01*
X41350Y-25550D01*
X41350Y-25699D01*
X41407Y-25837D01*
X41512Y-25942D01*
X41650Y-26000D01*
X41799Y-26000D01*
X41937Y-25943D01*
X42042Y-25838D01*
X42100Y-25700D01*
X42100Y-28025D01*
X42075Y-28025D01*
X42075Y-26575D01*
X42075Y-26426D01*
X42018Y-26288D01*
X41913Y-26183D01*
X41775Y-26125D01*
X41626Y-26125D01*
X41488Y-26182D01*
X41383Y-26287D01*
X41325Y-26425D01*
X41325Y-26574D01*
X41382Y-26712D01*
X41487Y-26817D01*
X41625Y-26875D01*
X41774Y-26875D01*
X41912Y-26818D01*
X42017Y-26713D01*
X42075Y-26575D01*
X42075Y-28025D01*
X42026Y-28025D01*
X41888Y-28082D01*
X41783Y-28187D01*
X41725Y-28325D01*
X41725Y-28474D01*
X41782Y-28612D01*
X41887Y-28717D01*
X42025Y-28775D01*
X42174Y-28775D01*
X42312Y-28718D01*
X42417Y-28613D01*
X42475Y-28475D01*
X42475Y-32713D01*
X42465Y-32689D01*
X42311Y-32535D01*
X42109Y-32451D01*
X41891Y-32451D01*
X41689Y-32535D01*
X41535Y-32689D01*
X41500Y-32773D01*
X41465Y-32689D01*
X41311Y-32535D01*
X41109Y-32451D01*
X40891Y-32451D01*
X40775Y-32499D01*
X40775Y-30175D01*
X40775Y-30026D01*
X40718Y-29888D01*
X40700Y-29870D01*
X40700Y-25700D01*
X40700Y-25551D01*
X40643Y-25413D01*
X40538Y-25308D01*
X40400Y-25250D01*
X40251Y-25250D01*
X40113Y-25307D01*
X40008Y-25412D01*
X39950Y-25550D01*
X39950Y-25699D01*
X40007Y-25837D01*
X40112Y-25942D01*
X40250Y-26000D01*
X40399Y-26000D01*
X40537Y-25943D01*
X40642Y-25838D01*
X40700Y-25700D01*
X40700Y-29870D01*
X40613Y-29783D01*
X40475Y-29725D01*
X40326Y-29725D01*
X40188Y-29782D01*
X40083Y-29887D01*
X40025Y-30025D01*
X40025Y-30174D01*
X40082Y-30312D01*
X40187Y-30417D01*
X40325Y-30475D01*
X40474Y-30475D01*
X40612Y-30418D01*
X40717Y-30313D01*
X40775Y-30175D01*
X40775Y-32499D01*
X40689Y-32535D01*
X40667Y-32556D01*
X37705Y-29595D01*
X37611Y-29532D01*
X37500Y-29510D01*
X37049Y-29510D01*
X37049Y-22350D01*
X37049Y-22251D01*
X37049Y-21651D01*
X37011Y-21559D01*
X36941Y-21489D01*
X36850Y-21451D01*
X36751Y-21451D01*
X36151Y-21451D01*
X36059Y-21489D01*
X35989Y-21559D01*
X35951Y-21650D01*
X35951Y-21675D01*
X35811Y-21535D01*
X35609Y-21451D01*
X35391Y-21451D01*
X35189Y-21535D01*
X35035Y-21689D01*
X34951Y-21891D01*
X34951Y-22109D01*
X35035Y-22311D01*
X35189Y-22465D01*
X35391Y-22549D01*
X35609Y-22549D01*
X35811Y-22465D01*
X35951Y-22325D01*
X35951Y-22349D01*
X35989Y-22441D01*
X36059Y-22511D01*
X36150Y-22549D01*
X36249Y-22549D01*
X36849Y-22549D01*
X36941Y-22511D01*
X37011Y-22441D01*
X37049Y-22350D01*
X37049Y-29510D01*
X34575Y-29510D01*
X34575Y-17375D01*
X34575Y-17226D01*
X34518Y-17088D01*
X34413Y-16983D01*
X34275Y-16925D01*
X34126Y-16925D01*
X33988Y-16982D01*
X33883Y-17087D01*
X33825Y-17225D01*
X33825Y-17374D01*
X33882Y-17512D01*
X33987Y-17617D01*
X34125Y-17675D01*
X34274Y-17675D01*
X34412Y-17618D01*
X34517Y-17513D01*
X34575Y-17375D01*
X34575Y-29510D01*
X32775Y-29510D01*
X32775Y-15575D01*
X32775Y-15426D01*
X32718Y-15288D01*
X32613Y-15183D01*
X32475Y-15125D01*
X32326Y-15125D01*
X32188Y-15182D01*
X32083Y-15287D01*
X32025Y-15425D01*
X32025Y-15574D01*
X32082Y-15712D01*
X32187Y-15817D01*
X32325Y-15875D01*
X32474Y-15875D01*
X32612Y-15818D01*
X32717Y-15713D01*
X32775Y-15575D01*
X32775Y-29510D01*
X29075Y-29510D01*
X29075Y-18575D01*
X29075Y-18426D01*
X29075Y-16175D01*
X29075Y-16026D01*
X29018Y-15888D01*
X28913Y-15783D01*
X28775Y-15725D01*
X28626Y-15725D01*
X28488Y-15782D01*
X28383Y-15887D01*
X28367Y-15925D01*
X28326Y-15925D01*
X28275Y-15946D01*
X28275Y-15375D01*
X28275Y-15226D01*
X28218Y-15088D01*
X28113Y-14983D01*
X27975Y-14925D01*
X27826Y-14925D01*
X27688Y-14982D01*
X27583Y-15087D01*
X27525Y-15225D01*
X27525Y-15374D01*
X27582Y-15512D01*
X27687Y-15617D01*
X27825Y-15675D01*
X27974Y-15675D01*
X28112Y-15618D01*
X28217Y-15513D01*
X28275Y-15375D01*
X28275Y-15946D01*
X28188Y-15982D01*
X28083Y-16087D01*
X28067Y-16125D01*
X28026Y-16125D01*
X27888Y-16182D01*
X27783Y-16287D01*
X27767Y-16325D01*
X27726Y-16325D01*
X27588Y-16382D01*
X27483Y-16487D01*
X27425Y-16625D01*
X27425Y-16774D01*
X27482Y-16912D01*
X27587Y-17017D01*
X27725Y-17075D01*
X27874Y-17075D01*
X28012Y-17018D01*
X28117Y-16913D01*
X28132Y-16875D01*
X28174Y-16875D01*
X28312Y-16818D01*
X28417Y-16713D01*
X28432Y-16675D01*
X28474Y-16675D01*
X28612Y-16618D01*
X28717Y-16513D01*
X28732Y-16475D01*
X28774Y-16475D01*
X28912Y-16418D01*
X29017Y-16313D01*
X29075Y-16175D01*
X29075Y-18426D01*
X29018Y-18288D01*
X28913Y-18183D01*
X28775Y-18125D01*
X28626Y-18125D01*
X28488Y-18182D01*
X28383Y-18287D01*
X28367Y-18325D01*
X28326Y-18325D01*
X28188Y-18382D01*
X28083Y-18487D01*
X28067Y-18525D01*
X28026Y-18525D01*
X27888Y-18582D01*
X27783Y-18687D01*
X27767Y-18725D01*
X27726Y-18725D01*
X27588Y-18782D01*
X27483Y-18887D01*
X27425Y-19025D01*
X27425Y-19174D01*
X27482Y-19312D01*
X27587Y-19417D01*
X27725Y-19475D01*
X27874Y-19475D01*
X28012Y-19418D01*
X28117Y-19313D01*
X28132Y-19275D01*
X28174Y-19275D01*
X28312Y-19218D01*
X28417Y-19113D01*
X28432Y-19075D01*
X28474Y-19075D01*
X28612Y-19018D01*
X28717Y-18913D01*
X28732Y-18875D01*
X28774Y-18875D01*
X28912Y-18818D01*
X29017Y-18713D01*
X29075Y-18575D01*
X29075Y-29510D01*
X26475Y-29510D01*
X26475Y-23475D01*
X26475Y-23326D01*
X26475Y-14775D01*
X26475Y-14626D01*
X26422Y-14499D01*
X26475Y-14375D01*
X26475Y-14226D01*
X26418Y-14088D01*
X26313Y-13983D01*
X26175Y-13925D01*
X26026Y-13925D01*
X25888Y-13982D01*
X25783Y-14087D01*
X25725Y-14225D01*
X25725Y-14374D01*
X25777Y-14500D01*
X25725Y-14625D01*
X25725Y-14774D01*
X25782Y-14912D01*
X25887Y-15017D01*
X26025Y-15075D01*
X26174Y-15075D01*
X26312Y-15018D01*
X26417Y-14913D01*
X26475Y-14775D01*
X26475Y-23326D01*
X26418Y-23188D01*
X26313Y-23083D01*
X26175Y-23025D01*
X26026Y-23025D01*
X25975Y-23046D01*
X25975Y-17275D01*
X25975Y-17126D01*
X25918Y-16988D01*
X25813Y-16883D01*
X25675Y-16825D01*
X25526Y-16825D01*
X25475Y-16846D01*
X25475Y-16675D01*
X25475Y-16526D01*
X25418Y-16388D01*
X25313Y-16283D01*
X25175Y-16225D01*
X25026Y-16225D01*
X24899Y-16277D01*
X24775Y-16225D01*
X24626Y-16225D01*
X24488Y-16282D01*
X24383Y-16387D01*
X24325Y-16525D01*
X24325Y-16674D01*
X24382Y-16812D01*
X24487Y-16917D01*
X24625Y-16975D01*
X24774Y-16975D01*
X24900Y-16922D01*
X25025Y-16975D01*
X25174Y-16975D01*
X25312Y-16918D01*
X25417Y-16813D01*
X25475Y-16675D01*
X25475Y-16846D01*
X25388Y-16882D01*
X25283Y-16987D01*
X25225Y-17125D01*
X25225Y-17274D01*
X25282Y-17412D01*
X25387Y-17517D01*
X25525Y-17575D01*
X25674Y-17575D01*
X25812Y-17518D01*
X25917Y-17413D01*
X25975Y-17275D01*
X25975Y-23046D01*
X25888Y-23082D01*
X25783Y-23187D01*
X25725Y-23325D01*
X25725Y-23474D01*
X25782Y-23612D01*
X25887Y-23717D01*
X26025Y-23775D01*
X26174Y-23775D01*
X26312Y-23718D01*
X26417Y-23613D01*
X26475Y-23475D01*
X26475Y-29510D01*
X25875Y-29510D01*
X25875Y-26775D01*
X25875Y-26626D01*
X25822Y-26499D01*
X25875Y-26375D01*
X25875Y-26226D01*
X25822Y-26099D01*
X25875Y-25975D01*
X25875Y-25826D01*
X25822Y-25699D01*
X25875Y-25575D01*
X25875Y-25426D01*
X25822Y-25299D01*
X25875Y-25175D01*
X25875Y-25026D01*
X25818Y-24888D01*
X25713Y-24783D01*
X25575Y-24725D01*
X25426Y-24725D01*
X25375Y-24746D01*
X25375Y-24575D01*
X25375Y-24426D01*
X25318Y-24288D01*
X25213Y-24183D01*
X25175Y-24167D01*
X25175Y-24026D01*
X25122Y-23899D01*
X25175Y-23775D01*
X25175Y-23733D01*
X25212Y-23718D01*
X25317Y-23613D01*
X25375Y-23475D01*
X25375Y-23326D01*
X25318Y-23188D01*
X25213Y-23083D01*
X25075Y-23025D01*
X24926Y-23025D01*
X24788Y-23082D01*
X24683Y-23187D01*
X24625Y-23325D01*
X24625Y-23366D01*
X24588Y-23382D01*
X24483Y-23487D01*
X24425Y-23625D01*
X24425Y-23774D01*
X24477Y-23900D01*
X24425Y-24025D01*
X24425Y-24174D01*
X24482Y-24312D01*
X24587Y-24417D01*
X24625Y-24432D01*
X24625Y-24574D01*
X24682Y-24712D01*
X24787Y-24817D01*
X24925Y-24875D01*
X25074Y-24875D01*
X25212Y-24818D01*
X25317Y-24713D01*
X25375Y-24575D01*
X25375Y-24746D01*
X25288Y-24782D01*
X25183Y-24887D01*
X25125Y-25025D01*
X25125Y-25174D01*
X25177Y-25300D01*
X25125Y-25425D01*
X25125Y-25574D01*
X25177Y-25700D01*
X25125Y-25825D01*
X25125Y-25974D01*
X25177Y-26100D01*
X25125Y-26225D01*
X25125Y-26374D01*
X25177Y-26500D01*
X25125Y-26625D01*
X25125Y-26774D01*
X25182Y-26912D01*
X25287Y-27017D01*
X25425Y-27075D01*
X25574Y-27075D01*
X25712Y-27018D01*
X25817Y-26913D01*
X25875Y-26775D01*
X25875Y-29510D01*
X24220Y-29510D01*
X23675Y-28965D01*
X23675Y-17775D01*
X23675Y-17626D01*
X23622Y-17499D01*
X23675Y-17375D01*
X23675Y-17226D01*
X23618Y-17088D01*
X23513Y-16983D01*
X23375Y-16925D01*
X23333Y-16925D01*
X23322Y-16899D01*
X23332Y-16875D01*
X23374Y-16875D01*
X23512Y-16818D01*
X23617Y-16713D01*
X23675Y-16575D01*
X23675Y-16426D01*
X23618Y-16288D01*
X23513Y-16183D01*
X23375Y-16125D01*
X23226Y-16125D01*
X23088Y-16182D01*
X22983Y-16287D01*
X22967Y-16325D01*
X22926Y-16325D01*
X22788Y-16382D01*
X22683Y-16487D01*
X22625Y-16625D01*
X22625Y-16774D01*
X22677Y-16900D01*
X22625Y-17025D01*
X22625Y-17174D01*
X22682Y-17312D01*
X22787Y-17417D01*
X22925Y-17475D01*
X22966Y-17475D01*
X22977Y-17500D01*
X22967Y-17525D01*
X22926Y-17525D01*
X22788Y-17582D01*
X22700Y-17670D01*
X22613Y-17583D01*
X22475Y-17525D01*
X22326Y-17525D01*
X22308Y-17532D01*
X22308Y-11378D01*
X22000Y-11071D01*
X21692Y-11378D01*
X21719Y-11472D01*
X21921Y-11543D01*
X22134Y-11532D01*
X22281Y-11472D01*
X22308Y-11378D01*
X22308Y-17532D01*
X22188Y-17582D01*
X22083Y-17687D01*
X22025Y-17825D01*
X22025Y-17974D01*
X22077Y-18100D01*
X22025Y-18225D01*
X22025Y-18374D01*
X22082Y-18512D01*
X22187Y-18617D01*
X22325Y-18675D01*
X22474Y-18675D01*
X22612Y-18618D01*
X22717Y-18513D01*
X22732Y-18475D01*
X22774Y-18475D01*
X22912Y-18418D01*
X23017Y-18313D01*
X23032Y-18275D01*
X23074Y-18275D01*
X23212Y-18218D01*
X23317Y-18113D01*
X23332Y-18075D01*
X23374Y-18075D01*
X23512Y-18018D01*
X23617Y-17913D01*
X23675Y-17775D01*
X23675Y-28965D01*
X23175Y-28465D01*
X23175Y-28426D01*
X23118Y-28288D01*
X23013Y-28183D01*
X22875Y-28125D01*
X22726Y-28125D01*
X22588Y-28182D01*
X22483Y-28287D01*
X22425Y-28425D01*
X22425Y-28574D01*
X22482Y-28712D01*
X22587Y-28817D01*
X22725Y-28875D01*
X22765Y-28875D01*
X23600Y-29710D01*
X22275Y-29710D01*
X22275Y-23575D01*
X22275Y-23426D01*
X22218Y-23288D01*
X22113Y-23183D01*
X21975Y-23125D01*
X21826Y-23125D01*
X21699Y-23177D01*
X21575Y-23125D01*
X21426Y-23125D01*
X21375Y-23146D01*
X21375Y-19075D01*
X21375Y-18926D01*
X21318Y-18788D01*
X21213Y-18683D01*
X21075Y-18625D01*
X20926Y-18625D01*
X20788Y-18682D01*
X20683Y-18787D01*
X20625Y-18925D01*
X20625Y-19074D01*
X20682Y-19212D01*
X20787Y-19317D01*
X20925Y-19375D01*
X21074Y-19375D01*
X21212Y-19318D01*
X21317Y-19213D01*
X21375Y-19075D01*
X21375Y-23146D01*
X21288Y-23182D01*
X21183Y-23287D01*
X21125Y-23425D01*
X21125Y-23574D01*
X21177Y-23700D01*
X21125Y-23825D01*
X21125Y-23974D01*
X21177Y-24100D01*
X21125Y-24225D01*
X21125Y-24374D01*
X21177Y-24500D01*
X21125Y-24625D01*
X21125Y-24774D01*
X21177Y-24900D01*
X21125Y-25025D01*
X21125Y-25174D01*
X21177Y-25300D01*
X21125Y-25425D01*
X21125Y-25574D01*
X21177Y-25700D01*
X21125Y-25825D01*
X21125Y-25974D01*
X21182Y-26112D01*
X21287Y-26217D01*
X21425Y-26275D01*
X21574Y-26275D01*
X21712Y-26218D01*
X21817Y-26113D01*
X21875Y-25975D01*
X21875Y-25826D01*
X21822Y-25699D01*
X21875Y-25575D01*
X21875Y-25426D01*
X21822Y-25299D01*
X21875Y-25175D01*
X21875Y-25026D01*
X21822Y-24899D01*
X21875Y-24775D01*
X21875Y-24626D01*
X21822Y-24499D01*
X21875Y-24375D01*
X21875Y-24226D01*
X21822Y-24099D01*
X21875Y-23975D01*
X21875Y-23875D01*
X21974Y-23875D01*
X22112Y-23818D01*
X22217Y-23713D01*
X22275Y-23575D01*
X22275Y-29710D01*
X21120Y-29710D01*
X21217Y-29613D01*
X21275Y-29475D01*
X21275Y-29326D01*
X21222Y-29199D01*
X21275Y-29075D01*
X21275Y-28926D01*
X21218Y-28788D01*
X21113Y-28683D01*
X20975Y-28625D01*
X20826Y-28625D01*
X20775Y-28646D01*
X20775Y-19875D01*
X20775Y-19726D01*
X20718Y-19588D01*
X20613Y-19483D01*
X20575Y-19467D01*
X20575Y-19426D01*
X20518Y-19288D01*
X20413Y-19183D01*
X20375Y-19167D01*
X20375Y-19126D01*
X20318Y-18988D01*
X20213Y-18883D01*
X20175Y-18867D01*
X20175Y-18826D01*
X20118Y-18688D01*
X20013Y-18583D01*
X19975Y-18567D01*
X19975Y-18526D01*
X19918Y-18388D01*
X19813Y-18283D01*
X19775Y-18267D01*
X19775Y-18226D01*
X19718Y-18088D01*
X19613Y-17983D01*
X19575Y-17967D01*
X19575Y-17926D01*
X19518Y-17788D01*
X19413Y-17683D01*
X19375Y-17667D01*
X19375Y-17626D01*
X19318Y-17488D01*
X19213Y-17383D01*
X19075Y-17325D01*
X19075Y-16175D01*
X19075Y-16026D01*
X19018Y-15888D01*
X18913Y-15783D01*
X18775Y-15725D01*
X18626Y-15725D01*
X18488Y-15782D01*
X18383Y-15887D01*
X18325Y-16025D01*
X18325Y-16174D01*
X18382Y-16312D01*
X18487Y-16417D01*
X18625Y-16475D01*
X18774Y-16475D01*
X18912Y-16418D01*
X19017Y-16313D01*
X19075Y-16175D01*
X19075Y-17325D01*
X18926Y-17325D01*
X18788Y-17382D01*
X18683Y-17487D01*
X18625Y-17625D01*
X18625Y-17774D01*
X18682Y-17912D01*
X18787Y-18017D01*
X18825Y-18032D01*
X18825Y-18074D01*
X18882Y-18212D01*
X18987Y-18317D01*
X19025Y-18332D01*
X19025Y-18374D01*
X19082Y-18512D01*
X19187Y-18617D01*
X19225Y-18632D01*
X19225Y-18674D01*
X19282Y-18812D01*
X19387Y-18917D01*
X19425Y-18932D01*
X19425Y-18974D01*
X19482Y-19112D01*
X19587Y-19217D01*
X19625Y-19232D01*
X19625Y-19274D01*
X19682Y-19412D01*
X19787Y-19517D01*
X19825Y-19532D01*
X19825Y-19574D01*
X19882Y-19712D01*
X19987Y-19817D01*
X20025Y-19832D01*
X20025Y-19874D01*
X20082Y-20012D01*
X20187Y-20117D01*
X20325Y-20175D01*
X20474Y-20175D01*
X20612Y-20118D01*
X20717Y-20013D01*
X20775Y-19875D01*
X20775Y-28646D01*
X20688Y-28682D01*
X20583Y-28787D01*
X20525Y-28925D01*
X20525Y-29074D01*
X20577Y-29200D01*
X20525Y-29325D01*
X20525Y-29474D01*
X20582Y-29612D01*
X20680Y-29710D01*
X18975Y-29710D01*
X18975Y-20075D01*
X18975Y-19926D01*
X18918Y-19788D01*
X18813Y-19683D01*
X18675Y-19625D01*
X18526Y-19625D01*
X18399Y-19677D01*
X18275Y-19625D01*
X18126Y-19625D01*
X17999Y-19677D01*
X17875Y-19625D01*
X17726Y-19625D01*
X17599Y-19677D01*
X17475Y-19625D01*
X17433Y-19625D01*
X17418Y-19588D01*
X17313Y-19483D01*
X17175Y-19425D01*
X17026Y-19425D01*
X16888Y-19482D01*
X16783Y-19587D01*
X16767Y-19625D01*
X16726Y-19625D01*
X16588Y-19682D01*
X16483Y-19787D01*
X16425Y-19925D01*
X16425Y-20074D01*
X16482Y-20212D01*
X16587Y-20317D01*
X16725Y-20375D01*
X16874Y-20375D01*
X17012Y-20318D01*
X17100Y-20230D01*
X17187Y-20317D01*
X17325Y-20375D01*
X17474Y-20375D01*
X17600Y-20322D01*
X17725Y-20375D01*
X17874Y-20375D01*
X18000Y-20322D01*
X18125Y-20375D01*
X18274Y-20375D01*
X18400Y-20322D01*
X18525Y-20375D01*
X18674Y-20375D01*
X18812Y-20318D01*
X18917Y-20213D01*
X18975Y-20075D01*
X18975Y-29710D01*
X18275Y-29710D01*
X18275Y-26375D01*
X18275Y-26226D01*
X18222Y-26099D01*
X18275Y-25975D01*
X18275Y-25826D01*
X18222Y-25699D01*
X18275Y-25575D01*
X18275Y-25426D01*
X18218Y-25288D01*
X18113Y-25183D01*
X17975Y-25125D01*
X17853Y-25125D01*
X17875Y-25075D01*
X17875Y-24926D01*
X17818Y-24788D01*
X17713Y-24683D01*
X17575Y-24625D01*
X17426Y-24625D01*
X17288Y-24682D01*
X17265Y-24704D01*
X17218Y-24588D01*
X17113Y-24483D01*
X16975Y-24425D01*
X16826Y-24425D01*
X16688Y-24482D01*
X16583Y-24587D01*
X16525Y-24725D01*
X16525Y-24874D01*
X16582Y-25012D01*
X16687Y-25117D01*
X16803Y-25166D01*
X16783Y-25187D01*
X16725Y-25325D01*
X16725Y-25474D01*
X16782Y-25612D01*
X16887Y-25717D01*
X17025Y-25775D01*
X17174Y-25775D01*
X17300Y-25722D01*
X17425Y-25775D01*
X17546Y-25775D01*
X17525Y-25825D01*
X17525Y-25974D01*
X17577Y-26100D01*
X17525Y-26225D01*
X17525Y-26374D01*
X17582Y-26512D01*
X17687Y-26617D01*
X17825Y-26675D01*
X17974Y-26675D01*
X18112Y-26618D01*
X18217Y-26513D01*
X18275Y-26375D01*
X18275Y-29710D01*
X17220Y-29710D01*
X15475Y-27965D01*
X15475Y-18775D01*
X15475Y-18626D01*
X15418Y-18488D01*
X15313Y-18383D01*
X15175Y-18325D01*
X15026Y-18325D01*
X14888Y-18382D01*
X14875Y-18395D01*
X14875Y-16675D01*
X14875Y-16526D01*
X14818Y-16388D01*
X14713Y-16283D01*
X14575Y-16225D01*
X14426Y-16225D01*
X14288Y-16282D01*
X14183Y-16387D01*
X14125Y-16525D01*
X14125Y-16674D01*
X14182Y-16812D01*
X14287Y-16917D01*
X14425Y-16975D01*
X14574Y-16975D01*
X14712Y-16918D01*
X14817Y-16813D01*
X14875Y-16675D01*
X14875Y-18395D01*
X14783Y-18487D01*
X14725Y-18625D01*
X14725Y-18774D01*
X14782Y-18912D01*
X14887Y-19017D01*
X15025Y-19075D01*
X15174Y-19075D01*
X15312Y-19018D01*
X15417Y-18913D01*
X15475Y-18775D01*
X15475Y-27965D01*
X12990Y-25480D01*
X12990Y-16450D01*
X12989Y-16449D01*
X12968Y-16339D01*
X12967Y-16338D01*
X12905Y-16245D01*
X12904Y-16244D01*
X12540Y-15880D01*
X12549Y-15859D01*
X12549Y-15641D01*
X12465Y-15439D01*
X12311Y-15285D01*
X12109Y-15201D01*
X11891Y-15201D01*
X11689Y-15285D01*
X11549Y-15425D01*
X11549Y-15401D01*
X11511Y-15309D01*
X11441Y-15239D01*
X11350Y-15201D01*
X11251Y-15201D01*
X10651Y-15201D01*
X10559Y-15239D01*
X10489Y-15309D01*
X10451Y-15400D01*
X10451Y-15499D01*
X10451Y-16099D01*
X10489Y-16191D01*
X10559Y-16261D01*
X10650Y-16299D01*
X10675Y-16299D01*
X10535Y-16439D01*
X10451Y-16641D01*
X10451Y-16859D01*
X10535Y-17061D01*
X10689Y-17215D01*
X10773Y-17250D01*
X10689Y-17285D01*
X10535Y-17439D01*
X10451Y-17641D01*
X10451Y-17859D01*
X10535Y-18061D01*
X10689Y-18215D01*
X10773Y-18250D01*
X10689Y-18285D01*
X10535Y-18439D01*
X10451Y-18641D01*
X10451Y-18859D01*
X10535Y-19061D01*
X10689Y-19215D01*
X10891Y-19299D01*
X11109Y-19299D01*
X11311Y-19215D01*
X11465Y-19061D01*
X11500Y-18976D01*
X11535Y-19061D01*
X11689Y-19215D01*
X11891Y-19299D01*
X12109Y-19299D01*
X12210Y-19257D01*
X12210Y-19993D01*
X12109Y-19951D01*
X11891Y-19951D01*
X11689Y-20035D01*
X11549Y-20175D01*
X11549Y-20151D01*
X11511Y-20059D01*
X11441Y-19989D01*
X11350Y-19951D01*
X11251Y-19951D01*
X10651Y-19951D01*
X10559Y-19989D01*
X10489Y-20059D01*
X10451Y-20150D01*
X10451Y-20249D01*
X10451Y-20849D01*
X10489Y-20941D01*
X10559Y-21011D01*
X10650Y-21049D01*
X10675Y-21049D01*
X10535Y-21189D01*
X10451Y-21391D01*
X10451Y-21609D01*
X10535Y-21811D01*
X10689Y-21965D01*
X10773Y-22000D01*
X10689Y-22035D01*
X10535Y-22189D01*
X10451Y-22391D01*
X10451Y-22609D01*
X10535Y-22811D01*
X10689Y-22965D01*
X10773Y-23000D01*
X10689Y-23035D01*
X10535Y-23189D01*
X10451Y-23391D01*
X10451Y-23609D01*
X10535Y-23811D01*
X10689Y-23965D01*
X10891Y-24049D01*
X11109Y-24049D01*
X11311Y-23965D01*
X11465Y-23811D01*
X11500Y-23726D01*
X11535Y-23811D01*
X11689Y-23965D01*
X11891Y-24049D01*
X12109Y-24049D01*
X12210Y-24007D01*
X12210Y-24743D01*
X12109Y-24701D01*
X11891Y-24701D01*
X11689Y-24785D01*
X11549Y-24925D01*
X11549Y-24901D01*
X11511Y-24809D01*
X11441Y-24739D01*
X11350Y-24701D01*
X11251Y-24701D01*
X10651Y-24701D01*
X10559Y-24739D01*
X10489Y-24809D01*
X10451Y-24900D01*
X10451Y-24999D01*
X10451Y-25599D01*
X10489Y-25691D01*
X10559Y-25761D01*
X10650Y-25799D01*
X10675Y-25799D01*
X10535Y-25939D01*
X10451Y-26141D01*
X10451Y-26359D01*
X10535Y-26561D01*
X10689Y-26715D01*
X10773Y-26750D01*
X10689Y-26785D01*
X10535Y-26939D01*
X10451Y-27141D01*
X10451Y-27359D01*
X10535Y-27561D01*
X10689Y-27715D01*
X10773Y-27750D01*
X10689Y-27785D01*
X10535Y-27939D01*
X10451Y-28141D01*
X10451Y-28359D01*
X10535Y-28561D01*
X10689Y-28715D01*
X10891Y-28799D01*
X11109Y-28799D01*
X11311Y-28715D01*
X11465Y-28561D01*
X11500Y-28476D01*
X11535Y-28561D01*
X11689Y-28715D01*
X11891Y-28799D01*
X12109Y-28799D01*
X12311Y-28715D01*
X12465Y-28561D01*
X12473Y-28540D01*
X13730Y-28540D01*
X16395Y-31205D01*
X16489Y-31268D01*
X16600Y-31290D01*
X20481Y-31290D01*
X20425Y-31425D01*
X20425Y-31574D01*
X20482Y-31712D01*
X20587Y-31817D01*
X20725Y-31875D01*
X20874Y-31875D01*
X21012Y-31818D01*
X21117Y-31713D01*
X21175Y-31575D01*
X21175Y-31426D01*
X21118Y-31290D01*
X23180Y-31290D01*
X23083Y-31387D01*
X23025Y-31525D01*
X23025Y-31674D01*
X23082Y-31812D01*
X23187Y-31917D01*
X23325Y-31975D01*
X23474Y-31975D01*
X23612Y-31918D01*
X23717Y-31813D01*
X23775Y-31675D01*
X23775Y-31526D01*
X23718Y-31388D01*
X23620Y-31290D01*
X34580Y-31290D01*
X35785Y-32495D01*
X35689Y-32535D01*
X35535Y-32689D01*
X35500Y-32773D01*
X35465Y-32689D01*
X35311Y-32535D01*
X35109Y-32451D01*
X34891Y-32451D01*
X34689Y-32535D01*
X34535Y-32689D01*
X34500Y-32773D01*
X34465Y-32689D01*
X34311Y-32535D01*
X34109Y-32451D01*
X33891Y-32451D01*
X33689Y-32535D01*
X33535Y-32689D01*
X33500Y-32773D01*
X33465Y-32689D01*
X33311Y-32535D01*
X33109Y-32451D01*
X32891Y-32451D01*
X32689Y-32535D01*
X32535Y-32689D01*
X32500Y-32773D01*
X32465Y-32689D01*
X32311Y-32535D01*
X32109Y-32451D01*
X31891Y-32451D01*
X31689Y-32535D01*
X31535Y-32689D01*
X31500Y-32773D01*
X31465Y-32689D01*
X31311Y-32535D01*
X31109Y-32451D01*
X30891Y-32451D01*
X30689Y-32535D01*
X30535Y-32689D01*
X30500Y-32773D01*
X30465Y-32689D01*
X30311Y-32535D01*
X30109Y-32451D01*
X29891Y-32451D01*
X29689Y-32535D01*
X29535Y-32689D01*
X29500Y-32773D01*
X29465Y-32689D01*
X29311Y-32535D01*
X29109Y-32451D01*
X28891Y-32451D01*
X28689Y-32535D01*
X28535Y-32689D01*
X28500Y-32773D01*
X28465Y-32689D01*
X28328Y-32552D01*
X28412Y-32518D01*
X28517Y-32413D01*
X28575Y-32275D01*
X28575Y-32126D01*
X28518Y-31988D01*
X28413Y-31883D01*
X28275Y-31825D01*
X28126Y-31825D01*
X27988Y-31882D01*
X27883Y-31987D01*
X27825Y-32125D01*
X27825Y-32274D01*
X27882Y-32412D01*
X27921Y-32451D01*
X27891Y-32451D01*
X27689Y-32535D01*
X27535Y-32689D01*
X27500Y-32773D01*
X27465Y-32689D01*
X27311Y-32535D01*
X27109Y-32451D01*
X26891Y-32451D01*
X26689Y-32535D01*
X26535Y-32689D01*
X26500Y-32773D01*
X26465Y-32689D01*
X26311Y-32535D01*
X26109Y-32451D01*
X25891Y-32451D01*
X25689Y-32535D01*
X25535Y-32689D01*
X25500Y-32773D01*
X25465Y-32689D01*
X25311Y-32535D01*
X25109Y-32451D01*
X24891Y-32451D01*
X24689Y-32535D01*
X24535Y-32689D01*
X24500Y-32773D01*
X24465Y-32689D01*
X24328Y-32552D01*
X24412Y-32518D01*
X24517Y-32413D01*
X24575Y-32275D01*
X24575Y-32126D01*
X24518Y-31988D01*
X24413Y-31883D01*
X24275Y-31825D01*
X24126Y-31825D01*
X23988Y-31882D01*
X23883Y-31987D01*
X23825Y-32125D01*
X23825Y-32274D01*
X23882Y-32412D01*
X23921Y-32451D01*
X23891Y-32451D01*
X23689Y-32535D01*
X23535Y-32689D01*
X23500Y-32773D01*
X23465Y-32689D01*
X23311Y-32535D01*
X23109Y-32451D01*
X22891Y-32451D01*
X22689Y-32535D01*
X22535Y-32689D01*
X22500Y-32773D01*
X22465Y-32689D01*
X22311Y-32535D01*
X22109Y-32451D01*
X21891Y-32451D01*
X21689Y-32535D01*
X21535Y-32689D01*
X21500Y-32773D01*
X21465Y-32689D01*
X21311Y-32535D01*
X21109Y-32451D01*
X20891Y-32451D01*
X20689Y-32535D01*
X20535Y-32689D01*
X20500Y-32773D01*
X20465Y-32689D01*
X20311Y-32535D01*
X20109Y-32451D01*
X19891Y-32451D01*
X19689Y-32535D01*
X19535Y-32689D01*
X19500Y-32773D01*
X19465Y-32689D01*
X19311Y-32535D01*
X19109Y-32451D01*
X18891Y-32451D01*
X18689Y-32535D01*
X18535Y-32689D01*
X18500Y-32773D01*
X18465Y-32689D01*
X18311Y-32535D01*
X18109Y-32451D01*
X17891Y-32451D01*
X17689Y-32535D01*
X17535Y-32689D01*
X17500Y-32773D01*
X17465Y-32689D01*
X17311Y-32535D01*
X17109Y-32451D01*
X16891Y-32451D01*
X16689Y-32535D01*
X16535Y-32689D01*
X16500Y-32773D01*
X16465Y-32689D01*
X16311Y-32535D01*
X16109Y-32451D01*
X15891Y-32451D01*
X15689Y-32535D01*
X15535Y-32689D01*
X15500Y-32773D01*
X15465Y-32689D01*
X15311Y-32535D01*
X15109Y-32451D01*
X14891Y-32451D01*
X14689Y-32535D01*
X14535Y-32689D01*
X14500Y-32773D01*
X14465Y-32689D01*
X14311Y-32535D01*
X14275Y-32520D01*
X14275Y-29975D01*
X14275Y-29826D01*
X14218Y-29688D01*
X14113Y-29583D01*
X13975Y-29525D01*
X13826Y-29525D01*
X13688Y-29582D01*
X13583Y-29687D01*
X13525Y-29825D01*
X13525Y-29974D01*
X13582Y-30112D01*
X13687Y-30217D01*
X13825Y-30275D01*
X13974Y-30275D01*
X14112Y-30218D01*
X14217Y-30113D01*
X14275Y-29975D01*
X14275Y-32520D01*
X14109Y-32451D01*
X13891Y-32451D01*
X13689Y-32535D01*
X13535Y-32689D01*
X13500Y-32773D01*
X13465Y-32689D01*
X13311Y-32535D01*
X13109Y-32451D01*
X12891Y-32451D01*
X12689Y-32535D01*
X12535Y-32689D01*
X12500Y-32773D01*
X12465Y-32689D01*
X12311Y-32535D01*
X12109Y-32451D01*
X11891Y-32451D01*
X11689Y-32535D01*
X11535Y-32689D01*
X11451Y-32891D01*
X11451Y-33109D01*
X11535Y-33311D01*
X11675Y-33451D01*
X11651Y-33451D01*
X11559Y-33489D01*
X11489Y-33559D01*
X11451Y-33650D01*
X11451Y-33749D01*
X11451Y-34349D01*
X11489Y-34441D01*
X11559Y-34511D01*
X11650Y-34549D01*
X11749Y-34549D01*
X12349Y-34549D01*
X12441Y-34511D01*
X12511Y-34441D01*
X12549Y-34350D01*
X12549Y-34325D01*
X12689Y-34465D01*
X12891Y-34549D01*
X13109Y-34549D01*
X13311Y-34465D01*
X13465Y-34311D01*
X13500Y-34226D01*
X13535Y-34311D01*
X13689Y-34465D01*
X13891Y-34549D01*
X14109Y-34549D01*
X14311Y-34465D01*
X14465Y-34311D01*
X14500Y-34226D01*
X14535Y-34311D01*
X14689Y-34465D01*
X14891Y-34549D01*
X15109Y-34549D01*
X15311Y-34465D01*
X15465Y-34311D01*
X15500Y-34226D01*
X15535Y-34311D01*
X15689Y-34465D01*
X15891Y-34549D01*
X16109Y-34549D01*
X16311Y-34465D01*
X16465Y-34311D01*
X16500Y-34226D01*
X16535Y-34311D01*
X16689Y-34465D01*
X16891Y-34549D01*
X17109Y-34549D01*
X17311Y-34465D01*
X17465Y-34311D01*
X17500Y-34226D01*
X17535Y-34311D01*
X17689Y-34465D01*
X17891Y-34549D01*
X18109Y-34549D01*
X18311Y-34465D01*
X18465Y-34311D01*
X18500Y-34226D01*
X18535Y-34311D01*
X18689Y-34465D01*
X18891Y-34549D01*
X19109Y-34549D01*
X19311Y-34465D01*
X19465Y-34311D01*
X19500Y-34226D01*
X19535Y-34311D01*
X19689Y-34465D01*
X19891Y-34549D01*
X20109Y-34549D01*
X20311Y-34465D01*
X20465Y-34311D01*
X20500Y-34226D01*
X20535Y-34311D01*
X20689Y-34465D01*
X20891Y-34549D01*
X21109Y-34549D01*
X21311Y-34465D01*
X21465Y-34311D01*
X21500Y-34226D01*
X21535Y-34311D01*
X21689Y-34465D01*
X21891Y-34549D01*
X22109Y-34549D01*
X22311Y-34465D01*
X22465Y-34311D01*
X22500Y-34226D01*
X22535Y-34311D01*
X22689Y-34465D01*
X22891Y-34549D01*
X23109Y-34549D01*
X23311Y-34465D01*
X23465Y-34311D01*
X23500Y-34226D01*
X23535Y-34311D01*
X23689Y-34465D01*
X23891Y-34549D01*
X24109Y-34549D01*
X24311Y-34465D01*
X24465Y-34311D01*
X24500Y-34226D01*
X24535Y-34311D01*
X24689Y-34465D01*
X24891Y-34549D01*
X25109Y-34549D01*
X25311Y-34465D01*
X25465Y-34311D01*
X25500Y-34226D01*
X25535Y-34311D01*
X25689Y-34465D01*
X25891Y-34549D01*
X26109Y-34549D01*
X26311Y-34465D01*
X26465Y-34311D01*
X26500Y-34226D01*
X26535Y-34311D01*
X26689Y-34465D01*
X26891Y-34549D01*
X27109Y-34549D01*
X27311Y-34465D01*
X27465Y-34311D01*
X27500Y-34226D01*
X27535Y-34311D01*
X27689Y-34465D01*
X27891Y-34549D01*
X28109Y-34549D01*
X28311Y-34465D01*
X28465Y-34311D01*
X28500Y-34226D01*
X28535Y-34311D01*
X28689Y-34465D01*
X28891Y-34549D01*
X29109Y-34549D01*
X29311Y-34465D01*
X29465Y-34311D01*
X29500Y-34226D01*
X29535Y-34311D01*
X29689Y-34465D01*
X29891Y-34549D01*
X30109Y-34549D01*
X30311Y-34465D01*
X30465Y-34311D01*
X30500Y-34226D01*
X30535Y-34311D01*
X30689Y-34465D01*
X30891Y-34549D01*
X31109Y-34549D01*
X31311Y-34465D01*
X31465Y-34311D01*
X31500Y-34226D01*
X31535Y-34311D01*
X31689Y-34465D01*
X31891Y-34549D01*
X32109Y-34549D01*
X32311Y-34465D01*
X32465Y-34311D01*
X32500Y-34226D01*
X32535Y-34311D01*
X32689Y-34465D01*
X32891Y-34549D01*
X33109Y-34549D01*
X33311Y-34465D01*
X33465Y-34311D01*
X33500Y-34226D01*
X33535Y-34311D01*
X33689Y-34465D01*
X33891Y-34549D01*
X34109Y-34549D01*
X34311Y-34465D01*
X34465Y-34311D01*
X34500Y-34226D01*
X34535Y-34311D01*
X34689Y-34465D01*
X34891Y-34549D01*
X35109Y-34549D01*
X35130Y-34540D01*
X35295Y-34705D01*
X35389Y-34768D01*
X35500Y-34790D01*
X40200Y-34790D01*
X40311Y-34768D01*
X40405Y-34705D01*
X40667Y-34443D01*
X40689Y-34465D01*
X40891Y-34549D01*
X41109Y-34549D01*
X41311Y-34465D01*
X41465Y-34311D01*
X41500Y-34226D01*
X41535Y-34311D01*
X41689Y-34465D01*
X41891Y-34549D01*
X42109Y-34549D01*
X42311Y-34465D01*
X42465Y-34311D01*
X42502Y-34219D01*
X42528Y-34281D01*
X42622Y-34308D01*
X42929Y-34000D01*
X42622Y-33692D01*
X42528Y-33719D01*
X42504Y-33784D01*
X42465Y-33689D01*
X42311Y-33535D01*
X42226Y-33500D01*
X42311Y-33465D01*
X42465Y-33311D01*
X42500Y-33226D01*
X42535Y-33311D01*
X42689Y-33465D01*
X42780Y-33502D01*
X42719Y-33528D01*
X42692Y-33622D01*
X43000Y-33929D01*
X43308Y-33622D01*
X43281Y-33528D01*
X43215Y-33504D01*
X43311Y-33465D01*
X43465Y-33311D01*
X43549Y-33109D01*
X43549Y-37675D01*
X43543Y-37675D01*
X43543Y-34079D01*
X43532Y-33866D01*
X43472Y-33719D01*
X43378Y-33692D01*
X43071Y-34000D01*
X43378Y-34308D01*
X43472Y-34281D01*
X43543Y-34079D01*
X43543Y-37675D01*
X43308Y-37675D01*
X43308Y-34378D01*
X43000Y-34071D01*
X42692Y-34378D01*
X42719Y-34472D01*
X42921Y-34543D01*
X43134Y-34532D01*
X43281Y-34472D01*
X43308Y-34378D01*
X43308Y-37675D01*
X10325Y-37675D01*
X10325Y-06325D01*
X47175Y-06325D01*
X47175Y-37675D01*
M02*
