G04 (created by PCBNEW-RS274X (2012-01-19 BZR 3256)-stable) date 14/09/2012 00:22:44*
G01*
G70*
G90*
%MOIN*%
G04 Gerber Fmt 3.4, Leading zero omitted, Abs format*
%FSLAX34Y34*%
G04 APERTURE LIST*
%ADD10C,0.006000*%
%ADD11R,0.098700X0.027800*%
%ADD12R,0.065000X0.075000*%
%ADD13R,0.080000X0.080000*%
%ADD14C,0.080000*%
%ADD15R,0.100000X0.164000*%
%ADD16R,0.100000X0.060000*%
%ADD17R,0.090000X0.130000*%
%ADD18R,0.075000X0.065000*%
%ADD19R,0.106600X0.075100*%
%ADD20R,0.075100X0.098700*%
%ADD21R,0.075100X0.075100*%
%ADD22R,0.098700X0.047600*%
%ADD23R,0.095000X0.040000*%
G04 APERTURE END LIST*
G54D10*
G54D11*
X24037Y-26870D03*
X24037Y-26673D03*
X24037Y-26476D03*
X24037Y-26280D03*
X24037Y-26083D03*
X24037Y-25886D03*
X24037Y-25689D03*
X24037Y-25492D03*
X24037Y-25295D03*
X24037Y-25098D03*
X24037Y-24902D03*
X24037Y-24705D03*
X24037Y-24508D03*
X24037Y-24311D03*
X24037Y-24114D03*
X24037Y-23917D03*
X24037Y-23720D03*
X24037Y-23524D03*
X24037Y-23327D03*
X24037Y-23130D03*
X24037Y-22933D03*
X24037Y-22736D03*
X24037Y-22539D03*
X24037Y-22343D03*
X16163Y-22343D03*
X16163Y-22539D03*
X16163Y-22736D03*
X16163Y-22933D03*
X16163Y-23130D03*
X16163Y-23327D03*
X16163Y-23524D03*
X16163Y-23720D03*
X16163Y-23917D03*
X16163Y-24114D03*
X16163Y-24311D03*
X16163Y-24508D03*
X16163Y-24705D03*
X16163Y-24902D03*
X16163Y-25098D03*
X16163Y-25295D03*
X16163Y-25492D03*
X16163Y-25689D03*
X16163Y-25886D03*
X16163Y-26083D03*
X16163Y-26280D03*
X16163Y-26476D03*
X16163Y-26673D03*
X16163Y-26870D03*
X16163Y-27067D03*
X16163Y-27264D03*
X16163Y-27461D03*
X16163Y-27657D03*
X24037Y-27067D03*
X24037Y-27264D03*
X24037Y-27461D03*
X24037Y-27657D03*
X27063Y-15630D03*
X27063Y-15827D03*
X27063Y-16024D03*
X27063Y-16220D03*
X27063Y-16417D03*
X27063Y-16614D03*
X27063Y-16811D03*
X27063Y-17008D03*
X27063Y-17205D03*
X27063Y-17402D03*
X27063Y-17598D03*
X27063Y-17795D03*
X27063Y-17992D03*
X27063Y-18189D03*
X27063Y-18386D03*
X27063Y-18583D03*
X27063Y-18780D03*
X27063Y-18976D03*
X27063Y-19173D03*
X27063Y-19370D03*
X27063Y-19567D03*
X27063Y-19764D03*
X34937Y-19764D03*
X34937Y-19567D03*
X34937Y-19370D03*
X34937Y-19173D03*
X34937Y-18976D03*
X34937Y-18780D03*
X34937Y-18583D03*
X34937Y-18386D03*
X34937Y-18189D03*
X34937Y-17992D03*
X34937Y-17795D03*
X34937Y-17598D03*
X34937Y-17402D03*
X34937Y-17205D03*
X34937Y-17008D03*
X34937Y-16811D03*
X34937Y-16614D03*
X34937Y-16417D03*
X34937Y-16220D03*
X34937Y-16024D03*
X34937Y-15827D03*
X34937Y-15630D03*
X34937Y-15433D03*
X34937Y-15236D03*
X27063Y-15433D03*
X27063Y-15236D03*
G54D12*
X37825Y-29250D03*
X38675Y-29250D03*
G54D13*
X45500Y-16000D03*
G54D14*
X46500Y-16000D03*
X45500Y-17000D03*
X46500Y-17000D03*
X45500Y-18000D03*
X46500Y-18000D03*
X45500Y-19000D03*
X46500Y-19000D03*
X45500Y-20000D03*
X46500Y-20000D03*
X45500Y-21000D03*
X46500Y-21000D03*
G54D13*
X45500Y-11500D03*
G54D14*
X46500Y-11500D03*
X45500Y-12500D03*
X46500Y-12500D03*
X45500Y-13500D03*
X46500Y-13500D03*
X45500Y-14500D03*
X46500Y-14500D03*
G54D13*
X45500Y-07000D03*
G54D14*
X46500Y-07000D03*
X45500Y-08000D03*
X46500Y-08000D03*
X45500Y-09000D03*
X46500Y-09000D03*
X45500Y-10000D03*
X46500Y-10000D03*
G54D15*
X39700Y-19000D03*
G54D16*
X42300Y-19000D03*
X42300Y-18100D03*
X42300Y-19900D03*
G54D17*
X41700Y-16500D03*
X40300Y-16500D03*
X41700Y-21500D03*
X40300Y-21500D03*
G54D18*
X25100Y-18125D03*
X25100Y-17275D03*
X36000Y-18025D03*
X36000Y-17175D03*
X26100Y-18125D03*
X26100Y-17275D03*
G54D12*
X37825Y-28250D03*
X38675Y-28250D03*
G54D18*
X25900Y-28225D03*
X25900Y-27375D03*
X15100Y-17275D03*
X15100Y-18125D03*
X25000Y-28225D03*
X25000Y-27375D03*
G54D12*
X14475Y-24600D03*
X15325Y-24600D03*
G54D18*
X25500Y-21875D03*
X25500Y-22725D03*
X36000Y-19725D03*
X36000Y-18875D03*
X25500Y-24425D03*
X25500Y-23575D03*
G54D10*
G36*
X23544Y-19231D02*
X24530Y-19231D01*
X24530Y-19509D01*
X23544Y-19509D01*
X23544Y-19231D01*
X23544Y-19231D01*
G37*
G36*
X23544Y-19034D02*
X24530Y-19034D01*
X24530Y-19312D01*
X23544Y-19312D01*
X23544Y-19034D01*
X23544Y-19034D01*
G37*
G36*
X23544Y-18837D02*
X24530Y-18837D01*
X24530Y-19115D01*
X23544Y-19115D01*
X23544Y-18837D01*
X23544Y-18837D01*
G37*
G36*
X23544Y-18641D02*
X24530Y-18641D01*
X24530Y-18919D01*
X23544Y-18919D01*
X23544Y-18641D01*
X23544Y-18641D01*
G37*
G36*
X23544Y-18444D02*
X24530Y-18444D01*
X24530Y-18722D01*
X23544Y-18722D01*
X23544Y-18444D01*
X23544Y-18444D01*
G37*
G36*
X23544Y-18247D02*
X24530Y-18247D01*
X24530Y-18525D01*
X23544Y-18525D01*
X23544Y-18247D01*
X23544Y-18247D01*
G37*
G36*
X23544Y-18050D02*
X24530Y-18050D01*
X24530Y-18328D01*
X23544Y-18328D01*
X23544Y-18050D01*
X23544Y-18050D01*
G37*
G36*
X23544Y-17853D02*
X24530Y-17853D01*
X24530Y-18131D01*
X23544Y-18131D01*
X23544Y-17853D01*
X23544Y-17853D01*
G37*
G36*
X23544Y-17656D02*
X24530Y-17656D01*
X24530Y-17934D01*
X23544Y-17934D01*
X23544Y-17656D01*
X23544Y-17656D01*
G37*
G36*
X23544Y-17459D02*
X24530Y-17459D01*
X24530Y-17737D01*
X23544Y-17737D01*
X23544Y-17459D01*
X23544Y-17459D01*
G37*
G36*
X23544Y-17263D02*
X24530Y-17263D01*
X24530Y-17541D01*
X23544Y-17541D01*
X23544Y-17263D01*
X23544Y-17263D01*
G37*
G36*
X23544Y-17066D02*
X24530Y-17066D01*
X24530Y-17344D01*
X23544Y-17344D01*
X23544Y-17066D01*
X23544Y-17066D01*
G37*
G36*
X23544Y-16869D02*
X24530Y-16869D01*
X24530Y-17147D01*
X23544Y-17147D01*
X23544Y-16869D01*
X23544Y-16869D01*
G37*
G36*
X23544Y-16672D02*
X24530Y-16672D01*
X24530Y-16950D01*
X23544Y-16950D01*
X23544Y-16672D01*
X23544Y-16672D01*
G37*
G36*
X23544Y-16475D02*
X24530Y-16475D01*
X24530Y-16753D01*
X23544Y-16753D01*
X23544Y-16475D01*
X23544Y-16475D01*
G37*
G36*
X23544Y-16278D02*
X24530Y-16278D01*
X24530Y-16556D01*
X23544Y-16556D01*
X23544Y-16278D01*
X23544Y-16278D01*
G37*
G36*
X23544Y-16081D02*
X24530Y-16081D01*
X24530Y-16359D01*
X23544Y-16359D01*
X23544Y-16081D01*
X23544Y-16081D01*
G37*
G36*
X23544Y-15885D02*
X24530Y-15885D01*
X24530Y-16163D01*
X23544Y-16163D01*
X23544Y-15885D01*
X23544Y-15885D01*
G37*
G36*
X23544Y-15688D02*
X24530Y-15688D01*
X24530Y-15966D01*
X23544Y-15966D01*
X23544Y-15688D01*
X23544Y-15688D01*
G37*
G36*
X23544Y-15491D02*
X24530Y-15491D01*
X24530Y-15769D01*
X23544Y-15769D01*
X23544Y-15491D01*
X23544Y-15491D01*
G37*
G36*
X23544Y-15294D02*
X24530Y-15294D01*
X24530Y-15572D01*
X23544Y-15572D01*
X23544Y-15294D01*
X23544Y-15294D01*
G37*
G36*
X23544Y-15097D02*
X24530Y-15097D01*
X24530Y-15375D01*
X23544Y-15375D01*
X23544Y-15097D01*
X23544Y-15097D01*
G37*
G54D11*
X16163Y-15236D03*
X16163Y-15433D03*
X16163Y-15630D03*
X16163Y-15827D03*
X16163Y-16024D03*
X16163Y-16220D03*
X16163Y-16417D03*
X16163Y-16614D03*
X16163Y-16811D03*
X16163Y-17008D03*
X16163Y-17205D03*
X16163Y-17402D03*
X16163Y-17598D03*
X16163Y-17795D03*
X16163Y-17992D03*
X16163Y-18189D03*
X16163Y-18386D03*
X16163Y-18583D03*
X16163Y-18780D03*
X16163Y-18976D03*
X16163Y-19173D03*
X16163Y-19370D03*
G54D10*
G36*
X15670Y-19428D02*
X16656Y-19428D01*
X16656Y-19706D01*
X15670Y-19706D01*
X15670Y-19428D01*
X15670Y-19428D01*
G37*
G36*
X15670Y-19625D02*
X16656Y-19625D01*
X16656Y-19903D01*
X15670Y-19903D01*
X15670Y-19625D01*
X15670Y-19625D01*
G37*
G36*
X23544Y-19428D02*
X24530Y-19428D01*
X24530Y-19706D01*
X23544Y-19706D01*
X23544Y-19428D01*
X23544Y-19428D01*
G37*
G36*
X23544Y-19625D02*
X24530Y-19625D01*
X24530Y-19903D01*
X23544Y-19903D01*
X23544Y-19625D01*
X23544Y-19625D01*
G37*
G54D12*
X41175Y-23000D03*
X40325Y-23000D03*
X14475Y-25400D03*
X15325Y-25400D03*
X24175Y-28500D03*
X23325Y-28500D03*
G54D18*
X15100Y-15675D03*
X15100Y-16525D03*
G54D13*
X11000Y-25250D03*
G54D14*
X12000Y-25250D03*
X11000Y-26250D03*
X12000Y-26250D03*
X11000Y-27250D03*
X12000Y-27250D03*
X11000Y-28250D03*
X12000Y-28250D03*
G54D13*
X11000Y-20500D03*
G54D14*
X12000Y-20500D03*
X11000Y-21500D03*
X12000Y-21500D03*
X11000Y-22500D03*
X12000Y-22500D03*
X11000Y-23500D03*
X12000Y-23500D03*
G54D13*
X11000Y-15750D03*
G54D14*
X12000Y-15750D03*
X11000Y-16750D03*
X12000Y-16750D03*
X11000Y-17750D03*
X12000Y-17750D03*
X11000Y-18750D03*
X12000Y-18750D03*
G54D13*
X45500Y-34000D03*
G54D14*
X46500Y-34000D03*
X45500Y-35000D03*
X46500Y-35000D03*
X45500Y-36000D03*
X46500Y-36000D03*
X45500Y-37000D03*
X46500Y-37000D03*
G54D13*
X45500Y-29500D03*
G54D14*
X46500Y-29500D03*
X45500Y-30500D03*
X46500Y-30500D03*
X45500Y-31500D03*
X46500Y-31500D03*
X45500Y-32500D03*
X46500Y-32500D03*
G54D13*
X36500Y-22000D03*
G54D14*
X35500Y-22000D03*
G54D19*
X46488Y-28360D03*
X46488Y-22140D03*
G54D20*
X42709Y-22455D03*
G54D21*
X42709Y-28360D03*
G54D22*
X42433Y-27829D03*
X42433Y-27396D03*
X42433Y-26963D03*
X42433Y-26530D03*
X42433Y-26096D03*
X42433Y-25663D03*
X42433Y-25230D03*
X42433Y-24797D03*
X42433Y-24364D03*
G54D23*
X42400Y-29250D03*
X42400Y-29750D03*
X42400Y-30250D03*
X42400Y-30750D03*
X39600Y-30750D03*
X39600Y-30250D03*
X39600Y-29750D03*
X39600Y-29250D03*
G54D18*
X36000Y-15275D03*
X36000Y-16125D03*
G54D12*
X35925Y-20750D03*
X35075Y-20750D03*
X37825Y-30250D03*
X38675Y-30250D03*
X41175Y-28250D03*
X40325Y-28250D03*
X41175Y-23750D03*
X40325Y-23750D03*
X41175Y-24500D03*
X40325Y-24500D03*
X41175Y-25250D03*
X40325Y-25250D03*
X41175Y-26000D03*
X40325Y-26000D03*
X41175Y-26750D03*
X40325Y-26750D03*
X41175Y-27500D03*
X40325Y-27500D03*
G54D13*
X43000Y-10000D03*
G54D14*
X43000Y-11000D03*
X42000Y-10000D03*
X42000Y-11000D03*
X41000Y-10000D03*
X41000Y-11000D03*
X40000Y-10000D03*
X40000Y-11000D03*
X39000Y-10000D03*
X39000Y-11000D03*
X38000Y-10000D03*
X38000Y-11000D03*
X37000Y-10000D03*
X37000Y-11000D03*
X36000Y-10000D03*
X36000Y-11000D03*
X35000Y-10000D03*
X35000Y-11000D03*
X34000Y-10000D03*
X34000Y-11000D03*
X33000Y-10000D03*
X33000Y-11000D03*
X32000Y-10000D03*
X32000Y-11000D03*
X31000Y-10000D03*
X31000Y-11000D03*
X30000Y-10000D03*
X30000Y-11000D03*
X29000Y-10000D03*
X29000Y-11000D03*
X28000Y-10000D03*
X28000Y-11000D03*
X27000Y-10000D03*
X27000Y-11000D03*
X26000Y-10000D03*
X26000Y-11000D03*
X25000Y-10000D03*
X25000Y-11000D03*
X24000Y-10000D03*
X24000Y-11000D03*
X23000Y-10000D03*
X23000Y-11000D03*
X22000Y-10000D03*
X22000Y-11000D03*
X21000Y-10000D03*
X21000Y-11000D03*
X20000Y-10000D03*
X20000Y-11000D03*
X19000Y-10000D03*
X19000Y-11000D03*
X18000Y-10000D03*
X18000Y-11000D03*
X17000Y-10000D03*
X17000Y-11000D03*
X16000Y-10000D03*
X16000Y-11000D03*
X15000Y-10000D03*
X15000Y-11000D03*
X14000Y-10000D03*
X14000Y-11000D03*
X13000Y-10000D03*
X13000Y-11000D03*
X12000Y-10000D03*
X12000Y-11000D03*
G54D13*
X12000Y-34000D03*
G54D14*
X12000Y-33000D03*
X13000Y-34000D03*
X13000Y-33000D03*
X14000Y-34000D03*
X14000Y-33000D03*
X15000Y-34000D03*
X15000Y-33000D03*
X16000Y-34000D03*
X16000Y-33000D03*
X17000Y-34000D03*
X17000Y-33000D03*
X18000Y-34000D03*
X18000Y-33000D03*
X19000Y-34000D03*
X19000Y-33000D03*
X20000Y-34000D03*
X20000Y-33000D03*
X21000Y-34000D03*
X21000Y-33000D03*
X22000Y-34000D03*
X22000Y-33000D03*
X23000Y-34000D03*
X23000Y-33000D03*
X24000Y-34000D03*
X24000Y-33000D03*
X25000Y-34000D03*
X25000Y-33000D03*
X26000Y-34000D03*
X26000Y-33000D03*
X27000Y-34000D03*
X27000Y-33000D03*
X28000Y-34000D03*
X28000Y-33000D03*
X29000Y-34000D03*
X29000Y-33000D03*
X30000Y-34000D03*
X30000Y-33000D03*
X31000Y-34000D03*
X31000Y-33000D03*
X32000Y-34000D03*
X32000Y-33000D03*
X33000Y-34000D03*
X33000Y-33000D03*
X34000Y-34000D03*
X34000Y-33000D03*
X35000Y-34000D03*
X35000Y-33000D03*
X36000Y-34000D03*
X36000Y-33000D03*
X37000Y-34000D03*
X37000Y-33000D03*
X38000Y-34000D03*
X38000Y-33000D03*
X39000Y-34000D03*
X39000Y-33000D03*
X40000Y-34000D03*
X40000Y-33000D03*
X41000Y-34000D03*
X41000Y-33000D03*
X42000Y-34000D03*
X42000Y-33000D03*
X43000Y-34000D03*
X43000Y-33000D03*
M02*
