G04 (created by PCBNEW-RS274X (2012-01-19 BZR 3256)-stable) date 14/09/2012 00:22:44*
G01*
G70*
G90*
%MOIN*%
G04 Gerber Fmt 3.4, Leading zero omitted, Abs format*
%FSLAX34Y34*%
G04 APERTURE LIST*
%ADD10C,0.006000*%
%ADD11R,0.078700X0.007800*%
%ADD12R,0.045000X0.055000*%
%ADD13R,0.080000X0.144000*%
%ADD14R,0.080000X0.040000*%
%ADD15R,0.070000X0.110000*%
%ADD16R,0.055000X0.045000*%
%ADD17R,0.086600X0.055100*%
%ADD18R,0.055100X0.078700*%
%ADD19R,0.055100X0.055100*%
%ADD20R,0.078700X0.027600*%
%ADD21R,0.075000X0.020000*%
G04 APERTURE END LIST*
G54D10*
G54D11*
X24037Y-26870D03*
X24037Y-26673D03*
X24037Y-26476D03*
X24037Y-26280D03*
X24037Y-26083D03*
X24037Y-25886D03*
X24037Y-25689D03*
X24037Y-25492D03*
X24037Y-25295D03*
X24037Y-25098D03*
X24037Y-24902D03*
X24037Y-24705D03*
X24037Y-24508D03*
X24037Y-24311D03*
X24037Y-24114D03*
X24037Y-23917D03*
X24037Y-23720D03*
X24037Y-23524D03*
X24037Y-23327D03*
X24037Y-23130D03*
X24037Y-22933D03*
X24037Y-22736D03*
X24037Y-22539D03*
X24037Y-22343D03*
X16163Y-22343D03*
X16163Y-22539D03*
X16163Y-22736D03*
X16163Y-22933D03*
X16163Y-23130D03*
X16163Y-23327D03*
X16163Y-23524D03*
X16163Y-23720D03*
X16163Y-23917D03*
X16163Y-24114D03*
X16163Y-24311D03*
X16163Y-24508D03*
X16163Y-24705D03*
X16163Y-24902D03*
X16163Y-25098D03*
X16163Y-25295D03*
X16163Y-25492D03*
X16163Y-25689D03*
X16163Y-25886D03*
X16163Y-26083D03*
X16163Y-26280D03*
X16163Y-26476D03*
X16163Y-26673D03*
X16163Y-26870D03*
X16163Y-27067D03*
X16163Y-27264D03*
X16163Y-27461D03*
X16163Y-27657D03*
X24037Y-27067D03*
X24037Y-27264D03*
X24037Y-27461D03*
X24037Y-27657D03*
X27063Y-15630D03*
X27063Y-15827D03*
X27063Y-16024D03*
X27063Y-16220D03*
X27063Y-16417D03*
X27063Y-16614D03*
X27063Y-16811D03*
X27063Y-17008D03*
X27063Y-17205D03*
X27063Y-17402D03*
X27063Y-17598D03*
X27063Y-17795D03*
X27063Y-17992D03*
X27063Y-18189D03*
X27063Y-18386D03*
X27063Y-18583D03*
X27063Y-18780D03*
X27063Y-18976D03*
X27063Y-19173D03*
X27063Y-19370D03*
X27063Y-19567D03*
X27063Y-19764D03*
X34937Y-19764D03*
X34937Y-19567D03*
X34937Y-19370D03*
X34937Y-19173D03*
X34937Y-18976D03*
X34937Y-18780D03*
X34937Y-18583D03*
X34937Y-18386D03*
X34937Y-18189D03*
X34937Y-17992D03*
X34937Y-17795D03*
X34937Y-17598D03*
X34937Y-17402D03*
X34937Y-17205D03*
X34937Y-17008D03*
X34937Y-16811D03*
X34937Y-16614D03*
X34937Y-16417D03*
X34937Y-16220D03*
X34937Y-16024D03*
X34937Y-15827D03*
X34937Y-15630D03*
X34937Y-15433D03*
X34937Y-15236D03*
X27063Y-15433D03*
X27063Y-15236D03*
G54D12*
X37825Y-29250D03*
X38675Y-29250D03*
G54D13*
X39700Y-19000D03*
G54D14*
X42300Y-19000D03*
X42300Y-18100D03*
X42300Y-19900D03*
G54D15*
X41700Y-16500D03*
X40300Y-16500D03*
X41700Y-21500D03*
X40300Y-21500D03*
G54D16*
X25100Y-18125D03*
X25100Y-17275D03*
X36000Y-18025D03*
X36000Y-17175D03*
X26100Y-18125D03*
X26100Y-17275D03*
G54D12*
X37825Y-28250D03*
X38675Y-28250D03*
G54D16*
X25900Y-28225D03*
X25900Y-27375D03*
X15100Y-17275D03*
X15100Y-18125D03*
X25000Y-28225D03*
X25000Y-27375D03*
G54D12*
X14475Y-24600D03*
X15325Y-24600D03*
G54D16*
X25500Y-21875D03*
X25500Y-22725D03*
X36000Y-19725D03*
X36000Y-18875D03*
X25500Y-24425D03*
X25500Y-23575D03*
G54D10*
G36*
X23644Y-19331D02*
X24430Y-19331D01*
X24430Y-19409D01*
X23644Y-19409D01*
X23644Y-19331D01*
X23644Y-19331D01*
G37*
G36*
X23644Y-19134D02*
X24430Y-19134D01*
X24430Y-19212D01*
X23644Y-19212D01*
X23644Y-19134D01*
X23644Y-19134D01*
G37*
G36*
X23644Y-18937D02*
X24430Y-18937D01*
X24430Y-19015D01*
X23644Y-19015D01*
X23644Y-18937D01*
X23644Y-18937D01*
G37*
G36*
X23644Y-18741D02*
X24430Y-18741D01*
X24430Y-18819D01*
X23644Y-18819D01*
X23644Y-18741D01*
X23644Y-18741D01*
G37*
G36*
X23644Y-18544D02*
X24430Y-18544D01*
X24430Y-18622D01*
X23644Y-18622D01*
X23644Y-18544D01*
X23644Y-18544D01*
G37*
G36*
X23644Y-18347D02*
X24430Y-18347D01*
X24430Y-18425D01*
X23644Y-18425D01*
X23644Y-18347D01*
X23644Y-18347D01*
G37*
G36*
X23644Y-18150D02*
X24430Y-18150D01*
X24430Y-18228D01*
X23644Y-18228D01*
X23644Y-18150D01*
X23644Y-18150D01*
G37*
G36*
X23644Y-17953D02*
X24430Y-17953D01*
X24430Y-18031D01*
X23644Y-18031D01*
X23644Y-17953D01*
X23644Y-17953D01*
G37*
G36*
X23644Y-17756D02*
X24430Y-17756D01*
X24430Y-17834D01*
X23644Y-17834D01*
X23644Y-17756D01*
X23644Y-17756D01*
G37*
G36*
X23644Y-17559D02*
X24430Y-17559D01*
X24430Y-17637D01*
X23644Y-17637D01*
X23644Y-17559D01*
X23644Y-17559D01*
G37*
G36*
X23644Y-17363D02*
X24430Y-17363D01*
X24430Y-17441D01*
X23644Y-17441D01*
X23644Y-17363D01*
X23644Y-17363D01*
G37*
G36*
X23644Y-17166D02*
X24430Y-17166D01*
X24430Y-17244D01*
X23644Y-17244D01*
X23644Y-17166D01*
X23644Y-17166D01*
G37*
G36*
X23644Y-16969D02*
X24430Y-16969D01*
X24430Y-17047D01*
X23644Y-17047D01*
X23644Y-16969D01*
X23644Y-16969D01*
G37*
G36*
X23644Y-16772D02*
X24430Y-16772D01*
X24430Y-16850D01*
X23644Y-16850D01*
X23644Y-16772D01*
X23644Y-16772D01*
G37*
G36*
X23644Y-16575D02*
X24430Y-16575D01*
X24430Y-16653D01*
X23644Y-16653D01*
X23644Y-16575D01*
X23644Y-16575D01*
G37*
G36*
X23644Y-16378D02*
X24430Y-16378D01*
X24430Y-16456D01*
X23644Y-16456D01*
X23644Y-16378D01*
X23644Y-16378D01*
G37*
G36*
X23644Y-16181D02*
X24430Y-16181D01*
X24430Y-16259D01*
X23644Y-16259D01*
X23644Y-16181D01*
X23644Y-16181D01*
G37*
G36*
X23644Y-15985D02*
X24430Y-15985D01*
X24430Y-16063D01*
X23644Y-16063D01*
X23644Y-15985D01*
X23644Y-15985D01*
G37*
G36*
X23644Y-15788D02*
X24430Y-15788D01*
X24430Y-15866D01*
X23644Y-15866D01*
X23644Y-15788D01*
X23644Y-15788D01*
G37*
G36*
X23644Y-15591D02*
X24430Y-15591D01*
X24430Y-15669D01*
X23644Y-15669D01*
X23644Y-15591D01*
X23644Y-15591D01*
G37*
G36*
X23644Y-15394D02*
X24430Y-15394D01*
X24430Y-15472D01*
X23644Y-15472D01*
X23644Y-15394D01*
X23644Y-15394D01*
G37*
G36*
X23644Y-15197D02*
X24430Y-15197D01*
X24430Y-15275D01*
X23644Y-15275D01*
X23644Y-15197D01*
X23644Y-15197D01*
G37*
G54D11*
X16163Y-15236D03*
X16163Y-15433D03*
X16163Y-15630D03*
X16163Y-15827D03*
X16163Y-16024D03*
X16163Y-16220D03*
X16163Y-16417D03*
X16163Y-16614D03*
X16163Y-16811D03*
X16163Y-17008D03*
X16163Y-17205D03*
X16163Y-17402D03*
X16163Y-17598D03*
X16163Y-17795D03*
X16163Y-17992D03*
X16163Y-18189D03*
X16163Y-18386D03*
X16163Y-18583D03*
X16163Y-18780D03*
X16163Y-18976D03*
X16163Y-19173D03*
X16163Y-19370D03*
G54D10*
G36*
X15770Y-19528D02*
X16556Y-19528D01*
X16556Y-19606D01*
X15770Y-19606D01*
X15770Y-19528D01*
X15770Y-19528D01*
G37*
G36*
X15770Y-19725D02*
X16556Y-19725D01*
X16556Y-19803D01*
X15770Y-19803D01*
X15770Y-19725D01*
X15770Y-19725D01*
G37*
G36*
X23644Y-19528D02*
X24430Y-19528D01*
X24430Y-19606D01*
X23644Y-19606D01*
X23644Y-19528D01*
X23644Y-19528D01*
G37*
G36*
X23644Y-19725D02*
X24430Y-19725D01*
X24430Y-19803D01*
X23644Y-19803D01*
X23644Y-19725D01*
X23644Y-19725D01*
G37*
G54D12*
X41175Y-23000D03*
X40325Y-23000D03*
X14475Y-25400D03*
X15325Y-25400D03*
X24175Y-28500D03*
X23325Y-28500D03*
G54D16*
X15100Y-15675D03*
X15100Y-16525D03*
G54D17*
X46488Y-28360D03*
X46488Y-22140D03*
G54D18*
X42709Y-22455D03*
G54D19*
X42709Y-28360D03*
G54D20*
X42433Y-27829D03*
X42433Y-27396D03*
X42433Y-26963D03*
X42433Y-26530D03*
X42433Y-26096D03*
X42433Y-25663D03*
X42433Y-25230D03*
X42433Y-24797D03*
X42433Y-24364D03*
G54D21*
X42400Y-29250D03*
X42400Y-29750D03*
X42400Y-30250D03*
X42400Y-30750D03*
X39600Y-30750D03*
X39600Y-30250D03*
X39600Y-29750D03*
X39600Y-29250D03*
G54D16*
X36000Y-15275D03*
X36000Y-16125D03*
G54D12*
X35925Y-20750D03*
X35075Y-20750D03*
X37825Y-30250D03*
X38675Y-30250D03*
X41175Y-28250D03*
X40325Y-28250D03*
X41175Y-23750D03*
X40325Y-23750D03*
X41175Y-24500D03*
X40325Y-24500D03*
X41175Y-25250D03*
X40325Y-25250D03*
X41175Y-26000D03*
X40325Y-26000D03*
X41175Y-26750D03*
X40325Y-26750D03*
X41175Y-27500D03*
X40325Y-27500D03*
M02*
